<?xml version="1.0" encoding="utf-8"?>
<!-- Generator: Adobe Illustrator 22.0.1, SVG Export Plug-In . SVG Version: 6.00 Build 0)  -->
<svg version="1.1" id="Layer_1" xmlns="http://www.w3.org/2000/svg" xmlns:xlink="http://www.w3.org/1999/xlink" x="0px" y="0px"
	 viewBox="0 0 609.4 609.4" style="enable-background:new 0 0 609.4 609.4;" xml:space="preserve">
<style type="text/css">
	.st0{fill:#FFFFFF;}
	.st1{fill:#131313;}
</style>
<g>
	<circle class="st0" cx="304.7" cy="304.7" r="217.3"/>
	<path class="st1" d="M304.7,572c-71.4,0-138.5-27.8-189-78.3c-50.5-50.5-78.3-117.6-78.3-189c0-71.4,27.8-138.5,78.3-189
		c50.5-50.5,117.6-78.3,189-78.3c71.4,0,138.5,27.8,189,78.3c50.5,50.5,78.3,117.6,78.3,189c0,71.4-27.8,138.5-78.3,189
		S376.1,572,304.7,572z M304.7,137.4c-92.2,0-167.3,75-167.3,167.3S212.5,472,304.7,472S472,397,472,304.7S397,137.4,304.7,137.4z"
		/>
</g>
</svg>
