<?xml version="1.0" encoding="utf-8"?>
<!-- Generator: Adobe Illustrator 25.0.0, SVG Export Plug-In . SVG Version: 6.00 Build 0)  -->
<svg version="1.1" xmlns="http://www.w3.org/2000/svg" xmlns:xlink="http://www.w3.org/1999/xlink" x="0px" y="0px"
	 viewBox="0 0 60 60" style="enable-background:new 0 0 60 60;" xml:space="preserve">
<style type="text/css">
	.st0{fill:#FFFFFF;}
</style>
<g id="Layer_2">
</g>
<g id="Layer_1">
	<g>
		<path class="st0" d="M30,1C14,1,1,14,1,30s13,29,29,29s29-13,29-29S46,1,30,1z M30,57.6C14.7,57.6,2.4,45.3,2.4,30
			C2.4,14.7,14.7,2.4,30,2.4S57.6,14.7,57.6,30C57.6,45.3,45.3,57.6,30,57.6z"/>
		<path class="st0" d="M30,3.7C15.5,3.7,3.7,15.5,3.7,30S15.5,56.3,30,56.3S56.3,44.5,56.3,30S44.5,3.7,30,3.7z M29.8,12.3
			c1.7,0,3.1,1.4,3.1,3.1c0,1.7-1.4,3.1-3.1,3.1c0,0,0,0,0,0c-1.7,0-3.1-1.4-3.1-3.1C26.7,13.7,28.1,12.3,29.8,12.3z M43.2,22.6
			l-9.5,0.8l0,8.3L37,45.5c0.2,0.9,0.2,1.8-0.7,2c-0.9,0.2-1.6,0-1.8-0.9l-4.2-12.8H29l-4,12.8c-0.3,0.9-1,1.3-1.8,0.9
			c-0.9-0.3-0.8-1.3-0.5-2.2l3.2-13.5v-8.5l-9.5-0.8c-0.8-0.1-1.4-0.5-1.4-1.4c0.1-0.8,0.8-1.3,1.7-1.3h15.1l11.4,0
			c0.8,0,1.8,0.4,1.8,1.3C45,22.1,44,22.6,43.2,22.6z"/>
	</g>
</g>
</svg>
