<?xml version="1.0" encoding="utf-8"?>
<!-- Generator: Adobe Illustrator 25.0.0, SVG Export Plug-In . SVG Version: 6.00 Build 0)  -->
<svg version="1.1" id="Layer_1" xmlns="http://www.w3.org/2000/svg" xmlns:xlink="http://www.w3.org/1999/xlink" x="0px" y="0px"
	 viewBox="0 0 60 60" style="enable-background:new 0 0 60 60;" xml:space="preserve">
<style type="text/css">
	.st0{fill:#FFFFFF;}
</style>
<path id="SVGID_1_" class="st0" d="M12.8,42.6c-1.6,0-3.1-1.3-3.1-3c0-1.6,1.3-3,3.1-3s3.1,1.3,3.1,3C15.9,41.3,14.4,42.6,12.8,42.6
	L12.8,42.6z M51.2,26.4c-0.3-2.4-1.8-4.3-3.7-5.8L46.7,20l-0.6,0.7c-1.2,1.3-1.6,3.7-1.5,5.5c0.1,1.3,0.6,2.7,1.3,3.7
	c-0.6,0.3-1.3,0.6-1.9,0.9c-1.3,0.4-2.7,0.6-4,0.6H1.5l-0.1,0.9c-0.3,2.8,0.1,5.8,1.3,8.5l0.6,1V42c3.6,6,10,8.6,17,8.6
	c13.4,0,24.4-5.8,29.6-18.3c3.4,0.1,6.8-0.7,8.5-4l0.4-0.7L58,27.2C56.1,26,53.4,25.8,51.2,26.4L51.2,26.4z M32,24h-5.8v5.8H32V24z
	 M32,16.8h-5.8v5.8H32V16.8z M32,9.3h-5.8v5.8H32C32,15.1,32,9.3,32,9.3z M39.1,24h-5.8v5.8h5.8V24z M17.5,24h-5.8v5.8h5.8L17.5,24
	L17.5,24z M24.8,24H19v5.8h5.8V24z M10.4,24H4.6v5.8h5.8L10.4,24L10.4,24z M24.8,16.8H19v5.8h5.8V16.8z M17.5,16.8h-5.8v5.8h5.8
	L17.5,16.8L17.5,16.8z"/>
</svg>
