<?xml version="1.0" encoding="utf-8"?>
<!-- Generator: Adobe Illustrator 25.0.0, SVG Export Plug-In . SVG Version: 6.00 Build 0)  -->
<svg version="1.1" id="Layer_1" xmlns="http://www.w3.org/2000/svg" xmlns:xlink="http://www.w3.org/1999/xlink" x="0px" y="0px"
	 viewBox="0 0 60 60" style="enable-background:new 0 0 60 60;" xml:space="preserve">
<style type="text/css">
	.st0{fill:#FFFFFF;}
	.st1{fill:#E2E2E2;}
	.st2{fill:#848484;}
	.st3{fill:#B7B7B7;}
	.st4{fill:#C6C6C6;}
	.st5{fill:#BCBCBC;}
	.st6{fill:#F7F7F7;}
</style>
<g>
	<path class="st0" d="M58.9,31.4c0-4.9-3-9-7.5-10.7c0.2-1,0.3-2.1,0.3-3.1c0-9-7.3-16.3-16.3-16.3c-5.2,0-10.1,2.5-13.2,6.8
		c-1.5-1.2-3.3-1.8-5.3-1.8c-4.8,0-8.7,3.9-8.7,8.7c0,1,0.2,2.1,0.5,3c-4.5,1.6-7.6,5.9-7.6,10.7c0,4.9,3,9.1,7.5,10.7
		c-0.2,1-0.3,2-0.3,3.1c0,9,7.3,16.3,16.3,16.3c5.3,0,10.1-2.5,13.2-6.8c1.5,1.2,3.4,1.8,5.3,1.8c4.8,0,8.7-3.9,8.7-8.7
		c0-1-0.2-2.1-0.5-3C55.8,40.5,58.9,36.2,58.9,31.4L58.9,31.4z"/>
	<path class="st1" d="M23.7,25.9l12.9,5.9l13-11.4c0.2-0.9,0.3-1.9,0.3-2.9c0-8-6.5-14.5-14.5-14.5c-4.8,0-9.3,2.4-12,6.3l-2.2,11.2
		L23.7,25.9L23.7,25.9z"/>
	<path class="st2" d="M10.4,39.6c-0.2,0.9-0.3,1.9-0.3,2.9c0,8,6.6,14.6,14.6,14.6c4.9,0,9.3-2.4,12.1-6.4l2.1-11.2L36,34L23,28.1
		L10.4,39.6L10.4,39.6z"/>
	<path class="st3" d="M10.3,17.3l8.8,2.1l2-10c-1.2-0.9-2.7-1.4-4.2-1.4c-3.8,0-7,3.1-7,7C9.9,15.7,10,16.5,10.3,17.3L10.3,17.3z"/>
	<path class="st4" d="M9.5,19.4c-4,1.3-6.7,5.1-6.7,9.2c0,4.1,2.5,7.7,6.3,9.1l12.4-11.2l-2.3-4.9L9.5,19.4L9.5,19.4z"/>
	<path class="st5" d="M39,50.6c1.2,0.9,2.7,1.5,4.2,1.5c3.8,0,7-3.1,7-7c0-0.8-0.1-1.6-0.4-2.4l-8.8-2.1L39,50.6L39,50.6z"/>
	<path class="st6" d="M40.8,38.3l9.7,2.3c4-1.3,6.7-5.1,6.7-9.2c0-4.1-2.5-7.6-6.3-9.1L38.2,33.4L40.8,38.3L40.8,38.3z"/>
</g>
</svg>
