<?xml version="1.0" encoding="utf-8"?>
<!-- Generator: Adobe Illustrator 25.0.0, SVG Export Plug-In . SVG Version: 6.00 Build 0)  -->
<svg version="1.1" xmlns="http://www.w3.org/2000/svg" xmlns:xlink="http://www.w3.org/1999/xlink" x="0px" y="0px"
	 viewBox="0 0 60 60" style="enable-background:new 0 0 60 60;" xml:space="preserve">
<style type="text/css">
	.st0{fill:#FFFFFF;}
</style>
<g id="Layer_2">
</g>
<g id="Layer_1">
	<g>
		<path class="st0" d="M8.9,45.2L6.8,44L30.5,2.9l2.1,1.2L8.9,45.2z"/>
		<path class="st0" d="M6.3,40.7h47.4v2.5H6.3L6.3,40.7z"/>
		<path class="st0" d="M30.9,55.8L7.2,42.1l1.2-2.1l23.7,13.7L30.9,55.8z M51.6,20.1L27.8,6.4l1.2-2.1l23.7,13.7L51.6,20.1z"/>
		<path class="st0" d="M8.4,20.1l-1.2-2.1L30.9,4.2l1.2,2.1L8.4,20.1z"/>
		<path class="st0" d="M51.1,45.2L27.4,4.1l2.1-1.2L53.2,44L51.1,45.2z M8.2,16.3h2.5v27.4H8.2V16.3z"/>
		<path class="st0" d="M49.4,16.3h2.5v27.4h-2.5V16.3z"/>
		<path class="st0" d="M30.5,54.7l-1.1-1.9L50.1,41l1.1,1.9L30.5,54.7z"/>
		<path class="st0" d="M55.1,44.5c-1.4,2.5-4.6,3.3-7.1,1.9c-2.5-1.4-3.3-4.6-1.9-7.1c1.4-2.5,4.6-3.3,7.1-1.9
			C55.7,38.9,56.5,42,55.1,44.5 M13.8,20.7c-1.4,2.5-4.6,3.3-7.1,1.9S3.5,18,4.9,15.5s4.6-3.3,7.1-1.9C14.4,15,15.3,18.2,13.8,20.7
			 M4.9,44.5c-1.4-2.5-0.6-5.6,1.9-7.1c2.5-1.4,5.6-0.6,7.1,1.9c1.4,2.5,0.6,5.6-1.9,7.1C9.5,47.8,6.3,47,4.9,44.5 M46.2,20.7
			c-1.4-2.5-0.6-5.6,1.9-7.1c2.5-1.4,5.6-0.6,7.1,1.9c1.4,2.5,0.6,5.6-1.9,7.1C50.8,24,47.6,23.1,46.2,20.7 M30,59
			c-2.9,0-5.2-2.3-5.2-5.2s2.3-5.2,5.2-5.2s5.2,2.3,5.2,5.2C35.2,56.7,32.9,59,30,59 M30,11.3c-2.9,0-5.2-2.3-5.2-5.2S27.1,1,30,1
			s5.2,2.3,5.2,5.2S32.9,11.3,30,11.3"/>
	</g>
</g>
</svg>
