<?xml version="1.0" encoding="utf-8"?>
<!-- Generator: Adobe Illustrator 25.0.0, SVG Export Plug-In . SVG Version: 6.00 Build 0)  -->
<svg version="1.1" id="Layer_1" xmlns="http://www.w3.org/2000/svg" xmlns:xlink="http://www.w3.org/1999/xlink" x="0px" y="0px"
	 viewBox="0 0 60 60" style="enable-background:new 0 0 60 60;" xml:space="preserve">
<style type="text/css">
	.st0{fill:#FFFFFF;}
</style>
<g id="Layer_2_1_">
</g>
<g id="Layer_1_1_">
	<g>
		<g>
			<path class="st0" d="M17.4,50.4l2.3,3.8l0.8,12c0,1.3,4.2,2.3,9.5,2.3c5.2,0,9.5-1,9.5-2.3l0.7-12.3l2-3.5c0,0-4.6,1.9-12.4,1.9
				S17.4,50.4,17.4,50.4z"/>
			<path class="st0" d="M37.1,8.7L37.1,8.7l1.6-6.1l8.6-9l-2.3-2l-9.1,9.6l-1.8,7.3c-1.4,0-2.7-0.1-4.1-0.1
				c-9.6,0-17.4,1.1-17.4,2.4s7.8,2.4,17.4,2.4s17.3-1.1,17.3-2.4C47.4,9.9,43.1,9.1,37.1,8.7z M36.2,12.1L36.2,12.1
				c0,0-0.3,0.1-1.3,0.1s-1.7,0-2-0.3c-0.1-0.1-0.1-0.2-0.1-0.3c0-0.2,0.1-0.3,0.3-0.3l0.1,0.2c-0.1,0-0.1,0-0.1,0.1s1,0.2,1.8,0.2
				s1.7-0.1,1.7-0.2c0,0-0.1-0.1-0.2-0.1l0.1-0.2c0.2,0.1,0.4,0.2,0.4,0.4C36.9,12,36.5,12.1,36.2,12.1z"/>
		</g>
		<path class="st0" d="M47.2-6.5c0.2-0.2-0.1-0.9-0.7-1.4c-0.6-0.5-1.3-0.8-1.5-0.5c-0.2,0.2,0.1,0.9,0.7,1.4
			C46.3-6.5,47-6.2,47.2-6.5 M39,36.1c-0.2-2,4.3-4.8,3.1-4.9c-2.5,0.1-3.7,2.9-5,5.8c-0.5,1.1-2,5.6-3,5s1.3-4.3,2-6.5
			c-0.8,0.6-3.6,2.7-4.3,0.7c-1.2,1-3.6,1.5-3.4-1.1c-0.6,1.1-2,2.6-3.7,2c-2.2-0.8,1.3-7.8,2.1-7.4c0.9,0.4-0.2,1.9-0.4,2.5
			c-0.6,1.4-1.3,3.1-0.8,3.4c0.8,0.6,2.9-2.3,3-2.3c0.4-0.5,1.5-4,2.5-3.6c1,0.4-2.3,4.9-1.1,5.8c0.2,0.2,1.2-0.1,1.8-0.8
			c0.4-0.4,0.3-1.4,1.6-4.4c1.3-3.1,2.4-6.9,3.3-6.6c0.9,0.3,0.2,2.3-0.2,3c-1.5,3.5-4.1,9.2-2.9,8.7c1.2-0.4,1.9-0.5,3-1.9
			s1.1-3.7,1.9-3.7c0.8,0,0.7,0.8,0.5,1.3c0.8-0.9,3.7-2.8,4.4-0.9c0.8,2.2-4.2,5.4-2.9,5.2c1.2-0.2,3.2-1.4,4-2.6L47,12.2
			c0,0-2.3,1.9-17.2,1.9s-17-1.9-17-1.9l2,19.1c1.1-3,3.6-9,7.5-8.8c1.8,0.1,4.2,3.5,2.1,3.7c-0.9,0-1-1.7-2-2
			c-0.7-0.2-1.8,0.4-2.4,1.1c-1.3,1.3-4.2,6.4-3.8,9c0.5,3.3,4.5-1.1,5.2-2.4c0.5-0.9,0.8-3.6,1.9-3.4c1,0.3-0.1,3.1-0.9,5.6
			c-0.9,2.8-1.3,5.7-2.4,5.4s0.7-3.9,0.6-4.6c-1,0.9-2.9,3.3-5.2,2.1l1.2,11.9c0,0,3.3,2.6,13.1,2.6S42.9,49,42.9,49l1.5-13.7
			C43.2,36.4,39.3,38.6,39,36.1"/>
	</g>
</g>
</svg>
