<?xml version="1.0" encoding="utf-8"?>
<!-- Generator: Adobe Illustrator 25.0.0, SVG Export Plug-In . SVG Version: 6.00 Build 0)  -->
<svg version="1.1" xmlns="http://www.w3.org/2000/svg" xmlns:xlink="http://www.w3.org/1999/xlink" x="0px" y="0px"
	 viewBox="0 0 60 60" style="enable-background:new 0 0 60 60;" xml:space="preserve">
<style type="text/css">
	.st0{fill:#FFFFFF;}
</style>
<g id="Layer_2">
</g>
<g id="Layer_1">
	<g>
		<path class="st0" d="M35.5,24c1.1,0.9,1.8,2.2,2.2,3.6c1.7-0.1,3.4-0.1,5.1,0c0.4-1.3,1.1-2.5,2-3.4l-4.7-9.6L35.5,24z"/>
		<path class="st0" d="M46.2,27c-0.2,0.2-0.3,0.5-0.4,0.8c-0.2,0.5-0.3,1.1-0.3,1.7c0,0.4,0.1,0.8,0.2,1.2c0.5,1.9,2.3,3.3,4.3,3.3
			c0.9,0,1.8-0.3,2.6-0.8c0.8-0.6,1.4-1.4,1.7-2.4c0.1-0.4,0.2-0.8,0.2-1.3h0c0-2.3-1.8-4.3-4.1-4.5c-0.1,0-0.3,0-0.4,0
			C48.3,25,47,25.8,46.2,27z"/>
		<path class="st0" d="M33,22.5L40.1,8l7.1,14.6c0.3-0.1,0.6-0.2,0.9-0.3L55.4,1H24.8L32,22.3C32.3,22.3,32.6,22.4,33,22.5z"/>
		<path class="st0" d="M31,34c1.9-0.2,3.5-1.6,3.9-3.4c0.1-0.3,0.1-0.7,0.1-1c0-0.7-0.1-1.3-0.4-1.9c-0.1-0.3-0.3-0.6-0.5-0.9
			C33.3,25.7,32,25,30.6,25c-0.2,0-0.4,0-0.7,0c-2.2,0.3-3.8,2.2-3.8,4.4h0c0,1.6,0.8,3,2.1,3.8c0.7,0.5,1.6,0.7,2.4,0.7
			C30.7,34,30.9,34,31,34z"/>
		<path class="st0" d="M11.1,25.1c-2.5,0-4.5,2-4.5,4.5c0,0.8,0.2,1.5,0.6,2.2c0.5,0.9,1.3,1.6,2.3,2c0.5,0.2,1,0.3,1.6,0.3
			c0.1,0,0.2,0,0.3,0c1.5-0.1,2.7-0.9,3.5-2.1c0.4-0.7,0.7-1.5,0.7-2.4C15.6,27.1,13.6,25.1,11.1,25.1z"/>
		<path class="st0" d="M8.5,57.1c5.9,4.1,12.1,1,19.3-2.6c3.6-1.8,7.3-3.6,11.2-4.6c1.5-0.4,2.9-0.6,4.4-0.8c2.7-0.4,5.2-0.8,7.3-2
			c2.3-1.3,3.8-3.5,4.3-6v0c0.3-1.9,0-3.8-0.8-5.5c-1.2,0.8-2.6,1.3-4.2,1.3c-3.7,0-6.8-2.8-7.3-6.4c-1.5-0.1-3.2-0.1-4.7,0
			c-0.5,3.6-3.6,6.4-7.3,6.4c-0.4,0-0.7,0-1.1-0.1c-1.2,1.9-2.7,3.7-4.4,5.3c-2.6,2.5-5.6,4.3-8.8,5.5l-0.6,0.2l-0.6-0.3
			c-4.1-2.1-6-6.5-4.8-10.6c-0.7-0.1-1.3-0.2-1.9-0.5c-0.2,0.4-0.4,0.8-0.6,1.3c-1.2,2.5-2.5,5.1-2.9,7.9
			C4.4,48.6,4.2,54.1,8.5,57.1z"/>
	</g>
</g>
</svg>
