<?xml version="1.0" encoding="utf-8"?>
<!-- Generator: Adobe Illustrator 25.0.0, SVG Export Plug-In . SVG Version: 6.00 Build 0)  -->
<svg version="1.1" id="Layer_1" xmlns="http://www.w3.org/2000/svg" xmlns:xlink="http://www.w3.org/1999/xlink" x="0px" y="0px"
	 viewBox="0 0 60 60" style="enable-background:new 0 0 60 60;" xml:space="preserve">
<style type="text/css">
	.st0{fill:#FFFFFF;}
</style>
<g>
	<path class="st0" d="M24,30.2c0.4-0.4,0.3-1.1-0.1-1.5L19,24.4l0,0c-1.5,2.4-2.1,5.2-1.8,8l6.3-1.8C23.7,30.5,23.9,30.4,24,30.2z"
		/>
	<path class="st0" d="M26.9,25.9c0.6,0,1.1-0.5,1.1-1.1l0.4-6.5c-0.4,0.1-0.9,0.2-1.3,0.2v0c-2.3,0.5-4.4,1.7-6.1,3.4l5.4,3.9
		C26.5,25.9,26.7,25.9,26.9,25.9z"/>
	<path class="st0" d="M32.1,25.5c0.4,0.4,1,0.5,1.4,0.2l5.4-3.8c-2-2-4.6-3.2-7.4-3.6l0.4,6.7C32,25.2,32,25.3,32.1,25.5z"/>
	<path class="st0" d="M24.4,34.3l-6.5,1.1h0c1,2.7,2.8,4.9,5.1,6.4l2.5-6c0.1-0.2,0.1-0.4,0-0.7C25.4,34.7,24.9,34.3,24.4,34.3z"/>
	<polygon class="st0" points="28.2,32.5 30,33.4 31.8,32.5 31.8,32.5 32.2,30.6 30.9,29 28.9,29 27.7,30.6 	"/>
	<path class="st0" d="M42.4,28.2c-0.3-1.4-0.9-2.7-1.6-3.9l-4.9,4.5c-0.1,0.1-0.2,0.3-0.2,0.4c-0.1,0.6,0.2,1.1,0.8,1.3l6.3,1.8
		C42.9,31,42.8,29.6,42.4,28.2L42.4,28.2z"/>
	<path class="st0" d="M30.4,37.1c-0.4-0.2-1-0.1-1.3,0.3l-3.2,5.8c1.3,0.4,2.7,0.7,4.1,0.7c1,0,1.9-0.1,2.9-0.3l0,0
		c0.4-0.1,0.8-0.2,1.2-0.3l-3.1-5.7C30.7,37.4,30.6,37.2,30.4,37.1z"/>
	<path class="st0" d="M34.9,34.4c-0.5,0.2-0.7,0.8-0.6,1.3l2.6,6.2c1.6-1,2.9-2.3,3.9-4v0c0.5-0.8,0.9-1.6,1.2-2.5l-6.5-1.1
		C35.2,34.3,35,34.3,34.9,34.4z"/>
	<path class="st0" d="M59,35.7l-4.8-21.1c-0.3-1.4-1.2-2.5-2.5-3.1L32,2.2c-0.6-0.3-1.3-0.5-2-0.5c-0.7,0-1.4,0.2-2,0.5L8.4,11.5
		c-1.3,0.6-2.2,1.7-2.5,3.1L1,35.7c-0.3,1.4,0,2.8,0.9,4l13.6,16.9c0.9,1.1,2.2,1.7,3.6,1.7l0,0l21.9,0c1.4,0,2.7-0.7,3.6-1.7
		l13.6-16.9C59,38.5,59.3,37.1,59,35.7z M49.5,36.4c-0.1,0-0.2,0-0.3,0c0,0-0.1,0-0.1,0c-0.1,0-0.2,0-0.2,0
		c-0.3-0.1-0.5-0.2-0.7-0.3c-0.1,0-0.2-0.1-0.3-0.2h0c-0.7-0.3-1.4-0.5-2-0.6h-0.1c-0.2,0-0.3,0.1-0.5,0.2c0,0,0,0-0.1,0l-0.5-0.1
		c-0.4,1.2-0.9,2.4-1.6,3.5c-1.3,2.1-3.1,3.8-5.1,5l0.2,0.5c0,0,0,0,0,0.1c0,0.2-0.1,0.3,0,0.6c0.2,0.6,0.6,1.2,1,1.8v0
		c0.1,0.1,0.2,0.2,0.2,0.3c0.2,0.2,0.3,0.4,0.4,0.6c0,0,0.1,0.1,0.1,0.2c0,0,0,0,0,0.1c0.2,0.3,0.2,0.7,0.1,1
		c-0.1,0.3-0.3,0.5-0.6,0.7C39.2,49.9,39,50,38.8,50c-0.5,0-0.9-0.3-1.2-0.7c0,0,0,0,0-0.1c0-0.1-0.1-0.1-0.1-0.2
		c-0.1-0.2-0.2-0.5-0.2-0.7l-0.1-0.3v0c-0.3-0.7-0.5-1.4-0.8-1.9c-0.2-0.2-0.3-0.3-0.5-0.3c0,0,0,0-0.1,0l-0.2-0.4
		c-0.7,0.2-1.3,0.4-2,0.6c-1.1,0.3-2.2,0.4-3.4,0.4c-1.9,0-3.7-0.3-5.4-1l-0.3,0.5c0,0,0,0-0.1,0c-0.2,0.1-0.3,0.1-0.5,0.3
		c-0.3,0.5-0.5,1.2-0.8,1.9L23,48.3c-0.1,0.2-0.1,0.4-0.2,0.7c0,0-0.1,0.1-0.1,0.2c0,0,0,0,0,0.1c-0.2,0.4-0.7,0.7-1.2,0.7
		c-0.2,0-0.3,0-0.5-0.1c-0.6-0.3-0.8-1-0.5-1.7c0,0,0,0,0-0.1c0-0.1,0.1-0.2,0.1-0.2c0.2-0.2,0.3-0.4,0.4-0.6
		c0.1-0.1,0.2-0.2,0.2-0.3v0c0.4-0.7,0.8-1.2,1-1.8c0.1-0.3,0-0.5-0.1-0.6c0,0,0,0,0-0.1l0.2-0.5c-0.6-0.3-1.1-0.7-1.7-1.1
		c-2.4-1.9-4.1-4.4-5.1-7.3l-0.5,0.1c0,0,0,0-0.1,0c-0.1-0.1-0.3-0.2-0.5-0.2h-0.1c-0.6,0.1-1.3,0.3-2,0.6h0c-0.1,0-0.2,0.1-0.3,0.2
		c-0.2,0.1-0.4,0.2-0.7,0.3c-0.1,0-0.2,0-0.2,0c0,0,0,0-0.1,0c-0.1,0-0.2,0-0.3,0c-0.6,0-1.1-0.3-1.2-0.9c-0.1-0.6,0.3-1.3,1-1.4
		c0,0,0.1,0,0.1,0c0.1,0,0.2,0,0.2,0c0.3,0,0.5-0.1,0.7-0.1c0.1,0,0.3,0,0.4,0h0c0.8-0.1,1.5-0.2,2.1-0.3c0.2-0.1,0.3-0.3,0.4-0.4
		c0,0,0,0,0-0.1l0.5-0.2c-0.5-3.6,0.2-7.2,2.2-10.2c0-0.1,0.1-0.2,0.2-0.3L17,22.1V22c0-0.2,0-0.4-0.2-0.6c-0.5-0.4-1-0.8-1.7-1.2
		C15,20.1,14.8,20,14.7,20c-0.2-0.1-0.4-0.2-0.7-0.4c-0.1,0-0.1-0.1-0.2-0.2c0,0,0,0-0.1,0c-0.5-0.5-0.7-1.2-0.3-1.7
		c0.2-0.3,0.5-0.4,0.9-0.4c0.3,0,0.6,0.1,0.9,0.3c0,0,0,0,0.1,0.1c0.1,0.1,0.2,0.1,0.2,0.2c0.2,0.2,0.3,0.3,0.5,0.5
		c0.1,0.1,0.2,0.2,0.3,0.3c0.5,0.6,1,1.1,1.6,1.4c0.1,0.1,0.2,0.1,0.3,0.1c0.1,0,0.2,0,0.2,0h0.1l0.4,0.3c2.1-2.2,4.7-3.7,7.7-4.3
		c0.7-0.2,1.4-0.2,2.1-0.3l0-0.5l0.1-0.1c0.1-0.1,0.3-0.2,0.3-0.5c0.1-0.6,0-1.3-0.1-2.1v0c0-0.2,0-0.3-0.1-0.4
		c-0.1-0.2-0.1-0.5-0.1-0.7v-0.3c0-0.3,0.1-0.7,0.3-0.9c0.2-0.2,0.5-0.4,0.9-0.4c0.7,0,1.2,0.6,1.2,1.3v0.3c0,0.3-0.1,0.5-0.1,0.7
		c0,0.1-0.1,0.3-0.1,0.4v0c-0.1,0.8-0.2,1.5-0.1,2.1c0,0.3,0.2,0.4,0.3,0.5l0.1,0.1l0,0.5c3,0.3,5.8,1.4,8.1,3.2
		c0.5,0.5,1.1,0.9,1.6,1.5l0.5-0.3h0.1c0.1,0,0.2,0,0.2,0c0.1,0,0.2,0,0.3-0.1c0.5-0.3,1-0.8,1.6-1.4c0.1-0.1,0.2-0.2,0.3-0.3
		c0.2-0.2,0.3-0.3,0.5-0.5c0.1,0,0.1-0.1,0.2-0.2l0.1-0.1c0.3-0.2,0.5-0.3,0.9-0.3c0.3,0,0.7,0.2,0.9,0.4c0.4,0.5,0.3,1.3-0.3,1.7
		c0,0,0,0-0.1,0.1c-0.1,0.1-0.2,0.1-0.2,0.2c-0.2,0.2-0.4,0.3-0.7,0.4c-0.1,0.1-0.2,0.1-0.3,0.2c-0.7,0.4-1.3,0.8-1.7,1.2
		C43,21.7,43,21.9,43,22.1v0.1l-0.4,0.3c1,1.6,1.7,3.3,2.2,5.1c0.4,1.8,0.5,3.6,0.3,5.5l0.5,0.2c0,0,0,0,0,0.1
		c0.1,0.2,0.2,0.3,0.4,0.4c0.6,0.2,1.3,0.3,2.1,0.3h0c0.2,0,0.3,0,0.4,0c0.2,0,0.5,0,0.7,0.1c0.1,0,0.2,0,0.2,0c0,0,0,0,0.1,0h0
		c0,0,0,0,0,0l0,0c0.7,0.2,1.1,0.8,1.1,1.3C50.6,36,50.1,36.4,49.5,36.4z"/>
</g>
</svg>
