<?xml version="1.0" encoding="utf-8"?>
<!-- Generator: Adobe Illustrator 25.0.0, SVG Export Plug-In . SVG Version: 6.00 Build 0)  -->
<svg version="1.1" id="Layer_1" xmlns="http://www.w3.org/2000/svg" xmlns:xlink="http://www.w3.org/1999/xlink" x="0px" y="0px"
	 viewBox="0 0 60 60" style="enable-background:new 0 0 60 60;" xml:space="preserve">
<style type="text/css">
	.st0{opacity:0.75;fill:#FFFFFF;}
	.st1{fill:#FFFFFF;}
</style>
<g id="Layer_2_1_">
</g>
<g>
	<path class="st0" d="M54.3,45.6L31,58.7V48.5l14.5-8L54.3,45.6z M55.9,44.1V16.6l-8.5,4.9v17.7L55.9,44.1L55.9,44.1z M5.7,45.6
		L29,58.7V48.5l-14.5-8L5.7,45.6L5.7,45.6z M4.1,44.1V16.6l8.5,4.9v17.7L4.1,44.1L4.1,44.1z M5.1,14.8L29,1.3v9.9l-15.3,8.4
		l-0.1,0.1L5.1,14.8z M54.9,14.8L31,1.3v9.9l15.3,8.4l0.1,0.1L54.9,14.8z"/>
	<path class="st1" d="M29,46.1l-14.3-7.9V22.7L29,30.9V46.1 M31,46.1l14.3-7.9V22.7L31,30.9V46.1 M15.6,20.9L30,13l14.4,7.9L30,29.2
		L15.6,20.9"/>
</g>
</svg>
