<?xml version="1.0" encoding="utf-8"?>
<!-- Generator: Adobe Illustrator 25.0.0, SVG Export Plug-In . SVG Version: 6.00 Build 0)  -->
<svg version="1.1" id="Layer_1" xmlns="http://www.w3.org/2000/svg" xmlns:xlink="http://www.w3.org/1999/xlink" x="0px" y="0px"
	 viewBox="0 0 60 60" style="enable-background:new 0 0 60 60;" xml:space="preserve">
<style type="text/css">
	.st0{fill:#FFFFFF;}
	.st1{fill-rule:evenodd;clip-rule:evenodd;fill:#FFFFFF;}
</style>
<g>
	<path class="st0" d="M17.5,25.3c0,0.7,0.1,1.3,0.2,1.7c0.2,0.4,0.3,0.9,0.6,1.4c0.1,0.2,0.1,0.3,0.1,0.4c0,0.2-0.1,0.4-0.4,0.6
		l-1.2,0.8c-0.2,0.1-0.3,0.2-0.5,0.2c-0.2,0-0.4-0.1-0.6-0.3c-0.3-0.3-0.5-0.6-0.7-0.9c-0.2-0.3-0.4-0.7-0.6-1.1
		c-1.5,1.7-3.3,2.6-5.6,2.6c-1.6,0-2.9-0.5-3.8-1.4s-1.4-2.1-1.4-3.6c0-1.6,0.6-2.9,1.7-3.9c1.2-1,2.7-1.5,4.7-1.5
		c0.6,0,1.3,0.1,2,0.2c0.7,0.1,1.4,0.2,2.2,0.4v-1.4c0-1.4-0.3-2.5-0.9-3c-0.6-0.6-1.6-0.9-3.1-0.9c-0.7,0-1.3,0.1-2.1,0.2
		C7.6,16,7,16.2,6.3,16.5c-0.3,0.1-0.5,0.2-0.7,0.2c-0.1,0-0.2,0.1-0.3,0.1c-0.3,0-0.4-0.2-0.4-0.6v-0.9c0-0.3,0-0.5,0.1-0.7
		c0.1-0.1,0.3-0.3,0.5-0.4C6.3,13.8,7,13.5,8,13.3c0.9-0.2,1.9-0.4,3-0.4c2.3,0,3.9,0.5,5,1.5c1,1,1.6,2.6,1.6,4.7L17.5,25.3
		L17.5,25.3z M9.8,28.2c0.6,0,1.3-0.1,2-0.3c0.7-0.2,1.3-0.6,1.8-1.2c0.3-0.4,0.5-0.8,0.6-1.2c0.1-0.5,0.2-1,0.2-1.7V23
		c-0.6-0.1-1.1-0.2-1.7-0.3c-0.6-0.1-1.2-0.1-1.8-0.1c-1.3,0-2.2,0.2-2.8,0.8s-0.9,1.2-0.9,2.2c0,0.9,0.2,1.6,0.7,2
		C8.3,28,8.9,28.2,9.8,28.2L9.8,28.2z M25.1,30.3c-0.3,0-0.6-0.1-0.7-0.2c-0.2-0.1-0.3-0.4-0.4-0.7l-4.5-14.7
		c-0.1-0.4-0.2-0.6-0.2-0.8c0-0.3,0.2-0.5,0.5-0.5h1.9c0.4,0,0.6,0.1,0.7,0.2c0.2,0.1,0.3,0.4,0.4,0.7L26,26.9l3-12.6
		c0.1-0.4,0.2-0.6,0.4-0.7c0.2-0.1,0.4-0.2,0.8-0.2h1.5c0.4,0,0.6,0.1,0.8,0.2c0.2,0.1,0.3,0.4,0.4,0.7l3,12.7L39,14.3
		c0.1-0.4,0.2-0.6,0.4-0.7c0.2-0.1,0.4-0.2,0.7-0.2h1.8c0.3,0,0.5,0.2,0.5,0.5c0,0.1,0,0.2,0,0.3c0,0.1-0.1,0.3-0.1,0.5l-4.6,14.7
		c-0.1,0.4-0.2,0.6-0.4,0.7c-0.2,0.1-0.4,0.2-0.7,0.2h-1.6c-0.4,0-0.6-0.1-0.8-0.2s-0.3-0.4-0.4-0.8l-2.9-12.3l-2.9,12.2
		c-0.1,0.4-0.2,0.6-0.4,0.8c-0.2,0.1-0.4,0.2-0.8,0.2H25.1z M49.5,30.8c-1,0-2-0.1-2.9-0.3c-0.9-0.2-1.7-0.5-2.2-0.8
		c-0.3-0.2-0.5-0.4-0.6-0.5c-0.1-0.2-0.1-0.4-0.1-0.5v-1c0-0.4,0.2-0.6,0.4-0.6c0.1,0,0.2,0,0.3,0.1c0.1,0,0.3,0.1,0.5,0.2
		c0.6,0.3,1.3,0.5,2.1,0.7c0.8,0.2,1.5,0.2,2.3,0.2c1.2,0,2.1-0.2,2.8-0.6s1-1,1-1.8c0-0.5-0.2-1-0.5-1.3s-1-0.7-1.9-1l-2.8-0.9
		c-1.4-0.4-2.4-1.1-3-1.9c-0.6-0.8-0.9-1.8-0.9-2.8c0-0.8,0.2-1.5,0.5-2.1s0.8-1.1,1.4-1.6c0.6-0.4,1.2-0.8,2-1
		c0.8-0.2,1.6-0.3,2.4-0.3c0.4,0,0.9,0,1.3,0.1c0.4,0.1,0.8,0.1,1.2,0.2c0.4,0.1,0.7,0.2,1.1,0.3s0.6,0.2,0.8,0.3
		c0.3,0.2,0.5,0.3,0.6,0.5c0.1,0.2,0.2,0.4,0.2,0.6v0.9c0,0.4-0.2,0.6-0.4,0.6c-0.2,0-0.4-0.1-0.7-0.2c-1.1-0.5-2.3-0.7-3.6-0.7
		c-1.1,0-1.9,0.2-2.5,0.5c-0.6,0.4-0.9,0.9-0.9,1.7c0,0.5,0.2,1,0.6,1.3s1.1,0.7,2.1,1l2.7,0.9c1.4,0.4,2.4,1,2.9,1.8
		c0.6,0.8,0.9,1.7,0.9,2.7c0,0.8-0.2,1.6-0.5,2.2c-0.3,0.6-0.8,1.2-1.4,1.7c-0.6,0.5-1.3,0.8-2.1,1.1C51.4,30.6,50.5,30.8,49.5,30.8
		L49.5,30.8z"/>
	<g>
		<path class="st1" d="M53.1,40c-6.3,4.6-15.3,7.1-23.1,7.1C19,47.1,9.1,43,1.7,36.3c-0.6-0.5-0.1-1.3,0.6-0.8
			c8.1,4.7,18,7.5,28.3,7.5c6.9,0,14.6-1.4,21.6-4.4C53.2,38.1,54.1,39.3,53.1,40z"/>
		<path class="st1" d="M55.7,37c-0.8-1-5.3-0.5-7.3-0.2c-0.6,0.1-0.7-0.5-0.2-0.9c3.6-2.5,9.4-1.8,10.1-0.9c0.7,0.9-0.2,6.7-3.5,9.5
			c-0.5,0.4-1,0.2-0.8-0.4C54.8,42.3,56.5,38.1,55.7,37z"/>
	</g>
</g>
</svg>
