<?xml version="1.0" encoding="utf-8"?>
<!-- Generator: Adobe Illustrator 25.0.0, SVG Export Plug-In . SVG Version: 6.00 Build 0)  -->
<svg version="1.1" id="Layer_1" xmlns="http://www.w3.org/2000/svg" xmlns:xlink="http://www.w3.org/1999/xlink" x="0px" y="0px"
	 viewBox="0 0 60 60" style="enable-background:new 0 0 60 60;" xml:space="preserve">
<style type="text/css">
	.st0{opacity:0.5;fill:#FFFFFF;}
	.st1{fill:#FFFFFF;}
</style>
<g>
	<path class="st0" d="M29.8,1.4c-14.6,0-13.7,6.3-13.7,6.3l0,6.6h13.9v2H10.6c0,0-9.3-1.1-9.3,13.7c0,14.7,8.2,14.2,8.2,14.2h4.9
		v-6.8c0,0-0.3-8.2,8-8.2h13.8c0,0,7.8,0.1,7.8-7.5V9C43.9,9,45.1,1.4,29.8,1.4z M22.1,5.8c1.4,0,2.5,1.1,2.5,2.5c0,0,0,0,0,0
		c0,1.4-1.1,2.5-2.5,2.5c0,0,0,0,0,0c-1.4,0-2.5-1.1-2.5-2.5c0,0,0,0,0,0C19.6,6.9,20.7,5.8,22.1,5.8C22.1,5.8,22.1,5.8,22.1,5.8z"
		/>
	<path class="st1" d="M30.2,58.6c14.6,0,13.7-6.3,13.7-6.3l0-6.6H29.9v-2h19.5c0,0,9.3,1.1,9.3-13.7c0-14.7-8.2-14.2-8.2-14.2h-4.9
		v6.8c0,0,0.3,8.2-8,8.2H23.9c0,0-7.8-0.1-7.8,7.5V51C16.1,51,14.9,58.6,30.2,58.6L30.2,58.6z M37.9,54.2c-1.4,0-2.5-1.1-2.5-2.5
		c0,0,0,0,0,0c0-1.4,1.1-2.5,2.5-2.5c0,0,0,0,0,0c1.4,0,2.5,1.1,2.5,2.5c0,0,0,0,0,0C40.4,53.1,39.3,54.2,37.9,54.2
		C37.9,54.2,37.9,54.2,37.9,54.2L37.9,54.2z"/>
</g>
</svg>
