<?xml version="1.0" encoding="utf-8"?>
<!-- Generator: Adobe Illustrator 25.0.0, SVG Export Plug-In . SVG Version: 6.00 Build 0)  -->
<svg version="1.1" id="Layer_1" xmlns="http://www.w3.org/2000/svg" xmlns:xlink="http://www.w3.org/1999/xlink" x="0px" y="0px"
	 viewBox="0 0 60 60" style="enable-background:new 0 0 60 60;" xml:space="preserve">
<style type="text/css">
	.st0{fill:#C1C1C1;}
	.st1{fill:#FFFFFF;}
	.st2{fill:#E5E5E5;}
	.st3{fill:#7F7F7F;}
</style>
<g>
	<path class="st0" d="M56.2,43.1c-3,1.6-18.7,8-22.1,9.8c-3.3,1.7-5.2,1.7-7.8,0.5c-2.6-1.3-19.4-8-22.4-9.5
		c-1.5-0.7-2.3-1.3-2.3-1.9v-5.7c0,0,21.8-4.7,25.3-6c3.5-1.3,4.7-1.3,7.7-0.2c3,1.1,20.9,4.3,23.8,5.4l0,5.7
		C58.4,41.7,57.7,42.3,56.2,43.1"/>
	<path class="st1" d="M56.2,37.4c-3,1.6-18.7,8-22.1,9.8c-3.3,1.7-5.2,1.7-7.8,0.5c-2.6-1.3-19.4-8-22.4-9.5c-3-1.4-3.1-2.4-0.1-3.6
		c3-1.2,19.6-7.7,23.1-8.9c3.5-1.3,4.7-1.3,7.7-0.2c3,1.1,18.6,7.3,21.6,8.4C59.1,34.9,59.2,35.8,56.2,37.4"/>
	<path class="st0" d="M56.2,33.8c-3,1.6-18.7,8-22.1,9.8c-3.3,1.7-5.2,1.7-7.8,0.5c-2.6-1.3-19.4-8-22.4-9.5
		c-1.5-0.7-2.3-1.3-2.3-1.9V27c0,0,21.8-4.7,25.3-6c3.5-1.3,4.7-1.3,7.7-0.2c3,1.1,20.9,4.3,23.8,5.4l0,5.7
		C58.4,32.4,57.7,33,56.2,33.8"/>
	<path class="st1" d="M56.2,28.1c-3,1.6-18.7,8-22.1,9.8c-3.3,1.7-5.2,1.7-7.8,0.5c-2.6-1.3-19.4-8-22.4-9.5c-3-1.4-3.1-2.4-0.1-3.6
		c3-1.2,19.6-7.7,23.1-8.9c3.5-1.3,4.7-1.3,7.7-0.2c3,1.1,18.6,7.3,21.6,8.4C59.1,25.6,59.2,26.5,56.2,28.1"/>
	<path class="st0" d="M56.2,24.2c-3,1.6-18.7,8-22.1,9.8c-3.3,1.7-5.2,1.7-7.8,0.5c-2.6-1.3-19.4-8-22.4-9.5
		c-1.5-0.7-2.3-1.3-2.3-1.9v-5.7c0,0,21.8-4.7,25.3-6c3.5-1.3,4.7-1.3,7.7-0.2c3,1.1,20.9,4.3,23.8,5.4l0,5.7
		C58.4,22.8,57.7,23.4,56.2,24.2"/>
	<path class="st1" d="M56.2,18.5c-3,1.6-18.7,8-22.1,9.8c-3.3,1.7-5.2,1.7-7.8,0.5c-2.6-1.3-19.4-8-22.4-9.5c-3-1.4-3.1-2.4-0.1-3.6
		c3-1.2,19.6-7.7,23.1-8.9c3.5-1.3,4.7-1.3,7.7-0.2c3,1.1,18.6,7.3,21.6,8.4C59.1,16,59.2,16.9,56.2,18.5"/>
	<path class="st2" d="M36.9,12.9l-4.9,0.5L31,16l-1.8-2.9l-5.6-0.5l4.2-1.5l-1.3-2.3l3.9,1.5l3.7-1.2l-1,2.4L36.9,12.9 M30.7,25.6
		l-9.1-3.8l13.1-2L30.7,25.6 M18,14.3c3.9,0,7,1.2,7,2.7c0,1.5-3.1,2.7-7,2.7s-7-1.2-7-2.7C11.1,15.6,14.2,14.3,18,14.3"/>
	<path class="st3" d="M42.7,13.6l7.7,3.1l-7.7,3.1L42.7,13.6"/>
	<path class="st0" d="M34.2,17l8.6-3.4l0,6.1L41.9,20L34.2,17"/>
</g>
</svg>
