<?xml version="1.0" encoding="utf-8"?>
<!-- Generator: Adobe Illustrator 25.0.0, SVG Export Plug-In . SVG Version: 6.00 Build 0)  -->
<svg version="1.1" id="Layer_1" xmlns="http://www.w3.org/2000/svg" xmlns:xlink="http://www.w3.org/1999/xlink" x="0px" y="0px"
	 viewBox="0 0 60 60" style="enable-background:new 0 0 60 60;" xml:space="preserve">
<style type="text/css">
	.st0{fill:#FFFFFF;}
</style>
<path class="st0" d="M52.4,5.5c-0.8,1.8-1.7,3.6-2.9,5.2c-5.1-5.1-12.1-8-19.4-8C15,2.6,2.6,15,2.6,30.1c0,7.5,3.1,14.7,8.5,19.9
	l1,0.9c4.9,4.2,11.2,6.5,17.7,6.5c14.3,0,26.4-11.2,27.4-25.5C58,24.9,55.9,16,52.4,5.5L52.4,5.5z M15.1,50.2
	c-0.4,0.5-1.1,0.9-1.8,0.9c-1.3,0-2.3-1.1-2.3-2.4c0-1.3,1.1-2.4,2.3-2.4c0.5,0,1.1,0.2,1.5,0.5C15.7,47.7,15.9,49.2,15.1,50.2
	L15.1,50.2z M52.3,41.9c-6.8,9-21.2,6-30.5,6.4c0,0-1.6,0.1-3.3,0.4c0,0,0.6-0.3,1.4-0.6c6.5-2.3,9.6-2.7,13.5-4.7
	c7.5-3.8,14.8-12.1,16.4-20.7C47,31,38.4,38.1,30.5,41.1C25.2,43,15.5,45,15.5,45l-0.4-0.2c-6.6-3.2-6.8-17.5,5.2-22.2
	c5.3-2,10.3-0.9,16-2.3c6.1-1.4,13.1-6,15.9-11.9C55.4,17.9,59.2,32.8,52.3,41.9L52.3,41.9z"/>
</svg>
