<?xml version="1.0" encoding="utf-8"?>
<!-- Generator: Adobe Illustrator 25.0.0, SVG Export Plug-In . SVG Version: 6.00 Build 0)  -->
<svg version="1.1" id="Layer_1" xmlns="http://www.w3.org/2000/svg" xmlns:xlink="http://www.w3.org/1999/xlink" x="0px" y="0px"
	 viewBox="0 0 60 60" style="enable-background:new 0 0 60 60;" xml:space="preserve">
<style type="text/css">
	.st0{opacity:0.59;fill:#FFFFFF;}
	.st1{fill:#FFFFFF;}
</style>
<g>
	<path class="st0" d="M55.8,36.7c-7,1.4-7.4-0.9-7.4-0.9C55.7,24.9,58.8,11,56.1,7.6c-7.2-9.3-19.8-4.9-20-4.8l-0.1,0
		c-1.4-0.3-2.9-0.5-4.6-0.5c-3.2-0.1-5.5,0.8-7.4,2.2c0,0-22.4-9.2-21.3,11.6C3,20.6,9.1,49.6,16.4,40.9c2.7-3.2,5.2-5.9,5.2-5.9
		c1.3,0.9,2.8,1.3,4.4,1.1l0.1-0.1c0,0.4,0,0.8,0,1.2c-1.9,2.1-1.3,2.5-5.1,3.2c-3.8,0.8-1.6,2.2-0.1,2.5c1.8,0.4,5.9,1.1,8.6-2.8
		l-0.1,0.4c0.7,0.6,1.3,3.8,1.2,6.8c-0.1,2.9-0.1,5,0.4,6.5c0.6,1.6,1.2,5.1,6.1,4.1c4.1-0.9,6.3-3.2,6.6-7c0.2-2.7,0.7-2.3,0.7-4.7
		l0.4-1.2c0.4-3.7,0.1-4.9,2.6-4.3l0.6,0.1c1.9,0.1,4.3-0.3,5.8-1C57,38.5,58.9,36.1,55.8,36.7L55.8,36.7"/>
	<path class="st1" d="M25.4,18.2c-0.6-0.1-1.2,0-1.5,0.2c-0.2,0.1-0.2,0.3-0.2,0.4c0,0.3,0.1,0.5,0.3,0.7c0.3,0.4,0.8,0.7,1.2,0.8
		c0.1,0,0.1,0,0.2,0c0.8,0,1.5-0.6,1.5-1C27,18.6,26.2,18.3,25.4,18.2 M46.2,18.2c-0.1-0.4-0.8-0.6-1.5-0.5
		c-0.7,0.1-1.4,0.4-1.4,0.9c0,0.3,0.7,0.9,1.4,0.9c0.1,0,0.1,0,0.2,0c0.5-0.1,0.8-0.4,1-0.5C46.1,18.7,46.2,18.4,46.2,18.2"/>
	<path class="st1" d="M58.1,36.5c-0.3-0.8-1.1-1.1-2.5-0.8c-4.2,0.9-5.7,0.3-6.2-0.1c3.3-5,6-11,7.4-16.7c0.7-2.7,1.1-5.1,1.1-7.2
		c0-2.2-0.3-3.8-1.1-4.8C53.6,3,49,0.8,43.4,0.8c-3.8,0-7.1,0.9-7.7,1.2c-1.3-0.3-2.8-0.5-4.3-0.6c-2.9,0-5.4,0.6-7.4,2
		c-0.9-0.3-3.2-1.1-6-1.6C13.1,1.1,9.2,1.7,6.4,3.7C3.1,6,1.6,10.2,1.9,16.1c0.1,2,1.2,8.1,3,14c2.4,7.7,4.9,12.1,7.6,13
		c0.3,0.1,0.7,0.2,1.1,0.2c1,0,2.2-0.4,3.4-2c1.5-1.8,3.1-3.6,4.7-5.4c1.1,0.6,2.2,0.9,3.4,0.9c0,0,0,0.1,0,0.1
		c-0.2,0.2-0.4,0.5-0.6,0.7c-0.8,1-1,1.3-3.7,1.8c-0.8,0.2-2.8,0.6-2.8,2c0,1.5,2.4,2.2,2.6,2.3c1,0.2,1.9,0.4,2.8,0.4
		c2.1,0,4-0.7,5.5-2.1c0,5.5,0.2,10.9,0.8,12.5c0.5,1.3,1.9,4.6,6,4.6c0.6,0,1.3-0.1,2-0.2c4.3-0.9,6.2-2.8,7-7.1
		c0.4-2.3,1.1-7.7,1.4-10.5c0.7,0.2,1.5,0.3,2.4,0.3c1.9,0,4.2-0.4,5.5-1.1C55.8,39.9,58.6,38.1,58.1,36.5L58.1,36.5z M47.8,17
		c0,0.9-0.1,1.6-0.3,2.4c-0.1,0.9-0.3,1.8-0.3,2.9c0,1.1,0.1,2.2,0.2,3.2c0.3,2.2,0.5,4.4-0.5,6.6c-0.2-0.3-0.3-0.6-0.5-0.9
		c-0.1-0.3-0.4-0.8-0.8-1.5c-1.5-2.7-5-9-3.2-11.6C43,17.3,44.4,16.6,47.8,17L47.8,17z M43.7,2.5c5,0.1,9,2,11.8,5.6
		c2.1,2.7-0.2,15.2-7.1,26c-0.1-0.1-0.1-0.2-0.2-0.3l-0.1-0.1c1.8-2.9,1.4-5.8,1.1-8.4c-0.1-1.1-0.2-2-0.2-3c0-1,0.2-1.8,0.3-2.7
		c0.2-1,0.3-2.1,0.3-3.3c0-0.1,0-0.3,0-0.5c-0.1-1.2-1.5-4.7-4.2-7.9c-1.5-1.8-3.7-3.7-6.7-5C39.9,2.7,41.7,2.5,43.7,2.5L43.7,2.5z
		 M15.7,40.2c-1.4,1.7-2.3,1.3-2.7,1.2c-2-0.7-4.4-5-6.5-11.9c-1.8-5.9-2.9-11.9-3-13.6c-0.3-5.3,1-9,3.8-11c4.5-3.2,12-1.3,15-0.3
		c0,0-0.1,0.1-0.1,0.1c-4.9,5-4.8,13.5-4.8,14c0,0.2,0,0.5,0,0.9c0.1,1.4,0.2,4.1-0.2,7.1c-0.4,2.8,0.5,5.5,2.4,7.5
		c0.2,0.2,0.4,0.4,0.6,0.6C19.5,35.9,17.6,37.9,15.7,40.2L15.7,40.2z M21,33.2c-1.5-1.6-2.2-3.8-1.9-6.1c0.4-3.2,0.3-6,0.2-7.4
		c0-0.2,0-0.4,0-0.5c0.7-0.6,4.1-2.4,6.4-1.9c1.1,0.2,1.7,1,2,2.3c1.4,6.6,0.2,9.3-0.8,11.5c-0.2,0.5-0.4,0.9-0.6,1.3l-0.1,0.3
		c-0.3,0.9-0.6,1.7-0.8,2.4C23.7,35.2,22.2,34.5,21,33.2L21,33.2z M21.2,42.1c-0.5-0.1-0.9-0.3-1.2-0.5c0.2-0.1,0.6-0.2,1.2-0.4
		c3.1-0.6,3.6-1.1,4.7-2.4c0.2-0.3,0.5-0.7,0.9-1.1l0,0c0.6-0.6,0.8-0.5,1.3-0.3c0.4,0.2,0.7,0.6,0.9,1.2c0.1,0.2,0.2,0.7-0.1,1.1
		C26.7,42.7,23.5,42.7,21.2,42.1z M37.6,57.3c-3.8,0.8-5.2-1.1-6.1-3.4c-0.6-1.4-0.9-7.9-0.7-15.1c0-0.1,0-0.2,0-0.3
		c0-0.2-0.1-0.3-0.1-0.5c-0.3-1-1-1.9-1.9-2.3c-0.3-0.1-1-0.4-1.7-0.2c0.2-0.7,0.4-1.4,0.8-2.3l0.1-0.3c0.1-0.4,0.3-0.8,0.5-1.2
		c1-2.3,2.5-5.5,0.9-12.6c-0.6-2.7-2.5-4-5.4-3.7c-1.8,0.2-3.4,0.9-4.2,1.3c-0.2,0.1-0.3,0.2-0.5,0.3c0.2-2.7,1.1-7.7,4.2-10.9
		c2-2,4.6-3,7.9-2.9c6.4,0.1,10.4,3.4,12.7,6.1c2,2.3,3.1,4.7,3.5,6c-3.2-0.3-5.4,0.3-6.5,1.9c-2.4,3.5,1.3,10.2,3.1,13.4
		c0.3,0.6,0.6,1.1,0.7,1.3c0.6,1.4,1.3,2.4,1.9,3.1c0.2,0.2,0.3,0.4,0.5,0.6c-1,0.3-2.7,0.9-2.6,4.2c-0.1,1.6-1,9.3-1.5,12
		C42.6,55.2,41.2,56.5,37.6,57.3L37.6,57.3z M53.5,39c-1,0.5-2.7,0.8-4.3,0.9c-1.8,0.1-2.6-0.2-2.9-0.4c-0.1-2,0.7-2.2,1.5-2.5
		c0.1,0,0.2-0.1,0.4-0.1c0.1,0.1,0.2,0.1,0.2,0.2c1.4,0.9,3.9,1,7.5,0.3l0,0C55.5,37.9,54.7,38.5,53.5,39L53.5,39z"/>
</g>
</svg>
