<?xml version="1.0" encoding="utf-8"?>
<!-- Generator: Adobe Illustrator 25.0.0, SVG Export Plug-In . SVG Version: 6.00 Build 0)  -->
<svg version="1.1" id="Layer_1" xmlns="http://www.w3.org/2000/svg" xmlns:xlink="http://www.w3.org/1999/xlink" x="0px" y="0px"
	 viewBox="0 0 60 60" style="enable-background:new 0 0 60 60;" xml:space="preserve">
<style type="text/css">
	.st0{fill:#FFFFFF;}
</style>
<path class="st0" d="M5.8,17.1v2.8h9v25.7h6.4V19.9h9v-2.8c0-1.6,0-2.8-0.1-2.9c0-0.1-5.5-0.1-12.2-0.1L5.8,14.3V17.1L5.8,17.1
	L5.8,17.1z M46.4,14.2c1.8,0.4,3.1,1.2,4.3,2.5c0.6,0.7,1.6,1.9,1.7,2.2c0,0.1-3,2.1-4.8,3.3c-0.1,0.1-0.3-0.2-0.6-0.7
	c-0.9-1.3-1.8-1.8-3.3-1.9c-2.1-0.1-3.5,1-3.5,2.8c0,0.6,0.1,0.9,0.3,1.3c0.5,1,1.3,1.5,4,2.7c5,2.1,7.1,3.5,8.4,5.6
	c1.5,2.3,1.8,5.8,0.8,8.5c-1.1,2.9-3.8,4.9-7.7,5.5c-1.2,0.2-4,0.2-5.3-0.1c-2.8-0.5-5.4-1.9-7.1-3.7c-0.6-0.7-1.9-2.6-1.8-2.7
	l0.7-0.4l2.6-1.5l2-1.1l0.5,0.6c0.6,0.9,1.9,2.1,2.6,2.5c2.3,1.2,5.3,1,6.8-0.3c0.6-0.6,0.9-1.2,0.9-2.1c0-0.8-0.1-1.2-0.5-1.8
	c-0.6-0.8-1.7-1.4-4.8-2.8c-3.6-1.5-5.1-2.5-6.6-4c-0.8-0.9-1.6-2.3-1.9-3.5c-0.3-1-0.3-3.5-0.1-4.5c0.7-3.5,3.4-5.9,7.1-6.6
	C42.4,13.8,45.3,13.9,46.4,14.2L46.4,14.2L46.4,14.2z"/>
</svg>
