<?xml version="1.0" encoding="utf-8"?>
<!-- Generator: Adobe Illustrator 22.0.1, SVG Export Plug-In . SVG Version: 6.00 Build 0)  -->
<svg version="1.1" id="Layer_1" xmlns="http://www.w3.org/2000/svg" xmlns:xlink="http://www.w3.org/1999/xlink" x="0px" y="0px"
	 viewBox="0 0 287.5 337.5" style="enable-background:new 0 0 287.5 337.5;" xml:space="preserve">
<style type="text/css">
	.st0{fill:#131313;stroke:#131313;stroke-miterlimit:10;}
	.st1{fill:#131313;}
	.st2{fill:#121212;}
</style>
<g>
	<g>
		<path class="st0" d="M201.3,151c27.1,0,42,12.9,42,40.2v5.4c0,20-12.3,36.2-29.8,39.1c0.6-0.1,26.4,51.8,28.7,55.6H201l-22.3-54.5
			H161v22.9v43.7l0,0l-30.4,1.2v-45.1v-77.2l-13.1-1.9V151H201.3z M202.9,206.3c6.5,0,10-4,10-9.8v-5.4c0-5.8-3.7-9.8-10-9.8h-41.8
			v25H202.9z"/>
	</g>
	<g>
		<path class="st0" d="M108.4,206.8v44.9H23.2v-44.3l19.8-2.8v-115l-19.8-2.5V42.2h85.2v44.3l-20.1,3.1v115L108.4,206.8z"/>
	</g>
</g>
<path class="st1" d="M223.3,311.3"/>
<g>
	<path class="st2" d="M124.5,34.2c1.1,8.1,2,16.2,2.8,24.3s1.4,16.2,2,24.3s1,16.2,1.4,24.3l0.5,12.2l0.4,12.2l-7.2-7.2l18.1-0.5
		c6-0.1,12-0.2,18.1-0.3c12-0.1,24.1-0.1,36.1,0.1s24.1,0.4,36.1,0.9c12,0.4,24.1,1,36.1,1.8l5.5,0.4l-0.3,4.8l-0.4,7l-0.5,7
		c-0.3,4.7-0.7,9.4-1.1,14.1c-0.4,4.7-0.9,9.4-1.4,14.1c-0.5,4.7-1.1,9.4-1.7,14.1c-0.6-4.7-1.2-9.4-1.7-14.1
		c-0.5-4.7-1-9.4-1.4-14.1c-0.4-4.7-0.8-9.4-1.1-14.1l-0.5-7l-0.4-7l5.2,5.2c-12,0.8-24.1,1.4-36.1,1.8c-12,0.5-24.1,0.7-36.1,0.9
		c-12,0.1-24.1,0.2-36.1,0.1c-6,0-12-0.2-18.1-0.3l-18.1-0.5l-7.4-0.2l0.2-7l0.4-12.2l0.5-12.2c0.4-8.1,0.9-16.2,1.4-24.3
		c0.6-8.1,1.2-16.2,2-24.3C122.5,50.4,123.4,42.3,124.5,34.2z"/>
</g>
<g>
	<path class="st2" d="M149,60.4c8-2.2,16.1-3.5,24.1-4.7c8-1.1,16.1-1.9,24.1-2.4s16.1-0.8,24.1-0.9c4-0.1,8,0,12.1,0
		c4,0.1,8,0.2,12.1,0.4l7.8,0.5l-0.3,7c-0.2,4.6-0.5,9.2-0.9,13.7c-0.4,4.6-0.9,9.2-1.5,13.7c-0.6,4.6-1.3,9.2-2.1,13.7
		c-0.8,4.6-1.8,9.2-3,13.7c-1.3-4.6-2.2-9.2-3-13.7c-0.8-4.6-1.5-9.2-2.1-13.7c-0.6-4.6-1.1-9.2-1.5-13.7c-0.4-4.6-0.7-9.2-0.9-13.7
		l7.5,7.5c-4,0.2-8,0.3-12.1,0.4c-4,0-8,0.1-12.1,0c-8,0-16.1-0.4-24.1-0.9s-16.1-1.3-24.1-2.4C165.1,64,157,62.6,149,60.4z"/>
</g>
<g>
	<path class="st2" d="M19.2,262.6l21.3-1.1l21.3-1l21.3-0.9l21.3-0.9l4.5-0.2l0.2,4.9l0.4,11.2l0.4,11.2l0.7,22.4l-6.3-6.3
		c11.4-0.3,22.7-0.9,34.1-1.5c11.4-0.6,22.7-0.7,34.1-0.3c11.4,0.4,22.7,1.2,34.1,2.3c11.4,1.1,22.7,2.6,34.1,4.9v1.6
		c-11.4,2.3-22.7,3.8-34.1,4.9c-11.4,1.1-22.7,1.9-34.1,2.3c-11.4,0.5-22.7,0.3-34.1-0.3c-11.4-0.6-22.7-1.2-34.1-1.5l-6.5-0.2
		L98,308l0.7-22.4l0.4-11.2l0.4-11.2l4.7,4.7L82.9,267l-21.3-0.9l-21.3-1L19,264v-1.4H19.2z"/>
</g>
<g>
	<path class="st1" d="M32.5,274.4c1.8,3.1,3.1,6.1,4.1,9.2c1.1,3.1,2,6.1,2.7,9.2c0.7,3.1,1.2,6.1,1.7,9.2l0.5,4.6l0.3,4.6l-9.8-9.8
		c3.9-0.1,7.8-0.1,11.7,0.1l2.9,0.2l2.9,0.3c1,0.1,2,0.2,2.9,0.4c1,0.2,2,0.3,2.9,0.5c3.9,0.7,7.8,1.6,11.7,2.8
		c3.9,1.3,7.8,2.7,11.7,5v1.1l-11.7,0.3l-11.7,0.2l-11.7,0.1c-3.9,0-7.8,0-11.7,0l-1.1,0l0-1.1c0-6.1,0-12.3,0.1-18.4l0.1-9.2
		l0.2-9.2H32.5z"/>
</g>
</svg>
