<?xml version="1.0" encoding="utf-8"?>
<!-- Generator: Adobe Illustrator 24.0.1, SVG Export Plug-In . SVG Version: 6.00 Build 0)  -->
<svg version="1.1" id="Bold" xmlns="http://www.w3.org/2000/svg" xmlns:xlink="http://www.w3.org/1999/xlink" x="0px" y="0px"
	 viewBox="0 0 450 450" style="enable-background:new 0 0 450 450;" xml:space="preserve">
<style type="text/css">
	.st0{fill:#FFFFFF;}
</style>
<g>
	<g>
		<path class="st0" d="M224.9,28.9c65.4,65.4,130.8,130.8,196.2,196.2c-65.2,65.2-130.7,130.7-196,196
			C159.8,355.8,94.3,290.3,28.9,224.9C94.2,159.7,159.6,94.2,224.9,28.9z M225.2,35.9C162.1,99,99,162.1,36.2,224.9
			c62.9,62.9,126,126.1,188.7,188.8c62.9-62.9,126-126,189-189C351.1,161.9,288.1,98.8,225.2,35.9z"/>
		<path class="st0" d="M288.9,273.6c11.4-7.9,22.8-15.3,35.7-20.2c0.2-0.1,0.6,0,1.1,0c-16.8,16.8-27.3,37-34,60.3
			c-1.2-1.6-2-2.4-2.5-3.4c-5.6-11.4-11.6-22.5-16.5-34.2c-3.9-9.3-6.6-19.2-9.6-28.9c-0.9-3-1.9-3.4-4.7-2.2
			c-5.3,2.2-10.8,4.1-16.2,6.1c-0.6,0.2-1.3,0.3-2.4-0.1c0.7-0.6,1.4-1.1,2.1-1.7c5.5-5.1,10.9-10.2,16.3-15.4
			c0.5-0.5,0.8-1.7,0.6-2.4c-5.7-20-11.5-40.1-17.2-60.1c-0.1-0.3-0.3-0.5-0.6-1.2c-7.3,1.8-14.7,3.3-22,5.3
			c-6.8,1.9-13.5,4.4-20.3,6.2c-3.3,0.9-3.9,2.7-4.4,5.8c-3.1,18.6,0.2,37.2-0.3,55.8c-0.3,9.8-0.6,19.9-3.1,29.3
			c-4.1,15-12.4,27.9-24.5,38c-2,1.7-4.2,3.3-6.3,4.9c0,0-0.2-0.1-0.5-0.2c2-2.6,4.2-5.1,5.9-7.8c1.9-3,3.8-6.1,5-9.4
			c3.3-9.5,6.3-19.1,9.4-28.7c0.3-1.1,0.6-2.2,0.5-3.3c-0.9-22.2-1.8-44.4-2.6-66.6c-0.2-5.1-2.4-9.3-4.8-13.5
			c-3.6-6.2-7.4-12.3-11.4-19.1c1.5,0.2,2.6,0.1,3.5,0.4c5.6,1.6,11.2,3.4,16.9,4.9c1.3,0.4,2.9,0.4,4.2,0
			c11.2-2.9,22.4-6.2,33.6-8.9c5.5-1.3,11.2-1.8,16.7-2.7c0.7-0.1,1.4-0.3,2.1-0.4c-0.9-12.3-7.7-21.9-13.7-32.4
			c3.1,0.7,6.2,1.2,9.2,2.2c4.4,1.5,8.6,3.3,12.9,5.1c4.7,1.9,5.8,4.2,4.9,9.2c-0.8,4.1-2.6,8.2,0.2,12.6c4.9-0.8,10-1.2,14.9-2.5
			c1.8-0.5,3.2-2.7,4.6-4.4c3.9-4.5,3.9-4.5,9.3-1.9c3.5,1.7,6.9,3.7,10.6,5.1c5.5,2.1,9.6,5.7,13.1,10.3c1.9,2.4,1.7,3.7-1,5
			c-4,1.9-7.9,4-12,5.5c-1.7,0.6-4.1,0.6-5.7-0.2c-4.4-1.9-8.6-4.4-12.9-6.6c-1.1-0.5-2.3-1.2-3.5-1.1c-4.9,0.5-9.7,1.2-14.8,1.9
			c3.6,17.4,6.8,34.6,14.1,51.3c1.8-2.7,3.5-5,4.8-7.4c0.4-0.8,0-2.4-0.4-3.4c-4.2-8.8-5.8-18.2-5.6-27.8c0-0.7,0.1-1.3,0.2-2.9
			c2.7,3.1,4.9,5.6,7.1,8c4.5,4.9,8.9,10.1,13.7,14.6c3,2.8,6.9,4.7,10.5,7c2.9,1.8,3.8,4.1,2.6,7.2c-1.3,3.4-2.7,6.7-4.2,9.9
			c-0.5,1-1.6,1.9-2.6,2.4c-6.4,3-12.8,5.9-19.3,8.9C276.1,244.6,283.5,265.5,288.9,273.6z"/>
		<path class="st0" d="M169.2,203.4c0,9-0.2,18.1,0.1,27.1c0.2,8.8,0.8,17.7,1.5,26.5c0.4,5,2.3,10.1,1.5,14.8
			c-1.2,7.4-3.5,14.8-6.4,21.8c-4.3,10.3-9.5,20.3-14.4,30.4c-0.2,0.3-0.5,0.6-1.1,1.2c-1.9-6.7-3.6-12.9-5.4-19.2
			c-0.4-1.6-1.1-3.1-1.3-4.8c-0.7-5.6-3.9-9.2-8.1-12.7c-5.1-4.3-7.1-10.3-6.4-17.1c0.7-6.4,2.9-12.2,6.8-17.3
			c3.4-4.3,4.2-9.5,5.7-14.5c0.3-1,0.6-2.1,0.9-3.1c0.4,0,0.7,0,1.1,0c0.4,5.3,1.3,10.7,1.1,16c-0.4,8,2.3,15.2,4.7,22.5
			c0.7,2.2,2.6,4.1,4.4,6.7c0.8-1.6,1.3-2.5,1.6-3.5c1.6-5.8,3.3-11.7,4.6-17.6c0.5-2.4,0.3-5.1-0.2-7.6c-1.2-7-1.2-13.7,0.9-20.7
			c2.8-9.5,4.8-19.3,7.1-28.9C168.3,203.3,168.7,203.4,169.2,203.4z"/>
		<path class="st0" d="M266.6,273.1c-8.5,2.6-16.9,7-26,3c-3.3-1.5-5.9-4.6-8.7-7.2c-2.1-2-3.9-4.4-6.1-7
			c-8.2,12.9-19.5,21.8-33.1,27.9c3.7-4.6,7.7-9,11-13.8c5.1-7.2,9.8-14.6,14.7-22c0.5-0.8,0.9-1.9,0.8-2.9
			c-0.5-8.3-1.1-16.6-1.7-24.9c0-0.5-0.2-1-0.3-1.5c-0.6-1.5-2-3.3-1.6-4.4c0.9-2.4,2.6-4.6,4.3-6.7c0.5-0.5,2.2-0.6,3-0.2
			c4.5,2.2,6.6,5.8,6.2,10.9c-0.2,3-0.2,6-0.4,8.9c-0.4,5.5-0.5,11.2,2.3,15.9c4.5,7.5,9.8,14.7,17.6,18.8c4.9,2.6,11.1,2.7,16.7,4
			c0.5,0.1,0.9,0.2,1.4,0.3C266.6,272.5,266.6,272.8,266.6,273.1z"/>
		<path class="st0" d="M148.3,228.4c-0.8-1.2-1.3-2.6-2.3-3.5c-2.1-2.1-4.6-3.7-7.9-3.3c-5.8,0.7-10.6-1.2-14.6-5.5
			c-2.4-2.6-4-5.2-2.7-8.8c0.9-2.6,1.7-5.2,2.5-7.9c0.8-2.5,2.9-3.3,5-3.3c4.4,0,8.6,1,12.2,3.6c0.7,0.5,1.3,1.6,1.6,2.5
			c2.1,7,4.3,13.9,6.3,20.9c0.5,1.6,0.4,3.4,0.6,5.1C148.8,228.3,148.6,228.3,148.3,228.4z"/>
		<path class="st0" d="M145.2,184.9c-7-2.8-14.2-5.2-20-10.3c-4-3.5-3.5-8.3-2.9-12.9c0.3-2.2,1.3-4.3,1.7-6.5
			c0.4-2.5,2-3.1,3.9-2.4c3.1,1.1,6.1,2.4,9,4c1.1,0.6,1.8,2.3,2.1,3.6c1,4.3,1.6,8.7,2.5,13c0.4,1.8,1.4,3.6,2.1,5.3
			c0.8,1.9,1.5,3.9,2.2,5.8C145.7,184.6,145.5,184.7,145.2,184.9z"/>
		<path class="st0" d="M267,124.3c4.6,1.7,9.1,3.6,13.7,5.1c10.4,3.3,20.8,6.5,31.2,9.5c3.1,0.9,6.5,0.9,9.7,1.4
			c0.7,0.1,1.8,0.4,2,1c0.2,0.4-0.3,1.5-0.8,2c-2.8,2.8-5.6,5.4-8.4,8.1c-1.4,1.3-2.7,1.6-4.4,0.6c-9.3-5.6-18.7-11.1-28-16.7
			c-5.2-3.2-10.3-6.6-15.5-9.9C266.7,124.9,266.8,124.6,267,124.3z"/>
		<path class="st0" d="M200.5,203c1.2,0.1,2.3,0.1,3.5,0.2c6.3,0.8,12.3-0.5,17.8-3.6c3.9-2.2,7.7-4.6,11.6-6.8
			c0.5-0.3,1.4-0.2,1.9,0c2.9,1.3,5.7,2.8,9,4.4c-4.4,4.8-7.6,10.1-14.4,10.9c-4.6,0.6-9.1,1.4-13.7,1.9c-3.4,0.4-6.7,0.1-9.6-2.3
			c-1.9-1.6-4.2-2.7-6.3-4.1C200.4,203.4,200.5,203.2,200.5,203z"/>
		<path class="st0" d="M234.6,243.2c2.2-7.8,3-15.5,2.9-23.3c-0.1-3.8,5.7-7.6,9.3-6.4c0.6,0.2,1.1,0.8,1.4,1.4
			c4,6.8,4.2,7-0.5,13.5c-3.6,5-7.9,9.3-11.9,14C235.5,242.7,235,242.9,234.6,243.2z"/>
		<path class="st0" d="M213.9,249.6c-7.1-4.4-11-10.5-14.9-16.5c-0.3-0.5-0.4-1.4-0.2-2c0.7-2.9,1.5-5.8,2.4-8.6
			c0.6-2.1,1.8-2.8,3.5-0.9c0.6,0.6,1.1,1.3,1.7,1.7c3.4,2.6,5.2,5.6,3.5,10.1c-1.5,4,0.2,7.6,1.7,11.2
			C212.2,246.1,212.9,247.4,213.9,249.6z"/>
	</g>
	<g>
		<path class="st0" d="M225,436.9L13.1,225L225,13.1L436.9,225L225,436.9z M14.8,225L225,435.2L435.2,225L225,14.8L14.8,225z"/>
	</g>
</g>
</svg>
