<?xml version="1.0" encoding="utf-8"?>
<!-- Generator: Adobe Illustrator 25.0.0, SVG Export Plug-In . SVG Version: 6.00 Build 0)  -->
<svg version="1.1" id="Layer_1" xmlns="http://www.w3.org/2000/svg" xmlns:xlink="http://www.w3.org/1999/xlink" x="0px" y="0px"
	 viewBox="0 0 60 60" style="enable-background:new 0 0 60 60;" xml:space="preserve">
<style type="text/css">
	.st0{fill-rule:evenodd;clip-rule:evenodd;fill:#FFFFFF;}
	.st1{opacity:0.75;fill-rule:evenodd;clip-rule:evenodd;fill:#FFFFFF;}
</style>
<g>
	<path class="st0" d="M20.3,39.6c0,0-2.8,1.6,2,2.2c5.8,0.7,8.8,0.6,15.2-0.6c0,0,1.7,1.1,4.1,2C27.2,49.3,9,42.8,20.3,39.6z
		 M18.6,31.6c0,0-3.2,2.3,1.7,2.8c6.2,0.6,11.1,0.7,19.7-0.9c0,0,1.2,1.2,3,1.8C25.5,40.4,6.1,35.7,18.6,31.6z"/>
	<path class="st1" d="M33.4,17.9c3.6,4.1-0.9,7.8-0.9,7.8s9-4.7,4.9-10.5c-3.9-5.4-6.8-8.1,9.2-17.4C46.6-2.3,21.4,4,33.4,17.9z"/>
	<path class="st0" d="M52.5,45.6c0,0,2.1,1.7-2.3,3c-8.3,2.5-34.6,3.3-41.9,0.1c-2.6-1.1,2.3-2.7,3.8-3.1c1.6-0.3,2.5-0.3,2.5-0.3
		c-2.9-2.1-18.9,4-8.1,5.8C35.9,55.9,60.1,49,52.5,45.6L52.5,45.6z M21.7,23.2c0,0-13.4,3.2-4.7,4.3c3.6,0.5,10.9,0.4,17.7-0.2
		c5.5-0.5,11.1-1.5,11.1-1.5s-2,0.8-3.4,1.8C28.8,31.3,2.6,29.6,10.1,26C16.5,22.9,21.7,23.2,21.7,23.2L21.7,23.2z M45.7,36.6
		c13.8-7.2,7.4-14.1,3-13.1c-1.1,0.2-1.6,0.4-1.6,0.4s0.4-0.6,1.2-0.9c8.8-3.1,15.6,9.1-2.8,14C45.4,37,45.6,36.8,45.7,36.6z"/>
	<path class="st1" d="M37.4-17.3c0,0,7.6,7.7-7.3,19.4c-11.9,9.4-2.7,14.8,0,21c-7-6.3-12.1-11.8-8.7-17
		C26.5-1.5,40.4-5.1,37.4-17.3L37.4-17.3z"/>
	<path class="st0" d="M23.1,56.1c13.3,0.8,33.6-0.5,34.1-6.7c0,0-0.9,2.4-11,4.3c-11.3,2.1-25.3,1.9-33.5,0.5
		C12.6,54.1,14.3,55.5,23.1,56.1z"/>
</g>
</svg>
