<?xml version="1.0" encoding="utf-8"?>
<!-- Generator: Adobe Illustrator 25.0.0, SVG Export Plug-In . SVG Version: 6.00 Build 0)  -->
<svg version="1.1" id="Layer_1" xmlns="http://www.w3.org/2000/svg" xmlns:xlink="http://www.w3.org/1999/xlink" x="0px" y="0px"
	 viewBox="0 0 60 60" style="enable-background:new 0 0 60 60;" xml:space="preserve">
<style type="text/css">
	.st0{fill:#FFFFFF;}
</style>
<path class="st0" d="M40.2,33.1c-2.2,0-4.3,1-5.6,2.6l-3.5-2.5c0.4-1,0.6-2.1,0.6-3.3c0-1.1-0.2-2.2-0.6-3.2l3.5-2.5
	c1.4,1.6,3.4,2.5,5.6,2.5c4.1,0,7.5-3.4,7.5-7.5s-3.4-7.5-7.5-7.5s-7.5,3.4-7.5,7.5c0,0.7,0.1,1.5,0.3,2.1l-3.5,2.5
	c-1.5-1.8-3.6-3.1-6-3.5V16c3.4-0.7,6-3.7,6-7.4c0-4.1-3.4-7.5-7.5-7.5s-7.5,3.4-7.5,7.5c0,3.6,2.5,6.6,5.8,7.3v4.3
	c-4.6,0.8-8,4.8-8,9.6c0,4.8,3.5,8.8,8.1,9.6V44c-3.4,0.7-5.9,3.7-5.9,7.3c0,4.1,3.4,7.5,7.5,7.5s7.5-3.4,7.5-7.5
	c0-3.6-2.5-6.6-5.9-7.3v-4.5c2.3-0.4,4.4-1.6,5.9-3.4l3.6,2.5c-0.2,0.7-0.3,1.4-0.3,2.1c0,4.1,3.4,7.5,7.5,7.5s7.5-3.4,7.5-7.5
	S44.4,33.1,40.2,33.1L40.2,33.1z M40.2,15.5c2,0,3.6,1.6,3.6,3.6s-1.6,3.6-3.6,3.6c-2,0-3.6-1.6-3.6-3.6S38.2,15.5,40.2,15.5
	L40.2,15.5z M18.3,8.7c0-2,1.6-3.6,3.6-3.6s3.6,1.6,3.6,3.6S24,12.3,22,12.3S18.3,10.7,18.3,8.7L18.3,8.7z M25.6,51.3
	c0,2-1.6,3.6-3.6,3.6s-3.6-1.6-3.6-3.6c0-2,1.6-3.6,3.6-3.6S25.6,49.3,25.6,51.3z M22,34.9c-2.8,0-5.1-2.3-5.1-5.1
	c0-2.8,2.3-5.1,5.1-5.1c2.8,0,5.1,2.3,5.1,5.1C27,32.7,24.8,34.9,22,34.9z M40.2,44.3c-2,0-3.6-1.6-3.6-3.6c0-2,1.6-3.6,3.6-3.6
	s3.6,1.6,3.6,3.6C43.9,42.6,42.3,44.3,40.2,44.3z"/>
</svg>
