<?xml version="1.0" encoding="utf-8"?>
<!-- Generator: Adobe Illustrator 25.0.0, SVG Export Plug-In . SVG Version: 6.00 Build 0)  -->
<svg version="1.1" id="Layer_1" xmlns="http://www.w3.org/2000/svg" xmlns:xlink="http://www.w3.org/1999/xlink" x="0px" y="0px"
	 viewBox="0 0 60 60" style="enable-background:new 0 0 60 60;" xml:space="preserve">
<style type="text/css">
	.st0{fill:#FFFFFF;}
</style>
<g>
	<path class="st0" d="M27.6,1.9c1.4-0.8,3.3-0.8,4.7,0C39.5,5.9,46.7,9.9,53.9,14c1.3,0.8,2.3,2.3,2.2,3.8v24.4c0,1.6-1,3.2-2.4,3.9
		c-7.1,4-14.3,8.1-21.4,12.1c-1.5,0.8-3.4,0.8-4.8-0.1c-2.1-1.2-4.3-2.5-6.4-3.7c-0.4-0.3-0.9-0.5-1.2-0.9c0.3-0.4,0.8-0.4,1.2-0.6
		c0.9-0.3,1.7-0.7,2.5-1.2c0.2-0.1,0.5-0.1,0.7,0c1.8,1.1,3.6,2.1,5.5,3.2c0.4,0.2,0.8-0.1,1.1-0.3c7-4,14-7.9,21-11.9
		c0.3-0.1,0.4-0.4,0.4-0.7c0-8,0-16.1,0-24.1c0-0.3-0.2-0.6-0.4-0.8c-7.1-4-14.2-8-21.4-12c-0.3-0.2-0.6-0.2-0.8,0
		c-7.1,4-14.2,8-21.4,12c-0.3,0.1-0.5,0.4-0.5,0.7c0,8,0,16.1,0,24.1c0,0.3,0.1,0.6,0.4,0.7c1.9,1.1,3.8,2.1,5.7,3.2
		c1.1,0.6,2.4,0.9,3.6,0.5c1-0.4,1.8-1.4,1.8-2.5c0-8,0-16,0-24c0-0.4,0.3-0.6,0.7-0.6c0.9,0,1.8,0,2.7,0c0.4,0,0.6,0.4,0.6,0.7
		c0,8,0,16.1,0,24.1c0,2.1-0.9,4.5-2.9,5.5c-2.4,1.3-5.5,1-7.9-0.2c-2.1-1-4.1-2.3-6.1-3.4c-1.4-0.7-2.4-2.3-2.4-3.9V17.8
		c0-1.6,0.9-3.1,2.3-3.9C13.4,9.9,20.5,5.9,27.6,1.9z"/>
	<path class="st0" d="M33.9,18.7c3.1-0.2,6.5-0.1,9.3,1.4c2.2,1.2,3.4,3.6,3.4,6.1c-0.1,0.3-0.4,0.5-0.7,0.5c-0.9,0-1.8,0-2.7,0
		c-0.4,0-0.6-0.3-0.7-0.7c-0.3-1.2-0.9-2.3-2-2.9c-1.7-0.8-3.6-0.8-5.4-0.8c-1.3,0.1-2.8,0.2-3.9,1c-0.9,0.6-1.1,1.8-0.8,2.7
		c0.3,0.7,1.1,0.9,1.7,1.1c3.8,1,7.7,0.9,11.4,2.2c1.5,0.5,3,1.6,3.5,3.1c0.7,2.1,0.4,4.7-1.1,6.4c-1.2,1.4-3,2.2-4.8,2.6
		c-2.4,0.5-4.9,0.5-7.3,0.3c-2.3-0.3-4.6-0.9-6.4-2.4c-1.5-1.3-2.2-3.3-2.2-5.3c0-0.3,0.3-0.6,0.7-0.5c0.9,0,1.8,0,2.7,0
		c0.4,0,0.6,0.3,0.7,0.6c0.2,1.1,0.6,2.3,1.5,2.9c1.9,1.2,4.2,1.1,6.3,1.1c1.8-0.1,3.7-0.1,5.2-1.3c0.8-0.7,1-1.8,0.8-2.7
		c-0.2-0.8-1.1-1.2-1.8-1.4c-3.7-1.2-7.7-0.7-11.4-2.1c-1.5-0.5-2.9-1.5-3.5-3.1c-0.8-2.2-0.4-4.8,1.2-6.5
		C29.3,19.6,31.6,19,33.9,18.7L33.9,18.7z"/>
</g>
</svg>
