<?xml version="1.0" encoding="utf-8"?>
<!-- Generator: Adobe Illustrator 25.0.0, SVG Export Plug-In . SVG Version: 6.00 Build 0)  -->
<svg version="1.1" id="Layer_1" xmlns="http://www.w3.org/2000/svg" xmlns:xlink="http://www.w3.org/1999/xlink" x="0px" y="0px"
	 viewBox="0 0 60 60" style="enable-background:new 0 0 60 60;" xml:space="preserve">
<style type="text/css">
	.st0{fill-rule:evenodd;clip-rule:evenodd;fill:#FFFFFF;}
</style>
<path class="st0" d="M0.9,44.1l4.4-22.3h10.2c4.4,0.3,6.6,2.5,6.6,6.3c0,6.6-5.2,10.5-9.9,10.2h-5l-1.1,5.8H0.9z M8.4,34.1l1.4-8.3
	h3.6c1.9,0,3.3,0.8,3.3,2.5c-0.3,4.7-2.5,5.5-5,5.8H8.4L8.4,34.1z M21.1,38.3l4.4-22.3h5.2l-1.1,5.8h5c4.4,0.3,6.1,2.5,5.5,5.2
	l-1.9,11.3h-5.5l1.9-10.2c0.3-1.4,0.3-2.2-1.7-2.2h-4.1l-2.5,12.4H21.1z M37.9,44.1l4.4-22.3h10.2c4.4,0.3,6.6,2.5,6.6,6.3
	c0,6.6-5.2,10.5-9.9,10.2h-5l-1.1,5.8H37.9z M45.3,34.1l1.4-8.3h3.6c1.9,0,3.3,0.8,3.3,2.5c-0.3,4.7-2.5,5.5-5,5.8H45.3L45.3,34.1z"
	/>
</svg>
