<?xml version="1.0" encoding="utf-8"?>
<!-- Generator: Adobe Illustrator 22.0.1, SVG Export Plug-In . SVG Version: 6.00 Build 0)  -->
<svg version="1.1" id="Layer_1" xmlns="http://www.w3.org/2000/svg" xmlns:xlink="http://www.w3.org/1999/xlink" x="0px" y="0px"
	 viewBox="0 0 1650.4 496.9" style="enable-background:new 0 0 1650.4 496.9;" xml:space="preserve">
<style type="text/css">
	.st0{display:none;}
	.st1{fill:#79C79C;}
	.st2{fill:#FFFFFF;}
	.st3{display:inline;}
	.st4{display:none;fill:#79C79C;}
</style>
<path class="st0" d="M285.9,348.5L285.9,348.5c-8,9.1-21.8,9.9-30.9,1.9l-99.8-88.2c-9.1-8-9.9-21.8-1.9-30.9l0,0
	c8-9.1,21.8-9.9,30.9-1.9l99.8,88.2C293.1,325.7,293.9,339.5,285.9,348.5z"/>
<rect x="-765.7" y="-242.4" class="st1" width="2908.7" height="1268"/>
<g>
	<g>
		<path class="st2" d="M161.8,65.8h-55.1v365.3h55.1v22H78.5V43.8h83.3V65.8z"/>
		<path class="st2" d="M267.5,65.8h-55.1v365.3h55.1v22h-83.3V43.8h83.3V65.8z"/>
		<path class="st2" d="M327,190.9h-32.2v-38.8H327V190.9z M327,369h-32.2v-38.8H327V369z"/>
		<path class="st2" d="M437.2,453.1h-83.3v-22H409V65.8h-55.1v-22h83.3V453.1z"/>
		<path class="st2" d="M542.9,453.1h-83.3v-22h55.1V65.8h-55.1v-22h83.3V453.1z"/>
	</g>
	<g>
		<g>
			<path class="st2" d="M1019.4,214.4c-3.2-2.4-6.6-3.5-10.3-3.5l-7.8,7.8l-0.6,40.5c8.9,4,17,6.8,24.4,8.2
				c3.2-7.4,4.9-16.5,4.9-27.2c0-6-1-11.2-3-15.7C1025.2,220.1,1022.7,216.7,1019.4,214.4z"/>
			<path class="st2" d="M912.6,256.6c0,3.9,0.8,6.8,2.4,8.7c1.5,1.9,3.4,2.9,5.6,2.9c2.1,0,4.5-0.8,7.3-2.4l-0.2-4.1l0.2-4.3
				l0.6-11.2l-15.1,3.5C912.9,251.5,912.6,253.7,912.6,256.6z"/>
			<polygon class="st2" points="720.2,232.9 749.7,232.9 732.5,171.7 			"/>
			<path class="st2" d="M626,104.6v214.2h722.5V104.6H626z M1075.8,150.1l25-5.6v22.2l-25,3.7V150.1z M810.1,279.3h-58.8v-6.9
				l9.5-0.2l-9-32.1h-33.2l-6.5,32.1l9.9,0.2v6.9h-44.2v-6.9l9.5-0.2l43.8-122.4l24.3-3.3l45,125.7l9.5,0.2L810.1,279.3L810.1,279.3
				z M868.4,214.6c-5.8-0.7-10.7-1.1-14.5-1.3l-3.9,4.9l-0.8,54.9l17.4,0.6v5.6h-52.2v-5.6l7.3-0.6l-0.6-70l-7.4,1.7l-1.9-5.8
				l30.9-9.5l6.7,20.9c4.3-8.7,9-15.5,14-20.3c2.9-1.1,6.3-1.5,10.4-1.5c5.4,0,10.6,1,15.5,3L883,217
				C879.1,215.9,874.3,215.3,868.4,214.6z M936.3,282.6c-3.5-2.5-5.9-5.8-7.3-10.1c-4.7,2.9-9.5,5.3-14.1,7.1
				c-4.8,1.8-8.9,2.8-12.4,2.8c-5.3,0-9.7-1.9-13.1-5.6c-3.4-3.8-5.1-8.6-5.1-14.5c0-2.6,0.3-5.4,0.9-8.5c0.6-3.1,1.3-5.5,2.3-7.4
				l41.4-6.7l0.4-5.6c0.3-5.8-1-10.5-3.7-13.7c-2.8-3.3-7.2-5-13.3-5c-2.8,0-5.6,0.3-8.6,0.9c-3,0.6-5.5,1.3-7.6,2.3l-3.2,6.7
				l-5.3-1.9l9-28.2c10-4.3,19.6-6.5,28.5-6.5c9.3,0,16.8,2.5,22.7,7.4c5.8,4.9,8.8,12.5,8.8,23l-0.2,3.9l-1.9,26.4l-0.4,7.1
				c0,2.4,0.2,4.2,0.6,5.5c0.4,1.3,1.1,2.8,1.9,4.2l6-2.4l2.4,5.6L936.3,282.6z M1054.9,249.5c-2.2,7.4-4.9,13.3-8,17.4
				c-2.5,3.5-7,7-13.5,10.3s-12,5-16.4,5c-5.8,0-13.5-1.1-22.9-3.2c-9.4-2.2-16.3-4.5-20.9-7l-0.6-116.1l-7.4,1.5l-1.9-5.6l36.2-11
				l2.8,4.7l-0.8,64.4l18.3-21.5c7.5,0,14.2,1.7,20.1,5.2c5.8,3.4,10.3,8.2,13.6,14.2c3.2,6,4.9,12.9,4.9,20.6
				C1058.3,235.1,1057.1,242.1,1054.9,249.5z M1110,279.3h-42v-5.6l7.3-0.6l-0.6-69.6l-7.4,1.5l-1.9-5.6l35.4-11l2.8,4.7l-0.6,80
				l7.3,0.6v5.6H1110z M1168.6,282.6c-3.5-2.5-5.9-5.8-7.3-10.1c-4.7,2.9-9.5,5.3-14.1,7.1c-4.8,1.8-8.9,2.8-12.4,2.8
				c-5.3,0-9.7-1.9-13.1-5.6c-3.4-3.8-5.1-8.6-5.1-14.5c0-2.6,0.3-5.4,0.9-8.5s1.3-5.5,2.3-7.4l41.4-6.7l0.4-5.6
				c0.3-5.8-1-10.5-3.7-13.7c-2.8-3.3-7.2-5-13.3-5c-2.8,0-5.6,0.3-8.6,0.9c-3,0.6-5.5,1.3-7.6,2.3l-3.2,6.7l-5.3-1.9l9-28.2
				c10-4.3,19.6-6.5,28.5-6.5c9.3,0,16.8,2.5,22.7,7.4c5.8,4.9,8.8,12.5,8.8,23l-0.2,3.9l-1.9,26.4l-0.4,7.1c0,2.4,0.2,4.2,0.6,5.5
				s1.1,2.8,1.9,4.2l6-2.4l2.4,5.6L1168.6,282.6z M1296.6,279.3h-41.8v-5.6l7.3-0.6v-41.2c0-5.7-1.6-10.1-4.8-13.3
				c-3.2-3.2-7.6-4.8-13.2-4.9l-6.3,6.5l-0.8,53l7.3,0.6v5.6h-42v-5.6l7.3-0.6l-0.6-70l-7.4,1.7l-1.9-5.8l30.9-9.5l6.9,21.9
				l16.2-23.3c12.4,0,21.5,3,27.4,8.8s8.8,14.9,8.8,27.2v49.1l7.1,0.6v5.5L1296.6,279.3L1296.6,279.3z"/>
			<path class="st2" d="M1144.9,256.6c0,3.9,0.8,6.8,2.4,8.7c1.5,1.9,3.4,2.9,5.6,2.9c2.1,0,4.5-0.8,7.3-2.4l-0.2-4.1l0.2-4.3
				l0.6-11.2l-15.1,3.5C1145.1,251.5,1144.9,253.7,1144.9,256.6z"/>
		</g>
		<g class="st0">
			<g class="st3">
				<path class="st2" d="M942.9,273.9c3.4,2.8,5.7,6.4,6.9,10.7c1.2,4.3,1.7,9.4,1.7,15.1c0,11.6-1.9,20-5.7,25.2
					c-3.8,5.3-9.7,7.9-17.7,7.9h-22.5v-63.1h22.5C934.6,269.7,939.5,271.1,942.9,273.9z M944.3,300.4c0-8.5-1.3-14.7-3.9-18.6
					c-2.6-3.9-6.7-5.8-12.2-5.8h-15.5v50.7h15.5C938.9,326.7,944.3,317.9,944.3,300.4z"/>
				<path class="st2" d="M965.6,328.3c-2.9-3.6-4.3-9.3-4.3-17.1c0-8.5,1.6-14.7,4.7-18.8c3.1-4.1,8-6.1,14.6-6.1
					c6.1,0,10.6,1.7,13.6,5.2s4.5,8.9,4.5,16.1l-0.4,5.2h-30.1c0,3.8,0.4,6.7,1.2,8.9c0.8,2.1,2.2,3.7,4.2,4.6s4.7,1.4,8.3,1.4
					c1.8,0,3.8,0,6.1-0.1s4.4-0.2,6.3-0.4l2.6-0.3l0.2,5.4c-6.8,1-12.3,1.5-16.8,1.5C973.4,333.8,968.5,332,965.6,328.3z
					 M991.9,307.4c0-5.5-0.9-9.5-2.6-11.8c-1.8-2.3-4.7-3.5-8.7-3.5c-4.2,0-7.3,1.2-9.3,3.7s-3,6.3-3.1,11.6L991.9,307.4
					L991.9,307.4z"/>
				<path class="st2" d="M1004.4,287.2h7.3l10.7,39.7h3.4l11-39.7h7l-12.9,45.6h-13.7L1004.4,287.2z"/>
				<path class="st2" d="M1054,328.3c-2.9-3.6-4.3-9.3-4.3-17.1c0-8.5,1.6-14.7,4.7-18.8c3.1-4.1,8-6.1,14.6-6.1
					c6.1,0,10.6,1.7,13.6,5.2s4.5,8.9,4.5,16.1l-0.4,5.2h-30.1c0,3.8,0.4,6.7,1.2,8.9c0.8,2.1,2.2,3.7,4.2,4.6s4.7,1.4,8.3,1.4
					c1.8,0,3.8,0,6.1-0.1c2.3-0.1,4.4-0.2,6.3-0.4l2.6-0.3l0.2,5.4c-6.8,1-12.3,1.5-16.8,1.5C1061.8,333.8,1056.9,332,1054,328.3z
					 M1080.3,307.4c0-5.5-0.9-9.5-2.6-11.8c-1.8-2.3-4.7-3.5-8.7-3.5c-4.2,0-7.3,1.2-9.3,3.7s-3,6.3-3.1,11.6L1080.3,307.4
					L1080.3,307.4z"/>
				<path class="st2" d="M1098.3,267.4h6.8v65.5h-6.8V267.4z"/>
				<path class="st2" d="M1124.3,331.4c-2.9-1.6-4.9-4.1-6.1-7.5s-1.8-7.9-1.8-13.5c0-5.8,0.6-10.4,1.9-13.9s3.3-6.1,6.2-7.7
					c2.9-1.6,6.7-2.4,11.4-2.4c4.8,0,8.6,0.8,11.5,2.5c2.8,1.6,4.9,4.2,6.2,7.7c1.3,3.5,1.9,8.1,1.9,13.9c0,5.6-0.6,10.1-1.8,13.5
					c-1.2,3.4-3.2,5.9-6.1,7.5c-2.8,1.6-6.7,2.4-11.6,2.4C1131,333.8,1127.1,333,1124.3,331.4z M1143.6,326.2c1.8-1.1,3-2.9,3.7-5.4
					s1-5.9,1-10.4c0-4.7-0.4-8.4-1.1-10.9c-0.7-2.6-2-4.4-3.7-5.5c-1.8-1.1-4.3-1.6-7.6-1.6s-5.8,0.5-7.6,1.6
					c-1.8,1.1-3.1,2.9-3.8,5.5c-0.8,2.6-1.1,6.2-1.1,10.9c0,4.4,0.3,7.9,1,10.4s1.9,4.3,3.7,5.4c1.8,1.1,4.4,1.7,7.8,1.7
					C1139.3,327.8,1141.8,327.3,1143.6,326.2z"/>
				<path class="st2" d="M1166.5,287.2h6.8v3.3c2.4-1.4,4.7-2.4,6.9-3.1c2.2-0.7,4.6-1,7.1-1c5.7,0,9.8,1.9,12.4,5.6
					s3.9,9.7,3.9,17.8c0,5.8-0.7,10.4-2,13.9s-3.5,6.1-6.4,7.7s-6.8,2.4-11.8,2.4c-3.4,0-6.7-0.3-9.9-1v20.3h-6.8v-65.9H1166.5z
					 M1193.5,323.6c2-2.8,3-7.3,3-13.6c0-6.2-0.9-10.7-2.6-13.5s-4.4-4.2-7.9-4.2c-1.8,0-3.7,0.3-5.7,0.9s-3.8,1.2-5.2,1.9l-1.7,0.9
					v30.8c4.5,0.7,7.8,1,10,1C1188.1,327.8,1191.5,326.4,1193.5,323.6z"/>
				<path class="st2" d="M1216.9,328.3c-2.9-3.6-4.3-9.3-4.3-17.1c0-8.5,1.6-14.7,4.7-18.8c3.1-4.1,8-6.1,14.6-6.1
					c6.1,0,10.6,1.7,13.6,5.2s4.5,8.9,4.5,16.1l-0.4,5.2h-30.1c0,3.8,0.4,6.7,1.2,8.9c0.8,2.1,2.2,3.7,4.2,4.6s4.7,1.4,8.3,1.4
					c1.8,0,3.8,0,6.1-0.1c2.3-0.1,4.4-0.2,6.3-0.4l2.6-0.3l0.2,5.4c-6.8,1-12.3,1.5-16.8,1.5C1224.7,333.8,1219.8,332,1216.9,328.3z
					 M1243.1,307.4c0-5.5-0.9-9.5-2.6-11.8c-1.8-2.3-4.7-3.5-8.7-3.5c-4.2,0-7.3,1.2-9.3,3.7s-3,6.3-3.1,11.6L1243.1,307.4
					L1243.1,307.4z"/>
				<path class="st2" d="M1260.7,287.2h6.8v6.2c5.2-3.6,10.8-6,16.7-7.2v6.9c-2.4,0.5-4.9,1.2-7.7,2.2c-2.8,1-5,1.9-6.6,2.8
					l-2.3,1.2v33.5h-6.8L1260.7,287.2L1260.7,287.2z"/>
				<path class="st2" d="M1293.1,332.5l-2.7-0.5l0.4-5.9c7.1,1,12.3,1.6,15.7,1.6c3.6,0,6.4-0.6,8.2-1.8c1.8-1.2,2.7-3.1,2.7-5.7
					c0-1.9-0.4-3.3-1.3-4.3s-2-1.7-3.4-2.1s-3.3-0.8-5.8-1.2l-2.3-0.4c-3.6-0.6-6.5-1.3-8.6-2.2c-2.1-0.9-3.6-2.1-4.7-3.6
					c-1-1.6-1.6-3.7-1.6-6.4c0-4.9,1.5-8.4,4.5-10.5s7.2-3.1,12.7-3.1c4.3,0,8.7,0.4,13.2,1.2l2.6,0.5l-0.2,5.8
					c-6.6-1-11.7-1.5-15.4-1.5c-3.5,0-6.2,0.5-7.9,1.6c-1.7,1.1-2.6,2.8-2.6,5.1c0,1.6,0.4,2.9,1.3,3.8s2,1.5,3.3,1.9
					c1.4,0.4,3.3,0.8,5.8,1.2l2.3,0.5c3.8,0.7,6.7,1.4,8.8,2.3c2.1,0.9,3.6,2.1,4.6,3.8c1,1.6,1.5,3.9,1.5,6.8
					c0,4.9-1.4,8.5-4.3,10.8s-7.3,3.4-13.3,3.4C1302.9,333.8,1298.4,333.4,1293.1,332.5z"/>
			</g>
			<g class="st3">
				<path class="st2" d="M1467,241.6v119.6H762.5V241.6H1467 M1476,232.6H753.5v137.6H1476V232.6L1476,232.6z"/>
			</g>
		</g>
		<g>
			<path class="st2" d="M912.7,430.4l7.2-0.1v-87.9l-7.2-0.1v-5.1l28.4,0.3l20.9-1.8c14.6,0,25.9,4.1,33.9,12.2s12,19.9,12,35.3
				c0,10.4-2,19.5-6,27.4s-10,14-18.1,18.5c-8,4.4-17.8,6.6-29.4,6.6h-41.6v-5.3H912.7z M948.4,430.4c10.5,0,18.6-3.6,24.5-10.9
				c5.8-7.3,8.7-18.2,8.7-32.8c0-9.7-1.6-17.9-4.9-24.5c-3.3-6.6-7.7-11.6-13.4-14.8c-5.6-3.3-12-4.9-19-4.9v87.9L948.4,430.4
				L948.4,430.4z"/>
			<path class="st2" d="M1068.9,376.6c4.9,6.2,7.4,14.6,7.3,25.2l-40.6,1.3c0.7,5.8,2.7,10.2,6,13.2s7.7,4.6,13.2,4.6
				c7.6,0,13.9-2.1,18.7-6.3l2.6,2.4c-3.4,6.6-8.1,11.7-13.9,15.4c-5.8,3.7-12,5.5-18.6,5.5c-8.9,0-16-3-21.2-8.9s-7.9-13.9-7.9-24
				c0-6,1.2-11.9,3.6-17.8c2.4-5.9,5.5-10.8,9.2-14.7c2.5-1.5,5.8-2.7,9.8-3.7s7.8-1.5,11.3-1.5
				C1057.2,367.2,1064,370.3,1068.9,376.6z M1054.4,396.9c-0.1-6.9-1.1-12.3-2.9-16.3c-1.9-4-4.5-6.4-7.9-7.2
				c-2.5,2.5-4.4,6.1-6,10.7c-1.5,4.6-2.3,9.2-2.3,14v0.4L1054.4,396.9z"/>
			<path class="st2" d="M1147.3,369.4v4.7l-4.3,0.1l-26,60.4l-14.8,0.9l-23.2-61.3l-4.3-0.1v-4.7h34.8v4.7l-6.2,0.1l12.8,45.3
				l12.1-45.3l-6.2-0.1v-4.7H1147.3z"/>
			<path class="st2" d="M1203.4,376.6c4.9,6.2,7.4,14.6,7.3,25.2l-40.6,1.3c0.7,5.8,2.7,10.2,6,13.2s7.7,4.6,13.2,4.6
				c7.6,0,13.9-2.1,18.7-6.3l2.6,2.4c-3.4,6.6-8.1,11.7-13.9,15.4c-5.8,3.7-12,5.5-18.6,5.5c-8.9,0-16-3-21.2-8.9s-7.9-13.9-7.9-24
				c0-6,1.2-11.9,3.6-17.8s5.5-10.8,9.2-14.7c2.5-1.5,5.8-2.7,9.8-3.7s7.8-1.5,11.3-1.5C1191.7,367.2,1198.5,370.3,1203.4,376.6z
				 M1188.9,396.9c-0.1-6.9-1.1-12.3-2.9-16.3c-1.9-4-4.5-6.4-7.9-7.2c-2.5,2.5-4.4,6.1-6,10.7c-1.5,4.6-2.3,9.2-2.3,14v0.4
				L1188.9,396.9z"/>
			<path class="st2" d="M1215.4,431.3l5.4-0.4l-0.7-88.1l-5.6,1.2l-1.5-4.3l27.2-8.2l2.1,3.5l-0.7,95.9l5.4,0.4v4.3h-31.6
				L1215.4,431.3L1215.4,431.3z"/>
			<path class="st2" d="M1309.1,375.9c6,5.8,9,14,9,24.7c0,4.6-0.8,9.4-2.4,14.3s-4,9.2-7.1,12.9c-3.1,3-6.8,5.5-11,7.3
				s-8.6,2.7-13.2,2.7c-9.8,0-17.7-2.9-23.7-8.7c-6-5.8-9-14-9-24.7c0-4.5,0.8-9.2,2.5-14.1s4.1-9.2,7.2-12.9c3.1-3,6.8-5.5,11-7.4
				s8.5-2.8,13-2.8C1295.2,367.2,1303.1,370.1,1309.1,375.9z M1278.4,418.2c3.7,4.6,9.1,7.4,16.2,8.2c0.7-2.9,1.2-6.2,1.6-9.8
				c0.4-3.6,0.6-6.6,0.6-9c0-9.4-1.8-16.4-5.5-20.9c-3.7-4.6-9-7.3-16.1-8.2c-0.7,3-1.3,6.4-1.7,10c-0.4,3.6-0.7,6.6-0.7,8.8
				C1272.9,406.7,1274.7,413.6,1278.4,418.2z"/>
			<path class="st2" d="M1379.4,371.1c4.4,2.6,7.7,6.2,10.1,10.7c2.4,4.6,3.6,9.7,3.6,15.5c0,5-0.8,10.3-2.4,16
				c-1.6,5.6-3.6,10-6,13c-1.9,2.6-5.2,5.2-10.1,7.7s-9,3.7-12.3,3.7c-2.5,0-6.4-0.4-11.9-1.3l0.3,31.2l11.3,0.4v4.3h-39V468
				l5.4-0.4l0.7-89.7l-5.6,1.3l-1.5-4.4l22.8-7.2l4.7,16.8l14.7-17.2C1370,367.2,1375,368.5,1379.4,371.1z M1372.1,406.2
				c0-4.5-0.7-8.4-2.2-11.8c-1.5-3.3-3.4-5.9-5.8-7.6c-2.4-1.8-5-2.6-7.7-2.6l-6.5,6.5l0.3,29.8c6.5,3,12.5,5.1,18.2,6.2
				C1370.9,421,1372.1,414.2,1372.1,406.2z"/>
			<path class="st2" d="M1452.5,376.6c4.9,6.2,7.4,14.6,7.3,25.2l-40.6,1.3c0.7,5.8,2.7,10.2,6,13.2s7.7,4.6,13.2,4.6
				c7.6,0,13.9-2.1,18.7-6.3l2.6,2.4c-3.4,6.6-8.1,11.7-13.9,15.4c-5.8,3.7-12,5.5-18.6,5.5c-8.9,0-16-3-21.2-8.9s-7.9-13.9-7.9-24
				c0-6,1.2-11.9,3.6-17.8s5.5-10.8,9.2-14.7c2.5-1.5,5.8-2.7,9.8-3.7s7.8-1.5,11.3-1.5C1440.7,367.2,1447.5,370.3,1452.5,376.6z
				 M1438,396.9c-0.1-6.9-1.1-12.3-2.9-16.3c-1.9-4-4.5-6.4-7.9-7.2c-2.5,2.5-4.4,6.1-6,10.7c-1.5,4.6-2.3,9.2-2.3,14v0.4
				L1438,396.9z"/>
			<path class="st2" d="M1490.9,389.6l-0.6,41.3l13.1,0.4v4.3h-39.3v-4.3l5.4-0.4l-0.4-52.6l-5.6,1.3l-1.5-4.4l23.2-7.2l5,15.7
				c3.2-6.6,6.8-11.7,10.6-15.3c2.2-0.8,4.8-1.2,7.8-1.2c4.1,0,8,0.7,11.6,2.2l-4.7,19.1c-2.8-0.6-6.5-1.1-10.9-1.6s-8-0.8-10.9-1
				L1490.9,389.6z"/>
			<path class="st2" d="M1545.5,387.7c2.1,2.2,5.3,4.7,9.6,7.6c5.3,3.6,9.3,6.9,12.1,9.8c2.7,2.9,4.1,6.6,4.1,10.9
				c0,3.8-1.1,7.4-3.4,10.7c-2.3,3.3-5.4,6-9.6,8s-8.8,3-14.1,3c-5.1,0-9.9-1.2-14.5-3.7c-4.6-2.4-7.9-5.6-10.1-9.4l12.6-10.1
				c3.9,7.4,7.9,13.4,12.1,18.1c1.7-1.3,3.1-2.8,4.2-4.5s1.7-3.4,1.7-5.1c0-2.7-1-5.1-3-7.1s-5.1-4.4-9.3-7.3
				c-3.4-2.3-6.2-4.2-8.2-5.9c-2.1-1.7-3.8-3.7-5.2-6c-1.4-2.4-2.1-5-2.1-7.9c0-3.6,1.2-7.1,3.6-10.4s5.8-6,10.1-8.1
				c4.3-2.1,9.2-3.1,14.7-3.1c4.2,0,8.2,0.9,12,2.7c3.8,1.8,6.8,4.1,9.2,6.8l-11.5,11.3c-4.7-6-9.9-11.3-15.6-16
				c-1.7,2.2-2.5,5-2.5,8.4C1542.4,383.1,1543.4,385.5,1545.5,387.7z"/>
		</g>
	</g>
</g>
<rect x="262" y="316.4" class="st4" width="901.7" height="144.6"/>
</svg>
