<?xml version="1.0" encoding="utf-8"?>
<!-- Generator: Adobe Illustrator 22.0.1, SVG Export Plug-In . SVG Version: 6.00 Build 0)  -->
<svg version="1.1" id="Layer_1" xmlns="http://www.w3.org/2000/svg" xmlns:xlink="http://www.w3.org/1999/xlink" x="0px" y="0px"
	 viewBox="0 0 1650.4 496.9" style="enable-background:new 0 0 1650.4 496.9;" xml:space="preserve">
<style type="text/css">
	.st0{display:none;}
	.st1{display:none;fill:#79C79C;}
	.st2{fill:#121212;}
	.st3{display:none;enable-background:new    ;}
	.st4{font-family:'ArialMT';}
	.st5{font-size:12px;}
	.st6{display:inline;fill:#FFFFFF;}
	.st7{font-family:'Rockwell-Condensed';}
	.st8{font-size:196.4669px;}
	.st9{font-family:'Cairo-ExtraLight';}
	.st10{font-size:91.671px;}
	.st11{enable-background:new    ;}
	.st12{fill:#FFFFFF;}
</style>
<path class="st0" d="M285.9,348.5L285.9,348.5c-8,9.1-21.8,9.9-30.9,1.9l-99.8-88.2c-9.1-8-9.9-21.8-1.9-30.9l0,0
	c8-9.1,21.8-9.9,30.9-1.9l99.8,88.2C293.1,325.7,293.9,339.5,285.9,348.5z"/>
<rect x="262" y="316.4" class="st1" width="901.7" height="144.6"/>
<rect x="-364.2" y="-166.4" class="st2" width="2208.5" height="880"/>
<text transform="matrix(1 0 0 1 229.5469 230.9132)" class="st3 st4 st5">Lorem ipsum</text>
<g class="st0">
	<text transform="matrix(1 0 0 1 88.6888 274.3922)" class="st6 st7 st8">Arabic Name Generator</text>
	<text transform="matrix(1 0 0 1 593.7809 414.1724)" class="st6 st9 st10">API Included</text>
</g>
<g>
	<g class="st11">
		<path class="st12" d="M125.1,224.1l-3.5,32.8h9.2v17.5H92v-17.5h9L117,147.3h-10.1v-17.5h53.5v17.5h-10.1l15.9,109.6h9v17.5h-38.7
			v-17.5h9.2l-3.5-32.8H125.1z M126.3,206.7H141l-6.2-64.5h-2.3L126.3,206.7z"/>
		<path class="st12" d="M182.8,274.4v-16.7h9v-67.4h-9v-16.7h27.1v19.7h0.4c3.3-8.4,6.5-13.9,9.7-16.7c3.2-2.7,7.8-4.1,13.7-4.1
			v19.1c-15.9,0-23.8,9-23.8,27.1v39.1H220v16.7H182.8z"/>
		<path class="st12" d="M304.5,257.7v16.7h-25.9v-8.6h-0.4c-4,6.5-9.5,9.8-16.3,9.8c-6.3,0-11.5-2.9-15.5-8.6c-4-5.7-6-13.2-6-22.4
			c0-10.2,2.2-18.1,6.7-23.6c4.5-5.5,10.2-8.3,17.2-8.3c5.7,0,10.5,2.4,14.4,7.1v-17.4c0-6.7-0.8-10.9-2.4-12.7s-3.9-2.7-6.8-2.7
			c-5.9,0-9.2,4.3-9.9,13l-16.7-4.7c1.3-7.6,4.3-13.5,9.2-17.7c4.9-4.2,10.8-6.3,17.9-6.3c7.7,0,14,2.5,19.1,7.4
			c5.1,5,7.6,11.8,7.6,20.5v58.5H304.5z M278.6,254.5v-22.2c-2.7-3.1-5.7-4.7-9-4.7c-6.8,0-10.3,5.4-10.3,16.3
			c0,10.6,3.4,15.8,10.3,15.8C272.9,259.8,275.9,258.1,278.6,254.5z"/>
		<path class="st12" d="M313.4,274.4v-16.7h8.6V146.5h-8.6v-16.7H340v50.5h0.5c4.3-6,9.5-9,15.5-9c8.1,0,13.9,4.2,17.4,12.5
			c3.4,8.3,5.1,22.3,5.1,41.9c0,16.2-1.9,28.6-5.8,37.1c-3.9,8.5-9.6,12.8-17.1,12.8c-6.2,0-11.3-3.8-15.1-11.3H340v10.2H313.4z
			 M340,208v26.5c0,8.3,0.7,14.5,2.1,18.4c1.4,4,4,5.9,7.8,5.9c3.4,0,5.9-2,7.3-6.1c1.5-4.1,2.2-10.2,2.2-18.4v-17.1
			c0-11.1-0.7-18.9-2.2-23.5s-3.9-6.8-7.3-6.8C343.4,187,340,194,340,208z"/>
		<path class="st12" d="M398.4,257.7v-67.4h-7.3v-16.7h25.3v84.1h5.7v16.7h-31v-16.7H398.4z M406.8,127.4c3.3,0,6,1.1,8.3,3.4
			c2.2,2.2,3.4,5,3.4,8.3c0,3.2-1.1,5.9-3.4,8.2c-2.2,2.3-5,3.4-8.3,3.4c-3.2,0-5.9-1.1-8.2-3.4c-2.3-2.3-3.4-5-3.4-8.2
			c0-3.3,1.1-6,3.4-8.3C400.9,128.5,403.6,127.4,406.8,127.4z"/>
		<path class="st12" d="M473.7,237.7l16.1,6.9c-0.3,10.3-2.8,18.2-7.6,23.8c-4.7,5.6-10.9,8.4-18.5,8.4c-10.3,0-17.7-4-22.2-12
			c-4.5-8-6.7-21.6-6.7-40.6c0-18.2,1.9-31.3,5.6-39.5c3.7-8.2,9.6-12.2,17.7-12.2c6.3,0,11.2,3.1,14.6,9.4h0.4v-8.3h16.7v36.5
			h-16.7c0-8.1-0.8-13.8-2.3-17.1c-1.5-3.3-4-4.9-7.5-4.9c-3.8,0-6.4,2.1-7.6,6.4s-1.9,11.6-1.9,21.9v15.4c0,10.7,0.8,18.1,2.3,22.1
			c1.5,4.1,4,6.1,7.6,6.1c3.7,0,6.3-1.6,7.8-4.8C472.9,252.2,473.7,246.3,473.7,237.7z"/>
		<path class="st12" d="M566.2,274.4v-17.5h9.9V147.3h-9.9v-17.5h32l16.6,52.5l9.8,42.2h0.6l-2.2-43.6v-33.6h-9.8v-17.5h37.1v17.5
			h-9.9v127.1h-16.1l-17.7-55.4c-1.9-6-3.9-13.3-6-21.9l-8-32.5H592l1.5,44v48.3h9.8v17.5H566.2z"/>
		<path class="st12" d="M726,257.7v16.7h-25.9v-8.6h-0.4c-4,6.5-9.5,9.8-16.3,9.8c-6.3,0-11.5-2.9-15.5-8.6c-4-5.7-6-13.2-6-22.4
			c0-10.2,2.2-18.1,6.7-23.6c4.5-5.5,10.2-8.3,17.2-8.3c5.7,0,10.5,2.4,14.4,7.1v-17.4c0-6.7-0.8-10.9-2.4-12.7s-3.9-2.7-6.8-2.7
			c-5.9,0-9.2,4.3-9.9,13l-16.7-4.7c1.3-7.6,4.3-13.5,9.2-17.7c4.9-4.2,10.8-6.3,17.9-6.3c7.7,0,14,2.5,19.1,7.4
			c5.1,5,7.6,11.8,7.6,20.5v58.5H726z M700.1,254.5v-22.2c-2.7-3.1-5.7-4.7-9-4.7c-6.8,0-10.3,5.4-10.3,16.3
			c0,10.6,3.4,15.8,10.3,15.8C694.3,259.8,697.3,258.1,700.1,254.5z"/>
		<path class="st12" d="M733.3,274.4v-16.7h7.5v-67.4h-7.9v-16.7h25.9v8.9h0.4c4.2-6.7,9.3-10.1,15.5-10.1c6.1,0,11,3.4,14.6,10.1
			c4.5-6.7,10.1-10.1,16.8-10.1c12.7,0,19,9.1,19,27.3v57.9h7.5v16.7h-25.5v-73.9c0-4.3-0.4-7.3-1.2-8.9c-0.8-1.7-2.3-2.5-4.7-2.5
			c-2.5,0-4.7,1-6.5,3c-1.9,2-2.8,3.3-2.8,3.9v61.7h7.5v16.7h-25.5v-73.9c0-4.2-0.4-7.1-1.3-8.8c-0.9-1.7-2.5-2.6-4.7-2.6
			c-3.2,0-6.2,2.3-9.1,6.9v61.7h7.5v16.7H733.3z"/>
		<path class="st12" d="M881.8,244l15.9,5.9c-2.2,8.6-5.6,15.3-10.2,20c-4.6,4.7-9.9,7-15.8,7c-9.6,0-16.6-4.1-21.1-12.4
			c-4.5-8.3-6.7-21.4-6.7-39.5c0-18.1,2.2-31.6,6.7-40.4c4.5-8.8,11.4-13.2,20.9-13.2c7.8,0,14.2,3.6,19.1,10.9
			c5,7.3,7.4,17.8,7.4,31.5V229h-35.2v4.3c0,9,0.7,15.8,2.1,20.2c1.4,4.4,3.8,6.6,7.1,6.6C877.6,260.1,880.9,254.7,881.8,244z
			 M862.9,214.6H880v-8.8c0-12.5-2.9-18.8-8.7-18.8c-3.3,0-5.5,1.9-6.7,5.6c-1.2,3.7-1.8,9.6-1.8,17.7V214.6z"/>
		<path class="st12" d="M1012,222.1v-17.5h31.1v13.1c0,18.7-2.9,33.2-8.6,43.5c-5.7,10.3-13.7,15.5-24,15.5c-5.1,0-9.7-1.4-14-4.3
			c-4.3-2.8-7.9-7.2-10.9-13.1c-3-5.9-5-13.1-6.1-21.7c-1.1-8.6-1.6-20.1-1.6-34.6c0-26.2,2.3-45.4,7-57.5
			c4.7-12.1,12-18.2,22.1-18.2c5.6,0,10.8,2.6,15.5,7.9v-5.5h17.5v46.9h-17.5c0-20.1-3.9-30.2-11.6-30.2c-2.9,0-5.1,1.3-6.6,4
			c-1.4,2.7-2.5,7.8-3.1,15.3c-0.6,7.6-1,19.1-1,34.7c0,16.9,0.3,29.3,0.9,37.1c0.6,7.8,1.6,13.1,3.1,15.9c1.5,2.8,3.8,4.2,6.9,4.2
			c4.5,0,7.5-3,8.8-9c1.3-6,2-14.9,2-26.6H1012z"/>
		<path class="st12" d="M1094.5,244l15.9,5.9c-2.2,8.6-5.6,15.3-10.2,20c-4.6,4.7-9.9,7-15.8,7c-9.6,0-16.6-4.1-21.1-12.4
			c-4.5-8.3-6.7-21.4-6.7-39.5c0-18.1,2.2-31.6,6.7-40.4c4.5-8.8,11.4-13.2,20.9-13.2c7.8,0,14.2,3.6,19.1,10.9
			c5,7.3,7.4,17.8,7.4,31.5V229h-35.2v4.3c0,9,0.7,15.8,2.1,20.2c1.4,4.4,3.8,6.6,7.1,6.6C1090.4,260.1,1093.6,254.7,1094.5,244z
			 M1075.6,214.6h17.2v-8.8c0-12.5-2.9-18.8-8.7-18.8c-3.3,0-5.5,1.9-6.7,5.6c-1.2,3.7-1.8,9.6-1.8,17.7V214.6z"/>
		<path class="st12" d="M1122.6,274.4v-16.7h7.5v-67.4h-7.9v-16.7h25.9v8.1h0.5c4.2-6.1,9.2-9.2,15.3-9.2c5.3,0,9.5,2.2,12.5,6.6
			c3,4.4,4.6,10.5,4.6,18.4v60.3h7.5v16.7h-25.5v-74.3c0-4.1-0.4-7-1.2-8.6c-0.8-1.6-2.3-2.4-4.5-2.4c-2.4,0-4.6,1.1-6.4,3.3
			c-1.8,2.2-2.7,3.5-2.7,4v61.3h7.5v16.7H1122.6z"/>
		<path class="st12" d="M1237.8,244l15.9,5.9c-2.2,8.6-5.6,15.3-10.2,20c-4.6,4.7-9.9,7-15.8,7c-9.6,0-16.6-4.1-21.1-12.4
			c-4.5-8.3-6.7-21.4-6.7-39.5c0-18.1,2.2-31.6,6.7-40.4c4.5-8.8,11.4-13.2,20.9-13.2c7.8,0,14.2,3.6,19.1,10.9
			c5,7.3,7.4,17.8,7.4,31.5V229h-35.2v4.3c0,9,0.7,15.8,2.1,20.2c1.4,4.4,3.8,6.6,7.1,6.6C1233.6,260.1,1236.9,254.7,1237.8,244z
			 M1218.9,214.6h17.2v-8.8c0-12.5-2.9-18.8-8.7-18.8c-3.3,0-5.5,1.9-6.7,5.6c-1.2,3.7-1.8,9.6-1.8,17.7V214.6z"/>
		<path class="st12" d="M1265.1,274.4v-16.7h9v-67.4h-9v-16.7h27.1v19.7h0.4c3.3-8.4,6.5-13.9,9.7-16.7c3.2-2.7,7.8-4.1,13.7-4.1
			v19.1c-15.9,0-23.8,9-23.8,27.1v39.1h10.2v16.7H1265.1z"/>
		<path class="st12" d="M1386.8,257.7v16.7h-25.9v-8.6h-0.4c-4,6.5-9.5,9.8-16.3,9.8c-6.3,0-11.5-2.9-15.5-8.6c-4-5.7-6-13.2-6-22.4
			c0-10.2,2.2-18.1,6.7-23.6c4.5-5.5,10.2-8.3,17.2-8.3c5.7,0,10.5,2.4,14.4,7.1v-17.4c0-6.7-0.8-10.9-2.4-12.7s-3.9-2.7-6.8-2.7
			c-5.9,0-9.2,4.3-9.9,13l-16.7-4.7c1.3-7.6,4.3-13.5,9.2-17.7c4.9-4.2,10.8-6.3,17.9-6.3c7.7,0,14,2.5,19.1,7.4
			c5.1,5,7.6,11.8,7.6,20.5v58.5H1386.8z M1360.9,254.5v-22.2c-2.7-3.1-5.7-4.7-9-4.7c-6.8,0-10.3,5.4-10.3,16.3
			c0,10.6,3.4,15.8,10.3,15.8C1355.2,259.8,1358.2,258.1,1360.9,254.5z"/>
		<path class="st12" d="M1419.6,190.3v59.2c0,6.7,2.7,10,8.1,10c2,0,4.4-0.6,7.3-1.7v15.7c-4,1.4-8.8,2.1-14.3,2.1
			c-6.7,0-11.5-2.1-14.5-6.2c-3-4.1-4.6-10.8-4.6-19.9v-59.2h-8.8v-16.7h8.8v-16.5c6.1-3.9,12.2-8.3,18-13.1v29.6h12v16.7H1419.6z"
			/>
		<path class="st12" d="M1472.7,276.8c-9.3,0-16.2-4.3-20.5-13c-4.3-8.6-6.5-21.9-6.5-39.9c0-18.2,2.2-31.6,6.6-40
			c4.4-8.4,11.2-12.7,20.4-12.7c18.2,0,27.3,17.6,27.3,52.9C1500,259.2,1490.9,276.8,1472.7,276.8z M1472.7,188
			c-3.2,0-5.4,2.4-6.5,7.1c-1.1,4.7-1.6,14.3-1.6,28.8c0,10.6,0.3,18.4,0.8,23.5c0.5,5.1,1.3,8.5,2.4,10.2c1.1,1.7,2.7,2.5,4.9,2.5
			c3.7,0,6-2.8,6.9-8.3c0.9-5.5,1.4-14.8,1.4-27.9c0-14.4-0.6-24-1.7-28.8C1478.2,190.4,1476,188,1472.7,188z"/>
		<path class="st12" d="M1510.7,274.4v-16.7h9v-67.4h-9v-16.7h27.1v19.7h0.4c3.3-8.4,6.5-13.9,9.7-16.7c3.2-2.7,7.8-4.1,13.7-4.1
			v19.1c-15.9,0-23.8,9-23.8,27.1v39.1h10.2v16.7H1510.7z"/>
	</g>
	<g class="st11">
		<path class="st12" d="M636.2,394.5h-30.6l-6.1,19.7h-3.1l19.6-64.2h3l0.5-0.5l-0.2,0.5h2.9l-0.2-0.5l0.6,0.5h3l19.6,64.2h-3.1
			L636.2,394.5z M635.2,391.3l-0.2-0.6l0.1,0.1l-11.8-37.6h-4.8l-11.7,37.5l-0.2,0.6H635.2z"/>
		<path class="st12" d="M656.5,350h23.4c6.6,0,11.4,1.6,14.4,4.7c3,3.1,4.5,8.1,4.5,14.9c0,7.2-1.6,12.5-4.7,15.9
			c-3.1,3.5-7.9,5.2-14.3,5.2h-20v23.5h-3.4V350z M679.8,387.5c10.4,0,15.6-6,15.6-17.9c0-5.6-1.2-9.8-3.7-12.4s-6.4-4-11.9-4h-19.9
			v34.3H679.8z"/>
		<path class="st12" d="M711.1,350h3.4v64.2h-3.4V350z"/>
		<path class="st12" d="M751.4,350h3.4v64.2h-3.4V350z"/>
		<path class="st12" d="M770.2,368.3h3.1v3.7c3.1-1.6,6-2.8,8.6-3.5c2.6-0.7,5.3-1,8-1c4,0,7,0.7,9,2c2,1.3,3.5,3.6,4.3,6.9
			c0.8,3.2,1.2,7.9,1.2,14v23.7h-3.1v-23.7c0-5.3-0.3-9.3-0.9-12.1c-0.6-2.8-1.6-4.8-3.2-6c-1.6-1.2-3.8-1.8-6.8-1.8
			c-2.8,0-5.5,0.4-8.4,1.1s-5,1.5-6.5,2.3l-2.2,1.2v39.1h-3.2V368.3z"/>
		<path class="st12" d="M823.8,412.6c-2.6-1.6-4.4-4.1-5.5-7.6c-1.1-3.4-1.6-8.1-1.6-14c0-4.3,0.3-8,0.9-11.2
			c0.6-3.2,2.1-6.1,4.6-8.6c2.5-2.5,6.2-3.8,11.3-3.8c2,0,3.9,0.1,5.6,0.2c1.7,0.1,4.2,0.4,7.5,0.9l-0.3,2.8
			c-4.6-0.6-8.4-0.9-11.3-0.9c-3.9,0-6.8,0.6-9,1.9c-2.1,1.3-3.7,3.4-4.6,6.5c-0.9,3-1.4,7.3-1.4,12.8c0,5.1,0.4,9.2,1.3,12.1
			c0.9,2.9,2.4,5,4.6,6.4c2.2,1.3,5.4,2,9.6,2l10.9-0.9l0.2,2.9c-5.7,0.6-9.6,0.9-11.8,0.9C830.1,415,826.4,414.2,823.8,412.6z"/>
		<path class="st12" d="M858.3,347.3h3.2v66.9h-3.2V347.3z"/>
		<path class="st12" d="M881.5,413c-2-1.3-3.4-3.6-4.2-6.8c-0.8-3.2-1.2-7.9-1.2-14.1v-23.8h3.2v23.6c0,5.4,0.3,9.6,0.9,12.4
			c0.6,2.8,1.7,4.8,3.3,6c1.6,1.2,3.9,1.8,7.1,1.8c2.9,0,5.7-0.4,8.4-1.2c2.7-0.8,5.1-1.9,7.3-3.3v-39.1h3.3v45.8h-3.4v-3.7
			c-2.4,1.5-4.8,2.7-7.2,3.4c-2.4,0.7-5.2,1.1-8.4,1.1C886.5,415,883.5,414.3,881.5,413z"/>
		<path class="st12" d="M925.5,409.5c-2.4-3.7-3.6-9.5-3.6-17.3c0-5.9,0.7-10.7,2-14.3c1.3-3.6,3.4-6.2,6.4-7.9
			c2.9-1.7,6.9-2.5,11.8-2.5c1.8,0,3.8,0.1,5.9,0.3c2.1,0.2,3.9,0.5,5.4,0.9v-21.5h3.1v66.9h-3.1v-3.9c-4.8,3.2-10.1,4.8-15.9,4.8
			C931.9,415,927.9,413.1,925.5,409.5z M945.3,410.9c2.7-0.8,4.6-1.6,5.9-2.4l2.2-1.2v-35.7c-4.5-0.9-8.4-1.3-11.8-1.3
			c-4.1,0-7.3,0.7-9.7,2.2c-2.4,1.5-4,3.8-5,6.8c-1,3-1.5,7-1.5,12.1c0,6.8,0.9,12,2.8,15.4c1.8,3.5,5,5.2,9.5,5.2
			C940.1,412.1,942.6,411.7,945.3,410.9z"/>
		<path class="st12" d="M972.8,409.5c-2.8-3.6-4.1-9.3-4.1-17c0-8.6,1.5-14.9,4.4-18.9c3-4.1,7.7-6.1,14.1-6.1
			c5.9,0,10.2,1.8,13,5.3c2.8,3.5,4.2,9.1,4.2,16.7v3H972c-0.1,4.8,0.4,8.6,1.4,11.4c1,2.8,2.6,4.8,5,6.1c2.3,1.3,5.6,2,9.8,2
			c1.6,0,3.5-0.1,5.6-0.2c2.2-0.1,4.2-0.2,6.2-0.4l2.8-0.3l0.2,3c-7.5,0.5-12.7,0.7-15.8,0.7C980.3,415,975.6,413.2,972.8,409.5z
			 M1001.1,389.6c0-6.8-1.1-11.7-3.3-14.7c-2.2-3-5.7-4.5-10.5-4.5c-5.1,0-8.9,1.6-11.5,4.7c-2.6,3.1-3.9,7.9-3.9,14.5H1001.1z"/>
		<path class="st12" d="M1018.2,409.5c-2.4-3.7-3.6-9.5-3.6-17.3c0-5.9,0.7-10.7,2-14.3c1.3-3.6,3.4-6.2,6.4-7.9
			c2.9-1.7,6.9-2.5,11.8-2.5c1.8,0,3.8,0.1,5.9,0.3c2.1,0.2,3.9,0.5,5.4,0.9v-21.5h3.1v66.9h-3.1v-3.9c-4.8,3.2-10.1,4.8-15.9,4.8
			C1024.6,415,1020.6,413.1,1018.2,409.5z M1038,410.9c2.7-0.8,4.6-1.6,5.9-2.4l2.2-1.2v-35.7c-4.5-0.9-8.4-1.3-11.8-1.3
			c-4.1,0-7.3,0.7-9.7,2.2c-2.4,1.5-4,3.8-5,6.8c-1,3-1.5,7-1.5,12.1c0,6.8,0.9,12,2.8,15.4c1.8,3.5,5,5.2,9.5,5.2
			C1032.8,412.1,1035.3,411.7,1038,410.9z"/>
	</g>
</g>
</svg>
