<?xml version="1.0" encoding="utf-8"?>
<!-- Generator: Adobe Illustrator 22.0.1, SVG Export Plug-In . SVG Version: 6.00 Build 0)  -->
<svg version="1.1" id="Layer_1" xmlns="http://www.w3.org/2000/svg" xmlns:xlink="http://www.w3.org/1999/xlink" x="0px" y="0px"
	 viewBox="0 0 1650.4 730.8" style="enable-background:new 0 0 1650.4 730.8;" xml:space="preserve">
<style type="text/css">
	.st0{display:none;}
	.st1{display:none;fill:#79C79C;}
	.st2{display:none;fill:#121212;}
	.st3{display:none;enable-background:new    ;}
	.st4{font-family:'ArialMT';}
	.st5{font-size:12px;}
	.st6{display:inline;fill:#FFFFFF;}
	.st7{font-family:'Rockwell-Condensed';}
	.st8{font-size:196.4669px;}
	.st9{font-family:'Cairo-ExtraLight';}
	.st10{font-size:91.671px;}
	.st11{display:inline;enable-background:new    ;}
	.st12{fill:#FFFFFF;}
	.st13{fill:#079DD4;}
</style>
<path class="st0" d="M285.9,465.4L285.9,465.4c-8,9.1-21.8,9.9-30.9,1.9l-99.8-88.2c-9.1-8-9.9-21.8-1.9-30.9l0,0
	c8-9.1,21.8-9.9,30.9-1.9l99.8,88.2C293.1,442.6,293.9,456.4,285.9,465.4z"/>
<rect x="262" y="433.3" class="st1" width="901.7" height="144.6"/>
<rect x="-364.2" y="-49.5" class="st2" width="2208.5" height="880"/>
<text transform="matrix(1 0 0 1 229.5469 347.8538)" class="st3 st4 st5">Lorem ipsum</text>
<g class="st0">
	<text transform="matrix(1 0 0 1 88.6888 391.3328)" class="st6 st7 st8">Arabic Name Generator</text>
	<text transform="matrix(1 0 0 1 593.7809 531.113)" class="st6 st9 st10">API Included</text>
</g>
<g class="st0">
	<g class="st11">
		<path class="st12" d="M125.1,341.1l-3.5,32.8h9.2v17.5H92v-17.5h9L117,264.2h-10.1v-17.5h53.5v17.5h-10.1l15.9,109.6h9v17.5h-38.7
			v-17.5h9.2l-3.5-32.8H125.1z M126.3,323.6H141l-6.2-64.5h-2.3L126.3,323.6z"/>
		<path class="st12" d="M182.8,391.3v-16.7h9v-67.4h-9v-16.7h27.1v19.7h0.4c3.3-8.4,6.5-13.9,9.7-16.7c3.2-2.7,7.8-4.1,13.7-4.1
			v19.1c-15.9,0-23.8,9-23.8,27.1v39.1H220v16.7H182.8z"/>
		<path class="st12" d="M304.5,374.6v16.7h-25.9v-8.6h-0.4c-4,6.5-9.5,9.8-16.3,9.8c-6.3,0-11.5-2.9-15.5-8.6c-4-5.7-6-13.2-6-22.4
			c0-10.2,2.2-18.1,6.7-23.6c4.5-5.5,10.2-8.3,17.2-8.3c5.7,0,10.5,2.4,14.4,7.1v-17.4c0-6.7-0.8-10.9-2.4-12.7s-3.9-2.7-6.8-2.7
			c-5.9,0-9.2,4.3-9.9,13l-16.7-4.7c1.3-7.6,4.3-13.5,9.2-17.7c4.9-4.2,10.8-6.3,17.9-6.3c7.7,0,14,2.5,19.1,7.4
			c5.1,5,7.6,11.8,7.6,20.5v58.5H304.5z M278.6,371.5v-22.2c-2.7-3.1-5.7-4.7-9-4.7c-6.8,0-10.3,5.4-10.3,16.3
			c0,10.6,3.4,15.8,10.3,15.8C272.9,376.8,275.9,375,278.6,371.5z"/>
		<path class="st12" d="M313.4,391.3v-16.7h8.6V263.5h-8.6v-16.7H340v50.5h0.5c4.3-6,9.5-9,15.5-9c8.1,0,13.9,4.2,17.4,12.5
			c3.4,8.3,5.1,22.3,5.1,41.9c0,16.2-1.9,28.6-5.8,37.1c-3.9,8.5-9.6,12.8-17.1,12.8c-6.2,0-11.3-3.8-15.1-11.3H340v10.2H313.4z
			 M340,324.9v26.5c0,8.3,0.7,14.5,2.1,18.4c1.4,4,4,5.9,7.8,5.9c3.4,0,5.9-2,7.3-6.1c1.5-4.1,2.2-10.2,2.2-18.4v-17.1
			c0-11.1-0.7-18.9-2.2-23.5s-3.9-6.8-7.3-6.8C343.4,303.9,340,310.9,340,324.9z"/>
		<path class="st12" d="M398.4,374.6v-67.4h-7.3v-16.7h25.3v84.1h5.7v16.7h-31v-16.7H398.4z M406.8,244.4c3.3,0,6,1.1,8.3,3.4
			c2.2,2.2,3.4,5,3.4,8.3c0,3.2-1.1,5.9-3.4,8.2c-2.2,2.3-5,3.4-8.3,3.4c-3.2,0-5.9-1.1-8.2-3.4c-2.3-2.3-3.4-5-3.4-8.2
			c0-3.3,1.1-6,3.4-8.3C400.9,245.5,403.6,244.4,406.8,244.4z"/>
		<path class="st12" d="M473.7,354.6l16.1,6.9c-0.3,10.3-2.8,18.2-7.6,23.8c-4.7,5.6-10.9,8.4-18.5,8.4c-10.3,0-17.7-4-22.2-12
			c-4.5-8-6.7-21.6-6.7-40.6c0-18.2,1.9-31.3,5.6-39.5c3.7-8.2,9.6-12.2,17.7-12.2c6.3,0,11.2,3.1,14.6,9.4h0.4v-8.3h16.7v36.5
			h-16.7c0-8.1-0.8-13.8-2.3-17.1c-1.5-3.3-4-4.9-7.5-4.9c-3.8,0-6.4,2.1-7.6,6.4s-1.9,11.6-1.9,21.9v15.4c0,10.7,0.8,18.1,2.3,22.1
			c1.5,4.1,4,6.1,7.6,6.1c3.7,0,6.3-1.6,7.8-4.8C472.9,369.1,473.7,363.2,473.7,354.6z"/>
		<path class="st12" d="M566.2,391.3v-17.5h9.9V264.2h-9.9v-17.5h32l16.6,52.5l9.8,42.2h0.6l-2.2-43.6v-33.6h-9.8v-17.5h37.1v17.5
			h-9.9v127.1h-16.1l-17.7-55.4c-1.9-6-3.9-13.3-6-21.9l-8-32.5H592l1.5,44v48.3h9.8v17.5H566.2z"/>
		<path class="st12" d="M726,374.6v16.7h-25.9v-8.6h-0.4c-4,6.5-9.5,9.8-16.3,9.8c-6.3,0-11.5-2.9-15.5-8.6c-4-5.7-6-13.2-6-22.4
			c0-10.2,2.2-18.1,6.7-23.6c4.5-5.5,10.2-8.3,17.2-8.3c5.7,0,10.5,2.4,14.4,7.1v-17.4c0-6.7-0.8-10.9-2.4-12.7s-3.9-2.7-6.8-2.7
			c-5.9,0-9.2,4.3-9.9,13l-16.7-4.7c1.3-7.6,4.3-13.5,9.2-17.7c4.9-4.2,10.8-6.3,17.9-6.3c7.7,0,14,2.5,19.1,7.4
			c5.1,5,7.6,11.8,7.6,20.5v58.5H726z M700.1,371.5v-22.2c-2.7-3.1-5.7-4.7-9-4.7c-6.8,0-10.3,5.4-10.3,16.3
			c0,10.6,3.4,15.8,10.3,15.8C694.3,376.8,697.3,375,700.1,371.5z"/>
		<path class="st12" d="M733.3,391.3v-16.7h7.5v-67.4h-7.9v-16.7h25.9v8.9h0.4c4.2-6.7,9.3-10.1,15.5-10.1c6.1,0,11,3.4,14.6,10.1
			c4.5-6.7,10.1-10.1,16.8-10.1c12.7,0,19,9.1,19,27.3v57.9h7.5v16.7h-25.5v-73.9c0-4.3-0.4-7.3-1.2-8.9c-0.8-1.7-2.3-2.5-4.7-2.5
			c-2.5,0-4.7,1-6.5,3c-1.9,2-2.8,3.3-2.8,3.9v61.7h7.5v16.7h-25.5v-73.9c0-4.2-0.4-7.1-1.3-8.8c-0.9-1.7-2.5-2.6-4.7-2.6
			c-3.2,0-6.2,2.3-9.1,6.9v61.7h7.5v16.7H733.3z"/>
		<path class="st12" d="M881.8,360.9l15.9,5.9c-2.2,8.6-5.6,15.3-10.2,20c-4.6,4.7-9.9,7-15.8,7c-9.6,0-16.6-4.1-21.1-12.4
			c-4.5-8.3-6.7-21.4-6.7-39.5c0-18.1,2.2-31.6,6.7-40.4c4.5-8.8,11.4-13.2,20.9-13.2c7.8,0,14.2,3.6,19.1,10.9
			c5,7.3,7.4,17.8,7.4,31.5V346h-35.2v4.3c0,9,0.7,15.8,2.1,20.2c1.4,4.4,3.8,6.6,7.1,6.6C877.6,377,880.9,371.7,881.8,360.9z
			 M862.9,331.6H880v-8.8c0-12.5-2.9-18.8-8.7-18.8c-3.3,0-5.5,1.9-6.7,5.6c-1.2,3.7-1.8,9.6-1.8,17.7V331.6z"/>
		<path class="st12" d="M1012,339.1v-17.5h31.1v13.1c0,18.7-2.9,33.2-8.6,43.5c-5.7,10.3-13.7,15.5-24,15.5c-5.1,0-9.7-1.4-14-4.3
			c-4.3-2.8-7.9-7.2-10.9-13.1c-3-5.9-5-13.1-6.1-21.7c-1.1-8.6-1.6-20.1-1.6-34.6c0-26.2,2.3-45.4,7-57.5
			c4.7-12.1,12-18.2,22.1-18.2c5.6,0,10.8,2.6,15.5,7.9v-5.5h17.5v46.9h-17.5c0-20.1-3.9-30.2-11.6-30.2c-2.9,0-5.1,1.3-6.6,4
			c-1.4,2.7-2.5,7.8-3.1,15.3c-0.6,7.6-1,19.1-1,34.7c0,16.9,0.3,29.3,0.9,37.1c0.6,7.8,1.6,13.1,3.1,15.9c1.5,2.8,3.8,4.2,6.9,4.2
			c4.5,0,7.5-3,8.8-9c1.3-6,2-14.9,2-26.6H1012z"/>
		<path class="st12" d="M1094.5,360.9l15.9,5.9c-2.2,8.6-5.6,15.3-10.2,20c-4.6,4.7-9.9,7-15.8,7c-9.6,0-16.6-4.1-21.1-12.4
			c-4.5-8.3-6.7-21.4-6.7-39.5c0-18.1,2.2-31.6,6.7-40.4c4.5-8.8,11.4-13.2,20.9-13.2c7.8,0,14.2,3.6,19.1,10.9
			c5,7.3,7.4,17.8,7.4,31.5V346h-35.2v4.3c0,9,0.7,15.8,2.1,20.2c1.4,4.4,3.8,6.6,7.1,6.6C1090.4,377,1093.6,371.7,1094.5,360.9z
			 M1075.6,331.6h17.2v-8.8c0-12.5-2.9-18.8-8.7-18.8c-3.3,0-5.5,1.9-6.7,5.6c-1.2,3.7-1.8,9.6-1.8,17.7V331.6z"/>
		<path class="st12" d="M1122.6,391.3v-16.7h7.5v-67.4h-7.9v-16.7h25.9v8.1h0.5c4.2-6.1,9.2-9.2,15.3-9.2c5.3,0,9.5,2.2,12.5,6.6
			c3,4.4,4.6,10.5,4.6,18.4v60.3h7.5v16.7h-25.5v-74.3c0-4.1-0.4-7-1.2-8.6c-0.8-1.6-2.3-2.4-4.5-2.4c-2.4,0-4.6,1.1-6.4,3.3
			c-1.8,2.2-2.7,3.5-2.7,4v61.3h7.5v16.7H1122.6z"/>
		<path class="st12" d="M1237.8,360.9l15.9,5.9c-2.2,8.6-5.6,15.3-10.2,20c-4.6,4.7-9.9,7-15.8,7c-9.6,0-16.6-4.1-21.1-12.4
			c-4.5-8.3-6.7-21.4-6.7-39.5c0-18.1,2.2-31.6,6.7-40.4c4.5-8.8,11.4-13.2,20.9-13.2c7.8,0,14.2,3.6,19.1,10.9
			c5,7.3,7.4,17.8,7.4,31.5V346h-35.2v4.3c0,9,0.7,15.8,2.1,20.2c1.4,4.4,3.8,6.6,7.1,6.6C1233.6,377,1236.9,371.7,1237.8,360.9z
			 M1218.9,331.6h17.2v-8.8c0-12.5-2.9-18.8-8.7-18.8c-3.3,0-5.5,1.9-6.7,5.6c-1.2,3.7-1.8,9.6-1.8,17.7V331.6z"/>
		<path class="st12" d="M1265.1,391.3v-16.7h9v-67.4h-9v-16.7h27.1v19.7h0.4c3.3-8.4,6.5-13.9,9.7-16.7c3.2-2.7,7.8-4.1,13.7-4.1
			v19.1c-15.9,0-23.8,9-23.8,27.1v39.1h10.2v16.7H1265.1z"/>
		<path class="st12" d="M1386.8,374.6v16.7h-25.9v-8.6h-0.4c-4,6.5-9.5,9.8-16.3,9.8c-6.3,0-11.5-2.9-15.5-8.6c-4-5.7-6-13.2-6-22.4
			c0-10.2,2.2-18.1,6.7-23.6c4.5-5.5,10.2-8.3,17.2-8.3c5.7,0,10.5,2.4,14.4,7.1v-17.4c0-6.7-0.8-10.9-2.4-12.7s-3.9-2.7-6.8-2.7
			c-5.9,0-9.2,4.3-9.9,13l-16.7-4.7c1.3-7.6,4.3-13.5,9.2-17.7c4.9-4.2,10.8-6.3,17.9-6.3c7.7,0,14,2.5,19.1,7.4
			c5.1,5,7.6,11.8,7.6,20.5v58.5H1386.8z M1360.9,371.5v-22.2c-2.7-3.1-5.7-4.7-9-4.7c-6.8,0-10.3,5.4-10.3,16.3
			c0,10.6,3.4,15.8,10.3,15.8C1355.2,376.8,1358.2,375,1360.9,371.5z"/>
		<path class="st12" d="M1419.6,307.2v59.2c0,6.7,2.7,10,8.1,10c2,0,4.4-0.6,7.3-1.7v15.7c-4,1.4-8.8,2.1-14.3,2.1
			c-6.7,0-11.5-2.1-14.5-6.2c-3-4.1-4.6-10.8-4.6-19.9v-59.2h-8.8v-16.7h8.8V274c6.1-3.9,12.2-8.3,18-13.1v29.6h12v16.7H1419.6z"/>
		<path class="st12" d="M1472.7,393.7c-9.3,0-16.2-4.3-20.5-13c-4.3-8.6-6.5-21.9-6.5-39.9c0-18.2,2.2-31.6,6.6-40
			c4.4-8.4,11.2-12.7,20.4-12.7c18.2,0,27.3,17.6,27.3,52.9C1500,376.2,1490.9,393.7,1472.7,393.7z M1472.7,304.9
			c-3.2,0-5.4,2.4-6.5,7.1c-1.1,4.7-1.6,14.3-1.6,28.8c0,10.6,0.3,18.4,0.8,23.5c0.5,5.1,1.3,8.5,2.4,10.2c1.1,1.7,2.7,2.5,4.9,2.5
			c3.7,0,6-2.8,6.9-8.3c0.9-5.5,1.4-14.8,1.4-27.9c0-14.4-0.6-24-1.7-28.8C1478.2,307.3,1476,304.9,1472.7,304.9z"/>
		<path class="st12" d="M1510.7,391.3v-16.7h9v-67.4h-9v-16.7h27.1v19.7h0.4c3.3-8.4,6.5-13.9,9.7-16.7c3.2-2.7,7.8-4.1,13.7-4.1
			v19.1c-15.9,0-23.8,9-23.8,27.1v39.1h10.2v16.7H1510.7z"/>
	</g>
	<g class="st11">
		<path class="st12" d="M636.2,511.4h-30.6l-6.1,19.7h-3.1l19.6-64.2h3l0.5-0.5l-0.2,0.5h2.9l-0.2-0.5l0.6,0.5h3l19.6,64.2h-3.1
			L636.2,511.4z M635.2,508.2l-0.2-0.6l0.1,0.1l-11.8-37.6h-4.8l-11.7,37.5l-0.2,0.6H635.2z"/>
		<path class="st12" d="M656.5,466.9h23.4c6.6,0,11.4,1.6,14.4,4.7c3,3.1,4.5,8.1,4.5,14.9c0,7.2-1.6,12.5-4.7,15.9
			c-3.1,3.5-7.9,5.2-14.3,5.2h-20v23.5h-3.4V466.9z M679.8,504.4c10.4,0,15.6-6,15.6-17.9c0-5.6-1.2-9.8-3.7-12.4s-6.4-4-11.9-4
			h-19.9v34.3H679.8z"/>
		<path class="st12" d="M711.1,466.9h3.4v64.2h-3.4V466.9z"/>
		<path class="st12" d="M751.4,466.9h3.4v64.2h-3.4V466.9z"/>
		<path class="st12" d="M770.2,485.3h3.1v3.7c3.1-1.6,6-2.8,8.6-3.5c2.6-0.7,5.3-1,8-1c4,0,7,0.7,9,2c2,1.3,3.5,3.6,4.3,6.9
			c0.8,3.2,1.2,7.9,1.2,14v23.7h-3.1v-23.7c0-5.3-0.3-9.3-0.9-12.1c-0.6-2.8-1.6-4.8-3.2-6c-1.6-1.2-3.8-1.8-6.8-1.8
			c-2.8,0-5.5,0.4-8.4,1.1s-5,1.5-6.5,2.3l-2.2,1.2v39.1h-3.2V485.3z"/>
		<path class="st12" d="M823.8,529.5c-2.6-1.6-4.4-4.1-5.5-7.6c-1.1-3.4-1.6-8.1-1.6-14c0-4.3,0.3-8,0.9-11.2
			c0.6-3.2,2.1-6.1,4.6-8.6c2.5-2.5,6.2-3.8,11.3-3.8c2,0,3.9,0.1,5.6,0.2c1.7,0.1,4.2,0.4,7.5,0.9l-0.3,2.8
			c-4.6-0.6-8.4-0.9-11.3-0.9c-3.9,0-6.8,0.6-9,1.9c-2.1,1.3-3.7,3.4-4.6,6.5c-0.9,3-1.4,7.3-1.4,12.8c0,5.1,0.4,9.2,1.3,12.1
			c0.9,2.9,2.4,5,4.6,6.4c2.2,1.3,5.4,2,9.6,2l10.9-0.9l0.2,2.9c-5.7,0.6-9.6,0.9-11.8,0.9C830.1,531.9,826.4,531.1,823.8,529.5z"/>
		<path class="st12" d="M858.3,464.2h3.2v66.9h-3.2V464.2z"/>
		<path class="st12" d="M881.5,530c-2-1.3-3.4-3.6-4.2-6.8c-0.8-3.2-1.2-7.9-1.2-14.1v-23.8h3.2v23.6c0,5.4,0.3,9.6,0.9,12.4
			c0.6,2.8,1.7,4.8,3.3,6c1.6,1.2,3.9,1.8,7.1,1.8c2.9,0,5.7-0.4,8.4-1.2c2.7-0.8,5.1-1.9,7.3-3.3v-39.1h3.3v45.8h-3.4v-3.7
			c-2.4,1.5-4.8,2.7-7.2,3.4c-2.4,0.7-5.2,1.1-8.4,1.1C886.5,531.9,883.5,531.3,881.5,530z"/>
		<path class="st12" d="M925.5,526.4c-2.4-3.7-3.6-9.5-3.6-17.3c0-5.9,0.7-10.7,2-14.3c1.3-3.6,3.4-6.2,6.4-7.9
			c2.9-1.7,6.9-2.5,11.8-2.5c1.8,0,3.8,0.1,5.9,0.3c2.1,0.2,3.9,0.5,5.4,0.9v-21.5h3.1v66.9h-3.1v-3.9c-4.8,3.2-10.1,4.8-15.9,4.8
			C931.9,531.9,927.9,530.1,925.5,526.4z M945.3,527.8c2.7-0.8,4.6-1.6,5.9-2.4l2.2-1.2v-35.7c-4.5-0.9-8.4-1.3-11.8-1.3
			c-4.1,0-7.3,0.7-9.7,2.2c-2.4,1.5-4,3.8-5,6.8c-1,3-1.5,7-1.5,12.1c0,6.8,0.9,12,2.8,15.4c1.8,3.5,5,5.2,9.5,5.2
			C940.1,529,942.6,528.6,945.3,527.8z"/>
		<path class="st12" d="M972.8,526.5c-2.8-3.6-4.1-9.3-4.1-17c0-8.6,1.5-14.9,4.4-18.9c3-4.1,7.7-6.1,14.1-6.1
			c5.9,0,10.2,1.8,13,5.3c2.8,3.5,4.2,9.1,4.2,16.7v3H972c-0.1,4.8,0.4,8.6,1.4,11.4c1,2.8,2.6,4.8,5,6.1c2.3,1.3,5.6,2,9.8,2
			c1.6,0,3.5-0.1,5.6-0.2c2.2-0.1,4.2-0.2,6.2-0.4l2.8-0.3l0.2,3c-7.5,0.5-12.7,0.7-15.8,0.7C980.3,531.9,975.6,530.1,972.8,526.5z
			 M1001.1,506.5c0-6.8-1.1-11.7-3.3-14.7c-2.2-3-5.7-4.5-10.5-4.5c-5.1,0-8.9,1.6-11.5,4.7c-2.6,3.1-3.9,7.9-3.9,14.5H1001.1z"/>
		<path class="st12" d="M1018.2,526.4c-2.4-3.7-3.6-9.5-3.6-17.3c0-5.9,0.7-10.7,2-14.3c1.3-3.6,3.4-6.2,6.4-7.9
			c2.9-1.7,6.9-2.5,11.8-2.5c1.8,0,3.8,0.1,5.9,0.3c2.1,0.2,3.9,0.5,5.4,0.9v-21.5h3.1v66.9h-3.1v-3.9c-4.8,3.2-10.1,4.8-15.9,4.8
			C1024.6,531.9,1020.6,530.1,1018.2,526.4z M1038,527.8c2.7-0.8,4.6-1.6,5.9-2.4l2.2-1.2v-35.7c-4.5-0.9-8.4-1.3-11.8-1.3
			c-4.1,0-7.3,0.7-9.7,2.2c-2.4,1.5-4,3.8-5,6.8c-1,3-1.5,7-1.5,12.1c0,6.8,0.9,12,2.8,15.4c1.8,3.5,5,5.2,9.5,5.2
			C1032.8,529,1035.3,528.6,1038,527.8z"/>
	</g>
</g>
<rect x="-21.3" y="-33.3" class="st13" width="1738.3" height="903.9"/>
<g>
	<path class="st12" d="M901.9,86.6c0.1,2,0.3,3.1,0.3,4.2c-0.2,4.1,1.5,9-0.7,12.2c-2.1,3-7.1,2.3-10.9,2.7
		c-2.7,0.3-3.3,1.7-3.5,4.1c-0.6,9.2-0.6,9.2,8.4,8.5c2.5-0.2,5.2-1.5,7.4,1.7c1.2,1.8,3.9,0.8,5.9,0.6c6.9-0.6,13.8-0.9,20.7,0.2
		c20.4,3.2,35.8,12.8,39.6,37.7c1.7,11.1,1.9,22.1-1.1,32.9c-5.2,18.7-17.4,31.6-35,39.4c-5,2.2-10.3,3.9-15.5,5.9
		c-3.8,1.5-4,2.5-3.7,8.3c0.1,3.4,2,4.1,4.8,4.5c7.8,1.2,15.3,3.1,22.7,5.8c2.7,1,4.4,2.5,3.8,5.6c-0.1,0.4,0,0.9,0,1.4
		c0.4,3.8-1.7,8.7,1.1,11.2c2.7,2.5,7.6,1.5,11.3,1c9.4-1.1,13.8,4,16.5,11.9c6.9,19.8,7.4,39.7,0.5,59.6
		c-4.1,11.9-12.5,20.3-24,25.3c-7.9,3.4-16.1,5.5-24.8,5.6c-6.2,0.1-12.4-0.2-18.7-0.4c-4.8-0.1-4.9-0.1-4.9,4.9
		c-0.1,7.6,0,15.2,0,22.8c0,6.2-0.1,6.3-6.2,5.3c-13.8-2.4-27.8-4.1-41.7-5.9c-6.3-0.8-6.3-0.9-6.3-6.9c0-7.1,0-14.3,0-21.4
		c-0.1-5.1-0.1-5.1-5.4-5.6c-4.6-0.4-9.2-0.6-13.8-1.2c-3.4-0.4-4.5,1-4.3,4.2c0.2,4.1,0,8.3,0.1,12.4c0.1,2.5-1,3.3-3.3,3
		c-0.9-0.1-1.8-0.2-2.8-0.2c-8.5-0.5-8.6-0.5-9.1,8c-0.1,2.8-1.1,3.5-3.7,3.4c-10.8-0.6-21.6-1.2-32.4-1.5c-3.1-0.1-3.9-1.4-3.8-4.2
		c0.1-6.7,0.1-13.4,0-20c0-7.8,1-7.7-8-7.7c-3.9,0-7.8-0.1-11.8,0c-3.1,0.1-4.5-0.7-4.6-4.2c-0.3-8.4-0.5-8.4-8.7-8.1
		c-1.2,0-2.3,0.2-3.4,0.2c-2,0.1-3-0.9-3-2.9c0-8.8,0-17.5,0-26.3c0-2.4,1.2-3.2,3.5-3.2c3.9,0.1,7.8-0.2,11.8,0.1
		c3.6,0.2,4.8-1.3,4.7-4.8c-0.2-12.7-0.1-25.3-0.1-38c0-1.6,0.1-3.2,0-4.8c-0.1-2.3,0.9-3.4,3.2-3.3c1.4,0.1,2.8,0,4.1,0
		c8.3,0,8.7-0.6,7.8-9.1c-0.2-2.3-1.1-3.4-3.4-3.3c-2.8,0.1-5.5,0.1-8.3,0.3c-2.7,0.2-3.8-1-3.6-3.7c0.1-1.4-0.1-2.8,0-4.1
		c0.2-3.7-1.5-8.1,0.7-10.8c2.3-2.8,6.9-1,10.5-1.1c3-0.1,4.3-1.1,4-4.1c-0.1-0.9,0-1.8,0-2.8c-0.1-5.2-0.1-5.2-5.6-5.3
		c-9.6-0.3-9.6-0.3-9.6-10.1c0-12-0.1-24,0.1-36c0.1-3.7-1.2-4.9-4.8-4.8c-3.7,0.2-7.4-0.2-11.1-0.1c-2.8,0-4.4-0.9-4.2-4
		c0.1-0.7,0-1.4,0-2.1c-0.2-9.9-0.2-9.9,9.7-10c2,0,4.2,0.8,5.8-1.2c0.7-0.9,0.3-9.5-0.4-10.1c-0.5-0.4-1.2-0.7-1.8-0.9
		c-0.9-0.2-1.8-0.1-2.8-0.2c-11.3-0.5-11.2-0.5-10.6-12.1c0.1-3.3,1.2-4.4,4.5-4.3c9.4,0.2,18.9,0,28.3,0c0.9,0,1.8-0.1,2.8,0
		c2.9,0.2,4.1-1,4-4c-0.1-7.4-0.1-14.7,0-22.1c0-5.6,0.1-5.7,5.8-5.8c16.1-0.3,32.2-1.3,48.3-2.7c4.9-0.4,4.9-0.3,5.1,4.8
		c0,0.5,0,0.9,0,1.4c-0.3,3.9,1.5,8.4-0.8,11.4c-2.3,3-6.9,1.3-10.5,1.5c-2.7,0.2-3.6,1.3-3.5,3.8c0.1,10.1-0.9,9.4,8.6,8.9
		c6.9-0.3,13.8-0.3,20.7-0.8c4.9-0.3,5-0.6,5-5.4c0.1-7.8,0.1-15.7,0-23.5c-0.1-3,0.7-4.7,4.1-5C868.5,91.9,884.9,89.2,901.9,86.6z
		 M817.9,299.2c0,8.5,0.1,17,0,25.6c0,3.1,0.7,4.7,4.2,4.7c17.5,0.1,34.9,2.4,52.5,1.6c5.8-0.3,11.5-1,17-2.7
		c7.3-2.2,11.9-7.3,13.2-14.6c3.8-21.4-3.2-35.3-24.7-40.6c-0.7-0.2-1.4-0.3-2-0.4c-18.7-3.6-37.6-3.1-56.4-3.5
		c-2.8-0.1-3.6,1.1-3.6,3.7C818,281.7,817.9,290.4,817.9,299.2z M817.9,197.9c0,8.5-0.1,17,0,25.6c0,4.7,0.2,5,4.5,4.7
		c13.1-0.8,26.2-0.8,39.3-2.4c24.6-3.1,36.7-17.3,34.8-40.9c-0.8-10.3-5.7-16-15.8-18.1c-1.6-0.3-3.2-0.4-4.8-0.6
		c-18.2-1.4-36.3,1.3-54.5,1.6c-3.3,0-3.6,1.9-3.6,4.5C818,180.9,817.9,189.4,817.9,197.9z M960.1,153.8
		C960.1,153.8,960.1,153.8,960.1,153.8c-0.1-1.8,0-3.7-0.1-5.5c0-1-0.6-1.9-1.6-1.8c-3.8,0.5-7.7,1-11.5,1.6
		c-1.3,0.2-1.6,1.2-1.8,2.5c-2,11,0.1,13,11.1,10.7c0.4-0.1,0.9-0.2,1.4-0.2c2.1-0.1,2.7-1.4,2.6-3.2
		C960.1,156.5,960.1,155.2,960.1,153.8z M960.1,191.6c0-1.6,0-3.2,0-4.8c0-1.3-0.6-2.3-2-2.3c-3.7,0-7.4,0-11,0.9
		c-3.3,0.9-2.1,3.8-2,5.8c0.1,2.8-1.8,6.9,1.5,8c3.8,1.2,8.2,0.6,12.2-0.6c1-0.3,1.2-1.3,1.2-2.2
		C960.1,194.8,960.1,193.2,960.1,191.6z M960.2,324.7c0-7.8,0-7.8-7.6-8.5c-1.4-0.1-2.7-0.2-4.1-0.3c-2.2-0.2-3.4,0.5-3.4,3
		c0.1,13-1.7,11.1,10.1,12.3c0.7,0.1,1.4,0.1,2,0.2c2.1,0.4,2.9-0.6,2.9-2.6C960.1,327.4,960.2,326,960.2,324.7z M778.3,146
		c0,0,0,0.1,0,0.1c-0.9,0-1.8,0.1-2.7,0.1c-5.9,0.3-5.9,0.3-5.9,6.3c0,6.5,0,6.5,6.2,6.3c2.3-0.1,4.5-0.3,6.8-0.4
		c1.7-0.1,2.4-1,2.4-2.6c0-2.5,0-5,0-7.5c-0.1-1.7-1-2.4-2.7-2.3C781,146.1,779.6,146,778.3,146z M772.6,318.2c1.4,0,2.5,0,3.7,0
		c4.8-0.1,4.8-0.2,4.9-5.1c0.2-7.6,0.2-7.6-7.5-7.3c-1.8,0.1-3.7,0.1-5.5,0.2c-1.2,0.1-2.4,0.5-2.5,1.8c0,3.2-1.1,6.7,0.6,9.4
		C767.7,319.4,770.7,317.9,772.6,318.2z M875.1,341c-6.8-0.3-6.9-0.3-6.9,5.5c0,7.8-0.9,6.7,7.7,7.6c1.6,0.2,3.2,0.2,4.8,0.3
		c1.6,0.1,2.5-0.5,2.8-2.2c1.9-8.3,0.1-10.8-8.2-11.2C875.1,341,874.8,341,875.1,341z M796.8,369c-7.7,0-7.5,0-7.5,7.5
		c0,3.3,0.6,5.2,4.5,4.9c2.7-0.2,5.5,0.1,8.2,0.1c1.9,0,2.7-1,3-3C806.2,370.3,805.2,369,796.8,369z M795.3,157.9c2.9,0,4.7,0,6.5,0
		c1.2,0,2.4-0.4,2.6-1.7c0.4-3.4,1.3-7-0.4-10c-1.2-2.2-4.2-0.6-6.4-0.7c-1.8-0.1-3.6,0.2-5.5,0.2c-1.2,0-2.6,0.3-2.7,1.5
		c-0.2,3.2-0.8,6.6,0.1,9.5C790.6,159.7,794.1,157.6,795.3,157.9z M790.4,207.1c8.9,0,9.3-0.3,8.3-9.2c0-0.2,0-0.5,0-0.7
		c-0.1-1.6-0.8-2.6-2.5-2.6c-1.4,0-2.7-0.1-4.1-0.1c-9.1,0.2-8.6-1.9-8.7,8.9c0,2.7,1,3.8,3.6,3.6
		C788.1,207,789.2,207.1,790.4,207.1z M773.8,289.8c-8.2,0-8.2,0-8.2,5.9c0,6.3,0,6.3,6.4,6.4c2.1,0,4.1,0,6.2,0
		c1.5,0,2.5-0.4,3-2.1C783,292.6,781.1,289.8,773.8,289.8z M769.2,178.9c-1.8,0-3.7,0-5.5,0c-1.3,0-1.9,0.7-2.3,2
		c-1.9,7.7,0.1,10.3,7.9,10.3c1.1,0,2.3-0.1,3.4,0c2.9,0.3,4-0.9,4.2-3.8C777.4,179.2,777.3,178.9,769.2,178.9z M838,351.6
		c1.8-0.4,4.9,1.5,5.8-1.2c1.1-3.2,1.2-7-0.1-10.1c-0.9-2-3.7-0.9-5.7-1.2c-2-0.3-4.1-0.4-6.2-0.4c-1.5,0-2.5,0.5-2.8,2.2
		c-1.7,8.1,0,10.4,8,10.6C837.2,351.6,837.5,351.6,838,351.6z M789.5,242.3c-8.1,0.1-7.8-1-7.8,6.2c0,6.3,0,6.3,6.4,6.3
		c1.4,0,2.8-0.1,4.1,0c3.4,0.3,4.9-0.8,4.9-4.5C797.1,242.4,797.3,242.4,789.5,242.3z M758.5,337.8c-0.7,0-1.4,0-2.1,0
		c-6.4,0.2-6.4,0.2-6.4,6.3c0,6.1,0,6.1,5.8,6.1c1.4,0,2.7,0,4.1,0c5.3-0.2,5.3-0.2,5.5-5.3c0-1.1-0.1-2.3,0-3.4
		c0.2-2.6-0.8-3.9-3.5-3.6C760.8,337.9,759.7,337.8,758.5,337.8z"/>
	<path class="st12" d="M1315.8,615.8c0-16.7,0-32.6,0-48.5c0-6,0.1-6,6.1-6.1c6.2,0,12.4,0.1,18.7-0.1c3.5-0.1,5.2,0.9,4.9,4.7
		c-0.2,2.7,0,5.5,0,8.3c0,28.8,0,57.6,0,86.4c0,1.8,0,3.7-0.1,5.5c0,1.7-0.9,2.5-2.6,2.5c-7.1,0-14.3,0-21.4,0
		c-3.1,0-4.2-2.6-5.6-4.5c-12.1-15.4-24.1-30.9-36.1-46.3c-1.4-1.8-2.9-3.5-4.5-5.5c-1.8,1.7-1.2,3.6-1.2,5.2c-0.1,15,0,30,0,44.9
		c0,6.1-0.1,6.2-5.9,6.2c-5.8,0-11.5,0-17.3,0c-6.5,0-6.5,0-6.5-6.3c0-14.5,0-29,0-43.6c0-17.1,0-34.1,0-51.2c0-6.3,0.1-6.3,6.5-6.3
		c4.8,0,9.7,0.3,14.5-0.1c4.9-0.4,8,1.3,11,5.2c11.2,14.9,22.8,29.5,34.3,44.2C1311.7,612.4,1312.6,614.6,1315.8,615.8z"/>
	<path class="st12" d="M382,612.8c1.8,0.9,3.6,1.9,5.4,2.8c18.8,9.1,17.4,35.8,2.6,45.5c-7.1,4.7-15.1,7.1-23.4,7.3
		c-19.1,0.3-38.2,0.1-57.3,0.3c-4.1,0-4.4-2-4.3-5.1c0.1-18.9,0-37.8,0-56.6c0-13.4,0-26.7,0-40.1c0-5.4,0.1-5.5,5.2-5.6
		c16.8-0.1,33.6-0.1,50.4,0c5.8,0,11.5,0.5,17,2.5c9.6,3.6,16.9,9.5,18.4,20.4c1.5,11-1.9,20-11.5,26.1
		C383.5,610.9,382.5,611.5,382,612.8z M348.2,644.7c0,0,0-0.1,0-0.1c3.9,0,7.8,0.1,11.7,0c1.1,0,2.3-0.4,3.4-0.7
		c5.4-1.5,7.8-4.4,7.8-9.1c0-4.7-2.6-7.9-7.9-8.9c-8.6-1.7-17.4-0.7-26.1-0.8c-1.5,0-2.9,0.6-2.8,2.3c0.1,5.5-1.9,11.7,0.9,16.2
		c2,3.2,7.7,0.7,11.8,1.2C347.3,644.7,347.7,644.7,348.2,644.7z M347.1,603.9c3.7-0.1,8.4,0.5,12.8-0.8c4.4-1.2,6.8-4.3,6.9-8.4
		c0-3.9-1.9-6.5-6.2-8.2c-1.1-0.4-2.2-0.8-3.3-0.9c-6.7-0.1-13.3-0.2-20-0.3c-2.3,0-3.3,1-3.3,3.3c0.1,3.9,0.1,7.8,0,11.7
		c-0.1,2.8,1.5,3.5,3.9,3.4C340.7,603.9,343.5,603.9,347.1,603.9z"/>
	<path class="st12" d="M555.8,559.3c27.5,0,49.3,15.9,56.2,40.4c9,32.1-11.8,64.8-44.6,70.2c-18.7,3.1-36-0.5-50.3-13.3
		c-16.6-14.8-22.2-33.8-16.8-55.1c5.5-21.8,20.3-35,41.9-40.6C546.8,559.7,551.6,559,555.8,559.3z M556.1,643.8
		c15.3,0.1,27.3-12.1,27.4-27.8c0.1-16.5-11.8-29.6-27.2-29.8c-15.2-0.2-27.4,12.6-27.4,28.7C528.9,631,540.8,643.7,556.1,643.8z"/>
	<path class="st12" d="M956,615c0-16.1,0-32.3,0-48.4c0-5.2,0.1-5.3,5.4-5.3c6.2-0.1,12.4-0.1,18.7,0c5.5,0.1,5.6,0.1,5.6,5.9
		c0,9.4,0,18.9,0,28.3c0,5.7,0.1,5.8,5.7,5.8c9.2,0.1,18.4-0.1,27.7,0.1c3.6,0.1,4.8-1.3,4.7-4.9c-0.2-9.9-0.1-19.8,0-29.7
		c0-5.4,0.1-5.5,5.2-5.5c6.9-0.1,13.8,0,20.7,0c2.6,0,3.9,0.9,3.8,3.6c-0.1,1.1,0,2.3,0,3.5c0,30,0,59.9,0,89.9
		c0,10.4,0,10.4-10.1,10.4c-5.1,0-10.1-0.1-15.2,0c-3.3,0.1-4.5-1-4.4-4.3c0.2-9.9,0.1-19.8,0-29.7c0-6.4-0.1-6.4-6.4-6.5
		c-9,0-18,0.1-27-0.1c-3.6-0.1-4.8,1.2-4.8,4.8c0.1,10.1,0.1,20.3-0.1,30.4c-0.1,5.2-0.2,5.3-5.4,5.3c-6.2,0.1-12.4,0.1-18.7,0
		c-5.4-0.1-5.5-0.1-5.5-5.9C956,646.8,956,630.9,956,615z"/>
	<path class="st12" d="M837.3,668.6c-9.1,0-17.4-0.1-25.7,0.1c-3.1,0.1-4.5-1.7-5.9-3.9c-6.8-10.1-13.7-20.3-20.5-30.4
		c-1-1.5-1.8-3.2-4.1-4.7c-2.9,3.2-5.9,6.5-9,9.8c-1.6,1.7-1.3,3.8-1.3,5.9c0,6.2-0.1,12.5,0,18.7c0.1,3.1-0.7,4.7-4.2,4.6
		c-7.1-0.2-14.3-0.2-21.4,0c-3.4,0.1-4.6-1.3-4.3-4.5c0-0.2,0-0.5,0-0.7c0-32.5,0-65-0.1-97.5c0-3.6,1.2-4.9,4.8-4.8
		c6.7,0.2,13.4,0,20.1,0.1c4.9,0.1,5,0.1,5.1,5c0.1,9.9,0,19.8,0,29.7c0,2,0,4,0,6.5c3.3-1.1,4.4-3.2,5.8-4.9
		c9.2-10.7,18.3-21.3,27.3-32.2c2.6-3.2,5.4-4.4,9.4-4.3c9.4,0.2,18.7,0.1,28,0.1c0.6,2.6-1.2,3.4-2.2,4.5
		c-12,13.4-24.2,26.6-36.2,40c-5.1,5.7-5.3,4.3-0.8,10.7c10.7,15.3,21.4,30.6,32,45.9C835.2,664,836.7,665.5,837.3,668.6z"/>
	<path class="st12" d="M1183.8,668.6c-10.5,0-19.7-0.1-28.9,0.1c-2.6,0-3.7-1.2-4.5-3.3c-1.6-4.1-3.4-8.1-4.9-12.2
		c-1-2.8-2.6-3.9-5.6-3.8c-11.1,0.2-22.1,0.1-33.2,0c-2.7,0-4.2,1-5.2,3.5c-1.5,4.1-3.2,8.1-4.8,12.2c-0.9,2.4-2.1,3.7-5,3.7
		c-9-0.2-17.9-0.1-26.9-0.1c-0.5-2.9,0.9-4.8,1.8-6.9c13.4-31.8,27-63.6,40.2-95.5c1.8-4.4,4-6,8.7-5.6c5.7,0.4,11.5,0.3,17.3,0
		c4.1-0.2,6,1.2,7.6,5c12.2,29.3,24.7,58.6,37,87.9C1179.4,658.1,1181.3,662.7,1183.8,668.6z M1135.1,625.8
		c-3.9-9.9-7.4-18.7-10.9-27.5c-0.5,0-1,0-1.5-0.1c-3.6,9-7.1,18-11,27.6C1119.9,625.8,1126.9,625.8,1135.1,625.8z"/>
	<path class="st12" d="M683.2,559.2c16.5,0.1,30.7,5.5,41.5,18.3c3.2,3.8,3.2,3.9-0.5,6.9c-4.7,3.7-9.5,7.3-14.2,11
		c-4.4,3.4-4.4,3.8-8.3-0.4c-4.7-5-10.5-8.1-17.6-8.4c-11.4-0.6-20.8,5.2-25.1,15.8c-3.2,8-3.3,16.2-0.3,24.3
		c6,16.1,24.5,21.9,38.6,12.1c0.9-0.7,1.8-1.5,2.7-2.1c2.4-1.6,3.5-5.7,6.8-5.2c2.5,0.4,4.7,2.8,6.9,4.4c4,2.8,7.8,5.7,11.9,8.3
		c2.5,1.7,2.7,3.1,0.8,5.5c-8,9.7-17.7,16.8-30.2,19.4c-19.6,4.1-37.7,1-52.9-12.7c-16.9-15.3-22.2-40-13.8-62.2
		c7.8-20.6,27.4-34.3,50.2-34.9C680.9,559.2,682,559.2,683.2,559.2z"/>
	<path class="st12" d="M896.8,559.2c17.5,0,31.5,5.5,42.4,17.9c3.8,4.3,3.7,4.3-0.8,7.9c-4.9,3.8-9.9,7.5-14.7,11.5
		c-2.5,2.1-4.2,1.9-6.3-0.5c-4.3-4.7-9.4-8.1-15.9-9c-13.3-2-24.2,4.7-28.4,17.5c-2.3,6.8-2.3,13.6-0.2,20.4
		c5.8,18.6,26.6,24.6,41.6,12.2c2.3-1.9,3.8-5.6,6.7-5.6c3.1,0,5.4,3.1,8.1,4.9c3.6,2.5,7.1,5.2,10.7,7.6c2.8,1.8,2.9,3.4,0.8,6
		c-11.9,14.7-27.5,21.1-46.1,20.8c-28.1-0.6-49.8-20.1-53.6-48.1c-3.8-27.9,12.2-53.1,38.6-61C885.7,559.8,891.8,559,896.8,559.2z"
		/>
	<path class="st12" d="M414,614.7c0-16.1,0-32.2,0-48.3c0-4.9,0.1-5,5-5c6.9-0.1,13.8,0.1,20.7-0.1c3.2-0.1,4.5,1,4.4,4.4
		c-0.2,8.5-0.1,17-0.1,25.6c0,15.4,0,30.8,0,46.3c0,4.8,0.1,4.9,5,5c13.6,0.1,27.2,0,40.7,0c5.6,0,5.7,0.1,5.7,5.7
		c0.1,5.1,0.1,10.1,0,15.2c-0.1,5.2-0.1,5.3-5.4,5.3c-21.4,0-42.8,0.1-64.2,0c-3.8,0-8.6,1.7-11.2-1.1c-2.4-2.5-0.8-7-0.8-10.7
		C413.9,642.7,414,628.7,414,614.7z"/>
	<path class="st12" d="M1194.4,614.6c0-15.9,0-31.8,0-47.6c0-5.6,0.1-5.6,5.8-5.7c6.2-0.1,12.4-0.1,18.6,0c5.6,0.1,5.6,0.1,5.6,5.8
		c0,25.5,0,51.1,0,76.6c0,6.9-0.1,13.8,0.1,20.7c0.1,3.3-1.2,4.4-4.4,4.3c-6.9-0.2-13.8,0-20.7-0.1c-4.8-0.1-5-0.1-5-5
		c-0.1-15,0-29.9,0-44.9C1194.4,617.4,1194.4,616,1194.4,614.6z"/>
	<path class="st12" d="M940.9,59.9c0,1.7,0,2.8,0,4c0.1,12.3,0.1,12.3-12,14.2c-0.9,0.1-1.8,0.2-2.3,0.2c-1.2-0.9-1.2-1.8-1.2-2.7
		C925,61.4,925.3,61.1,940.9,59.9z"/>
	<path class="st12" d="M925.4,418.1c5,1.1,8.7,1.9,12.5,2.6c2.2,0.4,3.2,1.6,3,3.7c0,0.2,0,0.5,0,0.7c-0.4,15.1,2.6,12.9-12.5,9.8
		c-2.2-0.5-3.1-1.5-3.1-3.7C925.4,427.2,925.4,423.1,925.4,418.1z"/>
	<path class="st12" d="M906.7,81.7c-0.9-1.4-0.6-2.8-0.7-4.1c-0.2-11.7,0.7-12.6,12.3-13.4c2.5-0.2,3.1,0.7,3.3,3
		c1.1,12,0.7,12.5-11,14.5C909.3,81.9,907.9,82.3,906.7,81.7z"/>
	<path class="st12" d="M921.5,432.9c-1.5,0-2.2,0.1-2.8,0c-14.3-2.6-14.4-2.7-12-17.7c4.1-0.3,8,1.2,12,1.7c1.9,0.3,2.8,1.2,2.8,3.2
		C921.5,424.3,921.5,428.6,921.5,432.9z"/>
	<path class="st12" d="M738.1,96.3c-9.2-0.1-8.3,1.1-8.3-8.7c0-5.8,0.1-5.9,6.2-5.8c11.6,0.2,9.8-1.9,9.9,9.6c0.1,4.7-0.1,4.7-5,4.9
		C740,96.3,739,96.3,738.1,96.3z"/>
	<path class="st12" d="M757.4,415.3c-7.8-0.2-7.8-0.2-7.8-7.9c0-1.1,0.1-2.3,0-3.4c-0.2-2.7,0.9-3.8,3.6-3.6c0.7,0.1,1.4,0,2.1,0
		c11.5,0.7,10-2.2,10.3,10.3c0.1,3.6-1.1,5.1-4.7,4.6C759.7,415.2,758.5,415.3,757.4,415.3z"/>
	<path class="st12" d="M844,83.7c0,1.4-0.1,2.8,0,4.1c0.1,2.6-1,3.9-3.6,3.9c-0.9,0-1.8,0.1-2.8,0.2c-10.1,1-9.9,1-9.8-9.2
		c0-3.9,1.3-5.5,5.1-5.3c1.1,0,2.3-0.3,3.4-0.4C844,76.1,844,76.1,844,83.7z"/>
	<path class="st12" d="M848.6,406.8c1.5-1,3.1-0.2,4.7,0c10.8,1.2,12,2.8,10.3,13.6c-0.3,1.7-0.9,2.5-2.6,2.3
		c-0.2,0-0.5-0.1-0.7-0.1C847.9,422.4,846.5,420.5,848.6,406.8z"/>
	<path class="st12" d="M824.5,86.6c0,1.4,0,2.8,0,4.1c0,1.7-0.8,2.5-2.5,2.6c-3.4,0.3-6.9,0.6-10.3,0.9c-1.8,0.2-3.2-0.4-3.2-2.5
		c0-3.4-0.8-7.2,0.3-10.3c1.5-4,6-2,9.1-2.5C825.4,77.8,824.5,78.1,824.5,86.6z"/>
	<path class="st12" d="M797.6,80.4c7.5-0.4,7.5-1.8,7.5,7c0,0.7,0,1.4,0,2.1c-0.1,5.1-0.1,5.1-5.4,5.5c-0.2,0-0.5,0-0.7,0
		c-11.4,0.6-10.1,3-10.2-10.3c0-3,1.1-4.2,4-4.1C794.4,80.7,796,80.5,797.6,80.4z"/>
	<path class="st12" d="M824.6,411.7c-0.1,7.5,0.8,6.9-6.6,6.3c-11.3-0.9-9.3,1-9.6-12.2c0-2.4,0.9-3.4,3.2-3.2
		c1.6,0.2,3.2,0.2,4.8,0.3C824.6,403.6,824.6,403.5,824.6,411.7z"/>
	<path class="st12" d="M847.9,83.9c0-2.2,0-3.5,0-4.9c-0.1-2.2,0.8-3.5,3.1-3.6c0.9,0,1.8-0.3,2.7-0.2c3.1,0.2,7.1-2.9,8.9-0.1
		c2.1,3.3,0.7,8,0.7,12c0,1.4-1,1.9-2.2,2.1c-1.8,0.3-3.6,0.7-5.4,0.8C846.5,90.9,848.1,91.1,847.9,83.9z"/>
	<path class="st12" d="M959.2,93.4c0.6,1,0.8,1.2,0.8,1.4c0,15.5,3.5,13.2-15,15.8c-0.8-4-0.2-8-0.4-12c-0.1-2.2,1.4-2.5,3.1-2.8
		C951.6,95,955.4,94.1,959.2,93.4z"/>
	<path class="st12" d="M959.7,75.5c1.1,3.8,0.4,7.6,0.5,11.5c0.1,1.9-0.8,3-2.7,3.3c-4,0.8-8,1.6-11.7,2.3c-0.5-0.8-0.9-1.2-1-1.6
		C943.5,78.1,945.1,76.4,959.7,75.5z"/>
	<path class="st12" d="M945.2,386.6c4.4-0.2,8.3,1.3,12.4,1.8c1.8,0.2,2.7,1.4,2.6,3.3c-0.1,3.6,0,7.3,0,11.3
		c-4.8,0.4-8.8-1.4-13-1.9c-1.5-0.2-2.4-1.2-2.4-2.8C944.9,394.5,944.4,390.6,945.2,386.6z"/>
	<path class="st12" d="M940.9,104.7c0,1.6,0,3.2,0,4.8c0,1-0.4,2-1.3,2.2c-4.2,0.8-8.5,1.5-12.8,2.1c-0.4,0.1-1-0.8-1.3-1.3
		c-0.2-0.3-0.2-0.9-0.2-1.3c0.3-3.6-1.6-8.1,0.8-10.6c3-3,8.1-2.1,12.3-3.1c1.7-0.4,2.4,0.8,2.5,2.4
		C941,101.5,940.9,103.1,940.9,104.7C940.9,104.7,940.9,104.7,940.9,104.7z"/>
	<path class="st12" d="M805.1,409.7c0,0.9-0.1,1.8,0,2.7c0.3,3.1-0.8,4.8-4.2,4.3c-0.7-0.1-1.4-0.1-2.1-0.1
		c-11.7-0.7-9.7,0.8-10-10.8c-0.1-3.2,0.9-4.7,4.3-4.3c1.4,0.2,2.7,0.1,4.1,0.1C805.1,402.1,805.1,402.1,805.1,409.7z"/>
	<path class="st12" d="M777.5,415.6c-9.3-0.3-8,0.4-8.1-8.2c-0.1-6.6,0-6.6,6.9-6.3c10.2,0.6,8.7-1.6,8.8,9.5c0,4.9-0.1,4.9-4.9,5
		C779.4,415.6,778.4,415.6,777.5,415.6z"/>
	<path class="st12" d="M887.7,85c-0.3-0.4-0.6-0.6-0.6-0.7c0-16.4-3.8-14,14.7-16.2c0.8,4,0.2,8.1,0.3,12.1c0.1,1.8-0.5,3-2.6,3.3
		C895.6,84,891.6,85.4,887.7,85z"/>
	<path class="st12" d="M925.4,383.4c1.5,0,2.1-0.1,2.8,0c15.5,2.5,12.7-0.2,12.4,15.8c-4.5,0.5-8.8-1.1-13.2-1.8
		c-1.8-0.3-2-1.7-2-3.1C925.4,390.8,925.4,387.4,925.4,383.4z"/>
	<path class="st12" d="M745.4,194.8c1.9,12.8,1.4,13.3-11.2,12.8c-3.2-0.1-4.8-1-4.4-4.4c0.1-0.7,0-1.4,0-2.1c0-6.8,0-6.8,6.8-6.8
		C739.5,194.3,742.5,193.8,745.4,194.8z"/>
	<path class="st12" d="M882.9,426c-4.4-0.7-7.8-1.3-11.2-1.6c-3-0.3-4.2-1.4-4.3-4.7c-0.3-11.4-0.5-11.2,10.8-9.8
		c3.8,0.5,5.1,2,4.8,5.7C882.7,418.7,882.9,421.9,882.9,426z"/>
	<path class="st12" d="M920.9,413.4c-2,0.6-3.7-0.3-5.5-0.6c-11.3-2.1-9.1,0.2-9.5-11.3c-0.1-3.4,1-4.4,4.4-3.9
		c11.7,1.6,12.2,2.1,11.2,14C921.5,412.3,921.1,412.9,920.9,413.4z"/>
	<path class="st12" d="M906.7,380.6c1.8-0.8,3.6,0,5.4,0.2c11.9,1.6,9.1,0.7,9.6,11.1c0.2,3.3-0.9,4.4-4.3,4
		c-11.7-1.6-12.1-1.8-11.1-13.9C906.2,381.5,906.5,381.1,906.7,380.6z"/>
	<path class="st12" d="M738.4,318.5c-9.1,0-9.6-0.7-8.6-9.7c0.2-2.3,1.2-3.3,3.4-3.2c1.4,0,2.8,0,4.1-0.1c9.2-0.4,9.1-0.4,8.8,8.7
		c-0.1,3.2-0.9,4.8-4.3,4.4C740.7,318.4,739.5,318.5,738.4,318.5z"/>
	<path class="st12" d="M757.3,381.9c-7.8-0.2-7.8-0.2-7.7-8c0.1-5.1,0.1-5.1,5.4-5.2c1.8,0,3.7-0.1,5.5,0c4.8,0.2,4.8,0.2,5,5.2
		C765.8,382.2,765.8,382.2,757.3,381.9z"/>
	<path class="st12" d="M738.1,381.9c-8.7,0.3-8.6,0.1-8.4-8.6c0.1-3.7,1.6-4.9,5-4.7c1.1,0.1,2.3,0,3.4,0c8.3,0.1,8-1.5,7.9,8.2
		C746,381.7,745.9,381.7,738.1,381.9z"/>
	<path class="st12" d="M906.9,99.1c-0.2-0.4-0.7-0.7-0.7-1.1c-1.3-12.5,0.7-14.3,14.8-14.2c0.1,0.2,0.4,0.4,0.4,0.5
		C921.1,98.6,925.4,97.3,906.9,99.1z"/>
	<path class="st12" d="M756.9,112.4c-7.6-0.1-7.3,1.4-7.3-7.4c0-5.3,0.1-5.3,5.1-5.7c1.4-0.1,2.7-0.1,4.1-0.1c6.7,0,6.7,0,6.6,6.8
		c0,6.2,0,6.2-6.5,6.4C758.3,112.4,757.6,112.4,756.9,112.4z"/>
	<path class="st12" d="M906.5,116.2c-1-15.9-2.5-12.5,11.6-15c0.9-0.1,1.8,0,2.6,0c0.3,0.5,0.7,0.9,0.7,1.3
		C922.1,116.1,921.1,117,906.5,116.2z"/>
	<path class="st12" d="M671.9,141.7c-1.1-3.5-0.4-6.8-0.6-9.9c-0.1-2,0.7-3,2.8-2.9c1.6,0.1,3.2,0.1,4.8,0.2
		c8.7,0.5,9.9,2.2,8.5,10.9c-0.3,2-1.2,2.8-3.2,2.7C680,142.2,675.9,142,671.9,141.7z"/>
	<path class="st12" d="M837.1,401.9c-0.2,0-0.5,0-0.7-0.1c-2.6-0.6-6.1,0.8-7.7-1.6c-1.9-2.9-0.7-6.6-0.7-10c0-1.7,1.2-2.3,2.8-2.2
		c3.6,0.3,7.3,0.7,10.9,1.1c1.7,0.2,2.2,1.3,2.2,2.8c0,1.1,0,2.3,0,3.4C844.1,404,843.8,402.5,837.1,401.9z"/>
	<path class="st12" d="M698.4,305.9c8.4-0.1,8.4-0.1,8.2,7.3c-0.1,5.5-0.1,5.5-5.9,5.7c-0.7,0-1.4,0-2.1,0c-9.4,0.2-7.8,0.7-8.1-8
		c-0.1-3.3,0.6-5.4,4.5-4.9C696.5,306.2,697.9,305.9,698.4,305.9z"/>
	<path class="st12" d="M834.3,372.1c0.2,0,0.5,0,0.7,0c9.6,0.7,10.2,1.5,9.1,11c-0.3,2.5-1.4,3.1-3.6,2.8c-2.9-0.3-5.9-0.7-8.8-0.8
		c-2.5-0.1-3.8-1.1-3.7-3.7c0.1-1.1,0-2.3,0-3.4C828,371.7,828,371.7,834.3,372.1z"/>
	<path class="st12" d="M679.1,303.6c-1.4,0-2.8-0.1-4.1,0c-3.2,0.4-3.9-1.2-3.8-4c0.3-9.8-1.4-8.9,8.4-9.4c8.9-0.4,7.6,0.6,7.6,7.1
		c0,5.9-0.1,5.9-6.1,6.1c-0.7,0-1.4,0-2.1,0C679.1,303.4,679.1,303.5,679.1,303.6z"/>
	<path class="st12" d="M676.8,384.1c-5.4,0.3-5.4,0.3-5.5-4.8c0-0.5,0-0.9,0-1.4c0-6.6,0-6.6,6.7-7c0.5,0,0.9-0.1,1.4-0.1
		c8.1-0.2,8.1-2.4,8,7.8c-0.1,4.7-0.1,4.7-5,5.1C680.4,383.9,678.6,384,676.8,384.1z"/>
	<path class="st12" d="M699.2,286.9c-10.2,0.5-8.4,0.3-8.5-7.5c-0.1-5.1,0.1-5.1,5.3-5.3c1.1,0,2.3-0.1,3.4-0.1c7.3,0,7.3,0,7.2,7
		c-0.1,5.8-0.1,5.8-6.2,5.9C699.8,286.9,699.1,286.9,699.2,286.9z"/>
	<path class="st12" d="M671.2,177.5c4.3,0,7.8-0.1,11.2,0c4.7,0.2,4.9,0.2,4.9,5.2c0,9.3,0.7,7.9-8.2,7.8c-0.9,0-1.8-0.1-2.7-0.1
		c-5-0.3-5-0.3-5.1-5.5C671.2,182.6,671.2,180.3,671.2,177.5z"/>
	<path class="st12" d="M698.3,207c-8.7-0.3-7.5,0.8-7.5-8c0-5.2,0.1-5.2,5.4-5.1c1.4,0,2.8,0.1,4.1,0.1c6.4,0.2,6.4,0.2,6.4,6.5
		C706.7,207.1,706.7,207.1,698.3,207z"/>
	<path class="st12" d="M698.8,143.2c-8.1-0.4-9.9-3-8.1-11.2c0.3-1.3,0.9-2.1,2.2-2.1c1.8,0,3.7,0,5.5,0.3c2.6,0.4,6.1-1.3,7.6,1.4
		c1.5,2.8,0.5,6.3,0.5,9.5c0,1.4-1,2-2.2,2.1C702.5,143.2,700.7,143.2,698.8,143.2z"/>
	<path class="st12" d="M678.8,287.2c-9.2,0.7-7.5-0.5-7.5-7.2c-0.1-5.6,0.1-5.6,5.6-5.7c0.9,0,1.8,0,2.7,0c9.2-0.6,7.6,0,7.7,7.6
		c0,5.2-0.1,5.2-5.3,5.4C680.8,287.2,679.7,287.2,678.8,287.2z"/>
	<path class="st12" d="M698.9,338c8-0.2,7.8-1.8,7.7,7.5c0,5-0.1,5-5.5,5.3c-0.9,0-1.8,0-2.8,0.1c-8.9,0.6-7.6,0.6-7.7-7.5
		c0-5.1,0.1-5.1,5.4-5.4C697.1,338,698,338,698.9,338z"/>
	<path class="st12" d="M680.8,354.5c1.4,0,2.7,0,4.1,0c1.3,0,2.3,0.6,2.3,2c0.1,3,0.1,6,0,8.9c0,1.4-1,1.9-2.3,2.1
		c-1.8,0.2-3.6,0.3-5.5,0.5c-8.4,0.6-8.4,0.6-8.2-7.6c0.1-5.2,0.1-5.2,5.4-5.5c1.4-0.1,2.7,0,4.1,0
		C680.8,354.7,680.8,354.6,680.8,354.5z"/>
	<path class="st12" d="M699.7,369.8c1.1-0.1,2.3-0.1,3.4-0.1c0.7,0,1.6-0.1,2,0.2c3,2.5,0.9,6,1.4,9c0.3,2-0.3,3.7-2.8,3.7
		c-1.6,0-3.2,0.2-4.8,0.3c-9.1,0.6-8.2,1.2-8.2-7.6c0-5,0.1-5,4.9-5.3c1.4-0.1,2.8,0,4.1,0C699.7,369.9,699.7,369.9,699.7,369.8z"/>
	<path class="st12" d="M717.8,223.1c-7.8,0-7.8,0-7.6-8c0.1-4.9,0.1-4.9,5-5c1.8,0,3.7,0,5.5,0.1c5.5,0.3,5.6,0.3,5.6,5.8
		C726.4,224.3,726.6,223,717.8,223.1z"/>
	<path class="st12" d="M698.6,223c-1.1,0-2.3-0.1-3.4,0c-3.2,0.3-4.4-0.9-4.5-4.2c-0.3-9.1-0.5-9.1,8.8-9c1.6,0,3.2,0.1,4.8,0.3
		c1.2,0.1,2.3,0.7,2.3,2c0.1,3,0,6-0.1,8.9c-0.1,1.4-1.1,1.9-2.4,1.9C702.3,223,700.4,223,698.6,223C698.6,223,698.6,223,698.6,223z
		"/>
	<path class="st12" d="M718.1,143.7c-7.9-0.3-9.5-2.5-7.9-10.6c0.3-1.6,1.1-2.4,2.7-2.5c2.8,0,5.5,0,8.3,0.1
		c4.9,0.2,4.9,0.2,5.1,5.1C726.6,144,726.6,144,718.1,143.7z"/>
	<path class="st12" d="M679.4,222.9c-8.6,0-8.4,0-8.3-8.8c0-3.6,1.3-4.9,4.8-4.6c2.3,0.2,4.6,0.3,6.8,0.1c3.8-0.3,4.6,1.6,4.6,4.9
		C687.2,224.4,687.5,222.8,679.4,222.9z"/>
	<path class="st12" d="M698.9,145.9c2.2,0.5,5.4-1.1,6.9,1.2c2,2.9,0.7,6.7,0.7,10.1c0,1.8-1.4,2.1-2.9,2.1
		c-2.5-0.1-5.1-0.1-7.6-0.2c-5.2-0.3-5.2-0.3-5.2-5.6C690.7,144.7,690.3,145.8,698.9,145.9z"/>
	<path class="st12" d="M697.8,335.1c-1.1,0-2.3-0.1-3.4,0c-2.6,0.2-3.7-1-3.7-3.6c0.1-10.9-0.9-9.4,8.8-9.7c1.1,0,2.3,0,3.4-0.1
		c2.7-0.2,3.5,1.1,3.7,3.7C707.5,334.4,707.1,334.9,697.8,335.1z"/>
	<path class="st12" d="M679.7,174.6c-8.4-0.3-10.6-3.3-8.4-11.4c0.3-1.3,1-2,2.3-2.1c1.6,0,3.2,0,4.8,0.1c9.8,0.5,8.7-0.9,9,9
		c0.1,3.7-1.3,5-4.8,4.5C681.6,174.5,680.7,174.6,679.7,174.6z"/>
	<path class="st12" d="M717.8,175.4c-2-0.5-5.6,1.5-7-1.4c-1.4-2.8-0.5-6.3-0.4-9.4c0.1-1.7,1.4-2.2,2.9-2.2c2.7,0,5.5,0,8.2,0.1
		c4.7,0.2,4.8,0.2,4.9,5.1C726.4,176.5,726.9,175.9,717.8,175.4z"/>
	<path class="st12" d="M718,382.3c-1.4,0-2.7-0.1-4.1,0c-2.7,0.2-3.5-1.1-3.7-3.6c-0.7-9-0.6-9.2,8.2-9.5c8.3-0.2,8.3-0.2,8,7.9
		c-0.2,4.8-0.2,4.8-5,5c-1.1,0.1-2.3,0-3.4,0C718,382.2,718,382.2,718,382.3z"/>
	<path class="st12" d="M718.3,191.3c-8,0-10-2.8-8.1-10.8c0.4-1.7,1.5-2.2,2.9-2.2c2.5,0,5,0.1,7.5,0.2c5.6,0.2,5.7,0.2,5.7,5.5
		C726.4,192.9,726.6,191.2,718.3,191.3z"/>
	<path class="st12" d="M717.6,318.6c-7.3,0-7.4,1.5-7.4-7.5c0-5,0.1-5.1,5.3-5.3c1.6-0.1,3.2-0.2,4.8-0.2c5.9,0,5.9,0,6,6.1
		c0,6.8,0,6.8-6.7,6.9C719,318.6,718.3,318.6,717.6,318.6z"/>
	<path class="st12" d="M718.7,353.3c8.1,0.1,7.7-1.3,7.6,7.7c0,4.8-0.1,4.8-4.8,5.1c-2.3,0.1-4.6,0-6.8,0.3
		c-3.9,0.6-4.7-1.3-4.6-4.7C710.4,352.2,709.5,353.5,718.7,353.3z"/>
	<path class="st12" d="M718.7,385c1.4,0,2.7,0.1,4.1,0c2.6-0.2,3.4,1.1,3.6,3.6c0.6,8.9,0.6,9-8.2,9.4c-8.3,0.4-8.3,0.4-8-7.9
		c0.2-4.8,0.2-4.8,5-5c1.1-0.1,2.3,0,3.4,0C718.7,385.1,718.7,385,718.7,385z"/>
	<path class="st12" d="M718.5,337.3c2.4,0.3,5.8-1.2,7.1,0.9c1.8,2.9,0.7,6.7,0.5,10.1c-0.1,1.4-1.3,1.8-2.5,1.9
		c-1.6,0.1-3.2,0.1-4.8,0.1c-9,0.1-8.7,0.1-8.8-8.2c0-3.8,1.5-4.9,4.8-4.6C716.1,337.6,717.3,337.4,718.5,337.3z"/>
	<path class="st12" d="M718.6,274c1-0.1,2.1-0.2,3.3-0.2c4.4,0,4.4,0,4.5,4.8c0,0.2,0,0.5,0,0.7c-0.1,8.6,0.5,7.5-8.1,7.5
		c-8.4,0-7.9,1.7-8.1-8.2c-0.1-3.8,1.3-5,4.8-4.6C716.1,274.1,717.2,274,718.6,274z"/>
	<path class="st12" d="M737.9,270.8c-8.6,0-9.1-0.6-8.1-9.6c0.2-2.2,1-3.4,3.3-3.4c2.8,0,5.5,0.1,8.3-0.1c3.8-0.4,4.7,1.4,4.6,4.9
		C745.7,271.8,746.9,270.7,737.9,270.8z"/>
	<path class="st12" d="M718.7,257.9c2.1,0.4,5.4-1.3,6.8,1c1.9,2.9,0.8,6.7,0.6,10.1c-0.1,1.8-1.8,1.8-3.2,1.8c-3,0-6-0.1-9,0.1
		c-3.1,0.1-3.9-1.3-3.9-4.2C710.3,256.3,709.8,258.1,718.7,257.9z"/>
	<path class="st12" d="M737.7,241.9c8.9,0.2,8.2-1.8,8.3,9.2c0,3.1-1.3,4-4.1,3.9c-2.5-0.1-5-0.2-7.5,0c-3.8,0.4-4.6-1.5-4.6-4.8
		C729.6,241.9,729.4,241.9,737.7,241.9z"/>
	<path class="st12" d="M697.9,255.1c-0.9,0-1.8-0.1-2.8,0c-3.2,0.3-4.5-0.9-4.5-4.3c0.2-10.4-0.9-8.8,8.7-8.9c7.3-0.1,7.3,0,7.3,6.9
		c-0.1,6.1-0.1,6.1-6,6.2C699.7,255.1,698.8,255.1,697.9,255.1z"/>
	<path class="st12" d="M737.5,239c-1.4,0-2.8-0.1-4.1,0c-2.6,0.1-3.5-1-3.7-3.7c-0.6-9.2-0.7-9.3,8.5-9.3c1.4,0,2.8,0.1,4.1,0
		c2.7-0.2,3.6,1.1,3.6,3.7C745.9,241,746.6,238.8,737.5,239z"/>
	<path class="st12" d="M718,239c-2.2-0.3-5.4,1.2-6.9-0.9c-2-2.8-0.7-6.6-0.7-9.9c0-1.7,1.3-2.2,2.9-2.2c3,0,5.9,0.1,8.9-0.1
		c3.3-0.2,4.4,1.2,4.3,4.4C726.2,240.4,727.1,238.9,718,239z"/>
	<path class="st12" d="M737.7,115.2c8.2,0,10.1,2.6,8.2,10.8c-0.4,1.8-1.5,2.1-3,2.1c-3,0-6-0.2-9,0c-3.5,0.2-4.3-1.4-4.3-4.5
		C729.9,113.5,729.5,115.4,737.7,115.2z"/>
	<path class="st12" d="M738.3,289.6c2.1,0.4,5.3-1.2,6.8,0.9c2,2.9,0.7,6.6,0.7,10c0,1.4-1.2,1.8-2.4,1.8c-2.3,0-4.6,0.1-6.9,0.1
		c-6.8,0-6.8,0-6.7-6.7C729.8,289.6,729.8,289.6,738.3,289.6z"/>
	<path class="st12" d="M738.3,178.6c2.2,0.3,5.7-1.2,7,0.9c1.8,2.9,0.7,6.7,0.5,10.1c-0.1,1.5-1.3,1.7-2.5,1.8
		c-1.6,0.1-3.2,0.1-4.8,0.1c-8.9-0.2-8.5,1.8-8.7-8.3c-0.1-3.8,1.4-4.9,4.9-4.5C735.7,178.7,736.9,178.6,738.3,178.6z"/>
	<path class="st12" d="M699.3,289.9c7.6-0.2,7.3-1.3,7.1,7.3c-0.2,5.5-0.2,5.5-5.8,5.8c-0.7,0-1.4,0-2,0c-7.9-0.2-7.8,1.8-7.8-7.5
		C690.8,290,690.9,290,699.3,289.9z"/>
	<path class="st12" d="M757.8,82c8.4,0.1,7.5-1.1,7.6,7.7c0,1.1-0.1,2.3,0,3.4c0.1,1.9-0.8,3-2.8,3c-0.9,0-1.8,0-2.7,0
		c-10.7,0.2-11-0.2-10-10.9c0.2-2.2,0.8-3.4,3.2-3.3C754.6,82,756.2,82,757.8,82z"/>
	<path class="st12" d="M757.3,127.9c-8.3,0.2-7.3,1-7.5-7.9c-0.1-3.5,0.9-5.2,4.6-4.8c1.8,0.2,3.7,0,5.5,0c5.4,0.1,5.5,0.1,5.5,5.2
		C765.3,129.3,765.9,127.7,757.3,127.9z"/>
	<path class="st12" d="M758,397.5c-8.4,0-9.6-1.6-8.2-10.1c0.3-1.6,0.9-2.5,2.6-2.5c2.3,0,4.6,0,6.9,0c6,0.1,6,0.1,6.1,6
		C765.4,399.1,765.2,397.5,758,397.5z"/>
</g>
</svg>
