<?xml version="1.0" encoding="utf-8"?>
<!-- Generator: Adobe Illustrator 22.0.1, SVG Export Plug-In . SVG Version: 6.00 Build 0)  -->
<svg version="1.1" id="Layer_1" xmlns="http://www.w3.org/2000/svg" xmlns:xlink="http://www.w3.org/1999/xlink" x="0px" y="0px"
	 viewBox="0 0 576.5 161.4" style="enable-background:new 0 0 576.5 161.4;" xml:space="preserve">
<style type="text/css">
	.st0{fill:#DA1F26;}
	.st1{fill:#FFFFFF;}
</style>
<rect x="-53.4" y="-279.4" class="st0" width="678.7" height="678.7"/>
<g>
	<rect x="16.4" y="19.7" class="st1" width="223.6" height="122.1"/>
	<g>
		<path class="st0" d="M133.6,66.5L126,88.9l-4-0.5l1.4-6.8c-10,2.2-23.2,4.1-39.5,5.6c-1.2,5.5-3.5,11.8-6.8,18.9
			c-1.5,3-3.7,6-6.7,9.1c-3,3.1-6.6,5.6-10.7,7.7c-4.1,2.1-8.4,3.1-12.9,3.1c-6.6,0-12.1-1.8-16.5-5.5c-4.4-3.6-6.8-8.4-7.2-14.4
			c1.6-6.3,4-12.4,7-18.3c3-5.9,6.8-12.1,11.5-18.6L46,79.6c-4.6,4.1-8.8,9-12.7,14.8c2.6,3.4,5.6,5.9,8.8,7.5
			c3.2,1.6,7.2,2.4,12,2.4c4.1,0,8-0.8,11.6-2.4c3.6-1.6,6.7-3.9,9-7l-12.2-6.3l7.9-19.7c21.4-0.9,41.8-2.6,61.3-5.1L133.6,66.5z
			 M102.3,35.6c2.3,0,4.6,0.3,7,0.8c2.4,0.5,4.6,1.4,6.5,2.5l-8.3,12.4c-3.6-1.8-7.1-2.7-10.4-2.7C96,48.6,95,48.7,94,49l-5.2,5.9
			l-3-1.6l13.5-17.5C99.9,35.6,100.9,35.6,102.3,35.6z"/>
		<path class="st0" d="M166.9,104.4l-5.9,16l-2.9,2.5l-13.1,1.4c-0.1-8.9-0.5-19.8-1.3-32.7c-0.8-12.9-1.6-24.4-2.5-34.4
			c2.6-3.1,5.4-6.1,8.6-8.9c3.2-2.8,6.1-4.9,8.6-6.3c0.5,1.8,0.7,4.7,0.7,8.6c0.1,7-0.4,16.4-1.4,28.2c-1,11.8-1.9,20-2.7,24.5
			l11.1-1.2L166.9,104.4z"/>
		<path class="st0" d="M223.2,42.6c3.9,3.8,6.9,8.5,8.8,14.2c2,5.7,2.9,11.4,2.9,17.2c0,6.7-0.8,12.4-2.4,17.2
			c-1.6,4.8-3.5,9.2-5.8,13.1c-2,2-5,4.1-9,6.2c-4,2.1-8.2,3.9-12.6,5.3c-4.4,1.4-8.2,2.1-11.4,2.1c-2.6,0-5.3-0.5-8.1-1.4
			c-7.1,2.9-16.3,5-27.6,6.2l7.9-20.8l7.7-0.8c-0.2-1.1-0.3-2-0.3-2.6c1.3-8.3,4.1-15.9,8.6-22.7c4.5-6.8,9.7-11.5,15.7-13.9
			c3,1.1,5.6,3.6,7.9,7.5c2.2,3.9,3.4,8.2,3.4,12.7c0,4.6-1.2,9.4-3.7,14.4c7.4-1.1,13.3-2.4,17.6-4c-0.2-6.7-1.6-13.2-4.4-19.4
			c-2.7-6.2-6.2-11.2-10.5-15c-4.3-3.8-8.7-5.7-13.3-5.7c-2.5,0-5.1,0.7-7.8,2.1c-2.7,1.4-6,3.9-9.8,7.5l-2.3-1.8
			c2.9-4.6,6.4-8.6,10.5-12.2c4.1-3.6,8.2-6.3,12.4-8.2c4.2-1.9,8-2.9,11.3-2.9C214.5,37,219.3,38.9,223.2,42.6z M182.2,85.8
			c0.3,2.5,1.5,4.8,3.8,7c2.3,2.2,5,3.6,8.2,4.2c0.5-1.8,0.8-3.5,0.8-5.1c0-2.9-0.8-5.5-2.4-7.8c-1.6-2.3-3.5-3.7-5.7-4.2
			C184.3,82.1,182.7,84.1,182.2,85.8z"/>
	</g>
	<g>
		<path class="st1" d="M284.7,118.6c0,4.3-1.8,8-5.4,11.1c-3.6,3.1-8,4.6-13.1,4.6h-21.5v-2.8h3.8V29.2h-3.8v-2.8h21.5
			c5.1,0,9.5,1.5,13.1,4.6c3.6,3.1,5.4,6.8,5.4,11.1V63c0,6.7-3.6,11.5-10.8,14.3c7.2,3,10.8,7.8,10.8,14.4V118.6z M272.3,69.7V35.3
			c0-1.7-0.6-3.2-1.8-4.4c-1.2-1.2-2.7-1.8-4.4-1.8h-5.3v46.7h5.3c1.7,0,3.2-0.6,4.4-1.8C271.7,72.9,272.3,71.4,272.3,69.7z
			 M272.3,125.4V84.9c0-1.7-0.6-3.2-1.8-4.4c-1.2-1.2-2.7-1.8-4.4-1.8h-5.3v52.8h5.3c1.7,0,3.2-0.6,4.4-1.8
			C271.7,128.5,272.3,127.1,272.3,125.4z"/>
		<path class="st1" d="M331.9,134.3H316v-2.2c-2.3,2-5.2,2.9-8.9,2.9c-8.8,0-13.2-4.7-13.2-14.2v-64h-3.8v-2.8H306v72
			c0,3.9,1.5,5.9,4.5,5.9c1.9,0,3.7-0.9,5.5-2.6V56.9h-3.8v-2.8H328v77.4h3.8V134.3z"/>
		<path class="st1" d="M370,119.3c0,4.5-1.5,8.2-4.4,11.1c-3.2,3.1-7.2,4.6-12.2,4.6c-5,0-9-1.5-12.2-4.6c-3.2-3-4.7-6.8-4.7-11.2
			v-9.6h12v16.3c0,4.1,1.6,6.2,4.9,6.2c3.1,0,4.7-2.1,4.7-6.2v-11.8c0-5-1.4-8.8-4.2-11.6l-12.6-12.5c-3.2-3.1-4.7-7.7-4.7-13.7
			v-7.4c0-4.5,1.5-8.2,4.6-11.2c3.1-3,7.1-4.5,12-4.5c5,0,9,1.5,12,4.5c3.1,3,4.6,6.8,4.6,11.2v9.6h-12V62.4c0-4.1-1.6-6.2-4.7-6.2
			c-3.1,0-4.6,2.1-4.6,6.2V73c0,5,1.4,8.8,4.1,11.5L365.2,97c3.2,3.2,4.7,7.8,4.7,13.8V119.3z"/>
		<path class="st1" d="M394.9,134.3h-19.7v-2.8h3.8V56.9h-3.8v-2.8h15.9v77.4h3.8V134.3z M391.1,44.9h-12V26.4h12V44.9z"/>
		<path class="st1" d="M439.9,134.3h-15.8v-72c0-3.9-1.5-5.9-4.5-5.9c-2,0-3.8,0.9-5.6,2.6v72.4h3.9v2.8h-19.8v-2.8h3.9V56.9h-3.9
			v-2.8H414v2.2c2.3-2,5.2-2.9,9-2.9c8.7,0,13.1,4.7,13.1,14.2v64h3.8V134.3z"/>
		<path class="st1" d="M479.4,119.3c0,4.4-1.6,8.1-4.9,11.2c-3.3,3-7.4,4.6-12.5,4.6c-5,0-9.2-1.5-12.5-4.6c-3.3-3-5-6.8-5-11.2
			V69.1c0-4.4,1.7-8.1,5-11.2c3.3-3,7.5-4.6,12.5-4.6c5,0,9.2,1.5,12.5,4.6c3.3,3,4.9,6.8,4.9,11.2v26.3h-22.8v30.6
			c0,4.1,1.8,6.2,5.4,6.2c3.6,0,5.3-2.1,5.3-6.2v-16.3h12V119.3z M467.4,92.7V62.4c0-4.1-1.8-6.2-5.3-6.2c-3.6,0-5.4,2.1-5.4,6.2
			v30.3H467.4z"/>
		<path class="st1" d="M520,119.3c0,4.5-1.5,8.2-4.4,11.1c-3.2,3.1-7.2,4.6-12.2,4.6c-5,0-9-1.5-12.2-4.6c-3.2-3-4.7-6.8-4.7-11.2
			v-9.6h12v16.3c0,4.1,1.6,6.2,4.9,6.2c3.1,0,4.7-2.1,4.7-6.2v-11.8c0-5-1.4-8.8-4.2-11.6l-12.6-12.5c-3.2-3.1-4.7-7.7-4.7-13.7
			v-7.4c0-4.5,1.5-8.2,4.6-11.2c3.1-3,7.1-4.5,12-4.5c5,0,9,1.5,12,4.5c3.1,3,4.6,6.8,4.6,11.2v9.6h-12V62.4c0-4.1-1.6-6.2-4.7-6.2
			c-3.1,0-4.6,2.1-4.6,6.2V73c0,5,1.4,8.8,4.1,11.5L515.3,97c3.2,3.2,4.7,7.8,4.7,13.8V119.3z"/>
		<path class="st1" d="M560.1,119.3c0,4.5-1.5,8.2-4.4,11.1c-3.2,3.1-7.2,4.6-12.2,4.6c-5,0-9-1.5-12.2-4.6c-3.2-3-4.7-6.8-4.7-11.2
			v-9.6h12v16.3c0,4.1,1.6,6.2,4.9,6.2c3.1,0,4.7-2.1,4.7-6.2v-11.8c0-5-1.4-8.8-4.2-11.6l-12.6-12.5c-3.2-3.1-4.7-7.7-4.7-13.7
			v-7.4c0-4.5,1.5-8.2,4.6-11.2c3.1-3,7.1-4.5,12-4.5c5,0,9,1.5,12,4.5c3.1,3,4.6,6.8,4.6,11.2v9.6h-12V62.4c0-4.1-1.6-6.2-4.7-6.2
			c-3.1,0-4.6,2.1-4.6,6.2V73c0,5,1.4,8.8,4.1,11.5L555.3,97c3.2,3.2,4.7,7.8,4.7,13.8V119.3z"/>
	</g>
</g>
</svg>
