<?xml version="1.0" encoding="utf-8"?>
<!-- Generator: Adobe Illustrator 22.0.1, SVG Export Plug-In . SVG Version: 6.00 Build 0)  -->
<svg version="1.1" id="Layer_1" xmlns="http://www.w3.org/2000/svg" xmlns:xlink="http://www.w3.org/1999/xlink" x="0px" y="0px"
	 viewBox="0 0 1650.4 496.9" style="enable-background:new 0 0 1650.4 496.9;" xml:space="preserve">
<style type="text/css">
	.st0{display:none;}
	.st1{display:none;fill:#79C79C;}
	.st2{fill:#FFD700;}
	.st3{clip-path:url(#SVGID_6_);fill:#121212;}
	.st4{clip-path:url(#SVGID_8_);fill:#121212;}
	.st5{fill:#121212;}
	.st6{fill:none;stroke:#121212;stroke-width:4;stroke-miterlimit:10;}
</style>
<path class="st0" d="M285.9,348.5L285.9,348.5c-8,9.1-21.8,9.9-30.9,1.9l-99.8-88.2c-9.1-8-9.9-21.8-1.9-30.9l0,0
	c8-9.1,21.8-9.9,30.9-1.9l99.8,88.2C293.1,325.7,293.9,339.5,285.9,348.5z"/>
<rect x="262" y="316.4" class="st1" width="901.7" height="144.6"/>
<rect x="-120.7" y="-108.5" class="st2" width="1864.7" height="831.2"/>
<g>
	<g>
		<g>
			<g>
				<g>
					<defs>
						<rect id="SVGID_1_" x="597.1" y="48.5" width="225.6" height="262.1"/>
					</defs>
					<clipPath id="SVGID_2_">
						<use xlink:href="#SVGID_1_"  style="overflow:visible;"/>
					</clipPath>
				</g>
			</g>
			<g>
				<g>
					<defs>
						<rect id="SVGID_3_" x="840.4" y="48.5" width="225.6" height="262.1"/>
					</defs>
					<clipPath id="SVGID_4_">
						<use xlink:href="#SVGID_3_"  style="overflow:visible;"/>
					</clipPath>
				</g>
			</g>
		</g>
		<g>
			<g>
				<g>
					<defs>
						<rect id="SVGID_5_" x="597.1" y="48.5" width="225.6" height="262.1"/>
					</defs>
					<clipPath id="SVGID_6_">
						<use xlink:href="#SVGID_5_"  style="overflow:visible;"/>
					</clipPath>
					<path class="st3" d="M789.1,178l-9.3-9.4c30.5-30.6,30.5-80.3,0-110.8l9.4-9.4C824.8,84.2,824.8,142.3,789.1,178L789.1,178z
						 M763.6,152.5l9.4,9.4c26.8-26.8,26.8-70.4,0-97.2l-9.4,9.4C785.2,95.7,785.2,130.9,763.6,152.5L763.6,152.5z M756.3,145.2
						c17.6-17.6,17.6-46.2,0-63.8l-9.3,9.3c12.4,12.5,12.4,32.7,0,45.1L756.3,145.2z M633.2,57.8l-9.4-9.4
						c-35.7,35.7-35.7,93.8,0,129.5l9.3-9.4C602.7,138.1,602.7,88.4,633.2,57.8L633.2,57.8z M640.1,161.9l9.4-9.4
						c-21.6-21.6-21.6-56.8,0-78.5l-9.4-9.4C613.3,91.5,613.3,135.1,640.1,161.9L640.1,161.9z M656.7,145.2l9.4-9.4
						c-12.4-12.4-12.4-32.7,0-45.1l-9.4-9.3C639.1,98.9,639.1,127.6,656.7,145.2L656.7,145.2z M760.3,277.4h-32.2L708.8,138
						c9-1.2,16-8.8,16-18c0-10.1-8.2-18.3-18.3-18.3c-10.1,0-18.3,8.2-18.3,18.3c0,9.3,7,16.9,16,18l-19.3,139.4h-32.2
						c-7.6,0-13.7,6.1-13.7,13.7s6.1,13.8,13.7,13.8h107.6c7.6,0,13.7-6.2,13.7-13.8S767.9,277.4,760.3,277.4L760.3,277.4z
						 M760.3,277.4"/>
				</g>
			</g>
			<g>
				<g>
					<defs>
						<rect id="SVGID_7_" x="840.4" y="48.5" width="225.6" height="262.1"/>
					</defs>
					<clipPath id="SVGID_8_">
						<use xlink:href="#SVGID_7_"  style="overflow:visible;"/>
					</clipPath>
					<path class="st4" d="M1032.4,178l-9.3-9.4c30.5-30.6,30.5-80.3,0-110.8l9.4-9.4C1068.1,84.2,1068.1,142.3,1032.4,178
						L1032.4,178z M1006.9,152.5l9.4,9.4c26.8-26.8,26.8-70.4,0-97.2l-9.4,9.4C1028.5,95.7,1028.5,130.9,1006.9,152.5L1006.9,152.5z
						 M999.6,145.2c17.6-17.6,17.6-46.2,0-63.8l-9.3,9.3c12.4,12.5,12.4,32.7,0,45.1L999.6,145.2z M876.5,57.8l-9.4-9.4
						c-35.7,35.7-35.7,93.8,0,129.5l9.3-9.4C846,138.1,846,88.4,876.5,57.8L876.5,57.8z M883.3,161.9l9.4-9.4
						c-21.6-21.6-21.6-56.8,0-78.5l-9.4-9.4C856.6,91.5,856.6,135.1,883.3,161.9L883.3,161.9z M900,145.2l9.4-9.4
						c-12.4-12.4-12.4-32.7,0-45.1l-9.4-9.3C882.4,98.9,882.4,127.6,900,145.2L900,145.2z M1003.6,277.4h-32.2L952.1,138
						c9-1.2,16-8.8,16-18c0-10.1-8.2-18.3-18.3-18.3c-10.1,0-18.3,8.2-18.3,18.3c0,9.3,7,16.9,16,18l-19.3,139.4H896
						c-7.6,0-13.7,6.1-13.7,13.7s6.1,13.8,13.7,13.8h107.6c7.6,0,13.7-6.2,13.7-13.8S1011.2,277.4,1003.6,277.4L1003.6,277.4z
						 M1003.6,277.4"/>
				</g>
			</g>
			<path class="st5" d="M389.7,59c0-2.4,1.2-3.7,3.7-3.7h35.8c2.4,0,3.7,1.2,3.7,3.7v97.9c0,1.5,0.7,2.2,2.2,2.2h94.6
				c1.5,0,2.2-0.7,2.2-2.2V59c0-2.4,1.2-3.7,3.7-3.7h35.8c2.4,0,3.7,1.2,3.7,3.7v241.1c0,2.4-1.2,3.7-3.7,3.7h-35.8
				c-2.4,0-3.7-1.2-3.7-3.7V200c0-1.5-0.7-2.2-2.2-2.2H435c-1.5,0-2.2,0.7-2.2,2.2v100.1c0,2.4-1.2,3.7-3.7,3.7h-35.8
				c-2.4,0-3.7-1.2-3.7-3.7V59z"/>
			<path class="st5" d="M1085.7,303.8c-2.4,0-3.7-1.2-3.7-3.7V59c0-2.4,1.2-3.7,3.7-3.7h93.2c11.9,0,23,1.9,33.1,5.7
				c10.1,3.8,18.8,9,25.9,15.7c7.2,6.7,12.8,14.8,16.8,24.3c4,9.5,6,20,6,31.4c0,11.7-2,22.3-6,31.8s-9.6,17.6-16.8,24.3
				c-7.2,6.7-15.8,11.9-25.9,15.7c-10.1,3.8-21.1,5.7-33.1,5.7h-51.5c-1.5,0-2.2,0.7-2.2,2.2v88.1c0,2.4-1.2,3.7-3.7,3.7H1085.7z
				 M1176.3,170.8c12.9,0,23-3.5,30.3-10.4c7.3-6.9,11-16.3,11-28c0-11.4-3.7-20.7-11-27.8c-7.3-7.1-17.4-10.6-30.3-10.6h-49
				c-1.5,0-2.2,0.7-2.2,2.2v72.3c0,1.5,0.7,2.2,2.2,2.2H1176.3z"/>
		</g>
		<g>
			<g>
				<g>
					<defs>
						<rect id="SVGID_9_" x="597.1" y="48.5" width="225.6" height="262.1"/>
					</defs>
					<clipPath id="SVGID_10_">
						<use xlink:href="#SVGID_9_"  style="overflow:visible;"/>
					</clipPath>
				</g>
			</g>
			<g>
				<g>
					<defs>
						<rect id="SVGID_11_" x="840.4" y="48.5" width="225.6" height="262.1"/>
					</defs>
					<clipPath id="SVGID_12_">
						<use xlink:href="#SVGID_11_"  style="overflow:visible;"/>
					</clipPath>
				</g>
			</g>
		</g>
	</g>
	<g>
		<g>
			<path class="st5" d="M661.1,448.7c-4.6-3.3-7.7-8.1-9.3-14.3c-1.7-6.2-2.5-14.3-2.5-24.4c0-9.4,0.8-17.2,2.3-23.3
				c1.5-6.1,4.6-11,9.1-14.5c4.6-3.5,11.1-5.3,19.8-5.3c6,0,13.1,0.8,21.3,2.3l-0.2,4.2c-8.5-1.6-15.8-2.4-22.1-2.4
				c-7.1,0-12.4,1.3-16,3.9c-3.6,2.6-6,6.9-7.4,12.8c-1.3,5.9-2,14.4-2,25.6c0,8.5,0.7,15.2,2,20.3s4,9,7.9,11.8
				c3.9,2.8,9.8,4.2,17.5,4.2c5.4,0,12.1-0.8,20.1-2.5l0.4,4.2c-8.5,1.6-15.6,2.4-21.3,2.4C672.1,453.6,665.6,452,661.1,448.7z"/>
			<path class="st5" d="M763.7,448.4v4.1h-45.6v-84.6h4.5v80.5H763.7z"/>
			<path class="st5" d="M776.7,367.9h4.5v84.6h-4.5V367.9z"/>
			<path class="st5" d="M807.6,407.3h37.7v4h-37.7v37.2h45v4h-49.4v-84.6h49.4v4h-45V407.3z"/>
			<path class="st5" d="M927.9,367.9v84.6h-10l-41.2-80.6h-2.3v80.6h-4.5v-84.6h10.3l40.9,80.6h2.8v-80.6H927.9z"/>
			<path class="st5" d="M969,372.1h-28.3v-4.1h60.4v4.1h-28v80.5H969V372.1z"/>
		</g>
	</g>
	<path class="st6" d="M1099.1,486.1H551.3c-14.3,0-26-11.6-26-26v-99.8c0-14.3,11.6-26,26-26h547.9c14.3,0,26,11.6,26,26v99.8
		C1125.1,474.5,1113.5,486.1,1099.1,486.1z"/>
</g>
</svg>
