<?xml version="1.0" encoding="utf-8"?>
<!-- Generator: Adobe Illustrator 16.0.0, SVG Export Plug-In . SVG Version: 6.00 Build 0)  -->
<!DOCTYPE svg PUBLIC "-//W3C//DTD SVG 1.1//EN" "http://www.w3.org/Graphics/SVG/1.1/DTD/svg11.dtd">
<svg version="1.1" id="Layer_1" xmlns="http://www.w3.org/2000/svg" xmlns:xlink="http://www.w3.org/1999/xlink" x="0px" y="0px"
	 width="674px" height="379.864px" viewBox="-35.5 263.636 674 379.864" enable-background="new -35.5 263.636 674 379.864"
	 xml:space="preserve">
<path display="none" d="M106.017,433.101L106.017,433.101c-2.966,3.374-8.083,3.671-11.458,0.704l-37.008-32.706
	c-3.375-2.967-3.671-8.084-0.705-11.458l0,0c2.966-3.375,8.084-3.671,11.458-0.705l37.008,32.707
	C108.687,424.646,108.984,429.763,106.017,433.101z"/>
<rect x="97.155" y="421.197" display="none" fill="#79C79C" width="334.368" height="53.62"/>
<rect x="-44.758" y="263.636" fill="#FFD700" width="691.467" height="403.864"/>
<g>
	<g>
		<g>
			<g>
				<g>
					<g>
						<defs>
							<rect id="SVGID_1_" x="188.661" y="294.728" width="111.626" height="129.688"/>
						</defs>
						<clipPath id="SVGID_2_">
							<use xlink:href="#SVGID_1_"  overflow="visible"/>
						</clipPath>
						<path clip-path="url(#SVGID_2_)" fill="#121212" d="M283.662,358.805l-4.601-4.651c15.091-15.141,15.091-39.732,0-54.824
							l4.651-4.651C301.326,312.392,301.326,341.14,283.662,358.805L283.662,358.805z M271.044,346.187l4.651,4.651
							c13.262-13.261,13.262-34.834,0-48.095l-4.651,4.651C281.732,318.083,281.732,335.499,271.044,346.187L271.044,346.187z
							 M267.433,342.575c8.708-8.708,8.708-22.859,0-31.568l-4.601,4.602c6.135,6.185,6.135,16.18,0,22.315L267.433,342.575z
							 M206.523,299.329l-4.652-4.651c-17.664,17.665-17.664,46.413,0,64.077l4.603-4.651
							C191.431,339.062,191.431,314.47,206.523,299.329L206.523,299.329z M209.937,350.838l4.651-4.651
							c-10.688-10.688-10.688-28.104,0-38.842l-4.651-4.651C196.676,316.004,196.676,337.578,209.937,350.838L209.937,350.838z
							 M218.15,342.575l4.651-4.651c-6.135-6.136-6.135-16.18,0-22.315l-4.651-4.602
							C209.442,319.666,209.442,333.866,218.15,342.575L218.15,342.575z M269.412,407.987h-15.933l-9.55-68.975
							c4.454-0.593,7.917-4.354,7.917-8.906c0-4.998-4.058-9.055-9.055-9.055s-9.055,4.058-9.055,9.055
							c0,4.602,3.464,8.362,7.917,8.906l-9.55,68.975h-15.933c-3.76,0-6.778,3.019-6.778,6.779s3.018,6.828,6.778,6.828h53.241
							c3.76,0,6.778-3.067,6.778-6.828S273.172,407.987,269.412,407.987L269.412,407.987z"/>
					</g>
				</g>
			</g>
			<g>
				<g>
					<g>
						<defs>
							<rect id="SVGID_3_" x="309.046" y="294.728" width="111.626" height="129.688"/>
						</defs>
						<clipPath id="SVGID_4_">
							<use xlink:href="#SVGID_3_"  overflow="visible"/>
						</clipPath>
						<path clip-path="url(#SVGID_4_)" fill="#121212" d="M404.048,358.805l-4.603-4.651c15.092-15.141,15.092-39.732,0-54.824
							l4.652-4.651C421.712,312.392,421.712,341.14,404.048,358.805L404.048,358.805z M391.43,346.187l4.651,4.651
							c13.261-13.261,13.261-34.834,0-48.095l-4.651,4.651C402.118,318.083,402.118,335.499,391.43,346.187L391.43,346.187z
							 M387.818,342.575c8.708-8.708,8.708-22.859,0-31.568l-4.602,4.602c6.135,6.185,6.135,16.18,0,22.315L387.818,342.575z
							 M326.908,299.329l-4.651-4.651c-17.665,17.665-17.665,46.413,0,64.077l4.603-4.651
							C311.816,339.062,311.816,314.47,326.908,299.329L326.908,299.329z M330.273,350.838l4.65-4.651
							c-10.688-10.688-10.688-28.104,0-38.842l-4.65-4.651C317.062,316.004,317.062,337.578,330.273,350.838L330.273,350.838z
							 M338.536,342.575l4.65-4.651c-6.135-6.136-6.135-16.18,0-22.315l-4.65-4.602
							C329.827,319.666,329.827,333.866,338.536,342.575L338.536,342.575z M389.797,407.987h-15.933l-9.55-68.975
							c4.454-0.593,7.917-4.354,7.917-8.906c0-4.998-4.058-9.055-9.055-9.055s-9.055,4.058-9.055,9.055
							c0,4.602,3.463,8.362,7.917,8.906l-9.55,68.975h-15.933c-3.761,0-6.778,3.019-6.778,6.779s3.018,6.828,6.778,6.828h53.24
							c3.761,0,6.779-3.067,6.779-6.828S393.558,407.987,389.797,407.987L389.797,407.987z"/>
					</g>
				</g>
			</g>
			<path fill="#121212" d="M86.039,299.923c0-1.187,0.594-1.83,1.831-1.83h17.714c1.187,0,1.831,0.593,1.831,1.83v48.441
				c0,0.743,0.346,1.089,1.088,1.089h46.809c0.742,0,1.088-0.346,1.088-1.089v-48.441c0-1.187,0.594-1.83,1.831-1.83h17.714
				c1.188,0,1.831,0.593,1.831,1.83v119.296c0,1.188-0.594,1.831-1.831,1.831H158.23c-1.187,0-1.831-0.593-1.831-1.831V369.69
				c0-0.742-0.347-1.089-1.088-1.089h-46.858c-0.741,0-1.088,0.347-1.088,1.089v49.529c0,1.188-0.594,1.831-1.831,1.831H87.82
				c-1.188,0-1.831-0.593-1.831-1.831V299.923H86.039z"/>
			<path fill="#121212" d="M430.421,421.05c-1.188,0-1.831-0.593-1.831-1.831V299.923c0-1.187,0.593-1.83,1.831-1.83h46.114
				c5.889,0,11.381,0.94,16.378,2.82c4.997,1.88,9.303,4.453,12.815,7.769c3.563,3.315,6.333,7.322,8.313,12.023
				c1.979,4.701,2.97,9.896,2.97,15.536c0,5.79-0.99,11.035-2.97,15.735c-1.979,4.701-4.75,8.708-8.313,12.024
				c-3.563,3.315-7.818,5.888-12.815,7.768s-10.44,2.821-16.378,2.821h-25.481c-0.743,0-1.089,0.346-1.089,1.088v43.592
				c0,1.188-0.594,1.831-1.83,1.831h-17.714V421.05z M475.249,355.242c6.384,0,11.381-1.732,14.993-5.146
				c3.611-3.415,5.442-8.065,5.442-13.855c0-5.64-1.831-10.242-5.442-13.755c-3.612-3.513-8.609-5.245-14.993-5.245h-24.245
				c-0.741,0-1.088,0.346-1.088,1.089v35.773c0,0.742,0.347,1.089,1.088,1.089h24.245V355.242z"/>
		</g>
	</g>
	<g>
		<path fill="none" stroke="#121212" stroke-width="4" stroke-miterlimit="10" d="M560.048,553.786H42.859
			c-13.501,0-24.548-5.74-24.548-12.865V491.54c0-7.074,10.953-12.865,24.548-12.865h517.283c13.502,0,24.548,5.74,24.548,12.865
			v49.381C584.597,548.046,573.644,553.786,560.048,553.786z"/>
		<g>
			<path d="M68.048,519.688l2.903-0.253c0.138,1.163,0.458,2.118,0.96,2.863c0.503,0.746,1.282,1.349,2.341,1.809
				c1.058,0.461,2.247,0.69,3.569,0.69c1.175,0,2.211-0.175,3.11-0.523c0.898-0.349,1.568-0.827,2.007-1.436
				c0.439-0.608,0.658-1.272,0.658-1.991c0-0.73-0.211-1.367-0.634-1.912c-0.424-0.545-1.122-1.002-2.095-1.373
				c-0.624-0.243-2.005-0.621-4.142-1.134c-2.137-0.514-3.633-0.997-4.49-1.452c-1.11-0.582-1.938-1.304-2.482-2.166
				c-0.545-0.861-0.817-1.827-0.817-2.896c0-1.174,0.333-2.271,0.999-3.292c0.667-1.021,1.64-1.796,2.92-2.324
				c1.279-0.529,2.702-0.794,4.269-0.794c1.724,0,3.244,0.278,4.562,0.833c1.316,0.556,2.329,1.373,3.038,2.451
				c0.709,1.079,1.089,2.301,1.143,3.666l-2.951,0.222c-0.159-1.47-0.696-2.581-1.61-3.332c-0.915-0.751-2.267-1.127-4.055-1.127
				c-1.861,0-3.218,0.342-4.069,1.023c-0.852,0.683-1.277,1.505-1.277,2.468c0,0.836,0.302,1.523,0.904,2.063
				c0.593,0.539,2.14,1.093,4.642,1.658c2.501,0.565,4.218,1.061,5.148,1.483c1.354,0.624,2.354,1.415,2.999,2.372
				c0.645,0.957,0.968,2.061,0.968,3.309c0,1.237-0.354,2.403-1.063,3.498s-1.727,1.946-3.055,2.555
				c-1.327,0.608-2.821,0.912-4.481,0.912c-2.105,0-3.869-0.307-5.292-0.92s-2.538-1.536-3.348-2.769S68.09,521.244,68.048,519.688z
				"/>
			<path d="M90.832,527.162v-23.261h16.819v2.745H93.91v7.124h12.868v2.729H93.91v7.917h14.28v2.745H90.832z"/>
			<path d="M112.411,527.162v-23.261h3.157l12.218,18.263v-18.263h2.951v23.261h-3.158l-12.217-18.278v18.278H112.411z"/>
			<path d="M135.909,527.162v-23.261h8.013c1.809,0,3.188,0.111,4.141,0.334c1.333,0.307,2.47,0.861,3.412,1.666
				c1.227,1.036,2.144,2.361,2.752,3.974c0.607,1.613,0.912,3.457,0.912,5.53c0,1.767-0.205,3.332-0.619,4.696
				c-0.412,1.364-0.94,2.494-1.586,3.388s-1.352,1.597-2.118,2.11c-0.767,0.513-1.692,0.901-2.776,1.166s-2.33,0.396-3.736,0.396
				H135.909z M138.987,524.417h4.966c1.534,0,2.737-0.143,3.61-0.428c0.872-0.286,1.567-0.688,2.086-1.206
				c0.729-0.73,1.299-1.711,1.706-2.943c0.406-1.232,0.61-2.727,0.61-4.482c0-2.433-0.399-4.303-1.198-5.608
				c-0.798-1.307-1.769-2.182-2.911-2.626c-0.825-0.317-2.152-0.477-3.982-0.477h-4.887V524.417z"/>
			<path d="M179.288,518.039v-2.729l9.853-0.016v8.632c-1.513,1.205-3.072,2.112-4.681,2.721c-1.607,0.608-3.258,0.912-4.95,0.912
				c-2.284,0-4.36-0.489-6.228-1.468c-1.867-0.978-3.276-2.393-4.229-4.244c-0.952-1.851-1.428-3.919-1.428-6.204
				c0-2.263,0.474-4.376,1.42-6.338s2.309-3.42,4.086-4.372c1.777-0.951,3.823-1.428,6.141-1.428c1.682,0,3.202,0.272,4.562,0.817
				c1.358,0.545,2.425,1.304,3.196,2.276c0.772,0.974,1.359,2.243,1.762,3.809l-2.776,0.762c-0.35-1.185-0.783-2.116-1.302-2.793
				c-0.518-0.677-1.259-1.219-2.221-1.626c-0.963-0.407-2.031-0.611-3.205-0.611c-1.407,0-2.624,0.215-3.649,0.643
				c-1.026,0.429-1.854,0.992-2.483,1.69c-0.629,0.697-1.118,1.465-1.468,2.3c-0.592,1.439-0.889,2.999-0.889,4.681
				c0,2.074,0.357,3.809,1.071,5.205c0.714,1.396,1.753,2.433,3.118,3.109c1.364,0.677,2.813,1.016,4.348,1.016
				c1.332,0,2.634-0.257,3.902-0.77c1.27-0.513,2.232-1.061,2.888-1.643v-4.331H179.288z"/>
			<path d="M193.742,527.162v-23.261h16.818v2.745h-13.74v7.124h12.868v2.729H196.82v7.917h14.28v2.745H193.742z"/>
			<path d="M221.271,527.162v-20.516h-7.663v-2.745h18.437v2.745h-7.695v20.516H221.271z"/>
			<path d="M242.167,520.181v-2.872h8.774v2.872H242.167z"/>
			<path d="M263.492,527.162v-23.261h8.774c1.544,0,2.724,0.074,3.538,0.223c1.143,0.19,2.1,0.553,2.872,1.087
				c0.771,0.534,1.394,1.282,1.864,2.245s0.706,2.021,0.706,3.173c0,1.979-0.63,3.652-1.889,5.022
				c-1.259,1.369-3.532,2.055-6.822,2.055h-5.966v9.456H263.492z M266.57,514.961h6.014c1.988,0,3.4-0.37,4.236-1.111
				c0.835-0.74,1.253-1.782,1.253-3.125c0-0.974-0.245-1.807-0.737-2.499c-0.492-0.693-1.14-1.15-1.943-1.373
				c-0.519-0.137-1.476-0.206-2.872-0.206h-5.95V514.961z"/>
			<path d="M284.229,515.833c0-3.86,1.037-6.883,3.11-9.067s4.749-3.276,8.028-3.276c2.147,0,4.083,0.513,5.808,1.539
				c1.724,1.026,3.038,2.457,3.942,4.292s1.356,3.916,1.356,6.243c0,2.359-0.476,4.47-1.428,6.331s-2.301,3.271-4.046,4.229
				s-3.628,1.436-5.648,1.436c-2.189,0-4.146-0.528-5.871-1.587c-1.724-1.058-3.03-2.501-3.919-4.331
				S284.229,517.875,284.229,515.833z M287.403,515.881c0,2.804,0.754,5.012,2.261,6.624c1.508,1.613,3.398,2.42,5.673,2.42
				c2.316,0,4.223-0.814,5.72-2.443c1.496-1.629,2.245-3.94,2.245-6.934c0-1.894-0.32-3.546-0.96-4.958
				c-0.641-1.412-1.576-2.507-2.809-3.285c-1.232-0.777-2.615-1.166-4.149-1.166c-2.179,0-4.054,0.749-5.624,2.245
				C288.188,509.881,287.403,512.38,287.403,515.881z"/>
			<path d="M309.395,519.688l2.903-0.253c0.138,1.163,0.457,2.118,0.96,2.863c0.502,0.746,1.282,1.349,2.34,1.809
				c1.058,0.461,2.248,0.69,3.57,0.69c1.174,0,2.211-0.175,3.11-0.523c0.898-0.349,1.567-0.827,2.007-1.436
				c0.438-0.608,0.658-1.272,0.658-1.991c0-0.73-0.212-1.367-0.635-1.912s-1.121-1.002-2.094-1.373
				c-0.625-0.243-2.005-0.621-4.142-1.134c-2.137-0.514-3.634-0.997-4.49-1.452c-1.11-0.582-1.938-1.304-2.483-2.166
				c-0.545-0.861-0.816-1.827-0.816-2.896c0-1.174,0.333-2.271,0.999-3.292c0.667-1.021,1.64-1.796,2.92-2.324
				c1.279-0.529,2.702-0.794,4.268-0.794c1.725,0,3.245,0.278,4.562,0.833c1.317,0.556,2.33,1.373,3.039,2.451
				c0.708,1.079,1.089,2.301,1.143,3.666l-2.951,0.222c-0.159-1.47-0.696-2.581-1.611-3.332s-2.266-1.127-4.054-1.127
				c-1.861,0-3.218,0.342-4.069,1.023c-0.852,0.683-1.277,1.505-1.277,2.468c0,0.836,0.302,1.523,0.904,2.063
				c0.592,0.539,2.14,1.093,4.641,1.658c2.502,0.565,4.218,1.061,5.149,1.483c1.354,0.624,2.354,1.415,2.998,2.372
				c0.646,0.957,0.968,2.061,0.968,3.309c0,1.237-0.354,2.403-1.063,3.498c-0.709,1.095-1.728,1.946-3.055,2.555
				s-2.821,0.912-4.482,0.912c-2.104,0-3.868-0.307-5.291-0.92s-2.539-1.536-3.348-2.769
				C309.862,522.638,309.437,521.244,309.395,519.688z"/>
			<path d="M338.032,527.162v-20.516h-7.663v-2.745h18.437v2.745h-7.695v20.516H338.032z"/>
			<path d="M360.453,527.162v-23.261h10.313c2.072,0,3.649,0.209,4.728,0.627c1.079,0.418,1.941,1.156,2.587,2.214
				c0.645,1.058,0.968,2.227,0.968,3.506c0,1.65-0.534,3.041-1.603,4.173c-1.068,1.133-2.719,1.852-4.95,2.158
				c0.814,0.392,1.433,0.777,1.856,1.158c0.898,0.825,1.75,1.856,2.554,3.094l4.046,6.331h-3.871l-3.078-4.839
				c-0.899-1.396-1.64-2.465-2.222-3.205c-0.581-0.74-1.103-1.259-1.563-1.556c-0.46-0.296-0.928-0.502-1.404-0.618
				c-0.349-0.074-0.92-0.111-1.714-0.111h-3.569v10.329H360.453z M363.531,514.167h6.616c1.406,0,2.507-0.145,3.3-0.436
				c0.794-0.291,1.396-0.757,1.81-1.396c0.412-0.64,0.618-1.335,0.618-2.087c0-1.1-0.399-2.004-1.197-2.713
				c-0.799-0.709-2.061-1.063-3.784-1.063h-7.362V514.167z"/>
			<path d="M383.935,527.162v-23.261h16.818v2.745h-13.74v7.124h12.868v2.729h-12.868v7.917h14.28v2.745H383.935z"/>
			<path d="M423.173,524.671c1.428,0.984,2.745,1.703,3.951,2.158l-0.905,2.142c-1.671-0.603-3.337-1.555-4.998-2.855
				c-1.724,0.962-3.628,1.443-5.712,1.443c-2.104,0-4.014-0.508-5.728-1.523c-1.714-1.015-3.033-2.443-3.959-4.283
				c-0.926-1.841-1.388-3.914-1.388-6.22c0-2.296,0.465-4.385,1.396-6.268c0.931-1.883,2.255-3.316,3.975-4.3
				c1.719-0.983,3.641-1.476,5.767-1.476c2.147,0,4.083,0.511,5.808,1.531c1.724,1.021,3.038,2.448,3.942,4.284
				c0.905,1.835,1.357,3.905,1.357,6.211c0,1.915-0.291,3.637-0.873,5.165S424.347,523.539,423.173,524.671z M416.397,520.736
				c1.777,0.497,3.242,1.237,4.396,2.221c1.809-1.649,2.713-4.13,2.713-7.441c0-1.882-0.32-3.527-0.96-4.934
				c-0.64-1.407-1.576-2.499-2.809-3.277c-1.232-0.777-2.615-1.166-4.148-1.166c-2.296,0-4.2,0.785-5.712,2.356
				c-1.513,1.57-2.27,3.917-2.27,7.037c0,3.025,0.748,5.347,2.245,6.965c1.497,1.619,3.409,2.428,5.736,2.428
				c1.1,0,2.136-0.206,3.109-0.619c-0.963-0.624-1.978-1.067-3.046-1.332L416.397,520.736z"/>
			<path d="M446.084,503.901h3.078v13.439c0,2.338-0.265,4.194-0.793,5.569c-0.529,1.375-1.483,2.493-2.864,3.355
				s-3.191,1.293-5.435,1.293c-2.179,0-3.961-0.375-5.347-1.126s-2.375-1.838-2.967-3.261c-0.593-1.423-0.889-3.366-0.889-5.831
				v-13.439h3.078v13.424c0,2.021,0.188,3.509,0.563,4.466c0.375,0.958,1.021,1.695,1.936,2.214s2.033,0.777,3.355,0.777
				c2.264,0,3.877-0.513,4.84-1.539c0.962-1.026,1.443-2.999,1.443-5.918V503.901z"/>
			<path d="M454.351,527.162v-23.261h16.818v2.745h-13.74v7.124h12.868v2.729h-12.868v7.917h14.28v2.745H454.351z"/>
			<path d="M474.914,519.688l2.903-0.253c0.138,1.163,0.457,2.118,0.96,2.863c0.502,0.746,1.282,1.349,2.34,1.809
				c1.058,0.461,2.248,0.69,3.57,0.69c1.174,0,2.211-0.175,3.11-0.523c0.898-0.349,1.567-0.827,2.007-1.436
				c0.438-0.608,0.658-1.272,0.658-1.991c0-0.73-0.212-1.367-0.635-1.912s-1.121-1.002-2.094-1.373
				c-0.625-0.243-2.005-0.621-4.142-1.134c-2.137-0.514-3.634-0.997-4.49-1.452c-1.11-0.582-1.938-1.304-2.483-2.166
				c-0.545-0.861-0.816-1.827-0.816-2.896c0-1.174,0.333-2.271,0.999-3.292c0.667-1.021,1.64-1.796,2.92-2.324
				c1.279-0.529,2.702-0.794,4.268-0.794c1.725,0,3.245,0.278,4.562,0.833c1.317,0.556,2.33,1.373,3.039,2.451
				c0.708,1.079,1.089,2.301,1.143,3.666l-2.951,0.222c-0.159-1.47-0.696-2.581-1.611-3.332s-2.266-1.127-4.054-1.127
				c-1.861,0-3.218,0.342-4.069,1.023c-0.852,0.683-1.277,1.505-1.277,2.468c0,0.836,0.302,1.523,0.904,2.063
				c0.592,0.539,2.14,1.093,4.641,1.658c2.502,0.565,4.218,1.061,5.149,1.483c1.354,0.624,2.354,1.415,2.998,2.372
				c0.646,0.957,0.968,2.061,0.968,3.309c0,1.237-0.354,2.403-1.063,3.498c-0.709,1.095-1.728,1.946-3.055,2.555
				s-2.821,0.912-4.482,0.912c-2.104,0-3.868-0.307-5.291-0.92s-2.539-1.536-3.348-2.769
				C475.382,522.638,474.956,521.244,474.914,519.688z"/>
			<path d="M503.553,527.162v-20.516h-7.663v-2.745h18.437v2.745h-7.695v20.516H503.553z"/>
			<path d="M516.437,519.688l2.903-0.253c0.138,1.163,0.457,2.118,0.96,2.863c0.502,0.746,1.282,1.349,2.34,1.809
				c1.058,0.461,2.248,0.69,3.57,0.69c1.174,0,2.211-0.175,3.11-0.523c0.898-0.349,1.567-0.827,2.007-1.436
				c0.438-0.608,0.658-1.272,0.658-1.991c0-0.73-0.212-1.367-0.635-1.912s-1.121-1.002-2.094-1.373
				c-0.625-0.243-2.005-0.621-4.142-1.134c-2.137-0.514-3.634-0.997-4.49-1.452c-1.11-0.582-1.938-1.304-2.483-2.166
				c-0.545-0.861-0.816-1.827-0.816-2.896c0-1.174,0.333-2.271,0.999-3.292c0.667-1.021,1.64-1.796,2.92-2.324
				c1.279-0.529,2.702-0.794,4.268-0.794c1.725,0,3.245,0.278,4.562,0.833c1.317,0.556,2.33,1.373,3.039,2.451
				c0.708,1.079,1.089,2.301,1.143,3.666l-2.951,0.222c-0.159-1.47-0.696-2.581-1.611-3.332s-2.266-1.127-4.054-1.127
				c-1.861,0-3.218,0.342-4.069,1.023c-0.852,0.683-1.277,1.505-1.277,2.468c0,0.836,0.302,1.523,0.904,2.063
				c0.592,0.539,2.14,1.093,4.641,1.658c2.502,0.565,4.218,1.061,5.149,1.483c1.354,0.624,2.354,1.415,2.998,2.372
				c0.646,0.957,0.968,2.061,0.968,3.309c0,1.237-0.354,2.403-1.063,3.498c-0.709,1.095-1.728,1.946-3.055,2.555
				s-2.821,0.912-4.482,0.912c-2.104,0-3.868-0.307-5.291-0.92s-2.539-1.536-3.348-2.769
				C516.904,522.638,516.479,521.244,516.437,519.688z"/>
		</g>
	</g>
</g>
<g>
	<path d="M207.907,584.305c0,1.784-0.229,3.343-0.685,4.676c-0.457,1.333-1.123,2.438-1.999,3.313
		c-0.876,0.876-1.952,1.531-3.226,1.967s-2.793,0.653-4.556,0.653h-4.365c-0.244,0-0.475-0.082-0.693-0.247
		c-0.218-0.164-0.327-0.454-0.327-0.868v-18.383c0-0.414,0.109-0.703,0.327-0.868c0.218-0.164,0.449-0.246,0.693-0.246h4.667
		c1.784,0,3.292,0.23,4.524,0.692s2.265,1.126,3.098,1.991c0.833,0.866,1.466,1.914,1.896,3.146
		C207.691,581.363,207.907,582.755,207.907,584.305z M205.023,584.417c0-1.115-0.138-2.153-0.414-3.114
		c-0.276-0.961-0.709-1.792-1.298-2.493s-1.336-1.248-2.238-1.641c-0.903-0.393-2.065-0.59-3.488-0.59h-2.788v16.041h2.82
		c1.316,0,2.426-0.164,3.329-0.494c0.902-0.328,1.657-0.833,2.262-1.513c0.605-0.68,1.059-1.532,1.362-2.557
		C204.872,587.031,205.023,585.818,205.023,584.417z"/>
	<path d="M223.597,593.783c0,0.191-0.011,0.358-0.032,0.502c-0.021,0.143-0.059,0.263-0.111,0.358
		c-0.054,0.096-0.114,0.164-0.184,0.207c-0.069,0.042-0.146,0.063-0.231,0.063h-9.892c-0.244,0-0.475-0.082-0.693-0.247
		c-0.218-0.164-0.327-0.454-0.327-0.868v-18.383c0-0.414,0.109-0.703,0.327-0.868c0.218-0.164,0.449-0.246,0.693-0.246h9.781
		c0.085,0,0.162,0.021,0.231,0.063c0.069,0.042,0.125,0.111,0.167,0.207c0.042,0.096,0.077,0.215,0.104,0.358
		c0.026,0.144,0.04,0.321,0.04,0.533c0,0.191-0.013,0.358-0.04,0.502c-0.027,0.144-0.062,0.261-0.104,0.351
		c-0.043,0.091-0.099,0.157-0.167,0.199c-0.069,0.043-0.146,0.063-0.231,0.063h-8.061v6.468h6.914c0.085,0,0.162,0.023,0.231,0.071
		c0.069,0.048,0.127,0.114,0.175,0.199s0.082,0.202,0.104,0.351c0.021,0.148,0.032,0.324,0.032,0.525
		c0,0.191-0.011,0.356-0.032,0.494c-0.021,0.138-0.056,0.249-0.104,0.334c-0.048,0.086-0.106,0.146-0.175,0.184
		c-0.069,0.037-0.146,0.056-0.231,0.056h-6.914v7.375h8.172c0.085,0,0.162,0.021,0.231,0.064c0.069,0.042,0.13,0.108,0.184,0.199
		c0.053,0.09,0.09,0.207,0.111,0.35C223.586,593.393,223.597,593.57,223.597,593.783z"/>
	<path d="M238.81,589.132c0,0.967-0.178,1.826-0.534,2.58c-0.356,0.755-0.85,1.395-1.481,1.92c-0.632,0.525-1.375,0.921-2.23,1.187
		s-1.776,0.398-2.764,0.398c-0.69,0-1.33-0.059-1.919-0.176c-0.589-0.116-1.115-0.26-1.577-0.43s-0.85-0.345-1.163-0.525
		c-0.313-0.181-0.531-0.335-0.653-0.462c-0.122-0.128-0.212-0.289-0.271-0.486c-0.059-0.196-0.088-0.459-0.088-0.788
		c0-0.233,0.011-0.428,0.032-0.582c0.021-0.153,0.053-0.278,0.095-0.374s0.096-0.162,0.159-0.199
		c0.064-0.037,0.138-0.056,0.223-0.056c0.149,0,0.358,0.091,0.629,0.271c0.271,0.181,0.619,0.378,1.043,0.59
		c0.424,0.213,0.937,0.412,1.537,0.598c0.6,0.186,1.292,0.278,2.079,0.278c0.595,0,1.139-0.079,1.633-0.239
		c0.494-0.159,0.918-0.385,1.274-0.677c0.355-0.292,0.629-0.65,0.82-1.075c0.191-0.425,0.287-0.908,0.287-1.449
		c0-0.584-0.133-1.083-0.398-1.498c-0.266-0.414-0.616-0.777-1.051-1.091c-0.436-0.313-0.932-0.6-1.49-0.86
		c-0.558-0.26-1.128-0.525-1.712-0.796c-0.584-0.271-1.152-0.571-1.704-0.9c-0.553-0.329-1.046-0.717-1.481-1.163
		c-0.436-0.445-0.789-0.969-1.06-1.568c-0.271-0.601-0.406-1.319-0.406-2.159c0-0.859,0.157-1.627,0.47-2.302
		c0.313-0.674,0.749-1.239,1.306-1.696c0.558-0.456,1.221-0.805,1.991-1.043c0.77-0.239,1.601-0.358,2.493-0.358
		c0.457,0,0.916,0.039,1.378,0.119s0.897,0.186,1.306,0.318s0.773,0.282,1.091,0.446c0.318,0.165,0.528,0.298,0.629,0.398
		c0.101,0.101,0.167,0.181,0.199,0.238c0.032,0.059,0.059,0.134,0.08,0.224c0.021,0.09,0.037,0.199,0.047,0.326
		c0.011,0.128,0.016,0.292,0.016,0.494c0,0.191-0.008,0.361-0.024,0.51s-0.04,0.273-0.072,0.374
		c-0.032,0.102-0.077,0.176-0.135,0.224c-0.059,0.047-0.125,0.071-0.199,0.071c-0.117,0-0.3-0.074-0.549-0.223
		c-0.25-0.149-0.555-0.316-0.916-0.502c-0.361-0.186-0.789-0.355-1.282-0.51c-0.494-0.154-1.049-0.231-1.665-0.231
		c-0.574,0-1.073,0.077-1.498,0.231s-0.775,0.358-1.051,0.613c-0.276,0.255-0.483,0.558-0.622,0.908
		c-0.138,0.35-0.207,0.722-0.207,1.114c0,0.574,0.133,1.067,0.398,1.481c0.265,0.414,0.619,0.781,1.059,1.1
		c0.441,0.318,0.942,0.61,1.505,0.876s1.136,0.533,1.721,0.805c0.583,0.271,1.157,0.568,1.72,0.892
		c0.563,0.324,1.064,0.707,1.505,1.147c0.44,0.44,0.796,0.961,1.067,1.561C238.674,587.605,238.81,588.314,238.81,589.132z"/>
	<path d="M256.172,594.468c0,0.085-0.019,0.162-0.056,0.231s-0.109,0.125-0.215,0.167c-0.106,0.043-0.25,0.077-0.43,0.104
		s-0.414,0.04-0.701,0.04c-0.372,0-0.675-0.016-0.908-0.048c-0.234-0.032-0.409-0.09-0.526-0.175
		c-0.117-0.085-0.212-0.181-0.287-0.287l-7.583-10.307V594.5c0,0.074-0.021,0.146-0.063,0.215c-0.042,0.069-0.117,0.122-0.223,0.159
		s-0.247,0.069-0.422,0.096s-0.396,0.04-0.661,0.04c-0.255,0-0.473-0.014-0.653-0.04s-0.324-0.059-0.43-0.096
		c-0.106-0.037-0.181-0.09-0.223-0.159c-0.042-0.068-0.064-0.141-0.064-0.215v-19.784c0-0.085,0.021-0.159,0.064-0.224
		c0.042-0.063,0.117-0.113,0.223-0.151c0.106-0.037,0.25-0.068,0.43-0.095s0.398-0.04,0.653-0.04c0.265,0,0.486,0.014,0.661,0.04
		s0.316,0.058,0.422,0.095c0.106,0.038,0.181,0.088,0.223,0.151c0.042,0.064,0.063,0.139,0.063,0.224v9.159l7.296-9.159
		c0.064-0.096,0.138-0.176,0.223-0.239c0.085-0.063,0.188-0.114,0.311-0.151s0.271-0.066,0.446-0.088
		c0.175-0.021,0.401-0.031,0.677-0.031c0.276,0,0.499,0.014,0.669,0.04s0.305,0.061,0.406,0.104c0.101,0.042,0.17,0.095,0.207,0.159
		c0.037,0.063,0.056,0.133,0.056,0.207c0,0.138-0.035,0.276-0.104,0.414c-0.069,0.138-0.199,0.329-0.39,0.573l-6.834,8.172
		l7.359,9.78c0.181,0.276,0.29,0.465,0.327,0.565C256.154,594.322,256.172,594.404,256.172,594.468z"/>
	<path d="M272.596,575.48c0,0.201-0.011,0.377-0.032,0.525c-0.021,0.148-0.056,0.269-0.104,0.358
		c-0.048,0.09-0.106,0.157-0.175,0.199c-0.069,0.042-0.146,0.063-0.231,0.063h-5.798V594.5c0,0.085-0.021,0.159-0.064,0.223
		c-0.042,0.064-0.117,0.114-0.223,0.151c-0.106,0.037-0.247,0.069-0.422,0.096s-0.396,0.04-0.661,0.04
		c-0.255,0-0.473-0.014-0.653-0.04c-0.181-0.026-0.324-0.059-0.43-0.096c-0.106-0.037-0.181-0.087-0.223-0.151
		c-0.042-0.063-0.064-0.138-0.064-0.223v-17.873h-5.798c-0.085,0-0.162-0.021-0.231-0.063c-0.069-0.042-0.125-0.109-0.167-0.199
		s-0.077-0.21-0.104-0.358c-0.027-0.148-0.04-0.324-0.04-0.525c0-0.202,0.013-0.38,0.04-0.534c0.026-0.153,0.061-0.278,0.104-0.374
		s0.098-0.165,0.167-0.207c0.069-0.042,0.146-0.063,0.231-0.063h14.336c0.085,0,0.162,0.021,0.231,0.063
		c0.069,0.042,0.127,0.111,0.175,0.207c0.047,0.096,0.082,0.221,0.104,0.374C272.585,575.101,272.596,575.278,272.596,575.48z"/>
	<path d="M291.918,584.369c0,1.667-0.197,3.17-0.589,4.508c-0.393,1.338-0.979,2.477-1.76,3.417c-0.78,0.939-1.76,1.662-2.939,2.166
		s-2.554,0.757-4.125,0.757c-1.551,0-2.892-0.231-4.022-0.693s-2.065-1.133-2.804-2.015c-0.738-0.882-1.288-1.976-1.648-3.281
		c-0.361-1.307-0.542-2.81-0.542-4.509c0-1.624,0.196-3.101,0.589-4.428c0.393-1.327,0.982-2.456,1.768-3.385
		c0.786-0.93,1.768-1.646,2.947-2.151c1.179-0.504,2.554-0.756,4.126-0.756c1.519,0,2.841,0.229,3.966,0.685
		c1.125,0.457,2.063,1.123,2.812,1.999s1.306,1.96,1.673,3.25C291.735,581.223,291.918,582.702,291.918,584.369z M289.02,584.56
		c0-1.168-0.104-2.254-0.311-3.257c-0.207-1.004-0.552-1.875-1.034-2.613c-0.482-0.737-1.127-1.313-1.933-1.728
		c-0.806-0.414-1.803-0.621-2.991-0.621s-2.185,0.223-2.991,0.669c-0.806,0.445-1.461,1.04-1.965,1.784
		c-0.504,0.743-0.865,1.611-1.082,2.604c-0.218,0.993-0.326,2.037-0.326,3.131c0,1.21,0.101,2.325,0.302,3.345
		s0.541,1.898,1.018,2.637c0.478,0.738,1.117,1.312,1.917,1.72c0.801,0.409,1.806,0.613,3.015,0.613
		c1.198,0,2.206-0.223,3.023-0.669c0.816-0.445,1.474-1.048,1.973-1.808c0.498-0.759,0.854-1.638,1.066-2.637
		C288.913,586.731,289.02,585.675,289.02,584.56z"/>
	<path d="M308.915,580.339c0,1.03-0.17,1.959-0.51,2.787c-0.34,0.829-0.825,1.535-1.458,2.119c-0.631,0.584-1.407,1.035-2.325,1.354
		c-0.919,0.319-2.015,0.479-3.29,0.479h-2.342v7.423c0,0.085-0.023,0.159-0.071,0.223c-0.048,0.064-0.123,0.114-0.223,0.151
		c-0.101,0.037-0.239,0.069-0.414,0.096s-0.396,0.04-0.661,0.04c-0.266,0-0.486-0.014-0.661-0.04s-0.316-0.059-0.422-0.096
		c-0.106-0.037-0.181-0.087-0.223-0.151c-0.042-0.063-0.064-0.138-0.064-0.223v-19.02c0-0.425,0.112-0.728,0.334-0.908
		c0.223-0.181,0.473-0.271,0.749-0.271h4.412c0.446,0,0.874,0.019,1.283,0.056c0.409,0.037,0.892,0.116,1.449,0.238
		c0.558,0.123,1.125,0.351,1.705,0.686c0.579,0.334,1.07,0.746,1.473,1.234c0.404,0.488,0.715,1.054,0.932,1.696
		C308.807,578.854,308.915,579.563,308.915,580.339z M306.032,580.562c0-0.839-0.157-1.54-0.47-2.103
		c-0.313-0.563-0.701-0.982-1.163-1.259c-0.462-0.275-0.94-0.451-1.434-0.525s-0.975-0.111-1.441-0.111h-2.533v8.268h2.469
		c0.829,0,1.516-0.106,2.063-0.319c0.547-0.212,1.006-0.507,1.378-0.884c0.372-0.377,0.653-0.828,0.844-1.354
		C305.936,581.748,306.032,581.178,306.032,580.562z"/>
	<path d="M336.059,593.783c0,0.213-0.035,0.393-0.107,0.541c-0.07,0.149-0.164,0.271-0.279,0.367s-0.244,0.164-0.388,0.207
		c-0.143,0.042-0.285,0.063-0.429,0.063h-0.906c-0.285,0-0.535-0.029-0.749-0.088c-0.214-0.058-0.417-0.164-0.609-0.318
		s-0.385-0.363-0.577-0.629c-0.191-0.266-0.396-0.605-0.611-1.02l-6.288-11.725c-0.329-0.605-0.66-1.239-0.994-1.903
		c-0.334-0.663-0.646-1.309-0.933-1.936h-0.031c0.021,0.765,0.037,1.545,0.047,2.342c0.011,0.797,0.016,1.588,0.016,2.373V594.5
		c0,0.074-0.021,0.146-0.066,0.215c-0.045,0.069-0.121,0.122-0.227,0.159c-0.107,0.037-0.247,0.069-0.42,0.096
		c-0.174,0.026-0.396,0.04-0.664,0.04c-0.27,0-0.491-0.014-0.664-0.04c-0.174-0.026-0.312-0.059-0.412-0.096
		c-0.102-0.037-0.174-0.09-0.219-0.159c-0.045-0.068-0.067-0.141-0.067-0.215v-19.02c0-0.425,0.12-0.728,0.362-0.908
		c0.24-0.181,0.504-0.271,0.789-0.271h1.348c0.318,0,0.584,0.026,0.797,0.079c0.215,0.054,0.406,0.141,0.576,0.263
		s0.334,0.293,0.493,0.51c0.159,0.218,0.325,0.491,0.501,0.82l4.834,9.048c0.297,0.553,0.584,1.092,0.861,1.617
		s0.544,1.043,0.801,1.553c0.256,0.51,0.511,1.012,0.762,1.506c0.252,0.494,0.5,0.99,0.747,1.489h0.017
		c-0.021-0.839-0.035-1.712-0.041-2.62c-0.005-0.908-0.008-1.781-0.008-2.621v-11.182c0-0.074,0.023-0.144,0.067-0.207
		c0.045-0.064,0.12-0.12,0.228-0.168c0.105-0.048,0.246-0.082,0.42-0.104c0.174-0.021,0.4-0.031,0.681-0.031
		c0.247,0,0.46,0.011,0.639,0.031c0.179,0.021,0.319,0.056,0.421,0.104c0.1,0.048,0.174,0.104,0.218,0.168
		c0.045,0.063,0.067,0.133,0.067,0.207V593.783z"/>
	<path d="M356.975,593.942c0.084,0.233,0.129,0.422,0.135,0.565s-0.035,0.252-0.119,0.326c-0.086,0.075-0.227,0.122-0.422,0.144
		c-0.197,0.021-0.461,0.032-0.789,0.032c-0.33,0-0.592-0.008-0.789-0.024c-0.195-0.016-0.346-0.042-0.445-0.079
		c-0.102-0.037-0.176-0.088-0.223-0.151c-0.049-0.063-0.094-0.144-0.137-0.239l-1.768-5.018h-8.57l-1.688,4.954
		c-0.033,0.096-0.074,0.178-0.127,0.247c-0.055,0.069-0.131,0.127-0.231,0.175s-0.245,0.082-0.431,0.104s-0.428,0.032-0.725,0.032
		c-0.309,0-0.561-0.014-0.756-0.04c-0.197-0.026-0.335-0.077-0.415-0.151c-0.079-0.074-0.116-0.183-0.111-0.326
		s0.05-0.332,0.136-0.565l6.912-19.147c0.043-0.117,0.098-0.212,0.168-0.287c0.068-0.074,0.17-0.132,0.303-0.175
		c0.133-0.042,0.303-0.071,0.51-0.088c0.207-0.016,0.469-0.023,0.789-0.023c0.34,0,0.621,0.008,0.844,0.023
		c0.223,0.017,0.402,0.046,0.541,0.088c0.139,0.043,0.244,0.104,0.318,0.184c0.074,0.079,0.133,0.178,0.176,0.294L356.975,593.942z
		 M348.102,577.041h-0.016l-3.553,10.274h7.168L348.102,577.041z"/>
	<path d="M370.785,575.48c0,0.201-0.012,0.377-0.031,0.525c-0.021,0.148-0.057,0.269-0.104,0.358
		c-0.049,0.09-0.107,0.157-0.176,0.199s-0.146,0.063-0.23,0.063h-5.799V594.5c0,0.085-0.021,0.159-0.064,0.223
		c-0.041,0.064-0.117,0.114-0.223,0.151s-0.246,0.069-0.422,0.096s-0.396,0.04-0.66,0.04c-0.256,0-0.473-0.014-0.654-0.04
		c-0.18-0.026-0.324-0.059-0.43-0.096s-0.182-0.087-0.223-0.151c-0.043-0.063-0.064-0.138-0.064-0.223v-17.873h-5.799
		c-0.084,0-0.162-0.021-0.23-0.063s-0.125-0.109-0.168-0.199c-0.041-0.09-0.076-0.21-0.104-0.358
		c-0.025-0.148-0.039-0.324-0.039-0.525c0-0.202,0.014-0.38,0.039-0.534c0.027-0.153,0.063-0.278,0.104-0.374
		c0.043-0.096,0.1-0.165,0.168-0.207s0.146-0.063,0.23-0.063h14.338c0.084,0,0.162,0.021,0.23,0.063s0.127,0.111,0.176,0.207
		c0.047,0.096,0.082,0.221,0.104,0.374C370.773,575.101,370.785,575.278,370.785,575.48z"/>
	<path d="M376.504,594.5c0,0.085-0.021,0.159-0.064,0.223c-0.043,0.064-0.117,0.114-0.223,0.151s-0.246,0.069-0.422,0.096
		s-0.396,0.04-0.662,0.04c-0.254,0-0.473-0.014-0.652-0.04s-0.324-0.059-0.43-0.096c-0.107-0.037-0.182-0.087-0.223-0.151
		c-0.043-0.063-0.064-0.138-0.064-0.223v-19.784c0-0.085,0.023-0.159,0.072-0.224c0.047-0.063,0.127-0.113,0.238-0.151
		c0.111-0.037,0.256-0.068,0.43-0.095c0.176-0.026,0.385-0.04,0.629-0.04c0.266,0,0.486,0.014,0.662,0.04s0.316,0.058,0.422,0.095
		c0.105,0.038,0.18,0.088,0.223,0.151c0.043,0.064,0.064,0.139,0.064,0.224V594.5z"/>
	<path d="M390.314,594.437c-0.043,0.116-0.102,0.212-0.176,0.286s-0.178,0.133-0.311,0.176c-0.133,0.042-0.303,0.071-0.51,0.087
		c-0.207,0.017-0.465,0.024-0.771,0.024c-0.234,0-0.439-0.003-0.613-0.008c-0.176-0.006-0.326-0.019-0.455-0.04
		c-0.127-0.021-0.236-0.045-0.326-0.071s-0.166-0.062-0.23-0.104c-0.064-0.043-0.115-0.094-0.152-0.151
		c-0.037-0.059-0.07-0.13-0.104-0.216l-6.738-19.146c-0.084-0.233-0.129-0.423-0.135-0.565c-0.006-0.144,0.041-0.253,0.135-0.327
		c0.096-0.074,0.25-0.122,0.463-0.144c0.213-0.021,0.498-0.031,0.859-0.031c0.299,0,0.535,0.008,0.709,0.023
		c0.176,0.017,0.311,0.046,0.406,0.088c0.096,0.043,0.168,0.099,0.215,0.167c0.049,0.069,0.094,0.157,0.137,0.263l5.91,17.348h0.016
		l5.75-17.315c0.031-0.117,0.068-0.212,0.111-0.287c0.043-0.074,0.117-0.132,0.223-0.175c0.107-0.042,0.256-0.071,0.447-0.088
		c0.189-0.016,0.445-0.023,0.764-0.023c0.33,0,0.59,0.014,0.781,0.04s0.32,0.077,0.391,0.15c0.068,0.075,0.094,0.184,0.078,0.327
		s-0.066,0.332-0.15,0.565L390.314,594.437z"/>
	<path d="M411.963,593.783c0,0.191-0.012,0.358-0.033,0.502c-0.02,0.143-0.057,0.263-0.111,0.358
		c-0.053,0.096-0.113,0.164-0.182,0.207c-0.07,0.042-0.146,0.063-0.232,0.063h-9.891c-0.246,0-0.477-0.082-0.693-0.247
		c-0.219-0.164-0.326-0.454-0.326-0.868v-18.383c0-0.414,0.107-0.703,0.326-0.868c0.217-0.164,0.447-0.246,0.693-0.246h9.779
		c0.086,0,0.162,0.021,0.23,0.063c0.07,0.042,0.125,0.111,0.168,0.207s0.078,0.215,0.104,0.358c0.027,0.144,0.041,0.321,0.041,0.533
		c0,0.191-0.014,0.358-0.041,0.502c-0.025,0.144-0.061,0.261-0.104,0.351c-0.043,0.091-0.098,0.157-0.168,0.199
		c-0.068,0.043-0.145,0.063-0.23,0.063h-8.061v6.468h6.914c0.084,0,0.162,0.023,0.23,0.071c0.07,0.048,0.129,0.114,0.176,0.199
		s0.082,0.202,0.104,0.351s0.031,0.324,0.031,0.525c0,0.191-0.01,0.356-0.031,0.494s-0.057,0.249-0.104,0.334
		c-0.047,0.086-0.105,0.146-0.176,0.184c-0.068,0.037-0.146,0.056-0.23,0.056h-6.914v7.375h8.172c0.086,0,0.162,0.021,0.232,0.064
		c0.068,0.042,0.129,0.108,0.182,0.199c0.055,0.09,0.092,0.207,0.111,0.35C411.951,593.393,411.963,593.57,411.963,593.783z"/>
</g>
</svg>
