<?xml version="1.0" encoding="utf-8"?>
<!-- Generator: Adobe Illustrator 22.0.1, SVG Export Plug-In . SVG Version: 6.00 Build 0)  -->
<svg version="1.1" id="Layer_1" xmlns="http://www.w3.org/2000/svg" xmlns:xlink="http://www.w3.org/1999/xlink" x="0px" y="0px"
	 viewBox="0 0 1633.3 695.7" style="enable-background:new 0 0 1633.3 695.7;" xml:space="preserve">
<style type="text/css">
	.st0{display:none;}
	.st1{display:none;fill:#79C79C;}
	.st2{fill:#DA1F26;}
	.st3{fill:#FFFFFF;}
</style>
<path class="st0" d="M277.3,447.9L277.3,447.9c-8,9.1-21.8,9.9-30.9,1.9l-99.8-88.2c-9.1-8-9.9-21.8-1.9-30.9l0,0
	c8-9.1,21.8-9.9,30.9-1.9l99.8,88.2C284.5,425.1,285.3,438.9,277.3,447.9z"/>
<rect x="253.4" y="415.8" class="st1" width="901.7" height="144.6"/>
<rect x="-129.3" y="-9.1" class="st2" width="1864.7" height="831.2"/>
<g>
	<g>
		<path class="st3" d="M1095.1,205.2c-0.2-6.6-0.6-13.2-1.1-19.8c-2.1-28-5.3-60-23.7-82.3c-15.8-19.1-40.3-23.5-63.5-26.1
			c-29.4-3.3-59-5.3-88.6-6.5c-59.9-2.3-120-1-179.9,0.4c-30.8,0.7-61.6,1.4-92.3,3.8c-37.7,3-76.5,8.5-94.1,46.2
			c-15.8,33.8-13.8,76.8-14,113.2c-0.2,32.6-0.3,65.3,1,97.9c1.7,42.3,4.2,97.4,49.9,116c24.4,9.9,53.8,12.1,79.9,13.8
			c27.6,1.8,55.3,1.6,82.9,2c58,0.9,116-1.1,173.9-2.3c40.3-0.8,81.6-1.3,120.1-14.4c33.3-11.3,41.9-47.4,46.4-78.7
			c4.5-31.1,3.3-62.6,3.3-93.9C1095.3,251.5,1095.9,228.3,1095.1,205.2z"/>
		<g>
			<path class="st2" d="M965.6,197.5c12.9,0,25.1,0,37.8,0c0,68,0,135.7,0,203.7c-12.1,0-24.2,0-37.1,0c0-6.9,0-13.8,0-21.4
				c-3.5,3.4-6.2,6.2-9,8.8c-8.8,8.3-18.1,15.6-31.1,15.7c-11.8,0.1-20.8-5.5-24-16.8c-2.3-8-3.7-16.6-3.8-24.9
				c-0.6-54.1-0.7-108.1-0.9-162.2c0-0.7,0.1-1.5,0.2-2.6c12.2,0,24.3,0,37.1,0c0.1,1.6,0.2,3.4,0.2,5.1
				c0.2,51.9,0.5,103.9,0.7,155.8c0,1.5-0.1,3,0.1,4.5c0.8,6.3,5.4,9.8,11.2,7.3c4.7-2,8.7-5.7,12.6-9.1c5.1-4.5,6.7-10.2,6.7-17.3
				c-0.5-46.7-0.5-93.3-0.7-140C965.6,202.1,965.6,200,965.6,197.5z"/>
			<path class="st2" d="M768.7,129.1c-6.8,22.5-13.3,44.3-19.9,66.1c-9.3,30.8-18.6,61.5-27.8,92.3c-0.7,2.3-1,4.7-1,7.1
				c0.1,33.7,0.4,67.3,0.6,101c0,1.6,0,3.3,0,5.4c-13.1,0-26,0-39.4,0c0-1.7,0-3.3,0-5c-0.2-33.8-0.3-67.7-0.6-101.5
				c0-4-1.2-8-2.4-11.9c-15.6-49.5-31.2-99-46.9-148.5c-0.4-1.4-0.8-2.8-1.5-4.9c13.4,0,26.2-0.1,39,0.2c1.1,0,2.8,2.3,3.2,3.8
				c6.1,22,12,44,18,66c3.1,11.6,6.3,23.1,10.4,34.8c2-7.6,4-15.3,6-22.9c6.6-25.9,13.2-51.8,19.6-77.7c0.8-3.2,1.9-4.5,5.3-4.4
				C743.7,129.2,755.9,129.1,768.7,129.1z"/>
			<path class="st2" d="M762.5,299.1c0-15.5-0.4-31.1,0.2-46.6c0.3-7.6,1.8-15.4,4.1-22.6c5.9-18.1,18-29.9,37.3-32.8
				c21.5-3.2,40.7,1,54.1,20c6.8,9.6,9.4,20.9,10.3,32.4c0.8,9.9,0.9,19.9,1,29.8c0.2,21.7,0.4,43.5,0,65.2
				c-0.1,7.6-1.2,15.4-3.1,22.8c-5.8,22.4-25.7,37.2-49.1,37.5c-23.6,0.3-44.7-14.5-50.6-37c-2.7-10.1-3.4-20.8-4-31.3
				C762,324.2,762.5,311.7,762.5,299.1L762.5,299.1z M832.5,301.1c-0.2,0-0.4,0-0.5,0c0-15.8,0.1-31.7-0.1-47.5
				c-0.1-4.2-0.6-8.5-1.8-12.5c-2.1-7.1-7.7-10.8-15-10.6c-7.2,0.1-12.6,4.2-14.4,11.4c-1,3.8-1.5,7.7-1.5,11.6
				c0.1,31.2,0.2,62.5,0.6,93.7c0,4.5,0.7,9.1,1.9,13.3c2.1,7.1,7.7,10.8,15,10.8c6.8,0,12.3-4,14.2-11.1c1.1-4.2,1.6-8.6,1.6-12.9
				C832.6,331.9,832.5,316.5,832.5,301.1z"/>
		</g>
	</g>
	<g>
		<path class="st3" d="M689.2,626.4c-8.9,0-16.7-1.1-23.3-3.2c-6.7-2.1-12.2-5.1-16.6-8.9c-4.4-3.8-7.8-8.3-10.1-13.6
			c-2.3-5.3-3.5-11-3.7-17.3h16c0.4,4.8,1.7,8.9,3.8,12.4c2.1,3.5,4.8,6.4,8.1,8.7c3.3,2.3,7.1,4,11.3,5.1c4.3,1.1,8.8,1.6,13.7,1.6
			c4.7,0,9-0.5,12.9-1.5c3.9-1,7.1-2.4,9.9-4.3c2.7-1.9,4.8-4.1,6.3-6.8c1.5-2.6,2.2-5.6,2.2-9c0-3.5-0.7-6.4-2.1-8.8
			c-1.4-2.4-3.6-4.5-6.7-6.3c-3.1-1.8-7.1-3.4-12.2-4.8c-5-1.4-11.2-2.9-18.5-4.4c-7.1-1.6-13.2-3.5-18.3-5.5
			c-5.1-2.1-9.3-4.5-12.6-7.2c-3.3-2.8-5.7-6-7.3-9.6c-1.6-3.6-2.4-7.7-2.4-12.4c0-5.1,1.1-9.8,3.3-14.1c2.2-4.3,5.2-8,9.2-11.1
			c3.9-3.1,8.7-5.5,14.2-7.3c5.5-1.7,11.6-2.6,18.3-2.6c7.1,0,13.5,0.9,19.4,2.6c5.8,1.7,10.8,4.2,15.1,7.5c4.2,3.3,7.6,7.2,10,11.9
			c2.4,4.7,3.7,10,3.9,15.9h-16.2c-1.7-15.2-12.1-22.8-31.3-22.8c-9.4,0-16.6,1.7-21.7,5.2c-5.1,3.5-7.6,8.2-7.6,14.1
			c0,2.7,0.5,5,1.4,6.9c0.9,1.9,2.5,3.6,4.8,5c2.2,1.4,5.2,2.7,9,3.9c3.7,1.2,8.4,2.3,13.9,3.5c3.8,0.8,7.7,1.7,11.7,2.6
			c4,0.9,7.8,2,11.6,3.3c3.8,1.3,7.3,2.9,10.7,4.7c3.4,1.8,6.3,4.1,8.8,6.7c2.5,2.6,4.5,5.7,6,9.3c1.5,3.6,2.2,7.8,2.2,12.5
			c0,5.5-1.2,10.6-3.5,15.2c-2.3,4.6-5.6,8.6-9.7,12c-4.2,3.4-9.1,6-14.8,7.9C702.3,625.5,696,626.4,689.2,626.4z"/>
		<path class="st3" d="M827,535.9l-34.7,50.9v37.5h-11.8v-37.5l-34.8-50.9H760l26.4,40.5l26.3-40.5H827z"/>
		<path class="st3" d="M906.9,624.2h-12l-46.3-69.7v69.7h-11.1v-88.3h12.1l46.2,69.8v-69.8h11.2V624.2z"/>
		<path class="st3" d="M999.5,562.6h-12c-0.2-2.8-0.9-5.3-2.2-7.6c-1.3-2.3-3-4.2-5.1-5.8c-2.1-1.6-4.6-2.8-7.4-3.7
			c-2.8-0.8-5.8-1.3-9-1.3c-4.4,0-8.5,0.8-12,2.3s-6.6,3.8-9.2,6.9c-2.5,3-4.5,6.7-5.8,11.2c-1.4,4.4-2.1,9.5-2.1,15.2
			c0,5.7,0.7,10.8,2,15.3c1.3,4.4,3.3,8.2,5.8,11.2c2.5,3,5.5,5.3,9.1,6.9c3.5,1.6,7.5,2.4,11.9,2.4c3.4,0,6.6-0.4,9.4-1.3
			c2.8-0.8,5.3-2.1,7.4-3.8c2.1-1.7,3.7-3.7,5-6.1c1.2-2.4,2-5.2,2.3-8.3h12c-0.4,4.7-1.6,8.9-3.6,12.5c-1.9,3.7-4.5,6.7-7.6,9.3
			c-3.1,2.5-6.8,4.5-11,5.8c-4.2,1.3-8.7,2-13.6,2c-6.3,0-12-1.1-17.1-3.2c-5.1-2.2-9.4-5.2-13-9.2s-6.3-8.8-8.2-14.4
			c-1.9-5.6-2.9-12-2.9-19c0-7,1-13.3,2.9-18.9c1.9-5.6,4.7-10.4,8.3-14.4c3.6-4,7.9-7,13-9.2c5.1-2.2,10.7-3.2,17-3.2
			c4.7,0,9.1,0.7,13.2,2c4.2,1.3,7.8,3.3,11,5.7c3.2,2.5,5.8,5.5,7.8,9C997.8,554.4,999,558.3,999.5,562.6z"/>
	</g>
</g>
</svg>
