<?xml version="1.0" encoding="utf-8"?>
<!-- Generator: Adobe Illustrator 16.0.0, SVG Export Plug-In . SVG Version: 6.00 Build 0)  -->
<!DOCTYPE svg PUBLIC "-//W3C//DTD SVG 1.1//EN" "http://www.w3.org/Graphics/SVG/1.1/DTD/svg11.dtd">
<svg version="1.1" id="Layer_1" xmlns="http://www.w3.org/2000/svg" xmlns:xlink="http://www.w3.org/1999/xlink" x="0px" y="0px"
	 width="675px" height="311.453px" viewBox="0 0 675 311.453" enable-background="new 0 0 675 311.453" xml:space="preserve">
<path display="none" d="M103.905,433.49L103.905,433.49c-2.998,3.408-8.168,3.709-11.578,0.711l-37.396-33.049
	c-3.41-2.998-3.709-8.169-0.712-11.578l0,0c2.998-3.41,8.168-3.71,11.578-0.713l37.396,33.049
	C106.603,424.945,106.902,430.117,103.905,433.49z"/>
<rect x="94.949" y="421.46" display="none" fill="#79C79C" width="337.868" height="54.182"/>
<rect x="-11.853" y="0" fill="#DA1F26" width="698.707" height="311.453"/>
<g>
	<g>
		<path fill="#FFFFFF" d="M329.748,88.588c-0.076-2.473-0.227-4.945-0.412-7.419c-0.787-10.491-1.986-22.481-8.881-30.838
			c-5.92-7.157-15.102-8.806-23.795-9.78c-11.015-1.236-22.104-1.984-33.196-2.436c-22.445-0.861-44.965-0.375-67.409,0.15
			c-11.54,0.262-23.081,0.523-34.585,1.424c-14.126,1.123-28.664,3.186-35.26,17.311c-5.92,12.666-5.17,28.777-5.246,42.417
			c-0.074,12.216-0.111,24.468,0.375,36.683c0.637,15.852,1.574,36.496,18.698,43.467c9.143,3.709,20.159,4.533,29.938,5.17
			c10.342,0.676,20.721,0.602,31.063,0.75c21.732,0.338,43.465-0.412,65.16-0.861c15.102-0.301,30.575-0.486,45.001-5.396
			c12.479-4.234,15.701-17.76,17.387-29.488c1.686-11.652,1.236-23.457,1.236-35.186C329.822,105.938,330.046,97.245,329.748,88.588
			z"/>
		<g>
			<path fill="#DA1F26" d="M281.223,85.703c4.834,0,9.406,0,14.164,0c0,25.479,0,50.848,0,76.327c-4.533,0-9.068,0-13.9,0
				c0-2.586,0-5.172,0-8.02c-1.313,1.273-2.324,2.324-3.373,3.299c-3.297,3.109-6.781,5.844-11.652,5.883
				c-4.422,0.037-7.795-2.063-8.994-6.295c-0.861-2.998-1.387-6.221-1.424-9.33c-0.225-20.271-0.262-40.506-0.336-60.778
				c0-0.262,0.037-0.563,0.074-0.975c4.572,0,9.105,0,13.9,0c0.039,0.6,0.076,1.273,0.076,1.912
				c0.074,19.445,0.188,38.93,0.262,58.377c0,0.564-0.037,1.125,0.037,1.688c0.301,2.359,2.023,3.672,4.197,2.734
				c1.762-0.75,3.26-2.135,4.721-3.41c1.912-1.686,2.512-3.82,2.512-6.48c-0.188-17.5-0.188-34.961-0.264-52.459
				C281.223,87.426,281.223,86.641,281.223,85.703z"/>
			<path fill="#DA1F26" d="M207.446,60.074c-2.549,8.432-4.984,16.6-7.457,24.768c-3.484,11.541-6.97,23.045-10.417,34.586
				c-0.263,0.861-0.374,1.76-0.374,2.66c0.037,12.627,0.149,25.217,0.225,37.844c0,0.6,0,1.238,0,2.023c-4.908,0-9.742,0-14.764,0
				c0-0.637,0-1.236,0-1.873c-0.074-12.664-0.112-25.367-0.225-38.031c0-1.5-0.449-2.998-0.899-4.459
				c-5.845-18.549-11.69-37.097-17.573-55.644c-0.15-0.524-0.301-1.05-0.563-1.837c5.021,0,9.817-0.037,14.613,0.074
				c0.412,0,1.049,0.861,1.199,1.425c2.285,8.243,4.496,16.485,6.744,24.729c1.162,4.346,2.361,8.655,3.897,13.039
				c0.749-2.848,1.499-5.732,2.248-8.58c2.474-9.705,4.946-19.41,7.345-29.113c0.299-1.199,0.711-1.688,1.985-1.649
				C198.078,60.111,202.649,60.074,207.446,60.074z"/>
			<path fill="#DA1F26" d="M205.122,123.774c0-5.809-0.149-11.653,0.075-17.461c0.112-2.85,0.675-5.771,1.536-8.469
				c2.211-6.783,6.745-11.203,13.977-12.291c8.057-1.199,15.25,0.375,20.271,7.494c2.549,3.598,3.521,7.831,3.859,12.141
				c0.299,3.709,0.338,7.458,0.375,11.167c0.074,8.131,0.15,16.299,0,24.43c-0.037,2.85-0.449,5.771-1.162,8.545
				c-2.174,8.395-9.629,13.938-18.398,14.051c-8.842,0.111-16.748-5.434-18.959-13.863c-1.012-3.785-1.273-7.793-1.499-11.729
				C204.934,133.178,205.122,128.495,205.122,123.774L205.122,123.774z M231.352,124.522c-0.076,0-0.15,0-0.188,0
				c0-5.92,0.037-11.877-0.039-17.797c-0.037-1.574-0.225-3.187-0.674-4.686c-0.787-2.66-2.885-4.046-5.62-3.971
				c-2.698,0.037-4.722,1.572-5.396,4.271c-0.375,1.422-0.563,2.885-0.563,4.346c0.037,11.69,0.074,23.418,0.225,35.11
				c0,1.686,0.263,3.41,0.713,4.982c0.786,2.66,2.885,4.047,5.619,4.047c2.549,0,4.609-1.498,5.322-4.158
				c0.412-1.574,0.6-3.223,0.6-4.834C231.389,136.063,231.352,130.293,231.352,124.522z"/>
		</g>
	</g>
	<g>
		<path fill="#FFFFFF" d="M383.3,158.809c0,2.174-0.676,3.947-2.026,5.322c-1.354,1.375-3.117,2.063-5.289,2.063h-26.214
			c-2.174,0-3.959-0.688-5.354-2.063c-1.397-1.375-2.097-3.148-2.097-5.322v-26.412h9.25v25.613h22.485v-24.814l-28.739-34.729
			c-1.998-2.395-2.996-5.033-2.996-7.916v-21.09c0-2.172,0.699-3.947,2.097-5.322c1.396-1.373,3.182-2.063,5.354-2.063h26.214
			c2.172,0,3.936,0.688,5.289,2.063c1.352,1.375,2.026,3.15,2.026,5.322v24.217h-9.246V70.26h-22.485v21.953l28.873,34.729
			c1.905,2.307,2.858,4.9,2.858,7.783V158.809z"/>
		<path fill="#FFFFFF" d="M441.513,62.676l-12.641,42.111c-1.596,4.214-3.703,11.243-6.318,21.09v40.314h-9.248v-40.314
			c-0.621-3.371-1.573-6.92-2.86-10.645c-2.129-6.387-3.283-9.869-3.459-10.446l-12.642-42.111c0-0.045,0-0.244,0-0.6h9.381
			l14.304,52.092l14.172-52.092h9.313C441.513,62.387,441.513,62.587,441.513,62.676z"/>
		<path fill="#FFFFFF" d="M495.733,166.194h-6.388l-27.809-76.575v76.575h-8.715V62.076h6.92l27.274,75.245V62.076h8.716
			L495.733,166.194L495.733,166.194z"/>
		<path fill="#FFFFFF" d="M554.079,158.809c0,2.174-0.711,3.947-2.129,5.322c-1.42,1.375-3.217,2.063-5.39,2.063h-26.812
			c-2.172,0-3.947-0.688-5.322-2.063s-2.061-3.148-2.061-5.322V69.461c0-2.172,0.686-3.947,2.061-5.322
			c1.375-1.373,3.15-2.063,5.322-2.063h26.813c2.173,0,3.97,0.688,5.39,2.063c1.418,1.375,2.129,3.15,2.129,5.322v24.217h-9.314
			V70.26h-23.151v87.75h23.151v-25.613h9.314L554.079,158.809L554.079,158.809z"/>
	</g>
</g>
<g>
	<path fill="#FFFFFF" d="M24.313,232.113l-3.617,26.645h-1.919l-2.887-20.039c-0.012-0.35-0.033-0.871-0.067-1.562
		c0,0.362-0.023,0.883-0.068,1.562l-2.887,20.039h-1.919l-3.617-26.645h2.344l2.259,19.173c0.011,0.43,0.033,1.063,0.067,1.901
		c-0.012-0.43,0.012-1.063,0.068-1.901l2.751-19.173h2.021l2.734,19.173c0.022,0.43,0.045,1.063,0.067,1.901
		c0-0.43,0.028-1.063,0.085-1.901l2.259-19.173H24.313z"/>
	<path fill="#FFFFFF" d="M38.188,258.689h-2.344l-0.934-5.91h-5.281l-0.934,5.91H26.42v-0.067l4.737-26.577h2.326L38.188,258.689z
		 M34.604,250.692l-2.326-14.401l-2.344,14.401H34.604z"/>
	<path fill="#FFFFFF" d="M50.534,234.202h-4.11v24.487h-2.36v-24.487H39.92v-2.089h10.614V234.202z"/>
	<path fill="#FFFFFF" d="M63.949,256.804c0,0.556-0.181,1.008-0.544,1.358c-0.362,0.352-0.82,0.526-1.375,0.526h-6.844
		c-0.555,0-1.008-0.175-1.358-0.526c-0.352-0.351-0.526-0.803-0.526-1.358v-22.807c0-0.554,0.175-1.008,0.526-1.358
		c0.351-0.351,0.804-0.526,1.358-0.526h6.844c0.555,0,1.013,0.176,1.375,0.526c0.363,0.351,0.544,0.805,0.544,1.358v6.182h-2.378
		v-5.978h-5.909V256.6h5.909v-6.537h2.378V256.804z"/>
	<path fill="#FFFFFF" d="M79.198,258.689h-2.36v-12.77h-6.401v12.77h-2.361v-26.576h2.361v11.684h6.401v-11.684h2.36V258.689z"/>
	<path fill="#FFFFFF" d="M100.936,232.265l-3.227,10.75c-0.407,1.076-0.945,2.87-1.613,5.384v10.29h-2.36v-10.29
		c-0.159-0.86-0.402-1.767-0.73-2.718c-0.543-1.63-0.838-2.519-0.883-2.666l-3.227-10.75c0-0.011,0-0.062,0-0.152h2.395
		l3.651,13.297l3.617-13.297h2.377C100.936,232.192,100.936,232.244,100.936,232.265z"/>
	<path fill="#FFFFFF" d="M115.048,256.804c0,0.556-0.179,1.008-0.536,1.358c-0.355,0.352-0.812,0.526-1.366,0.526h-7.438
		c-0.555,0-1.008-0.175-1.358-0.526c-0.352-0.351-0.526-0.803-0.526-1.358v-22.807c0-0.554,0.175-1.008,0.526-1.358
		c0.351-0.351,0.804-0.526,1.358-0.526h7.438c0.555,0,1.011,0.176,1.366,0.526c0.357,0.351,0.536,0.805,0.536,1.358V256.804z
		 M112.687,256.6v-22.398h-6.504V256.6H112.687z"/>
	<path fill="#FFFFFF" d="M130.314,256.804c0,0.556-0.179,1.008-0.535,1.358c-0.356,0.352-0.813,0.526-1.367,0.526h-7.234
		c-0.555,0-1.008-0.175-1.358-0.526c-0.352-0.351-0.526-0.803-0.526-1.358v-24.691h2.36V256.6h6.3v-24.487h2.361V256.804z"/>
	<path fill="#FFFFFF" d="M145.869,258.689h-2.479l-4.942-14.23l0.322-0.475h4.212v-9.782h-6.063v24.487h-2.36v-26.576h8.898
		c0.555,0,1.007,0.176,1.358,0.526c0.351,0.351,0.526,0.805,0.526,1.358v10.088c0,1.279-0.86,1.918-2.581,1.918
		c-0.17,0-0.419-0.008-0.747-0.025c-0.329-0.017-0.566-0.025-0.713-0.025C142.829,250.187,144.353,254.433,145.869,258.689z"/>
	<path fill="#FFFFFF" d="M164.77,234.202h-6.198v10.087h5.706v2.123h-5.706v12.277h-2.36v-26.576h8.559V234.202z"/>
	<path fill="#FFFFFF" d="M178.746,258.689h-2.344l-0.934-5.91h-5.281l-0.934,5.91h-2.276v-0.067l4.738-26.577h2.326L178.746,258.689
		z M175.163,250.692l-2.327-14.401l-2.343,14.401H175.163z"/>
	<path fill="#FFFFFF" d="M192.314,232.113l-4.603,26.645h-2.225l-4.602-26.645h2.344l3.294,21.16l0.103,1.731
		c0.011-0.396,0.051-0.974,0.118-1.731l3.295-21.16H192.314z"/>
	<path fill="#FFFFFF" d="M206.731,256.804c0,0.556-0.178,1.008-0.535,1.358c-0.356,0.352-0.813,0.526-1.367,0.526h-7.438
		c-0.555,0-1.008-0.175-1.358-0.526c-0.352-0.351-0.526-0.803-0.526-1.358v-22.807c0-0.554,0.175-1.008,0.526-1.358
		c0.351-0.351,0.804-0.526,1.358-0.526h7.438c0.555,0,1.011,0.176,1.367,0.526c0.357,0.351,0.535,0.805,0.535,1.358V256.804z
		 M204.371,256.6v-22.398h-6.504V256.6H204.371z"/>
	<path fill="#FFFFFF" d="M221.998,256.804c0,0.556-0.178,1.008-0.534,1.358c-0.357,0.352-0.813,0.526-1.367,0.526h-7.234
		c-0.555,0-1.008-0.175-1.358-0.526c-0.352-0.351-0.526-0.803-0.526-1.358v-24.691h2.36V256.6h6.3v-24.487h2.36V256.804z"/>
	<path fill="#FFFFFF" d="M237.554,258.689h-2.479l-4.941-14.23l0.322-0.475h4.212v-9.782h-6.063v24.487h-2.36v-26.576h8.898
		c0.555,0,1.007,0.176,1.358,0.526c0.351,0.351,0.526,0.805,0.526,1.358v10.088c0,1.279-0.86,1.918-2.581,1.918
		c-0.17,0-0.419-0.008-0.747-0.025c-0.329-0.017-0.566-0.025-0.714-0.025C234.514,250.187,236.036,254.433,237.554,258.689z"/>
	<path fill="#FFFFFF" d="M243.582,258.689h-2.36v-26.576h2.36V258.689z"/>
	<path fill="#FFFFFF" d="M257.168,234.202h-4.11v24.487h-2.36v-24.487h-4.144v-2.089h10.614V234.202z"/>
	<path fill="#FFFFFF" d="M268.665,258.689h-8.729v-26.576h8.627v2.089h-6.266v9.917h5.705v2.123h-5.705V256.6h6.368V258.689z"/>
	<path fill="#FFFFFF" d="M289.841,232.265l-3.227,10.75c-0.407,1.076-0.945,2.87-1.613,5.384v10.29h-2.36v-10.29
		c-0.159-0.86-0.402-1.767-0.73-2.718c-0.543-1.63-0.837-2.519-0.883-2.666l-3.227-10.75c0-0.011,0-0.062,0-0.152h2.395
		l3.651,13.297l3.617-13.297h2.377C289.841,232.192,289.841,232.244,289.841,232.265z"/>
	<path fill="#FFFFFF" d="M303.953,256.804c0,0.556-0.179,1.008-0.536,1.358c-0.355,0.352-0.812,0.526-1.366,0.526h-7.438
		c-0.556,0-1.009-0.175-1.359-0.526c-0.351-0.351-0.526-0.803-0.526-1.358v-22.807c0-0.554,0.176-1.008,0.526-1.358
		s0.804-0.526,1.359-0.526h7.438c0.555,0,1.011,0.176,1.366,0.526c0.357,0.351,0.536,0.805,0.536,1.358V256.804z M301.592,256.6
		v-22.398h-6.504V256.6H301.592z"/>
	<path fill="#FFFFFF" d="M319.22,256.804c0,0.556-0.179,1.008-0.535,1.358c-0.356,0.352-0.813,0.526-1.367,0.526h-7.234
		c-0.555,0-1.008-0.175-1.358-0.526c-0.352-0.351-0.526-0.803-0.526-1.358v-24.691h2.36V256.6h6.3v-24.487h2.361V256.804z"/>
	<path fill="#FFFFFF" d="M332.617,234.202h-4.109v24.487h-2.36v-24.487h-4.144v-2.089h10.613V234.202z"/>
	<path fill="#FFFFFF" d="M346.408,256.804c0,0.556-0.179,1.008-0.536,1.358c-0.356,0.352-0.812,0.526-1.367,0.526h-7.234
		c-0.554,0-1.007-0.175-1.358-0.526c-0.351-0.351-0.526-0.803-0.526-1.358v-24.691h2.36V256.6h6.301v-24.487h2.361V256.804z"/>
	<path fill="#FFFFFF" d="M361.3,256.804c0,0.556-0.175,1.008-0.526,1.358c-0.351,0.352-0.804,0.526-1.358,0.526h-8.763v-26.576
		h8.694c0.556,0,1.008,0.176,1.359,0.526c0.351,0.351,0.526,0.805,0.526,1.358v7.896c0,0.702-0.317,1.29-0.951,1.767
		c-0.623,0.374-1.245,0.747-1.868,1.121l2.005,1.29c0.588,0.363,0.882,0.929,0.882,1.698V256.804z M358.855,242.201v-7.999h-5.843
		v9.595h3.481L358.855,242.201z M358.923,256.6v-9.187l-2.395-1.563h-3.516V256.6H358.923z"/>
	<path fill="#FFFFFF" d="M374.155,258.689h-8.729v-26.576h8.627v2.089h-6.267v9.917h5.706v2.123h-5.706V256.6h6.369V258.689z"/>
	<path fill="#FFFFFF" d="M395.025,232.113l-4.601,26.645h-2.226l-4.603-26.645h2.344l3.295,21.16l0.102,1.731
		c0.012-0.396,0.052-0.974,0.119-1.731l3.295-21.16H395.025z"/>
	<path fill="#FFFFFF" d="M400.714,258.689h-2.36v-26.576h2.36V258.689z"/>
	<path fill="#FFFFFF" d="M416.1,253.883c0,1.404-0.461,2.557-1.385,3.456c-0.922,0.9-2.085,1.35-3.489,1.35h-6.08v-26.576h6.08
		c1.415,0,2.582,0.449,3.498,1.351c0.918,0.899,1.376,2.051,1.376,3.455V253.883z M413.739,253.646v-16.523
		c0-0.872-0.275-1.577-0.824-2.114c-0.549-0.538-1.26-0.807-2.131-0.807h-3.278V256.6h3.143c0.917,0,1.661-0.263,2.232-0.789
		C413.453,255.285,413.739,254.562,413.739,253.646z"/>
	<path fill="#FFFFFF" d="M428.973,258.689h-8.729v-26.576h8.627v2.089h-6.267v9.917h5.706v2.123h-5.706V256.6h6.369V258.689z"/>
	<path fill="#FFFFFF" d="M443.882,256.804c0,0.556-0.177,1.008-0.534,1.358c-0.356,0.352-0.813,0.526-1.367,0.526h-7.438
		c-0.554,0-1.007-0.175-1.358-0.526c-0.351-0.351-0.526-0.803-0.526-1.358v-22.807c0-0.554,0.176-1.008,0.526-1.358
		c0.352-0.351,0.805-0.526,1.358-0.526h7.438c0.555,0,1.011,0.176,1.367,0.526c0.357,0.351,0.534,0.805,0.534,1.358V256.804z
		 M441.521,256.6v-22.398h-6.504V256.6H441.521z"/>
	<path fill="#FFFFFF" d="M458.487,256.804c0,0.556-0.173,1.008-0.518,1.358c-0.346,0.352-0.796,0.526-1.352,0.526h-6.689
		c-0.556,0-1.011-0.175-1.368-0.526c-0.356-0.351-0.534-0.803-0.534-1.358v-6.741h2.36v6.537h5.74v-6.334l-7.337-8.864
		c-0.51-0.611-0.764-1.285-0.764-2.021v-5.384c0-0.554,0.178-1.008,0.534-1.358c0.357-0.351,0.813-0.526,1.368-0.526h6.689
		c0.556,0,1.006,0.176,1.352,0.526c0.345,0.351,0.518,0.805,0.518,1.358v6.182h-2.36v-5.978h-5.74v5.604l7.37,8.865
		c0.486,0.588,0.73,1.251,0.73,1.986V256.804z"/>
	<path fill="#FFFFFF" d="M485.367,232.113l-3.616,26.645h-1.919l-2.887-20.039c-0.012-0.35-0.034-0.871-0.067-1.562
		c0,0.362-0.023,0.883-0.069,1.562l-2.887,20.039h-1.918l-3.617-26.645h2.343l2.259,19.173c0.012,0.43,0.034,1.063,0.068,1.901
		c-0.013-0.43,0.011-1.063,0.067-1.901l2.752-19.173h2.021l2.733,19.173c0.022,0.43,0.046,1.063,0.067,1.901
		c0-0.43,0.029-1.063,0.086-1.901l2.258-19.173H485.367z"/>
	<path fill="#FFFFFF" d="M491.023,258.689h-2.36v-26.576h2.36V258.689z"/>
	<path fill="#FFFFFF" d="M504.609,234.202H500.5v24.487h-2.36v-24.487h-4.144v-2.089h10.613V234.202z"/>
	<path fill="#FFFFFF" d="M518.499,258.689h-2.36v-12.77h-6.401v12.77h-2.361v-26.576h2.361v11.684h6.401v-11.684h2.36V258.689z"/>
	<path fill="#FFFFFF" d="M540.236,232.265l-3.226,10.75c-0.407,1.076-0.946,2.87-1.613,5.384v10.29h-2.36v-10.29
		c-0.158-0.86-0.402-1.767-0.73-2.718c-0.543-1.63-0.838-2.519-0.884-2.666l-3.226-10.75c0-0.011,0-0.062,0-0.152h2.394
		l3.651,13.297l3.617-13.297h2.377C540.236,232.192,540.236,232.244,540.236,232.265z"/>
	<path fill="#FFFFFF" d="M554.348,256.804c0,0.556-0.178,1.008-0.534,1.358c-0.356,0.352-0.813,0.526-1.367,0.526h-7.438
		c-0.555,0-1.008-0.175-1.358-0.526c-0.351-0.351-0.526-0.803-0.526-1.358v-22.807c0-0.554,0.176-1.008,0.526-1.358
		s0.804-0.526,1.358-0.526h7.438c0.555,0,1.011,0.176,1.367,0.526s0.534,0.805,0.534,1.358V256.804z M551.987,256.6v-22.398h-6.504
		V256.6H551.987z"/>
	<path fill="#FFFFFF" d="M569.615,256.804c0,0.556-0.179,1.008-0.535,1.358c-0.357,0.352-0.813,0.526-1.367,0.526h-7.234
		c-0.555,0-1.008-0.175-1.359-0.526c-0.35-0.351-0.526-0.803-0.526-1.358v-24.691h2.36V256.6h6.302v-24.487h2.36V256.804z"/>
	<path fill="#FFFFFF" d="M585.17,258.689h-2.479l-4.941-14.23l0.322-0.475h4.211v-9.782h-6.063v24.487h-2.361v-26.576h8.899
		c0.555,0,1.007,0.176,1.358,0.526s0.526,0.805,0.526,1.358v10.088c0,1.279-0.86,1.918-2.581,1.918c-0.17,0-0.419-0.008-0.747-0.025
		c-0.329-0.017-0.566-0.025-0.714-0.025C582.13,250.187,583.653,254.433,585.17,258.689z"/>
	<path fill="#FFFFFF" d="M604.071,234.202h-6.199v10.087h5.706v2.123h-5.706v12.277h-2.36v-26.576h8.56V234.202z"/>
	<path fill="#FFFFFF" d="M618.641,258.689h-2.479l-4.941-14.23l0.322-0.475h4.211v-9.782h-6.063v24.487h-2.36v-26.576h8.898
		c0.556,0,1.008,0.176,1.358,0.526c0.352,0.351,0.526,0.805,0.526,1.358v10.088c0,1.279-0.859,1.918-2.581,1.918
		c-0.169,0-0.418-0.008-0.746-0.025c-0.329-0.017-0.566-0.025-0.714-0.025C615.602,250.187,617.124,254.433,618.641,258.689z"/>
	<path fill="#FFFFFF" d="M624.67,258.689h-2.36v-26.576h2.36V258.689z"/>
	<path fill="#FFFFFF" d="M637.831,258.689h-8.729v-26.576h8.627v2.089h-6.267v9.917h5.706v2.123h-5.706V256.6h6.369V258.689z"/>
	<path fill="#FFFFFF" d="M652.469,258.689h-1.63l-7.099-19.546v19.546h-2.225v-26.576h1.767l6.963,19.207v-19.207h2.224V258.689z"/>
	<path fill="#FFFFFF" d="M667.668,253.883c0,1.404-0.461,2.557-1.384,3.456c-0.923,0.9-2.086,1.35-3.49,1.35h-6.079v-26.576h6.079
		c1.415,0,2.582,0.449,3.499,1.351c0.917,0.899,1.375,2.051,1.375,3.455V253.883z M665.308,253.646v-16.523
		c0-0.872-0.274-1.577-0.823-2.114c-0.55-0.538-1.26-0.807-2.131-0.807h-3.278V256.6h3.142c0.918,0,1.661-0.263,2.232-0.789
		C665.021,255.285,665.308,254.562,665.308,253.646z"/>
</g>
</svg>
