<?xml version="1.0" encoding="utf-8"?>
<!-- Generator: Adobe Illustrator 22.0.1, SVG Export Plug-In . SVG Version: 6.00 Build 0)  -->
<svg version="1.1" id="Layer_1" xmlns="http://www.w3.org/2000/svg" xmlns:xlink="http://www.w3.org/1999/xlink" x="0px" y="0px"
	 viewBox="0 0 6755.9 3056.9" style="enable-background:new 0 0 6755.9 3056.9;" xml:space="preserve">
<style type="text/css">
	.st0{fill:#E23237;}
	.st1{fill:#B52E31;}
	.st2{fill:#FFFFFF;}
	.st3{fill:#007AFF;}
	.st4{opacity:0.6;}
	.st5{fill:none;stroke:#121212;stroke-width:30;stroke-linecap:round;stroke-miterlimit:10;}
	.st6{fill:#121212;}
	.st7{display:none;}
	.st8{display:inline;}
	.st9{font-family:'Cairo-Light';}
	.st10{font-size:395.9214px;}
	.st11{font-family:'Cairo-Regular';}
	.st12{display:inline;fill:#007AFF;}
	.st13{font-size:464px;}
	.st14{font-family:'Cairo-ExtraLight';}
	.st15{display:inline;fill:#E23237;}
	.st16{font-family:'Cairo-SemiBold';}
	.st17{font-size:461px;}
</style>
<g>
	<path class="st0" d="M263,697.6l1156.3-412l1187.5,404.7l-192.3,1529.9l-995.2,551.2l-979.6-543.8L263,697.6z"/>
	<path class="st1" d="M2606.8,690.3L1419.3,285.6v2485.7l995.2-550.2L2606.8,690.3L2606.8,690.3z"/>
	<path class="st2" d="M1421.2,575.8L700.7,2178.9l269.2-4.6l144.7-361.6h646.4l158.4,366.2l257.3,4.6L1421.2,575.8L1421.2,575.8z
		 M1423,1089.5l243.5,509h-457.8L1423,1089.5L1423,1089.5z"/>
	<g>
		<circle class="st3" cx="2386" cy="827.3" r="304.5"/>
	</g>
	<g>
		<path class="st2" d="M2492.1,723.8l-109.8,274.7h-43.5l112.7-266.2h-155v-35.9h195.6V723.8z"/>
	</g>
</g>
<g>
	<g class="st4">
		<line class="st5" x1="2941.1" y1="349.9" x2="2941.1" y2="2707"/>
		<g>
			<path class="st6" d="M2873.4,353.3c0-37.4,30.3-67.7,67.7-67.7s67.7,30.3,67.7,67.7c0,37.4-30.3,67.7-67.7,67.7
				S2873.4,390.6,2873.4,353.3z"/>
		</g>
		<g>
			<path class="st6" d="M2873.4,2703.6c0,37.4,30.3,67.7,67.7,67.7s67.7-30.3,67.7-67.7c0-37.4-30.3-67.7-67.7-67.7
				S2873.4,2666.3,2873.4,2703.6z"/>
		</g>
	</g>
</g>
<g>
	<path d="M3218.1,722.5h111.5c31.4,0,54.7,5.7,69.9,17.2c15.2,11.5,22.9,29.1,22.9,52.9c0,16.9-3.7,30.4-11,40.4
		c-7.3,10-18.1,17.7-32.5,23c18.6,5.5,32.4,13.8,41.4,24.7c9,11,13.5,25.8,13.5,44.5c0,25.6-8.2,44.2-24.5,55.8
		c-16.3,11.6-40.3,17.4-72,17.4h-119.3V722.5z M3333.2,848.4c22.2,0,38.7-4.6,49.4-13.7c10.7-9.1,16-22.9,16-41.4
		c0-18.7-5.5-32.2-16.5-40.4c-11-8.2-28.6-12.3-53-12.3h-88.2v107.7H3333.2z M3336.4,980.3c23.8,0,42.1-4.5,54.9-13.5
		c12.8-9,19.2-23.2,19.2-42.8c0-21.4-7.1-36.3-21.3-44.7c-14.2-8.4-32.8-12.7-56-12.7h-92.3v113.6H3336.4z"/>
	<path d="M3520.2,993.3c-10.4-5.8-17.6-15.6-21.7-29.5s-6.2-33.9-6.2-60V800.5h22.9v102.1c0,22.2,1.4,39,4.1,50.5
		c2.7,11.5,7.8,19.6,15.1,24.3s18.3,7.1,32.9,7.1c25.6,0,50.1-5.9,73.6-17.8V800.5h22.4v198h-22.9v-15c-12.2,6.3-24,11-35.4,14.1
		c-11.4,3-24.8,4.6-40,4.6C3545.5,1002,3530.6,999.1,3520.2,993.3z"/>
	<path d="M3732.7,721.3h21.9v26.1h-21.9V721.3z M3732.7,800.5h21.9v198h-21.9V800.5z"/>
	<path d="M3827.4,711h22.9v287.4h-22.9V711z"/>
	<path d="M3927.9,978.1c-12.2-16-18.3-40.8-18.3-74.6c0-25.6,3.3-46.1,9.8-61.6c6.5-15.4,17.1-26.8,31.5-34
		c14.5-7.3,33.9-10.9,58.3-10.9c19.2,0,37.8,1.6,55.8,4.8V711h21.9v287.4h-22.4v-15.8c-23.8,12.9-49.2,19.4-76.3,19.4
		C3960.2,1002,3940.1,994.1,3927.9,978.1z M4026.2,980.1c12.2-3,21.6-6.1,28.3-9.3l10.5-4.4V819.1c-20.1-3.4-39-5.1-56.7-5.1
		c-19.2,0-34.2,3-45,9.1c-10.8,6.1-18.5,15.3-23.1,27.7c-4.6,12.4-6.9,29-6.9,49.9c0,28,4.3,49,13,63c8.7,14,23.7,21,45,21
		C4002.4,984.6,4014,983.1,4026.2,980.1z"/>
	<path class="st3" d="M4271,994.8l-19.3-2.3l4.3-29.7c48.9,5.6,85.9,8.4,110.9,8.4c52.8,0,79.3-21.5,79.3-64.5
		c0-11.8-2.4-21-7.2-27.8c-4.8-6.8-13-12.4-24.6-16.7c-11.6-4.3-28.5-8.4-50.6-12.1c-29.3-5.3-52.1-11.3-68.3-18.1
		c-16.3-6.8-28.1-15.9-35.6-27.4c-7.5-11.4-11.2-26.8-11.2-45.9c0-57.5,39.8-86.3,119.5-86.3c27.5,0,64.8,3.1,112,9.3l-3.8,30.2
		c-51.4-5.3-86.6-7.9-105.5-7.9c-53.6,0-80.4,17.5-80.4,52.4c0,13.3,2.6,23.4,7.8,30.4c5.2,7,14,12.6,26.5,16.9
		c12.5,4.3,32.3,9.1,59.5,14.4c26.4,5.3,46.9,11.1,61.3,17.6c14.5,6.5,25.1,15.1,31.9,25.8c6.8,10.7,10.2,24.8,10.2,42.5
		c0,65.9-39.5,98.8-118.4,98.8C4344,1002.7,4311.3,1000,4271,994.8z"/>
	<path class="st3" d="M4545,773.7h28.9v224.8H4545V773.7z"/>
	<path class="st3" d="M4826.9,773.7v224.8h-52.9l-100.9-202.7h-7.1v202.7h-28.9V773.7h54l99.7,202.7h7.5V773.7H4826.9z"/>
	<path class="st3" d="M4921.3,989.4c-14.6-8.2-25.1-20.7-31.5-37.5c-6.4-16.8-9.6-38.7-9.6-65.8c0-26.8,3.2-48.7,9.6-65.6
		s16.8-29.4,31.3-37.7c14.5-8.2,34.1-12.3,58.9-12.3c22.5,0,46.6,2.2,72.4,6.5l12.8,1.9l-1.1,20.8c-31-4.5-57.9-6.8-80.6-6.8
		c-19,0-33.8,3.1-44.4,9.3c-10.6,6.2-18.1,15.9-22.3,29.2c-4.3,13.3-6.4,31.6-6.4,54.7c0,23.2,2.1,41.4,6.4,54.7
		c4.2,13.3,11.6,23.1,22.1,29.4c10.5,6.3,25.2,9.4,44.2,9.4c16.7,0,34.6-1.5,53.6-4.5v-69.2h-43.1v-22.4h71.6v110.4
		c-31.5,5.2-59.6,7.8-84.4,7.8C4955.7,1001.7,4935.9,997.6,4921.3,989.4z"/>
	<path class="st3" d="M5264.6,976.1v22.4h-142.9V773.7h28.9v202.4H5264.6z"/>
	<path class="st3" d="M5330.2,795.8v77.6h106.5v21.8h-106.5v81.2h129v22.1h-157.9V773.7h157.9v22.1H5330.2z"/>
	<path class="st3" d="M5640.2,677.4h135.5c40.4,0,70.2,8.4,89.5,25.3c19.3,16.9,28.9,42.9,28.9,78.2c0,73-39.5,109.5-118.4,109.5
		h-94.3v108.1h-41.2V677.4z M5775.2,858.8c51.1,0,76.6-26,76.6-78c0-25.1-6.1-43.3-18.2-54.8c-12.1-11.4-31.6-17.2-58.4-17.2h-93.7
		v149.9H5775.2z"/>
	<path class="st3" d="M6079.5,940.7h-111l-18.7,57.8h-28.5l71.2-224.8h63l71.2,224.8h-28.5L6079.5,940.7z M5974.9,918.3h98.2
		l-39.4-123.1h-19.5L5974.9,918.3z"/>
	<path class="st3" d="M6193.7,989.4c-14.6-8.2-25.1-20.7-31.5-37.5c-6.4-16.8-9.6-38.7-9.6-65.8c0-26.8,3.2-48.7,9.6-65.6
		s16.8-29.4,31.3-37.7c14.5-8.2,34.1-12.3,58.9-12.3c22.5,0,46.6,2.2,72.4,6.5l12.8,1.9l-1.1,20.8c-31-4.5-57.9-6.8-80.6-6.8
		c-19,0-33.8,3.1-44.4,9.3c-10.6,6.2-18.1,15.9-22.3,29.2c-4.3,13.3-6.4,31.6-6.4,54.7c0,23.2,2.1,41.4,6.4,54.7
		c4.2,13.3,11.6,23.1,22.1,29.4c10.5,6.3,25.2,9.4,44.2,9.4c16.7,0,34.6-1.5,53.6-4.5v-69.2h-43.1v-22.4h71.6v110.4
		c-31.5,5.2-59.6,7.8-84.4,7.8C6228.2,1001.7,6208.4,997.6,6193.7,989.4z"/>
	<path class="st3" d="M6423,795.8v77.6h106.5v21.8H6423v81.2h129v22.1h-157.9V773.7H6552v22.1H6423z"/>
	<path d="M3192.9,1197.6h23.8l60.3,257.7h16l68.6-254.6h27l68.6,254.6h16l60.3-257.7h23.3l-66.3,276h-50.7l-64.9-246.7l-64.5,246.7
		h-50.7L3192.9,1197.6z"/>
	<path d="M3610,1453.8c-13.9-15.6-20.8-40.2-20.8-74c0-36.7,7.5-63.8,22.6-81.4c15.1-17.6,38.8-26.3,71.1-26.3
		c29.9,0,52,7.6,66.3,22.8c14.3,15.2,21.5,38.9,21.5,71.1l-0.5,16.6h-158.2c-0.3,19,1.8,34.1,6.4,45.3c4.6,11.2,12.4,19.4,23.5,24.5
		c11.1,5.1,26.6,7.7,46.4,7.7c8.2,0,17.9-0.2,29-0.6c11.1-0.4,21.4-1,30.9-1.8l13.7-1.2l0.9,16.2c-31.7,2.9-58.7,4.4-80.9,4.4
		C3647.9,1477.2,3623.9,1469.4,3610,1453.8z M3747.8,1365.9c0-27.4-5.2-47.2-15.5-59.2c-10.4-12-26.8-18-49.4-18
		c-23.5,0-41.1,6.3-53,18.8c-11.9,12.5-18,32-18.3,58.4H3747.8z"/>
	<path d="M3839.2,1474.4l-11-1.2v-287h21.9v101c25-10,50.4-15,76.3-15c19.8,0,35.3,3.3,46.6,9.9c11.3,6.6,19.3,17.2,24.2,31.7
		c4.9,14.5,7.3,34.3,7.3,59.4c0,27.7-3.2,48.9-9.6,63.5c-6.4,14.6-17.4,25-33.1,31.1c-15.7,6.1-38.5,9.1-68.3,9.1
		C3875.1,1476.8,3856.9,1476,3839.2,1474.4z M3951.2,1451c11.6-5.8,19.6-14.9,24-27.3c4.4-12.4,6.6-29.7,6.6-51.9
		c0-20.8-1.8-37.2-5.5-49.1c-3.7-11.9-9.8-20.4-18.3-25.5c-8.5-5.1-20.6-7.7-36.1-7.7c-19.5,0-43.4,4.8-71.8,14.3v154
		c25,1.3,41.7,2,50.3,2C3922.7,1459.7,3939.7,1456.8,3951.2,1451z"/>
	<path d="M4339.8,1393.6H4193l-27.4,80h-22.4l94.2-276h58.1l94.2,276h-22.4L4339.8,1393.6z M4278.5,1215.4h-23.8L4199,1375h134.8
		L4278.5,1215.4z"/>
	<path d="M4436.7,1275.6h22.4v15.8c24.7-12.9,50-19.4,75.9-19.4c28,0,48.2,7.9,60.6,23.8s18.5,41.3,18.5,76.4
		c0,25.1-3.2,45.2-9.6,60.4c-6.4,15.2-16.9,26.4-31.5,33.7c-14.6,7.3-34.3,10.9-59,10.9c-18.6,0-36.7-1.6-54.4-4.8v91.1h-22.9
		V1275.6z M4574.3,1439.7c11.3-13.6,16.9-35.6,16.9-65.9c0-30.1-4.8-51.7-14.4-64.7c-9.6-13.1-23.8-19.6-42.7-19.6
		c-10.4,0-21.7,1.5-34.1,4.6c-12.3,3-22.5,6.3-30.4,9.7l-10.1,5.1V1455c26.8,3.4,46,5.1,57.6,5.1
		C4543.9,1460.1,4563,1453.3,4574.3,1439.7z"/>
	<path d="M4674.3,1275.6h22.4v15.8c24.7-12.9,50-19.4,75.9-19.4c28,0,48.2,7.9,60.6,23.8s18.5,41.3,18.5,76.4
		c0,25.1-3.2,45.2-9.6,60.4c-6.4,15.2-16.9,26.4-31.5,33.7c-14.6,7.3-34.3,10.9-59,10.9c-18.6,0-36.7-1.6-54.4-4.8v91.1h-22.9
		V1275.6z M4811.9,1439.7c11.3-13.6,16.9-35.6,16.9-65.9c0-30.1-4.8-51.7-14.4-64.7c-9.6-13.1-23.8-19.6-42.7-19.6
		c-10.4,0-21.7,1.5-34.1,4.6c-12.3,3-22.5,6.3-30.4,9.7l-10.1,5.1V1455c26.8,3.4,46,5.1,57.6,5.1
		C4781.6,1460.1,4800.7,1453.3,4811.9,1439.7z"/>
	<path d="M4914.8,1186.1h22.9v287.4h-22.9V1186.1z"/>
	<path d="M5009.9,1196.4h21.9v26.1h-21.9V1196.4z M5009.9,1275.6h21.9v198h-21.9V1275.6z"/>
	<path d="M5126,1466.9c-13.1-6.9-22.4-17.7-27.9-32.5c-5.5-14.8-8.2-34.7-8.2-59.8c0-19,1.7-35.7,5-50.1
		c3.3-14.4,11.3-26.9,23.8-37.4c12.5-10.6,31.4-15.8,56.7-15.8c9.4,0,18.7,0.3,27.9,1c9.1,0.7,21.9,2.2,38.4,4.6l-1.4,16.2
		c-24.1-2.4-42.7-3.6-55.8-3.6c-18.6,0-33,2.6-43.2,7.7c-10.2,5.1-17.4,13.9-21.7,26.1c-4.3,12.3-6.4,29.8-6.4,52.5
		c0,21.4,2.1,38,6.2,49.9c4.1,11.9,11.4,20.5,21.9,25.9c10.5,5.4,25.7,8.1,45.5,8.1l54.4-3.6l0.9,16.6c-27.7,2.9-48.2,4.4-61.3,4.4
		C5157.3,1477.2,5139.1,1473.7,5126,1466.9z"/>
	<path d="M5297.6,1462.1c-10.5-10-15.8-24.2-15.8-42.4s5.2-32,15.5-41.4c10.4-9.4,27-15.2,49.8-17.6l81.8-7.1v-19
		c0-15.3-3.7-26.6-11.2-33.9c-7.5-7.3-17.8-10.9-30.9-10.9c-13.4,0-25.9,0.4-37.5,1.2c-11.6,0.8-29.7,2.4-54.4,4.8l-1.4-16.2
		c32.9-5,62.2-7.5,87.8-7.5c24.1,0,41.7,5,53,15c11.3,10,16.9,25.9,16.9,47.5v109.7c0.3,4.2,3.2,7.8,8.7,10.7
		c5.5,2.9,13.1,4.9,22.9,5.9l-0.9,16.2c-11,0-20.8-1.5-29.5-4.4c-8.7-2.9-15.5-7-20.3-12.3c-28.6,11.1-58.2,16.6-88.7,16.6
		C5323.4,1477.2,5308.1,1472.1,5297.6,1462.1z M5416.7,1449l12.3-3.6v-75.6l-79.1,6.7c-15.8,1.1-27.2,4.9-34.1,11.5
		c-6.9,6.6-10.3,16.4-10.3,29.3c0,28.5,13.3,42.8,39.8,42.8C5369.1,1460.1,5392.9,1456.4,5416.7,1449z"/>
	<path d="M5559.7,1471.6c-8.2-4.2-14.2-11.4-17.8-21.6c-3.7-10.2-5.5-24.6-5.5-43.4V1293h-34.7v-17.4h34.7v-63h21.9v63h80v17.4h-80
		v100.2c0,18.2,0.8,31.7,2.3,40.6c1.5,8.8,5,15.5,10.3,20c5.3,4.5,14.1,6.7,26.3,6.7l43.4-3.2l1.8,16.6c-21.3,2.6-37.5,4-48.5,4
		C5579.4,1477.9,5568,1475.8,5559.7,1471.6z"/>
	<path d="M5680.9,1196.4h21.9v26.1h-21.9V1196.4z M5680.9,1275.6h21.9v198h-21.9V1275.6z"/>
	<path d="M5797.2,1467.5c-13.6-6.5-23.1-16.9-28.6-31.3c-5.5-14.4-8.2-34.2-8.2-59.6c0-26.7,2.9-47.4,8.7-62.4
		c5.8-14.9,15.5-25.7,29-32.3c13.6-6.6,32.5-9.9,56.9-9.9c24.7,0,43.8,3.4,57.4,10.1c13.6,6.7,23.2,17.6,28.8,32.5
		c5.6,14.9,8.5,35.6,8.5,62c0,25.3-2.7,45.2-8,59.6c-5.3,14.4-14.8,24.8-28.3,31.3c-13.6,6.5-33,9.7-58.3,9.7
		C5830,1477.2,5810.8,1473.9,5797.2,1467.5z M5900.5,1451.8c9.9-5.3,16.7-13.7,20.3-25.1c3.7-11.5,5.5-28.2,5.5-50.1
		c0-23.2-2-41-5.9-53.3c-4-12.3-10.9-21-20.8-26.1c-9.9-5.1-24.5-7.7-43.7-7.7c-19.5,0-34.4,2.6-44.6,7.7
		c-10.2,5.1-17.3,13.9-21.3,26.1c-4,12.3-5.9,30-5.9,53.3c0,21.6,1.8,38.3,5.5,49.9c3.7,11.6,10.6,20.1,20.8,25.3
		c10.2,5.3,25.4,7.9,45.5,7.9C5875.7,1459.7,5890.6,1457.1,5900.5,1451.8z"/>
	<path d="M6010,1275.6h22.4v15c14.6-6.9,28.2-11.7,40.7-14.5c12.5-2.8,25.4-4.2,38.9-4.2c19.5,0,34.5,3,45,8.9
		c10.5,5.9,17.8,15.8,21.9,29.7c4.1,13.9,6.2,33.7,6.2,59.6v103.3h-21.9v-102.9c0-21.4-1.4-37.7-4.3-49.1
		c-2.9-11.3-8-19.5-15.3-24.5c-7.3-5-18.1-7.5-32.5-7.5c-12.5,0-25.3,1.5-38.4,4.4c-13.1,2.9-23,5.9-29.7,9.1l-10.1,4.4v166.3H6010
		V1275.6z"/>
	<path d="M3243,2011c-17.2-12.9-25.8-33.7-25.8-62.2v-199.1h16.5v199.9c0,44.9,28.9,67.3,86.8,67.3c30.8,0,53.8-5.3,69-15.8
		c15.2-10.6,22.9-27.7,22.9-51.5v-199.9h15.5v199.1c0,28.5-8.8,49.2-26.5,62.2c-17.7,12.9-44.2,19.4-79.5,19.4
		C3286.5,2030.4,3260.2,2023.9,3243,2011z"/>
	<path d="M3505.1,2025.6l-13.3-1.6l1.8-13.5c36,4.8,61.9,7.1,77.7,7.1c22.9,0,39.6-3.5,50.3-10.5c10.7-7,16-18.1,16-33.5
		c0-10.8-2.5-19.1-7.5-24.7c-5-5.7-11.4-9.6-19.2-11.9c-7.8-2.2-18.8-4.3-33.1-6.1c-5.5-0.5-9.6-1.1-12.3-1.6
		c-20.7-2.9-36.4-6.3-47.1-10.1c-10.7-3.8-18.2-8.8-22.6-14.8c-4.4-6.1-6.6-14.3-6.6-24.5c0-20.6,7.2-34.8,21.5-42.6
		c14.3-7.8,35-11.7,62.2-11.7c24.1,0,44.8,1.2,62.2,3.6l11.4,2l-0.9,12.7c-14.6-2.1-28.7-3.7-42.3-4.8c-13.6-1.1-24.3-1.6-32.2-1.6
		c-23.2,0-39.8,3.4-50.1,10.3c-10.2,6.9-15.3,16.8-15.3,29.7c0,9.8,2.7,17.1,8,22c5.3,4.9,12,8.3,19.9,10.1
		c7.9,1.8,21.8,4.4,41.6,7.5c21,3.2,36.8,6.5,47.3,9.9c10.5,3.4,18.4,8.6,23.8,15.4c5.3,6.9,8,16.6,8,29.3
		c0,20.6-7.1,35.5-21.3,44.7c-14.2,9.2-35.7,13.9-64.7,13.9C3552.7,2030.4,3531.6,2028.8,3505.1,2025.6z"/>
	<path d="M3711.7,1749.6h15.5v21.8h-15.5V1749.6z M3712.2,1828.8h15.5v198h-15.5V1828.8z"/>
	<path d="M3799.5,1828.8h15.5v15.8c15.5-7.1,29.8-12.1,42.7-15c12.9-2.9,26.3-4.4,40-4.4c19.8,0,34.8,2.9,45,8.7
		c10.2,5.8,17.4,15.7,21.5,29.7c4.1,14,6.2,34.2,6.2,60.6v102.5h-15.5v-102.5c0-22.7-1.5-40.1-4.3-52.3c-2.9-12.1-8.2-20.8-16-26.1
		c-7.8-5.3-19.1-7.9-34.1-7.9c-13.7,0-27.7,1.6-41.8,4.8c-14.2,3.2-24.9,6.5-32.2,9.9l-11,5.1v169.1h-16V1828.8z"/>
	<path d="M4063.2,2114.7c-12.5-4.2-21-10.6-25.6-19c-4.6-8.5-6.9-20.1-6.9-34.8c0-9.5,1.1-17,3.4-22.4c2.3-5.4,5.6-9.9,10.1-13.5
		c4.4-3.6,12.6-9.3,24.5-17.2c-3.4-1.8-5.9-5.1-7.5-9.7c-1.7-4.6-2.5-9.4-2.5-14.5c0-3.2,0.8-6.7,2.5-10.7c1.7-4,5.6-11.2,11.7-21.8
		c-26.2-6.6-39.3-26.7-39.3-60.2c0-22.4,6.2-39.1,18.7-49.9c12.5-10.8,32.9-16.2,61.3-16.2c14.9,0,30.5,1.7,46.6,5.1l64-1.2v13.9
		l-49.8,0.4c6.1,3.7,10.7,9.7,13.9,18c3.2,8.3,4.8,18.4,4.8,30.3c0,23.2-6.6,39.8-19.7,49.7c-13.1,9.9-34.1,14.8-63.1,14.8
		c-9.8,0-18.1-0.5-25.1-1.6l-3.7,7.9c-2.1,4.5-3.8,8.5-5,11.9c-1.2,3.4-1.8,6.7-1.8,9.9c0,7.9,3.3,13.2,9.8,15.8
		c6.5,2.6,16.2,4,29,4l31.5-0.4c16.5,0,29.9,1.5,40.2,4.4c10.4,2.9,18.4,8.3,24,16c5.6,7.8,8.5,19.1,8.5,33.9
		c0,14.8-3,26.7-9.1,35.8c-6.1,9.1-16.4,16-30.9,20.6c-14.5,4.6-34.4,6.9-59.7,6.9C4094,2121,4075.7,2118.9,4063.2,2114.7z
		 M4168.8,2103.8c11.6-3.3,19.9-8.7,24.9-16.2c5-7.5,7.5-17.9,7.5-31.1c0-11.1-1.6-19.4-4.8-24.9c-3.2-5.5-9.4-9.5-18.5-11.9
		c-9.1-2.4-23.2-3.4-42.1-3.2l-54.9-1.6c-10.1,5.8-17.4,10.6-21.9,14.5c-4.6,3.8-7.8,8-9.6,12.5c-1.8,4.5-2.7,10.6-2.7,18.2
		c0,12.7,2.2,22.5,6.6,29.5c4.4,7,11.8,11.9,22.2,14.8c10.4,2.9,25.3,4.4,44.8,4.4C4141.1,2108.7,4157.2,2107.1,4168.8,2103.8z
		 M4162,1931.6c9.4-7.8,14.2-21.6,14.2-41.4c0-19.5-4.6-33.2-13.9-41c-9.3-7.8-25.4-11.7-48.2-11.7c-23.5,0-40.1,4-49.8,12.1
		c-9.8,8.1-14.6,21.8-14.6,41.4c0,19.5,4.8,33.1,14.4,40.8c9.6,7.7,26,11.5,49.1,11.5C4136.2,1943.2,4152.5,1939.4,4162,1931.6z"/>
	<path class="st0" d="M4566.5,1952.6h-148l-22.9,74.2h-50.6l94.7-317.2h105.4l94.7,317.2h-50.6L4566.5,1952.6z M4429.2,1913.4h126.7
		l-49.5-166.4h-27.7L4429.2,1913.4z"/>
	<path class="st0" d="M4688.4,1796.3h49v15.2c15.3-7.4,29.1-12.6,41.5-15.7c12.4-3.1,25.5-4.6,39.4-4.6c22.4,0,39.9,3.8,52.7,11.5
		c12.8,7.7,21.8,19.6,27.1,35.7s8,38,8,65.7v122.6h-49.5v-121.7c0-19.4-1.3-34.3-4-44.9c-2.7-10.6-7.6-18.3-14.9-23
		c-7.3-4.8-17.8-7.1-31.7-7.1c-18.8,0-38.5,3.5-59.1,10.6l-9,3.7v182.6h-49.5V1796.3z"/>
	<path class="st0" d="M4991.5,2119.2c-17.9-10-26.9-26.7-26.9-50c0-13.2,2.9-23.7,8.8-31.6c5.9-7.8,16.6-17,32.2-27.4
		c-5.7-3.4-9.8-7.8-12.5-13.4s-4-11.4-4-17.5c0-4.3,1.1-8.8,3.5-13.6c2.3-4.8,7.5-13.1,15.7-25.1c-27-12.3-40.5-35.2-40.5-68.7
		c0-53.5,34.6-80.2,103.8-80.2c16.3,0,34.4,2,54.3,6l80.9-1.8v35.5l-47.4-1.4c5.7,5.5,9.8,11.6,12.2,18.2c2.5,6.6,3.7,15.1,3.7,25.6
		c0,27.4-8.4,47-25.3,58.8c-16.9,11.8-43.2,17.7-79,17.7c-10.6,0-19.3-0.6-26.1-1.8c-5.7,11.7-8.5,20.1-8.5,25.4
		c0,7.4,3.5,12.1,10.4,14.3c6.9,2.2,17.6,3.2,32.2,3.2h18.6c24.8,0.3,44.7,2,59.6,5.1c14.9,3.1,26.4,9.3,34.6,18.7
		c8.2,9.4,12.2,23,12.2,40.8c0,27-10,46.9-30.1,59.5c-20.1,12.6-52.4,18.9-97.1,18.9C5037.8,2134.2,5009.4,2129.2,4991.5,2119.2z
		 M5137.3,2089.7c10.8-6,16.2-16.2,16.2-30.7c0-8.6-2-15-6.1-19.1c-4.1-4.1-10.2-6.9-18.4-8.3c-8.2-1.4-20.2-2.2-36.2-2.5l-54.3-2.8
		c-9.6,6.5-16.2,12.3-19.7,17.5c-3.6,5.2-5.3,11.5-5.3,18.9c0,13.2,5.1,22.5,15.4,27.9c10.3,5.4,27.7,8.1,52.2,8.1
		C5107.8,2098.7,5126.5,2095.7,5137.3,2089.7z M5113.3,1906c8.3-7.1,12.5-18.7,12.5-35c0-16-4.3-27.5-12.8-34.6
		c-8.5-7.1-22.2-10.6-41-10.6c-19.2,0-33.1,3.6-41.8,10.8c-8.7,7.2-13,18.8-13,34.8c0,16,4.3,27.5,13,34.6
		c8.7,7.1,22.6,10.6,41.8,10.6C5091.3,1916.6,5105,1913.1,5113.3,1906z"/>
	<path class="st0" d="M5284.5,2020.6c-12.4-7.5-21.1-19.5-26.1-36c-5-16.4-7.5-39.1-7.5-68v-120.3h49.5v120.3
		c0,21.2,1.2,37.1,3.7,47.7c2.5,10.6,7.2,18.1,14.1,22.4c6.9,4.3,17.5,6.5,31.7,6.5c11.7,0,22.8-1.2,33.3-3.7
		c10.5-2.5,21.7-6,33.8-10.6v-182.6h49.5v230.5H5417v-15.2c-14.9,7.4-28.3,12.6-40.2,15.7c-11.9,3.1-24.9,4.6-39.1,4.6
		C5314.6,2031.9,5296.9,2028.1,5284.5,2020.6z"/>
	<path class="st0" d="M5543.1,1698.6h49.5v328.2h-49.5V1698.6z"/>
	<path class="st0" d="M5671.9,2013.4c-13.1-12.3-19.7-30-19.7-53c0-22.7,6.7-39.4,20.2-50c13.5-10.6,34.9-17.1,64.4-19.6l75.6-6v-18
		c0-13.5-3.4-23.3-10.1-29.3c-6.7-6-16.7-9-29.8-9c-29.8,0-64.2,1.8-103.3,5.5l-1.6-31.3c37.6-7.7,72.6-11.5,104.8-11.5
		c31.2,0,53.9,6.1,68.1,18.2c14.2,12.1,21.3,31.3,21.3,57.4v111.1c0.7,6.2,3.1,10.8,7.2,14.1c4.1,3.2,10.6,5.5,19.4,6.7l-1.6,33.2
		c-15.3,0-28.2-1.5-38.9-4.4s-20.1-7.4-28.2-13.6c-30.2,12-60.3,18-90.5,18C5704.2,2031.9,5685,2025.7,5671.9,2013.4z
		 M5801.2,1987.1l11.2-3.2v-67.8l-69.2,5.5c-13.8,1.2-24,4.8-30.6,10.8c-6.6,6-9.8,14.8-9.8,26.5c0,24.6,11.9,36.9,35.7,36.9
		C5760.1,1995.9,5781,1993,5801.2,1987.1z"/>
	<path class="st0" d="M5937.5,1796.3h49v29c31.6-17.5,62.8-28.9,93.7-34.1v43.3c-13.8,2.5-28.2,5.8-43.1,10.1
		c-14.9,4.3-27.3,8.5-37.3,12.4l-12.8,5.1v164.6h-49.5V1796.3z"/>
	<path d="M3235.9,2237.8v125.5H3379v13.1h-143.1v125.5H3219v-277.1h183.3v13.1H3235.9z"/>
	<path d="M3441.1,2303.9h15.5v30.9c26.5-17.2,56.8-28.8,91-34.8v14.3c-12.8,2.1-27.2,6.1-43.2,11.9c-16,5.8-27.4,11-34.1,15.4
		l-13.3,6.7v153.6h-16V2303.9z"/>
	<path d="M3592.7,2490.4c-10.5-10-15.8-23.9-15.8-41.6c0-17.7,5.1-31.2,15.3-40.6c10.2-9.4,26.3-15.4,48.2-18l86.8-7.5v-20.2
		c0-16.4-4-28.6-11.9-36.6c-7.9-8-18.7-12.1-32.5-12.1c-13.4,0-25.2,0.4-35.4,1.2c-10.2,0.8-29.3,2.6-57.4,5.5l-1.4-13.1
		c31.7-4.8,60.5-7.1,86.4-7.1c23.5,0,40.8,5.1,51.9,15.2c11.1,10.2,16.7,25.8,16.7,46.9v114c0.3,4,3.5,7.5,9.6,10.5
		c6.1,3,14.2,5.1,24.2,6.1l-0.9,12.3c-10.1,0-19.4-1.6-28.1-4.8c-8.7-3.2-15-7.4-19-12.7c-30.5,11.6-61.3,17.4-92.3,17.4
		C3618,2505.5,3603.2,2500.4,3592.7,2490.4z M3714.5,2480.5l12.8-4.4v-80.4l-85,7.1c-16.8,1.1-28.9,5.1-36.3,12.1
		c-7.5,7-11.2,17.5-11.2,31.5c0,30.6,14.3,45.9,43,45.9C3664.2,2492.4,3689.8,2488.4,3714.5,2480.5z"/>
	<path d="M3817.3,2303.9h15.5v15.8c24.4-12.9,50.1-19.4,77.3-19.4c29.3,0,48.9,7.1,59,21.4c8.8-5.3,21.8-10.2,38.9-14.6
		c17.1-4.5,34.6-6.7,52.6-6.7c18.3,0,32.3,3.2,42.1,9.5c9.7,6.3,16.5,16.5,20.3,30.5c3.8,14,5.7,33.7,5.7,59v102.5h-16v-102.5
		c0-23.5-1.5-41.2-4.3-53.3c-2.9-12-8.2-20.5-16-25.5c-7.8-5-19.4-7.5-35-7.5c-14.6,0-29,1.6-43,4.8c-14,3.2-23.9,6.5-29.7,9.9
		l-10.1,4.8c5.8,1.1,8.7,23.1,8.7,66.1v103.3h-16v-102.5c0-22.7-1.4-40.1-4.3-52.3c-2.9-12.1-8.2-20.8-15.8-26.1
		c-7.6-5.3-18.9-7.9-33.8-7.9c-13.4,0-26.9,1.5-40.5,4.6c-13.6,3-23.5,6.4-29.9,10.1l-9.6,5.1v169.1h-16V2303.9z"/>
	<path d="M4210,2481.9c-13.7-15.7-20.6-40.2-20.6-73.4c0-37,7.4-64.2,22.2-81.8c14.8-17.6,38.2-26.3,70.2-26.3
		c29.3,0,50.9,7.7,64.9,23c14,15.3,21,39.3,21,72.1v13.1h-161.8c-0.3,20.9,2,37.3,6.9,49.3c4.9,12,13.1,20.9,24.7,26.5
		c11.6,5.7,27.9,8.5,48.9,8.5c7.9,0,17.3-0.3,28.1-0.8c10.8-0.5,21.1-1.1,30.9-1.6l13.7-1.2l0.9,13.1c-37.2,2.1-63.4,3.2-78.6,3.2
		C4247.4,2505.5,4223.7,2497.6,4210,2481.9z M4350.7,2395.8c0-29.3-5.5-50.4-16.5-63.3c-11-12.9-28.3-19.4-52.1-19.4
		c-25.3,0-44.3,6.7-57.1,20.2c-12.8,13.5-19.4,34.3-19.7,62.6H4350.7z"/>
	<path d="M4404.7,2303.9h16.9l58.1,185.3h5l67.7-181.3h17.4l67.2,181.3h5.9l57.6-185.3h16.9l-61.7,198h-31.5l-63.1-177.4
		l-63.5,177.4h-31.1L4404.7,2303.9z"/>
	<path d="M4791.6,2496.2c-13.3-6.2-22.4-16.4-27.4-30.5c-5-14.1-7.5-34.2-7.5-60.4c0-27.4,2.7-48.6,8.2-63.5
		c5.5-14.9,14.9-25.5,28.1-31.9c13.3-6.3,32.2-9.5,56.9-9.5s43.7,3.2,56.9,9.7c13.3,6.5,22.5,17.2,27.9,32.1c5.3,14.9,8,36,8,63.1
		c0,26.1-2.4,46.2-7.3,60.2c-4.9,14-13.9,24.2-27.2,30.5c-13.3,6.3-32.7,9.5-58.3,9.5S4804.9,2502.4,4791.6,2496.2z M4898.6,2484.3
		c10.5-5.4,17.6-14.1,21.3-26.1c3.7-12,5.5-29.6,5.5-52.9c0-25.1-2-44-5.9-56.8c-4-12.8-11.2-21.8-21.7-27.1
		c-10.5-5.3-26.3-7.9-47.3-7.9s-37,2.6-47.8,7.9c-10.8,5.3-18.3,14.4-22.4,27.3c-4.1,12.9-6.2,31.8-6.2,56.6c0,23,1.9,40.5,5.7,52.7
		c3.8,12.1,11.1,20.9,21.9,26.3c10.8,5.4,27,8.1,48.7,8.1C4872,2492.4,4888.1,2489.7,4898.6,2484.3z"/>
	<path d="M5005.8,2303.9h15.5v30.9c26.5-17.2,56.8-28.8,91-34.8v14.3c-12.8,2.1-27.2,6.1-43.2,11.9c-16,5.8-27.4,11-34.1,15.4
		l-13.3,6.7v153.6h-16V2303.9z"/>
	<path d="M5156.2,2212.9h16v174.6h43.9l79.1-83.5h18.7l-84.6,89.1l87.8,108.9h-18.7l-82.7-101.8l-43.4-0.4v102.1h-16V2212.9z"/>
</g>
<g class="st7">
	<text transform="matrix(1.1545 0 0 1 3176.9177 998.482)" class="st8 st9 st10">Build</text>
	<text transform="matrix(1.1545 0 0 1 4125.3789 998.482)" class="st8 st11 st10"> </text>
	<text transform="matrix(1.1545 0 0 1 4225.9346 998.482)" class="st12 st11 st13">S</text>
	<text transform="matrix(0.8082 0 0 0.7 4516.2793 998.482)" class="st12 st11 st13">ingle</text>
	<text transform="matrix(1.1545 0 0 1 5479.9873 998.482)" class="st12 st11 st13"> P</text>
	<text transform="matrix(0.8082 0 0 0.7 5915.4961 998.482)" class="st12 st11 st13">age</text>
	<text transform="matrix(1.1545 0 0 1 6577.3457 998.482)" class="st12 st9 st10"> </text>
	<text transform="matrix(1.1545 0 0 1 3176.9177 1473.588)" class="st8 st9 st10">Web Application</text>
	<text transform="matrix(1.1545 0 0 1 3176.9177 2026.7877)" class="st8 st14 st10">Using </text>
	<text transform="matrix(1.1545 0 0 1 4335.6416 2026.7877)" class="st15 st16 st17">Angular</text>
	<text transform="matrix(1.1545 0 0 1 3176.9177 2501.8931)" class="st8 st14 st10">Framework</text>
</g>
<g>
	<g>
		<path class="st6" d="M6445.4,1201.3l2.7,124.5l2.5,124.5l4.6,249l0.2,9.6l-10,0.2l-263.9,4.4l14.2-14.2
			c0.3,20.2,0.7,40.4,0.7,60.5c0.1,20.2-0.1,40.4-0.2,60.5c-0.3,40.4-0.1,80.7-0.2,121.1v242.2v14.5h-14.5h-689.9l14.5-14.5V2917
			v14.5h-14.5H3707.1h-892.2h-55.8c-18.6,0-37.2,0-55.8,0.2c-18.6,0.1-37.2,0.3-55.8,0.2c-18.6-0.1-37.2-0.4-55.8-0.7l-223.1-3.7
			c-148.7-2.5-297.4-5.2-446.1-8.3v-4.1c148.7-3.1,297.4-5.8,446.1-8.3l223.1-3.7c18.6-0.3,37.2-0.7,55.8-0.7
			c18.6-0.1,37.2,0,55.8,0.2c18.6,0.1,37.2,0.2,55.8,0.2h55.8h892.2h1784.5l-14.5,14.5v-733.4V2169h14.5h689.9l-14.5,14.5v-242.2
			c0-40.4,0.1-80.7-0.2-121.1c-0.1-20.2-0.3-40.4-0.2-60.5c0-20.2,0.3-40.4,0.7-60.5l0.2-14.4l14,0.2l263.9,4.4l-9.8,9.8l4.6-249
			l2.5-124.5L6445.4,1201.3z"/>
		<g>
			<path class="st6" d="M1927.8,2815.6c-56,0-101.4,45.4-101.4,101.4c0,56,45.4,101.4,101.4,101.4c56,0,101.4-45.4,101.4-101.4
				C2029.2,2861,1983.7,2815.6,1927.8,2815.6z"/>
		</g>
	</g>
</g>
</svg>
