<?xml version="1.0" encoding="utf-8"?>
<!-- Generator: Adobe Illustrator 22.0.1, SVG Export Plug-In . SVG Version: 6.00 Build 0)  -->
<svg version="1.1" id="Layer_1" xmlns="http://www.w3.org/2000/svg" xmlns:xlink="http://www.w3.org/1999/xlink" x="0px" y="0px"
	 viewBox="0 0 6755.9 3056.9" style="enable-background:new 0 0 6755.9 3056.9;" xml:space="preserve">
<style type="text/css">
	.st0{fill:#E23237;}
	.st1{fill:#B52E31;}
	.st2{fill:#FFFFFF;}
	.st3{fill:#007AFF;}
	.st4{display:none;}
	.st5{display:inline;opacity:0.6;}
	.st6{fill:none;stroke:#121212;stroke-width:30;stroke-linecap:round;stroke-miterlimit:10;}
	.st7{fill:#121212;}
	.st8{display:inline;}
	.st9{display:inline;fill:#007AFF;}
	.st10{display:inline;fill:#E23237;}
	.st11{display:inline;fill:#121212;}
	.st12{font-family:'Cairo-Light';}
	.st13{font-size:236.2701px;}
	.st14{font-size:276.8966px;}
	.st15{font-family:'Cairo-ExtraLight';}
	.st16{font-size:275.1063px;}
	.st17{fill:none;stroke:#121212;stroke-width:15;stroke-miterlimit:10;}
</style>
<g>
	<path class="st0" d="M2547.4,462.9L3338.7,181l812.5,276.9l-131.6,1046.8l-681,377.1l-670.3-372.1L2547.4,462.9z"/>
	<path class="st1" d="M4151.2,457.9L3338.7,181v1700.8l681-376.5L4151.2,457.9L4151.2,457.9z"/>
	<path class="st2" d="M3339.9,379.6l-493,1096.9l184.2-3.1l99-247.5h442.3l108.4,250.6l176,3.1L3339.9,379.6L3339.9,379.6z
		 M3341.2,731l166.6,348.3h-313.2L3341.2,731L3341.2,731z"/>
	<g>
		<circle class="st3" cx="4000.1" cy="551.7" r="208.3"/>
	</g>
	<g>
		<path class="st2" d="M4072.7,480.8l-75.2,188h-29.8l77.1-182.2h-106v-24.5h133.8V480.8z"/>
	</g>
</g>
<g class="st4">
	<g class="st5">
		<line class="st6" x1="2941.1" y1="742.3" x2="2941.1" y2="2314.6"/>
		<g>
			<path class="st7" d="M2873.4,745.7c0-37.4,30.3-67.7,67.7-67.7s67.7,30.3,67.7,67.7c0,37.4-30.3,67.7-67.7,67.7
				S2873.4,783.1,2873.4,745.7z"/>
		</g>
		<g>
			<path class="st7" d="M2873.4,2311.2c0,37.4,30.3,67.7,67.7,67.7s67.7-30.3,67.7-67.7c0-37.4-30.3-67.7-67.7-67.7
				S2873.4,2273.8,2873.4,2311.2z"/>
		</g>
	</g>
</g>
<g class="st4">
	<path class="st8" d="M3535.1,1003.8h75.3c21.2,0,36.9,3.9,47.2,11.6c10.3,7.8,15.4,19.7,15.4,35.7c0,11.4-2.5,20.5-7.4,27.3
		c-4.9,6.8-12.2,11.9-21.9,15.5c12.6,3.7,21.9,9.3,27.9,16.7c6.1,7.4,9.1,17.4,9.1,30.1c0,17.3-5.5,29.9-16.5,37.7
		c-11,7.8-27.2,11.8-48.6,11.8h-80.6V1003.8z M3612.9,1088.8c15,0,26.1-3.1,33.3-9.2c7.2-6.2,10.8-15.5,10.8-27.9
		c0-12.7-3.7-21.7-11.1-27.3c-7.4-5.5-19.3-8.3-35.8-8.3h-59.6v72.7H3612.9z M3615.1,1177.8c16.1,0,28.4-3,37-9.1
		c8.6-6.1,13-15.7,13-28.9c0-14.4-4.8-24.5-14.4-30.2c-9.6-5.7-22.2-8.6-37.8-8.6h-62.4v76.7H3615.1z"/>
	<path class="st8" d="M3739.2,1186.7c-7-3.9-11.9-10.6-14.7-19.9c-2.8-9.4-4.2-22.9-4.2-40.5v-69.8h15.4v69c0,15,0.9,26.3,2.8,34.1
		c1.9,7.8,5.2,13.2,10.2,16.4s12.3,4.8,22.2,4.8c17.3,0,33.9-4,49.7-12v-112.3h15.1v133.7h-15.4V1180c-8.2,4.3-16.2,7.4-23.9,9.5
		c-7.7,2-16.7,3.1-27,3.1C3756.3,1192.6,3746.2,1190.6,3739.2,1186.7z"/>
	<path class="st8" d="M3882.7,1003h14.8v17.6h-14.8V1003z M3882.7,1056.4h14.8v133.7h-14.8V1056.4z"/>
	<path class="st8" d="M3946.6,996h15.4v194.1h-15.4V996z"/>
	<path class="st8" d="M4014.6,1176.4c-8.2-10.8-12.3-27.6-12.3-50.4c0-17.3,2.2-31.2,6.6-41.6c4.4-10.4,11.5-18.1,21.3-23
		c9.8-4.9,22.9-7.4,39.4-7.4c13,0,25.5,1.1,37.7,3.2V996h14.8v194.1h-15.1v-10.7c-16.1,8.7-33.2,13.1-51.6,13.1
		C4036.4,1192.6,4022.8,1187.2,4014.6,1176.4z M4080.9,1177.7c8.2-2,14.6-4.1,19.1-6.3l7.1-2.9V1069c-13.6-2.3-26.3-3.5-38.3-3.5
		c-13,0-23.1,2.1-30.4,6.2c-7.3,4.1-12.5,10.3-15.6,18.7c-3.1,8.4-4.6,19.6-4.6,33.7c0,18.9,2.9,33.1,8.8,42.5
		c5.9,9.5,16,14.2,30.4,14.2C4064.9,1180.8,4072.7,1179.8,4080.9,1177.7z"/>
	<path class="st9" d="M4246.2,1187.6l-13-1.6l2.9-20.1c33,3.8,58,5.6,74.9,5.6c35.7,0,53.5-14.5,53.5-43.6c0-7.9-1.6-14.2-4.9-18.8
		c-3.3-4.6-8.8-8.4-16.6-11.3c-7.8-2.9-19.2-5.6-34.2-8.1c-19.8-3.5-35.2-7.6-46.1-12.2c-11-4.6-19-10.8-24.1-18.5
		c-5.1-7.7-7.6-18.1-7.6-31c0-38.9,26.9-58.3,80.7-58.3c18.6,0,43.8,2.1,75.6,6.3l-2.5,20.4c-34.7-3.5-58.5-5.3-71.3-5.3
		c-36.2,0-54.3,11.8-54.3,35.4c0,9,1.7,15.8,5.2,20.5c3.5,4.7,9.5,8.5,17.9,11.4c8.4,2.9,21.8,6.2,40.2,9.7
		c17.8,3.6,31.7,7.5,41.4,11.9c9.8,4.4,16.9,10.2,21.5,17.4c4.6,7.2,6.9,16.8,6.9,28.7c0,44.5-26.7,66.7-80,66.7
		C4295.6,1193,4273.5,1191.2,4246.2,1187.6z"/>
	<path class="st9" d="M4431.3,1038.3h19.5v151.8h-19.5V1038.3z"/>
	<path class="st9" d="M4621.7,1038.3v151.8H4586l-68.1-136.9h-4.8v136.9h-19.5v-151.8h36.5l67.4,136.9h5.1v-136.9H4621.7z"/>
	<path class="st9" d="M4685.4,1184c-9.9-5.6-17-14-21.3-25.3c-4.3-11.3-6.5-26.1-6.5-44.4c0-18.1,2.2-32.9,6.5-44.3
		c4.3-11.4,11.4-19.9,21.1-25.4c9.8-5.6,23-8.3,39.8-8.3c15.2,0,31.5,1.5,48.9,4.4l8.6,1.3l-0.8,14c-20.9-3.1-39.1-4.6-54.5-4.6
		c-12.8,0-22.8,2.1-30,6.3c-7.2,4.2-12.2,10.7-15.1,19.7c-2.9,9-4.3,21.3-4.3,37c0,15.6,1.4,28,4.3,37c2.9,9,7.9,15.6,14.9,19.9
		c7.1,4.2,17.1,6.4,29.9,6.4c11.3,0,23.4-1,36.2-3.1v-46.7h-29.1v-15.1h48.4v74.6c-21.3,3.5-40.3,5.3-57,5.3
		C4708.7,1192.3,4695.3,1189.6,4685.4,1184z"/>
	<path class="st9" d="M4917.3,1175v15.1h-96.5v-151.8h19.5V1175H4917.3z"/>
	<path class="st9" d="M4961.6,1053.3v52.4h71.9v14.7h-71.9v54.8h87.1v14.9h-106.6v-151.8h106.6v14.9H4961.6z"/>
	<path class="st9" d="M5171,973.3h91.5c27.3,0,47.4,5.7,60.4,17.1c13,11.4,19.5,29,19.5,52.8c0,49.3-26.7,74-80,74h-63.7v73H5171
		V973.3z M5262.1,1095.8c34.5,0,51.7-17.5,51.7-52.6c0-16.9-4.1-29.2-12.3-37c-8.2-7.7-21.3-11.6-39.4-11.6h-63.3v101.2H5262.1z"/>
	<path class="st9" d="M5467.7,1151.1h-75l-12.7,39h-19.2l48.1-151.8h42.5l48.1,151.8h-19.2L5467.7,1151.1z M5397,1136h66.4
		l-26.6-83.1h-13.2L5397,1136z"/>
	<path class="st9" d="M5544.8,1184c-9.9-5.6-17-14-21.3-25.3c-4.3-11.3-6.5-26.1-6.5-44.4c0-18.1,2.2-32.9,6.5-44.3
		c4.3-11.4,11.4-19.9,21.1-25.4c9.8-5.6,23-8.3,39.8-8.3c15.2,0,31.5,1.5,48.9,4.4l8.6,1.3l-0.8,14c-20.9-3.1-39.1-4.6-54.5-4.6
		c-12.8,0-22.8,2.1-30,6.3c-7.2,4.2-12.2,10.7-15.1,19.7c-2.9,9-4.3,21.3-4.3,37c0,15.6,1.4,28,4.3,37c2.9,9,7.9,15.6,14.9,19.9
		c7.1,4.2,17.1,6.4,29.9,6.4c11.3,0,23.4-1,36.2-3.1v-46.7h-29.1v-15.1h48.4v74.6c-21.3,3.5-40.3,5.3-57,5.3
		C5568.1,1192.3,5554.7,1189.6,5544.8,1184z"/>
	<path class="st9" d="M5699.7,1053.3v52.4h71.9v14.7h-71.9v54.8h87.1v14.9h-106.6v-151.8h106.6v14.9H5699.7z"/>
	<path class="st8" d="M3518.2,1324.6h16.1l40.7,174.1h10.8l46.3-171.9h18.2l46.3,171.9h10.8l40.7-174.1h15.7l-44.8,186.4h-34.3
		l-43.8-166.6l-43.5,166.6h-34.3L3518.2,1324.6z"/>
	<path class="st8" d="M3799.9,1497.6c-9.4-10.5-14-27.2-14-50c0-24.8,5.1-43.1,15.3-54.9c10.2-11.9,26.2-17.8,48-17.8
		c20.2,0,35.1,5.1,44.8,15.4c9.7,10.3,14.5,26.3,14.5,48l-0.3,11.2h-106.8c-0.2,12.8,1.2,23,4.3,30.6c3.1,7.6,8.4,13.1,15.9,16.6
		c7.5,3.5,18,5.2,31.3,5.2c5.6,0,12.1-0.1,19.6-0.4c7.5-0.3,14.5-0.7,20.8-1.2l9.3-0.8l0.6,11c-21.4,2-39.6,2.9-54.6,2.9
		C3825.4,1513.4,3809.2,1508.2,3799.9,1497.6z M3892.9,1438.3c0-18.5-3.5-31.9-10.5-40c-7-8.1-18.1-12.2-33.3-12.2
		c-15.9,0-27.8,4.2-35.8,12.7c-8,8.5-12.1,21.6-12.3,39.4H3892.9z"/>
	<path class="st8" d="M3954.7,1511.5l-7.4-0.8v-193.9h14.8v68.2c16.9-6.8,34.1-10.2,51.6-10.2c13.4,0,23.9,2.2,31.5,6.7
		c7.6,4.5,13.1,11.6,16.4,21.4c3.3,9.8,4.9,23.2,4.9,40.1c0,18.7-2.2,33-6.5,42.9c-4.3,9.9-11.8,16.9-22.4,21
		c-10.6,4.1-26,6.2-46.2,6.2C3978.9,1513.2,3966.6,1512.6,3954.7,1511.5z M4030.3,1495.8c7.8-3.9,13.2-10.1,16.2-18.5
		c3-8.4,4.5-20.1,4.5-35c0-14.1-1.2-25.1-3.7-33.2c-2.5-8-6.6-13.8-12.3-17.2c-5.8-3.5-13.9-5.2-24.4-5.2c-13.2,0-29.3,3.2-48.5,9.6
		v104c16.9,0.9,28.2,1.3,34,1.3C4011.1,1501.7,4022.5,1499.7,4030.3,1495.8z"/>
	<path class="st8" d="M4292.7,1457h-99.1l-18.5,54H4160l63.6-186.4h39.2l63.6,186.4h-15.1L4292.7,1457z M4251.3,1336.7h-16.1
		l-37.7,107.8h91.1L4251.3,1336.7z"/>
	<path class="st8" d="M4358.1,1377.3h15.1v10.7c16.7-8.7,33.8-13.1,51.2-13.1c18.9,0,32.6,5.3,40.9,16c8.3,10.7,12.5,27.9,12.5,51.6
		c0,16.9-2.2,30.5-6.5,40.8c-4.3,10.3-11.4,17.8-21.3,22.7c-9.9,4.9-23.2,7.4-39.8,7.4c-12.6,0-24.8-1.1-36.7-3.2v61.5h-15.4V1377.3
		z M4451.1,1488.2c7.6-9.2,11.4-24,11.4-44.5c0-20.3-3.2-34.9-9.7-43.7c-6.5-8.8-16.1-13.2-28.9-13.2c-7,0-14.7,1-23,3.1
		c-8.3,2.1-15.2,4.2-20.5,6.6l-6.8,3.5v98.7c18.1,2.3,31.1,3.5,38.9,3.5C4430.6,1501.9,4443.4,1497.3,4451.1,1488.2z"/>
	<path class="st8" d="M4518.7,1377.3h15.1v10.7c16.7-8.7,33.8-13.1,51.2-13.1c18.9,0,32.6,5.3,40.9,16c8.3,10.7,12.5,27.9,12.5,51.6
		c0,16.9-2.2,30.5-6.5,40.8c-4.3,10.3-11.4,17.8-21.3,22.7c-9.9,4.9-23.2,7.4-39.8,7.4c-12.6,0-24.8-1.1-36.7-3.2v61.5h-15.4V1377.3
		z M4611.6,1488.2c7.6-9.2,11.4-24,11.4-44.5c0-20.3-3.2-34.9-9.7-43.7c-6.5-8.8-16.1-13.2-28.9-13.2c-7,0-14.7,1-23,3.1
		c-8.3,2.1-15.2,4.2-20.5,6.6l-6.8,3.5v98.7c18.1,2.3,31.1,3.5,38.9,3.5C4591.1,1501.9,4604,1497.3,4611.6,1488.2z"/>
	<path class="st8" d="M4681,1316.9h15.4V1511H4681V1316.9z"/>
	<path class="st8" d="M4745.3,1323.8h14.8v17.6h-14.8V1323.8z M4745.3,1377.3h14.8V1511h-14.8V1377.3z"/>
	<path class="st8" d="M4823.7,1506.5c-8.9-4.6-15.1-11.9-18.8-21.9c-3.7-10-5.6-23.4-5.6-40.4c0-12.8,1.1-24.1,3.4-33.8
		c2.3-9.7,7.6-18.1,16.1-25.3c8.4-7.1,21.2-10.7,38.3-10.7c6.4,0,12.7,0.2,18.8,0.7c6.2,0.4,14.8,1.5,25.9,3.1l-0.9,11
		c-16.3-1.6-28.8-2.4-37.7-2.4c-12.6,0-22.3,1.7-29.2,5.2c-6.9,3.5-11.8,9.4-14.7,17.6c-2.9,8.3-4.3,20.1-4.3,35.4
		c0,14.4,1.4,25.7,4.2,33.7c2.8,8,7.7,13.9,14.8,17.5c7.1,3.7,17.3,5.5,30.7,5.5l36.7-2.4l0.6,11.2c-18.7,2-32.5,2.9-41.4,2.9
		C4844.9,1513.4,4832.5,1511.1,4823.7,1506.5z"/>
	<path class="st8" d="M4939.6,1503.3c-7.1-6.8-10.7-16.3-10.7-28.6c0-12.3,3.5-21.6,10.5-27.9c7-6.3,18.2-10.3,33.6-11.9l55.3-4.8
		v-12.8c0-10.3-2.5-18-7.6-22.9c-5-4.9-12-7.4-20.8-7.4c-9.1,0-17.5,0.3-25.3,0.8c-7.8,0.5-20.1,1.6-36.7,3.2l-0.9-11
		c22.2-3.4,42-5.1,59.3-5.1c16.3,0,28.2,3.4,35.8,10.2c7.6,6.8,11.4,17.5,11.4,32.1v74.1c0.2,2.9,2.2,5.3,5.9,7.2
		c3.7,2,8.8,3.3,15.4,4l-0.6,11c-7.4,0-14-1-19.9-2.9c-5.9-2-10.4-4.7-13.7-8.3c-19.3,7.5-39.3,11.2-59.9,11.2
		C4957,1513.4,4946.7,1510,4939.6,1503.3z M5020,1494.4l8.3-2.4V1441l-53.4,4.5c-10.7,0.7-18.4,3.3-23,7.8
		c-4.6,4.5-6.9,11.1-6.9,19.8c0,19.3,9,28.9,26.9,28.9C4987.9,1501.9,5004,1499.4,5020,1494.4z"/>
	<path class="st8" d="M5116.6,1509.7c-5.6-2.8-9.6-7.7-12-14.6c-2.5-6.9-3.7-16.6-3.7-29.3v-76.7h-23.5v-11.8h23.5v-42.5h14.8v42.5
		h54v11.8h-54v67.6c0,12.3,0.5,21.4,1.5,27.4c1,6,3.3,10.5,6.9,13.5c3.6,3,9.5,4.5,17.8,4.5l29.3-2.1l1.2,11.2
		c-14.4,1.8-25.3,2.7-32.7,2.7C5129.9,1514,5122.2,1512.5,5116.6,1509.7z"/>
	<path class="st8" d="M5198.4,1323.8h14.8v17.6h-14.8V1323.8z M5198.4,1377.3h14.8V1511h-14.8V1377.3z"/>
	<path class="st8" d="M5277,1506.9c-9.2-4.4-15.6-11.4-19.3-21.1c-3.7-9.7-5.6-23.1-5.6-40.2c0-18,2-32,5.9-42.1
		c3.9-10.1,10.4-17.3,19.6-21.8c9.2-4.5,22-6.7,38.4-6.7c16.7,0,29.6,2.3,38.7,6.8c9.2,4.5,15.6,11.9,19.4,21.9
		c3.8,10.1,5.7,24,5.7,41.8c0,17.1-1.8,30.5-5.4,40.2c-3.6,9.7-10,16.8-19.1,21.1c-9.2,4.4-22.3,6.6-39.4,6.6
		C5299.2,1513.4,5286.2,1511.2,5277,1506.9z M5346.8,1496.3c6.7-3.6,11.3-9.2,13.7-17c2.5-7.8,3.7-19,3.7-33.8c0-15.7-1.3-27.7-4-36
		c-2.7-8.3-7.4-14.2-14-17.6c-6.7-3.5-16.5-5.2-29.5-5.2c-13.2,0-23.2,1.7-30.1,5.2c-6.9,3.5-11.7,9.4-14.4,17.6
		c-2.7,8.3-4,20.3-4,36c0,14.6,1.2,25.8,3.7,33.7c2.5,7.8,7.1,13.5,14,17.1c6.9,3.6,17.1,5.3,30.7,5.3
		C5330,1501.7,5340.1,1499.9,5346.8,1496.3z"/>
	<path class="st8" d="M5420.7,1377.3h15.1v10.2c9.9-4.6,19-7.9,27.5-9.8c8.4-1.9,17.2-2.8,26.2-2.8c13.2,0,23.3,2,30.4,6
		c7.1,4,12,10.7,14.8,20.1c2.8,9.4,4.2,22.8,4.2,40.2v69.8h-14.8v-69.5c0-14.4-1-25.5-2.9-33.2c-2-7.7-5.4-13.2-10.3-16.6
		c-4.9-3.4-12.2-5.1-21.9-5.1c-8.4,0-17.1,1-25.9,2.9c-8.9,2-15.5,4-20.1,6.2l-6.8,2.9V1511h-15.4V1377.3z"/>
	<path class="st8" d="M3552,1873.9c-11.6-8.7-17.4-22.7-17.4-42v-134.5h11.1v135c0,30.3,19.5,45.5,58.7,45.5
		c20.8,0,36.3-3.6,46.6-10.7c10.3-7.1,15.4-18.7,15.4-34.8v-135h10.5v134.5c0,19.3-6,33.2-17.9,42c-11.9,8.7-29.8,13.1-53.7,13.1
		C3581.3,1887,3563.6,1882.7,3552,1873.9z"/>
	<path class="st8" d="M3729,1883.8l-9-1.1l1.2-9.1c24.3,3.2,41.8,4.8,52.5,4.8c15.4,0,26.8-2.4,34-7.1c7.2-4.7,10.8-12.3,10.8-22.6
		c0-7.3-1.7-12.9-5.1-16.7c-3.4-3.8-7.7-6.5-13-8c-5.2-1.5-12.7-2.9-22.4-4.1c-3.7-0.4-6.5-0.7-8.3-1.1c-14-2-24.6-4.2-31.8-6.8
		c-7.2-2.6-12.3-5.9-15.3-10c-3-4.1-4.5-9.6-4.5-16.6c0-13.9,4.8-23.5,14.5-28.7c9.7-5.3,23.7-7.9,42-7.9c16.3,0,30.3,0.8,42,2.4
		l7.7,1.3l-0.6,8.6c-9.9-1.4-19.4-2.5-28.6-3.2c-9.2-0.7-16.4-1.1-21.8-1.1c-15.6,0-26.9,2.3-33.8,7c-6.9,4.6-10.3,11.3-10.3,20.1
		c0,6.6,1.8,11.5,5.4,14.8c3.6,3.3,8.1,5.6,13.4,6.8c5.3,1.2,14.7,2.9,28.1,5.1c14.2,2.1,24.9,4.4,32,6.7
		c7.1,2.3,12.4,5.8,16.1,10.4c3.6,4.6,5.4,11.2,5.4,19.8c0,13.9-4.8,24-14.4,30.2c-9.6,6.2-24.1,9.4-43.7,9.4
		C3761.1,1887,3746.9,1886,3729,1883.8z"/>
	<path class="st8" d="M3868.5,1697.5h10.5v14.7h-10.5V1697.5z M3868.9,1750.9h10.5v133.7h-10.5V1750.9z"/>
	<path class="st8" d="M3927.8,1750.9h10.5v10.7c10.5-4.8,20.1-8.2,28.9-10.2c8.7-2,17.8-2.9,27-2.9c13.4,0,23.5,2,30.4,5.9
		c6.9,3.9,11.7,10.6,14.5,20.1c2.8,9.5,4.2,23.1,4.2,40.9v69.3h-10.5v-69.3c0-15.3-1-27.1-2.9-35.3c-2-8.2-5.6-14.1-10.8-17.6
		c-5.2-3.6-12.9-5.3-23-5.3c-9.3,0-18.7,1.1-28.2,3.2c-9.6,2.1-16.8,4.4-21.8,6.7l-7.4,3.5v114.2h-10.8V1750.9z"/>
	<path class="st8" d="M4105.9,1944c-8.4-2.9-14.2-7.1-17.3-12.8c-3.1-5.7-4.6-13.5-4.6-23.5c0-6.4,0.8-11.5,2.3-15.1
		c1.5-3.7,3.8-6.7,6.8-9.1c3-2.4,8.5-6.3,16.5-11.6c-2.3-1.2-4-3.4-5.1-6.6c-1.1-3.1-1.7-6.4-1.7-9.8c0-2.1,0.6-4.5,1.7-7.2
		c1.1-2.7,3.8-7.6,7.9-14.7c-17.7-4.5-26.5-18-26.5-40.6c0-15.1,4.2-26.4,12.7-33.7c8.4-7.3,22.2-11,41.4-11
		c10.1,0,20.6,1.2,31.5,3.5l43.2-0.8v9.4l-33.6,0.3c4.1,2.5,7.3,6.6,9.4,12.2c2.2,5.6,3.2,12.4,3.2,20.5c0,15.7-4.4,26.9-13.3,33.6
		c-8.9,6.7-23.1,10-42.6,10c-6.6,0-12.2-0.4-17-1.1l-2.5,5.3c-1.4,3-2.6,5.7-3.4,8c-0.8,2.3-1.2,4.5-1.2,6.7c0,5.3,2.2,8.9,6.6,10.7
		c4.4,1.8,11,2.7,19.6,2.7l21.3-0.3c11.1,0,20.2,1,27.2,2.9c7,2,12.4,5.6,16.2,10.8c3.8,5.3,5.7,12.9,5.7,22.9c0,10-2.1,18-6.2,24.2
		c-4.1,6.2-11.1,10.8-20.8,13.9c-9.8,3.1-23.2,4.7-40.3,4.7C4126.7,1948.3,4114.4,1946.8,4105.9,1944z M4177.2,1936.6
		c7.8-2.2,13.4-5.9,16.8-11c3.4-5.1,5.1-12.1,5.1-21c0-7.5-1.1-13.1-3.2-16.8c-2.2-3.7-6.3-6.4-12.5-8c-6.2-1.6-15.6-2.3-28.4-2.1
		l-37-1.1c-6.8,3.9-11.7,7.2-14.8,9.8c-3.1,2.6-5.2,5.4-6.5,8.4c-1.2,3-1.9,7.1-1.9,12.3c0,8.6,1.5,15.2,4.5,19.9c3,4.7,8,8.1,15,10
		c7,2,17.1,2.9,30.3,2.9C4158.5,1940,4169.4,1938.9,4177.2,1936.6z M4172.6,1820.3c6.4-5.3,9.6-14.6,9.6-27.9
		c0-13.2-3.1-22.4-9.4-27.7c-6.3-5.3-17.1-7.9-32.6-7.9c-15.9,0-27.1,2.7-33.6,8.2c-6.6,5.4-9.9,14.8-9.9,27.9
		c0,13.2,3.2,22.4,9.7,27.5c6.5,5.2,17.5,7.8,33.2,7.8C4155.2,1828.2,4166.2,1825.6,4172.6,1820.3z"/>
	<path class="st10" d="M4445.8,1834.5h-99.9l-15.5,50.1h-34.1l64-214.2h71.2l64,214.2h-34.1L4445.8,1834.5z M4353.1,1808h85.5
		l-33.4-112.4h-18.7L4353.1,1808z"/>
	<path class="st10" d="M4528.1,1729h33.1v10.3c10.3-5,19.6-8.5,28-10.6c8.4-2.1,17.3-3.1,26.6-3.1c15.1,0,27,2.6,35.6,7.8
		c8.6,5.2,14.7,13.2,18.3,24.1c3.6,10.9,5.4,25.7,5.4,44.4v82.8h-33.4v-82.2c0-13.1-0.9-23.2-2.7-30.4c-1.8-7.2-5.2-12.3-10.1-15.6
		c-4.9-3.2-12-4.8-21.4-4.8c-12.7,0-26,2.4-39.9,7.2l-6.1,2.5v123.3h-33.4V1729z"/>
	<path class="st10" d="M4732.8,1947c-12.1-6.7-18.2-18-18.2-33.8c0-8.9,2-16,5.9-21.3c4-5.3,11.2-11.5,21.7-18.5
		c-3.8-2.3-6.6-5.3-8.4-9c-1.8-3.7-2.7-7.7-2.7-11.8c0-2.9,0.8-6,2.3-9.2c1.6-3.2,5.1-8.9,10.6-17c-18.2-8.3-27.3-23.8-27.3-46.4
		c0-36.1,23.4-54.2,70.1-54.2c11,0,23.2,1.4,36.7,4l54.6-1.2v24l-32-0.9c3.8,3.7,6.6,7.8,8.3,12.3c1.7,4.5,2.5,10.2,2.5,17.3
		c0,18.5-5.7,31.7-17.1,39.7c-11.4,8-29.2,12-53.4,12c-7.2,0-13.1-0.4-17.6-1.2c-3.8,7.9-5.8,13.6-5.8,17.1c0,5,2.3,8.2,7,9.7
		c4.7,1.5,11.9,2.2,21.7,2.2h12.6c16.8,0.2,30.2,1.4,40.3,3.4c10.1,2.1,17.8,6.3,23.4,12.6c5.5,6.3,8.3,15.5,8.3,27.6
		c0,18.3-6.8,31.6-20.3,40.2c-13.5,8.5-35.4,12.8-65.6,12.8C4764.2,1957.2,4744.9,1953.8,4732.8,1947z M4831.3,1927.1
		c7.3-4,11-11,11-20.7c0-5.8-1.4-10.1-4.1-12.9c-2.8-2.8-6.9-4.7-12.4-5.6c-5.5-0.9-13.7-1.5-24.4-1.7l-36.7-1.9
		c-6.5,4.4-10.9,8.3-13.3,11.8c-2.4,3.5-3.6,7.8-3.6,12.8c0,8.9,3.5,15.2,10.4,18.8c6.9,3.6,18.7,5.4,35.2,5.4
		C4811.4,1933.2,4824,1931.2,4831.3,1927.1z M4815.1,1803.1c5.6-4.8,8.4-12.7,8.4-23.7c0-10.8-2.9-18.6-8.6-23.4
		c-5.8-4.8-15-7.2-27.7-7.2c-12.9,0-22.3,2.4-28.2,7.3c-5.9,4.9-8.8,12.7-8.8,23.5c0,10.8,2.9,18.6,8.8,23.4
		c5.9,4.8,15.3,7.2,28.2,7.2C4800.2,1810.2,4809.5,1807.8,4815.1,1803.1z"/>
	<path class="st10" d="M4930.7,1880.4c-8.4-5.1-14.3-13.2-17.6-24.3c-3.4-11.1-5-26.4-5-45.9V1729h33.4v81.3
		c0,14.3,0.8,25.1,2.5,32.2c1.7,7.2,4.9,12.2,9.5,15.1c4.7,2.9,11.8,4.4,21.4,4.4c7.9,0,15.4-0.8,22.5-2.5c7.1-1.7,14.7-4,22.8-7.2
		V1729h33.4v155.7h-33.4v-10.3c-10.1,5-19.1,8.5-27.1,10.6c-8,2.1-16.8,3.1-26.4,3.1C4951.1,1888.1,4939.1,1885.5,4930.7,1880.4z"/>
	<path class="st10" d="M5105.4,1662.9h33.4v221.7h-33.4V1662.9z"/>
	<path class="st10" d="M5192.4,1875.6c-8.9-8.3-13.3-20.2-13.3-35.8c0-15.4,4.5-26.6,13.7-33.8c9.1-7.2,23.6-11.6,43.5-13.2l51-4
		v-12.1c0-9.1-2.3-15.7-6.8-19.8c-4.6-4-11.3-6.1-20.1-6.1c-20.1,0-43.4,1.2-69.7,3.7l-1.1-21.2c25.4-5.2,49-7.8,70.8-7.8
		c21.1,0,36.4,4.1,46,12.3c9.6,8.2,14.4,21.1,14.4,38.8v75c0.5,4.2,2.1,7.3,4.9,9.5c2.8,2.2,7.1,3.7,13.1,4.5l-1.1,22.4
		c-10.3,0-19.1-1-26.2-3c-7.2-2-13.5-5-19.1-9.2c-20.4,8.1-40.7,12.1-61.1,12.1C5214.2,1888.1,5201.3,1883.9,5192.4,1875.6z
		 M5279.7,1857.8l7.5-2.2v-45.8l-46.7,3.7c-9.3,0.8-16.2,3.3-20.7,7.3c-4.4,4-6.7,10-6.7,17.9c0,16.6,8,24.9,24.1,24.9
		C5251.9,1863.8,5266.1,1861.8,5279.7,1857.8z"/>
	<path class="st10" d="M5371.8,1729h33.1v19.6c21.3-11.8,42.4-19.5,63.3-23v29.3c-9.3,1.7-19.1,3.9-29.1,6.8
		c-10.1,2.9-18.5,5.7-25.2,8.4l-8.6,3.4v111.1h-33.4V1729z"/>
	<path class="st8" d="M3547.2,2027.1v84.8h96.6v8.8h-96.6v84.8h-11.4v-187.2h123.8v8.8H3547.2z"/>
	<path class="st8" d="M3685.8,2071.8h10.5v20.9c17.9-11.6,38.4-19.4,61.4-23.5v9.6c-8.6,1.4-18.4,4.1-29.2,8
		c-10.8,3.9-18.5,7.4-23,10.4l-9,4.5v103.7h-10.8V2071.8z"/>
	<path class="st8" d="M3788.1,2197.7c-7.1-6.8-10.7-16.1-10.7-28.1c0-11.9,3.4-21.1,10.3-27.4c6.9-6.3,17.8-10.4,32.6-12.2l58.7-5.1
		v-13.6c0-11.1-2.7-19.3-8-24.7c-5.4-5.4-12.7-8.2-21.9-8.2c-9.1,0-17,0.3-23.9,0.8c-6.9,0.5-19.8,1.8-38.7,3.7l-0.9-8.8
		c21.4-3.2,40.9-4.8,58.3-4.8c15.8,0,27.5,3.4,35,10.3c7.5,6.9,11.3,17.4,11.3,31.7v77c0.2,2.7,2.4,5,6.5,7.1
		c4.1,2.1,9.6,3.4,16.4,4.1l-0.6,8.3c-6.8,0-13.1-1.1-19-3.2c-5.9-2.1-10.1-5-12.8-8.6c-20.6,7.8-41.4,11.8-62.4,11.8
		C3805.3,2207.9,3795.2,2204.5,3788.1,2197.7z M3870.4,2191.1l8.6-2.9v-54.3l-57.4,4.8c-11.3,0.7-19.5,3.4-24.5,8.2
		c-5,4.7-7.6,11.8-7.6,21.3c0,20.7,9.7,31,29,31C3836.4,2199.1,3853.7,2196.4,3870.4,2191.1z"/>
	<path class="st8" d="M3939.9,2071.8h10.5v10.7c16.5-8.7,33.9-13.1,52.2-13.1c19.8,0,33,4.8,39.8,14.4c6-3.6,14.7-6.9,26.2-9.9
		c11.5-3,23.4-4.5,35.5-4.5c12.3,0,21.8,2.1,28.4,6.4c6.6,4.3,11.2,11.1,13.7,20.6c2.6,9.5,3.9,22.7,3.9,39.8v69.3h-10.8v-69.3
		c0-15.9-1-27.9-2.9-36c-2-8.1-5.6-13.9-10.8-17.2c-5.2-3.4-13.1-5.1-23.6-5.1c-9.9,0-19.6,1.1-29,3.2c-9.5,2.1-16.2,4.4-20.1,6.7
		l-6.8,3.2c3.9,0.7,5.9,15.6,5.9,44.7v69.8h-10.8v-69.3c0-15.3-1-27.1-2.9-35.3c-2-8.2-5.5-14.1-10.7-17.6
		c-5.1-3.6-12.8-5.3-22.8-5.3c-9.1,0-18.2,1-27.3,3.1c-9.2,2.1-15.9,4.3-20.2,6.8l-6.5,3.5v114.2h-10.8V2071.8z"/>
	<path class="st8" d="M4205,2192c-9.3-10.6-13.9-27.1-13.9-49.6c0-25,5-43.4,15-55.2c10-11.9,25.8-17.8,47.4-17.8
		c19.8,0,34.4,5.2,43.8,15.5c9.5,10.3,14.2,26.6,14.2,48.7v8.8h-109.3c-0.2,14.1,1.3,25.2,4.6,33.3c3.3,8.1,8.8,14.1,16.7,17.9
		c7.8,3.8,18.8,5.7,33,5.7c5.3,0,11.7-0.2,19-0.5c7.3-0.4,14.2-0.7,20.8-1.1l9.3-0.8l0.6,8.8c-25.1,1.4-42.8,2.1-53.1,2.1
		C4230.4,2207.9,4214.3,2202.6,4205,2192z M4300.1,2133.8c0-19.8-3.7-34-11.1-42.8c-7.4-8.7-19.1-13.1-35.2-13.1
		c-17.1,0-29.9,4.5-38.6,13.6c-8.6,9.1-13.1,23.2-13.3,42.2H4300.1z"/>
	<path class="st8" d="M4336.5,2071.8h11.4l39.2,125.1h3.4l45.7-122.5h11.7l45.4,122.5h4l38.9-125.1h11.4l-41.7,133.7h-21.3
		l-42.6-119.8l-42.9,119.8h-21L4336.5,2071.8z"/>
	<path class="st8" d="M4597.9,2201.6c-9-4.2-15.1-11.1-18.5-20.6c-3.4-9.5-5.1-23.1-5.1-40.8c0-18.5,1.9-32.8,5.6-42.9
		c3.7-10.1,10-17.2,19-21.5c9-4.3,21.8-6.4,38.4-6.4s29.5,2.2,38.4,6.6c9,4.4,15.2,11.6,18.8,21.7c3.6,10.1,5.4,24.3,5.4,42.6
		c0,17.6-1.6,31.2-4.9,40.6c-3.3,9.5-9.4,16.3-18.4,20.6c-9,4.3-22.1,6.4-39.4,6.4C4619.9,2207.9,4606.8,2205.8,4597.9,2201.6z
		 M4670.1,2193.6c7.1-3.7,11.9-9.5,14.4-17.6c2.5-8.1,3.7-20,3.7-35.7c0-16.9-1.3-29.7-4-38.4c-2.7-8.6-7.6-14.7-14.7-18.3
		c-7.1-3.6-17.8-5.3-32-5.3c-14.2,0-25,1.8-32.3,5.3c-7.3,3.6-12.3,9.7-15.1,18.4c-2.8,8.7-4.2,21.5-4.2,38.2
		c0,15.5,1.3,27.4,3.9,35.6c2.6,8.2,7.5,14.1,14.8,17.8c7.3,3.7,18.3,5.5,32.9,5.5C4652.1,2199.1,4663,2197.3,4670.1,2193.6z"/>
	<path class="st8" d="M4742.5,2071.8h10.5v20.9c17.9-11.6,38.4-19.4,61.4-23.5v9.6c-8.6,1.4-18.4,4.1-29.2,8
		c-10.8,3.9-18.5,7.4-23,10.4l-9,4.5v103.7h-10.8V2071.8z"/>
	<path class="st8" d="M4844.1,2010.3h10.8v117.9h29.6l53.4-56.4h12.7l-57.1,60.2l59.3,73.5h-12.7l-55.9-68.7l-29.3-0.3v69h-10.8
		V2010.3z"/>
</g>
<g>
	<path class="st7" d="M1395.7,2365h66.6c18.7,0,32.6,3.4,41.7,10.3c9.1,6.9,13.6,17.4,13.6,31.5c0,10.1-2.2,18.1-6.5,24.1
		c-4.4,6-10.8,10.6-19.4,13.7c11.1,3.3,19.3,8.2,24.7,14.8c5.4,6.5,8,15.4,8,26.6c0,15.3-4.9,26.4-14.6,33.3
		c-9.7,6.9-24.1,10.4-43,10.4h-71.2V2365z M1464.4,2440.1c13.3,0,23.1-2.7,29.5-8.2c6.4-5.4,9.5-13.7,9.5-24.7
		c0-11.2-3.3-19.2-9.8-24.1c-6.5-4.9-17.1-7.3-31.6-7.3h-52.6v64.3H1464.4z M1466.3,2518.8c14.2,0,25.1-2.7,32.7-8
		c7.6-5.4,11.5-13.9,11.5-25.5c0-12.8-4.2-21.7-12.7-26.7c-8.5-5-19.6-7.6-33.4-7.6h-55.1v67.8H1466.3z"/>
	<path class="st7" d="M1576,2526.6c-6.2-3.5-10.5-9.3-13-17.6s-3.7-20.2-3.7-35.8v-61.7h13.6v61c0,13.2,0.8,23.3,2.5,30.1
		c1.6,6.9,4.6,11.7,9,14.5s10.9,4.3,19.6,4.3c15.3,0,29.9-3.5,43.9-10.6v-99.2h13.4v118.1h-13.6v-9c-7.3,3.8-14.3,6.6-21.1,8.4
		c-6.8,1.8-14.8,2.7-23.9,2.7C1591.1,2531.8,1582.1,2530,1576,2526.6z"/>
	<path class="st7" d="M1702.8,2364.3h13.1v15.6h-13.1V2364.3z M1702.8,2411.5h13.1v118.1h-13.1V2411.5z"/>
	<path class="st7" d="M1759.3,2358.1h13.6v171.5h-13.6V2358.1z"/>
	<path class="st7" d="M1819.3,2517.5c-7.3-9.5-10.9-24.4-10.9-44.5c0-15.3,2-27.5,5.9-36.7c3.9-9.2,10.2-16,18.8-20.3
		c8.6-4.3,20.2-6.5,34.8-6.5c11.5,0,22.5,0.9,33.3,2.8v-54.1h13.1v171.5h-13.4v-9.5c-14.2,7.7-29.4,11.6-45.6,11.6
		C1838.5,2531.8,1826.5,2527,1819.3,2517.5z M1877.9,2518.7c7.3-1.8,12.9-3.7,16.9-5.6l6.3-2.6v-87.9c-12-2-23.3-3.1-33.8-3.1
		c-11.5,0-20.4,1.8-26.9,5.4c-6.5,3.6-11,9.1-13.8,16.5c-2.7,7.4-4.1,17.3-4.1,29.8c0,16.7,2.6,29.2,7.8,37.6
		c5.2,8.4,14.1,12.5,26.9,12.5C1863.7,2521.4,1870.6,2520.5,1877.9,2518.7z"/>
	<path class="st7" d="M2025.3,2528l-11.5-1.1l1.6-12.7c29.4,3.3,51.6,5,66.5,5c35.4,0,53.1-14.9,53.1-44.6c0-8.1-1.4-14.4-4.2-19
		c-2.8-4.5-7.9-8.2-15.5-11.1c-7.6-2.9-18.8-5.4-33.7-7.6c-17.9-2.8-31.7-6-41.4-9.7c-9.7-3.7-16.8-9-21.3-15.8
		c-4.5-6.8-6.7-16.2-6.7-28.2c0-16.6,5.7-29,17.1-37.2c11.4-8.2,29-12.3,52.9-12.3c17.5,0,39,1.6,64.6,4.7l-1.6,12.7
		c-30.3-3.1-51.1-4.7-62.7-4.7c-35.8,0-53.7,12-53.7,36c0,9.6,1.3,16.7,4,21.3c2.7,4.6,7.9,8.3,15.8,11.1c7.9,2.8,20.9,5.7,39,8.9
		c16.2,2.6,28.8,5.7,37.7,9.3s15.5,8.5,19.7,14.8c4.2,6.3,6.2,14.8,6.2,25.5c0,19.9-5.5,34.7-16.6,44.3
		c-11.1,9.6-28.5,14.4-52.1,14.4C2068.2,2531.9,2049.1,2530.6,2025.3,2528z"/>
	<path class="st7" d="M2192.4,2335.8h15.3v18.3h-15.3V2335.8z M2192.4,2391.2h15.3v138.4h-15.3V2391.2z"/>
	<path class="st7" d="M2256.7,2391.2h15.7v10.5c10.2-4.8,19.7-8.2,28.5-10.1c8.7-1.9,17.8-2.9,27.2-2.9c13.6,0,24.1,2.1,31.5,6.2
		c7.4,4.2,12.5,11.1,15.3,20.8c2.9,9.7,4.3,23.6,4.3,41.7v72.3h-15.3v-72c0-15-1-26.4-3-34.3c-2-7.9-5.6-13.7-10.7-17.2
		c-5.1-3.5-12.7-5.3-22.7-5.3c-8.7,0-17.7,1-26.9,3c-9.2,2-16.1,4.2-20.8,6.4l-7,3v116.3h-16V2391.2z"/>
	<path class="st7" d="M2443.9,2591c-9.1-2.9-15.3-7.2-18.9-13.2c-3.5-5.9-5.3-13.9-5.3-24.1c0-6.5,0.8-11.5,2.4-15.2
		c1.6-3.7,4-6.9,7.2-9.6s8.7-6.6,16.6-11.8c-2.6-1.5-4.5-3.8-5.8-7.1c-1.3-3.2-1.9-6.7-1.9-10.4c0-2.4,0.6-5,1.8-7.8
		c1.2-2.8,3.9-7.8,8.2-15c-17.7-5.4-26.5-19.3-26.5-41.8c0-15.9,4.6-27.6,13.7-35.3c9.2-7.7,23.8-11.5,43.8-11.5
		c10,0,20.9,1.2,32.6,3.6l45.4-1.1v12.7h-32.9c7.9,5.7,11.8,16.3,11.8,31.8c0,16.4-4.6,28.1-13.9,35c-9.3,6.9-24.2,10.4-44.9,10.4
		c-6.8,0-12.5-0.4-16.9-1.1c-0.4,0.7-0.8,1.6-1.1,2.6c-0.3,1-0.8,2-1.4,2.9c-1.3,2.8-2.3,5.3-3.2,7.6c-0.9,2.3-1.3,4.4-1.3,6.2
		c0,5.4,2.3,8.9,6.9,10.5c4.6,1.7,11.7,2.5,21.3,2.5h15c13-0.2,23.5,0.6,31.6,2.5c8.1,1.8,14.4,5.6,18.9,11.2s6.7,13.8,6.7,24.5
		c0,15.7-5.4,27.1-16.1,34.2c-10.8,7.1-29.1,10.7-55.1,10.7C2465.8,2595.3,2452.9,2593.8,2443.9,2591z M2516,2580.4
		c7.7-2.1,13.2-5.6,16.5-10.5c3.3-4.9,5-11.5,5-19.8c0-7-1.1-12.3-3.4-15.9s-6.4-6.2-12.5-7.8c-6.1-1.6-15.2-2.3-27.3-2.1l-37.1-1.1
		c-9,5.4-14.8,9.8-17.6,13.4c-2.8,3.6-4.2,8.9-4.2,15.9c0,7.9,1.5,14.1,4.5,18.6c3,4.4,7.9,7.6,14.9,9.6c6.9,1.9,16.8,2.9,29.6,2.9
		C2497.7,2583.6,2508.3,2582.6,2516,2580.4z M2510.8,2461.8c6.2-5.2,9.3-14.2,9.3-27.1c0-12.7-3.1-21.7-9.3-26.9
		c-6.2-5.2-16.6-7.8-31.3-7.8c-15.3,0-26.2,2.6-32.6,7.9c-6.4,5.3-9.6,14.3-9.6,27s3.1,21.7,9.4,26.9c6.3,5.2,17,7.8,32.1,7.8
		C2494,2469.6,2504.7,2467,2510.8,2461.8z"/>
	<path class="st7" d="M2589.5,2328.6h16v201h-16V2328.6z"/>
	<path class="st7" d="M2661.9,2515.8c-9.7-10.9-14.5-28.1-14.5-51.8c0-25.7,5.3-44.6,15.8-56.9c10.5-12.3,27.1-18.4,49.7-18.4
		c20.9,0,36.3,5.3,46.4,15.9c10,10.6,15,27.2,15,49.7l-0.3,11.6h-110.6c-0.2,13.3,1.3,23.9,4.5,31.7c3.2,7.8,8.7,13.6,16.5,17.2
		c7.8,3.6,18.6,5.4,32.4,5.4c5.8,0,12.5-0.1,20.3-0.4c7.8-0.3,15-0.7,21.6-1.2l9.6-0.8l0.6,11.4c-22.2,2-41,3-56.6,3
		C2688.4,2532.1,2671.6,2526.7,2661.9,2515.8z M2758.3,2454.3c0-19.2-3.6-33-10.9-41.4c-7.2-8.4-18.8-12.6-34.5-12.6
		c-16.4,0-28.8,4.4-37.1,13.2c-8.3,8.8-12.6,22.4-12.8,40.8H2758.3z"/>
	<path class="st7" d="M2889.3,2336.6h81.2c23.4,0,40.6,4.9,51.5,14.7c10.9,9.8,16.3,24.9,16.3,45.4c0,21.6-5.6,37.7-16.8,48.3
		c-11.2,10.6-28.2,15.9-51,15.9h-65.2v68.7h-16V2336.6z M2970.2,2448c34.1,0,51.1-17.1,51.1-51.2c0-16.2-4.1-28.2-12.1-35.9
		c-8.1-7.7-21.1-11.5-39-11.5h-64.9v98.6H2970.2z"/>
	<path class="st7" d="M3074.6,2521.6c-7.4-7-11-16.9-11-29.6s3.6-22.4,10.9-28.9c7.2-6.5,18.9-10.7,34.8-12.3l57.2-5v-13.3
		c0-10.7-2.6-18.6-7.8-23.7c-5.2-5.1-12.4-7.6-21.6-7.6c-9.4,0-18.1,0.3-26.2,0.8c-8.1,0.6-20.8,1.7-38,3.3l-1-11.4
		c23-3.5,43.5-5.3,61.4-5.3c16.8,0,29.2,3.5,37.1,10.5c7.9,7,11.8,18.1,11.8,33.2v76.7c0.2,3,2.2,5.4,6.1,7.5c3.8,2,9.2,3.4,16,4.2
		l-0.6,11.4c-7.7,0-14.5-1-20.6-3c-6.1-2-10.8-4.9-14.2-8.6c-20,7.8-40.7,11.6-62,11.6C3092.7,2532.1,3081.9,2528.6,3074.6,2521.6z
		 M3157.9,2512.5l8.6-2.5v-52.9l-55.3,4.7c-11.1,0.7-19,3.4-23.8,8c-4.8,4.6-7.2,11.4-7.2,20.5c0,19.9,9.3,29.9,27.8,29.9
		C3124.6,2520.2,3141.3,2517.6,3157.9,2512.5z"/>
	<path class="st7" d="M3250.1,2591c-9.1-2.9-15.3-7.2-18.9-13.2c-3.5-5.9-5.3-13.9-5.3-24.1c0-6.5,0.8-11.5,2.4-15.2
		c1.6-3.7,4-6.9,7.2-9.6s8.7-6.6,16.6-11.8c-2.6-1.5-4.5-3.8-5.8-7.1c-1.3-3.2-1.9-6.7-1.9-10.4c0-2.4,0.6-5,1.8-7.8
		c1.2-2.8,3.9-7.8,8.2-15c-17.7-5.4-26.5-19.3-26.5-41.8c0-15.9,4.6-27.6,13.7-35.3c9.2-7.7,23.8-11.5,43.8-11.5
		c10,0,20.9,1.2,32.6,3.6l45.4-1.1v12.7h-32.9c7.9,5.7,11.8,16.3,11.8,31.8c0,16.4-4.6,28.1-13.9,35c-9.3,6.9-24.2,10.4-44.9,10.4
		c-6.8,0-12.5-0.4-16.9-1.1c-0.4,0.7-0.8,1.6-1.1,2.6c-0.3,1-0.8,2-1.4,2.9c-1.3,2.8-2.3,5.3-3.2,7.6c-0.9,2.3-1.3,4.4-1.3,6.2
		c0,5.4,2.3,8.9,6.9,10.5c4.6,1.7,11.7,2.5,21.3,2.5h15c13-0.2,23.5,0.6,31.6,2.5c8.1,1.8,14.4,5.6,18.9,11.2s6.7,13.8,6.7,24.5
		c0,15.7-5.4,27.1-16.1,34.2c-10.8,7.1-29.1,10.7-55.1,10.7C3272,2595.3,3259.2,2593.8,3250.1,2591z M3322.2,2580.4
		c7.7-2.1,13.2-5.6,16.5-10.5c3.3-4.9,5-11.5,5-19.8c0-7-1.1-12.3-3.4-15.9s-6.4-6.2-12.5-7.8c-6.1-1.6-15.2-2.3-27.3-2.1l-37.1-1.1
		c-9,5.4-14.8,9.8-17.6,13.4c-2.8,3.6-4.2,8.9-4.2,15.9c0,7.9,1.5,14.1,4.5,18.6c3,4.4,7.9,7.6,14.9,9.6c6.9,1.9,16.8,2.9,29.6,2.9
		C3304,2583.6,3314.5,2582.6,3322.2,2580.4z M3317.1,2461.8c6.2-5.2,9.3-14.2,9.3-27.1c0-12.7-3.1-21.7-9.3-26.9
		c-6.2-5.2-16.6-7.8-31.3-7.8c-15.3,0-26.2,2.6-32.6,7.9c-6.4,5.3-9.6,14.3-9.6,27s3.1,21.7,9.4,26.9c6.3,5.2,17,7.8,32.1,7.8
		C3300.2,2469.6,3310.9,2467,3317.1,2461.8z"/>
	<path class="st7" d="M3401.9,2515.8c-9.7-10.9-14.5-28.1-14.5-51.8c0-25.7,5.3-44.6,15.8-56.9c10.5-12.3,27.1-18.4,49.7-18.4
		c20.9,0,36.3,5.3,46.4,15.9c10,10.6,15,27.2,15,49.7l-0.3,11.6h-110.6c-0.2,13.3,1.3,23.9,4.5,31.7c3.2,7.8,8.7,13.6,16.5,17.2
		c7.8,3.6,18.6,5.4,32.4,5.4c5.8,0,12.5-0.1,20.3-0.4c7.8-0.3,15-0.7,21.6-1.2l9.6-0.8l0.6,11.4c-22.2,2-41,3-56.6,3
		C3428.4,2532.1,3411.6,2526.7,3401.9,2515.8z M3498.3,2454.3c0-19.2-3.6-33-10.9-41.4c-7.2-8.4-18.8-12.6-34.5-12.6
		c-16.4,0-28.8,4.4-37.1,13.2c-8.3,8.8-12.6,22.4-12.8,40.8H3498.3z"/>
	<path class="st7" d="M3599.9,2365h14.2l36,153.8h9.5l40.9-151.9h16.1l40.9,151.9h9.5l36-153.8h13.9l-39.6,164.7h-30.3l-38.7-147.2
		l-38.5,147.2h-30.3L3599.9,2365z"/>
	<path class="st7" d="M3848.8,2517.8c-8.3-9.3-12.4-24-12.4-44.2c0-21.9,4.5-38.1,13.5-48.6c9-10.5,23.1-15.7,42.4-15.7
		c17.8,0,31,4.5,39.6,13.6c8.5,9.1,12.8,23.2,12.8,42.4l-0.3,9.9H3850c-0.2,11.3,1.1,20.4,3.8,27.1c2.7,6.7,7.4,11.6,14,14.6
		c6.6,3.1,15.9,4.6,27.7,4.6c4.9,0,10.7-0.1,17.3-0.4c6.6-0.2,12.8-0.6,18.4-1.1l8.2-0.7l0.5,9.7c-18.9,1.7-35,2.6-48.3,2.6
		C3871.4,2531.8,3857,2527.1,3848.8,2517.8z M3931,2465.4c0-16.4-3.1-28.2-9.3-35.3c-6.2-7.2-16-10.8-29.5-10.8
		c-14,0-24.6,3.7-31.6,11.2c-7.1,7.5-10.7,19.1-10.9,34.8H3931z"/>
	<path class="st7" d="M3985.6,2530.1l-6.5-0.7v-171.3h13.1v60.2c14.9-6,30.1-9,45.6-9c11.8,0,21.1,2,27.8,5.9
		c6.7,3.9,11.5,10.2,14.5,18.9c2.9,8.7,4.4,20.5,4.4,35.4c0,16.5-1.9,29.2-5.7,37.9c-3.8,8.7-10.4,14.9-19.8,18.5
		c-9.4,3.6-23,5.4-40.8,5.4C4006.9,2531.5,3996.1,2531.1,3985.6,2530.1z M4052.4,2516.2c6.9-3.5,11.7-8.9,14.3-16.3
		c2.6-7.4,4-17.7,4-31c0-12.4-1.1-22.2-3.3-29.3c-2.2-7.1-5.8-12.2-10.9-15.2c-5.1-3.1-12.3-4.6-21.5-4.6c-11.6,0-25.9,2.8-42.8,8.5
		v91.9c14.9,0.8,24.9,1.2,30,1.2C4035.4,2521.4,4045.5,2519.6,4052.4,2516.2z"/>
	<path class="st7" d="M4284.2,2481.9h-87.6l-16.4,47.7h-13.4l56.2-164.7h34.6l56.2,164.7h-13.4L4284.2,2481.9z M4247.7,2375.6h-14.2
		l-33.3,95.2h80.5L4247.7,2375.6z"/>
	<path class="st7" d="M4342.1,2411.5h13.4v9.5c14.7-7.7,29.8-11.6,45.3-11.6c16.7,0,28.8,4.7,36.1,14.2c7.4,9.5,11,24.7,11,45.6
		c0,15-1.9,27-5.7,36c-3.8,9.1-10.1,15.8-18.8,20.1c-8.7,4.3-20.5,6.5-35.2,6.5c-11.1,0-21.9-0.9-32.5-2.8v54.3h-13.6V2411.5z
		 M4424.2,2509.4c6.7-8.1,10.1-21.2,10.1-39.3c0-18-2.9-30.8-8.6-38.6s-14.2-11.7-25.5-11.7c-6.2,0-13,0.9-20.3,2.7
		c-7.4,1.8-13.4,3.7-18.1,5.8l-6,3.1v87.2c16,2,27.5,3.1,34.4,3.1C4406.1,2521.6,4417.4,2517.6,4424.2,2509.4z"/>
	<path class="st7" d="M4483.9,2411.5h13.4v9.5c14.7-7.7,29.8-11.6,45.3-11.6c16.7,0,28.8,4.7,36.1,14.2c7.4,9.5,11,24.7,11,45.6
		c0,15-1.9,27-5.7,36c-3.8,9.1-10.1,15.8-18.8,20.1c-8.7,4.3-20.5,6.5-35.2,6.5c-11.1,0-21.9-0.9-32.5-2.8v54.3h-13.6V2411.5z
		 M4566,2509.4c6.7-8.1,10.1-21.2,10.1-39.3c0-18-2.9-30.8-8.6-38.6s-14.2-11.7-25.5-11.7c-6.2,0-13,0.9-20.3,2.7
		c-7.4,1.8-13.4,3.7-18.1,5.8l-6,3.1v87.2c16,2,27.5,3.1,34.4,3.1C4547.9,2521.6,4559.3,2517.6,4566,2509.4z"/>
	<path class="st7" d="M4627.4,2358.1h13.6v171.5h-13.6V2358.1z"/>
	<path class="st7" d="M4684.1,2364.3h13.1v15.6h-13.1V2364.3z M4684.1,2411.5h13.1v118.1h-13.1V2411.5z"/>
	<path class="st7" d="M4753.4,2525.6c-7.8-4.1-13.4-10.6-16.6-19.4c-3.3-8.8-4.9-20.7-4.9-35.7c0-11.3,1-21.3,3-29.9
		c2-8.6,6.7-16,14.2-22.3c7.5-6.3,18.7-9.5,33.8-9.5c5.6,0,11.2,0.2,16.6,0.6c5.5,0.4,13.1,1.3,22.9,2.7l-0.8,9.7
		c-14.4-1.4-25.5-2.1-33.3-2.1c-11.1,0-19.7,1.5-25.8,4.6c-6.1,3.1-10.4,8.3-13,15.6c-2.5,7.3-3.8,17.8-3.8,31.3
		c0,12.8,1.2,22.7,3.7,29.8s6.8,12.2,13.1,15.5c6.3,3.2,15.3,4.8,27.1,4.8l32.5-2.1l0.5,9.9c-16.5,1.7-28.7,2.6-36.6,2.6
		C4772.1,2531.8,4761.2,2529.7,4753.4,2525.6z"/>
	<path class="st7" d="M4855.8,2522.8c-6.3-6-9.4-14.4-9.4-25.3s3.1-19.1,9.3-24.7c6.2-5.6,16.1-9.1,29.7-10.5l48.8-4.3v-11.3
		c0-9.1-2.2-15.9-6.7-20.2c-4.5-4.3-10.6-6.5-18.4-6.5c-8,0-15.5,0.2-22.4,0.7c-6.9,0.5-17.7,1.4-32.5,2.8l-0.8-9.7
		c19.6-3,37.1-4.5,52.4-4.5c14.4,0,24.9,3,31.6,9c6.7,6,10.1,15.4,10.1,28.4v65.4c0.2,2.5,1.9,4.6,5.2,6.4c3.3,1.7,7.8,2.9,13.6,3.5
		l-0.5,9.7c-6.5,0-12.4-0.9-17.6-2.6c-5.2-1.7-9.2-4.2-12.1-7.3c-17.1,6.6-34.7,9.9-52.9,9.9
		C4871.2,2531.8,4862.1,2528.8,4855.8,2522.8z M4926.9,2515l7.4-2.1v-45.1l-47.2,4c-9.5,0.6-16.2,2.9-20.3,6.9
		c-4.1,3.9-6.1,9.8-6.1,17.5c0,17,7.9,25.5,23.7,25.5C4898.5,2521.6,4912.7,2519.4,4926.9,2515z"/>
	<path class="st7" d="M5012.3,2528.5c-4.9-2.5-8.5-6.8-10.6-12.9c-2.2-6.1-3.3-14.7-3.3-25.9v-67.8h-20.7v-10.4h20.7v-37.6h13.1
		v37.6h47.7v10.4h-47.7v59.8c0,10.9,0.5,18.9,1.4,24.2c0.9,5.3,3,9.3,6.1,11.9c3.2,2.7,8.4,4,15.7,4l25.9-1.9l1.1,9.9
		c-12.7,1.6-22.4,2.4-28.9,2.4C5024,2532.2,5017.2,2531,5012.3,2528.5z"/>
	<path class="st7" d="M5084.6,2364.3h13.1v15.6h-13.1V2364.3z M5084.6,2411.5h13.1v118.1h-13.1V2411.5z"/>
	<path class="st7" d="M5154,2526c-8.1-3.9-13.8-10.1-17-18.7c-3.3-8.6-4.9-20.4-4.9-35.6c0-15.9,1.7-28.3,5.2-37.2
		c3.5-8.9,9.2-15.3,17.3-19.3c8.1-3.9,19.4-5.9,34-5.9c14.7,0,26.1,2,34.2,6c8.1,4,13.8,10.5,17.2,19.4c3.4,8.9,5,21.2,5,37
		c0,15.1-1.6,27-4.8,35.6c-3.2,8.6-8.8,14.8-16.9,18.7c-8.1,3.9-19.7,5.8-34.8,5.8C5173.6,2531.8,5162.1,2529.8,5154,2526z
		 M5215.6,2516.6c5.9-3.1,10-8.2,12.1-15c2.2-6.9,3.3-16.8,3.3-29.9c0-13.9-1.2-24.5-3.5-31.8c-2.4-7.3-6.5-12.5-12.4-15.6
		c-5.9-3.1-14.6-4.6-26.1-4.6c-11.6,0-20.5,1.5-26.6,4.6c-6.1,3.1-10.3,8.3-12.7,15.6c-2.4,7.3-3.5,17.9-3.5,31.8
		c0,12.9,1.1,22.8,3.3,29.8c2.2,6.9,6.3,12,12.4,15.1c6.1,3.2,15.1,4.7,27.1,4.7C5200.8,2521.4,5209.7,2519.8,5215.6,2516.6z"/>
	<path class="st7" d="M5281,2411.5h13.4v9c8.7-4.1,16.8-7,24.3-8.6c7.5-1.7,15.2-2.5,23.2-2.5c11.6,0,20.6,1.8,26.9,5.3
		c6.3,3.5,10.6,9.5,13.1,17.7c2.5,8.3,3.7,20.1,3.7,35.6v61.7h-13.1v-61.4c0-12.8-0.9-22.5-2.6-29.3c-1.7-6.8-4.8-11.7-9.1-14.6
		c-4.4-3-10.8-4.5-19.4-4.5c-7.5,0-15.1,0.9-22.9,2.6c-7.8,1.7-13.7,3.5-17.7,5.4l-6,2.6v99.2H5281V2411.5z"/>
	<path d="M1933.2,2850.3c-10.3-7.7-15.4-20.1-15.4-37.1v-118.8h9.8v119.3c0,26.8,17.3,40.2,51.8,40.2c18.4,0,32.1-3.1,41.2-9.5
		c9.1-6.3,13.6-16.5,13.6-30.7v-119.3h9.3v118.8c0,17-5.3,29.4-15.8,37.1c-10.5,7.7-26.4,11.6-47.5,11.6
		C1959.2,2861.9,1943.5,2858,1933.2,2850.3z"/>
	<path d="M2089.7,2859.1l-7.9-0.9l1.1-8c21.5,2.8,36.9,4.3,46.4,4.3c13.6,0,23.6-2.1,30-6.3c6.4-4.2,9.5-10.8,9.5-20
		c0-6.5-1.5-11.4-4.5-14.8c-3-3.4-6.8-5.7-11.5-7.1c-4.6-1.3-11.2-2.6-19.8-3.7c-3.3-0.3-5.7-0.6-7.4-0.9c-12.4-1.7-21.7-3.7-28.1-6
		c-6.4-2.3-10.9-5.2-13.5-8.9c-2.6-3.6-4-8.5-4-14.6c0-12.3,4.3-20.8,12.8-25.4c8.5-4.6,20.9-7,37.1-7c14.4,0,26.7,0.7,37.1,2.1
		l6.8,1.2l-0.5,7.6c-8.7-1.3-17.1-2.2-25.2-2.8c-8.1-0.6-14.5-0.9-19.2-0.9c-13.8,0-23.8,2-29.9,6.1c-6.1,4.1-9.1,10-9.1,17.7
		c0,5.8,1.6,10.2,4.8,13.1c3.2,2.9,7.1,4.9,11.9,6c4.7,1.1,13,2.6,24.8,4.5c12.5,1.9,22,3.9,28.2,5.9c6.3,2,11,5.1,14.2,9.2
		c3.2,4.1,4.8,9.9,4.8,17.5c0,12.3-4.2,21.2-12.7,26.7c-8.5,5.5-21.3,8.3-38.6,8.3C2118,2861.9,2105.5,2860.9,2089.7,2859.1z"/>
	<path d="M2213,2694.4h9.3v13h-9.3V2694.4z M2213.2,2741.6h9.3v118.1h-9.3V2741.6z"/>
	<path d="M2265.3,2741.6h9.3v9.5c9.3-4.3,17.8-7.2,25.5-9c7.7-1.7,15.7-2.6,23.9-2.6c11.8,0,20.8,1.7,26.9,5.2
		c6.1,3.5,10.4,9.4,12.8,17.7c2.5,8.4,3.7,20.4,3.7,36.1v61.2h-9.3v-61.2c0-13.5-0.9-23.9-2.6-31.2c-1.7-7.2-4.9-12.4-9.5-15.6
		c-4.6-3.1-11.4-4.7-20.3-4.7c-8.2,0-16.5,0.9-25,2.8c-8.5,1.9-14.9,3.9-19.2,5.9l-6.5,3.1v100.9h-9.5V2741.6z"/>
	<path d="M2422.7,2912.2c-7.5-2.5-12.5-6.3-15.3-11.3c-2.7-5-4.1-12-4.1-20.8c0-5.7,0.7-10.1,2-13.3c1.4-3.2,3.4-5.9,6-8
		c2.6-2.1,7.5-5.6,14.6-10.3c-2-1.1-3.5-3-4.5-5.8c-1-2.8-1.5-5.6-1.5-8.6c0-1.9,0.5-4,1.5-6.4c1-2.4,3.3-6.7,7-13
		c-15.6-3.9-23.5-15.9-23.5-35.9c0-13.4,3.7-23.3,11.2-29.8c7.5-6.5,19.6-9.7,36.6-9.7c8.9,0,18.2,1,27.8,3.1l38.2-0.7v8.3
		l-29.7,0.2c3.6,2.2,6.4,5.8,8.3,10.8c1.9,5,2.9,11,2.9,18.1c0,13.9-3.9,23.7-11.7,29.7c-7.8,5.9-20.4,8.9-37.6,8.9
		c-5.8,0-10.8-0.3-15-0.9l-2.2,4.7c-1.3,2.7-2.3,5-3,7.1c-0.7,2-1.1,4-1.1,5.9c0,4.7,2,7.9,5.9,9.5c3.9,1.6,9.7,2.4,17.3,2.4
		l18.8-0.2c9.8,0,17.8,0.9,24,2.6c6.2,1.7,11,4.9,14.3,9.6c3.4,4.6,5,11.4,5,20.2c0,8.8-1.8,15.9-5.5,21.4
		c-3.6,5.4-9.8,9.5-18.4,12.3c-8.6,2.8-20.5,4.1-35.6,4.1C2441.1,2916,2430.2,2914.7,2422.7,2912.2z M2485.7,2905.7
		c6.9-2,11.9-5.2,14.9-9.7s4.5-10.7,4.5-18.5c0-6.6-1-11.6-2.9-14.9c-1.9-3.3-5.6-5.7-11-7.1s-13.8-2-25.1-1.9l-32.7-0.9
		c-6,3.5-10.4,6.3-13.1,8.6c-2.7,2.3-4.6,4.8-5.7,7.4c-1.1,2.7-1.6,6.3-1.6,10.9c0,7.6,1.3,13.4,4,17.6c2.6,4.2,7,7.1,13.2,8.9
		c6.2,1.7,15.1,2.6,26.7,2.6C2469.2,2908.7,2478.8,2907.7,2485.7,2905.7z M2481.6,2802.9c5.6-4.6,8.5-12.9,8.5-24.7
		c0-11.7-2.8-19.8-8.3-24.5c-5.5-4.6-15.1-7-28.8-7c-14,0-23.9,2.4-29.7,7.2c-5.8,4.8-8.7,13-8.7,24.7c0,11.7,2.9,19.8,8.6,24.3
		c5.7,4.6,15.5,6.9,29.3,6.9C2466.3,2809.9,2476,2807.6,2481.6,2802.9z"/>
	<path class="st0" d="M2731,2800.6h-106.1l-21,59.1h-10.8l68-192.6h10.5l1.9-1.4l-0.6,1.4h10.2l-0.6-1.4l1.9,1.4h10.5l68,192.6H2752
		L2731,2800.6z M2727.5,2791l-0.6-1.9l0.3,0.3l-41-112.8h-16.5l-40.7,112.5l-0.6,1.9H2727.5z"/>
	<path class="st0" d="M2797.1,2722.2h10.8v11c10.8-5,20.7-8.4,29.7-10.5c9-2,18.3-3,27.8-3c13.8,0,24.2,2,31.3,6.1
		c7.1,4,12.1,10.9,14.9,20.6c2.9,9.7,4.3,23.8,4.3,42.1v71.3H2905v-71.3c0-15.8-1-27.9-3-36.3c-2-8.4-5.7-14.5-11.1-18.2
		c-5.4-3.7-13.3-5.5-23.7-5.5c-9.5,0-19.2,1.1-29.1,3.3c-9.8,2.2-17.3,4.5-22.4,6.9l-7.6,3.6v117.5h-11.1V2722.2z"/>
	<path class="st0" d="M2980.3,2920.8c-8.7-2.9-14.6-7.3-17.8-13.2c-3.2-5.9-4.8-13.9-4.8-24.2c0-6.6,0.8-11.8,2.4-15.5
		c1.6-3.8,3.9-6.9,7-9.4c3.1-2.5,8.7-6.5,17-12c-2.3-1.3-4.1-3.5-5.2-6.7c-1.2-3.2-1.7-6.6-1.7-10c0-2.2,0.6-4.7,1.7-7.4
		c1.2-2.8,3.9-7.8,8.1-15.1c-18.2-4.6-27.3-18.5-27.3-41.8c0-15.6,4.3-27.1,13-34.7c8.7-7.5,22.9-11.3,42.6-11.3
		c10.4,0,21.2,1.2,32.4,3.6l44.5-0.8v9.6l-34.6,0.3c4.2,2.6,7.5,6.7,9.7,12.5c2.2,5.8,3.3,12.8,3.3,21c0,16.1-4.6,27.6-13.7,34.5
		c-9.1,6.9-23.7,10.3-43.8,10.3c-6.8,0-12.6-0.4-17.5-1.1l-2.5,5.5c-1.5,3.1-2.6,5.9-3.5,8.3c-0.8,2.4-1.3,4.7-1.3,6.9
		c0,5.5,2.3,9.2,6.8,11c4.6,1.8,11.3,2.8,20.2,2.8l21.9-0.3c11.4,0,20.7,1,28,3c7.2,2,12.8,5.7,16.7,11.1c3.9,5.4,5.9,13.2,5.9,23.5
		c0,10.3-2.1,18.6-6.4,24.9c-4.2,6.3-11.4,11.1-21.4,14.3c-10.1,3.2-23.9,4.8-41.4,4.8C3001.7,2925.2,2989,2923.8,2980.3,2920.8z
		 M3053.7,2913.3c8-2.3,13.8-6.1,17.3-11.3c3.5-5.2,5.2-12.4,5.2-21.6c0-7.7-1.1-13.5-3.3-17.3c-2.2-3.9-6.5-6.6-12.9-8.3
		c-6.4-1.7-16.1-2.4-29.2-2.2l-38.1-1.1c-7,4-12.1,7.4-15.2,10c-3.2,2.7-5.4,5.5-6.7,8.7c-1.3,3.1-1.9,7.3-1.9,12.7
		c0,8.8,1.5,15.6,4.6,20.5c3.1,4.9,8.2,8.3,15.4,10.3c7.2,2,17.6,3,31.1,3C3034.4,2916.7,3045.6,2915.6,3053.7,2913.3z
		 M3048.9,2793.6c6.6-5.4,9.8-15,9.8-28.7c0-13.6-3.2-23.1-9.7-28.5c-6.5-5.4-17.6-8.1-33.5-8.1c-16.3,0-27.8,2.8-34.6,8.4
		c-6.8,5.6-10.2,15.2-10.2,28.7c0,13.6,3.3,23,10,28.3c6.7,5.3,18,8,34.1,8C3031,2801.7,3042.4,2799,3048.9,2793.6z"/>
	<path class="st0" d="M3140.4,2856.3c-7-3.9-11.9-10.7-14.6-20.4c-2.8-9.6-4.1-23.7-4.1-42.2v-71.5h11.1v70.7c0,16.3,1,28.7,3,37.1
		c2,8.4,5.8,14.4,11.3,18c5.5,3.6,13.7,5.4,24.5,5.4c10.2,0,19.9-1.2,29.1-3.7c9.2-2.5,17.6-5.8,25.3-10v-117.5h11.4v137.6h-11.8
		v-11c-8.3,4.6-16.6,8-24.9,10.2c-8.4,2.2-18.1,3.3-29.1,3.3C3157.7,2862.2,3147.4,2860.3,3140.4,2856.3z"/>
	<path class="st0" d="M3289,2658.9h11.1v200.8H3289V2658.9z"/>
	<path class="st0" d="M3353,2851.8c-7.3-7-11-16.6-11-28.9c0-12.3,3.5-21.7,10.6-28.2c7.1-6.5,18.3-10.7,33.5-12.5l60.3-5.2v-14
		c0-11.4-2.8-19.9-8.3-25.4c-5.5-5.6-13-8.4-22.6-8.4c-9.3,0-17.5,0.3-24.6,0.8c-7.1,0.6-20.4,1.8-39.9,3.9l-1-9.1c22-3.3,42-5,60-5
		c16.3,0,28.3,3.5,36,10.6c7.7,7.1,11.6,17.9,11.6,32.6v79.2c0.2,2.8,2.4,5.2,6.7,7.3c4.2,2.1,9.8,3.5,16.8,4.3l-0.6,8.5
		c-7,0-13.5-1.1-19.5-3.3s-10.4-5.1-13.2-8.8c-21.2,8.1-42.6,12.1-64.2,12.1C3370.7,2862.2,3360.3,2858.8,3353,2851.8z
		 M3437.7,2844.9l8.9-3V2786l-59.1,5c-11.6,0.7-20.1,3.5-25.3,8.4c-5.2,4.9-7.8,12.2-7.8,21.9c0,21.3,10,31.9,29.9,31.9
		C3402.7,2853.2,3420.5,2850.4,3437.7,2844.9z"/>
	<path class="st0" d="M3509.1,2722.2h10.8v21.5c18.4-11.9,39.5-20,63.2-24.2v9.9c-8.9,1.5-18.9,4.2-30,8.3c-11.1,4-19,7.6-23.7,10.7
		l-9.2,4.7v106.7h-11.1V2722.2z"/>
	<path d="M3693.6,2702.2v74.9h85.4v7.8h-85.4v74.9h-10.1v-165.4h109.4v7.8H3693.6z"/>
	<path d="M3816.1,2741.6h9.3v18.4c15.8-10.2,33.9-17.2,54.3-20.8v8.5c-7.6,1.3-16.2,3.6-25.8,7.1c-9.5,3.5-16.3,6.5-20.3,9.2l-7.9,4
		v91.7h-9.5V2741.6z"/>
	<path d="M3906.5,2852.9c-6.3-6-9.4-14.3-9.4-24.8c0-10.6,3-18.6,9.1-24.2c6.1-5.6,15.7-9.2,28.8-10.8l51.8-4.5v-12
		c0-9.8-2.4-17-7.1-21.9c-4.7-4.8-11.2-7.2-19.4-7.2c-8,0-15,0.2-21.1,0.7c-6.1,0.5-17.5,1.6-34.2,3.3l-0.8-7.8
		c18.9-2.8,36.1-4.3,51.6-4.3c14,0,24.3,3,31,9.1c6.6,6.1,10,15.4,10,28v68c0.2,2.4,2.1,4.5,5.7,6.3c3.6,1.8,8.5,3,14.5,3.7
		l-0.5,7.3c-6,0-11.6-0.9-16.8-2.8c-5.2-1.9-9-4.4-11.3-7.6c-18.2,6.9-36.6,10.4-55.1,10.4
		C3921.6,2861.9,3912.8,2858.9,3906.5,2852.9z M3979.2,2847l7.6-2.6v-48l-50.7,4.3c-10,0.6-17.2,3-21.7,7.2
		c-4.5,4.2-6.7,10.4-6.7,18.8c0,18.3,8.5,27.4,25.6,27.4C3949.2,2854.1,3964.5,2851.7,3979.2,2847z"/>
	<path d="M4040.6,2741.6h9.3v9.5c14.5-7.7,29.9-11.6,46.1-11.6c17.5,0,29.2,4.3,35.2,12.8c5.3-3.1,13-6.1,23.2-8.7
		c10.2-2.7,20.6-4,31.4-4c10.9,0,19.3,1.9,25.1,5.7c5.8,3.8,9.9,9.8,12.1,18.2c2.3,8.4,3.4,20.1,3.4,35.2v61.2h-9.5v-61.2
		c0-14-0.9-24.6-2.6-31.8c-1.7-7.2-4.9-12.2-9.5-15.2c-4.6-3-11.6-4.5-20.9-4.5c-8.7,0-17.3,0.9-25.6,2.8
		c-8.4,1.9-14.3,3.9-17.7,5.9l-6,2.8c3.5,0.6,5.2,13.8,5.2,39.5v61.7h-9.5v-61.2c0-13.5-0.9-23.9-2.6-31.2
		c-1.7-7.2-4.9-12.4-9.4-15.6c-4.5-3.1-11.3-4.7-20.2-4.7c-8,0-16.1,0.9-24.1,2.7c-8.1,1.8-14,3.8-17.9,6l-5.7,3.1v100.9h-9.5
		V2741.6z"/>
	<path d="M4274.9,2847.8c-8.2-9.4-12.3-24-12.3-43.8c0-22.1,4.4-38.3,13.2-48.8c8.8-10.5,22.8-15.7,41.9-15.7
		c17.5,0,30.4,4.6,38.7,13.7c8.4,9.1,12.5,23.5,12.5,43v7.8h-96.6c-0.2,12.4,1.2,22.3,4.1,29.4c2.9,7.2,7.8,12.4,14.7,15.8
		c6.9,3.4,16.6,5.1,29.2,5.1c4.7,0,10.3-0.2,16.8-0.5c6.5-0.3,12.6-0.6,18.4-0.9l8.2-0.7l0.5,7.8c-22.2,1.3-37.8,1.9-46.9,1.9
		C4297.2,2861.9,4283.1,2857.2,4274.9,2847.8z M4358.9,2796.4c0-17.5-3.3-30.1-9.8-37.8c-6.5-7.7-16.9-11.6-31.1-11.6
		c-15.1,0-26.5,4-34.1,12c-7.6,8-11.6,20.5-11.7,37.3H4358.9z"/>
	<path d="M4391.1,2741.6h10.1l34.6,110.6h3l40.4-108.2h10.4l40.1,108.2h3.5l34.4-110.6h10.1l-36.8,118.1H4522l-37.6-105.8
		l-37.9,105.8h-18.5L4391.1,2741.6z"/>
	<path d="M4622,2856.3c-7.9-3.7-13.4-9.8-16.4-18.2c-3-8.4-4.5-20.4-4.5-36c0-16.4,1.6-29,4.9-37.9c3.3-8.9,8.9-15.2,16.8-19
		c7.9-3.8,19.2-5.7,34-5.7c14.7,0,26,1.9,34,5.8c7.9,3.9,13.5,10.2,16.6,19.1c3.2,8.9,4.8,21.5,4.8,37.7c0,15.6-1.5,27.6-4.4,35.9
		c-2.9,8.4-8.3,14.4-16.2,18.2c-7.9,3.8-19.5,5.7-34.8,5.7C4641.5,2861.9,4629.9,2860,4622,2856.3z M4685.8,2849.3
		c6.3-3.2,10.5-8.4,12.7-15.6c2.2-7.2,3.3-17.7,3.3-31.5c0-15-1.2-26.3-3.5-33.9c-2.4-7.6-6.7-13-13-16.2
		c-6.3-3.1-15.7-4.7-28.2-4.7s-22.1,1.6-28.5,4.7c-6.5,3.2-10.9,8.6-13.4,16.3c-2.5,7.7-3.7,19-3.7,33.8c0,13.7,1.1,24.2,3.4,31.4
		c2.3,7.2,6.6,12.5,13.1,15.7c6.5,3.2,16.1,4.8,29.1,4.8C4670,2854.1,4679.5,2852.5,4685.8,2849.3z"/>
	<path d="M4749.8,2741.6h9.3v18.4c15.8-10.2,33.9-17.2,54.3-20.8v8.5c-7.6,1.3-16.2,3.6-25.8,7.1c-9.5,3.5-16.3,6.5-20.3,9.2l-7.9,4
		v91.7h-9.5V2741.6z"/>
	<path d="M4839.5,2687.3h9.5v104.2h26.2l47.2-49.9h11.2l-50.5,53.2l52.4,65h-11.2L4875,2799l-25.9-0.2v61h-9.5V2687.3z"/>
</g>
<text transform="matrix(1.1545 0 0 1 1363.468 2529.6392)" class="st4"><tspan x="0" y="0" class="st11 st12 st13">Build </tspan><tspan x="542.2" y="0" class="st11 st12 st14">Single Page</tspan><tspan x="1875.2" y="0" class="st11 st12 st13"> Web Application</tspan><tspan x="402.1" y="330.1" class="st8 st15 st13"> Using </tspan><tspan x="1053" y="330.1" class="st10 st15 st16">Angular </tspan><tspan x="1983.6" y="330.1" class="st8 st15 st13">Framework</tspan></text>
<g class="st4">
	<g class="st8">
		<path class="st7" d="M6165.4,1201.3l2.7,124.5l2.5,124.5l4.6,249l0.2,9.6l-10,0.2l-263.9,4.4l14.2-14.2
			c0.3,20.2,0.7,40.4,0.7,60.5c0.1,20.2-0.1,40.4-0.2,60.5c-0.3,40.4-0.1,80.7-0.2,121.1v242.2v14.5h-14.5h-689.9l14.5-14.5V2917
			v14.5h-14.5H3427.1h-892.2h-55.8c-18.6,0-37.2,0-55.8,0.2c-18.6,0.1-37.2,0.3-55.8,0.2c-18.6-0.1-37.2-0.4-55.8-0.7l-223.1-3.7
			c-148.7-2.5-297.4-5.2-446.1-8.3v-4.1c148.7-3.1,297.4-5.8,446.1-8.3l223.1-3.7c18.6-0.3,37.2-0.7,55.8-0.7
			c18.6-0.1,37.2,0,55.8,0.2c18.6,0.1,37.2,0.2,55.8,0.2h55.8h892.2h1784.5l-14.5,14.5v-733.4V2169h14.5h689.9l-14.5,14.5v-242.2
			c0-40.4,0.1-80.7-0.2-121.1c-0.1-20.2-0.3-40.4-0.2-60.5c0-20.2,0.3-40.4,0.7-60.5l0.2-14.4l14,0.2l263.9,4.4l-9.8,9.8l4.6-249
			l2.5-124.5L6165.4,1201.3z"/>
		<g>
			<path class="st7" d="M1647.8,2815.6c-56,0-101.4,45.4-101.4,101.4c0,56,45.4,101.4,101.4,101.4c56,0,101.4-45.4,101.4-101.4
				C1749.2,2861,1703.7,2815.6,1647.8,2815.6z"/>
		</g>
	</g>
</g>
<g>
	<g>
		<line class="st17" x1="1647.5" y1="2106.9" x2="5108.4" y2="2106.9"/>
		<g>
			<path class="st7" d="M1650.3,2163.3c-31.1,0-56.4-25.3-56.4-56.4c0-31.1,25.3-56.4,56.4-56.4c31.1,0,56.4,25.3,56.4,56.4
				C1706.7,2138,1681.5,2163.3,1650.3,2163.3z"/>
		</g>
		<g>
			<path class="st7" d="M5105.6,2163.3c31.1,0,56.4-25.3,56.4-56.4c0-31.1-25.3-56.4-56.4-56.4c-31.1,0-56.4,25.3-56.4,56.4
				C5049.2,2138,5074.4,2163.3,5105.6,2163.3z"/>
		</g>
	</g>
</g>
</svg>
