<?xml version="1.0" encoding="utf-8"?>
<!-- Generator: Adobe Illustrator 16.0.0, SVG Export Plug-In . SVG Version: 6.00 Build 0)  -->
<!DOCTYPE svg PUBLIC "-//W3C//DTD SVG 1.1//EN" "http://www.w3.org/Graphics/SVG/1.1/DTD/svg11.dtd">
<svg version="1.1" id="Layer_1" xmlns="http://www.w3.org/2000/svg" xmlns:xlink="http://www.w3.org/1999/xlink" x="0px" y="0px"
	 width="4450.971px" height="6106.12px" viewBox="0 0 4450.971 6106.12" enable-background="new 0 0 4450.971 6106.12"
	 xml:space="preserve">
<g>
	<path fill="#53C1DE" d="M2225.494,2196.065c-185.787,0-336.403,150.617-336.403,336.402c0,185.787,150.616,336.403,336.403,336.403
		c185.785,0,336.385-150.616,336.385-336.403C2561.879,2346.683,2411.279,2196.065,2225.494,2196.065z M2225.494,2196.065
		c-185.787,0-336.403,150.617-336.403,336.402c0,185.787,150.616,336.403,336.403,336.403
		c185.785,0,336.385-150.616,336.385-336.403C2561.879,2346.683,2411.279,2196.065,2225.494,2196.065z M2225.494,2196.065
		c-185.787,0-336.403,150.617-336.403,336.402c0,185.787,150.616,336.403,336.403,336.403
		c185.785,0,336.385-150.616,336.385-336.403C2561.879,2346.683,2411.279,2196.065,2225.494,2196.065z M2225.494,2196.065
		c-185.787,0-336.403,150.617-336.403,336.402c0,185.787,150.616,336.403,336.403,336.403
		c185.785,0,336.385-150.616,336.385-336.403C2561.879,2346.683,2411.279,2196.065,2225.494,2196.065z M2225.494,2196.065
		c-185.787,0-336.403,150.617-336.403,336.402c0,185.787,150.616,336.403,336.403,336.403
		c185.785,0,336.385-150.616,336.385-336.403C2561.879,2346.683,2411.279,2196.065,2225.494,2196.065z M2225.494,2196.065
		c-185.787,0-336.403,150.617-336.403,336.402c0,185.787,150.616,336.403,336.403,336.403
		c185.785,0,336.385-150.616,336.385-336.403C2561.879,2346.683,2411.279,2196.065,2225.494,2196.065z M2225.494,2196.065
		c-185.787,0-336.403,150.617-336.403,336.402c0,185.787,150.616,336.403,336.403,336.403
		c185.785,0,336.385-150.616,336.385-336.403C2561.879,2346.683,2411.279,2196.065,2225.494,2196.065z M2225.494,2196.065
		c-185.787,0-336.403,150.617-336.403,336.402c0,185.787,150.616,336.403,336.403,336.403
		c185.785,0,336.385-150.616,336.385-336.403C2561.879,2346.683,2411.279,2196.065,2225.494,2196.065z M2225.494,2196.065
		c-185.787,0-336.403,150.617-336.403,336.402c0,185.787,150.616,336.403,336.403,336.403
		c185.785,0,336.385-150.616,336.385-336.403C2561.879,2346.683,2411.279,2196.065,2225.494,2196.065z M2225.494,2196.065
		c-185.787,0-336.403,150.617-336.403,336.402c0,185.787,150.616,336.403,336.403,336.403
		c185.785,0,336.385-150.616,336.385-336.403C2561.879,2346.683,2411.279,2196.065,2225.494,2196.065z M3439.268,1946.137
		c-40.086-13.743-80.533-26.497-121.27-38.209c6.764-27.453,13.01-55.025,18.748-82.7
		c91.782-445.617,31.772-804.591-173.188-922.769c-196.524-113.33-517.92,4.831-842.525,287.317
		c-31.979,27.897-63.256,56.598-93.799,86.064c-20.454-19.6-41.265-38.823-62.419-57.638
		c-340.191-302.069-681.187-429.347-885.924-310.827c-196.337,113.653-254.487,451.149-171.839,873.445
		c8.213,41.828,17.5,83.434,27.829,124.785c-48.248,13.692-94.84,28.307-139.416,43.843
		c-398.838,139.041-653.547,356.976-653.547,583.019c0,233.471,273.421,467.643,688.854,609.62
		c33.685,11.455,67.659,22.074,101.873,31.84c-11.114,44.561-20.982,89.394-29.604,134.5
		c-78.792,414.971-17.244,744.459,178.563,857.414c202.245,116.606,541.687-3.262,872.216-292.184
		c26.14-22.844,52.362-47.07,78.62-72.458c33.07,31.909,67.029,62.896,101.823,92.91
		c320.184,275.504,636.37,386.768,832.026,273.507c202.056-116.966,267.718-470.937,182.457-901.582
		c-6.506-32.898-14.085-66.498-22.588-100.693c23.834-7.053,47.224-14.309,70.05-21.889
		c431.874-143.069,712.842-374.39,712.842-610.985C4109.052,2305.604,3846.131,2086.202,3439.268,1946.137z M2426.68,1311.182
		c278.133-242.059,538.066-337.614,656.501-269.307c126.134,72.748,175.2,366.127,95.948,750.863
		c-5.207,25.062-10.841,50.04-16.953,74.897c-156.268-36.058-325.988-62.896-503.682-79.576
		c-103.514-147.39-210.764-281.428-318.442-397.421C2368.273,1363.441,2397.16,1336.944,2426.68,1311.182z M1454.229,2725.562
		c34.061,65.798,69.675,130.795,106.791,194.921c37.885,65.422,77.323,129.924,118.28,193.469
		c-123.385-13.777-239.736-32.438-347.176-55.828C1365.382,2950.735,1406.356,2839.096,1454.229,2725.562z M1454.041,2347.075
		c-46.865-111.162-86.969-220.444-119.697-325.972c107.474-24.056,222.101-43.724,341.524-58.646
		c-39.984,62.367-78.483,125.64-115.498,189.799C1523.426,2216.365,1487.965,2281.311,1454.041,2347.075z M1539.593,2536.326
		c49.58-103.204,103.035-204.498,160.229-303.69v0.034c57.178-99.21,118.11-196.218,182.662-290.802
		c112.031-8.468,226.898-12.89,343.027-12.89c116.624,0,231.644,4.456,343.659,12.992c63.886,94.447,124.426,191.113,181.5,289.811
		c57.398,98.972,111.553,199.77,162.396,302.258c-50.313,103.547-104.298,205.249-161.867,304.938h-0.018
		c-57.058,99.124-117.341,196.388-180.715,291.588c-111.775,7.988-227.273,12.104-344.973,12.104
		c-117.223,0-231.271-3.637-341.081-10.756c-65.03-94.994-126.441-192.411-184.113-292.048
		C1642.901,2740.757,1589.293,2639.498,1539.593,2536.326z M2890.598,2919.372c37.902-65.713,74.318-132.262,109.25-199.598
		c50.348,114.763,92.79,225.804,126.509,331.382c-109.231,24.928-227.153,45.005-351.408,59.91
		C2814.761,3047.931,2853.328,2984.027,2890.598,2919.372z M2998.311,2347.194c-34.811-66.071-70.938-131.427-108.361-196.03
		c-36.824-63.613-75.017-126.425-114.558-188.398c120.21,15.178,235.364,35.341,343.487,60.028
		C3086.424,2126.853,3045.961,2235.657,2998.311,2347.194z M2227.286,1505.727c74.231,80.396,148.567,170.198,221.69,267.616
		c-148.329-7.017-296.912-7.051-445.242-0.103C2076.926,1676.728,2151.893,1587.062,2227.286,1505.727z M1359.509,1046.656
		c126.049-72.952,404.712,31.072,698.448,291.877c18.764,16.68,37.63,34.128,56.512,52.19
		c-109.438,117.513-217.593,251.313-320.9,397.114c-177.182,16.424-346.783,42.801-502.691,78.125
		c-9.613-38.465-18.234-77.169-25.9-116.062C1194.176,1388.061,1241.194,1115.151,1359.509,1046.656z M1175.823,3018.924
		c-31.243-8.945-62.248-18.644-92.996-29.109c-183.703-62.794-335.396-144.385-439.386-233.419
		c-93.422-80.021-140.611-159.461-140.611-223.928c0-137.162,204.531-312.142,545.612-431.054
		c42.818-14.87,86.047-28.478,129.668-40.804c47.139,153.331,108.976,313.645,183.601,475.768
		C1286.113,2700.909,1223.405,2863.782,1175.823,3018.924z M2047.937,3752.475c-146.161,127.772-292.629,218.395-421.699,263.996
		h-0.017c-115.992,40.959-208.374,42.137-264.202,9.938c-118.843-68.53-168.235-333.108-100.85-687.967
		c8.009-41.947,17.176-83.656,27.505-125.074c154.305,34.127,325.101,58.68,507.661,73.48
		c104.211,146.674,213.358,281.48,323.374,399.537C2096.32,3708.99,2072.402,3731.031,2047.937,3752.475z M2231.741,3570.58
		c-76.281-82.308-152.356-173.339-226.658-271.252c72.116,2.834,145.665,4.268,220.411,4.268c76.775,0,152.697-1.724,227.392-5.053
		C2379.541,3398.23,2305.463,3489.399,2231.741,3570.58z M3208.989,3794.491c-22.451,120.927-67.558,201.561-123.351,233.846
		c-118.725,68.718-372.614-20.607-646.395-256.212c-31.396-27.008-63.033-55.846-94.736-86.354
		c106.158-116.113,212.232-251.09,315.761-400.973c182.134-16.15,354.194-42.58,510.222-78.638
		c7.666,31.005,14.496,61.412,20.385,91.136C3228.571,3487.709,3233.95,3659.889,3208.989,3794.491z M3345.607,2990.703h-0.02
		c-20.588,6.83-41.725,13.402-63.271,19.805c-47.684-150.941-112.032-311.443-190.755-477.236
		c75.139-161.886,136.992-320.32,183.346-470.288c38.516,11.165,75.939,22.929,111.98,35.34
		c348.608,119.988,561.252,297.426,561.252,434.145C3948.141,2678.099,3718.477,2867.147,3345.607,2990.703z M2225.494,2868.871
		c185.785,0,336.385-150.616,336.385-336.403c0-185.785-150.6-336.402-336.385-336.402c-185.787,0-336.403,150.617-336.403,336.402
		C1889.091,2718.255,2039.707,2868.871,2225.494,2868.871z M2225.494,2196.065c-185.787,0-336.403,150.617-336.403,336.402
		c0,185.787,150.616,336.403,336.403,336.403c185.785,0,336.385-150.616,336.385-336.403
		C2561.879,2346.683,2411.279,2196.065,2225.494,2196.065z M2225.494,2196.065c-185.787,0-336.403,150.617-336.403,336.402
		c0,185.787,150.616,336.403,336.403,336.403c185.785,0,336.385-150.616,336.385-336.403
		C2561.879,2346.683,2411.279,2196.065,2225.494,2196.065z M2225.494,2196.065c-185.787,0-336.403,150.617-336.403,336.402
		c0,185.787,150.616,336.403,336.403,336.403c185.785,0,336.385-150.616,336.385-336.403
		C2561.879,2346.683,2411.279,2196.065,2225.494,2196.065z M2225.494,2196.065c-185.787,0-336.403,150.617-336.403,336.402
		c0,185.787,150.616,336.403,336.403,336.403c185.785,0,336.385-150.616,336.385-336.403
		C2561.879,2346.683,2411.279,2196.065,2225.494,2196.065z M2225.494,2196.065c-185.787,0-336.403,150.617-336.403,336.402
		c0,185.787,150.616,336.403,336.403,336.403c185.785,0,336.385-150.616,336.385-336.403
		C2561.879,2346.683,2411.279,2196.065,2225.494,2196.065z M2225.494,2196.065c-185.787,0-336.403,150.617-336.403,336.402
		c0,185.787,150.616,336.403,336.403,336.403c185.785,0,336.385-150.616,336.385-336.403
		C2561.879,2346.683,2411.279,2196.065,2225.494,2196.065z M2225.494,2196.065c-185.787,0-336.403,150.617-336.403,336.402
		c0,185.787,150.616,336.403,336.403,336.403c185.785,0,336.385-150.616,336.385-336.403
		C2561.879,2346.683,2411.279,2196.065,2225.494,2196.065z M2225.494,2196.065c-185.787,0-336.403,150.617-336.403,336.402
		c0,185.787,150.616,336.403,336.403,336.403c185.785,0,336.385-150.616,336.385-336.403
		C2561.879,2346.683,2411.279,2196.065,2225.494,2196.065z"/>
	<path fill="#53C1DE" d="M2561.879,2532.468c0,185.787-150.6,336.403-336.385,336.403c-185.787,0-336.403-150.616-336.403-336.403
		c0-185.785,150.616-336.402,336.403-336.402C2411.279,2196.065,2561.879,2346.683,2561.879,2532.468z"/>
</g>
<g>
	<polygon fill="#E23237" points="709.966,1498.219 2153.783,983.791 3636.482,1489.072 3396.408,3399.311 2153.783,4087.501 
		930.6,3408.457 	"/>
	<polygon fill="#B52E31" points="3636.482,1489.072 2153.783,983.791 2153.783,4087.502 3396.408,3400.459 	"/>
	<path fill="#007AFF" d="M3741.005,1660.17c0,209.966-170.211,380.177-380.177,380.177s-380.177-170.211-380.177-380.177
		s170.211-380.177,380.177-380.177S3741.005,1450.204,3741.005,1660.17"/>
	<polygon fill="#FFFFFF" points="3493.221,1530.933 3356.08,1873.915 3301.789,1873.915 3442.533,1541.482 3249.042,1541.482 
		3249.042,1496.712 3493.221,1496.712 	"/>
	<path fill="#FFFFFF" d="M2156.067,1346.181l-899.666,2001.693l336.085-5.716l180.626-451.56h807.075l197.771,457.275l321.224,5.715
		L2156.067,1346.181L2156.067,1346.181z M2158.362,1987.501l304.078,635.595h-571.592L2158.362,1987.501z"/>
</g>
<g>
	
		<line fill="none" stroke="#121212" stroke-width="15" stroke-miterlimit="10" x1="482.473" y1="4330.688" x2="3943.318" y2="4330.688"/>
	<path fill="#121212" d="M485.293,4387.085c-31.143,0-56.397-25.255-56.397-56.396c0-31.143,25.254-56.397,56.397-56.397
		c31.142,0,56.396,25.255,56.396,56.397C541.689,4361.83,516.435,4387.085,485.293,4387.085"/>
	<path fill="#121212" d="M3940.499,4387.085c31.144,0,56.396-25.255,56.396-56.396c0-31.143-25.253-56.397-56.396-56.397
		c-31.143,0-56.396,25.255-56.396,56.397C3884.104,4361.83,3909.356,4387.085,3940.499,4387.085"/>
</g>
<g>
	<path d="M191.941,4524.347h72.654c20.262,0,35.265,4.197,45.011,12.592c9.742,8.395,14.617,21.47,14.617,39.222
		c0,11.772-2.125,21.181-6.368,28.222c-4.246,7.048-10.709,12.692-19.394,16.935c10.806,3.861,18.815,9.65,24.026,17.368
		c5.21,7.72,7.816,18.141,7.816,31.261c0,18.916-5.261,32.759-15.776,41.537c-10.52,8.783-25.906,13.171-46.168,13.171h-76.417
		L191.941,4524.347L191.941,4524.347z M265.753,4613.211c12.157,0,21.13-2.939,26.919-8.829c5.789-5.884,8.684-14.712,8.684-26.485
		c0-11.962-2.994-20.597-8.973-25.905c-5.984-5.307-15.535-7.961-28.655-7.961h-49.498v69.18L265.753,4613.211L265.753,4613.211z
		 M267.49,4704.969c13.121,0,23.107-2.794,29.959-8.395c6.847-5.594,10.275-14.662,10.275-27.209
		c0-13.505-3.763-23.011-11.289-28.511c-7.526-5.5-17.657-8.25-30.393-8.25h-51.813v72.364H267.49L267.49,4704.969z"/>
	<path d="M383.126,4720.745c-6.657-4.533-11.338-11.914-14.038-22.144c-2.706-10.226-4.053-24.604-4.053-43.129v-75.548h21.709
		v75.257c0,14.474,0.769,25.378,2.316,32.71c1.542,7.336,4.343,12.546,8.395,15.63c4.052,3.09,10.321,4.631,18.814,4.631
		c13.122,0,26.63-3.568,40.524-10.709v-117.52h21.71v144.729h-21.71v-10.131c-7.915,4.631-15.245,7.96-21.999,9.985
		c-6.757,2.027-14.473,3.04-23.157,3.04C399.287,4727.548,389.784,4725.276,383.126,4720.745z"/>
	<path d="M520.183,4522.031h21.421v25.183h-21.421V4522.031z M520.183,4579.924h21.421v144.729h-21.421V4579.924z"/>
	<path d="M585.018,4516.821h21.709v207.832h-21.709V4516.821z"/>
	<path d="M653.906,4709.745c-7.916-11.868-11.868-30.149-11.868-54.853c0-27.594,4.775-47.472,14.329-59.629
		c9.552-12.157,25.328-18.234,47.326-18.234c10.999,0,22.478,1.256,34.446,3.762v-63.971h21.42v207.832h-21.42v-9.842
		c-14.862,8.494-29.815,12.735-44.866,12.735C674.937,4727.548,661.816,4721.612,653.906,4709.745z M715.562,4705.692
		c6.557-1.637,12.156-3.518,16.789-5.645l5.789-2.604v-98.128c-12.546-2.315-23.446-3.473-32.709-3.473
		c-15.246,0-25.906,4.441-31.985,13.314c-6.079,8.879-9.118,23.546-9.118,43.997c0,18.721,2.46,32.563,7.381,41.537
		s13.461,13.46,25.618,13.46C702.919,4708.153,708.998,4707.336,715.562,4705.692z"/>
	<path d="M870.414,4722.337l-10.42-1.448l2.316-18.525c26.436,3.475,46.408,5.211,59.918,5.211
		c28.557,0,42.839-13.411,42.839-40.235c0-7.331-1.302-13.12-3.907-17.368c-2.606-4.242-7.046-7.716-13.314-10.42
		c-6.273-2.7-15.392-5.209-27.354-7.526c-15.825-3.278-28.127-7.042-36.906-11.289c-8.784-4.241-15.197-9.936-19.249-17.078
		c-4.052-7.137-6.079-16.688-6.079-28.655c0-35.893,21.515-53.84,64.55-53.84c14.858,0,35.024,1.933,60.496,5.79l-2.026,18.814
		c-27.788-3.278-46.797-4.921-57.024-4.921c-28.946,0-43.417,10.904-43.417,32.709c0,8.299,1.397,14.617,4.196,18.959
		c2.796,4.342,7.571,7.865,14.329,10.565c6.753,2.706,17.462,5.694,32.129,8.974c14.279,3.284,25.329,6.947,33.143,10.999
		c7.815,4.054,13.555,9.408,17.223,16.064c3.664,6.658,5.5,15.486,5.5,26.486c0,41.103-21.325,61.653-63.971,61.653
		C909.875,4727.257,892.218,4725.616,870.414,4722.337z"/>
	<path d="M1022.088,4522.031h21.419v25.183h-21.419V4522.031z M1022.088,4579.924h21.419v144.729h-21.419V4579.924z"/>
	<path d="M1085.186,4579.924h21.419v10.132c8.685-4.822,16.645-8.201,23.881-10.132c7.236-1.927,14.808-2.895,22.722-2.895
		c12.348,0,21.9,2.314,28.655,6.946c6.753,4.631,11.53,12.013,14.329,22.144c2.796,10.131,4.197,24.171,4.197,42.116v76.417h-21.42
		v-75.838c0-13.698-0.824-24.214-2.46-31.551c-1.642-7.332-4.586-12.638-8.83-15.92c-4.248-3.28-10.42-4.923-18.524-4.923
		c-6.563,0-13.271,0.824-20.118,2.461c-6.852,1.643-12.401,3.523-16.644,5.645l-5.5,2.606v117.52h-21.708L1085.186,4579.924
		L1085.186,4579.924z"/>
	<path d="M1247.713,4782.978c-8.974-6.467-13.46-17.222-13.46-32.273c0-6.179,0.724-11.244,2.172-15.197
		c1.447-3.958,3.713-7.481,6.803-10.566c3.084-3.084,7.715-7.042,13.893-11.867c-2.706-1.737-4.731-4.342-6.079-7.816
		c-1.352-3.473-2.026-7.137-2.026-10.999c0-2.505,0.578-5.256,1.737-8.25c1.157-2.989,3.857-8.249,8.104-15.775
		c-15.246-6.752-22.866-21.226-22.866-43.418c0-16.789,4.531-29.28,13.603-37.484c9.069-8.2,22.769-12.303,41.103-12.303
		c8.874,0,18.717,1.257,29.525,3.763l42.84-1.157v18.525l-27.498-0.579c3.279,3.283,5.689,7.286,7.236,12.012
		c1.542,4.731,2.316,10.762,2.316,18.092c0,17.178-4.441,29.43-13.315,36.762c-8.878,7.336-22.867,10.999-41.971,10.999
		c-5.984,0-10.904-0.385-14.761-1.158c-1.547,3.862-2.8,7.238-3.763,10.133c-0.967,2.895-1.448,5.403-1.448,7.524
		c0,5.021,1.976,8.299,5.933,9.842c3.953,1.547,10.082,2.315,18.38,2.315h11.29c12.735,0,23.011,0.968,30.826,2.895
		c7.815,1.931,13.845,5.839,18.091,11.723c4.243,5.89,6.368,14.424,6.368,25.618c0,16.788-5.209,29.04-15.63,36.761
		c-10.42,7.717-27.598,11.578-51.523,11.578C1271.978,4792.675,1256.685,4789.44,1247.713,4782.978z M1329.196,4767.927
		c6.367-4.343,9.552-11.822,9.552-22.433c0-6.179-1.063-10.855-3.186-14.039c-2.125-3.185-5.694-5.354-10.709-6.513
		c-5.021-1.157-12.256-1.736-21.71-1.736l-31.261-1.447c-6.368,4.631-10.665,8.684-12.881,12.155
		c-2.221,3.475-3.328,8.105-3.328,13.896c0,10.031,2.94,16.978,8.829,20.84c5.884,3.858,16.255,5.789,31.116,5.789
		C1311.633,4774.438,1322.827,4772.268,1329.196,4767.927z M1315.88,4650.841c5.016-4.82,7.526-13.025,7.526-24.604
		c0-11.384-2.51-19.489-7.526-24.314c-5.02-4.821-13.314-7.237-24.893-7.237c-11.968,0-20.507,2.46-25.618,7.382
		c-5.116,4.921-7.671,13.076-7.671,24.458c0,11.389,2.555,19.495,7.671,24.315c5.111,4.826,13.555,7.236,25.327,7.236
		C1302.465,4658.076,1310.86,4655.667,1315.88,4650.841z"/>
	<path d="M1391.136,4516.821h21.71v207.832h-21.71V4516.821z"/>
	<path d="M1461.906,4710.323c-9.168-11.479-13.749-29.569-13.749-54.273c0-26.818,4.92-46.696,14.762-59.627
		c9.842-12.927,25.277-19.393,46.313-19.393c19.295,0,33.722,5.548,43.274,16.643c9.552,11.1,14.329,28.127,14.329,51.09
		l-1.158,16.499h-95.521c0,11.968,1.303,21.325,3.908,28.076c2.605,6.758,7.042,11.628,13.315,14.619
		c6.268,2.994,15.001,4.486,26.196,4.486c5.594,0,12.057-0.146,19.394-0.435c7.332-0.29,13.989-0.723,19.973-1.303l8.394-0.868
		l0.579,17.077c-21.42,3.085-39.176,4.632-53.259,4.632C1486.655,4727.548,1471.07,4721.808,1461.906,4710.323z M1545.125,4643.895
		c0-17.558-2.799-30.054-8.394-37.485c-5.6-7.426-14.763-11.144-27.498-11.144c-13.315,0-23.158,3.907-29.525,11.723
		c-6.369,7.815-9.652,20.117-9.842,36.906H1545.125z"/>
	<path d="M1668.138,4524.347h73.232c21.804,0,37.918,5.262,48.34,15.776c10.421,10.521,15.63,26.775,15.63,48.773
		c0,45.545-21.325,68.313-63.97,68.313h-50.944v67.443h-22.288V4524.347L1668.138,4524.347z M1741.082,4637.524
		c27.592,0,41.393-16.209,41.393-48.629c0-15.631-3.284-27.014-9.842-34.155c-6.563-7.137-17.078-10.71-31.551-10.71h-50.656v93.494
		H1741.082L1741.082,4637.524z"/>
	<path d="M1835.733,4716.259c-6.947-7.525-10.421-18.332-10.421-32.42c0-13.894,3.519-24.215,10.566-30.972
		c7.042-6.752,18.281-10.901,33.722-12.448l45.445-4.342v-12.446c0-18.331-7.916-27.498-23.737-27.498
		c-15.63,0-34.64,1.257-57.024,3.765l-0.867-16.5c20.646-4.242,39.46-6.367,56.444-6.367c16.4,0,28.317,3.717,35.748,11.144
		c7.427,7.432,11.145,19.249,11.145,35.458v74.102c0.578,7.142,6.174,11.388,16.789,12.735l-0.87,17.078
		c-15.245,0-26.729-3.857-34.445-11.577c-17.178,7.72-34.545,11.577-52.103,11.577
		C1852.812,4727.548,1842.68,4723.783,1835.733,4716.259z M1908.387,4702.654l6.659-2.316v-47.76l-42.84,4.051
		c-8.684,0.773-14.957,3.284-18.815,7.526c-3.863,4.246-5.789,10.421-5.789,18.525c0,17.757,7.332,26.631,21.999,26.631
		C1882.526,4709.312,1895.457,4707.096,1908.387,4702.654z"/>
	<path d="M1986.685,4782.978c-8.975-6.467-13.46-17.222-13.46-32.273c0-6.179,0.724-11.244,2.172-15.197
		c1.447-3.958,3.713-7.481,6.802-10.566c3.084-3.084,7.715-7.042,13.894-11.867c-2.705-1.737-4.732-4.342-6.079-7.816
		c-1.352-3.473-2.027-7.137-2.027-10.999c0-2.505,0.579-5.256,1.737-8.25c1.158-2.989,3.858-8.249,8.104-15.775
		c-15.246-6.752-22.867-21.226-22.867-43.418c0-16.789,4.533-29.28,13.604-37.484c9.069-8.2,22.769-12.303,41.103-12.303
		c8.874,0,18.715,1.257,29.524,3.763l42.84-1.157v18.525l-27.498-0.579c3.279,3.283,5.689,7.286,7.236,12.012
		c1.542,4.731,2.315,10.762,2.315,18.092c0,17.178-4.441,29.43-13.314,36.762c-8.878,7.336-22.867,10.999-41.971,10.999
		c-5.984,0-10.904-0.385-14.762-1.158c-1.547,3.862-2.801,7.238-3.764,10.133c-0.967,2.895-1.447,5.403-1.447,7.524
		c0,5.021,1.976,8.299,5.933,9.842c3.953,1.547,10.081,2.315,18.38,2.315h11.289c12.736,0,23.012,0.968,30.827,2.895
		c7.815,1.931,13.844,5.839,18.091,11.723c4.243,5.89,6.368,14.424,6.368,25.618c0,16.788-5.21,29.04-15.631,36.761
		c-10.419,7.717-27.598,11.578-51.523,11.578C2010.948,4792.675,1995.656,4789.44,1986.685,4782.978z M2068.166,4767.927
		c6.368-4.343,9.552-11.822,9.552-22.433c0-6.179-1.063-10.855-3.184-14.039c-2.126-3.185-5.694-5.354-10.71-6.513
		c-5.021-1.157-12.257-1.736-21.71-1.736l-31.261-1.447c-6.368,4.631-10.665,8.684-12.88,12.155
		c-2.222,3.475-3.329,8.105-3.329,13.896c0,10.031,2.94,16.978,8.829,20.84c5.884,3.858,16.254,5.789,31.117,5.789
		C2050.603,4774.438,2061.797,4772.268,2068.166,4767.927z M2054.85,4650.841c5.016-4.82,7.526-13.025,7.526-24.604
		c0-11.384-2.511-19.489-7.526-24.314c-5.021-4.821-13.314-7.237-24.893-7.237c-11.968,0-20.506,2.46-25.617,7.382
		c-5.115,4.921-7.67,13.076-7.67,24.458c0,11.389,2.555,19.495,7.67,24.315c5.111,4.826,13.555,7.236,25.328,7.236
		C2041.436,4658.076,2049.83,4655.667,2054.85,4650.841z"/>
	<path d="M2135.751,4710.323c-9.167-11.479-13.749-29.569-13.749-54.273c0-26.818,4.921-46.696,14.762-59.627
		c9.842-12.927,25.277-19.393,46.313-19.393c19.294,0,33.721,5.548,43.274,16.643c9.553,11.1,14.328,28.127,14.328,51.09
		l-1.158,16.499H2144c0,11.968,1.302,21.325,3.906,28.076c2.605,6.758,7.042,11.628,13.315,14.619
		c6.269,2.994,15.001,4.486,26.196,4.486c5.596,0,12.058-0.146,19.395-0.435c7.33-0.29,13.988-0.723,19.972-1.303l8.395-0.868
		l0.578,17.077c-21.419,3.085-39.175,4.632-53.26,4.632C2160.5,4727.548,2144.915,4721.808,2135.751,4710.323z M2218.971,4643.895
		c0-17.558-2.801-30.054-8.395-37.485c-5.599-7.426-14.763-11.144-27.498-11.144c-13.314,0-23.156,3.907-29.524,11.723
		c-6.369,7.815-9.652,20.117-9.843,36.906H2218.971z"/>
	<path d="M2326.063,4524.347h23.158l34.156,180.622h8.393l40.814-178.885h26.051l40.814,178.885h8.395L2542,4524.347h22.865
		l-40.521,200.306h-40.814l-37.92-171.07l-37.918,171.07h-40.814L2326.063,4524.347z"/>
	<path d="M2596.271,4710.323c-9.168-11.479-13.75-29.569-13.75-54.273c0-26.818,4.922-46.696,14.764-59.627
		c9.842-12.927,25.277-19.393,46.314-19.393c19.293,0,33.721,5.548,43.271,16.643c9.553,11.1,14.328,28.127,14.328,51.09
		l-1.158,16.499h-95.521c0,11.968,1.303,21.325,3.908,28.076c2.607,6.758,7.043,11.628,13.314,14.619
		c6.27,2.994,15.004,4.486,26.197,4.486c5.594,0,12.057-0.146,19.393-0.435c7.332-0.29,13.99-0.723,19.973-1.303l8.393-0.868
		l0.58,17.077c-21.42,3.085-39.176,4.632-53.26,4.632C2621.02,4727.548,2605.436,4721.808,2596.271,4710.323z M2679.49,4643.895
		c0-17.558-2.799-30.054-8.395-37.485c-5.598-7.426-14.762-11.144-27.496-11.144c-13.314,0-23.158,3.907-29.525,11.723
		s-9.652,20.117-9.842,36.906H2679.49z"/>
	<path d="M2743.168,4725.231l-8.104-0.868v-207.542h21.42v70.34c15.051-6.753,29.715-10.132,43.996-10.132
		c12.738,0,22.768,2.459,30.104,7.381c7.332,4.921,12.688,12.785,16.066,23.592c3.373,10.81,5.064,25.282,5.064,43.419
		c0,19.877-2.125,35.219-6.367,46.022c-4.248,10.809-11.34,18.48-21.275,23.012c-9.941,4.532-23.979,6.802-42.115,6.802
		C2769.221,4727.257,2756.289,4726.579,2743.168,4725.231z M2812.348,4702.51c6.559-3.765,11.096-9.697,13.605-17.802
		c2.506-8.105,3.764-19.394,3.764-33.867c0-13.699-1.063-24.458-3.184-32.275c-2.127-7.814-5.645-13.46-10.566-16.934
		c-4.92-3.473-11.723-5.21-20.406-5.21c-10.615,0-23.641,2.801-39.078,8.395v101.889c13.895,0.969,23.158,1.448,27.789,1.448
		C2796.428,4708.153,2805.785,4706.271,2812.348,4702.51z"/>
	<path d="M3059.248,4673.13h-85.68l-14.473,51.523h-21.998l54.996-200.306h48.629l54.996,200.306h-21.998L3059.248,4673.13z
		 M2978.49,4653.157h75.836l-30.393-109.705h-15.051L2978.49,4653.157z"/>
	<path d="M3123.506,4579.924h21.42v10.419c7.527-4.435,14.809-7.765,21.854-9.985c7.043-2.216,14.52-3.328,22.432-3.328
		c17.947,0,31.018,5.933,39.223,17.8c8.201,11.867,12.303,30.732,12.303,56.591c0,18.335-2.125,33.048-6.367,44.142
		c-4.248,11.099-11.002,19.203-20.264,24.314c-9.262,5.112-21.709,7.671-37.34,7.671c-10.811,0-21.326-1.063-31.551-3.186v64.551
		h-21.709V4579.924L3123.506,4579.924z M3209.186,4695.417c6.367-8.873,9.553-23.251,9.553-43.13c0-19.683-2.752-33.911-8.25-42.694
		c-5.5-8.779-13.85-13.171-25.039-13.171c-5.598,0-11.629,0.919-18.092,2.751c-6.467,1.836-12.012,3.812-16.643,5.933l-5.5,2.896
		v97.548c14.277,2.125,24.893,3.185,31.842,3.185C3192.107,4708.733,3202.816,4704.295,3209.186,4695.417z"/>
	<path d="M3276.047,4579.924h21.422v10.419c7.527-4.435,14.809-7.765,21.854-9.985c7.043-2.216,14.518-3.328,22.434-3.328
		c17.945,0,31.018,5.933,39.221,17.8c8.199,11.867,12.303,30.732,12.303,56.591c0,18.335-2.127,33.048-6.369,44.142
		c-4.246,11.099-10.998,19.203-20.262,24.314c-9.264,5.112-21.709,7.671-37.34,7.671c-10.811,0-21.326-1.063-31.553-3.186v64.551
		h-21.709V4579.924L3276.047,4579.924z M3361.727,4695.417c6.369-8.873,9.553-23.251,9.553-43.13c0-19.683-2.75-33.911-8.25-42.694
		c-5.498-8.779-13.848-13.171-25.037-13.171c-5.6,0-11.627,0.919-18.092,2.751c-6.467,1.836-12.012,3.812-16.643,5.933l-5.5,2.896
		v97.548c14.277,2.125,24.893,3.185,31.84,3.185C3344.65,4708.733,3355.359,4704.295,3361.727,4695.417z"/>
	<path d="M3428.59,4522.031h21.42v25.183h-21.42V4522.031z M3428.59,4579.924h21.42v144.729h-21.42V4579.924z"/>
	<path d="M3493.426,4516.821h21.709v207.832h-21.709V4516.821z"/>
	<path d="M3574.471,4719.876c-8.494-5.111-14.572-13.12-18.236-24.025c-3.668-10.898-5.5-25.422-5.5-43.563
		c0-22.961,3.859-41.292,11.578-54.997c7.715-13.698,22.672-20.551,44.865-20.551c5.791,0,11.768,0.29,17.947,0.869
		c6.174,0.578,14.568,1.835,25.182,3.764l-0.869,17.656c-15.244-1.737-26.918-2.605-35.023-2.605c-11,0-19.443,1.691-25.328,5.064
		c-5.889,3.38-10.037,9.073-12.447,17.079c-2.416,8.01-3.617,19.444-3.617,34.301c0,14.087,1.158,25.038,3.473,32.853
		c2.316,7.816,6.514,13.51,12.592,17.079c6.08,3.573,14.908,5.354,26.486,5.354l34.156-2.605l0.867,17.948
		c-18.525,2.699-32.418,4.052-41.68,4.052C3594.443,4727.548,3582.959,4724.988,3574.471,4719.876z"/>
	<path d="M3684.172,4716.259c-6.947-7.525-10.42-18.332-10.42-32.42c0-13.894,3.52-24.215,10.566-30.972
		c7.041-6.752,18.279-10.901,33.721-12.448l45.445-4.342v-12.446c0-18.331-7.916-27.498-23.736-27.498
		c-15.631,0-34.641,1.257-57.023,3.765l-0.867-16.5c20.646-4.242,39.461-6.367,56.443-6.367c16.4,0,28.316,3.717,35.748,11.144
		c7.428,7.432,11.145,19.249,11.145,35.458v74.102c0.578,7.142,6.174,11.388,16.789,12.735l-0.869,17.078
		c-15.246,0-26.729-3.857-34.445-11.577c-17.178,7.72-34.545,11.577-52.104,11.577
		C3701.25,4727.548,3691.119,4723.783,3684.172,4716.259z M3756.826,4702.654l6.658-2.316v-47.76l-42.838,4.051
		c-8.684,0.773-14.957,3.284-18.814,7.526c-3.865,4.246-5.789,10.421-5.789,18.525c0,17.757,7.328,26.631,21.998,26.631
		C3730.965,4709.312,3743.896,4707.096,3756.826,4702.654z"/>
	<path d="M3851.043,4723.061c-5.5-3.185-9.457-8.584-11.869-16.21c-2.414-7.621-3.615-18.281-3.615-31.984v-76.129h-20.553v-18.813
		h20.553v-44.288h21.42v44.288h46.023v18.813h-46.023v69.182c0,10.81,0.383,18.864,1.156,24.17c0.77,5.311,2.65,9.362,5.645,12.157
		c2.99,2.8,7.672,4.196,14.039,4.196l25.762-1.737l1.447,17.948c-13.703,2.121-24.023,3.184-30.971,3.184
		C3864.213,4727.837,3856.543,4726.244,3851.043,4723.061z"/>
	<path d="M3929.629,4522.031h21.42v25.183h-21.42V4522.031z M3929.629,4579.924h21.42v144.729h-21.42V4579.924z"/>
	<path d="M4009.807,4719.876c-9.072-5.111-15.537-13.071-19.395-23.88c-3.861-10.804-5.789-25.084-5.789-42.84
		c0-18.331,2.027-33.043,6.078-44.143c4.055-11.095,10.611-19.198,19.686-24.314c9.066-5.11,21.129-7.67,36.182-7.67
		c15.242,0,27.355,2.604,36.328,7.814s15.484,13.314,19.537,24.314c4.053,10.999,6.08,25.667,6.08,43.998
		c0,17.755-1.932,32.035-5.789,42.839c-3.863,10.809-10.275,18.769-19.25,23.88c-8.973,5.111-21.273,7.671-36.906,7.671
		C4031.127,4727.548,4018.875,4724.988,4009.807,4719.876z M4071.172,4703.377c5.594-3.568,9.502-9.263,11.723-17.078
		c2.217-7.815,3.33-18.859,3.33-33.143c0-15.051-1.16-26.631-3.475-34.734c-2.316-8.105-6.273-13.895-11.867-17.368
		c-5.6-3.474-13.605-5.211-24.025-5.211s-18.479,1.737-24.17,5.211c-5.693,3.473-9.746,9.262-12.156,17.368
		c-2.416,8.104-3.617,19.684-3.617,34.734c0,14.088,1.107,25.089,3.328,32.999c2.217,7.914,6.172,13.654,11.867,17.222
		c5.689,3.574,13.939,5.355,24.75,5.355C4057.467,4708.733,4065.574,4706.951,4071.172,4703.377z"/>
	<path d="M4143.824,4579.924h21.422v10.132c8.684-4.822,16.645-8.201,23.881-10.132c7.238-1.927,14.807-2.895,22.723-2.895
		c12.346,0,21.898,2.314,28.656,6.946c6.752,4.631,11.527,12.013,14.326,22.144c2.797,10.131,4.197,24.171,4.197,42.116v76.417
		h-21.42v-75.838c0-13.698-0.824-24.214-2.461-31.551c-1.641-7.332-4.584-12.638-8.828-15.92c-4.246-3.28-10.42-4.923-18.525-4.923
		c-6.563,0-13.27,0.824-20.117,2.461c-6.852,1.643-12.4,3.523-16.643,5.645l-5.502,2.606v117.52h-21.709V4579.924L4143.824,4579.924
		z"/>
	<path d="M811.802,5060.424c-10.904-9.452-16.354-24.604-16.354-45.446v-145.597h10.42v146.177
		c0,32.808,18.332,49.209,54.998,49.209c19.488,0,34.056-3.858,43.708-11.578c9.646-7.717,14.473-20.263,14.473-37.629v-146.177
		h9.842v145.597c0,20.842-5.599,35.993-16.788,45.445c-11.194,9.457-27.983,14.183-50.367,14.183
		C839.346,5074.606,822.701,5069.882,811.802,5060.424z"/>
	<path d="M977.807,5071.133l-8.395-1.157l1.158-9.841c22.768,3.472,39.172,5.209,49.208,5.209c14.472,0,25.084-2.555,31.84-7.67
		c6.752-5.11,10.131-13.266,10.131-24.458c0-7.911-1.592-13.939-4.776-18.093c-3.183-4.147-7.236-7.042-12.157-8.683
		c-4.92-1.639-11.917-3.135-20.984-4.487c-3.475-0.384-6.079-0.769-7.816-1.157c-13.125-2.121-23.062-4.582-29.813-7.381
		c-6.757-2.796-11.534-6.413-14.329-10.854c-2.8-4.438-4.197-10.421-4.197-17.948c0-15.051,4.532-25.423,13.604-31.116
		c9.068-5.689,22.19-8.539,39.367-8.539c15.242,0,28.366,0.868,39.366,2.605l7.236,1.447l-0.58,9.264
		c-9.262-1.543-18.189-2.701-26.775-3.475c-8.588-0.769-15.391-1.157-20.406-1.157c-14.667,0-25.233,2.511-31.696,7.526
		c-6.467,5.019-9.697,12.256-9.697,21.708c0,7.142,1.687,12.497,5.065,16.064c3.373,3.574,7.57,6.033,12.591,7.381
		c5.016,1.354,13.795,3.186,26.341,5.5c13.314,2.316,23.301,4.732,29.958,7.236c6.658,2.511,11.673,6.274,15.052,11.29
		c3.374,5.021,5.064,12.156,5.064,21.421c0,15.051-4.486,25.955-13.46,32.708c-8.973,6.757-22.626,10.132-40.958,10.132
		C1007.911,5074.606,994.596,5073.448,977.807,5071.133z"/>
	<path d="M1108.639,4869.381h9.842v15.921h-9.842V4869.381z M1108.929,4927.272h9.842v144.729h-9.842V4927.272z"/>
	<path d="M1164.214,4927.272h9.842v11.578c9.842-5.21,18.86-8.873,27.064-10.999c8.2-2.121,16.644-3.185,25.328-3.185
		c12.541,0,22.044,2.126,28.512,6.368c6.463,4.247,11,11.483,13.603,21.709c2.605,10.23,3.909,24.992,3.909,44.287v74.97h-9.842
		v-74.97c0-16.595-0.918-29.33-2.75-38.208c-1.837-8.873-5.21-15.243-10.132-19.104c-4.92-3.858-12.112-5.789-21.564-5.789
		c-8.683,0-17.513,1.157-26.486,3.473c-8.974,2.316-15.775,4.731-20.407,7.237l-6.948,3.764v123.598h-10.13V4927.272z"/>
	<path d="M1331.226,5136.263c-7.915-3.09-13.315-7.721-16.209-13.895c-2.895-6.178-4.342-14.667-4.342-25.473
		c0-6.946,0.724-12.401,2.172-16.354c1.447-3.958,3.568-7.236,6.368-9.841c2.796-2.606,7.96-6.803,15.486-12.592
		c-2.126-1.347-3.718-3.713-4.777-7.09c-1.062-3.375-1.592-6.899-1.592-10.567c0-2.315,0.53-4.92,1.592-7.815
		c1.06-2.895,3.52-8.199,7.381-15.92c-16.597-4.821-24.893-19.488-24.893-43.996c0-16.401,3.952-28.558,11.868-36.473
		c7.91-7.91,20.841-11.867,38.787-11.867c9.453,0,19.295,1.257,29.525,3.763l40.524-0.868v10.131l-31.552,0.289
		c3.858,2.705,6.802,7.093,8.83,13.171c2.026,6.078,3.04,13.46,3.04,22.144c0,16.983-4.153,29.091-12.447,36.327
		c-8.299,7.236-21.615,10.854-39.945,10.854c-6.179,0-11.483-0.385-15.921-1.158l-2.316,5.789c-1.352,3.284-2.414,6.179-3.184,8.683
		c-0.773,2.511-1.159,4.923-1.159,7.237c0,5.79,2.072,9.652,6.224,11.579c4.147,1.931,10.276,2.895,18.379,2.895l19.973-0.291
		c10.42,0,18.909,1.063,25.472,3.186c6.559,2.125,11.625,6.033,15.197,11.723c3.569,5.689,5.355,13.939,5.355,24.749
		c0,10.806-1.932,19.539-5.79,26.197c-3.862,6.657-10.374,11.672-19.537,15.05c-9.169,3.375-21.759,5.065-37.775,5.065
		C1350.716,5140.893,1339.137,5139.346,1331.226,5136.263z M1398.092,5128.303c7.331-2.416,12.591-6.369,15.775-11.868
		c3.185-5.501,4.776-13.077,4.776-22.724c0-8.104-1.013-14.183-3.039-18.236c-2.027-4.051-5.934-6.945-11.724-8.683
		c-5.79-1.737-14.667-2.506-26.63-2.315l-34.735-1.157c-6.368,4.246-11,7.77-13.894,10.564c-2.895,2.796-4.92,5.835-6.079,9.118
		c-1.158,3.279-1.737,7.716-1.737,13.315c0,9.262,1.397,16.449,4.198,21.564c2.795,5.11,7.477,8.729,14.039,10.854
		c6.558,2.121,16.015,3.185,28.366,3.185C1380.53,5131.92,1390.756,5130.712,1398.092,5128.303z M1393.749,5002.388
		c5.979-5.69,8.973-15.776,8.973-30.248c0-14.278-2.944-24.265-8.829-29.96c-5.89-5.689-16.064-8.539-30.537-8.539
		c-14.862,0-25.378,2.944-31.552,8.829c-6.179,5.889-9.263,15.97-9.263,30.248c0,14.283,3.04,24.219,9.118,29.813
		c6.079,5.6,16.45,8.395,31.117,8.395C1377.44,5010.926,1387.765,5008.082,1393.749,5002.388z"/>
	<path d="M1636.309,5009.769h-96.679l-19.104,62.233h-9.842l61.944-202.621h9.552l1.737-1.447l-0.579,1.447h9.262l-0.579-1.447
		l1.737,1.447h9.552l61.943,202.621h-9.842L1636.309,5009.769z M1633.125,4999.637l-0.579-2.026l0.289,0.29l-37.34-118.678h-15.05
		l-37.051,118.388l-0.579,2.026H1633.125z"/>
	<path d="M1696.514,4927.272h9.842v11.578c9.842-5.21,18.859-8.873,27.065-10.999c8.2-2.121,16.644-3.185,25.328-3.185
		c12.542,0,22.044,2.126,28.511,6.368c6.462,4.247,10.999,11.483,13.605,21.709c2.604,10.23,3.907,24.992,3.907,44.287v74.97h-9.841
		v-74.97c0-16.595-0.918-29.33-2.75-38.208c-1.837-8.873-5.21-15.243-10.132-19.104c-4.92-3.858-12.111-5.789-21.564-5.789
		c-8.684,0-17.512,1.157-26.485,3.473c-8.973,2.316-15.775,4.731-20.407,7.237l-6.946,3.764v123.598h-10.131v-144.729H1696.514z"/>
	<path d="M1863.528,5136.263c-7.916-3.09-13.314-7.721-16.209-13.895c-2.895-6.178-4.342-14.667-4.342-25.473
		c0-6.946,0.723-12.401,2.171-16.354c1.447-3.958,3.568-7.236,6.368-9.841c2.795-2.606,7.959-6.803,15.485-12.592
		c-2.126-1.347-3.718-3.713-4.775-7.09c-1.063-3.375-1.592-6.899-1.592-10.567c0-2.315,0.528-4.92,1.592-7.815
		c1.058-2.895,3.519-8.199,7.38-15.92c-16.599-4.821-24.895-19.488-24.895-43.996c0-16.401,3.954-28.558,11.868-36.473
		c7.91-7.91,20.841-11.867,38.787-11.867c9.453,0,19.295,1.257,29.525,3.763l40.524-0.868v10.131l-31.552,0.289
		c3.858,2.705,6.802,7.093,8.83,13.171c2.026,6.078,3.04,13.46,3.04,22.144c0,16.983-4.153,29.091-12.447,36.327
		c-8.299,7.236-21.615,10.854-39.945,10.854c-6.178,0-11.483-0.385-15.92-1.158l-2.316,5.789c-1.352,3.284-2.415,6.179-3.184,8.683
		c-0.773,2.511-1.159,4.923-1.159,7.237c0,5.79,2.071,9.652,6.224,11.579c4.147,1.931,10.276,2.895,18.38,2.895l19.973-0.291
		c10.421,0,18.91,1.063,25.472,3.186c6.558,2.125,11.624,6.033,15.197,11.723c3.568,5.689,5.354,13.939,5.354,24.749
		c0,10.806-1.932,19.539-5.789,26.197c-3.862,6.657-10.375,11.672-19.539,15.05c-9.167,3.375-21.758,5.065-37.773,5.065
		C1883.017,5140.893,1871.438,5139.346,1863.528,5136.263z M1930.393,5128.303c7.332-2.416,12.591-6.369,15.775-11.868
		c3.184-5.501,4.775-13.077,4.775-22.724c0-8.104-1.012-14.183-3.038-18.236c-2.027-4.051-5.934-6.945-11.724-8.683
		c-5.789-1.737-14.667-2.506-26.63-2.315l-34.735-1.157c-6.368,4.246-10.999,7.77-13.894,10.564
		c-2.895,2.796-4.92,5.835-6.078,9.118c-1.158,3.279-1.737,7.716-1.737,13.315c0,9.262,1.397,16.449,4.197,21.564
		c2.795,5.11,7.477,8.729,14.039,10.854c6.558,2.121,16.016,3.185,28.367,3.185
		C1912.831,5131.92,1923.057,5130.712,1930.393,5128.303z M1926.051,5002.388c5.979-5.69,8.972-15.776,8.972-30.248
		c0-14.278-2.944-24.265-8.828-29.96c-5.889-5.689-16.065-8.539-30.538-8.539c-14.862,0-25.376,2.944-31.551,8.829
		c-6.179,5.889-9.262,15.97-9.262,30.248c0,14.283,3.039,24.219,9.117,29.813c6.08,5.6,16.45,8.395,31.118,8.395
		C1909.742,5010.926,1920.067,5008.082,1926.051,5002.388z"/>
	<path d="M2009.411,5068.384c-6.367-4.147-10.808-11.29-13.314-21.42c-2.511-10.131-3.763-24.939-3.763-44.433v-75.258h10.131
		v74.392c0,17.177,0.913,30.202,2.75,39.075c1.831,8.879,5.256,15.197,10.276,18.96c5.016,3.764,12.447,5.645,22.289,5.645
		c9.263,0,18.091-1.303,26.485-3.908c8.396-2.605,16.065-6.124,23.012-10.565v-123.598h10.42v144.729h-10.709v-11.577
		c-7.525,4.825-15.103,8.395-22.723,10.71c-7.625,2.315-16.454,3.474-26.485,3.474
		C2025.232,5074.606,2015.78,5072.531,2009.411,5068.384z"/>
	<path d="M2144.875,4860.697h10.131v211.305h-10.131V4860.697z"/>
	<path d="M2203.198,5063.606c-6.658-7.33-9.986-17.461-9.986-30.391c0-12.927,3.229-22.818,9.697-29.67
		c6.463-6.848,16.643-11.238,30.537-13.17l54.996-5.501v-14.762c0-11.962-2.508-20.886-7.523-26.774
		c-5.021-5.885-11.867-8.829-20.551-8.829c-8.494,0-15.971,0.289-22.434,0.869c-6.469,0.578-18.575,1.931-36.327,4.052l-0.868-9.552
		c20.066-3.474,38.302-5.211,54.707-5.211c14.857,0,25.809,3.718,32.855,11.146c7.039,7.431,10.564,18.864,10.564,34.3v83.364
		c0.189,2.895,2.217,5.455,6.078,7.67c3.859,2.222,8.973,3.719,15.342,4.487l-0.58,8.973c-6.365,0-12.301-1.158-17.801-3.474
		s-9.506-5.398-12.012-9.262c-19.299,8.493-38.787,12.735-58.471,12.735C2219.263,5074.606,2209.856,5070.942,2203.198,5063.606z
		 M2280.338,5056.37l8.104-3.183v-58.761l-53.838,5.21c-10.614,0.773-18.286,3.718-23.011,8.828
		c-4.731,5.116-7.093,12.786-7.093,23.013c0,22.388,9.068,33.576,27.209,33.576
		C2248.498,5065.054,2264.709,5062.159,2280.338,5056.37z"/>
	<path d="M2345.463,4927.272h9.842v22.579c16.789-12.542,35.986-21.032,57.602-25.474v10.42c-8.104,1.547-17.223,4.441-27.354,8.685
		c-10.131,4.247-17.322,8.01-21.564,11.288l-8.395,4.922v112.31h-10.131V4927.272L2345.463,4927.272z"/>
	<path d="M2505.094,5063.606c-6.658-7.33-9.986-17.461-9.986-30.391c0-12.927,3.229-22.818,9.697-29.67
		c6.463-6.848,16.643-11.238,30.537-13.17l54.996-5.501v-14.762c0-11.962-2.51-20.886-7.523-26.774
		c-5.021-5.885-11.869-8.829-20.553-8.829c-8.494,0-15.971,0.289-22.434,0.869c-6.467,0.578-18.572,1.931-36.326,4.052l-0.867-9.552
		c20.066-3.474,38.303-5.211,54.707-5.211c14.857,0,25.805,3.718,32.854,11.146c7.041,7.431,10.564,18.864,10.564,34.3v83.364
		c0.189,2.895,2.219,5.455,6.08,7.67c3.857,2.222,8.973,3.719,15.342,4.487l-0.58,8.973c-6.367,0-12.303-1.158-17.801-3.474
		c-5.5-2.315-9.508-5.398-12.014-9.262c-19.299,8.493-38.787,12.735-58.471,12.735
		C2521.158,5074.606,2511.752,5070.942,2505.094,5063.606z M2582.234,5056.37l8.104-3.183v-58.761l-53.838,5.21
		c-10.615,0.773-18.285,3.718-23.012,8.828c-4.73,5.116-7.092,12.786-7.092,23.013c0,22.388,9.068,33.576,27.209,33.576
		C2550.395,5065.054,2566.604,5062.159,2582.234,5056.37z"/>
	<path d="M2647.359,4927.272h9.84v11.578c9.842-5.21,18.861-8.873,27.066-10.999c8.199-2.121,16.643-3.185,25.328-3.185
		c12.539,0,22.043,2.126,28.51,6.368c6.463,4.247,11,11.483,13.605,21.709c2.605,10.23,3.906,24.992,3.906,44.287v74.97h-9.84
		v-74.97c0-16.595-0.918-29.33-2.75-38.208c-1.836-8.873-5.211-15.243-10.133-19.104c-4.92-3.858-12.111-5.789-21.564-5.789
		c-8.684,0-17.512,1.157-26.484,3.473c-8.975,2.316-15.777,4.731-20.408,7.237l-6.945,3.764v123.598h-10.131V4927.272
		L2647.359,4927.272z"/>
	<path d="M2804.82,5057.094c-7.527-11.673-11.289-29.858-11.289-54.563c0-18.715,2.07-33.722,6.223-45.01
		c4.146-11.289,10.854-19.583,20.115-24.895c9.264-5.305,21.711-7.96,37.342-7.96c5.789,0,11.961,0.34,18.525,1.014
		c6.559,0.679,12.252,1.592,17.078,2.75v-67.732h9.842v211.304h-9.842v-12.446c-15.246,10.036-31.939,15.052-50.076,15.052
		C2824.982,5074.606,2812.344,5068.771,2804.82,5057.094z M2867.197,5061.581c8.395-2.504,14.617-5.015,18.67-7.525l6.947-3.764
		v-112.6c-14.088-2.699-26.535-4.052-37.34-4.052c-12.932,0-23.111,2.366-30.537,7.092c-7.434,4.73-12.693,11.867-15.777,21.42
		c-3.09,9.552-4.631,22.243-4.631,38.064c0,21.613,2.896,37.873,8.684,48.772c5.789,10.904,15.822,16.354,30.104,16.354
		C2850.844,5065.344,2858.805,5064.092,2867.197,5061.581z"/>
	<path d="M3016.406,4869.381h72.654c20.264,0,35.359,4.683,45.301,14.04c9.936,9.362,14.908,24.074,14.908,44.142
		c0,34.545-13.994,54.229-41.973,59.05l45.445,85.39h-11.869l-44.865-83.942h-68.891v83.942h-10.709v-202.621H3016.406z
		 M3089.061,4978.218c16.596,0,28.992-4.002,37.195-12.012c8.199-8.006,12.303-20.501,12.303-37.485
		c0-16.979-4.006-29.426-12.014-37.341c-8.01-7.91-20.506-11.866-37.484-11.866h-61.943v98.704H3089.061L3089.061,4978.218z"/>
	<path d="M3194.422,5057.385c-8.682-11.48-13.025-29.381-13.025-53.694c0-27.015,4.676-46.938,14.039-59.773
		c9.357-12.831,24.17-19.249,44.432-19.249c18.525,0,32.225,5.6,41.104,16.789c8.873,11.193,13.314,28.757,13.314,52.683v9.552
		h-102.469c-0.193,15.246,1.254,27.259,4.342,36.036c3.084,8.784,8.297,15.246,15.633,19.395c7.328,4.152,17.656,6.224,30.971,6.224
		c5.016,0,10.949-0.19,17.801-0.579c6.846-0.385,13.359-0.769,19.537-1.158l8.684-0.868l0.58,9.552
		c-23.547,1.543-40.141,2.315-49.789,2.315C3218.158,5074.606,3203.107,5068.868,3194.422,5057.385z M3283.574,4994.427
		c0-21.42-3.473-36.855-10.42-46.313c-6.945-9.452-17.947-14.183-32.996-14.183c-16.021,0-28.078,4.92-36.184,14.762
		c-8.104,9.842-12.258,25.087-12.447,45.733H3283.574z"/>
	<path d="M3333.217,5063.606c-6.658-7.33-9.986-17.461-9.986-30.391c0-12.927,3.229-22.818,9.697-29.67
		c6.463-6.848,16.643-11.238,30.537-13.17l54.998-5.501v-14.762c0-11.962-2.512-20.886-7.527-26.774
		c-5.02-5.885-11.867-8.829-20.551-8.829c-8.494,0-15.971,0.289-22.434,0.869c-6.467,0.578-18.574,1.931-36.326,4.052l-0.867-9.552
		c20.066-3.474,38.301-5.211,54.705-5.211c14.859,0,25.809,3.718,32.854,11.146c7.043,7.431,10.566,18.864,10.566,34.3v83.364
		c0.189,2.895,2.217,5.455,6.078,7.67c3.859,2.222,8.975,3.719,15.342,4.487l-0.578,8.973c-6.369,0-12.303-1.158-17.801-3.474
		c-5.5-2.315-9.508-5.398-12.014-9.262c-19.299,8.493-38.787,12.735-58.471,12.735
		C3349.281,5074.606,3339.875,5070.942,3333.217,5063.606z M3410.357,5056.37l8.105-3.183v-58.761l-53.84,5.21
		c-10.615,0.773-18.287,3.718-23.012,8.828c-4.732,5.116-7.092,12.786-7.092,23.013c0,22.388,9.066,33.576,27.209,33.576
		C3378.516,5065.054,3394.727,5062.159,3410.357,5056.37z"/>
	<path d="M3492.416,5066.937c-8.207-5.11-13.996-13.071-17.369-23.88c-3.379-10.805-5.066-25.567-5.066-44.286
		c0-13.507,0.914-25.329,2.75-35.459c1.832-10.132,6.66-19.148,14.473-27.065c7.814-7.91,19.729-11.867,35.748-11.867
		c6.369,0,12.303,0.194,17.801,0.579c5.502,0.389,13.361,1.353,23.592,2.895l-0.867,8.974c-14.668-1.928-26.537-2.895-35.604-2.895
		c-12.158,0-21.617,2.026-28.369,6.077c-6.756,4.054-11.578,10.855-14.473,20.408c-2.893,9.552-4.34,23.012-4.34,40.379
		c0,16.211,1.346,28.9,4.051,38.063c2.701,9.168,7.572,15.875,14.617,20.118c7.043,4.246,17.123,6.366,30.25,6.366l34.443-2.895
		l0.58,9.263c-17.945,1.927-30.393,2.895-37.34,2.895C3512.242,5074.606,3500.615,5072.047,3492.416,5066.937z"/>
	<path d="M3622.521,5070.41c-5.02-2.99-8.639-8.15-10.854-15.486c-2.221-7.331-3.328-17.847-3.328-31.551v-86.838h-22.869v-9.263
		h22.869v-46.892h9.84v46.892h52.971v9.263h-52.971v75.838c0,14.667,0.529,25.521,1.592,32.564
		c1.059,7.046,3.424,12.302,7.092,15.774c3.662,3.475,9.646,5.21,17.945,5.21l28.078-2.604l1.447,9.262
		c-15.824,1.543-26.148,2.316-30.971,2.316C3634.486,5074.896,3627.537,5073.399,3622.521,5070.41z"/>
</g>
</svg>
