<?xml version="1.0" encoding="utf-8"?>
<!-- Generator: Adobe Illustrator 22.0.1, SVG Export Plug-In . SVG Version: 6.00 Build 0)  -->
<svg version="1.1" id="Layer_1" xmlns="http://www.w3.org/2000/svg" xmlns:xlink="http://www.w3.org/1999/xlink" x="0px" y="0px"
	 viewBox="0 0 4451 6106.1" style="enable-background:new 0 0 4451 6106.1;" xml:space="preserve">
<style type="text/css">
	.st0{display:none;}
	.st1{display:inline;opacity:0.6;}
	.st2{fill:none;stroke:#121212;stroke-width:30;stroke-linecap:round;stroke-miterlimit:10;}
	.st3{fill:#121212;}
	.st4{display:inline;}
	.st5{display:inline;fill:#007AFF;}
	.st6{display:inline;fill:#E23237;}
	.st7{display:inline;fill:#121212;}
	.st8{font-family:'Cairo-Light';}
	.st9{font-size:236.2701px;}
	.st10{font-size:276.8966px;}
	.st11{font-family:'Cairo-ExtraLight';}
	.st12{font-size:275.1063px;}
	.st13{fill:#E23237;}
	.st14{fill:#B52E31;}
	.st15{fill:#FFFFFF;}
	.st16{fill:#007AFF;}
	.st17{fill:none;stroke:#121212;stroke-width:15;stroke-miterlimit:10;}
</style>
<g class="st0">
	<g class="st1">
		<line class="st2" x1="1788.6" y1="2266.9" x2="1788.6" y2="3839.2"/>
		<g>
			<path class="st3" d="M1721,2270.3c0-37.4,30.3-67.7,67.7-67.7s67.7,30.3,67.7,67.7c0,37.4-30.3,67.7-67.7,67.7
				S1721,2307.7,1721,2270.3z"/>
		</g>
		<g>
			<path class="st3" d="M1721,3835.8c0,37.4,30.3,67.7,67.7,67.7s67.7-30.3,67.7-67.7c0-37.4-30.3-67.7-67.7-67.7
				S1721,3798.4,1721,3835.8z"/>
		</g>
	</g>
</g>
<g class="st0">
	<path class="st4" d="M2382.7,2528.4h75.3c21.2,0,36.9,3.9,47.2,11.6c10.3,7.8,15.4,19.7,15.4,35.7c0,11.4-2.5,20.5-7.4,27.3
		c-4.9,6.8-12.2,11.9-21.9,15.5c12.6,3.7,21.9,9.3,27.9,16.7c6.1,7.4,9.1,17.4,9.1,30.1c0,17.3-5.5,29.9-16.5,37.7
		c-11,7.8-27.2,11.8-48.6,11.8h-80.6V2528.4z M2460.5,2613.4c15,0,26.1-3.1,33.3-9.2c7.2-6.2,10.8-15.5,10.8-27.9
		c0-12.7-3.7-21.7-11.1-27.3c-7.4-5.5-19.3-8.3-35.8-8.3h-59.6v72.7H2460.5z M2462.6,2702.5c16.1,0,28.4-3,37-9.1
		c8.6-6.1,13-15.7,13-28.9c0-14.4-4.8-24.5-14.4-30.2c-9.6-5.7-22.2-8.6-37.8-8.6h-62.4v76.7H2462.6z"/>
	<path class="st4" d="M2586.7,2711.3c-7-3.9-11.9-10.6-14.7-19.9s-4.2-22.9-4.2-40.5v-69.8h15.4v69c0,15,0.9,26.3,2.8,34.1
		c1.9,7.8,5.2,13.2,10.2,16.4c4.9,3.2,12.3,4.8,22.2,4.8c17.3,0,33.9-4,49.7-12v-112.3h15.1v133.7h-15.4v-10.2
		c-8.2,4.3-16.2,7.4-23.9,9.5c-7.7,2-16.7,3.1-27,3.1C2603.8,2717.2,2593.7,2715.2,2586.7,2711.3z"/>
	<path class="st4" d="M2730.3,2527.6h14.8v17.6h-14.8V2527.6z M2730.3,2581.1h14.8v133.7h-14.8V2581.1z"/>
	<path class="st4" d="M2794.2,2520.6h15.4v194.1h-15.4V2520.6z"/>
	<path class="st4" d="M2862.1,2701c-8.2-10.8-12.3-27.6-12.3-50.4c0-17.3,2.2-31.2,6.6-41.6c4.4-10.4,11.5-18.1,21.3-23
		c9.8-4.9,22.9-7.4,39.4-7.4c13,0,25.5,1.1,37.7,3.2v-61.2h14.8v194.1h-15.1v-10.7c-16.1,8.7-33.2,13.1-51.6,13.1
		C2883.9,2717.2,2870.3,2711.8,2862.1,2701z M2928.5,2702.3c8.2-2,14.6-4.1,19.1-6.3l7.1-2.9v-99.5c-13.6-2.3-26.3-3.5-38.3-3.5
		c-13,0-23.1,2.1-30.4,6.2c-7.3,4.1-12.5,10.3-15.6,18.7c-3.1,8.4-4.6,19.6-4.6,33.7c0,18.9,2.9,33.1,8.8,42.5
		c5.9,9.5,16,14.2,30.4,14.2C2912.4,2705.4,2920.2,2704.4,2928.5,2702.3z"/>
	<path class="st5" d="M3093.8,2712.2l-13-1.6l2.9-20.1c33,3.8,58,5.6,74.9,5.6c35.7,0,53.5-14.5,53.5-43.6c0-7.9-1.6-14.2-4.9-18.8
		c-3.3-4.6-8.8-8.4-16.6-11.3c-7.8-2.9-19.2-5.6-34.2-8.1c-19.8-3.6-35.2-7.6-46.1-12.2c-11-4.6-19-10.8-24.1-18.5
		c-5.1-7.7-7.6-18.1-7.6-31c0-38.9,26.9-58.3,80.7-58.3c18.6,0,43.8,2.1,75.6,6.3l-2.5,20.4c-34.7-3.6-58.5-5.3-71.3-5.3
		c-36.2,0-54.3,11.8-54.3,35.4c0,9,1.7,15.8,5.2,20.5c3.5,4.7,9.5,8.5,17.9,11.4c8.4,2.9,21.8,6.2,40.2,9.7
		c17.8,3.6,31.7,7.5,41.4,11.9c9.8,4.4,16.9,10.2,21.5,17.4c4.6,7.2,6.9,16.8,6.9,28.7c0,44.5-26.7,66.7-80,66.7
		C3143.1,2717.6,3121,2715.8,3093.8,2712.2z"/>
	<path class="st5" d="M3278.8,2563h19.5v151.8h-19.5V2563z"/>
	<path class="st5" d="M3469.3,2563v151.8h-35.7l-68.1-136.9h-4.8v136.9h-19.5V2563h36.5l67.4,136.9h5.1V2563H3469.3z"/>
	<path class="st5" d="M3533,2708.6c-9.9-5.6-17-14-21.3-25.3c-4.3-11.3-6.5-26.1-6.5-44.4c0-18.1,2.2-32.9,6.5-44.3
		c4.3-11.4,11.4-19.9,21.1-25.4c9.8-5.6,23-8.3,39.8-8.3c15.2,0,31.5,1.5,48.9,4.4l8.6,1.3l-0.8,14c-20.9-3.1-39.1-4.6-54.4-4.6
		c-12.8,0-22.8,2.1-30,6.3c-7.2,4.2-12.2,10.7-15.1,19.7c-2.9,9-4.3,21.3-4.3,37c0,15.6,1.4,28,4.3,37c2.9,9,7.9,15.6,14.9,19.9
		c7.1,4.2,17.1,6.4,29.9,6.4c11.3,0,23.4-1,36.2-3.1v-46.7h-29.1v-15.1h48.4v74.6c-21.3,3.5-40.3,5.3-57,5.3
		C3556.2,2716.9,3542.8,2714.2,3533,2708.6z"/>
	<path class="st5" d="M3764.8,2699.6v15.1h-96.5V2563h19.5v136.7H3764.8z"/>
	<path class="st5" d="M3809.1,2577.9v52.4h71.9v14.7h-71.9v54.8h87.1v14.9h-106.6V2563h106.6v14.9H3809.1z"/>
	<path class="st5" d="M4018.5,2497.9h91.5c27.3,0,47.4,5.7,60.4,17.1c13,11.4,19.5,29,19.5,52.8c0,49.3-26.7,74-80,74h-63.7v73
		h-27.9V2497.9z M4109.7,2620.4c34.5,0,51.7-17.5,51.7-52.6c0-16.9-4.1-29.2-12.3-37c-8.2-7.7-21.3-11.6-39.4-11.6h-63.3v101.2
		H4109.7z"/>
	<path class="st5" d="M4315.2,2675.7h-75l-12.7,39h-19.2l48.1-151.8h42.5l48.1,151.8h-19.2L4315.2,2675.7z M4244.6,2660.6h66.4
		l-26.6-83.1h-13.2L4244.6,2660.6z"/>
	<path class="st5" d="M4392.3,2708.6c-9.9-5.6-17-14-21.3-25.3c-4.3-11.3-6.5-26.1-6.5-44.4c0-18.1,2.2-32.9,6.5-44.3
		c4.3-11.4,11.4-19.9,21.1-25.4c9.8-5.6,23-8.3,39.8-8.3c15.2,0,31.5,1.5,48.9,4.4l8.6,1.3l-0.8,14c-20.9-3.1-39.1-4.6-54.5-4.6
		c-12.8,0-22.8,2.1-30,6.3c-7.2,4.2-12.2,10.7-15.1,19.7c-2.9,9-4.3,21.3-4.3,37c0,15.6,1.4,28,4.3,37c2.9,9,7.9,15.6,14.9,19.9
		c7.1,4.2,17.1,6.4,29.9,6.4c11.3,0,23.4-1,36.2-3.1v-46.7h-29.1v-15.1h48.4v74.6c-21.3,3.5-40.3,5.3-57,5.3
		C4415.6,2716.9,4402.2,2714.2,4392.3,2708.6z"/>
	<path class="st5" d="M4547.2,2577.9v52.4h71.9v14.7h-71.9v54.8h87.1v14.9h-106.6V2563h106.6v14.9H4547.2z"/>
	<path class="st4" d="M2365.7,2849.3h16.1l40.7,174.1h10.8l46.3-171.9h18.2l46.3,171.9h10.8l40.7-174.1h15.7l-44.8,186.4h-34.3
		l-43.8-166.6l-43.5,166.6h-34.3L2365.7,2849.3z"/>
	<path class="st4" d="M2647.4,3022.3c-9.4-10.5-14-27.2-14-50c0-24.8,5.1-43.1,15.3-54.9c10.2-11.9,26.2-17.8,48-17.8
		c20.2,0,35.1,5.1,44.8,15.4c9.7,10.3,14.5,26.3,14.5,48l-0.3,11.2h-106.8c-0.2,12.8,1.2,23,4.3,30.6c3.1,7.6,8.4,13.1,15.9,16.6
		c7.5,3.5,18,5.2,31.3,5.2c5.6,0,12.1-0.1,19.6-0.4c7.5-0.3,14.5-0.7,20.8-1.2l9.3-0.8l0.6,11c-21.4,2-39.6,2.9-54.6,2.9
		C2673,3038,2656.8,3032.8,2647.4,3022.3z M2740.5,2962.9c0-18.5-3.5-31.9-10.5-40c-7-8.1-18.1-12.2-33.3-12.2
		c-15.9,0-27.8,4.2-35.8,12.7c-8,8.5-12.1,21.6-12.3,39.4H2740.5z"/>
	<path class="st4" d="M2802.2,3036.2l-7.4-0.8v-193.9h14.8v68.2c16.9-6.8,34.1-10.2,51.6-10.2c13.4,0,23.9,2.2,31.5,6.7
		c7.6,4.5,13.1,11.6,16.4,21.4c3.3,9.8,4.9,23.2,4.9,40.1c0,18.7-2.2,33-6.5,42.9c-4.3,9.9-11.8,16.9-22.4,21
		c-10.6,4.1-26,6.2-46.2,6.2C2826.4,3037.8,2814.1,3037.2,2802.2,3036.2z M2877.8,3020.4c7.8-3.9,13.2-10.1,16.2-18.5
		c3-8.4,4.5-20.1,4.5-35c0-14.1-1.2-25.1-3.7-33.2c-2.5-8-6.6-13.8-12.3-17.2c-5.8-3.5-13.9-5.2-24.4-5.2c-13.2,0-29.3,3.2-48.5,9.6
		v104c16.9,0.9,28.2,1.3,34,1.3C2858.6,3026.3,2870,3024.3,2877.8,3020.4z"/>
	<path class="st4" d="M3140.2,2981.6h-99.1l-18.5,54h-15.1l63.6-186.4h39.2l63.6,186.4h-15.1L3140.2,2981.6z M3098.9,2861.3h-16.1
		l-37.7,107.8h91.1L3098.9,2861.3z"/>
	<path class="st4" d="M3205.7,2901.9h15.1v10.7c16.7-8.7,33.8-13.1,51.2-13.1c18.9,0,32.6,5.3,40.9,16c8.3,10.7,12.5,27.9,12.5,51.6
		c0,16.9-2.2,30.5-6.5,40.8c-4.3,10.3-11.4,17.8-21.3,22.7c-9.9,4.9-23.2,7.4-39.8,7.4c-12.6,0-24.8-1.1-36.7-3.2v61.5h-15.4V2901.9
		z M3298.6,3012.8c7.6-9.2,11.4-24,11.4-44.5c0-20.3-3.2-34.9-9.7-43.7c-6.5-8.8-16.1-13.2-28.9-13.2c-7,0-14.7,1-23,3.1
		c-8.3,2.1-15.2,4.2-20.5,6.6l-6.8,3.5v98.7c18.1,2.3,31.1,3.5,38.9,3.5C3278.1,3026.5,3291,3021.9,3298.6,3012.8z"/>
	<path class="st4" d="M3366.2,2901.9h15.1v10.7c16.7-8.7,33.8-13.1,51.2-13.1c18.9,0,32.6,5.3,40.9,16c8.3,10.7,12.5,27.9,12.5,51.6
		c0,16.9-2.2,30.5-6.5,40.8c-4.3,10.3-11.4,17.8-21.3,22.7c-9.9,4.9-23.2,7.4-39.8,7.4c-12.6,0-24.8-1.1-36.7-3.2v61.5h-15.4V2901.9
		z M3459.1,3012.8c7.6-9.2,11.4-24,11.4-44.5c0-20.3-3.2-34.9-9.7-43.7c-6.5-8.8-16.1-13.2-28.9-13.2c-7,0-14.7,1-23,3.1
		c-8.3,2.1-15.2,4.2-20.5,6.6l-6.8,3.5v98.7c18.1,2.3,31.1,3.5,38.9,3.5C3438.6,3026.5,3451.5,3021.9,3459.1,3012.8z"/>
	<path class="st4" d="M3528.6,2841.5h15.4v194.1h-15.4V2841.5z"/>
	<path class="st4" d="M3592.8,2848.4h14.8v17.6h-14.8V2848.4z M3592.8,2901.9h14.8v133.7h-14.8V2901.9z"/>
	<path class="st4" d="M3671.2,3031.1c-8.9-4.6-15.1-11.9-18.8-21.9c-3.7-10-5.6-23.4-5.6-40.4c0-12.8,1.1-24.1,3.4-33.8
		c2.3-9.7,7.6-18.1,16.1-25.3c8.4-7.1,21.2-10.7,38.3-10.7c6.4,0,12.7,0.2,18.8,0.7c6.2,0.4,14.8,1.5,25.9,3.1l-0.9,11
		c-16.3-1.6-28.8-2.4-37.7-2.4c-12.6,0-22.3,1.7-29.2,5.2c-6.9,3.5-11.8,9.4-14.7,17.6c-2.9,8.3-4.3,20.1-4.3,35.4
		c0,14.4,1.4,25.7,4.2,33.7c2.8,8,7.7,13.9,14.8,17.5c7.1,3.7,17.3,5.5,30.7,5.5l36.7-2.4l0.6,11.2c-18.7,2-32.5,2.9-41.4,2.9
		C3692.4,3038,3680.1,3035.7,3671.2,3031.1z"/>
	<path class="st4" d="M3787.1,3027.9c-7.1-6.8-10.7-16.3-10.7-28.6s3.5-21.6,10.5-27.9c7-6.3,18.2-10.3,33.6-11.9l55.3-4.8v-12.8
		c0-10.3-2.5-18-7.6-22.9c-5-4.9-12-7.4-20.8-7.4c-9.1,0-17.5,0.3-25.3,0.8c-7.8,0.5-20.1,1.6-36.7,3.2l-0.9-11
		c22.2-3.4,42-5.1,59.3-5.1c16.3,0,28.2,3.4,35.8,10.2c7.6,6.8,11.4,17.5,11.4,32.1v74.1c0.2,2.9,2.2,5.3,5.9,7.2
		c3.7,2,8.8,3.3,15.4,4l-0.6,11c-7.4,0-14-1-19.9-2.9c-5.9-2-10.4-4.7-13.7-8.3c-19.3,7.5-39.3,11.2-59.9,11.2
		C3804.6,3038,3794.2,3034.6,3787.1,3027.9z M3867.5,3019l8.3-2.4v-51.1l-53.4,4.5c-10.7,0.7-18.4,3.3-23,7.8
		c-4.6,4.5-6.9,11.1-6.9,19.8c0,19.3,9,28.9,26.9,28.9C3835.4,3026.5,3851.5,3024,3867.5,3019z"/>
	<path class="st4" d="M3964.2,3034.3c-5.6-2.8-9.6-7.7-12-14.6c-2.5-6.9-3.7-16.6-3.7-29.3v-76.7H3925v-11.8h23.5v-42.5h14.8v42.5
		h54v11.8h-54v67.7c0,12.3,0.5,21.4,1.5,27.4c1,6,3.3,10.5,6.9,13.5c3.6,3,9.5,4.5,17.8,4.5l29.3-2.1l1.2,11.2
		c-14.4,1.8-25.3,2.7-32.7,2.7C3977.4,3038.6,3969.7,3037.1,3964.2,3034.3z"/>
	<path class="st4" d="M4046,2848.4h14.8v17.6H4046V2848.4z M4046,2901.9h14.8v133.7H4046V2901.9z"/>
	<path class="st4" d="M4124.5,3031.5c-9.2-4.4-15.6-11.4-19.3-21.1c-3.7-9.7-5.6-23.1-5.6-40.2c0-18,2-32,5.9-42.1
		c3.9-10.1,10.4-17.3,19.6-21.8c9.2-4.5,22-6.7,38.4-6.7c16.7,0,29.6,2.3,38.7,6.8c9.2,4.5,15.6,11.9,19.4,21.9
		c3.8,10.1,5.7,24,5.7,41.8c0,17.1-1.8,30.5-5.4,40.2c-3.6,9.7-10,16.8-19.1,21.1c-9.2,4.4-22.3,6.6-39.4,6.6
		C4146.7,3038,4133.7,3035.8,4124.5,3031.5z M4194.3,3020.9c6.7-3.6,11.3-9.2,13.7-17c2.5-7.8,3.7-19,3.7-33.8c0-15.7-1.3-27.7-4-36
		c-2.7-8.3-7.4-14.2-14-17.6c-6.7-3.5-16.5-5.2-29.5-5.2c-13.2,0-23.2,1.7-30.1,5.2c-6.9,3.5-11.7,9.4-14.4,17.6
		c-2.7,8.3-4,20.3-4,36c0,14.6,1.2,25.8,3.7,33.7c2.5,7.8,7.1,13.5,14,17.1c6.9,3.6,17.1,5.3,30.7,5.3
		C4177.6,3026.3,4187.6,3024.5,4194.3,3020.9z"/>
	<path class="st4" d="M4268.2,2901.9h15.1v10.2c9.9-4.6,19-7.9,27.5-9.8c8.4-1.9,17.2-2.8,26.2-2.8c13.2,0,23.3,2,30.4,6
		c7.1,4,12,10.7,14.8,20.1c2.8,9.4,4.2,22.8,4.2,40.2v69.8h-14.8v-69.5c0-14.4-1-25.5-2.9-33.2c-2-7.7-5.4-13.2-10.3-16.6
		c-4.9-3.4-12.2-5.1-21.9-5.1c-8.4,0-17.1,1-25.9,2.9c-8.9,2-15.5,4-20.1,6.2l-6.8,2.9v112.3h-15.4V2901.9z"/>
	<path class="st4" d="M2399.5,3398.5c-11.6-8.7-17.4-22.7-17.4-42v-134.5h11.1v135c0,30.3,19.5,45.5,58.7,45.5
		c20.8,0,36.3-3.6,46.6-10.7c10.3-7.1,15.4-18.7,15.4-34.8v-135h10.5v134.5c0,19.3-6,33.2-17.9,42c-11.9,8.7-29.8,13.1-53.7,13.1
		C2428.9,3411.6,2411.1,3407.3,2399.5,3398.5z"/>
	<path class="st4" d="M2576.5,3408.4l-9-1.1l1.2-9.1c24.3,3.2,41.8,4.8,52.5,4.8c15.4,0,26.8-2.4,34-7.1
		c7.2-4.7,10.8-12.3,10.8-22.6c0-7.3-1.7-12.9-5.1-16.7c-3.4-3.8-7.7-6.5-13-8c-5.2-1.5-12.7-2.9-22.4-4.1c-3.7-0.4-6.5-0.7-8.3-1.1
		c-14-2-24.6-4.2-31.8-6.8c-7.2-2.6-12.3-5.9-15.3-10c-3-4.1-4.5-9.6-4.5-16.6c0-13.9,4.8-23.5,14.5-28.7c9.7-5.3,23.7-7.9,42-7.9
		c16.3,0,30.3,0.8,42,2.4l7.7,1.3l-0.6,8.6c-9.9-1.4-19.4-2.5-28.6-3.2c-9.2-0.7-16.4-1.1-21.8-1.1c-15.6,0-26.9,2.3-33.8,7
		c-6.9,4.6-10.3,11.3-10.3,20.1c0,6.6,1.8,11.5,5.4,14.8c3.6,3.3,8.1,5.6,13.4,6.8c5.3,1.2,14.7,2.9,28.1,5.1
		c14.2,2.1,24.9,4.4,32,6.7c7.1,2.3,12.4,5.8,16.1,10.4c3.6,4.6,5.4,11.2,5.4,19.8c0,13.9-4.8,24-14.4,30.2
		c-9.6,6.2-24.1,9.4-43.7,9.4C2608.7,3411.6,2594.5,3410.6,2576.5,3408.4z"/>
	<path class="st4" d="M2716.1,3222.1h10.5v14.7h-10.5V3222.1z M2716.4,3275.5h10.5v133.7h-10.5V3275.5z"/>
	<path class="st4" d="M2775.4,3275.5h10.5v10.7c10.5-4.8,20.1-8.2,28.9-10.2c8.7-2,17.8-2.9,27-2.9c13.4,0,23.5,2,30.4,5.9
		c6.9,3.9,11.7,10.6,14.5,20.1c2.8,9.5,4.2,23.1,4.2,40.9v69.3h-10.5V3340c0-15.3-1-27.1-2.9-35.3c-2-8.2-5.6-14.1-10.8-17.6
		c-5.2-3.6-12.9-5.3-23-5.3c-9.3,0-18.7,1.1-28.2,3.2c-9.6,2.1-16.8,4.4-21.8,6.7l-7.4,3.5v114.2h-10.8V3275.5z"/>
	<path class="st4" d="M2953.5,3468.6c-8.4-2.9-14.2-7.1-17.3-12.8c-3.1-5.7-4.6-13.5-4.6-23.5c0-6.4,0.8-11.5,2.3-15.1
		c1.5-3.7,3.8-6.7,6.8-9.1c3-2.4,8.5-6.3,16.5-11.6c-2.3-1.2-4-3.4-5.1-6.6c-1.1-3.1-1.7-6.4-1.7-9.8c0-2.1,0.6-4.5,1.7-7.2
		c1.1-2.7,3.8-7.6,7.9-14.7c-17.7-4.5-26.5-18-26.5-40.6c0-15.1,4.2-26.4,12.7-33.7c8.4-7.3,22.2-11,41.4-11
		c10.1,0,20.6,1.2,31.5,3.5l43.2-0.8v9.4l-33.6,0.3c4.1,2.5,7.3,6.6,9.4,12.2c2.2,5.6,3.2,12.4,3.2,20.5c0,15.7-4.4,26.9-13.3,33.6
		c-8.9,6.7-23.1,10-42.6,10c-6.6,0-12.2-0.4-17-1.1l-2.5,5.3c-1.4,3-2.6,5.7-3.4,8c-0.8,2.3-1.2,4.5-1.2,6.7c0,5.3,2.2,8.9,6.6,10.7
		c4.4,1.8,11,2.7,19.6,2.7l21.3-0.3c11.1,0,20.2,1,27.2,2.9c7,2,12.4,5.6,16.2,10.8c3.8,5.3,5.7,12.9,5.7,22.9c0,10-2.1,18-6.2,24.2
		c-4.1,6.2-11.1,10.8-20.8,13.9c-9.8,3.1-23.2,4.7-40.3,4.7C2974.3,3472.9,2961.9,3471.4,2953.5,3468.6z M3024.8,3461.2
		c7.8-2.2,13.4-5.9,16.8-11c3.4-5.1,5.1-12.1,5.1-21c0-7.5-1.1-13.1-3.2-16.8c-2.2-3.7-6.3-6.4-12.5-8c-6.2-1.6-15.6-2.3-28.4-2.1
		l-37-1.1c-6.8,3.9-11.7,7.2-14.8,9.8c-3.1,2.6-5.2,5.4-6.5,8.4c-1.2,3-1.9,7.1-1.9,12.3c0,8.6,1.5,15.2,4.5,19.9c3,4.7,8,8.1,15,10
		c7,2,17.1,2.9,30.3,2.9C3006.1,3464.6,3017,3463.5,3024.8,3461.2z M3020.2,3344.9c6.4-5.3,9.6-14.6,9.6-27.9
		c0-13.2-3.1-22.4-9.4-27.7c-6.3-5.3-17.1-7.9-32.6-7.9c-15.8,0-27.1,2.7-33.6,8.2c-6.6,5.4-9.9,14.8-9.9,27.9
		c0,13.2,3.2,22.4,9.7,27.5c6.5,5.2,17.5,7.8,33.2,7.8C3002.8,3352.8,3013.8,3350.2,3020.2,3344.9z"/>
	<path class="st6" d="M3293.4,3359.1h-99.9l-15.5,50.1h-34.1l64-214.2h71.2l64,214.2h-34.1L3293.4,3359.1z M3200.6,3332.6h85.5
		l-33.4-112.4H3234L3200.6,3332.6z"/>
	<path class="st6" d="M3375.7,3253.6h33.1v10.3c10.3-5,19.6-8.5,28-10.6c8.4-2.1,17.3-3.1,26.6-3.1c15.1,0,27,2.6,35.6,7.8
		c8.6,5.2,14.7,13.2,18.3,24.1c3.6,10.9,5.4,25.7,5.4,44.4v82.8h-33.4V3327c0-13.1-0.9-23.2-2.7-30.4c-1.8-7.2-5.2-12.3-10.1-15.6
		c-4.9-3.2-12-4.8-21.4-4.8c-12.7,0-26,2.4-39.9,7.2l-6.1,2.5v123.3h-33.4V3253.6z"/>
	<path class="st6" d="M3580.4,3471.7c-12.1-6.7-18.2-18-18.2-33.8c0-8.9,2-16,5.9-21.3c4-5.3,11.2-11.5,21.7-18.5
		c-3.8-2.3-6.7-5.3-8.4-9c-1.8-3.7-2.7-7.7-2.7-11.8c0-2.9,0.8-6,2.3-9.2c1.6-3.2,5.1-8.9,10.6-17c-18.2-8.3-27.3-23.8-27.3-46.4
		c0-36.1,23.4-54.2,70.1-54.2c11,0,23.2,1.4,36.7,4l54.6-1.2v24l-32-0.9c3.8,3.7,6.6,7.8,8.3,12.3c1.7,4.5,2.5,10.2,2.5,17.3
		c0,18.5-5.7,31.7-17.1,39.7c-11.4,8-29.2,12-53.4,12c-7.2,0-13.1-0.4-17.6-1.2c-3.8,7.9-5.8,13.6-5.8,17.1c0,5,2.3,8.2,7,9.7
		c4.7,1.5,11.9,2.2,21.7,2.2h12.6c16.8,0.2,30.2,1.4,40.3,3.4c10.1,2.1,17.8,6.3,23.4,12.6c5.5,6.3,8.3,15.5,8.3,27.6
		c0,18.3-6.8,31.6-20.3,40.2c-13.5,8.5-35.4,12.8-65.6,12.8C3611.7,3481.8,3592.5,3478.4,3580.4,3471.7z M3678.9,3451.7
		c7.3-4,11-11,11-20.7c0-5.8-1.4-10.1-4.1-12.9c-2.8-2.8-6.9-4.7-12.4-5.6c-5.5-0.9-13.7-1.5-24.4-1.7l-36.7-1.9
		c-6.5,4.4-10.9,8.3-13.3,11.8c-2.4,3.5-3.6,7.8-3.6,12.8c0,8.9,3.5,15.2,10.4,18.8c6.9,3.6,18.7,5.4,35.2,5.4
		C3658.9,3457.8,3671.6,3455.8,3678.9,3451.7z M3662.7,3327.7c5.6-4.8,8.4-12.7,8.4-23.7c0-10.8-2.9-18.6-8.6-23.4
		c-5.8-4.8-15-7.2-27.7-7.2c-12.9,0-22.3,2.4-28.2,7.3c-5.9,4.9-8.8,12.7-8.8,23.5c0,10.8,2.9,18.6,8.8,23.4
		c5.9,4.8,15.3,7.2,28.2,7.2C3647.8,3334.8,3657.1,3332.4,3662.7,3327.7z"/>
	<path class="st6" d="M3778.2,3405c-8.4-5.1-14.3-13.2-17.6-24.3c-3.4-11.1-5-26.4-5-45.9v-81.3h33.4v81.3c0,14.3,0.8,25.1,2.5,32.2
		c1.7,7.2,4.9,12.2,9.5,15.1c4.7,2.9,11.8,4.4,21.4,4.4c7.9,0,15.4-0.8,22.5-2.5c7.1-1.7,14.7-4,22.8-7.2v-123.3h33.4v155.7h-33.4
		V3399c-10.1,5-19.1,8.5-27.1,10.6c-8,2.1-16.8,3.1-26.4,3.1C3798.6,3412.7,3786.6,3410.1,3778.2,3405z"/>
	<path class="st6" d="M3952.9,3187.6h33.4v221.7h-33.4V3187.6z"/>
	<path class="st6" d="M4039.9,3400.2c-8.9-8.3-13.3-20.2-13.3-35.8c0-15.4,4.5-26.6,13.7-33.8c9.1-7.2,23.6-11.6,43.5-13.2l51-4
		v-12.1c0-9.1-2.3-15.7-6.8-19.8c-4.6-4-11.3-6.1-20.1-6.1c-20.1,0-43.4,1.2-69.7,3.7l-1.1-21.2c25.4-5.2,49-7.8,70.8-7.8
		c21.1,0,36.4,4.1,46,12.3c9.6,8.2,14.4,21.1,14.4,38.8v75c0.5,4.2,2.1,7.3,4.9,9.5c2.8,2.2,7.1,3.7,13.1,4.5l-1.1,22.4
		c-10.3,0-19.1-1-26.2-3s-13.5-5-19.1-9.2c-20.4,8.1-40.7,12.1-61.1,12.1C4061.7,3412.7,4048.8,3408.5,4039.9,3400.2z
		 M4127.3,3382.5l7.5-2.2v-45.8l-46.7,3.7c-9.3,0.8-16.2,3.3-20.7,7.3c-4.4,4-6.7,10-6.7,17.9c0,16.6,8,24.9,24.1,24.9
		C4099.5,3388.4,4113.6,3386.4,4127.3,3382.5z"/>
	<path class="st6" d="M4219.3,3253.6h33.1v19.6c21.3-11.8,42.4-19.5,63.3-23v29.3c-9.3,1.7-19.1,3.9-29.1,6.8
		c-10.1,2.9-18.5,5.7-25.2,8.4l-8.6,3.4v111.1h-33.4V3253.6z"/>
	<path class="st4" d="M2394.7,3551.8v84.8h96.6v8.8h-96.6v84.8h-11.4v-187.2h123.8v8.8H2394.7z"/>
	<path class="st4" d="M2533.3,3596.4h10.5v20.9c17.9-11.6,38.4-19.4,61.4-23.5v9.6c-8.6,1.4-18.4,4.1-29.2,8
		c-10.8,3.9-18.5,7.4-23,10.4l-9,4.5v103.7h-10.8V3596.4z"/>
	<path class="st4" d="M2635.7,3722.4c-7.1-6.8-10.7-16.1-10.7-28.1c0-11.9,3.4-21.1,10.3-27.4c6.9-6.3,17.8-10.4,32.6-12.2l58.7-5.1
		V3636c0-11.1-2.7-19.3-8-24.7c-5.4-5.4-12.7-8.2-21.9-8.2c-9.1,0-17,0.3-23.9,0.8c-6.9,0.5-19.8,1.8-38.7,3.7l-0.9-8.8
		c21.4-3.2,40.9-4.8,58.3-4.8c15.8,0,27.5,3.4,35,10.3c7.5,6.9,11.3,17.4,11.3,31.7v77c0.2,2.7,2.4,5,6.5,7.1
		c4.1,2.1,9.6,3.4,16.4,4.1l-0.6,8.3c-6.8,0-13.1-1.1-19-3.2c-5.9-2.1-10.1-5-12.8-8.6c-20.6,7.8-41.4,11.8-62.4,11.8
		C2652.8,3732.5,2642.8,3729.1,2635.7,3722.4z M2717.9,3715.7l8.6-2.9v-54.3l-57.4,4.8c-11.3,0.7-19.5,3.4-24.5,8.2
		c-5,4.7-7.6,11.8-7.6,21.3c0,20.7,9.7,31,29,31C2684,3723.7,2701.3,3721,2717.9,3715.7z"/>
	<path class="st4" d="M2787.4,3596.4h10.5v10.7c16.5-8.7,33.9-13.1,52.2-13.1c19.8,0,33,4.8,39.8,14.4c6-3.6,14.7-6.9,26.2-9.9
		c11.5-3,23.4-4.5,35.5-4.5c12.3,0,21.8,2.1,28.4,6.4c6.6,4.3,11.2,11.1,13.7,20.6c2.6,9.5,3.9,22.7,3.9,39.8v69.3h-10.8v-69.3
		c0-15.9-1-27.9-2.9-36c-2-8.1-5.6-13.9-10.8-17.2c-5.2-3.4-13.1-5.1-23.6-5.1c-9.9,0-19.6,1.1-29,3.2c-9.5,2.1-16.2,4.4-20.1,6.7
		l-6.8,3.2c3.9,0.7,5.9,15.6,5.9,44.7v69.8h-10.8v-69.3c0-15.3-1-27.1-2.9-35.3c-2-8.2-5.5-14.1-10.7-17.6
		c-5.1-3.6-12.8-5.3-22.8-5.3c-9.1,0-18.2,1-27.3,3.1c-9.2,2.1-15.9,4.3-20.2,6.8l-6.5,3.5v114.2h-10.8V3596.4z"/>
	<path class="st4" d="M3052.6,3716.6c-9.3-10.6-13.9-27.1-13.9-49.6c0-25,5-43.4,15-55.2c10-11.9,25.8-17.8,47.4-17.8
		c19.8,0,34.4,5.2,43.8,15.5c9.5,10.3,14.2,26.6,14.2,48.7v8.8h-109.3c-0.2,14.1,1.3,25.2,4.6,33.3c3.3,8.1,8.8,14.1,16.7,17.9
		c7.8,3.8,18.8,5.7,33,5.7c5.3,0,11.7-0.2,19-0.5c7.3-0.4,14.2-0.7,20.8-1.1l9.3-0.8l0.6,8.8c-25.1,1.4-42.8,2.1-53.1,2.1
		C3077.9,3732.5,3061.8,3727.2,3052.6,3716.6z M3147.7,3658.4c0-19.8-3.7-34-11.1-42.8c-7.4-8.7-19.1-13.1-35.2-13.1
		c-17.1,0-29.9,4.5-38.6,13.6c-8.6,9.1-13.1,23.2-13.3,42.2H3147.7z"/>
	<path class="st4" d="M3184.1,3596.4h11.4l39.2,125.1h3.4l45.7-122.5h11.7l45.4,122.5h4l38.9-125.1h11.4l-41.7,133.7h-21.3
		l-42.6-119.8l-42.9,119.8h-21L3184.1,3596.4z"/>
	<path class="st4" d="M3445.4,3726.2c-9-4.2-15.1-11.1-18.5-20.6c-3.4-9.5-5.1-23.1-5.1-40.8c0-18.5,1.9-32.8,5.6-42.9
		c3.7-10.1,10-17.2,19-21.5c9-4.3,21.8-6.4,38.4-6.4s29.5,2.2,38.4,6.6c9,4.4,15.2,11.6,18.8,21.7c3.6,10.1,5.4,24.3,5.4,42.6
		c0,17.6-1.6,31.2-4.9,40.6c-3.3,9.5-9.4,16.3-18.4,20.6c-9,4.3-22.1,6.4-39.4,6.4C3467.5,3732.5,3454.4,3730.4,3445.4,3726.2z
		 M3517.6,3718.2c7.1-3.7,11.9-9.5,14.4-17.6c2.5-8.1,3.7-20,3.7-35.7c0-16.9-1.3-29.7-4-38.4c-2.7-8.6-7.6-14.7-14.7-18.3
		c-7.1-3.6-17.8-5.3-32-5.3s-25,1.8-32.3,5.3c-7.3,3.6-12.3,9.7-15.1,18.4c-2.8,8.7-4.2,21.5-4.2,38.2c0,15.5,1.3,27.4,3.9,35.6
		c2.6,8.2,7.5,14.1,14.8,17.8c7.3,3.7,18.3,5.5,32.9,5.5C3499.7,3723.7,3510.5,3721.9,3517.6,3718.2z"/>
	<path class="st4" d="M3590,3596.4h10.5v20.9c17.9-11.6,38.4-19.4,61.4-23.5v9.6c-8.6,1.4-18.4,4.1-29.2,8
		c-10.8,3.9-18.5,7.4-23,10.4l-9,4.5v103.7H3590V3596.4z"/>
	<path class="st4" d="M3691.6,3534.9h10.8v117.9h29.6l53.4-56.4h12.7l-57.1,60.2l59.3,73.5h-12.7l-55.9-68.7l-29.3-0.3v69h-10.8
		V3534.9z"/>
</g>
<text transform="matrix(1.1545 0 0 1 211.007 4054.249)" class="st0"><tspan x="0" y="0" class="st7 st8 st9">Build </tspan><tspan x="542.2" y="0" class="st7 st8 st10">Single Page</tspan><tspan x="1875.2" y="0" class="st7 st8 st9"> Web Application</tspan><tspan x="402.1" y="330.1" class="st4 st11 st9"> Using </tspan><tspan x="1053" y="330.1" class="st6 st11 st12">Angular </tspan><tspan x="1983.6" y="330.1" class="st4 st11 st9">Framework</tspan></text>
<g class="st0">
	<g class="st4">
		<path class="st3" d="M5013,2725.9l2.7,124.5l2.5,124.5l4.6,249l0.2,9.6l-10,0.2L4749,3238l14.2-14.2c0.3,20.2,0.7,40.4,0.7,60.5
			c0.1,20.2-0.1,40.4-0.2,60.5c-0.3,40.4-0.1,80.7-0.2,121.1v242.2v14.5H4749h-689.9l14.5-14.5v733.4v14.5h-14.5H2274.7h-892.2
			h-55.8c-18.6,0-37.2,0-55.8,0.2c-18.6,0.1-37.2,0.3-55.8,0.2c-18.6-0.1-37.2-0.4-55.8-0.7l-223.1-3.7
			c-148.7-2.5-297.4-5.2-446.1-8.3v-4.1c148.7-3.1,297.4-5.8,446.1-8.3l223.1-3.7c18.6-0.3,37.2-0.7,55.8-0.7
			c18.6-0.1,37.2,0,55.8,0.2c18.6,0.1,37.2,0.2,55.8,0.2h55.8h892.2h1784.5l-14.5,14.5v-733.4v-14.5h14.5H4749l-14.5,14.5V3466
			c0-40.4,0.1-80.7-0.2-121.1c-0.1-20.2-0.3-40.4-0.2-60.5c0-20.2,0.3-40.4,0.7-60.5l0.2-14.4l14,0.2l263.9,4.4l-9.8,9.8l4.6-249
			l2.5-124.5L5013,2725.9z"/>
		<g>
			<path class="st3" d="M495.3,4340.2c-56,0-101.4,45.4-101.4,101.4c0,56,45.4,101.4,101.4,101.4c56,0,101.4-45.4,101.4-101.4
				C596.7,4385.6,551.3,4340.2,495.3,4340.2z"/>
		</g>
	</g>
</g>
<g>
	<g>
		<path class="st13" d="M697.4,1411.5l1443.8-514.4l1482.7,505.3l-240.1,1910.2l-1242.6,688.2L918,3321.7L697.4,1411.5z"/>
		<path class="st14" d="M3623.9,1402.3L2141.2,897.1v3103.7l1242.6-687L3623.9,1402.3L3623.9,1402.3z"/>
		<path class="st15" d="M2143.5,1259.5l-899.7,2001.7l336.1-5.7l180.6-451.6h807.1l197.8,457.3l321.2,5.7L2143.5,1259.5
			L2143.5,1259.5z M2145.8,1900.8l304.1,635.6h-571.6L2145.8,1900.8L2145.8,1900.8z"/>
		<g>
			<circle class="st16" cx="3348.2" cy="1573.4" r="380.2"/>
		</g>
		<g>
			<path class="st15" d="M3480.6,1444.2l-137.1,343h-54.3l140.7-332.4h-193.5V1410h244.2V1444.2z"/>
		</g>
	</g>
	<g>
		<path class="st3" d="M230.6,4648.8h66.6c18.7,0,32.6,3.4,41.7,10.3c9.1,6.9,13.6,17.4,13.6,31.5c0,10.1-2.2,18.1-6.5,24.1
			c-4.4,6-10.8,10.6-19.4,13.7c11.1,3.3,19.3,8.2,24.7,14.8c5.4,6.5,8,15.4,8,26.6c0,15.3-4.9,26.4-14.6,33.3
			c-9.7,6.9-24.1,10.4-43,10.4h-71.2V4648.8z M299.3,4723.9c13.3,0,23.1-2.7,29.5-8.2c6.4-5.4,9.5-13.7,9.5-24.7
			c0-11.2-3.3-19.2-9.8-24.1c-6.5-4.9-17.1-7.3-31.6-7.3h-52.6v64.3H299.3z M301.3,4802.6c14.2,0,25.1-2.7,32.7-8
			c7.6-5.4,11.5-13.9,11.5-25.5c0-12.8-4.2-21.7-12.7-26.7c-8.5-5-19.6-7.6-33.4-7.6h-55.1v67.8H301.3z"/>
		<path class="st3" d="M410.9,4810.4c-6.2-3.5-10.5-9.3-13-17.6s-3.7-20.2-3.7-35.8v-61.7h13.6v61c0,13.2,0.8,23.3,2.5,30.1
			c1.6,6.9,4.6,11.7,9,14.5s10.9,4.3,19.6,4.3c15.3,0,29.9-3.5,43.9-10.6v-99.2h13.4v118.1h-13.6v-9c-7.3,3.8-14.3,6.6-21.1,8.4
			c-6.8,1.8-14.8,2.7-23.9,2.7C426,4815.6,417.1,4813.8,410.9,4810.4z"/>
		<path class="st3" d="M537.7,4648.1h13.1v15.6h-13.1V4648.1z M537.7,4695.3h13.1v118.1h-13.1V4695.3z"/>
		<path class="st3" d="M594.2,4641.9h13.6v171.5h-13.6V4641.9z"/>
		<path class="st3" d="M654.2,4801.3c-7.3-9.5-10.9-24.4-10.9-44.5c0-15.3,2-27.5,5.9-36.7c3.9-9.2,10.2-16,18.8-20.3
			c8.6-4.3,20.2-6.5,34.8-6.5c11.5,0,22.5,0.9,33.3,2.8v-54.1h13.1v171.5h-13.4v-9.5c-14.2,7.7-29.4,11.6-45.6,11.6
			C673.5,4815.6,661.5,4810.8,654.2,4801.3z M712.9,4802.5c7.3-1.8,12.9-3.7,16.9-5.6l6.3-2.6v-87.9c-12-2-23.3-3.1-33.8-3.1
			c-11.5,0-20.4,1.8-26.9,5.4c-6.5,3.6-11,9.1-13.8,16.5c-2.7,7.4-4.1,17.3-4.1,29.8c0,16.7,2.6,29.2,7.8,37.6
			c5.2,8.4,14.1,12.5,26.9,12.5C698.7,4805.2,705.6,4804.3,712.9,4802.5z"/>
		<path class="st3" d="M860.2,4811.8l-11.5-1.1l1.6-12.7c29.4,3.3,51.6,5,66.5,5c35.4,0,53.1-14.9,53.1-44.6c0-8.1-1.4-14.4-4.2-19
			c-2.8-4.5-7.9-8.2-15.5-11.1c-7.6-2.9-18.8-5.4-33.7-7.6c-17.9-2.8-31.7-6-41.4-9.7c-9.7-3.7-16.8-9-21.3-15.8
			c-4.5-6.8-6.7-16.2-6.7-28.2c0-16.6,5.7-29,17.1-37.2c11.4-8.2,29-12.3,52.9-12.3c17.5,0,39,1.6,64.6,4.7l-1.6,12.7
			c-30.3-3.1-51.1-4.7-62.7-4.7c-35.8,0-53.7,12-53.7,36c0,9.6,1.3,16.7,4,21.3c2.7,4.6,7.9,8.3,15.8,11.1c7.9,2.8,20.9,5.7,39,8.9
			c16.2,2.6,28.8,5.7,37.7,9.3s15.5,8.5,19.7,14.8c4.2,6.3,6.2,14.8,6.2,25.5c0,19.9-5.5,34.7-16.6,44.3
			c-11.1,9.6-28.5,14.4-52.1,14.4C903.1,4815.7,884.1,4814.4,860.2,4811.8z"/>
		<path class="st3" d="M1027.4,4619.6h15.3v18.3h-15.3V4619.6z M1027.4,4675h15.3v138.4h-15.3V4675z"/>
		<path class="st3" d="M1091.6,4675h15.7v10.5c10.2-4.8,19.7-8.2,28.5-10.1c8.7-1.9,17.8-2.9,27.2-2.9c13.6,0,24.1,2.1,31.5,6.2
			c7.4,4.2,12.5,11.1,15.3,20.8c2.9,9.7,4.3,23.6,4.3,41.7v72.3h-15.3v-72c0-15-1-26.4-3-34.3c-2-7.9-5.6-13.7-10.7-17.2
			c-5.1-3.5-12.7-5.3-22.7-5.3c-8.7,0-17.7,1-26.9,3c-9.2,2-16.1,4.2-20.8,6.4l-7,3v116.3h-16V4675z"/>
		<path class="st3" d="M1278.8,4874.8c-9.1-2.9-15.3-7.2-18.9-13.2c-3.5-5.9-5.3-13.9-5.3-24.1c0-6.5,0.8-11.5,2.4-15.2
			c1.6-3.7,4-6.9,7.2-9.6s8.7-6.6,16.6-11.8c-2.6-1.5-4.5-3.8-5.8-7.1c-1.3-3.2-1.9-6.7-1.9-10.4c0-2.4,0.6-5,1.8-7.8
			c1.2-2.8,3.9-7.8,8.2-15c-17.7-5.4-26.5-19.3-26.5-41.8c0-15.9,4.6-27.6,13.7-35.3c9.2-7.7,23.8-11.5,43.8-11.5
			c10,0,20.9,1.2,32.6,3.6l45.4-1.1v12.7h-32.9c7.9,5.7,11.8,16.3,11.8,31.8c0,16.4-4.6,28.1-13.9,35c-9.3,6.9-24.2,10.4-44.9,10.4
			c-6.8,0-12.5-0.4-16.9-1.1c-0.4,0.7-0.8,1.6-1.1,2.6c-0.3,1-0.8,2-1.4,2.9c-1.3,2.8-2.3,5.3-3.2,7.6c-0.9,2.3-1.3,4.4-1.3,6.2
			c0,5.4,2.3,8.9,6.9,10.5c4.6,1.7,11.7,2.5,21.3,2.5h15c13-0.2,23.5,0.6,31.6,2.5c8.1,1.8,14.4,5.6,18.9,11.2s6.7,13.8,6.7,24.5
			c0,15.7-5.4,27.1-16.1,34.2c-10.8,7.1-29.1,10.7-55.1,10.7C1300.7,4879.1,1287.9,4877.6,1278.8,4874.8z M1350.9,4864.3
			c7.7-2.1,13.2-5.6,16.5-10.5c3.3-4.9,5-11.5,5-19.8c0-7-1.1-12.3-3.4-15.9s-6.4-6.2-12.5-7.8c-6.1-1.6-15.2-2.3-27.3-2.1
			l-37.1-1.1c-9,5.4-14.8,9.8-17.6,13.4c-2.8,3.6-4.2,8.9-4.2,15.9c0,7.9,1.5,14.1,4.5,18.6c3,4.4,7.9,7.6,14.9,9.6
			c6.9,1.9,16.8,2.9,29.6,2.9C1332.7,4867.4,1343.2,4866.4,1350.9,4864.3z M1345.8,4745.6c6.2-5.2,9.3-14.2,9.3-27.1
			c0-12.7-3.1-21.7-9.3-26.9c-6.2-5.2-16.6-7.8-31.3-7.8c-15.3,0-26.2,2.6-32.6,7.9c-6.4,5.3-9.6,14.3-9.6,27s3.1,21.7,9.4,26.9
			c6.3,5.2,17,7.8,32.1,7.8C1329,4753.4,1339.6,4750.8,1345.8,4745.6z"/>
		<path class="st3" d="M1424.4,4612.4h16v201h-16V4612.4z"/>
		<path class="st3" d="M1496.8,4799.6c-9.7-10.9-14.5-28.1-14.5-51.8c0-25.7,5.3-44.6,15.8-56.9c10.5-12.3,27.1-18.4,49.7-18.4
			c20.9,0,36.3,5.3,46.4,15.9c10,10.6,15,27.2,15,49.7l-0.3,11.6h-110.6c-0.2,13.3,1.3,23.9,4.5,31.7c3.2,7.8,8.7,13.6,16.5,17.2
			c7.8,3.6,18.6,5.4,32.4,5.4c5.8,0,12.5-0.1,20.3-0.4c7.8-0.3,15-0.7,21.6-1.2l9.6-0.8l0.6,11.4c-22.2,2-41,3-56.6,3
			C1523.3,4815.9,1506.5,4810.5,1496.8,4799.6z M1593.2,4738.1c0-19.2-3.6-33-10.9-41.4c-7.2-8.4-18.8-12.6-34.5-12.6
			c-16.4,0-28.8,4.4-37.1,13.2c-8.3,8.8-12.6,22.4-12.8,40.8H1593.2z"/>
		<path class="st3" d="M1724.3,4620.4h81.2c23.4,0,40.6,4.9,51.5,14.7c10.9,9.8,16.3,24.9,16.3,45.4c0,21.6-5.6,37.7-16.8,48.3
			c-11.2,10.6-28.2,15.9-51,15.9h-65.2v68.7h-16V4620.4z M1805.2,4731.8c34.1,0,51.1-17.1,51.1-51.2c0-16.2-4.1-28.2-12.1-35.9
			c-8.1-7.7-21.1-11.5-39-11.5h-64.9v98.6H1805.2z"/>
		<path class="st3" d="M1909.5,4805.4c-7.4-7-11-16.9-11-29.6s3.6-22.4,10.9-28.9c7.2-6.5,18.9-10.7,34.8-12.3l57.2-5v-13.3
			c0-10.7-2.6-18.6-7.8-23.7c-5.2-5.1-12.4-7.6-21.6-7.6c-9.4,0-18.1,0.3-26.2,0.8c-8.1,0.6-20.8,1.7-38,3.3l-1-11.4
			c23-3.5,43.5-5.3,61.4-5.3c16.8,0,29.2,3.5,37.1,10.5c7.9,7,11.8,18.1,11.8,33.2v76.7c0.2,3,2.2,5.4,6.1,7.5c3.8,2,9.2,3.4,16,4.2
			l-0.6,11.4c-7.7,0-14.5-1-20.6-3c-6.1-2-10.8-4.9-14.2-8.6c-20,7.8-40.7,11.6-62,11.6C1927.6,4815.9,1916.9,4812.4,1909.5,4805.4z
			 M1992.8,4796.3l8.6-2.5v-52.9l-55.3,4.7c-11.1,0.7-19,3.4-23.8,8c-4.8,4.6-7.2,11.4-7.2,20.5c0,19.9,9.3,29.9,27.8,29.9
			C1959.6,4804,1976.2,4801.4,1992.8,4796.3z"/>
		<path class="st3" d="M2085,4874.8c-9.1-2.9-15.3-7.2-18.9-13.2c-3.5-5.9-5.3-13.9-5.3-24.1c0-6.5,0.8-11.5,2.4-15.2
			c1.6-3.7,4-6.9,7.2-9.6s8.7-6.6,16.6-11.8c-2.6-1.5-4.5-3.8-5.8-7.1c-1.3-3.2-1.9-6.7-1.9-10.4c0-2.4,0.6-5,1.8-7.8
			c1.2-2.8,3.9-7.8,8.2-15c-17.7-5.4-26.5-19.3-26.5-41.8c0-15.9,4.6-27.6,13.7-35.3c9.2-7.7,23.8-11.5,43.8-11.5
			c10,0,20.9,1.2,32.6,3.6l45.4-1.1v12.7h-32.9c7.9,5.7,11.8,16.3,11.8,31.8c0,16.4-4.6,28.1-13.9,35c-9.3,6.9-24.2,10.4-44.9,10.4
			c-6.8,0-12.5-0.4-16.9-1.1c-0.4,0.7-0.8,1.6-1.1,2.6c-0.3,1-0.8,2-1.4,2.9c-1.3,2.8-2.3,5.3-3.2,7.6c-0.9,2.3-1.3,4.4-1.3,6.2
			c0,5.4,2.3,8.9,6.9,10.5c4.6,1.7,11.7,2.5,21.3,2.5h15c13-0.2,23.5,0.6,31.6,2.5c8.1,1.8,14.4,5.6,18.9,11.2s6.7,13.8,6.7,24.5
			c0,15.7-5.4,27.1-16.1,34.2c-10.8,7.1-29.1,10.7-55.1,10.7C2106.9,4879.1,2094.1,4877.6,2085,4874.8z M2157.1,4864.3
			c7.7-2.1,13.2-5.6,16.5-10.5c3.3-4.9,5-11.5,5-19.8c0-7-1.1-12.3-3.4-15.9s-6.4-6.2-12.5-7.8c-6.1-1.6-15.2-2.3-27.3-2.1
			l-37.1-1.1c-9,5.4-14.8,9.8-17.6,13.4c-2.8,3.6-4.2,8.9-4.2,15.9c0,7.9,1.5,14.1,4.5,18.6c3,4.4,7.9,7.6,14.9,9.6
			c6.9,1.9,16.8,2.9,29.6,2.9C2138.9,4867.4,2149.5,4866.4,2157.1,4864.3z M2152,4745.6c6.2-5.2,9.3-14.2,9.3-27.1
			c0-12.7-3.1-21.7-9.3-26.9c-6.2-5.2-16.6-7.8-31.3-7.8c-15.3,0-26.2,2.6-32.6,7.9c-6.4,5.3-9.6,14.3-9.6,27s3.1,21.7,9.4,26.9
			c6.3,5.2,17,7.8,32.1,7.8C2135.2,4753.4,2145.8,4750.8,2152,4745.6z"/>
		<path class="st3" d="M2236.9,4799.6c-9.7-10.9-14.5-28.1-14.5-51.8c0-25.7,5.3-44.6,15.8-56.9c10.5-12.3,27.1-18.4,49.7-18.4
			c20.9,0,36.3,5.3,46.4,15.9c10,10.6,15,27.2,15,49.7l-0.3,11.6h-110.6c-0.2,13.3,1.3,23.9,4.5,31.7c3.2,7.8,8.7,13.6,16.5,17.2
			c7.8,3.6,18.6,5.4,32.4,5.4c5.8,0,12.5-0.1,20.3-0.4c7.8-0.3,15-0.7,21.6-1.2l9.6-0.8l0.6,11.4c-22.2,2-41,3-56.6,3
			C2263.4,4815.9,2246.6,4810.5,2236.9,4799.6z M2333.3,4738.1c0-19.2-3.6-33-10.9-41.4c-7.2-8.4-18.8-12.6-34.5-12.6
			c-16.4,0-28.8,4.4-37.1,13.2c-8.3,8.8-12.6,22.4-12.8,40.8H2333.3z"/>
		<path class="st3" d="M2434.8,4648.8h14.2l36,153.8h9.5l40.9-151.9h16.1l40.9,151.9h9.5l36-153.8h13.9l-39.6,164.7h-30.3
			l-38.7-147.2l-38.5,147.2h-30.3L2434.8,4648.8z"/>
		<path class="st3" d="M2683.7,4801.6c-8.3-9.3-12.4-24-12.4-44.2c0-21.9,4.5-38.1,13.5-48.6c9-10.5,23.1-15.7,42.4-15.7
			c17.8,0,31,4.5,39.6,13.6c8.5,9.1,12.8,23.2,12.8,42.4l-0.3,9.9h-94.4c-0.2,11.3,1.1,20.4,3.8,27.1c2.7,6.7,7.4,11.6,14,14.6
			c6.6,3.1,15.9,4.6,27.7,4.6c4.9,0,10.7-0.1,17.3-0.4c6.6-0.2,12.8-0.6,18.4-1.1l8.2-0.7l0.5,9.7c-18.9,1.7-35,2.6-48.3,2.6
			C2706.3,4815.6,2692,4810.9,2683.7,4801.6z M2765.9,4749.2c0-16.4-3.1-28.2-9.3-35.3c-6.2-7.2-16-10.8-29.5-10.8
			c-14,0-24.6,3.7-31.6,11.2c-7.1,7.5-10.7,19.1-10.9,34.8H2765.9z"/>
		<path class="st3" d="M2820.5,4813.9l-6.5-0.7v-171.3h13.1v60.2c14.9-6,30.1-9,45.6-9c11.8,0,21.1,2,27.8,5.9
			c6.7,3.9,11.5,10.2,14.5,18.9c2.9,8.7,4.4,20.5,4.4,35.4c0,16.5-1.9,29.2-5.7,37.9c-3.8,8.7-10.4,14.9-19.8,18.5
			c-9.4,3.6-23,5.4-40.8,5.4C2841.9,4815.3,2831,4814.9,2820.5,4813.9z M2887.3,4800c6.9-3.5,11.7-8.9,14.3-16.3
			c2.6-7.4,4-17.7,4-31c0-12.4-1.1-22.2-3.3-29.3c-2.2-7.1-5.8-12.2-10.9-15.2c-5.1-3.1-12.3-4.6-21.5-4.6
			c-11.6,0-25.9,2.8-42.8,8.5v91.9c14.9,0.8,24.9,1.2,30,1.2C2870.3,4805.2,2880.4,4803.4,2887.3,4800z"/>
		<path class="st3" d="M3119.2,4765.7h-87.6l-16.4,47.7h-13.4l56.2-164.7h34.6l56.2,164.7h-13.4L3119.2,4765.7z M3082.6,4659.4
			h-14.2l-33.3,95.2h80.5L3082.6,4659.4z"/>
		<path class="st3" d="M3177,4695.3h13.4v9.5c14.7-7.7,29.8-11.6,45.3-11.6c16.7,0,28.8,4.7,36.1,14.2c7.4,9.5,11,24.7,11,45.6
			c0,15-1.9,27-5.7,36c-3.8,9.1-10.1,15.8-18.8,20.1c-8.7,4.3-20.5,6.5-35.2,6.5c-11.1,0-21.9-0.9-32.5-2.8v54.3H3177V4695.3z
			 M3259.1,4793.2c6.7-8.1,10.1-21.2,10.1-39.3c0-18-2.9-30.8-8.6-38.6s-14.2-11.7-25.5-11.7c-6.2,0-13,0.9-20.3,2.7
			c-7.4,1.8-13.4,3.7-18.1,5.8l-6,3.1v87.2c16,2,27.5,3.1,34.4,3.1C3241,4805.4,3252.4,4801.4,3259.1,4793.2z"/>
		<path class="st3" d="M3318.9,4695.3h13.4v9.5c14.7-7.7,29.8-11.6,45.3-11.6c16.7,0,28.8,4.7,36.1,14.2c7.4,9.5,11,24.7,11,45.6
			c0,15-1.9,27-5.7,36c-3.8,9.1-10.1,15.8-18.8,20.1c-8.7,4.3-20.5,6.5-35.2,6.5c-11.1,0-21.9-0.9-32.5-2.8v54.3h-13.6V4695.3z
			 M3401,4793.2c6.7-8.1,10.1-21.2,10.1-39.3c0-18-2.9-30.8-8.6-38.6s-14.2-11.7-25.5-11.7c-6.2,0-13,0.9-20.3,2.7
			c-7.4,1.8-13.4,3.7-18.1,5.8l-6,3.1v87.2c16,2,27.5,3.1,34.4,3.1C3382.9,4805.4,3394.2,4801.4,3401,4793.2z"/>
		<path class="st3" d="M3462.3,4641.9h13.6v171.5h-13.6V4641.9z"/>
		<path class="st3" d="M3519.1,4648.1h13.1v15.6h-13.1V4648.1z M3519.1,4695.3h13.1v118.1h-13.1V4695.3z"/>
		<path class="st3" d="M3588.4,4809.4c-7.8-4.1-13.4-10.6-16.6-19.4c-3.3-8.8-4.9-20.7-4.9-35.7c0-11.3,1-21.3,3-29.9
			c2-8.6,6.7-16,14.2-22.3c7.5-6.3,18.7-9.5,33.8-9.5c5.6,0,11.2,0.2,16.6,0.6c5.5,0.4,13.1,1.3,22.9,2.7l-0.8,9.7
			c-14.4-1.4-25.5-2.1-33.3-2.1c-11.1,0-19.7,1.5-25.8,4.6c-6.1,3.1-10.4,8.3-13,15.6c-2.5,7.3-3.8,17.8-3.8,31.3
			c0,12.8,1.2,22.7,3.7,29.8s6.8,12.2,13.1,15.5c6.3,3.2,15.3,4.8,27.1,4.8l32.5-2.1l0.5,9.9c-16.5,1.7-28.7,2.6-36.6,2.6
			C3607.1,4815.6,3596.2,4813.5,3588.4,4809.4z"/>
		<path class="st3" d="M3690.8,4806.6c-6.3-6-9.4-14.4-9.4-25.3s3.1-19.1,9.3-24.7c6.2-5.6,16.1-9.1,29.7-10.5l48.8-4.3v-11.3
			c0-9.1-2.2-15.9-6.7-20.2c-4.5-4.3-10.6-6.5-18.4-6.5c-8,0-15.5,0.2-22.4,0.7c-6.9,0.5-17.7,1.4-32.5,2.8l-0.8-9.7
			c19.6-3,37.1-4.5,52.4-4.5c14.4,0,24.9,3,31.6,9c6.7,6,10.1,15.4,10.1,28.4v65.4c0.2,2.5,1.9,4.6,5.2,6.4
			c3.3,1.7,7.8,2.9,13.6,3.5l-0.5,9.7c-6.5,0-12.4-0.9-17.6-2.6c-5.2-1.7-9.2-4.2-12.1-7.3c-17.1,6.6-34.7,9.9-52.9,9.9
			C3706.2,4815.6,3697.1,4812.6,3690.8,4806.6z M3761.8,4798.8l7.4-2.1v-45.1l-47.2,4c-9.5,0.6-16.2,2.9-20.3,6.9
			c-4.1,3.9-6.1,9.8-6.1,17.5c0,17,7.9,25.5,23.7,25.5C3733.5,4805.4,3747.7,4803.2,3761.8,4798.8z"/>
		<path class="st3" d="M3847.2,4812.3c-4.9-2.5-8.5-6.8-10.6-12.9c-2.2-6.1-3.3-14.7-3.3-25.9v-67.8h-20.7v-10.4h20.7v-37.6h13.1
			v37.6h47.7v10.4h-47.7v59.8c0,10.9,0.5,18.9,1.4,24.2c0.9,5.3,3,9.3,6.1,11.9c3.2,2.7,8.4,4,15.7,4l25.9-1.9l1.1,9.9
			c-12.7,1.6-22.4,2.4-28.9,2.4C3858.9,4816,3852.1,4814.8,3847.2,4812.3z"/>
		<path class="st3" d="M3919.5,4648.1h13.1v15.6h-13.1V4648.1z M3919.5,4695.3h13.1v118.1h-13.1V4695.3z"/>
		<path class="st3" d="M3988.9,4809.8c-8.1-3.9-13.8-10.1-17-18.7c-3.3-8.6-4.9-20.4-4.9-35.6c0-15.9,1.7-28.3,5.2-37.2
			c3.5-8.9,9.2-15.3,17.3-19.3c8.1-3.9,19.4-5.9,34-5.9c14.7,0,26.1,2,34.2,6c8.1,4,13.8,10.5,17.2,19.4c3.4,8.9,5,21.2,5,37
			c0,15.1-1.6,27-4.8,35.6c-3.2,8.6-8.8,14.8-16.9,18.7c-8.1,3.9-19.7,5.8-34.8,5.8C4008.5,4815.6,3997,4813.6,3988.9,4809.8z
			 M4050.6,4800.5c5.9-3.1,10-8.2,12.1-15c2.2-6.9,3.3-16.8,3.3-29.9c0-13.9-1.2-24.5-3.5-31.8c-2.4-7.3-6.5-12.5-12.4-15.6
			c-5.9-3.1-14.6-4.6-26.1-4.6c-11.6,0-20.5,1.5-26.6,4.6c-6.1,3.1-10.3,8.3-12.7,15.6c-2.4,7.3-3.5,17.9-3.5,31.8
			c0,12.9,1.1,22.8,3.3,29.8c2.2,6.9,6.3,12,12.4,15.1c6.1,3.2,15.1,4.7,27.1,4.7C4035.8,4805.2,4044.7,4803.6,4050.6,4800.5z"/>
		<path class="st3" d="M4115.9,4695.3h13.4v9c8.7-4.1,16.8-7,24.3-8.6c7.5-1.7,15.2-2.5,23.2-2.5c11.6,0,20.6,1.8,26.9,5.3
			c6.3,3.5,10.6,9.5,13.1,17.7c2.5,8.3,3.7,20.1,3.7,35.6v61.7h-13.1V4752c0-12.8-0.9-22.5-2.6-29.3c-1.7-6.8-4.8-11.7-9.1-14.6
			c-4.4-3-10.8-4.5-19.4-4.5c-7.5,0-15.1,0.9-22.9,2.6c-7.8,1.7-13.7,3.5-17.7,5.4l-6,2.6v99.2h-13.6V4695.3z"/>
		<path d="M768.2,5134.1c-10.3-7.7-15.4-20.1-15.4-37.1v-118.8h9.8v119.3c0,26.8,17.3,40.2,51.8,40.2c18.4,0,32.1-3.1,41.2-9.5
			c9.1-6.3,13.6-16.5,13.6-30.7v-119.3h9.3V5097c0,17-5.3,29.4-15.8,37.1c-10.5,7.7-26.4,11.6-47.5,11.6
			C794.1,5145.7,778.5,5141.8,768.2,5134.1z"/>
		<path d="M924.6,5142.9l-7.9-0.9l1.1-8c21.5,2.8,36.9,4.3,46.4,4.3c13.6,0,23.6-2.1,30-6.3c6.4-4.2,9.5-10.8,9.5-20
			c0-6.5-1.5-11.4-4.5-14.8c-3-3.4-6.8-5.7-11.5-7.1c-4.6-1.3-11.2-2.6-19.8-3.7c-3.3-0.3-5.7-0.6-7.4-0.9
			c-12.4-1.7-21.7-3.7-28.1-6c-6.4-2.3-10.9-5.2-13.5-8.9c-2.6-3.6-4-8.5-4-14.6c0-12.3,4.3-20.8,12.8-25.4c8.5-4.6,20.9-7,37.1-7
			c14.4,0,26.7,0.7,37.1,2.1l6.8,1.2l-0.5,7.6c-8.7-1.3-17.1-2.2-25.2-2.8c-8.1-0.6-14.5-0.9-19.2-0.9c-13.8,0-23.8,2-29.9,6.1
			c-6.1,4.1-9.1,10-9.1,17.7c0,5.8,1.6,10.2,4.8,13.1c3.2,2.9,7.1,4.9,11.9,6c4.7,1.1,13,2.6,24.8,4.5c12.5,1.9,22,3.9,28.2,5.9
			c6.3,2,11,5.1,14.2,9.2c3.2,4.1,4.8,9.9,4.8,17.5c0,12.3-4.2,21.2-12.7,26.7c-8.5,5.5-21.3,8.3-38.6,8.3
			C953,5145.7,940.4,5144.8,924.6,5142.9z"/>
		<path d="M1047.9,4978.2h9.3v13h-9.3V4978.2z M1048.2,5025.4h9.3v118.1h-9.3V5025.4z"/>
		<path d="M1100.3,5025.4h9.3v9.5c9.3-4.3,17.8-7.2,25.5-9c7.7-1.7,15.7-2.6,23.9-2.6c11.8,0,20.8,1.7,26.9,5.2
			c6.1,3.5,10.4,9.4,12.8,17.7c2.5,8.4,3.7,20.4,3.7,36.1v61.2h-9.3v-61.2c0-13.5-0.9-23.9-2.6-31.2c-1.7-7.2-4.9-12.4-9.5-15.6
			c-4.6-3.1-11.4-4.7-20.3-4.7c-8.2,0-16.5,0.9-25,2.8c-8.5,1.9-14.9,3.9-19.2,5.9l-6.5,3.1v100.9h-9.5V5025.4z"/>
		<path d="M1257.7,5196c-7.5-2.5-12.5-6.3-15.3-11.3c-2.7-5-4.1-12-4.1-20.8c0-5.7,0.7-10.1,2-13.3c1.4-3.2,3.4-5.9,6-8
			c2.6-2.1,7.5-5.6,14.6-10.3c-2-1.1-3.5-3-4.5-5.8c-1-2.8-1.5-5.6-1.5-8.6c0-1.9,0.5-4,1.5-6.4c1-2.4,3.3-6.7,7-13
			c-15.6-3.9-23.5-15.9-23.5-35.9c0-13.4,3.7-23.3,11.2-29.8c7.5-6.5,19.6-9.7,36.6-9.7c8.9,0,18.2,1,27.8,3.1l38.2-0.7v8.3
			l-29.7,0.2c3.6,2.2,6.4,5.8,8.3,10.8c1.9,5,2.9,11,2.9,18.1c0,13.9-3.9,23.7-11.7,29.7c-7.8,5.9-20.4,8.9-37.6,8.9
			c-5.8,0-10.8-0.3-15-0.9l-2.2,4.7c-1.3,2.7-2.3,5-3,7.1c-0.7,2-1.1,4-1.1,5.9c0,4.7,2,7.9,5.9,9.5c3.9,1.6,9.7,2.4,17.3,2.4
			l18.8-0.2c9.8,0,17.8,0.9,24,2.6c6.2,1.7,11,4.9,14.3,9.6c3.4,4.6,5,11.4,5,20.2c0,8.8-1.8,15.9-5.5,21.4
			c-3.6,5.4-9.8,9.5-18.4,12.3c-8.6,2.8-20.5,4.1-35.6,4.1C1276,5199.8,1265.1,5198.5,1257.7,5196z M1320.7,5189.5
			c6.9-2,11.9-5.2,14.9-9.7s4.5-10.7,4.5-18.5c0-6.6-1-11.6-2.9-14.9c-1.9-3.3-5.6-5.7-11-7.1s-13.8-2-25.1-1.9l-32.7-0.9
			c-6,3.5-10.4,6.3-13.1,8.6c-2.7,2.3-4.6,4.8-5.7,7.4c-1.1,2.7-1.6,6.3-1.6,10.9c0,7.6,1.3,13.4,4,17.6c2.6,4.2,7,7.1,13.2,8.9
			c6.2,1.7,15.1,2.6,26.7,2.6C1304.1,5192.5,1313.8,5191.5,1320.7,5189.5z M1316.6,5086.8c5.6-4.6,8.5-12.9,8.5-24.7
			c0-11.7-2.8-19.8-8.3-24.5c-5.5-4.6-15.1-7-28.8-7c-14,0-23.9,2.4-29.7,7.2c-5.8,4.8-8.7,13-8.7,24.7c0,11.7,2.9,19.8,8.6,24.3
			c5.7,4.6,15.5,6.9,29.3,6.9C1301.2,5093.7,1311,5091.4,1316.6,5086.8z"/>
		<path class="st13" d="M1565.9,5084.4h-106.1l-21,59.1h-10.8l68-192.6h10.5l1.9-1.4l-0.6,1.4h10.2l-0.6-1.4l1.9,1.4h10.5l68,192.6
			h-10.8L1565.9,5084.4z M1562.4,5074.8l-0.6-1.9l0.3,0.3l-41-112.8h-16.5l-40.7,112.5l-0.6,1.9H1562.4z"/>
		<path class="st13" d="M1632,5006h10.8v11c10.8-5,20.7-8.4,29.7-10.5c9-2,18.3-3,27.8-3c13.8,0,24.2,2,31.3,6.1
			c7.1,4,12.1,10.9,14.9,20.6c2.9,9.7,4.3,23.8,4.3,42.1v71.3H1740v-71.3c0-15.8-1-27.9-3-36.3c-2-8.4-5.7-14.5-11.1-18.2
			c-5.4-3.7-13.3-5.5-23.7-5.5c-9.5,0-19.2,1.1-29.1,3.3c-9.8,2.2-17.3,4.5-22.4,6.9l-7.6,3.6v117.5H1632V5006z"/>
		<path class="st13" d="M1815.3,5204.6c-8.7-2.9-14.6-7.3-17.8-13.2c-3.2-5.9-4.8-13.9-4.8-24.2c0-6.6,0.8-11.8,2.4-15.5
			c1.6-3.8,3.9-6.9,7-9.4c3.1-2.5,8.7-6.5,17-12c-2.3-1.3-4.1-3.5-5.2-6.7c-1.2-3.2-1.7-6.6-1.7-10c0-2.2,0.6-4.7,1.7-7.4
			c1.2-2.8,3.9-7.8,8.1-15.1c-18.2-4.6-27.3-18.5-27.3-41.8c0-15.6,4.3-27.1,13-34.7c8.7-7.5,22.9-11.3,42.6-11.3
			c10.4,0,21.2,1.2,32.4,3.6l44.5-0.8v9.6l-34.6,0.3c4.2,2.6,7.5,6.7,9.7,12.5c2.2,5.8,3.3,12.8,3.3,21c0,16.1-4.6,27.6-13.7,34.5
			c-9.1,6.9-23.7,10.3-43.8,10.3c-6.8,0-12.6-0.4-17.5-1.1l-2.5,5.5c-1.5,3.1-2.6,5.9-3.5,8.3c-0.8,2.4-1.3,4.7-1.3,6.9
			c0,5.5,2.3,9.2,6.8,11c4.6,1.8,11.3,2.8,20.2,2.8l21.9-0.3c11.4,0,20.7,1,28,3c7.2,2,12.8,5.7,16.7,11.1
			c3.9,5.4,5.9,13.2,5.9,23.5c0,10.3-2.1,18.6-6.4,24.9c-4.2,6.3-11.4,11.1-21.4,14.3c-10.1,3.2-23.9,4.8-41.4,4.8
			C1836.6,5209,1823.9,5207.6,1815.3,5204.6z M1888.6,5197.1c8-2.3,13.8-6.1,17.3-11.3c3.5-5.2,5.2-12.4,5.2-21.6
			c0-7.7-1.1-13.5-3.3-17.3c-2.2-3.9-6.5-6.6-12.9-8.3c-6.4-1.7-16.1-2.4-29.2-2.2l-38.1-1.1c-7,4-12.1,7.4-15.2,10
			c-3.2,2.7-5.4,5.5-6.7,8.7c-1.3,3.1-1.9,7.3-1.9,12.7c0,8.8,1.5,15.6,4.6,20.5c3.1,4.9,8.2,8.3,15.4,10.3c7.2,2,17.6,3,31.1,3
			C1869.4,5200.5,1880.6,5199.4,1888.6,5197.1z M1883.9,5077.4c6.6-5.4,9.8-15,9.8-28.7c0-13.6-3.2-23.1-9.7-28.5
			c-6.5-5.4-17.6-8.1-33.5-8.1c-16.3,0-27.8,2.8-34.6,8.4c-6.8,5.6-10.2,15.2-10.2,28.7c0,13.6,3.3,23,10,28.3c6.7,5.3,18,8,34.1,8
			C1866,5085.5,1877.3,5082.8,1883.9,5077.4z"/>
		<path class="st13" d="M1975.3,5140.1c-7-3.9-11.9-10.7-14.6-20.4c-2.8-9.6-4.1-23.7-4.1-42.2V5006h11.1v70.7c0,16.3,1,28.7,3,37.1
			c2,8.4,5.8,14.4,11.3,18c5.5,3.6,13.7,5.4,24.5,5.4c10.2,0,19.9-1.2,29.1-3.7c9.2-2.5,17.6-5.8,25.3-10V5006h11.4v137.6h-11.8v-11
			c-8.3,4.6-16.6,8-24.9,10.2c-8.4,2.2-18.1,3.3-29.1,3.3C1992.7,5146,1982.3,5144.1,1975.3,5140.1z"/>
		<path class="st13" d="M2124,4942.7h11.1v200.8H2124V4942.7z"/>
		<path class="st13" d="M2188,5135.6c-7.3-7-11-16.6-11-28.9c0-12.3,3.5-21.7,10.6-28.2c7.1-6.5,18.3-10.7,33.5-12.5l60.3-5.2v-14
			c0-11.4-2.8-19.9-8.3-25.4c-5.5-5.6-13-8.4-22.6-8.4c-9.3,0-17.5,0.3-24.6,0.8c-7.1,0.6-20.4,1.8-39.9,3.9l-1-9.1
			c22-3.3,42-5,60-5c16.3,0,28.3,3.5,36,10.6c7.7,7.1,11.6,17.9,11.6,32.6v79.2c0.2,2.8,2.4,5.2,6.7,7.3c4.2,2.1,9.8,3.5,16.8,4.3
			l-0.6,8.5c-7,0-13.5-1.1-19.5-3.3s-10.4-5.1-13.2-8.8c-21.2,8.1-42.6,12.1-64.2,12.1C2205.6,5146,2195.3,5142.6,2188,5135.6z
			 M2272.6,5128.7l8.9-3v-55.8l-59.1,5c-11.6,0.7-20.1,3.5-25.3,8.4c-5.2,4.9-7.8,12.2-7.8,21.9c0,21.3,10,31.9,29.9,31.9
			C2237.7,5137,2255.5,5134.2,2272.6,5128.7z"/>
		<path class="st13" d="M2344.1,5006h10.8v21.5c18.4-11.9,39.5-20,63.2-24.2v9.9c-8.9,1.5-18.9,4.2-30,8.3c-11.1,4-19,7.6-23.7,10.7
			l-9.2,4.7v106.7h-11.1V5006z"/>
		<path d="M2528.5,4986v74.9h85.4v7.8h-85.4v74.9h-10.1v-165.4h109.4v7.8H2528.5z"/>
		<path d="M2651,5025.4h9.3v18.4c15.8-10.2,33.9-17.2,54.3-20.8v8.5c-7.6,1.3-16.2,3.6-25.8,7.1c-9.5,3.5-16.3,6.5-20.3,9.2l-7.9,4
			v91.7h-9.5V5025.4z"/>
		<path d="M2741.4,5136.7c-6.3-6-9.4-14.3-9.4-24.8c0-10.6,3-18.6,9.1-24.2c6.1-5.6,15.7-9.2,28.8-10.8l51.8-4.5v-12
			c0-9.8-2.4-17-7.1-21.9c-4.7-4.8-11.2-7.2-19.4-7.2c-8,0-15,0.2-21.1,0.7c-6.1,0.5-17.5,1.6-34.2,3.3l-0.8-7.8
			c18.9-2.8,36.1-4.3,51.6-4.3c14,0,24.3,3,31,9.1c6.6,6.1,10,15.4,10,28v68c0.2,2.4,2.1,4.5,5.7,6.3c3.6,1.8,8.5,3,14.5,3.7
			l-0.5,7.3c-6,0-11.6-0.9-16.8-2.8c-5.2-1.9-9-4.4-11.3-7.6c-18.2,6.9-36.6,10.4-55.1,10.4
			C2756.6,5145.7,2747.7,5142.7,2741.4,5136.7z M2814.1,5130.8l7.6-2.6v-48l-50.7,4.3c-10,0.6-17.2,3-21.7,7.2
			c-4.5,4.2-6.7,10.4-6.7,18.8c0,18.3,8.5,27.4,25.6,27.4C2784.1,5137.9,2799.4,5135.5,2814.1,5130.8z"/>
		<path d="M2875.5,5025.4h9.3v9.5c14.5-7.7,29.9-11.6,46.1-11.6c17.5,0,29.2,4.3,35.2,12.8c5.3-3.1,13-6.1,23.2-8.7
			c10.2-2.7,20.6-4,31.4-4c10.9,0,19.3,1.9,25.1,5.7c5.8,3.8,9.9,9.8,12.1,18.2c2.3,8.4,3.4,20.1,3.4,35.2v61.2h-9.5v-61.2
			c0-14-0.9-24.6-2.6-31.8c-1.7-7.2-4.9-12.2-9.5-15.2c-4.6-3-11.6-4.5-20.9-4.5c-8.7,0-17.3,0.9-25.6,2.8
			c-8.4,1.9-14.3,3.9-17.7,5.9l-6,2.8c3.5,0.6,5.2,13.8,5.2,39.5v61.7h-9.5v-61.2c0-13.5-0.9-23.9-2.6-31.2
			c-1.7-7.2-4.9-12.4-9.4-15.6c-4.5-3.1-11.3-4.7-20.2-4.7c-8,0-16.1,0.9-24.1,2.7c-8.1,1.8-14,3.8-17.9,6l-5.7,3.1v100.9h-9.5
			V5025.4z"/>
		<path d="M3109.8,5131.6c-8.2-9.4-12.3-24-12.3-43.8c0-22.1,4.4-38.3,13.2-48.8c8.8-10.5,22.8-15.7,41.9-15.7
			c17.5,0,30.4,4.6,38.7,13.7c8.4,9.1,12.5,23.5,12.5,43v7.8h-96.6c-0.2,12.4,1.2,22.3,4.1,29.4c2.9,7.2,7.8,12.4,14.7,15.8
			c6.9,3.4,16.6,5.1,29.2,5.1c4.7,0,10.3-0.2,16.8-0.5c6.5-0.3,12.6-0.6,18.4-0.9l8.2-0.7l0.5,7.8c-22.2,1.3-37.8,1.9-46.9,1.9
			C3132.2,5145.7,3118,5141,3109.8,5131.6z M3193.8,5080.3c0-17.5-3.3-30.1-9.8-37.8c-6.5-7.7-16.9-11.6-31.1-11.6
			c-15.1,0-26.5,4-34.1,12c-7.6,8-11.6,20.5-11.7,37.3H3193.8z"/>
		<path d="M3226,5025.4h10.1l34.6,110.6h3l40.4-108.2h10.4l40.1,108.2h3.5l34.4-110.6h10.1l-36.8,118.1H3357l-37.6-105.8
			l-37.9,105.8h-18.5L3226,5025.4z"/>
		<path d="M3456.9,5140.1c-7.9-3.7-13.4-9.8-16.4-18.2c-3-8.4-4.5-20.4-4.5-36c0-16.4,1.6-29,4.9-37.9c3.3-8.9,8.9-15.2,16.8-19
			c7.9-3.8,19.2-5.7,34-5.7c14.7,0,26,1.9,34,5.8c7.9,3.9,13.5,10.2,16.6,19.1c3.2,8.9,4.8,21.5,4.8,37.7c0,15.6-1.5,27.6-4.4,35.9
			c-2.9,8.4-8.3,14.4-16.2,18.2c-7.9,3.8-19.5,5.7-34.8,5.7C3476.4,5145.7,3464.8,5143.8,3456.9,5140.1z M3520.8,5133.1
			c6.3-3.2,10.5-8.4,12.7-15.6c2.2-7.2,3.3-17.7,3.3-31.5c0-15-1.2-26.3-3.5-33.9c-2.4-7.6-6.7-13-13-16.2
			c-6.3-3.1-15.7-4.7-28.2-4.7s-22.1,1.6-28.5,4.7c-6.5,3.2-10.9,8.6-13.4,16.3c-2.5,7.7-3.7,19-3.7,33.8c0,13.7,1.1,24.2,3.4,31.4
			c2.3,7.2,6.6,12.5,13.1,15.7c6.5,3.2,16.1,4.8,29.1,4.8C3504.9,5137.9,3514.5,5136.3,3520.8,5133.1z"/>
		<path d="M3584.7,5025.4h9.3v18.4c15.8-10.2,33.9-17.2,54.3-20.8v8.5c-7.6,1.3-16.2,3.6-25.8,7.1c-9.5,3.5-16.3,6.5-20.3,9.2
			l-7.9,4v91.7h-9.5V5025.4z"/>
		<path d="M3674.5,4971.1h9.5v104.2h26.2l47.2-49.9h11.2l-50.5,53.2l52.4,65h-11.2l-49.4-60.7l-25.9-0.2v61h-9.5V4971.1z"/>
	</g>
	<g>
		<g>
			<line class="st17" x1="482.5" y1="4330.7" x2="3943.3" y2="4330.7"/>
			<g>
				<path class="st3" d="M485.3,4387.1c-31.1,0-56.4-25.3-56.4-56.4s25.3-56.4,56.4-56.4c31.1,0,56.4,25.3,56.4,56.4
					S516.4,4387.1,485.3,4387.1z"/>
			</g>
			<g>
				<path class="st3" d="M3940.5,4387.1c31.1,0,56.4-25.3,56.4-56.4s-25.3-56.4-56.4-56.4c-31.1,0-56.4,25.3-56.4,56.4
					S3909.4,4387.1,3940.5,4387.1z"/>
			</g>
		</g>
	</g>
</g>
</svg>
