<?xml version="1.0" encoding="utf-8"?>
<!-- Generator: Adobe Illustrator 16.0.0, SVG Export Plug-In . SVG Version: 6.00 Build 0)  -->
<!DOCTYPE svg PUBLIC "-//W3C//DTD SVG 1.1//EN" "http://www.w3.org/Graphics/SVG/1.1/DTD/svg11.dtd">
<svg version="1.1" id="Layer_1" xmlns="http://www.w3.org/2000/svg" xmlns:xlink="http://www.w3.org/1999/xlink" x="0px" y="0px"
	 width="6755.9px" height="3056.9px" viewBox="0 0 6755.9 3056.9" enable-background="new 0 0 6755.9 3056.9" xml:space="preserve">
<g>
	
		<line fill="none" stroke="#121212" stroke-width="15" stroke-miterlimit="10" x1="1647.525" y1="2106.88" x2="5108.371" y2="2106.88"/>
	<path fill="#121212" d="M1650.346,2163.277c-31.144,0-56.397-25.254-56.397-56.396c0-31.144,25.254-56.397,56.397-56.397
		c31.142,0,56.396,25.254,56.396,56.397C1706.741,2138.023,1681.487,2163.277,1650.346,2163.277"/>
	<path fill="#121212" d="M5105.551,2163.277c31.144,0,56.396-25.254,56.396-56.396c0-31.144-25.253-56.397-56.396-56.397
		c-31.143,0-56.396,25.254-56.396,56.397C5049.154,2138.023,5074.408,2163.277,5105.551,2163.277"/>
</g>
<g>
	<g>
		<polygon fill="#E23237" points="1475.449,476.929 2266.661,195.022 3079.18,471.916 2947.62,1518.728 2266.661,1895.858 
			1596.356,1523.741 		"/>
		<polygon fill="#B52E31" points="3079.181,471.916 2266.661,195.022 2266.661,1895.858 2947.621,1519.357 		"/>
		<path fill="#007AFF" d="M3136.459,565.678c0,115.063-93.275,208.337-208.337,208.337s-208.337-93.275-208.337-208.337
			c0-115.061,93.275-208.337,208.337-208.337S3136.459,450.617,3136.459,565.678"/>
		<polygon fill="#FFFFFF" points="3000.674,494.856 2925.521,682.812 2895.769,682.812 2972.896,500.637 2866.863,500.637 
			2866.863,476.104 3000.674,476.104 		"/>
		<path fill="#FFFFFF" d="M2267.912,393.612L1774.896,1490.54l184.175-3.131l98.983-247.455h442.276l108.381,250.586l176.029,3.132
			L2267.912,393.612z M2269.171,745.056l166.635,348.306h-313.233L2269.171,745.056z"/>
	</g>
	<g>
		<path fill="#53C1DE" d="M4409.207,888.366c-85.936,0-155.604,69.668-155.604,155.604s69.668,155.604,155.604,155.604
			s155.596-69.667,155.596-155.604S4495.143,888.366,4409.207,888.366z M4409.207,888.366c-85.936,0-155.604,69.668-155.604,155.604
			s69.668,155.604,155.604,155.604s155.596-69.667,155.596-155.604S4495.143,888.366,4409.207,888.366z M4409.207,888.366
			c-85.936,0-155.604,69.668-155.604,155.604s69.668,155.604,155.604,155.604s155.596-69.667,155.596-155.604
			S4495.143,888.366,4409.207,888.366z M4409.207,888.366c-85.936,0-155.604,69.668-155.604,155.604s69.668,155.604,155.604,155.604
			s155.596-69.667,155.596-155.604S4495.143,888.366,4409.207,888.366z M4409.207,888.366c-85.936,0-155.604,69.668-155.604,155.604
			s69.668,155.604,155.604,155.604s155.596-69.667,155.596-155.604S4495.143,888.366,4409.207,888.366z M4409.207,888.366
			c-85.936,0-155.604,69.668-155.604,155.604s69.668,155.604,155.604,155.604s155.596-69.667,155.596-155.604
			S4495.143,888.366,4409.207,888.366z M4409.207,888.366c-85.936,0-155.604,69.668-155.604,155.604s69.668,155.604,155.604,155.604
			s155.596-69.667,155.596-155.604S4495.143,888.366,4409.207,888.366z M4409.207,888.366c-85.936,0-155.604,69.668-155.604,155.604
			s69.668,155.604,155.604,155.604s155.596-69.667,155.596-155.604S4495.143,888.366,4409.207,888.366z M4409.207,888.366
			c-85.936,0-155.604,69.668-155.604,155.604s69.668,155.604,155.604,155.604s155.596-69.667,155.596-155.604
			S4495.143,888.366,4409.207,888.366z M4409.207,888.366c-85.936,0-155.604,69.668-155.604,155.604s69.668,155.604,155.604,155.604
			s155.596-69.667,155.596-155.604S4495.143,888.366,4409.207,888.366z M4970.641,772.761c-18.541-6.357-37.25-12.256-56.094-17.674
			c3.129-12.698,6.018-25.452,8.672-38.253c42.455-206.121,14.697-372.165-80.107-426.828
			c-90.902-52.421-239.564,2.235-389.713,132.899c-14.791,12.904-29.258,26.179-43.387,39.809
			c-9.459-9.065-19.086-17.958-28.871-26.66c-157.355-139.723-315.084-198.596-409.787-143.774
			c-90.814,52.571-117.713,208.68-79.484,404.014c3.799,19.348,8.096,38.593,12.873,57.72c-22.316,6.333-43.867,13.093-64.486,20.28
			c-184.484,64.313-302.301,165.12-302.301,269.677c0,107.992,126.473,216.309,318.631,281.98
			c15.582,5.299,31.297,10.211,47.121,14.728c-5.141,20.613-9.705,41.35-13.693,62.214c-36.445,191.945-7.975,344.35,82.596,396.597
			c93.549,53.938,250.559-1.508,403.445-135.148c12.09-10.567,24.221-21.773,36.365-33.517c15.297,14.761,31.006,29.093,47.1,42.976
			c148.102,127.436,294.355,178.9,384.855,126.512c93.461-54.103,123.834-217.832,84.396-417.028
			c-3.01-15.217-6.516-30.76-10.449-46.577c11.025-3.262,21.844-6.618,32.402-10.124
			c199.764-66.177,329.727-173.175,329.727-282.612C5280.451,939.033,5158.836,837.548,4970.641,772.761z M4502.266,479.061
			c128.652-111.965,248.885-156.165,303.666-124.569c58.344,33.65,81.039,169.353,44.381,347.313
			c-2.408,11.593-5.014,23.146-7.842,34.644c-72.281-16.678-150.785-29.092-232.979-36.808
			c-47.881-68.175-97.488-130.175-147.297-183.828C4475.25,503.234,4488.611,490.978,4502.266,479.061z M4052.457,1133.285
			c15.756,30.435,32.229,60.5,49.396,90.161c17.523,30.261,35.766,60.097,54.711,89.489
			c-57.072-6.373-110.891-15.004-160.588-25.824C4011.361,1237.44,4030.314,1185.801,4052.457,1133.285z M4052.371,958.215
			c-21.678-51.418-40.229-101.967-55.367-150.779c49.711-11.127,102.732-20.224,157.973-27.126
			c-18.494,28.848-36.303,58.115-53.424,87.792C4084.465,897.755,4068.063,927.796,4052.371,958.215z M4091.941,1045.754
			c22.934-47.737,47.66-94.591,74.115-140.473v0.016c26.447-45.89,54.633-90.761,84.49-134.511
			c51.82-3.917,104.951-5.962,158.668-5.962c53.945,0,107.146,2.061,158.961,6.009c29.551,43.687,57.553,88.4,83.953,134.053
			c26.549,45.78,51.6,92.404,75.117,139.81c-23.273,47.896-48.244,94.938-74.873,141.049h-0.008
			c-26.393,45.85-54.275,90.839-83.59,134.874c-51.703,3.696-105.127,5.599-159.568,5.599c-54.221,0-106.973-1.682-157.768-4.975
			c-30.08-43.94-58.486-89-85.162-135.087C4139.729,1140.313,4114.932,1093.477,4091.941,1045.754z M4716.854,1222.933
			c17.531-30.396,34.375-61.178,50.533-92.324c23.289,53.083,42.92,104.446,58.516,153.281
			c-50.523,11.53-105.07,20.817-162.543,27.712C4681.773,1282.397,4699.613,1252.839,4716.854,1222.933z M4766.676,958.271
			c-16.102-30.562-32.813-60.792-50.123-90.674c-17.033-29.425-34.699-58.478-52.988-87.145
			c55.604,7.021,108.867,16.348,158.879,27.767C4807.432,856.351,4788.717,906.679,4766.676,958.271z M4410.037,569.048
			c34.336,37.188,68.719,78.726,102.543,123.787c-68.609-3.246-137.338-3.261-205.947-0.047
			C4340.486,648.145,4375.162,606.669,4410.037,569.048z M4008.645,356.704c58.303-33.744,187.199,14.372,323.068,135.008
			c8.68,7.716,17.404,15.786,26.139,24.142c-50.619,54.355-100.646,116.245-148.432,183.686
			c-81.957,7.597-160.406,19.798-232.521,36.137c-4.447-17.792-8.434-35.694-11.98-53.684
			C3932.17,514.621,3953.918,388.387,4008.645,356.704z M3923.68,1268.98c-14.451-4.138-28.793-8.624-43.016-13.464
			c-84.973-29.046-155.137-66.786-203.238-107.968c-43.213-37.014-65.041-73.759-65.041-103.578
			c0-63.445,94.607-144.382,252.375-199.385c19.805-6.878,39.801-13.172,59.979-18.874c21.803,70.924,50.406,145.077,84.924,220.067
			C3974.695,1121.882,3945.689,1197.22,3923.68,1268.98z M4327.076,1608.286c-67.605,59.102-135.354,101.02-195.057,122.111h-0.008
			c-53.652,18.945-96.383,19.492-122.207,4.597c-54.971-31.697-77.816-154.079-46.648-318.219
			c3.705-19.403,7.945-38.696,12.723-57.854c71.373,15.785,150.377,27.142,234.82,33.988
			c48.203,67.843,98.689,130.2,149.578,184.806C4349.457,1588.171,4338.395,1598.367,4327.076,1608.286z M4412.098,1524.15
			c-35.285-38.071-70.475-80.179-104.842-125.468c33.357,1.311,67.377,1.975,101.951,1.975c35.514,0,70.631-0.798,105.182-2.338
			C4480.463,1444.431,4446.197,1486.601,4412.098,1524.15z M4864.125,1627.72c-10.385,55.935-31.248,93.233-57.057,108.167
			c-54.916,31.785-172.354-9.532-298.99-118.512c-14.523-12.493-29.156-25.832-43.82-39.943
			c49.104-53.708,98.168-116.142,146.055-185.47c84.248-7.471,163.834-19.696,236.006-36.375
			c3.545,14.341,6.703,28.407,9.428,42.155C4873.184,1485.818,4875.67,1565.459,4864.125,1627.72z M4927.318,1255.927h-0.01
			c-9.523,3.159-19.299,6.199-29.266,9.161c-22.057-69.818-51.82-144.058-88.234-220.747
			c34.756-74.88,63.367-148.165,84.807-217.532c17.816,5.164,35.127,10.605,51.797,16.347
			c161.25,55.5,259.609,137.574,259.609,200.814C5206.021,1111.331,5099.789,1198.776,4927.318,1255.927z M4409.207,1199.573
			c85.936,0,155.596-69.667,155.596-155.604s-69.66-155.604-155.596-155.604s-155.604,69.668-155.604,155.604
			S4323.271,1199.573,4409.207,1199.573z M4409.207,888.366c-85.936,0-155.604,69.668-155.604,155.604
			s69.668,155.604,155.604,155.604s155.596-69.667,155.596-155.604S4495.143,888.366,4409.207,888.366z M4409.207,888.366
			c-85.936,0-155.604,69.668-155.604,155.604s69.668,155.604,155.604,155.604s155.596-69.667,155.596-155.604
			S4495.143,888.366,4409.207,888.366z M4409.207,888.366c-85.936,0-155.604,69.668-155.604,155.604s69.668,155.604,155.604,155.604
			s155.596-69.667,155.596-155.604S4495.143,888.366,4409.207,888.366z M4409.207,888.366c-85.936,0-155.604,69.668-155.604,155.604
			s69.668,155.604,155.604,155.604s155.596-69.667,155.596-155.604S4495.143,888.366,4409.207,888.366z M4409.207,888.366
			c-85.936,0-155.604,69.668-155.604,155.604s69.668,155.604,155.604,155.604s155.596-69.667,155.596-155.604
			S4495.143,888.366,4409.207,888.366z M4409.207,888.366c-85.936,0-155.604,69.668-155.604,155.604s69.668,155.604,155.604,155.604
			s155.596-69.667,155.596-155.604S4495.143,888.366,4409.207,888.366z M4409.207,888.366c-85.936,0-155.604,69.668-155.604,155.604
			s69.668,155.604,155.604,155.604s155.596-69.667,155.596-155.604S4495.143,888.366,4409.207,888.366z M4409.207,888.366
			c-85.936,0-155.604,69.668-155.604,155.604s69.668,155.604,155.604,155.604s155.596-69.667,155.596-155.604
			S4495.143,888.366,4409.207,888.366z"/>
		<path fill="#53C1DE" d="M4564.803,1043.97c0,85.936-69.66,155.604-155.596,155.604s-155.604-69.667-155.604-155.604
			s69.668-155.604,155.604-155.604S4564.803,958.034,4564.803,1043.97z"/>
	</g>
</g>
<text transform="matrix(1 0 0 1 1153.8652 2552.9956)" display="none"><tspan x="0" y="0" display="inline" font-family="'Cairo-Regular'" font-size="312.1159">Build Single Page Web Appilcation</tspan><tspan x="655.114" y="374.539" display="inline" font-family="'Cairo-ExtraLight'" font-size="312.1159">Using Angular and React</tspan></text>
<g>
	<path d="M1188.036,2337.011h78.341c21.849,0,38.025,4.525,48.534,13.577c10.505,9.052,15.762,23.15,15.762,42.292
		c0,12.694-2.292,22.838-6.866,30.431c-4.579,7.599-11.548,13.685-20.912,18.259c11.651,4.165,20.288,10.407,25.906,18.728
		c5.618,8.324,8.427,19.561,8.427,33.708c0,20.396-5.672,35.323-17.01,44.789c-11.343,9.471-27.934,14.201-49.783,14.201h-82.398
		V2337.011z M1267.626,2432.831c13.108,0,22.784-3.17,29.026-9.52c6.242-6.345,9.364-15.864,9.364-28.559
		c0-12.898-3.229-22.209-9.676-27.934c-6.452-5.721-16.751-8.584-30.899-8.584h-53.372v74.596H1267.626z M1269.499,2531.772
		c14.147,0,24.916-3.014,32.304-9.052c7.383-6.032,11.08-15.811,11.08-29.339c0-14.563-4.058-24.813-12.173-30.743
		c-8.115-5.931-19.039-8.896-32.772-8.896h-55.869v78.029H1269.499z"/>
	<path d="M1394.188,2548.782c-7.179-4.887-12.226-12.846-15.137-23.877c-2.917-11.026-4.37-26.529-4.37-46.505v-81.462h23.409
		v81.149c0,15.606,0.829,27.364,2.497,35.27c1.663,7.91,4.682,13.528,9.052,16.854c4.369,3.331,11.129,4.993,20.287,4.993
		c14.148,0,28.715-3.848,43.696-11.548v-126.719h23.409v156.058h-23.409v-10.924c-8.534,4.993-16.439,8.583-23.721,10.768
		c-7.286,2.185-15.605,3.277-24.969,3.277C1411.612,2556.117,1401.366,2553.668,1394.188,2548.782z"/>
	<path d="M1541.972,2334.514h23.097v27.154h-23.097V2334.514z M1541.972,2396.938h23.097v156.058h-23.097V2396.938z"/>
	<path d="M1611.882,2328.896h23.408v224.1h-23.408V2328.896z"/>
	<path d="M1686.163,2536.921c-8.535-12.797-12.797-32.509-12.797-59.146c0-29.754,5.15-51.188,15.45-64.296
		c10.3-13.109,27.311-19.663,51.031-19.663c11.86,0,24.237,1.355,37.142,4.057v-68.978h23.097v224.1h-23.097v-10.612
		c-16.025,9.159-32.148,13.733-48.378,13.733C1708.84,2556.117,1694.692,2549.718,1686.163,2536.921z M1752.644,2532.552
		c7.071-1.766,13.108-3.794,18.103-6.087l6.242-2.809v-105.808c-13.528-2.497-25.281-3.745-35.269-3.745
		c-16.44,0-27.934,4.789-34.489,14.357c-6.555,9.573-9.832,25.389-9.832,47.441c0,20.186,2.653,35.113,7.959,44.789
		c5.306,9.676,14.514,14.513,27.623,14.513C1739.013,2535.205,1745.567,2534.323,1752.644,2532.552z"/>
	<path d="M1919.618,2550.499l-11.236-1.561l2.497-19.976c28.505,3.746,50.041,5.618,64.608,5.618
		c30.792,0,46.193-14.46,46.193-43.384c0-7.905-1.405-14.147-4.213-18.728c-2.81-4.574-7.598-8.319-14.357-11.235
		c-6.764-2.912-16.596-5.618-29.495-8.115c-17.064-3.536-30.329-7.594-39.795-12.173c-9.471-4.574-16.386-10.714-20.756-18.415
		c-4.369-7.695-6.554-17.995-6.554-30.899c0-38.702,23.199-58.054,69.602-58.054c16.021,0,37.766,2.083,65.232,6.243l-2.185,20.287
		c-29.963-3.535-50.46-5.306-61.487-5.306c-31.212,0-46.817,11.758-46.817,35.269c0,8.949,1.507,15.762,4.525,20.444
		c3.014,4.682,8.164,8.48,15.45,11.392c7.281,2.917,18.829,6.14,34.645,9.676c15.396,3.541,27.311,7.491,35.737,11.86
		c8.427,4.37,14.616,10.144,18.571,17.322c3.95,7.179,5.93,16.698,5.93,28.559c0,44.32-22.994,66.48-68.978,66.48
		C1962.168,2555.804,1943.129,2554.035,1919.618,2550.499z"/>
	<path d="M2083.165,2334.514h23.096v27.154h-23.096V2334.514z M2083.165,2396.938h23.096v156.058h-23.096V2396.938z"/>
	<path d="M2151.202,2396.938h23.096v10.924c9.364-5.199,17.947-8.842,25.75-10.924c7.803-2.078,15.967-3.121,24.501-3.121
		c13.314,0,23.614,2.496,30.899,7.49c7.281,4.994,12.432,12.953,15.45,23.877c3.014,10.924,4.525,26.062,4.525,45.413v82.398
		h-23.097v-81.774c0-14.771-0.888-26.11-2.653-34.021c-1.77-7.905-4.945-13.626-9.52-17.166c-4.58-3.536-11.236-5.307-19.975-5.307
		c-7.076,0-14.309,0.888-21.692,2.653c-7.388,1.771-13.372,3.799-17.946,6.086l-5.931,2.81v126.719h-23.408V2396.938z"/>
	<path d="M2326.451,2615.887c-9.675-6.974-14.513-18.571-14.513-34.801c0-6.662,0.78-12.124,2.341-16.387
		c1.561-4.267,4.004-8.066,7.335-11.392c3.326-3.326,8.319-7.594,14.981-12.797c-2.917-1.873-5.102-4.682-6.555-8.428
		c-1.458-3.745-2.185-7.695-2.185-11.86c0-2.701,0.624-5.667,1.873-8.895c1.249-3.224,4.16-8.896,8.739-17.011
		c-16.44-7.281-24.657-22.887-24.657-46.817c0-18.103,4.886-31.572,14.669-40.419c9.778-8.842,24.55-13.265,44.32-13.265
		c9.568,0,20.181,1.355,31.836,4.057l46.193-1.248v19.976l-29.651-0.624c3.536,3.54,6.135,7.856,7.803,12.952
		c1.663,5.102,2.497,11.603,2.497,19.508c0,18.521-4.789,31.733-14.357,39.639c-9.573,7.91-24.657,11.86-45.257,11.86
		c-6.452,0-11.758-0.415-15.917-1.249c-1.668,4.165-3.019,7.804-4.058,10.925c-1.043,3.121-1.561,5.827-1.561,8.114
		c0,5.414,2.131,8.949,6.398,10.612c4.262,1.668,10.871,2.497,19.819,2.497h12.172c13.733,0,24.813,1.044,33.24,3.121
		c8.427,2.082,14.928,6.296,19.507,12.641c4.575,6.35,6.867,15.552,6.867,27.622c0,18.103-5.618,31.314-16.854,39.639
		c-11.236,8.32-29.758,12.485-55.557,12.485C2352.615,2626.343,2336.126,2622.856,2326.451,2615.887z M2414.312,2599.657
		c6.866-4.682,10.3-12.748,10.3-24.188c0-6.662-1.146-11.705-3.434-15.138c-2.292-3.434-6.14-5.774-11.548-7.022
		c-5.414-1.249-13.216-1.873-23.409-1.873l-33.708-1.561c-6.867,4.994-11.5,9.363-13.89,13.108
		c-2.395,3.746-3.589,8.739-3.589,14.982c0,10.816,3.17,18.307,9.52,22.472c6.345,4.16,17.527,6.242,33.552,6.242
		C2395.375,2606.679,2407.445,2604.338,2414.312,2599.657z M2399.954,2473.406c5.408-5.198,8.115-14.045,8.115-26.529
		c0-12.275-2.707-21.015-8.115-26.218c-5.413-5.199-14.357-7.803-26.842-7.803c-12.904,0-22.112,2.652-27.623,7.959
		c-5.516,5.306-8.271,14.099-8.271,26.373c0,12.28,2.755,21.02,8.271,26.218c5.511,5.204,14.616,7.803,27.31,7.803
		C2385.489,2481.208,2394.541,2478.61,2399.954,2473.406z"/>
	<path d="M2481.102,2328.896h23.409v224.1h-23.409V2328.896z"/>
	<path d="M2557.411,2537.545c-9.885-12.377-14.825-31.884-14.825-58.521c0-28.919,5.306-50.353,15.918-64.296
		c10.612-13.938,27.256-20.911,49.938-20.911c20.805,0,36.361,5.983,46.661,17.946c10.3,11.968,15.45,30.329,15.45,55.089
		l-1.249,17.79h-102.998c0,12.904,1.404,22.994,4.214,30.275c2.809,7.286,7.593,12.538,14.357,15.762
		c6.759,3.229,16.176,4.838,28.247,4.838c6.032,0,13.001-0.156,20.912-0.468c7.906-0.313,15.084-0.78,21.536-1.405l9.051-0.936
		l0.624,18.414c-23.097,3.326-42.243,4.994-57.429,4.994C2584.097,2556.117,2567.292,2549.928,2557.411,2537.545z
		 M2647.145,2465.916c0-18.932-3.019-32.406-9.051-40.419c-6.038-8.008-15.918-12.017-29.651-12.017
		c-14.357,0-24.97,4.213-31.836,12.641c-6.867,8.427-10.407,21.692-10.612,39.795H2647.145z"/>
	<path d="M2779.786,2337.011h78.965c23.511,0,40.887,5.672,52.124,17.011c11.236,11.343,16.854,28.87,16.854,52.591
		c0,49.11-22.995,73.66-68.978,73.66h-54.932v72.723h-24.033V2337.011z M2858.439,2459.048c29.753,0,44.633-17.479,44.633-52.436
		c0-16.854-3.541-29.129-10.612-36.829c-7.076-7.695-18.415-11.549-34.021-11.549h-54.62v100.813H2858.439z"/>
	<path d="M2960.5,2543.944c-7.491-8.114-11.236-19.766-11.236-34.957c0-14.981,3.794-26.11,11.392-33.396
		c7.593-7.281,19.712-11.754,36.361-13.422l49.002-4.682v-13.421c0-19.766-8.535-29.65-25.594-29.65
		c-16.854,0-37.352,1.355-61.487,4.058l-0.936-17.791c22.263-4.574,42.55-6.866,60.862-6.866c17.684,0,30.534,4.009,38.546,12.016
		c8.008,8.013,12.017,20.756,12.017,38.234v79.902c0.624,7.7,6.657,12.279,18.103,13.732l-0.937,18.415
		c-16.439,0-28.822-4.16-37.142-12.484c-18.522,8.324-37.249,12.484-56.181,12.484
		C2978.916,2556.117,2967.991,2552.059,2960.5,2543.944z M3038.842,2529.275l7.179-2.497v-51.499l-46.193,4.369
		c-9.363,0.834-16.127,3.541-20.288,8.115c-4.165,4.579-6.242,11.236-6.242,19.976c0,19.146,7.905,28.715,23.721,28.715
		C3010.956,2536.454,3024.899,2534.064,3038.842,2529.275z"/>
	<path d="M3123.267,2615.887c-9.676-6.974-14.513-18.571-14.513-34.801c0-6.662,0.78-12.124,2.341-16.387
		c1.561-4.267,4.004-8.066,7.334-11.392c3.326-3.326,8.32-7.594,14.982-12.797c-2.917-1.873-5.102-4.682-6.555-8.428
		c-1.458-3.745-2.185-7.695-2.185-11.86c0-2.701,0.624-5.667,1.873-8.895c1.249-3.224,4.16-8.896,8.739-17.011
		c-16.44-7.281-24.657-22.887-24.657-46.817c0-18.103,4.887-31.572,14.669-40.419c9.778-8.842,24.55-13.265,44.32-13.265
		c9.568,0,20.18,1.355,31.836,4.057l46.193-1.248v19.976l-29.651-0.624c3.536,3.54,6.135,7.856,7.803,12.952
		c1.663,5.102,2.497,11.603,2.497,19.508c0,18.521-4.789,31.733-14.357,39.639c-9.573,7.91-24.657,11.86-45.257,11.86
		c-6.452,0-11.758-0.415-15.918-1.249c-1.668,4.165-3.019,7.804-4.058,10.925c-1.043,3.121-1.561,5.827-1.561,8.114
		c0,5.414,2.131,8.949,6.398,10.612c4.262,1.668,10.87,2.497,19.819,2.497h12.172c13.733,0,24.813,1.044,33.24,3.121
		c8.427,2.082,14.928,6.296,19.507,12.641c4.575,6.35,6.867,15.552,6.867,27.622c0,18.103-5.618,31.314-16.854,39.639
		c-11.236,8.32-29.758,12.485-55.557,12.485C3149.431,2626.343,3132.942,2622.856,3123.267,2615.887z M3211.127,2599.657
		c6.866-4.682,10.3-12.748,10.3-24.188c0-6.662-1.146-11.705-3.434-15.138c-2.292-3.434-6.14-5.774-11.548-7.022
		c-5.413-1.249-13.216-1.873-23.409-1.873l-33.708-1.561c-6.866,4.994-11.5,9.363-13.889,13.108
		c-2.395,3.746-3.589,8.739-3.589,14.982c0,10.816,3.17,18.307,9.52,22.472c6.345,4.16,17.527,6.242,33.553,6.242
		C3192.19,2606.679,3204.261,2604.338,3211.127,2599.657z M3196.77,2473.406c5.408-5.198,8.115-14.045,8.115-26.529
		c0-12.275-2.707-21.015-8.115-26.218c-5.414-5.199-14.357-7.803-26.842-7.803c-12.904,0-22.111,2.652-27.622,7.959
		c-5.516,5.306-8.271,14.099-8.271,26.373c0,12.28,2.755,21.02,8.271,26.218c5.511,5.204,14.616,7.803,27.31,7.803
		C3182.305,2481.208,3191.356,2478.61,3196.77,2473.406z"/>
	<path d="M3284.003,2537.545c-9.885-12.377-14.825-31.884-14.825-58.521c0-28.919,5.306-50.353,15.918-64.296
		c10.612-13.938,27.256-20.911,49.938-20.911c20.804,0,36.361,5.983,46.661,17.946c10.301,11.968,15.45,30.329,15.45,55.089
		l-1.249,17.79h-102.998c0,12.904,1.404,22.994,4.213,30.275c2.809,7.286,7.593,12.538,14.357,15.762
		c6.759,3.229,16.176,4.838,28.247,4.838c6.033,0,13.001-0.156,20.912-0.468c7.905-0.313,15.084-0.78,21.536-1.405l9.051-0.936
		l0.625,18.414c-23.097,3.326-42.243,4.994-57.43,4.994C3310.689,2556.117,3293.884,2549.928,3284.003,2537.545z M3373.737,2465.916
		c0-18.932-3.019-32.406-9.051-40.419c-6.038-8.008-15.918-12.017-29.651-12.017c-14.357,0-24.969,4.213-31.836,12.641
		c-6.867,8.427-10.407,21.692-10.612,39.795H3373.737z"/>
	<path d="M3489.212,2337.011h24.97l36.83,194.761h9.051l44.008-192.888h28.091l44.009,192.888h9.051l36.83-194.761h24.656
		l-43.695,215.984h-44.009l-40.887-184.461l-40.888,184.461h-44.008L3489.212,2337.011z"/>
	<path d="M3780.572,2537.545c-9.886-12.377-14.826-31.884-14.826-58.521c0-28.919,5.307-50.353,15.918-64.296
		c10.612-13.938,27.257-20.911,49.939-20.911c20.804,0,36.361,5.983,46.66,17.946c10.301,11.968,15.45,30.329,15.45,55.089
		l-1.249,17.79h-102.998c0,12.904,1.404,22.994,4.214,30.275c2.81,7.286,7.593,12.538,14.357,15.762
		c6.759,3.229,16.177,4.838,28.247,4.838c6.032,0,13.001-0.156,20.911-0.468c7.905-0.313,15.084-0.78,21.536-1.405l9.051-0.936
		l0.625,18.414c-23.097,3.326-42.243,4.994-57.43,4.994C3807.258,2556.117,3790.452,2549.928,3780.572,2537.545z M3870.305,2465.916
		c0-18.932-3.018-32.406-9.051-40.419c-6.037-8.008-15.918-12.017-29.65-12.017c-14.357,0-24.97,4.213-31.836,12.641
		c-6.867,8.427-10.408,21.692-10.612,39.795H3870.305z"/>
	<path d="M3938.967,2553.62l-8.738-0.937v-223.787h23.096v75.845c16.23-7.281,32.041-10.924,47.442-10.924
		c13.733,0,24.55,2.652,32.46,7.959c7.905,5.306,13.68,13.786,17.322,25.438c3.639,11.655,5.462,27.261,5.462,46.817
		c0,21.434-2.292,37.976-6.866,49.626c-4.58,11.655-12.227,19.927-22.941,24.813c-10.719,4.887-25.855,7.334-45.412,7.334
		C3967.059,2555.804,3953.115,2555.073,3938.967,2553.62z M4013.563,2529.119c7.072-4.058,11.963-10.456,14.67-19.195
		c2.702-8.739,4.058-20.911,4.058-36.518c0-14.771-1.146-26.373-3.433-34.801c-2.293-8.427-6.087-14.514-11.393-18.259
		c-5.307-3.745-12.641-5.618-22.004-5.618c-11.446,0-25.492,3.019-42.137,9.052v109.864c14.982,1.044,24.97,1.561,29.964,1.561
		C3996.396,2535.205,4006.486,2533.176,4013.563,2529.119z"/>
	<path d="M4279.789,2497.439h-92.387l-15.605,55.557h-23.721l59.302-215.984h52.436l59.302,215.984h-23.721L4279.789,2497.439z
		 M4192.709,2475.903h81.773l-32.771-118.292h-16.23L4192.709,2475.903z"/>
	<path d="M4349.076,2396.938h23.097v11.235c8.115-4.783,15.967-8.373,23.565-10.768c7.593-2.39,15.654-3.589,24.188-3.589
		c19.351,0,33.445,6.398,42.292,19.194c8.842,12.797,13.265,33.139,13.265,61.02c0,19.771-2.292,35.635-6.866,47.598
		c-4.58,11.967-11.861,20.706-21.849,26.217c-9.987,5.512-23.409,8.271-40.263,8.271c-11.656,0-22.994-1.146-34.021-3.434v69.603
		h-23.408V2396.938z M4441.463,2521.472c6.866-9.568,10.3-25.072,10.3-46.506c0-21.224-2.966-36.566-8.896-46.037
		c-5.93-9.466-14.933-14.201-26.998-14.201c-6.037,0-12.538,0.99-19.508,2.965c-6.973,1.98-12.952,4.111-17.946,6.398l-5.931,3.122
		v105.183c15.396,2.292,26.843,3.434,34.334,3.434C4423.048,2535.83,4434.596,2531.045,4441.463,2521.472z"/>
	<path d="M4513.559,2396.938h23.098v11.235c8.115-4.783,15.967-8.373,23.564-10.768c7.594-2.39,15.654-3.589,24.189-3.589
		c19.351,0,33.445,6.398,42.291,19.194c8.842,12.797,13.266,33.139,13.266,61.02c0,19.771-2.293,35.635-6.867,47.598
		c-4.579,11.967-11.86,20.706-21.848,26.217c-9.988,5.512-23.409,8.271-40.264,8.271c-11.655,0-22.994-1.146-34.021-3.434v69.603
		h-23.409V2396.938z M4605.945,2521.472c6.867-9.568,10.301-25.072,10.301-46.506c0-21.224-2.966-36.566-8.896-46.037
		c-5.93-9.466-14.932-14.201-26.998-14.201c-6.037,0-12.537,0.99-19.507,2.965c-6.974,1.98-12.952,4.111-17.946,6.398l-5.931,3.122
		v105.183c15.396,2.292,26.843,3.434,34.333,3.434C4587.531,2535.83,4599.079,2531.045,4605.945,2521.472z"/>
	<path d="M4678.042,2334.514h23.097v27.154h-23.097V2334.514z M4678.042,2396.938h23.097v156.058h-23.097V2396.938z"/>
	<path d="M4747.952,2328.896h23.409v224.1h-23.409V2328.896z"/>
	<path d="M4835.342,2547.845c-9.159-5.511-15.713-14.147-19.664-25.905c-3.955-11.753-5.93-27.412-5.93-46.974
		c0-24.759,4.16-44.525,12.484-59.302c8.32-14.771,24.447-22.16,48.378-22.16c6.243,0,12.69,0.313,19.352,0.937
		c6.657,0.624,15.708,1.979,27.153,4.058l-0.936,19.039c-16.439-1.873-29.027-2.81-37.766-2.81c-11.861,0-20.966,1.824-27.311,5.462
		c-6.35,3.644-10.822,9.783-13.422,18.415c-2.604,8.637-3.9,20.966-3.9,36.986c0,15.19,1.248,26.998,3.745,35.425
		s7.022,14.567,13.577,18.415c6.555,3.853,16.074,5.773,28.559,5.773l36.83-2.809l0.936,19.352
		c-19.975,2.911-34.957,4.369-44.944,4.369C4856.877,2556.117,4844.495,2553.357,4835.342,2547.845z"/>
	<path d="M4953.631,2543.944c-7.491-8.114-11.236-19.766-11.236-34.957c0-14.981,3.794-26.11,11.393-33.396
		c7.593-7.281,19.711-11.754,36.361-13.422l49.002-4.682v-13.421c0-19.766-8.535-29.65-25.594-29.65
		c-16.854,0-37.352,1.355-61.486,4.058l-0.937-17.791c22.263-4.574,42.55-6.866,60.862-6.866c17.684,0,30.533,4.009,38.547,12.016
		c8.008,8.013,12.016,20.756,12.016,38.234v79.902c0.625,7.7,6.657,12.279,18.104,13.732l-0.938,18.415
		c-16.439,0-28.821-4.16-37.141-12.484c-18.522,8.324-37.25,12.484-56.182,12.484
		C4972.045,2556.117,4961.121,2552.059,4953.631,2543.944z M5031.972,2529.275l7.179-2.497v-51.499l-46.193,4.369
		c-9.363,0.834-16.127,3.541-20.287,8.115c-4.165,4.579-6.242,11.236-6.242,19.976c0,19.146,7.904,28.715,23.721,28.715
		C5004.086,2536.454,5018.029,2534.064,5031.972,2529.275z"/>
	<path d="M5133.563,2551.279c-5.93-3.434-10.197-9.256-12.797-17.479c-2.604-8.217-3.9-19.712-3.9-34.488v-82.087h-22.16v-20.287
		h22.16v-47.754h23.096v47.754h49.627v20.287h-49.627v74.596c0,11.655,0.415,20.341,1.249,26.062
		c0.829,5.726,2.857,10.096,6.086,13.109c3.224,3.019,8.271,4.525,15.138,4.525l27.778-1.873l1.561,19.352
		c-14.776,2.287-25.905,3.434-33.396,3.434C5147.764,2556.429,5139.493,2554.712,5133.563,2551.279z"/>
	<path d="M5218.301,2334.514h23.098v27.154h-23.098V2334.514z M5218.301,2396.938h23.098v156.058h-23.098V2396.938z"/>
	<path d="M5304.754,2547.845c-9.782-5.511-16.752-14.094-20.911-25.749c-4.165-11.65-6.242-27.047-6.242-46.193
		c0-19.766,2.185-35.63,6.554-47.598c4.37-11.963,11.441-20.702,21.225-26.218c9.777-5.511,22.784-8.271,39.014-8.271
		c16.436,0,29.496,2.809,39.172,8.427c9.675,5.618,16.697,14.357,21.066,26.218c4.371,11.86,6.555,27.676,6.555,47.441
		c0,19.146-2.082,34.543-6.242,46.193c-4.164,11.655-11.08,20.238-20.756,25.749c-9.676,5.512-22.939,8.271-39.795,8.271
		C5327.744,2556.117,5314.533,2553.357,5304.754,2547.845z M5370.923,2530.055c6.032-3.848,10.247-9.988,12.642-18.415
		c2.389-8.427,3.589-20.336,3.589-35.737c0-16.229-1.249-28.715-3.745-37.454c-2.498-8.739-6.765-14.981-12.797-18.727
		c-6.038-3.745-14.67-5.618-25.906-5.618s-19.926,1.873-26.062,5.618c-6.14,3.745-10.509,9.987-13.108,18.727
		c-2.604,8.739-3.902,21.225-3.902,37.454c0,15.191,1.195,27.052,3.59,35.581c2.39,8.535,6.656,14.724,12.797,18.571
		c6.135,3.853,15.03,5.774,26.686,5.774C5356.146,2535.83,5364.886,2533.908,5370.923,2530.055z"/>
	<path d="M5449.264,2396.938h23.098v10.924c9.363-5.199,17.946-8.842,25.749-10.924c7.804-2.078,15.967-3.121,24.501-3.121
		c13.314,0,23.613,2.496,30.9,7.49c7.28,4.994,12.43,12.953,15.449,23.877c3.014,10.924,4.525,26.062,4.525,45.413v82.398h-23.097
		v-81.774c0-14.771-0.888-26.11-2.653-34.021c-1.77-7.905-4.944-13.626-9.52-17.166c-4.578-3.536-11.235-5.307-19.975-5.307
		c-7.076,0-14.309,0.888-21.692,2.653c-7.388,1.771-13.372,3.799-17.946,6.086l-5.931,2.81v126.719h-23.409V2396.938z"/>
	<path d="M1856.418,2915.05c-11.758-10.192-17.634-26.53-17.634-49.003v-156.994h11.236v157.619c0,35.376,19.766,53.06,59.302,53.06
		c21.014,0,36.722-4.16,47.129-12.484c10.402-8.32,15.606-21.849,15.606-40.575v-157.619h10.612v156.994
		c0,22.473-6.037,38.811-18.103,49.003c-12.07,10.197-30.173,15.293-54.309,15.293
		C1886.118,2930.343,1868.171,2925.248,1856.418,2915.05z"/>
	<path d="M2035.418,2926.598l-9.052-1.248l1.249-10.612c24.55,3.745,42.238,5.618,53.06,5.618c15.605,0,27.047-2.755,34.333-8.271
		c7.281-5.511,10.924-14.304,10.924-26.373c0-8.53-1.717-15.03-5.15-19.508c-3.433-4.472-7.803-7.593-13.108-9.363
		c-5.306-1.766-12.851-3.38-22.628-4.838c-3.746-0.414-6.554-0.829-8.427-1.248c-14.152-2.287-24.867-4.94-32.148-7.959
		c-7.286-3.014-12.436-6.915-15.45-11.704c-3.019-4.784-4.525-11.236-4.525-19.352c0-16.23,4.886-27.413,14.669-33.553
		c9.778-6.135,23.926-9.207,42.448-9.207c16.435,0,30.587,0.937,42.447,2.809l7.803,1.561l-0.625,9.988
		c-9.987-1.663-19.614-2.912-28.871-3.746c-9.261-0.829-16.596-1.248-22.004-1.248c-15.815,0-27.208,2.707-34.177,8.115
		c-6.974,5.413-10.456,13.216-10.456,23.408c0,7.701,1.819,13.475,5.462,17.322c3.638,3.854,8.163,6.506,13.577,7.959
		c5.409,1.459,14.875,3.434,28.403,5.931c14.357,2.497,25.125,5.102,32.304,7.803c7.179,2.707,12.587,6.765,16.23,12.173
		c3.638,5.413,5.462,13.108,5.462,23.097c0,16.229-4.838,27.987-14.514,35.269c-9.676,7.286-24.398,10.924-44.164,10.924
		C2067.878,2930.343,2053.521,2929.095,2035.418,2926.598z"/>
	<path d="M2176.491,2709.053h10.612v17.167h-10.612V2709.053z M2176.804,2771.477h10.612v156.058h-10.612V2771.477z"/>
	<path d="M2236.416,2771.477h10.612v12.484c10.612-5.618,20.336-9.568,29.183-11.86c8.842-2.287,17.946-3.434,27.31-3.434
		c13.523,0,23.77,2.292,30.744,6.867c6.969,4.579,11.861,12.382,14.669,23.408c2.809,11.031,4.214,26.949,4.214,47.754v80.838
		h-10.612v-80.838c0-17.894-0.99-31.626-2.965-41.199c-1.98-9.568-5.618-16.436-10.924-20.6c-5.306-4.16-13.061-6.242-23.253-6.242
		c-9.363,0-18.883,1.248-28.559,3.745s-17.01,5.101-22.004,7.803l-7.491,4.058v133.273h-10.924V2771.477z"/>
	<path d="M2416.502,2996.825c-8.534-3.331-14.357-8.325-17.478-14.981c-3.122-6.662-4.682-15.816-4.682-27.467
		c0-7.49,0.78-13.372,2.341-17.635c1.561-4.267,3.848-7.803,6.867-10.611c3.014-2.81,8.583-7.335,16.698-13.577
		c-2.292-1.453-4.009-4.004-5.15-7.646c-1.146-3.639-1.717-7.438-1.717-11.393c0-2.497,0.571-5.306,1.717-8.428
		c1.142-3.121,3.794-8.841,7.959-17.166c-17.897-5.198-26.842-21.014-26.842-47.441c0-17.684,4.262-30.792,12.797-39.327
		c8.529-8.529,22.472-12.796,41.823-12.796c10.192,0,20.805,1.355,31.836,4.057l43.696-0.936v10.924l-34.021,0.312
		c4.16,2.917,7.334,7.647,9.52,14.202c2.185,6.554,3.277,14.513,3.277,23.877c0,18.312-4.478,31.367-13.421,39.17
		c-8.949,7.803-23.306,11.704-43.072,11.704c-6.662,0-12.382-0.414-17.167-1.248l-2.497,6.242c-1.458,3.541-2.604,6.662-3.434,9.363
		c-0.834,2.707-1.249,5.307-1.249,7.803c0,6.243,2.234,10.407,6.71,12.485c4.472,2.082,11.08,3.121,19.819,3.121l21.536-0.313
		c11.236,0,20.39,1.146,27.466,3.434c7.072,2.292,12.534,6.506,16.387,12.641c3.848,6.135,5.774,15.03,5.774,26.686
		c0,11.651-2.083,21.068-6.243,28.247c-4.165,7.179-11.187,12.587-21.067,16.229c-9.886,3.639-23.462,5.462-40.731,5.462
		C2437.517,3001.818,2425.032,3000.15,2416.502,2996.825z M2488.601,2988.242c7.905-2.604,13.577-6.867,17.01-12.797
		c3.434-5.931,5.15-14.1,5.15-24.501c0-8.739-1.092-15.294-3.277-19.664c-2.185-4.369-6.398-7.49-12.641-9.363
		c-6.243-1.873-15.816-2.702-28.715-2.497l-37.454-1.248c-6.866,4.579-11.86,8.378-14.981,11.392
		c-3.121,3.015-5.306,6.292-6.555,9.832c-1.248,3.536-1.873,8.32-1.873,14.357c0,9.987,1.507,17.737,4.526,23.253
		c3.014,5.511,8.062,9.412,15.138,11.704c7.071,2.287,17.269,3.434,30.587,3.434
		C2469.665,2992.143,2480.691,2990.84,2488.601,2988.242z M2483.919,2852.471c6.447-6.136,9.675-17.011,9.675-32.616
		c0-15.396-3.175-26.164-9.52-32.305c-6.35-6.135-17.322-9.207-32.928-9.207c-16.025,0-27.364,3.175-34.021,9.52
		c-6.662,6.35-9.988,17.22-9.988,32.616c0,15.401,3.277,26.115,9.832,32.147c6.554,6.038,17.737,9.052,33.552,9.052
		C2466.333,2861.678,2477.467,2858.611,2483.919,2852.471z"/>
	<path d="M2745.466,2860.43h-104.247l-20.6,67.104h-10.612l66.793-218.481h10.3l1.873-1.561l-0.624,1.561h9.987l-0.624-1.561
		l1.873,1.561h10.3l66.792,218.481h-10.612L2745.466,2860.43z M2742.032,2849.505l-0.624-2.185l0.312,0.313l-40.263-127.968h-16.229
		l-39.951,127.655l-0.624,2.185H2742.032z"/>
	<path d="M2810.384,2771.477h10.612v12.484c10.612-5.618,20.336-9.568,29.183-11.86c8.842-2.287,17.947-3.434,27.311-3.434
		c13.523,0,23.77,2.292,30.743,6.867c6.969,4.579,11.86,12.382,14.67,23.408c2.809,11.031,4.213,26.949,4.213,47.754v80.838h-10.611
		v-80.838c0-17.894-0.99-31.626-2.965-41.199c-1.98-9.568-5.618-16.436-10.924-20.6c-5.306-4.16-13.06-6.242-23.252-6.242
		c-9.364,0-18.883,1.248-28.559,3.745s-17.01,5.101-22.004,7.803l-7.49,4.058v133.273h-10.924V2771.477z"/>
	<path d="M2990.471,2996.825c-8.535-3.331-14.357-8.325-17.479-14.981c-3.121-6.662-4.682-15.816-4.682-27.467
		c0-7.49,0.78-13.372,2.341-17.635c1.561-4.267,3.848-7.803,6.866-10.611c3.014-2.81,8.583-7.335,16.698-13.577
		c-2.292-1.453-4.009-4.004-5.149-7.646c-1.146-3.639-1.717-7.438-1.717-11.393c0-2.497,0.57-5.306,1.717-8.428
		c1.141-3.121,3.794-8.841,7.958-17.166c-17.898-5.198-26.842-21.014-26.842-47.441c0-17.684,4.262-30.792,12.796-39.327
		c8.53-8.529,22.473-12.796,41.824-12.796c10.193,0,20.805,1.355,31.836,4.057l43.696-0.936v10.924l-34.021,0.312
		c4.16,2.917,7.334,7.647,9.52,14.202c2.185,6.554,3.277,14.513,3.277,23.877c0,18.312-4.477,31.367-13.421,39.17
		c-8.949,7.803-23.306,11.704-43.072,11.704c-6.661,0-12.382-0.414-17.166-1.248l-2.497,6.242c-1.458,3.541-2.604,6.662-3.433,9.363
		c-0.834,2.707-1.249,5.307-1.249,7.803c0,6.243,2.233,10.407,6.71,12.485c4.472,2.082,11.08,3.121,19.819,3.121l21.536-0.313
		c11.236,0,20.39,1.146,27.466,3.434c7.071,2.292,12.533,6.506,16.386,12.641c3.848,6.135,5.774,15.03,5.774,26.686
		c0,11.651-2.083,21.068-6.242,28.247c-4.165,7.179-11.188,12.587-21.068,16.229c-9.885,3.639-23.462,5.462-40.731,5.462
		C3011.485,3001.818,2999,3000.15,2990.471,2996.825z M3062.569,2988.242c7.905-2.604,13.577-6.867,17.01-12.797
		c3.433-5.931,5.15-14.1,5.15-24.501c0-8.739-1.092-15.294-3.277-19.664c-2.185-4.369-6.398-7.49-12.641-9.363
		c-6.242-1.873-15.815-2.702-28.715-2.497l-37.454-1.248c-6.867,4.579-11.86,8.378-14.981,11.392
		c-3.122,3.015-5.306,6.292-6.554,9.832c-1.249,3.536-1.873,8.32-1.873,14.357c0,9.987,1.507,17.737,4.525,23.253
		c3.014,5.511,8.062,9.412,15.138,11.704c7.071,2.287,17.269,3.434,30.588,3.434
		C3043.633,2992.143,3054.659,2990.84,3062.569,2988.242z M3057.888,2852.471c6.447-6.136,9.675-17.011,9.675-32.616
		c0-15.396-3.175-26.164-9.52-32.305c-6.349-6.135-17.322-9.207-32.928-9.207c-16.025,0-27.363,3.175-34.021,9.52
		c-6.662,6.35-9.987,17.22-9.987,32.616c0,15.401,3.277,26.115,9.831,32.147c6.555,6.038,17.737,9.052,33.553,9.052
		C3040.302,2861.678,3051.436,2858.611,3057.888,2852.471z"/>
	<path d="M3147.774,2923.633c-6.866-4.472-11.655-12.173-14.357-23.097c-2.707-10.924-4.058-26.891-4.058-47.91v-81.149h10.924
		v80.214c0,18.521,0.985,32.567,2.965,42.135c1.975,9.573,5.667,16.387,11.08,20.444c5.408,4.058,13.421,6.086,24.033,6.086
		c9.988,0,19.507-1.404,28.559-4.214c9.052-2.809,17.323-6.603,24.813-11.392v-133.273h11.236v156.058h-11.548v-12.484
		c-8.115,5.203-16.284,9.051-24.501,11.548c-8.222,2.497-17.742,3.745-28.559,3.745
		C3164.833,2930.343,3154.641,2928.105,3147.774,2923.633z"/>
	<path d="M3293.842,2699.69h10.924v227.845h-10.924V2699.69z"/>
	<path d="M3356.729,2918.483c-7.179-7.905-10.768-18.829-10.768-32.771c0-13.938,3.482-24.604,10.456-31.992
		c6.969-7.384,17.946-12.119,32.928-14.201l59.302-5.931v-15.918c0-12.898-2.706-22.521-8.114-28.87
		c-5.414-6.345-12.797-9.52-22.16-9.52c-9.159,0-17.221,0.312-24.189,0.937c-6.975,0.624-20.029,2.082-39.171,4.369l-0.936-10.3
		c21.638-3.745,41.301-5.618,58.99-5.618c16.021,0,27.827,4.009,35.426,12.017c7.592,8.013,11.392,20.341,11.392,36.985v89.89
		c0.204,3.121,2.39,5.882,6.554,8.271c4.16,2.395,9.676,4.009,16.543,4.838l-0.625,9.675c-6.865,0-13.264-1.248-19.194-3.745
		s-10.251-5.822-12.953-9.987c-20.81,9.158-41.823,13.732-63.048,13.732C3374.052,2930.343,3363.908,2926.393,3356.729,2918.483z
		 M3439.908,2910.68l8.739-3.433v-63.36l-58.054,5.618c-11.445,0.834-19.717,4.009-24.813,9.52
		c-5.101,5.516-7.647,13.787-7.647,24.813c0,24.141,9.778,36.205,29.339,36.205
		C3405.576,2920.043,3423.055,2916.922,3439.908,2910.68z"/>
	<path d="M3510.131,2771.477h10.611v24.345c18.103-13.523,38.805-22.677,62.111-27.466v11.235
		c-8.739,1.668-18.571,4.789-29.495,9.364c-10.925,4.579-18.679,8.637-23.253,12.172l-9.051,5.307v121.101h-10.924V2771.477z"/>
	<path d="M3682.256,2918.483c-7.178-7.905-10.768-18.829-10.768-32.771c0-13.938,3.482-24.604,10.456-31.992
		c6.969-7.384,17.946-12.119,32.929-14.201l59.301-5.931v-15.918c0-12.898-2.706-22.521-8.114-28.87
		c-5.413-6.345-12.797-9.52-22.16-9.52c-9.159,0-17.22,0.312-24.189,0.937c-6.974,0.624-20.028,2.082-39.171,4.369l-0.936-10.3
		c21.639-3.745,41.301-5.618,58.99-5.618c16.02,0,27.826,4.009,35.425,12.017c7.593,8.013,11.392,20.341,11.392,36.985v89.89
		c0.205,3.121,2.391,5.882,6.555,8.271c4.16,2.395,9.676,4.009,16.543,4.838l-0.625,9.675c-6.866,0-13.265-1.248-19.195-3.745
		c-5.93-2.497-10.251-5.822-12.953-9.987c-20.809,9.158-41.822,13.732-63.047,13.732
		C3699.578,2930.343,3689.436,2926.393,3682.256,2918.483z M3765.436,2910.68l8.738-3.433v-63.36l-58.053,5.618
		c-11.446,0.834-19.717,4.009-24.813,9.52c-5.101,5.516-7.647,13.787-7.647,24.813c0,24.141,9.779,36.205,29.34,36.205
		C3731.103,2920.043,3748.581,2916.922,3765.436,2910.68z"/>
	<path d="M3835.658,2771.477h10.611v12.484c10.611-5.618,20.336-9.568,29.184-11.86c8.841-2.287,17.945-3.434,27.31-3.434
		c13.523,0,23.77,2.292,30.743,6.867c6.969,4.579,11.86,12.382,14.67,23.408c2.809,11.031,4.213,26.949,4.213,47.754v80.838h-10.611
		v-80.838c0-17.894-0.99-31.626-2.965-41.199c-1.98-9.568-5.619-16.436-10.925-20.6c-5.306-4.16-13.06-6.242-23.253-6.242
		c-9.363,0-18.883,1.248-28.559,3.745s-17.01,5.101-22.004,7.803l-7.49,4.058v133.273h-10.924V2771.477z"/>
	<path d="M4005.444,2911.46c-8.115-12.587-12.173-32.196-12.173-58.834c0-20.18,2.234-36.361,6.711-48.533
		c4.472-12.173,11.704-21.117,21.691-26.843c9.988-5.72,23.409-8.583,40.264-8.583c6.242,0,12.898,0.366,19.975,1.093
		c7.072,0.731,13.212,1.717,18.416,2.965v-73.035h10.611v227.845h-10.611v-13.421c-16.44,10.821-34.441,16.229-53.996,16.229
		C4027.186,2930.343,4013.559,2924.052,4005.444,2911.46z M4072.705,2916.298c9.051-2.701,15.762-5.408,20.131-8.115l7.492-4.058
		v-121.413c-15.191-2.911-28.613-4.369-40.264-4.369c-13.943,0-24.92,2.551-32.928,7.646c-8.014,5.102-13.685,12.797-17.011,23.097
		c-3.331,10.3-4.994,23.984-4.994,41.044c0,23.306,3.122,40.838,9.364,52.591c6.242,11.758,17.059,17.635,32.459,17.635
		C4055.07,2920.356,4063.654,2919.005,4072.705,2916.298z"/>
	<path d="M4233.594,2709.053h78.341c21.849,0,38.127,5.048,48.847,15.138c10.714,10.096,16.074,25.96,16.074,47.598
		c0,37.249-15.09,58.474-45.258,63.672l49.002,92.074h-12.797l-48.377-90.514h-74.283v90.514h-11.549V2709.053z M4311.935,2826.409
		c17.894,0,31.261-4.315,40.106-12.952c8.842-8.632,13.266-22.106,13.266-40.419c0-18.308-4.32-31.729-12.953-40.264
		c-8.637-8.529-22.111-12.796-40.419-12.796h-66.792v106.431H4311.935z"/>
	<path d="M4425.544,2911.773c-9.363-12.378-14.045-31.68-14.045-57.897c0-29.129,5.042-50.611,15.138-64.452
		c10.09-13.836,26.062-20.756,47.91-20.756c19.975,0,34.746,6.038,44.32,18.103c9.568,12.07,14.357,31.007,14.357,56.806v10.3
		h-110.49c-0.209,16.439,1.352,29.393,4.682,38.858c3.326,9.471,8.945,16.439,16.855,20.912c7.904,4.477,19.039,6.71,33.396,6.71
		c5.408,0,11.807-0.205,19.194-0.624c7.384-0.415,14.406-0.829,21.067-1.249l9.364-0.936l0.624,10.3
		c-25.389,1.663-43.281,2.496-53.684,2.496C4451.138,2930.343,4434.908,2924.155,4425.544,2911.773z M4521.676,2843.887
		c0-23.096-3.746-39.741-11.236-49.938c-7.49-10.192-19.352-15.293-35.581-15.293c-17.274,0-30.275,5.306-39.015,15.918
		c-8.739,10.611-13.216,27.051-13.421,49.313H4521.676z"/>
	<path d="M4575.203,2918.483c-7.179-7.905-10.768-18.829-10.768-32.771c0-13.938,3.481-24.604,10.455-31.992
		c6.969-7.384,17.947-12.119,32.929-14.201l59.302-5.931v-15.918c0-12.898-2.707-22.521-8.115-28.87
		c-5.413-6.345-12.797-9.52-22.16-9.52c-9.158,0-17.22,0.312-24.189,0.937c-6.973,0.624-20.028,2.082-39.17,4.369l-0.936-10.3
		c21.638-3.745,41.301-5.618,58.989-5.618c16.021,0,27.827,4.009,35.425,12.017c7.594,8.013,11.393,20.341,11.393,36.985v89.89
		c0.205,3.121,2.39,5.882,6.555,8.271c4.16,2.395,9.676,4.009,16.542,4.838l-0.624,9.675c-6.867,0-13.266-1.248-19.195-3.745
		s-10.252-5.822-12.953-9.987c-20.809,9.158-41.823,13.732-63.047,13.732C4592.525,2930.343,4582.382,2926.393,4575.203,2918.483z
		 M4658.382,2910.68l8.739-3.433v-63.36l-58.053,5.618c-11.447,0.834-19.718,4.009-24.814,9.52
		c-5.101,5.516-7.646,13.787-7.646,24.813c0,24.141,9.778,36.205,29.339,36.205
		C4624.049,2920.043,4641.527,2916.922,4658.382,2910.68z"/>
	<path d="M4746.863,2922.073c-8.847-5.511-15.089-14.094-18.727-25.75c-3.644-11.65-5.463-27.568-5.463-47.753
		c0-14.563,0.985-27.311,2.965-38.234c1.976-10.925,7.18-20.648,15.606-29.184c8.427-8.529,21.272-12.796,38.546-12.796
		c6.867,0,13.266,0.209,19.195,0.624c5.931,0.419,14.406,1.458,25.438,3.121l-0.936,9.676c-15.816-2.078-28.613-3.121-38.391-3.121
		c-13.109,0-23.307,2.185-30.588,6.554c-7.285,4.37-12.484,11.705-15.605,22.005s-4.682,24.813-4.682,43.54
		c0,17.479,1.453,31.162,4.369,41.043c2.912,9.886,8.164,17.117,15.762,21.692c7.594,4.579,18.464,6.866,32.617,6.866l37.141-3.121
		l0.625,9.987c-19.352,2.078-32.772,3.121-40.264,3.121C4768.243,2930.343,4755.705,2927.583,4746.863,2922.073z"/>
	<path d="M4887.155,2925.818c-5.413-3.224-9.315-8.788-11.704-16.698c-2.395-7.905-3.59-19.244-3.59-34.021v-93.635h-24.657v-9.987
		h24.657v-50.563h10.612v50.563h57.117v9.987h-57.117v81.774c0,15.815,0.57,27.52,1.716,35.113
		c1.142,7.598,3.692,13.265,7.647,17.01c3.95,3.746,10.402,5.618,19.351,5.618l30.275-2.809l1.561,9.987
		c-17.063,1.663-28.197,2.497-33.396,2.497C4900.055,2930.656,4892.563,2929.042,4887.155,2925.818z"/>
</g>
</svg>
