<?xml version="1.0" encoding="utf-8"?>
<!-- Generator: Adobe Illustrator 16.0.0, SVG Export Plug-In . SVG Version: 6.00 Build 0)  -->
<!DOCTYPE svg PUBLIC "-//W3C//DTD SVG 1.1//EN" "http://www.w3.org/Graphics/SVG/1.1/DTD/svg11.dtd">
<svg version="1.1" id="Layer_1" xmlns="http://www.w3.org/2000/svg" xmlns:xlink="http://www.w3.org/1999/xlink" x="0px" y="0px"
	 width="4450.971px" height="6106.12px" viewBox="0 0 4450.971 6106.12" enable-background="new 0 0 4450.971 6106.12"
	 xml:space="preserve">
<g>
	<g>
		<g>
			<path fill="#121312" d="M2242.937,3060.437c0-404.482-327.897-732.376-732.375-732.376c-404.474,0-732.37,327.894-732.37,732.376
				c0,404.471,327.896,732.364,732.37,732.364C1915.039,3792.801,2242.937,3464.907,2242.937,3060.437z"/>
			<g>
				<path fill="#FFFFFF" d="M2037.045,3060.276c0,80.67-0.026,161.351,0.005,242.025c0.01,35.994-15.44,63.481-46.578,81.112
					c-144.563,81.849-289.241,163.458-434.061,244.85c-30.642,17.21-62.202,16.801-92.729-0.511
					c-48.77-27.652-97.158-55.98-145.657-84.131c-4.56-2.634-11.194-4.881-10.798-10.885c0.415-6.436,7.719-6.606,12.576-8.236
					c18.938-6.37,37.508-13.703,54.452-24.296c8.757-5.474,15.76-4.345,24.101,0.62c32.488,19.301,65.428,37.851,97.86,57.242
					c9.625,5.753,17.625,6.225,27.668,0.532c140.198-79.407,280.534-158.588,421.057-237.427
					c10.519-5.904,14.427-12.941,14.406-24.773c-0.281-157.61-0.281-315.215,0-472.83c0.021-11.84-3.973-18.935-14.431-24.802
					c-140.529-78.841-280.891-157.997-421.144-237.333c-9.445-5.352-17.129-5.286-26.568,0.06
					c-140.968,79.773-282.055,159.311-423.231,238.701c-8.698,4.892-12.193,11.142-12.178,21.014
					c0.186,159.269,0.191,318.538-0.015,477.808c0,9.996,3.782,15.996,12.459,20.781c36.737,20.259,73.157,41.059,109.728,61.615
					c16.578,9.324,34.197,15.053,53.439,14.35c29.39-1.077,50.846-20.825,54.332-49.998c0.697-5.752,0.827-11.611,0.827-17.414
					c0.051-153.868,0.036-307.73,0.046-461.6c0-21.137,1.335-22.436,22.797-22.45c14.141-0.005,28.281,0.05,42.415-0.01
					c10.357-0.04,15.257,5.267,15.303,15.369c0.051,11.646,0.015,23.293,0.015,34.935c0.011,145.553-0.02,291.104,0.04,436.648
					c0.006,16.662-0.758,33.205-4.399,49.547c-12.364,55.521-52.27,88.446-108.833,92.684
					c-43.193,3.236-82.333-7.974-119.456-28.159c-36.474-19.837-72.484-40.553-108.588-61.063
					c-32.086-18.227-47.926-45.855-47.901-82.881c0.101-160.926,0.096-321.866,0-482.801c-0.014-37.047,15.936-64.654,48.036-82.797
					c142.443-80.505,284.983-160.864,427.435-241.371c34.008-19.21,67.77-19.421,101.833-0.16
					c142.453,80.496,284.979,160.87,427.419,241.376c32.534,18.388,48.52,46.302,48.399,83.881
					C2036.864,2899.758,2037.045,2980.016,2037.045,3060.276"/>
				<path fill="#FFFFFF" d="M1646.743,3302.577c-49.989-1.017-95.056-4.444-137.847-21.537
					c-58.43-23.334-91.771-65.076-94.289-129.305c-0.54-13.93,3.05-18.363,16.659-18.533c16.206-0.186,32.432,0.209,48.633-0.131
					c10.132-0.221,15.66,4.058,16.683,14.168c0.205,2.059,0.95,4.04,1.31,6.091c5.879,34.304,25.803,56.711,59.318,64.66
					c56.153,13.328,112.898,13.993,169.085,0.315c32.663-7.943,47.962-27.813,49.07-56.223c0.728-18.744-7.553-30.793-23.966-38.297
					c-21.001-9.601-43.478-13.643-65.998-17.37c-47.496-7.874-95.956-8.843-143.019-19.862c-15.389-3.602-30.3-8.456-45.017-14.235
					c-88.792-34.825-80.525-144.669-35.539-188.15c25.757-24.899,56.721-38.913,91.139-45.47
					c63.792-12.153,127.443-11.412,189.696,8.377c61.575,19.566,96.661,65.472,101.833,129.475
					c0.887,11.029-4.109,16.814-14.741,17.039c-17.452,0.387-34.927,0.186-52.386,0.055c-6.882-0.051-12.807-3.02-14.141-9.956
					c-10.303-53.529-47.566-72.635-96.867-75.976c-32.773-2.222-65.684-3.451-98.016,4.183
					c-23.333,5.508-44.766,14.146-51.161,41.101c-5.763,24.317,1.349,38.496,24.677,46.948
					c30.662,11.122,62.99,14.472,95.002,19.122c45.156,6.566,90.696,11.025,134.545,24.709c3.171,0.988,6.37,1.895,9.495,2.998
					c40.821,14.41,72.109,37.971,78.915,84.105c7.761,52.572-5.893,97.314-49.932,129.893
					c-30.546,22.592-66.185,32.031-103.062,37.584C1685.411,3301.585,1663.772,3301.806,1646.743,3302.577"/>
			</g>
		</g>
		<g>
			<path fill="none" stroke="#121312" stroke-width="52" stroke-miterlimit="10" d="M2242.937,4578.559
				c0-404.482-327.896-732.376-732.375-732.376c-404.474,0-732.37,327.894-732.37,732.376c0,404.47,327.896,732.364,732.37,732.364
				C1915.041,5310.923,2242.937,4983.028,2242.937,4578.559z"/>
		</g>
		<g>
			<g>
				<path fill="#121312" d="M3056.798,2380.061c91.873,0,180.971,17.981,264.817,53.446c40.304,17.047,79.181,38.149,115.551,62.72
					c36.039,24.347,69.929,52.309,100.73,83.11c30.801,30.801,58.764,64.691,83.11,100.73
					c24.571,36.371,45.674,75.248,62.722,115.551c35.464,83.847,53.445,172.944,53.445,264.818
					c0,91.87-17.981,180.966-53.445,264.811c-17.048,40.303-38.15,79.18-62.721,115.549
					c-24.348,36.038-52.311,69.928-83.111,100.729c-30.801,30.801-64.691,58.763-100.73,83.109
					c-36.37,24.571-75.247,45.673-115.551,62.72c-83.848,35.465-172.944,53.446-264.817,53.446
					c-91.871,0-180.968-17.981-264.813-53.446c-40.303-17.047-79.18-38.148-115.551-62.72
					c-36.037-24.347-69.928-52.309-100.729-83.109c-30.802-30.802-58.764-64.691-83.111-100.729
					c-24.57-36.369-45.674-75.246-62.721-115.549c-35.464-83.845-53.445-172.94-53.445-264.811
					c0-91.874,17.981-180.972,53.445-264.818c17.048-40.304,38.15-79.181,62.721-115.552c24.348-36.038,52.31-69.928,83.111-100.729
					c30.801-30.801,64.691-58.764,100.729-83.11c36.37-24.571,75.247-45.673,115.55-62.72
					C2875.83,2398.042,2964.927,2380.061,3056.798,2380.061 M3056.798,2328.061c-404.474,0-732.37,327.893-732.37,732.376
					c0,404.47,327.896,732.364,732.37,732.364c404.479,0,732.376-327.895,732.376-732.364
					C3789.174,2655.953,3461.277,2328.061,3056.798,2328.061L3056.798,2328.061z"/>
			</g>
		</g>
		<g>
			<path fill="#121312" d="M3789.174,4578.559c0-404.482-327.896-732.376-732.376-732.376c-404.474,0-732.37,327.894-732.37,732.376
				c0,404.47,327.896,732.364,732.37,732.364C3461.277,5310.923,3789.174,4983.028,3789.174,4578.559z"/>
			<g>
				<path fill="#FFFFFF" d="M2507.455,4389.499h193.568c56.828,0.492,97.99,16.773,123.514,48.895
					c25.517,32.092,33.949,75.94,25.281,131.507c-3.371,25.406-10.833,50.31-22.391,74.763
					c-11.082,24.427-26.484,46.471-46.227,66.129c-24.078,24.894-49.842,40.709-77.285,47.415
					c-27.447,6.717-55.857,10.078-85.228,10.078h-86.673l-27.444,136.558h-100.397l103.287-515.344 M2591.965,4471.433
					l-43.334,215.635c2.887,0.476,5.778,0.712,8.665,0.712h10.112c46.224,0.477,84.742-4.069,115.564-13.659
					c30.812-10.053,51.519-45.043,62.115-104.938c8.663-50.304,0-79.295-26.005-86.961c-25.518-7.664-57.542-11.266-96.062-10.789
					c-5.777,0.496-11.313,0.729-16.612,0.729h-15.163L2591.965,4471.433"/>
				<path fill="#FFFFFF" d="M2964.213,4252.265h99.671l-28.172,137.279h89.563c49.112,0.958,85.711,11.03,109.782,30.191
					c24.559,19.15,31.784,55.581,21.677,109.246l-48.4,239.337h-101.113l46.222-228.554c4.812-23.966,3.376-40.975-4.335-51.035
					c-7.701-10.058-24.316-15.104-49.835-15.104l-80.173-0.702l-59.225,295.396h-99.674L2964.213,4252.265"/>
				<path fill="#FFFFFF" d="M3363.773,4389.499h193.571c56.815,0.492,97.989,16.773,123.507,48.895
					c25.52,32.092,33.951,75.94,25.273,131.507c-3.365,25.406-10.826,50.31-22.381,74.763
					c-11.08,24.427-26.488,46.471-46.229,66.129c-24.073,24.894-49.838,40.709-77.279,47.415
					c-27.45,6.717-55.854,10.078-85.233,10.078h-86.676l-27.438,136.558h-100.401L3363.773,4389.499 M3448.284,4471.433
					l-43.341,215.635c2.887,0.476,5.779,0.712,8.673,0.712h10.106c46.225,0.477,84.752-4.069,115.566-13.659
					c30.815-10.053,51.521-45.043,62.117-104.938c8.665-50.304,0-79.295-26.008-86.961c-25.518-7.664-57.539-11.266-96.063-10.789
					c-5.778,0.496-11.311,0.729-16.605,0.729h-15.166L3448.284,4471.433"/>
			</g>
			<path fill="#8099CE" d="M2753.111,4750.097"/>
		</g>
	</g>
	<g opacity="0.8">
		<g>
			
				<line fill="none" stroke="#121312" stroke-width="58" stroke-miterlimit="10" x1="496.333" y1="2047.785" x2="3954.637" y2="2047.785"/>
			<g>
				<path fill="#121312" d="M502.439,2169.902c-67.434,0-122.117-54.683-122.117-122.117s54.683-122.117,122.117-122.117
					s122.117,54.683,122.117,122.117S569.874,2169.902,502.439,2169.902z"/>
			</g>
			<g>
				<path fill="#121312" d="M3948.531,2169.902c67.434,0,122.117-54.683,122.117-122.117s-54.684-122.117-122.117-122.117
					s-122.117,54.683-122.117,122.117S3881.098,2169.902,3948.531,2169.902z"/>
			</g>
		</g>
	</g>
	<g>
		<path fill="#231F20" d="M539.944,813.081h93.271c26.013,0,45.273,5.388,57.786,16.166c12.506,10.777,18.765,27.563,18.765,50.352
			c0,15.113-2.729,27.19-8.174,36.232c-5.453,9.045-13.751,16.291-24.898,21.738c13.871,4.957,24.154,12.389,30.844,22.295
			c6.689,9.91,10.032,23.289,10.032,40.133c0,24.283-6.753,42.056-20.253,53.326c-13.504,11.276-33.258,16.907-59.27,16.907h-98.103
			V813.081z M634.702,927.165c15.608,0,27.128-3.776,34.559-11.334c7.433-7.555,11.147-18.889,11.147-34.004
			c0-15.356-3.844-26.441-11.52-33.258c-7.681-6.812-19.943-10.219-36.787-10.219h-63.544v88.814H634.702z M636.933,1044.961
			c16.843,0,29.664-3.587,38.46-10.777c8.791-7.182,13.192-18.823,13.192-34.931c0-17.336-4.831-29.542-14.494-36.601
			c-9.661-7.061-22.667-10.592-39.018-10.592h-66.516v92.9H636.933z"/>
		<path fill="#231F20" d="M765.505,1059.454c-8.917-9.661-13.378-23.531-13.378-41.62c0-17.837,4.519-31.087,13.563-39.76
			c9.042-8.671,23.469-13.994,43.293-15.979l58.341-5.574v-15.98c0-23.533-10.16-35.302-30.471-35.302
			c-20.068,0-44.47,1.614-73.207,4.833l-1.113-21.184c26.504-5.445,50.659-8.174,72.461-8.174c21.055,0,36.354,4.773,45.893,14.306
			c9.535,9.539,14.308,24.712,14.308,45.521v95.131c0.744,9.168,7.927,14.62,21.553,16.35l-1.115,21.925
			c-19.572,0-34.315-4.952-44.22-14.862c-22.053,9.91-44.349,14.862-66.89,14.862
			C787.429,1073.945,774.425,1069.116,765.505,1059.454z M858.777,1041.989l8.547-2.975v-61.313l-54.997,5.202
			c-11.148,0.993-19.201,4.216-24.154,9.661c-4.959,5.453-7.431,13.378-7.431,23.782c0,22.797,9.41,34.188,28.241,34.188
			C825.577,1050.535,842.177,1047.69,858.777,1041.989z"/>
		<path fill="#231F20" d="M972.856,1064.099c-10.902-6.561-18.707-16.844-23.409-30.843c-4.711-13.992-7.061-32.637-7.061-55.926
			c0-29.479,4.952-53.011,14.863-70.604c9.906-17.587,29.105-26.383,57.598-26.383c7.433,0,15.109,0.371,23.039,1.114
			c7.926,0.742,18.703,2.356,32.331,4.831l-1.115,22.667c-19.574-2.229-34.559-3.346-44.964-3.346
			c-14.121,0-24.962,2.173-32.517,6.503c-7.559,4.338-12.883,11.649-15.978,21.925c-3.101,10.284-4.646,24.962-4.646,44.037
			c0,18.087,1.487,32.142,4.459,42.177c2.975,10.033,8.362,17.342,16.164,21.925c7.805,4.587,19.139,6.874,34.002,6.874l43.85-3.346
			l1.116,23.039c-23.783,3.469-41.62,5.202-53.512,5.202C998.498,1073.945,983.756,1070.659,972.856,1064.099z"/>
		<path fill="#231F20" d="M1112.203,803.42h27.871V960.98l28.985-1.487l53.137-75.064h31.587l-60.571,85.469l63.174,100.333h-31.587
			l-55.368-86.211l-29.356,1.114v85.097h-27.871V803.42z"/>
		<path fill="#231F20" d="M1294.849,1051.836c-11.77-14.737-17.652-37.962-17.652-69.676c0-34.43,6.318-59.951,18.953-76.551
			c12.633-16.594,32.45-24.896,59.454-24.896c24.771,0,43.293,7.124,55.557,21.367c12.263,14.248,18.395,36.11,18.395,65.587
			l-1.487,21.181h-122.629c0,15.364,1.673,27.377,5.017,36.047c3.344,8.674,9.041,14.927,17.094,18.766
			c8.048,3.845,19.26,5.761,33.63,5.761c7.182,0,15.479-0.187,24.897-0.558c9.413-0.372,17.959-0.93,25.642-1.673l10.775-1.116
			l0.744,21.925c-27.5,3.96-50.294,5.945-68.376,5.945C1326.619,1073.945,1306.611,1066.579,1294.849,1051.836z M1401.683,966.554
			c0-22.541-3.594-38.584-10.775-48.123c-7.188-9.533-18.953-14.305-35.304-14.305c-17.093,0-29.729,5.016-37.901,15.049
			c-8.177,10.031-12.392,25.827-12.635,47.379H1401.683z"/>
		<path fill="#231F20" d="M1473.026,884.429h27.5v13.008c11.148-6.189,21.366-10.529,30.656-13.008
			c9.291-2.474,19.01-3.715,29.17-3.715c15.853,0,28.116,2.971,36.79,8.917c8.67,5.945,14.801,15.421,18.395,28.428
			c3.587,13.007,5.388,31.03,5.388,54.069v98.103h-27.497v-97.358c0-17.588-1.058-31.088-3.16-40.506
			c-2.106-9.413-5.888-16.224-11.334-20.438c-5.452-4.209-13.378-6.318-23.783-6.318c-8.424,0-17.035,1.059-25.824,3.161
			c-8.799,2.106-15.922,4.521-21.369,7.246l-7.059,3.343v150.871h-27.872V884.429z"/>
		<path fill="#231F20" d="M1679.633,1051.093c-10.162-15.235-15.235-38.703-15.235-70.42c0-35.423,6.132-60.941,18.395-76.547
			c12.264-15.609,32.515-23.412,60.756-23.412c14.122,0,28.856,1.612,44.223,4.831V803.42h27.497v266.811h-27.497v-12.635
			c-19.081,10.905-38.277,16.35-57.602,16.35C1706.632,1073.945,1689.788,1066.329,1679.633,1051.093z M1758.784,1045.891
			c8.418-2.103,15.607-4.517,21.553-7.247l7.434-3.344V909.327c-16.107-2.974-30.101-4.461-41.992-4.461
			c-19.574,0-33.258,5.703-41.063,17.096c-7.805,11.396-11.705,30.227-11.705,56.483c0,24.032,3.157,41.806,9.475,53.324
			c6.317,11.521,17.279,17.28,32.889,17.28C1742.555,1049.05,1750.358,1047.999,1758.784,1045.891z"/>
		<path fill="#231F20" d="M2107.522,830.174c13.994,11.399,23.35,25.893,28.059,43.479c4.701,17.594,7.059,38.152,7.059,61.685
			c0,47.071-7.745,81.323-23.226,102.75c-15.484,21.431-39.453,32.143-71.903,32.143h-91.785V813.081h91.785
			C2073.521,813.081,2093.525,818.784,2107.522,830.174z M2113.282,937.94c0-34.68-5.327-59.949-15.978-75.808
			c-10.655-15.852-27.255-23.782-49.794-23.782h-63.172v206.61h63.172C2091.358,1044.961,2113.282,1009.286,2113.282,937.94z"/>
		<path fill="#231F20" d="M2200.05,1051.836c-11.771-14.737-17.651-37.962-17.651-69.676c0-34.43,6.317-59.951,18.952-76.551
			c12.633-16.594,32.45-24.896,59.454-24.896c24.77,0,43.291,7.124,55.559,21.367c12.258,14.248,18.393,36.11,18.393,65.587
			l-1.487,21.181H2210.64c0,15.364,1.673,27.377,5.017,36.047c3.343,8.674,9.041,14.927,17.094,18.766
			c8.048,3.845,19.26,5.761,33.631,5.761c7.178,0,15.48-0.187,24.898-0.558c9.408-0.372,17.959-0.93,25.642-1.673l10.771-1.116
			l0.744,21.925c-27.501,3.96-50.292,5.945-68.375,5.945C2231.82,1073.945,2211.813,1066.579,2200.05,1051.836z M2306.884,966.554
			c0-22.541-3.593-38.584-10.776-48.123c-7.187-9.533-18.955-14.305-35.303-14.305c-17.093,0-29.728,5.016-37.902,15.049
			c-8.175,10.031-12.392,25.827-12.635,47.379H2306.884z"/>
		<path fill="#231F20" d="M2357.795,884.429h29.727l43.48,161.646h13.745l44.964-161.646h28.615l-52.398,185.802h-55.739
			L2357.795,884.429z"/>
		<path fill="#231F20" d="M2560.13,1051.836c-11.772-14.737-17.649-37.962-17.649-69.676c0-34.43,6.315-59.951,18.95-76.551
			c12.631-16.594,32.448-24.896,59.452-24.896c24.774,0,43.296,7.124,55.559,21.367c12.264,14.248,18.393,36.11,18.393,65.587
			l-1.487,21.181h-122.626c0,15.364,1.672,27.377,5.014,36.047c3.346,8.674,9.045,14.927,17.096,18.766
			c8.05,3.845,19.26,5.761,33.629,5.761c7.184,0,15.481-0.187,24.898-0.558c9.413-0.372,17.959-0.93,25.642-1.673l10.776-1.116
			l0.743,21.925c-27.499,3.96-50.296,5.945-68.379,5.945C2591.9,1073.945,2571.893,1066.579,2560.13,1051.836z M2666.963,966.554
			c0-22.541-3.594-38.584-10.773-48.123c-7.186-9.533-18.953-14.305-35.307-14.305c-17.091,0-29.726,5.016-37.899,15.049
			c-8.179,10.031-12.392,25.827-12.635,47.379H2666.963z"/>
		<path fill="#231F20" d="M2740.54,803.42h27.869v266.811h-27.869V803.42z"/>
		<path fill="#231F20" d="M2846.072,1064.099c-11.648-6.561-19.946-16.779-24.898-30.656c-4.956-13.871-7.435-32.201-7.435-54.997
			c0-23.533,2.602-42.421,7.807-56.669c5.204-14.244,13.621-24.647,25.27-31.216c11.639-6.561,27.124-9.847,46.45-9.847
			c19.565,0,35.112,3.344,46.636,10.033c11.516,6.689,19.88,17.094,25.084,31.215c5.2,14.119,7.799,32.95,7.799,56.483
			c0,22.796-2.479,41.126-7.427,54.997c-4.961,13.877-13.196,24.096-24.712,30.656c-11.524,6.561-27.314,9.847-47.38,9.847
			C2873.438,1073.945,2857.711,1070.659,2846.072,1064.099z M2924.851,1042.919c7.183-4.582,12.201-11.893,15.051-21.928
			c2.842-10.031,4.271-24.211,4.271-42.546c0-19.324-1.481-34.188-4.456-44.595c-2.974-10.404-8.055-17.834-15.236-22.295
			c-7.192-4.459-17.468-6.689-30.842-6.689c-13.383,0-23.73,2.23-31.032,6.689c-7.312,4.461-12.511,11.891-15.604,22.295
			c-3.102,10.407-4.646,25.271-4.646,44.595c0,18.087,1.425,32.207,4.275,42.363c2.841,10.161,7.921,17.528,15.232,22.11
			c7.307,4.587,17.896,6.874,31.775,6.874C2907.259,1049.793,2917.659,1047.506,2924.851,1042.919z"/>
		<path fill="#231F20" d="M3018.118,884.429h27.501v13.379c9.665-5.696,19.012-9.97,28.058-12.82
			c9.037-2.846,18.64-4.273,28.801-4.273c23.04,0,39.816,7.616,50.35,22.854c10.528,15.233,15.795,39.452,15.795,72.646
			c0,23.541-2.73,42.429-8.178,56.669c-5.453,14.251-14.118,24.655-26.014,31.216c-11.888,6.561-27.867,9.847-47.934,9.847
			c-13.879,0-27.381-1.362-40.506-4.086v82.867h-27.873V884.429z M3128.115,1032.698c8.174-11.392,12.263-29.852,12.263-55.368
			c0-25.27-3.531-43.537-10.59-54.813c-7.06-11.269-17.777-16.907-32.143-16.907c-7.188,0-14.932,1.18-23.226,3.532
			c-8.302,2.355-15.423,4.895-21.366,7.616l-7.063,3.718v125.229c18.33,2.73,31.96,4.089,40.878,4.089
			C3106.191,1049.793,3119.94,1044.096,3128.115,1032.698z"/>
		<path fill="#231F20" d="M3213.957,884.429h27.5v13.008c18.578-11.148,37.157-16.723,55.735-16.723
			c10.156,0,19.326,1.549,27.5,4.645c8.178,3.1,14.613,7.866,19.322,14.306c9.165-5.446,19.941-9.968,32.332-13.562
			c12.383-3.59,25.018-5.389,37.9-5.389c15.108,0,26.881,3.036,35.307,9.104c8.418,6.074,14.428,15.671,18.021,28.8
			c3.584,13.135,5.39,30.972,5.39,53.511v98.103h-27.871v-97.358c0-17.588-0.992-31.088-2.975-40.506
			c-1.982-9.413-5.638-16.224-10.962-20.438c-5.333-4.209-13.192-6.318-23.597-6.318c-8.422,0-16.972,1.059-25.642,3.161
			c-8.674,2.106-15.732,4.521-21.181,7.246l-7.059,3.343c3.213,7.931,4.828,26.013,4.828,54.255v96.616h-27.867v-95.873
			c0-18.329-0.992-32.265-2.975-41.805c-1.987-9.535-5.575-16.41-10.775-20.625c-5.2-4.209-13.007-6.318-23.411-6.318
			c-8.174,0-16.477,1.059-24.898,3.161c-8.422,2.106-15.237,4.521-20.438,7.246l-6.314,3.343v150.871h-27.872V884.429z"/>
		<path fill="#231F20" d="M3534.091,1051.836c-11.771-14.737-17.649-37.962-17.649-69.676c0-34.43,6.315-59.951,18.95-76.551
			c12.635-16.594,32.452-24.896,59.457-24.896c24.77,0,43.29,7.124,55.554,21.367c12.263,14.248,18.392,36.11,18.392,65.587
			l-1.486,21.181h-122.627c0,15.364,1.673,27.377,5.019,36.047c3.341,8.674,9.037,14.927,17.092,18.766
			c8.046,3.845,19.26,5.761,33.63,5.761c7.182,0,15.479-0.187,24.897-0.558c9.413-0.372,17.958-0.93,25.642-1.673l10.776-1.116
			l0.743,21.925c-27.5,3.96-50.296,5.945-68.374,5.945C3565.861,1073.945,3545.854,1066.579,3534.091,1051.836z M3640.927,966.554
			c0-22.541-3.594-38.584-10.775-48.123c-7.192-9.533-18.955-14.305-35.303-14.305c-17.096,0-29.73,5.016-37.904,15.049
			c-8.175,10.031-12.393,25.827-12.635,47.379H3640.927z"/>
		<path fill="#231F20" d="M3712.271,884.429h27.496v13.008c11.148-6.189,21.366-10.529,30.66-13.008
			c9.289-2.474,19.008-3.715,29.169-3.715c15.852,0,28.115,2.971,36.789,8.917c8.67,5.945,14.799,15.421,18.393,28.428
			c3.589,13.007,5.391,31.03,5.391,54.069v98.103h-27.501v-97.358c0-17.588-1.053-31.088-3.155-40.506
			c-2.11-9.413-5.89-16.224-11.333-20.438c-5.453-4.209-13.379-6.318-23.783-6.318c-8.426,0-17.038,1.059-25.828,3.161
			c-8.798,2.106-15.922,4.521-21.366,7.246l-7.063,3.343v150.871h-27.868V884.429z"/>
		<path fill="#231F20" d="M3948.873,1067.913c-8.006-4.633-13.764-12.49-17.273-23.585c-3.514-11.09-5.262-26.603-5.262-46.542
			v-110.77h-29.903v-27.38h29.903v-64.439h31.169v64.439h66.967v27.38h-66.967v100.662c0,15.729,0.558,27.449,1.682,35.168
			c1.119,7.727,3.859,13.624,8.214,17.689c4.351,4.075,11.161,6.107,20.429,6.107l37.484-2.526l2.105,26.113
			c-19.941,3.087-34.957,4.634-45.064,4.634C3968.035,1074.864,3956.874,1072.548,3948.873,1067.913z"/>
		<path fill="#231F20" d="M1442.604,1220.676v208.467h-14.956v-193.211h-3.59l-69.39,186.334h-19.141l-69.69-186.334h-3.288v193.211
			h-14.956v-208.467h29.012l68.493,184.843l68.491-184.843H1442.604z"/>
		<path fill="#231F20" d="M1493.296,1420.468c-6.88-7.575-10.318-18.24-10.318-31.996c0-13.763,3.388-24.182,10.167-31.262
			c6.778-7.072,17.647-11.515,32.604-13.304l53.538-5.39v-14.355c0-11.563-2.445-20.086-7.329-25.569
			c-4.889-5.483-11.617-8.227-20.189-8.227c-8.776,0-16.949,0.3-24.526,0.897c-7.578,0.598-19.438,1.794-35.592,3.59l-0.896-12.264
			c21.535-3.787,40.677-5.682,57.426-5.682c15.751,0,27.316,3.789,34.695,11.364c7.373,7.581,11.066,19.544,11.066,35.89v82.854
			c0.197,3.187,2.094,5.878,5.683,8.072c3.589,2.195,8.57,3.69,14.954,4.487l-0.598,12.26c-7.178,0-13.608-1.099-19.291-3.284
			c-5.683-2.195-10.123-5.285-13.31-9.275c-18.744,8.373-38.089,12.56-58.025,12.56
			C1510.194,1431.834,1500.175,1428.054,1493.296,1420.468z M1571.209,1410.6l8.077-2.691v-57.123l-51.743,5.079
			c-10.372,0.797-17.798,3.691-22.283,8.675c-4.487,4.992-6.73,12.364-6.73,22.137c0,21.534,8.674,32.297,26.021,32.297
			C1540.104,1418.973,1555.655,1416.185,1571.209,1410.6z"/>
		<path fill="#231F20" d="M1640.897,1219.778h14.356v19.742h-14.356V1219.778z M1640.897,1279.597h14.356v149.546h-14.356V1279.597z
			"/>
		<path fill="#231F20" d="M1701.012,1279.597h14.655v11.366c9.57-5.184,18.441-8.825,26.62-10.919
			c8.173-2.093,16.646-3.137,25.422-3.137c12.759,0,22.581,2.244,29.46,6.727c6.88,4.487,11.667,11.967,14.357,22.433
			c2.692,10.471,4.038,25.476,4.038,45.019v78.058h-14.356v-77.766c0-16.144-0.949-28.509-2.841-37.083
			c-1.898-8.572-5.233-14.755-10.02-18.543c-4.786-3.789-11.867-5.688-21.236-5.688c-8.178,0-16.554,1.103-25.124,3.293
			c-8.576,2.195-15.058,4.487-19.44,6.877l-6.581,3.293v125.616h-14.954V1279.597z"/>
		<path fill="#231F20" d="M1861.326,1212.003h14.954v217.14h-14.954V1212.003z"/>
		<path fill="#231F20" d="M1968.099,1429.143h-19.44l-44.864-149.546h14.954l41.874,136.385h11.065l42.174-136.385h15.252
			l-66.398,217.442h-15.255L1968.099,1429.143z"/>
		<path fill="#231F20" d="M2130.204,1220.676h14.956v208.467h-14.956V1220.676z"/>
		<path fill="#231F20" d="M2194.506,1279.597h14.656v11.366c9.569-5.184,18.441-8.825,26.619-10.919
			c8.174-2.093,16.646-3.137,25.422-3.137c12.759,0,22.579,2.244,29.461,6.727c6.881,4.487,11.666,11.967,14.356,22.433
			c2.695,10.471,4.04,25.476,4.04,45.019v78.058h-14.355v-77.766c0-16.144-0.951-28.509-2.842-37.083
			c-1.902-8.572-5.235-14.755-10.02-18.543c-4.788-3.789-11.869-5.688-21.238-5.688c-8.178,0-16.553,1.103-25.123,3.293
			c-8.576,2.195-15.058,4.487-19.441,6.877l-6.58,3.293v125.616h-14.955V1279.597z"/>
		<path fill="#231F20" d="M2569.265,1220.676v208.467h-31.103l-94.512-195.009h-5.683v195.009h-14.958v-208.467h31.403
			l93.618,195.014h6.58v-195.014H2569.265z"/>
		<path fill="#231F20" d="M2635.815,1424.505c-8.878-4.877-15.108-12.754-18.694-23.623c-3.593-10.869-5.385-25.873-5.385-45.018
			c0-20.136,1.895-35.837,5.686-47.106c3.781-11.263,10.117-19.389,18.99-24.376c8.869-4.979,21.283-7.475,37.236-7.475
			c16.149,0,28.664,2.539,37.538,7.625c8.868,5.085,15.148,13.263,18.84,24.526c3.69,11.269,5.536,26.874,5.536,46.806
			c0,19.145-1.749,34.148-5.235,45.018c-3.488,10.869-9.675,18.746-18.543,23.623c-8.878,4.887-21.589,7.329-38.136,7.329
			C2657.297,1431.834,2644.684,1429.392,2635.815,1424.505z M2703.41,1412.697c6.479-3.992,10.914-10.32,13.308-18.995
			c2.395-8.673,3.59-21.286,3.59-37.838c0-17.543-1.301-30.951-3.887-40.225c-2.593-9.272-7.133-15.853-13.611-19.743
			c-6.479-3.886-15.999-5.833-28.563-5.833c-12.764,0-22.481,1.947-29.159,5.833c-6.687,3.891-11.321,10.471-13.909,19.743
			c-2.594,9.273-3.886,22.682-3.886,40.225c0,16.357,1.194,28.917,3.584,37.688c2.399,8.779,6.931,15.152,13.613,19.145
			c6.673,3.992,16.597,5.983,29.757,5.983C2687.204,1418.681,2696.928,1416.689,2703.41,1412.697z"/>
		<path fill="#231F20" d="M2780.72,1413.741c-7.979-12.063-11.962-30.854-11.962-56.381c0-19.339,2.142-34.846,6.426-46.506
			c4.288-11.665,11.171-20.236,20.642-25.725c9.47-5.479,22.18-8.223,38.134-8.223c12.564,0,24.722,1.193,36.488,3.59v-68.494
			h14.356v217.14h-14.657v-11.958c-15.551,9.772-32.2,14.649-49.946,14.649C2801.853,1431.834,2788.69,1425.806,2780.72,1413.741z
			 M2845.027,1415.237c7.971-2.291,14.153-4.638,18.543-7.027l6.877-3.293v-111.265c-13.161-2.589-25.526-3.885-37.085-3.885
			c-12.564,0-22.385,2.292-29.466,6.877c-7.076,4.59-12.108,11.569-15.1,20.937c-2.991,9.376-4.487,21.937-4.487,37.691
			c0,21.136,2.841,36.988,8.523,47.557c5.682,10.567,15.502,15.852,29.461,15.852
			C2829.472,1418.681,2837.048,1417.53,2845.027,1415.237z"/>
		<path fill="#231F20" d="M2936.101,1414.193c-9.076-11.763-13.609-30.413-13.609-55.93c0-27.713,4.936-48.205,14.804-61.468
			c9.874-13.26,25.372-19.889,46.509-19.889c19.542,0,33.996,5.73,43.369,17.197c9.374,11.467,14.056,29.366,14.056,53.688
			l-0.296,12.559h-103.487c-0.198,14.357,1.195,25.775,4.187,34.246c2.992,8.479,8.121,14.656,15.405,18.542
			c7.276,3.896,17.393,5.833,30.359,5.833c5.382,0,11.71-0.15,18.99-0.442c7.275-0.301,14.007-0.752,20.188-1.346l8.971-0.902
			l0.603,12.268c-20.743,2.186-38.388,3.284-52.938,3.284C2960.87,1431.834,2945.169,1425.956,2936.101,1414.193z
			 M3026.279,1347.793c0-20.739-3.399-35.641-10.17-44.718c-6.784-9.067-17.552-13.608-32.306-13.608
			c-15.357,0-26.916,4.739-34.696,14.21c-7.771,9.471-11.764,24.174-11.958,44.116H3026.279z"/>
		<path fill="#231F20" d="M3105.23,1482.983c11.568-6.382,20.088-11.922,25.571-16.604c5.487-4.683,9.223-9.922,11.218-15.701
			c1.992-5.78,2.992-13.756,2.992-23.925v-147.156h14.356v147.457c0,11.957-1.346,21.685-4.041,29.155
			c-2.69,7.479-7.377,14.108-14.055,19.897c-6.683,5.779-16.596,12.056-29.758,18.834L3105.23,1482.983z M3145.012,1219.778h14.356
			v19.742h-14.356V1219.778z"/>
		<path fill="#231F20" d="M3207.818,1428.249l-8.97-1.496l1.194-13.162c22.53,3.391,39.577,5.09,51.146,5.09
			c13.954,0,24.226-2.398,30.807-7.179c6.58-4.788,9.869-12.462,9.869-23.03c0-7.576-1.646-13.313-4.935-17.206
			c-3.288-3.886-7.475-6.62-12.564-8.223c-5.081-1.593-12.108-2.991-21.083-4.187c-1.398-0.397-3.691-0.796-6.877-1.194
			c-12.968-2.194-22.934-4.683-29.913-7.479c-6.979-2.788-11.962-6.576-14.954-11.364c-2.991-4.789-4.486-11.259-4.486-19.439
			c0-15.751,4.735-26.717,14.205-32.903c9.471-6.179,23.182-9.272,41.127-9.272c15.954,0,29.806,1.001,41.578,2.991l7.771,1.496
			l-0.594,12.861c-20.34-3.187-36.794-4.784-49.354-4.784c-13.957,0-24.074,2.292-30.358,6.877
			c-6.28,4.59-9.418,11.471-9.418,20.641c0,6.38,1.491,11.265,4.482,14.655c2.992,3.39,6.927,5.833,11.813,7.328
			c4.886,1.496,12.011,3.037,21.389,4.638c1.394,0.398,3.482,0.797,6.28,1.196c13.16,2.389,23.18,4.93,30.057,7.62
			c6.883,2.7,12.064,6.639,15.552,11.816c3.487,5.187,5.239,12.56,5.239,22.137c0,15.95-4.637,27.464-13.908,34.545
			c-9.271,7.082-23.584,10.613-42.924,10.613C3237.829,1431.834,3223.772,1430.639,3207.818,1428.249z"/>
		<path fill="#231F20" d="M671.701,1779.388c-6.879-7.577-10.318-18.251-10.318-32.005c0-13.756,3.388-24.173,10.168-31.253
			c6.777-7.081,17.646-11.517,32.603-13.313l53.538-5.381v-14.357c0-11.568-2.445-20.092-7.328-25.57
			c-4.889-5.488-11.617-8.231-20.19-8.231c-8.775,0-16.949,0.3-24.525,0.902c-7.579,0.594-19.439,1.788-35.592,3.585l-0.897-12.258
			c21.535-3.789,40.678-5.684,57.427-5.684c15.75,0,27.316,3.789,34.695,11.365c7.373,7.577,11.066,19.543,11.066,35.891v82.847
			c0.197,3.195,2.093,5.885,5.683,8.081c3.589,2.194,8.569,3.69,14.953,4.479l-0.597,12.267c-7.179,0-13.608-1.097-19.291-3.292
			c-5.683-2.188-10.123-5.275-13.31-9.268c-18.745,8.373-38.089,12.56-58.025,12.56
			C688.601,1790.752,678.581,1786.964,671.701,1779.388z M749.615,1769.52l8.076-2.691v-57.134l-51.743,5.09
			c-10.371,0.797-17.798,3.689-22.283,8.674c-4.487,4.982-6.73,12.365-6.73,22.127c0,21.535,8.674,32.307,26.021,32.307
			C718.51,1777.892,734.062,1775.104,749.615,1769.52z"/>
		<path fill="#231F20" d="M819.304,1638.514h14.654v11.366c9.571-5.188,18.441-8.825,26.62-10.923
			c8.175-2.089,16.646-3.134,25.423-3.134c12.759,0,22.581,2.24,29.46,6.728c6.88,4.487,11.666,11.966,14.356,22.429
			c2.693,10.47,4.039,25.473,4.039,45.017v78.066h-14.357v-77.767c0-16.153-0.949-28.51-2.84-37.086
			c-1.899-8.576-5.233-14.754-10.02-18.543c-4.787-3.789-11.868-5.691-21.236-5.691c-8.179,0-16.554,1.107-25.124,3.293
			c-8.576,2.195-15.058,4.488-19.441,6.877l-6.58,3.294v125.623h-14.954V1638.514z"/>
		<path fill="#231F20" d="M983.506,1772.652c-7.977-12.056-11.965-30.846-11.965-56.373c0-19.34,2.143-34.847,6.431-46.513
			c4.287-11.664,11.166-20.232,20.639-25.721c9.469-5.479,22.179-8.223,38.135-8.223c12.562,0,24.721,1.194,36.488,3.586v-68.49
			h14.356v217.144h-14.655v-11.968c-15.554,9.771-32.204,14.657-49.948,14.657C1004.638,1790.752,991.479,1784.724,983.506,1772.652
			z M1047.811,1774.148c7.974-2.284,14.155-4.629,18.543-7.028l6.88-3.283v-111.268c-13.159-2.594-25.524-3.886-37.086-3.886
			c-12.563,0-22.387,2.293-29.463,6.877c-7.079,4.586-12.112,11.569-15.104,20.933c-2.989,9.384-4.485,21.942-4.485,37.688
			c0,21.136,2.842,36.989,8.524,47.557c5.682,10.569,15.502,15.853,29.46,15.853
			C1032.257,1777.591,1039.834,1776.45,1047.811,1774.148z"/>
		<path fill="#231F20" d="M1200.193,1779.388c-6.88-7.577-10.318-18.251-10.318-32.005c0-13.756,3.388-24.173,10.167-31.253
			c6.778-7.081,17.647-11.517,32.604-13.313l53.538-5.381v-14.357c0-11.568-2.445-20.092-7.329-25.57
			c-4.889-5.488-11.617-8.231-20.189-8.231c-8.775,0-16.949,0.3-24.526,0.902c-7.578,0.594-19.438,1.788-35.592,3.585l-0.896-12.258
			c21.535-3.789,40.677-5.684,57.426-5.684c15.75,0,27.316,3.789,34.696,11.365c7.373,7.577,11.065,19.543,11.065,35.891v82.847
			c0.197,3.195,2.094,5.885,5.683,8.081c3.589,2.194,8.57,3.69,14.954,4.479l-0.598,12.267c-7.178,0-13.608-1.097-19.291-3.292
			c-5.683-2.188-10.123-5.275-13.31-9.268c-18.744,8.373-38.089,12.56-58.025,12.56
			C1217.092,1790.752,1207.072,1786.964,1200.193,1779.388z M1278.106,1769.52l8.077-2.691v-57.134l-51.743,5.09
			c-10.371,0.797-17.798,3.689-22.283,8.674c-4.487,4.982-6.73,12.365-6.73,22.127c0,21.535,8.673,32.307,26.021,32.307
			C1247.002,1777.892,1262.553,1775.104,1278.106,1769.52z"/>
		<path fill="#231F20" d="M1349.587,1570.919h14.955v217.144h-14.955V1570.919z"/>
		<path fill="#231F20" d="M1414.488,1787.158l-8.973-1.495l1.196-13.152c22.53,3.391,39.578,5.08,51.146,5.08
			c13.954,0,24.226-2.391,30.807-7.178c6.581-4.789,9.869-12.463,9.869-23.03c0-7.577-1.645-13.313-4.935-17.198
			c-3.29-3.887-7.478-6.63-12.562-8.223c-5.085-1.594-12.113-2.991-21.086-4.187c-1.398-0.398-3.693-0.797-6.879-1.204
			c-12.965-2.186-22.934-4.683-29.91-7.471c-6.981-2.797-11.965-6.585-14.954-11.364c-2.991-4.788-4.487-11.268-4.487-19.445
			c0-15.746,4.735-26.712,14.208-32.899c9.469-6.178,23.179-9.276,41.125-9.276c15.951,0,29.808,1.001,41.574,2.991l7.776,1.496
			l-0.598,12.86c-20.34-3.185-36.789-4.779-49.352-4.779c-13.96,0-24.077,2.293-30.359,6.877
			c-6.279,4.586-9.419,11.472-9.419,20.642c0,6.381,1.493,11.268,4.485,14.648c2.991,3.399,6.926,5.833,11.813,7.329
			c4.884,1.496,12.011,3.044,21.387,4.638c1.392,0.398,3.485,0.797,6.279,1.194c13.162,2.399,23.182,4.938,30.061,7.63
			c6.88,2.69,12.062,6.629,15.552,11.816c3.486,5.187,5.235,12.561,5.235,22.127c0,15.959-4.637,27.475-13.907,34.547
			c-9.273,7.08-23.584,10.62-42.921,10.62C1444.495,1790.752,1430.439,1789.558,1414.488,1787.158z"/>
		<path fill="#231F20" d="M1568.069,1783.423c-8.874-4.886-15.104-12.753-18.694-23.632c-3.588-10.859-5.383-25.871-5.383-45.007
			c0-20.136,1.895-35.848,5.685-47.114c3.784-11.259,10.116-19.385,18.992-24.376c8.868-4.974,21.282-7.471,37.236-7.471
			c16.151,0,28.662,2.54,37.537,7.621c8.868,5.09,15.15,13.268,18.842,24.526c3.688,11.268,5.534,26.872,5.534,46.813
			c0,19.136-1.748,34.147-5.233,45.007c-3.491,10.879-9.674,18.746-18.545,23.632c-8.875,4.887-21.586,7.329-38.135,7.329
			C1589.553,1790.752,1576.94,1788.31,1568.069,1783.423z M1635.664,1771.606c6.479-3.981,10.919-10.32,13.311-18.993
			c2.395-8.675,3.589-21.277,3.589-37.829c0-17.543-1.299-30.962-3.888-40.229c-2.594-9.276-7.132-15.852-13.608-19.747
			c-6.481-3.886-16.001-5.833-28.563-5.833c-12.764,0-22.484,1.947-29.162,5.833c-6.685,3.896-11.32,10.471-13.909,19.747
			c-2.594,9.267-3.888,22.686-3.888,40.229c0,16.348,1.197,28.906,3.589,37.688c2.395,8.771,6.926,15.153,13.608,19.135
			c6.678,3.992,16.601,5.984,29.762,5.984C1619.463,1777.591,1629.184,1775.599,1635.664,1771.606z"/>
		<path fill="#231F20" d="M1792.235,1593.046v90.033h90.925v13.453h-90.925v91.53h-14.956v-208.47h121.134v13.453H1792.235z"/>
		<path fill="#231F20" d="M1918.898,1779.388c-6.88-7.577-10.318-18.251-10.318-32.005c0-13.756,3.388-24.173,10.168-31.253
			c6.777-7.081,17.646-11.517,32.603-13.313l53.538-5.381v-14.357c0-11.568-2.445-20.092-7.329-25.57
			c-4.888-5.488-11.617-8.231-20.189-8.231c-8.775,0-16.949,0.3-24.525,0.902c-7.579,0.594-19.439,1.788-35.593,3.585l-0.896-12.258
			c21.535-3.789,40.678-5.684,57.426-5.684c15.751,0,27.316,3.789,34.696,11.365c7.372,7.577,11.065,19.543,11.065,35.891v82.847
			c0.197,3.195,2.094,5.885,5.683,8.081c3.589,2.194,8.57,3.69,14.954,4.479l-0.598,12.267c-7.178,0-13.608-1.097-19.291-3.292
			c-5.682-2.188-10.123-5.275-13.31-9.268c-18.744,8.373-38.088,12.56-58.025,12.56
			C1935.797,1790.752,1925.777,1786.964,1918.898,1779.388z M1996.812,1769.52l8.077-2.691v-57.134l-51.743,5.09
			c-10.372,0.797-17.798,3.689-22.283,8.674c-4.487,4.982-6.73,12.365-6.73,22.127c0,21.535,8.674,32.307,26.021,32.307
			C1965.707,1777.892,1981.258,1775.104,1996.812,1769.52z"/>
		<path fill="#231F20" d="M2066.5,1638.514h14.655v11.366c15.353-9.374,31.503-14.057,48.453-14.057
			c18.941,0,31.704,5.285,38.285,15.853c6.38-4.186,14.954-7.878,25.721-11.073c10.768-3.187,21.732-4.779,32.902-4.779
			c11.962,0,21.236,2.391,27.813,7.18c6.581,4.778,11.166,12.461,13.76,23.028c2.589,10.569,3.886,25.227,3.886,43.965v78.066
			h-14.653v-77.767c0-16.552-0.898-29.059-2.693-37.537c-1.795-8.47-5.082-14.551-9.868-18.242
			c-4.786-3.689-11.965-5.541-21.534-5.541c-8.577,0-17.05,1.107-25.423,3.293c-8.375,2.195-14.558,4.488-18.545,6.877l-6.28,3.294
			c3.388,2.796,5.083,18.746,5.083,47.856v77.767h-14.954v-77.173c0-16.349-0.896-28.863-2.69-37.529
			c-1.795-8.673-5.038-14.904-9.721-18.693c-4.688-3.789-11.619-5.691-20.789-5.691c-7.978,0-16.052,1.054-24.226,3.144
			c-8.178,2.098-14.356,4.442-18.545,7.026l-5.682,3.294v125.623H2066.5V1638.514z"/>
		<path fill="#231F20" d="M2316.239,1578.69h14.356v19.747h-14.356V1578.69z M2316.239,1638.514h14.356v149.549h-14.356V1638.514z"
			/>
		<path fill="#231F20" d="M2378.152,1570.919h14.949v217.144h-14.949V1570.919z"/>
		<path fill="#231F20" d="M2440.357,1578.69h14.356v19.747h-14.356V1578.69z M2440.357,1638.514h14.356v149.549h-14.356V1638.514z"
			/>
		<path fill="#231F20" d="M2501.519,1779.388c-6.878-7.577-10.315-18.251-10.315-32.005c0-13.756,3.385-24.173,10.164-31.253
			c6.781-7.081,17.65-11.517,32.607-13.313l53.536-5.381v-14.357c0-11.568-2.447-20.092-7.329-25.57
			c-4.891-5.488-11.617-8.231-20.188-8.231c-8.776,0-16.95,0.3-24.526,0.902c-7.581,0.594-19.441,1.788-35.595,3.585l-0.894-12.258
			c21.534-3.789,40.679-5.684,57.425-5.684c15.751,0,27.314,3.789,34.696,11.365c7.373,7.577,11.064,19.543,11.064,35.891v82.847
			c0.199,3.195,2.098,5.885,5.682,8.081c3.594,2.194,8.572,3.69,14.959,4.479l-0.603,12.267c-7.178,0-13.604-1.097-19.286-3.292
			c-5.683-2.188-10.126-5.275-13.313-9.268c-18.746,8.373-38.086,12.56-58.027,12.56
			C2518.42,1790.752,2508.4,1786.964,2501.519,1779.388z M2579.434,1769.52l8.077-2.691v-57.134l-51.743,5.09
			c-10.369,0.797-17.795,3.689-22.283,8.674c-4.486,4.982-6.73,12.365-6.73,22.127c0,21.535,8.674,32.307,26.021,32.307
			C2548.332,1777.892,2563.883,1775.104,2579.434,1769.52z"/>
		<path fill="#231F20" d="M2649.118,1638.514h14.657v22.128c16.945-12.356,36.192-20.826,57.728-25.42v15.25
			c-8.18,1.603-17.305,4.391-27.368,8.383c-10.072,3.992-17.401,7.575-21.986,10.762l-8.071,4.488v113.958h-14.959V1638.514z"/>
		<path fill="#231F20" d="M2802.552,1638.514h14.953L2853.1,1774.9h3.585l41.276-133.394h15.556l40.972,133.394h4.187
			l34.998-136.387h15.254l-38.883,149.549h-26.318l-37.988-128.015l-37.984,128.015h-26.62L2802.552,1638.514z"/>
		<path fill="#231F20" d="M3041.821,1578.69h14.356v19.747h-14.356V1578.69z M3041.821,1638.514h14.356v149.549h-14.356V1638.514z"
			/>
		<path fill="#231F20" d="M3120.782,1786.565c-5.382-3.186-9.271-8.62-11.666-16.303c-2.391-7.674-3.585-18.588-3.585-32.749
			v-85.838h-22.733v-13.162h22.733v-47.556h14.356v47.556h52.336v13.162h-52.336v75.668c0,13.754,0.496,23.978,1.496,30.659
			c0.991,6.683,3.235,11.71,6.727,15.1c3.488,3.391,9.223,5.09,17.197,5.09l28.412-2.398l1.199,12.568
			c-13.962,1.982-24.525,2.983-31.704,2.983C3133.643,1791.346,3126.163,1789.752,3120.782,1786.565z"/>
		<path fill="#231F20" d="M3200.038,1570.919h14.954v76.571c16.945-7.781,33.798-11.667,50.548-11.667
			c13.162,0,23.227,2.24,30.209,6.728c6.975,4.487,11.861,11.966,14.658,22.429c2.787,10.47,4.186,25.473,4.186,45.017v78.066
			h-14.957v-77.466c0-17.152-0.947-30.013-2.842-38.591c-1.895-8.567-5.435-14.551-10.617-17.94
			c-5.187-3.391-13.06-5.09-23.628-5.09c-13.161,0-26.915,2.798-41.272,8.383l-6.284,2.39v128.314h-14.954V1570.919z"/>
		<path fill="#231F20" d="M3428.542,1579.593h75.969c21.933,0,37.988,5.284,48.158,15.854c10.17,10.566,15.25,26.915,15.25,49.052
			c0,23.322-5.23,40.724-15.701,52.186c-10.471,11.47-26.372,17.198-47.707,17.198H3443.5v74.181h-14.958V1579.593z
			 M3504.214,1699.825c31.899,0,47.853-18.438,47.853-55.327c0-17.553-3.788-30.457-11.364-38.733
			c-7.58-8.274-19.738-12.417-36.488-12.417H3443.5v106.478H3504.214z"/>
		<path fill="#231F20" d="M3754.251,1579.593v208.47h-14.657v-97.505h-118.139v97.505h-14.954v-208.47h14.954v96.9h118.139v-96.9
			H3754.251z"/>
		<path fill="#231F20" d="M3808.088,1579.593h75.969c21.933,0,37.984,5.284,48.153,15.854
			c10.171,10.566,15.255,26.915,15.255,49.052c0,23.322-5.235,40.724-15.701,52.186c-10.471,11.47-26.372,17.198-47.707,17.198
			h-61.015v74.181h-14.954V1579.593z M3883.756,1699.825c31.903,0,47.857-18.438,47.857-55.327c0-17.553-3.793-30.457-11.365-38.733
			c-7.581-8.274-19.742-12.417-36.492-12.417h-60.714v106.478H3883.756z"/>
	</g>
</g>
</svg>
