<?xml version="1.0" encoding="utf-8"?>
<!-- Generator: Adobe Illustrator 16.0.0, SVG Export Plug-In . SVG Version: 6.00 Build 0)  -->
<!DOCTYPE svg PUBLIC "-//W3C//DTD SVG 1.1//EN" "http://www.w3.org/Graphics/SVG/1.1/DTD/svg11.dtd">
<svg version="1.1" id="Layer_1" xmlns="http://www.w3.org/2000/svg" xmlns:xlink="http://www.w3.org/1999/xlink" x="0px" y="0px"
	 width="1603.939px" height="609.449px" viewBox="0 0 1603.939 609.449" enable-background="new 0 0 1603.939 609.449"
	 xml:space="preserve">
<g>
	<g>
		<circle fill="#131313" cx="1388.196" cy="304.725" r="142.588"/>
		<g>
			<path fill="#FFFFFF" d="M1490.698,304.694c0,15.707-0.005,31.416,0.001,47.123c0.002,7.008-3.006,12.358-9.068,15.791
				c-28.146,15.937-56.313,31.824-84.509,47.672c-5.966,3.351-12.11,3.271-18.054-0.101c-9.495-5.384-18.916-10.898-28.358-16.38
				c-0.888-0.513-2.18-0.95-2.103-2.119c0.081-1.253,1.503-1.285,2.447-1.604c3.688-1.24,7.304-2.668,10.603-4.73
				c1.705-1.064,3.068-0.846,4.691,0.121c6.325,3.758,12.738,7.369,19.054,11.146c1.874,1.12,3.432,1.212,5.387,0.104
				c27.296-15.46,54.618-30.876,81.978-46.226c2.049-1.149,2.81-2.521,2.806-4.823c-0.056-30.687-0.056-61.37,0-92.057
				c0.004-2.306-0.773-3.686-2.811-4.829c-27.359-15.35-54.688-30.761-81.993-46.208c-1.84-1.042-3.336-1.03-5.174,0.012
				c-27.444,15.531-54.914,31.017-82.399,46.474c-1.693,0.952-2.374,2.169-2.371,4.091c0.036,31.009,0.037,62.018-0.003,93.026
				c0,1.946,0.735,3.114,2.426,4.047c7.152,3.943,14.243,7.993,21.363,11.995c3.228,1.815,6.658,2.931,10.404,2.794
				c5.722-0.21,9.898-4.055,10.577-9.734c0.137-1.119,0.161-2.26,0.161-3.391c0.01-29.957,0.007-59.914,0.01-89.87
				c0-4.116,0.26-4.369,4.438-4.372c2.753-0.001,5.506,0.009,8.258-0.002c2.018-0.007,2.971,1.025,2.979,2.992
				c0.01,2.268,0.003,4.535,0.003,6.802c0.002,28.338-0.004,56.676,0.008,85.013c0.001,3.243-0.146,6.465-0.855,9.646
				c-2.407,10.811-10.178,17.221-21.189,18.045c-8.409,0.631-16.029-1.553-23.257-5.481c-7.103-3.862-14.112-7.896-21.142-11.89
				c-6.247-3.549-9.331-8.928-9.326-16.137c0.02-31.331,0.019-62.665,0-93.998c-0.003-7.213,3.103-12.588,9.353-16.121
				c27.732-15.674,55.484-31.319,83.22-46.993c6.62-3.741,13.193-3.781,19.825-0.032c27.734,15.672,55.483,31.321,83.216,46.995
				c6.334,3.58,9.446,9.015,9.424,16.331C1490.663,273.442,1490.698,289.068,1490.698,304.694"/>
			<path fill="#FFFFFF" d="M1414.709,351.869c-9.731-0.198-18.507-0.865-26.838-4.193c-11.376-4.543-17.867-12.67-18.356-25.175
				c-0.105-2.712,0.594-3.575,3.242-3.608c3.155-0.035,6.314,0.041,9.47-0.024c1.973-0.043,3.049,0.79,3.248,2.759
				c0.04,0.4,0.185,0.786,0.255,1.186c1.145,6.68,5.022,11.041,11.549,12.59c10.933,2.595,21.979,2.725,32.92,0.062
				c6.359-1.547,9.338-5.415,9.554-10.946c0.143-3.648-1.471-5.994-4.666-7.455c-4.089-1.869-8.465-2.656-12.85-3.383
				c-9.247-1.533-18.683-1.722-27.845-3.867c-2.996-0.701-5.899-1.646-8.766-2.771c-17.287-6.78-15.678-28.166-6.919-36.631
				c5.016-4.848,11.043-7.577,17.744-8.853c12.42-2.366,24.813-2.222,36.933,1.631c11.988,3.81,18.819,12.747,19.826,25.208
				c0.174,2.147-0.8,3.272-2.869,3.317c-3.397,0.076-6.801,0.036-10.199,0.011c-1.34-0.009-2.493-0.588-2.753-1.938
				c-2.007-10.422-9.262-14.142-18.859-14.792c-6.381-0.432-12.788-0.672-19.083,0.814c-4.543,1.073-8.716,2.754-9.961,8.002
				c-1.122,4.734,0.263,7.496,4.805,9.142c5.971,2.165,12.265,2.817,18.496,3.722c8.792,1.279,17.658,2.147,26.195,4.811
				c0.617,0.192,1.24,0.369,1.849,0.584c7.947,2.806,14.039,7.393,15.364,16.375c1.511,10.234-1.147,18.945-9.723,25.289
				c-5.946,4.397-12.886,6.236-20.064,7.316C1422.237,351.676,1418.024,351.719,1414.709,351.869"/>
		</g>
	</g>
	<g>
		<circle fill="#131313" cx="215.743" cy="304.725" r="142.588"/>
		<g>
			<path fill="#FFFFFF" d="M108.789,267.917h37.686c11.064,0.097,19.078,3.266,24.048,9.52c4.968,6.249,6.608,14.785,4.922,25.604
				c-0.656,4.945-2.109,9.795-4.359,14.557c-2.157,4.756-5.156,9.047-9,12.875c-4.688,4.846-9.704,7.926-15.047,9.23
				c-5.344,1.308-10.875,1.962-16.593,1.962H113.57l-5.343,26.587H88.68L108.789,267.917 M125.242,283.869l-8.438,41.982
				c0.563,0.092,1.125,0.139,1.688,0.139h1.969c9,0.093,16.499-0.792,22.5-2.659c5.999-1.957,10.03-8.771,12.093-20.431
				c1.688-9.793,0-15.438-5.063-16.931c-4.968-1.492-11.203-2.193-18.703-2.101c-1.125,0.096-2.203,0.142-3.234,0.142h-2.951
				L125.242,283.869"/>
			<path fill="#FFFFFF" d="M197.716,241.198h19.405l-5.485,26.728h17.438c9.562,0.188,16.688,2.147,21.374,5.877
				c4.781,3.729,6.188,10.822,4.22,21.271l-9.423,46.598h-19.687l8.999-44.499c0.938-4.665,0.657-7.977-0.844-9.936
				c-1.5-1.958-4.733-2.94-9.703-2.94l-15.608-0.137l-11.53,57.512h-19.406L197.716,241.198"/>
			<path fill="#FFFFFF" d="M275.508,267.917h37.688c11.062,0.097,19.078,3.266,24.046,9.52c4.968,6.249,6.609,14.785,4.92,25.604
				c-0.655,4.945-2.108,9.795-4.357,14.557c-2.156,4.756-5.156,9.047-9,12.875c-4.687,4.846-9.702,7.926-15.046,9.23
				c-5.344,1.308-10.875,1.962-16.594,1.962h-16.875l-5.342,26.587H255.4L275.508,267.917 M291.962,283.869l-8.438,41.982
				c0.562,0.092,1.125,0.139,1.688,0.139h1.968c9,0.093,16.5-0.792,22.5-2.659c6-1.957,10.031-8.771,12.095-20.431
				c1.687-9.793,0-15.438-5.063-16.931c-4.968-1.492-11.203-2.193-18.703-2.101c-1.125,0.096-2.202,0.142-3.232,0.142h-2.953
				L291.962,283.869"/>
		</g>
		<path fill="#819ACE" d="M156.616,338.123"/>
	</g>
</g>
<g opacity="0.8">
	<g>
		
			<line fill="none" stroke="#131313" stroke-width="12" stroke-miterlimit="10" x1="418.808" y1="479.449" x2="1185.133" y2="479.449"/>
		<g>
			<circle fill="#131313" cx="420.071" cy="479.449" r="25.266"/>
		</g>
		<g>
			<circle fill="#131313" cx="1183.869" cy="479.449" r="25.266"/>
		</g>
	</g>
</g>
<g>
	<path d="M420.067,193.64h20.582c5.739,0,9.989,1.189,12.751,3.567c2.76,2.378,4.141,6.082,4.141,11.111
		c0,3.335-0.602,6-1.804,7.995c-1.203,1.996-3.034,3.595-5.494,4.797c3.061,1.094,5.33,2.734,6.806,4.92
		c1.477,2.187,2.214,5.139,2.214,8.856c0,5.358-1.489,9.28-4.469,11.767c-2.979,2.488-7.339,3.731-13.079,3.731h-21.647V193.64z
		 M440.977,218.814c3.444,0,5.986-0.833,7.626-2.501c1.641-1.667,2.46-4.168,2.46-7.503c0-3.389-0.848-5.834-2.541-7.339
		c-1.695-1.503-4.401-2.255-8.118-2.255h-14.022v19.598H440.977z M441.469,244.808c3.717,0,6.546-0.792,8.487-2.378
		c1.94-1.585,2.911-4.154,2.911-7.708c0-3.826-1.066-6.519-3.198-8.077s-5.002-2.337-8.61-2.337h-14.678v20.5H441.469z"/>
	<path d="M469.841,248.006c-1.968-2.132-2.952-5.193-2.952-9.184c0-3.937,0.997-6.86,2.993-8.774
		c1.995-1.913,5.179-3.088,9.553-3.526l12.874-1.23v-3.526c0-5.193-2.241-7.79-6.724-7.79c-4.428,0-9.813,0.356-16.154,1.066
		l-0.246-4.674c5.85-1.202,11.18-1.804,15.99-1.804c4.646,0,8.022,1.053,10.127,3.157c2.104,2.105,3.157,5.453,3.157,10.045v20.992
		c0.164,2.023,1.749,3.226,4.756,3.608l-0.246,4.838c-4.318,0-7.571-1.093-9.758-3.28c-4.866,2.187-9.786,3.28-14.76,3.28
		C474.679,251.204,471.809,250.138,469.841,248.006z M490.423,244.152l1.886-0.656v-13.53l-12.136,1.148
		c-2.46,0.219-4.237,0.93-5.33,2.132c-1.094,1.203-1.64,2.952-1.64,5.248c0,5.03,2.077,7.544,6.231,7.544
		C483.097,246.038,486.76,245.411,490.423,244.152z"/>
	<path d="M515.596,249.031c-2.405-1.448-4.128-3.717-5.166-6.806c-1.04-3.087-1.558-7.202-1.558-12.341
		c0-6.505,1.093-11.698,3.28-15.58c2.186-3.881,6.423-5.822,12.71-5.822c1.64,0,3.334,0.082,5.084,0.246
		c1.749,0.164,4.127,0.52,7.134,1.066l-0.246,5.002c-4.319-0.492-7.626-0.738-9.922-0.738c-3.116,0-5.508,0.479-7.175,1.435
		c-1.668,0.957-2.843,2.57-3.526,4.838c-0.684,2.27-1.025,5.508-1.025,9.717c0,3.991,0.328,7.093,0.984,9.307
		s1.845,3.827,3.567,4.838c1.722,1.012,4.223,1.517,7.503,1.517l9.676-0.738l0.246,5.084c-5.248,0.765-9.184,1.148-11.808,1.148
		C521.254,251.204,518.001,250.479,515.596,249.031z"/>
	<path d="M546.345,191.508h6.15v34.768l6.396-0.328l11.727-16.564h6.97l-13.366,18.86l13.94,22.14h-6.97l-12.219-19.024
		l-6.478,0.246v18.778h-6.15V191.508L546.345,191.508z"/>
	<path d="M586.649,246.325c-2.598-3.252-3.896-8.377-3.896-15.375c0-7.598,1.395-13.229,4.182-16.892
		c2.788-3.662,7.161-5.494,13.12-5.494c5.466,0,9.554,1.572,12.259,4.715c2.706,3.144,4.06,7.968,4.06,14.473l-0.328,4.674h-27.06
		c0,3.39,0.369,6.041,1.106,7.954c0.738,1.914,1.995,3.294,3.772,4.141c1.775,0.848,4.25,1.271,7.421,1.271
		c1.585,0,3.416-0.041,5.494-0.123c2.077-0.082,3.963-0.205,5.657-0.369l2.379-0.246l0.164,4.838
		c-6.068,0.874-11.099,1.312-15.089,1.312C593.66,251.204,589.245,249.579,586.649,246.325z M610.224,227.506
		c0-4.974-0.793-8.514-2.378-10.619c-1.586-2.104-4.182-3.157-7.79-3.157c-3.771,0-6.56,1.107-8.363,3.321
		c-1.805,2.214-2.734,5.699-2.788,10.455H610.224z"/>
	<path d="M625.967,209.384h6.068v2.87c2.46-1.366,4.715-2.323,6.765-2.87c2.05-0.546,4.195-0.82,6.438-0.82
		c3.498,0,6.204,0.656,8.118,1.968c1.912,1.312,3.266,3.403,4.059,6.273c0.792,2.87,1.189,6.847,1.189,11.931v21.648h-6.068V228.9
		c0-3.881-0.233-6.86-0.697-8.938c-0.465-2.077-1.299-3.58-2.501-4.51c-1.203-0.929-2.952-1.394-5.248-1.394
		c-1.858,0-3.759,0.233-5.699,0.697c-1.94,0.465-3.513,0.998-4.715,1.599l-1.558,0.738v33.292h-6.15V209.384L625.967,209.384z"/>
	<path d="M671.558,246.161c-2.241-3.362-3.361-8.541-3.361-15.539c0-7.817,1.353-13.448,4.059-16.892s7.175-5.166,13.407-5.166
		c3.116,0,6.368,0.356,9.758,1.066v-18.122h6.068v58.876h-6.068v-2.788c-4.21,2.406-8.446,3.608-12.71,3.608
		C677.516,251.204,673.799,249.523,671.558,246.161z M689.024,245.013c1.856-0.464,3.443-0.997,4.756-1.599l1.64-0.738v-27.798
		c-3.554-0.656-6.642-0.984-9.266-0.984c-4.319,0-7.339,1.258-9.062,3.772c-1.722,2.515-2.583,6.67-2.583,12.464
		c0,5.303,0.697,9.225,2.091,11.767c1.395,2.542,3.813,3.813,7.258,3.813C685.442,245.71,687.165,245.479,689.024,245.013z"/>
	<path d="M765.979,197.412c3.089,2.515,5.152,5.713,6.191,9.594c1.038,3.882,1.558,8.419,1.558,13.612
		c0,10.387-1.709,17.945-5.125,22.673c-3.417,4.729-8.706,7.093-15.866,7.093h-20.254V193.64h20.254
		C758.476,193.64,762.89,194.898,765.979,197.412z M767.25,221.192c0-7.653-1.176-13.229-3.526-16.728
		c-2.351-3.498-6.014-5.248-10.987-5.248h-13.94v45.592h13.94C762.412,244.808,767.25,236.936,767.25,221.192z"/>
	<path d="M786.396,246.325c-2.598-3.252-3.896-8.377-3.896-15.375c0-7.598,1.394-13.229,4.182-16.892
		c2.788-3.662,7.161-5.494,13.12-5.494c5.466,0,9.553,1.572,12.26,4.715c2.705,3.144,4.06,7.968,4.06,14.473l-0.328,4.674h-27.06
		c0,3.39,0.369,6.041,1.106,7.954c0.738,1.914,1.995,3.294,3.772,4.141c1.775,0.848,4.25,1.271,7.421,1.271
		c1.584,0,3.416-0.041,5.494-0.123c2.075-0.082,3.963-0.205,5.657-0.369l2.378-0.246l0.163,4.838
		c-6.067,0.874-11.098,1.312-15.088,1.312C793.407,251.204,788.992,249.579,786.396,246.325z M809.971,227.506
		c0-4.974-0.793-8.514-2.378-10.619c-1.586-2.104-4.183-3.157-7.79-3.157c-3.771,0-6.56,1.107-8.363,3.321
		c-1.805,2.214-2.734,5.699-2.788,10.455H809.971z"/>
	<path d="M821.205,209.384h6.56l9.596,35.67h3.032l9.923-35.67h6.313l-11.563,41h-12.301L821.205,209.384z"/>
	<path d="M865.854,246.325c-2.598-3.252-3.895-8.377-3.895-15.375c0-7.598,1.394-13.229,4.182-16.892
		c2.787-3.662,7.16-5.494,13.119-5.494c5.467,0,9.555,1.572,12.26,4.715c2.706,3.144,4.06,7.968,4.06,14.473l-0.328,4.674h-27.06
		c0,3.39,0.369,6.041,1.105,7.954c0.738,1.914,1.996,3.294,3.772,4.141c1.775,0.848,4.25,1.271,7.421,1.271
		c1.585,0,3.416-0.041,5.494-0.123c2.077-0.082,3.963-0.205,5.658-0.369l2.378-0.246l0.163,4.838
		c-6.067,0.874-11.099,1.312-15.089,1.312C872.864,251.204,868.449,249.579,865.854,246.325z M889.428,227.506
		c0-4.974-0.793-8.514-2.377-10.619c-1.586-2.104-4.183-3.157-7.791-3.157c-3.771,0-6.56,1.107-8.363,3.321
		c-1.805,2.214-2.733,5.699-2.787,10.455H889.428z"/>
	<path d="M905.664,191.508h6.148v58.876h-6.148V191.508z"/>
	<path d="M928.951,249.031c-2.57-1.448-4.401-3.703-5.494-6.765c-1.094-3.061-1.641-7.105-1.641-12.136
		c0-5.193,0.573-9.361,1.723-12.505c1.148-3.143,3.006-5.439,5.576-6.888c2.567-1.448,5.984-2.173,10.25-2.173
		c4.316,0,7.748,0.738,10.291,2.214c2.541,1.476,4.387,3.772,5.535,6.888c1.146,3.116,1.721,7.271,1.721,12.464
		c0,5.03-0.547,9.075-1.639,12.136c-1.096,3.063-2.912,5.317-5.453,6.765c-2.543,1.448-6.027,2.173-10.455,2.173
		C934.99,251.204,931.52,250.479,928.951,249.031z M946.335,244.357c1.585-1.011,2.692-2.624,3.321-4.838
		c0.627-2.214,0.941-5.343,0.941-9.389c0-4.264-0.326-7.544-0.982-9.84s-1.777-3.936-3.362-4.92
		c-1.587-0.984-3.854-1.476-6.806-1.476c-2.953,0-5.236,0.492-6.849,1.476c-1.612,0.984-2.761,2.624-3.442,4.92
		c-0.686,2.296-1.025,5.576-1.025,9.84c0,3.991,0.314,7.107,0.943,9.348c0.627,2.242,1.748,3.868,3.36,4.879
		c1.612,1.012,3.949,1.517,7.013,1.517C942.453,245.875,944.748,245.37,946.335,244.357z"/>
	<path d="M966.916,209.384h6.068v2.952c2.133-1.257,4.194-2.2,6.19-2.829c1.994-0.628,4.113-0.943,6.355-0.943
		c5.084,0,8.786,1.681,11.109,5.043s3.485,8.706,3.485,16.031c0,5.194-0.604,9.362-1.805,12.505c-1.203,3.145-3.115,5.44-5.74,6.888
		c-2.623,1.448-6.149,2.173-10.577,2.173c-3.063,0-6.042-0.301-8.938-0.902v18.286h-6.149L966.916,209.384L966.916,209.384z
		 M991.188,242.102c1.805-2.514,2.706-6.587,2.706-12.218c0-5.576-0.778-9.607-2.337-12.095c-1.558-2.487-3.923-3.731-7.093-3.731
		c-1.586,0-3.295,0.26-5.125,0.779c-1.832,0.52-3.403,1.08-4.715,1.681l-1.56,0.82v27.634c4.046,0.603,7.054,0.902,9.021,0.902
		C986.351,245.875,989.385,244.617,991.188,242.102z"/>
	<path d="M1010.131,209.384h6.068v2.87c4.1-2.46,8.199-3.69,12.299-3.69c2.241,0,4.265,0.342,6.068,1.025
		c1.805,0.684,3.225,1.736,4.264,3.157c2.021-1.202,4.4-2.2,7.135-2.993c2.732-0.792,5.521-1.189,8.363-1.189
		c3.334,0,5.932,0.67,7.791,2.009c1.857,1.34,3.184,3.458,3.977,6.354c0.791,2.898,1.189,6.834,1.189,11.808v21.648h-6.15V228.9
		c0-3.881-0.219-6.86-0.656-8.938c-0.438-2.077-1.243-3.58-2.418-4.51c-1.178-0.929-2.911-1.394-5.207-1.394
		c-1.858,0-3.745,0.233-5.658,0.697c-1.914,0.465-3.473,0.998-4.674,1.599l-1.559,0.738c0.709,1.75,1.065,5.74,1.065,11.972v21.32
		h-6.149v-21.156c0-4.045-0.219-7.12-0.656-9.225c-0.438-2.104-1.229-3.621-2.378-4.551c-1.146-0.929-2.87-1.394-5.166-1.394
		c-1.804,0-3.636,0.233-5.494,0.697c-1.857,0.465-3.361,0.998-4.51,1.599l-1.394,0.738v33.292h-6.15V209.384L1010.131,209.384z"/>
	<path d="M1080.773,246.325c-2.599-3.252-3.896-8.377-3.896-15.375c0-7.598,1.394-13.229,4.182-16.892
		c2.788-3.662,7.161-5.494,13.12-5.494c5.466,0,9.553,1.572,12.26,4.715c2.705,3.144,4.059,7.968,4.059,14.473l-0.328,4.674h-27.061
		c0,3.39,0.369,6.041,1.107,7.954c0.737,1.914,1.994,3.294,3.771,4.141c1.774,0.848,4.25,1.271,7.421,1.271
		c1.585,0,3.416-0.041,5.494-0.123c2.077-0.082,3.963-0.205,5.657-0.369l2.379-0.246l0.163,4.838
		c-6.067,0.874-11.099,1.312-15.088,1.312C1087.784,251.204,1083.369,249.579,1080.773,246.325z M1104.349,227.506
		c0-4.974-0.793-8.514-2.378-10.619c-1.587-2.104-4.183-3.157-7.79-3.157c-3.771,0-6.561,1.107-8.364,3.321
		c-1.803,2.214-2.733,5.699-2.787,10.455H1104.349z"/>
	<path d="M1120.092,209.384h6.067v2.87c2.46-1.366,4.715-2.323,6.766-2.87c2.05-0.546,4.194-0.82,6.438-0.82
		c3.498,0,6.204,0.656,8.118,1.968c1.912,1.312,3.266,3.403,4.059,6.273c0.792,2.87,1.189,6.847,1.189,11.931v21.648h-6.068V228.9
		c0-3.881-0.232-6.86-0.696-8.938c-0.466-2.077-1.3-3.58-2.501-4.51c-1.203-0.929-2.952-1.394-5.248-1.394
		c-1.859,0-3.76,0.233-5.699,0.697c-1.94,0.465-3.514,0.998-4.715,1.599l-1.559,0.738v33.292h-6.149L1120.092,209.384
		L1120.092,209.384z"/>
	<path d="M1172.302,249.873c-1.767-1.022-3.037-2.756-3.812-5.205c-0.775-2.447-1.161-5.87-1.161-10.27v-24.443h-6.599v-6.042h6.599
		v-14.22h6.878v14.22h14.777v6.042h-14.777v22.213c0,3.471,0.123,6.057,0.371,7.76c0.247,1.705,0.852,3.006,1.813,3.904
		c0.96,0.899,2.463,1.348,4.509,1.348l8.271-0.558l0.465,5.762c-4.399,0.681-7.714,1.022-9.943,1.022
		C1176.53,251.407,1174.067,250.896,1172.302,249.873z"/>
	<path d="M619.253,283.583v46.001h-3.3v-42.635h-0.792l-15.313,41.117h-4.224l-15.378-41.117h-0.726v42.635h-3.301v-46.001h6.402
		l15.114,40.789l15.113-40.789H619.253z"/>
	<path d="M630.439,327.67c-1.519-1.672-2.277-4.025-2.277-7.061c0-3.037,0.748-5.336,2.244-6.898
		c1.496-1.561,3.894-2.541,7.193-2.936l11.814-1.189v-3.168c0-2.551-0.54-4.432-1.617-5.642c-1.079-1.21-2.563-1.815-4.455-1.815
		c-1.937,0-3.74,0.066-5.412,0.198c-1.672,0.132-4.29,0.396-7.854,0.792l-0.198-2.706c4.752-0.836,8.977-1.254,12.672-1.254
		c3.477,0,6.028,0.836,7.656,2.508c1.627,1.673,2.442,4.313,2.442,7.919v18.283c0.043,0.703,0.462,1.297,1.254,1.781
		c0.792,0.483,1.891,0.813,3.3,0.99l-0.132,2.704c-1.584,0-3.003-0.241-4.257-0.725c-1.255-0.484-2.234-1.166-2.938-2.048
		c-4.136,1.849-8.405,2.771-12.804,2.771C634.168,330.178,631.958,329.344,630.439,327.67z M647.632,325.492l1.782-0.594v-12.605
		l-11.418,1.121c-2.289,0.176-3.927,0.814-4.917,1.914c-0.99,1.102-1.485,2.729-1.485,4.885c0,4.752,1.914,7.127,5.742,7.127
		C640.769,327.34,644.2,326.725,647.632,325.492z"/>
	<path d="M663.01,283.384h3.168v4.356h-3.168V283.384z M663.01,296.584h3.168v33h-3.168V296.584z"/>
	<path d="M676.275,296.584h3.233v2.508c2.112-1.144,4.069-1.947,5.874-2.409s3.673-0.692,5.61-0.692
		c2.814,0,4.982,0.495,6.501,1.484c1.518,0.99,2.574,2.641,3.168,4.95c0.594,2.311,0.891,5.622,0.891,9.935v17.225h-3.168v-17.16
		c0-3.563-0.209-6.291-0.627-8.183c-0.419-1.892-1.155-3.256-2.211-4.092s-2.619-1.255-4.686-1.255
		c-1.806,0-3.653,0.243-5.544,0.727c-1.894,0.484-3.323,0.99-4.29,1.518l-1.452,0.727v27.719h-3.3V296.584z"/>
	<path d="M711.651,281.668h3.3v47.916h-3.3V281.668z"/>
	<path d="M735.212,329.584h-4.29l-9.9-33h3.301l9.239,30.096h2.442l9.306-30.096h3.366l-14.651,47.982h-3.366L735.212,329.584z"/>
	<path d="M770.983,283.583h3.3v46.001h-3.3V283.583z"/>
	<path d="M785.173,296.584h3.234v2.508c2.111-1.144,4.068-1.947,5.874-2.409c1.804-0.462,3.673-0.692,5.609-0.692
		c2.815,0,4.982,0.495,6.501,1.484c1.52,0.99,2.574,2.641,3.168,4.95c0.596,2.311,0.893,5.622,0.893,9.935v17.225h-3.168v-17.16
		c0-3.563-0.21-6.291-0.627-8.183c-0.42-1.892-1.155-3.256-2.211-4.092c-1.058-0.836-2.619-1.255-4.688-1.255
		c-1.805,0-3.653,0.243-5.544,0.727c-1.893,0.484-3.323,0.99-4.29,1.518l-1.452,0.727v27.719h-3.3V296.584z"/>
	<path d="M867.869,283.583v46.001h-6.863l-20.854-43.032h-1.254v43.032h-3.302v-46.001h6.931l20.657,43.033h1.452v-43.033H867.869z"
		/>
	<path d="M882.555,328.561c-1.959-1.076-3.334-2.813-4.125-5.213c-0.793-2.397-1.188-5.709-1.188-9.934
		c0-4.443,0.418-7.908,1.255-10.395c0.834-2.485,2.231-4.278,4.19-5.379c1.956-1.099,4.695-1.649,8.217-1.649
		c3.563,0,6.324,0.561,8.283,1.683c1.956,1.122,3.343,2.927,4.156,5.412c0.814,2.487,1.223,5.93,1.223,10.329
		c0,4.226-0.387,7.535-1.155,9.935c-0.77,2.398-2.135,4.137-4.092,5.213c-1.959,1.078-4.765,1.617-8.415,1.617
		C887.295,330.178,884.512,329.639,882.555,328.561z M897.471,325.955c1.431-0.881,2.408-2.277,2.938-4.191s0.792-4.697,0.792-8.35
		c0-3.871-0.287-6.83-0.857-8.876c-0.571-2.046-1.573-3.498-3.004-4.356c-1.43-0.857-3.53-1.287-6.303-1.287
		c-2.816,0-4.961,0.43-6.436,1.287c-1.476,0.858-2.497,2.311-3.068,4.356c-0.572,2.046-0.857,5.005-0.857,8.876
		c0,3.609,0.265,6.381,0.791,8.316c0.529,1.938,1.529,3.344,3.004,4.225c1.474,0.881,3.662,1.32,6.566,1.32
		C893.895,327.275,896.04,326.836,897.471,325.955z"/>
	<path d="M914.53,326.186c-1.761-2.662-2.641-6.809-2.641-12.44c0-4.269,0.474-7.688,1.418-10.262
		c0.946-2.574,2.466-4.466,4.556-5.677c2.09-1.209,4.895-1.814,8.415-1.814c2.771,0,5.455,0.264,8.052,0.792V281.67h3.168v47.916
		h-3.234v-2.639c-3.432,2.156-7.104,3.232-11.021,3.232C919.193,330.178,916.289,328.848,914.53,326.186z M928.721,326.516
		c1.76-0.506,3.123-1.022,4.092-1.551l1.519-0.727v-24.552c-2.904-0.571-5.633-0.857-8.185-0.857c-2.771,0-4.938,0.506-6.502,1.518
		c-1.562,1.013-2.672,2.553-3.332,4.62c-0.659,2.069-0.989,4.84-0.989,8.317c0,4.664,0.627,8.161,1.881,10.493
		s3.421,3.498,6.501,3.498C925.288,327.275,926.96,327.021,928.721,326.516z"/>
	<path d="M948.817,326.285c-2.003-2.596-3.003-6.711-3.003-12.342c0-6.115,1.089-10.637,3.267-13.564
		c2.179-2.926,5.599-4.389,10.263-4.389c4.313,0,7.502,1.265,9.57,3.795c2.068,2.53,3.102,6.48,3.102,11.847l-0.064,2.771h-22.836
		c-0.044,3.168,0.264,5.688,0.924,7.558c0.66,1.871,1.792,3.233,3.399,4.093c1.604,0.858,3.838,1.286,6.698,1.286
		c1.188,0,2.584-0.032,4.19-0.098c1.604-0.066,3.091-0.166,4.455-0.298l1.979-0.198l0.134,2.707
		c-4.577,0.481-8.472,0.726-11.683,0.726C954.283,330.178,950.818,328.881,948.817,326.285z M968.717,311.633
		c0-4.576-0.75-7.865-2.244-9.868c-1.497-2.001-3.873-3.003-7.129-3.003c-3.389,0-5.938,1.046-7.656,3.136
		c-1.715,2.09-2.596,5.334-2.639,9.735H968.717L968.717,311.633z"/>
	<path d="M986.139,341.465c2.554-1.408,4.434-2.631,5.644-3.664c1.211-1.033,2.035-2.189,2.476-3.465
		c0.439-1.275,0.66-3.035,0.66-5.279v-32.472h3.168v32.539c0,2.64-0.297,4.785-0.892,6.435s-1.628,3.112-3.103,4.391
		c-1.475,1.275-3.662,2.66-6.565,4.156L986.139,341.465z M994.917,283.384h3.168v4.356h-3.168V283.384z"/>
	<path d="M1008.776,329.387l-1.979-0.33l0.264-2.904c4.973,0.748,8.733,1.123,11.286,1.123c3.079,0,5.347-0.528,6.798-1.584
		c1.452-1.057,2.179-2.75,2.179-5.082c0-1.672-0.363-2.938-1.089-3.797c-0.727-0.856-1.649-1.461-2.772-1.813
		c-1.121-0.353-2.672-0.66-4.651-0.924c-0.31-0.089-0.814-0.177-1.519-0.265c-2.861-0.483-5.061-1.033-6.601-1.649
		c-1.54-0.615-2.641-1.451-3.301-2.509c-0.659-1.057-0.989-2.483-0.989-4.289c0-3.477,1.045-5.896,3.135-7.261
		c2.09-1.363,5.115-2.046,9.075-2.046c3.521,0,6.577,0.221,9.175,0.66l1.715,0.33l-0.131,2.838
		c-4.488-0.703-8.119-1.056-10.891-1.056c-3.08,0-5.313,0.506-6.699,1.518c-1.386,1.013-2.078,2.531-2.078,4.555
		c0,1.408,0.329,2.486,0.989,3.234s1.527,1.287,2.605,1.617s2.65,0.67,4.721,1.023c0.308,0.088,0.769,0.176,1.386,0.264
		c2.903,0.527,5.115,1.088,6.633,1.682c1.519,0.596,2.662,1.465,3.432,2.607c0.771,1.145,1.156,2.771,1.156,4.885
		c0,3.52-1.022,6.061-3.069,7.623c-2.046,1.563-5.203,2.342-9.472,2.342C1015.398,330.178,1012.297,329.914,1008.776,329.387z"/>
	<path d="M449.142,406.871c-1.518-1.672-2.276-4.027-2.276-7.063c0-3.035,0.748-5.333,2.244-6.896s3.894-2.541,7.193-2.938
		l11.814-1.188v-3.168c0-2.554-0.54-4.435-1.617-5.644c-1.079-1.211-2.563-1.815-4.455-1.815c-1.937,0-3.74,0.065-5.412,0.198
		c-1.672,0.132-4.29,0.396-7.854,0.791l-0.198-2.705c4.752-0.836,8.976-1.254,12.672-1.254c3.476,0,6.028,0.836,7.656,2.509
		c1.627,1.672,2.441,4.313,2.441,7.92V403.9c0.043,0.705,0.462,1.299,1.255,1.782c0.791,0.484,1.891,0.814,3.3,0.988l-0.132,2.707
		c-1.584,0-3.004-0.242-4.258-0.727c-1.254-0.482-2.233-1.164-2.937-2.045c-4.136,1.848-8.405,2.771-12.804,2.771
		C452.871,409.379,450.66,408.543,449.142,406.871z M466.334,404.693l1.782-0.595v-12.606l-11.418,1.123
		c-2.289,0.176-3.927,0.814-4.917,1.914s-1.485,2.729-1.485,4.883c0,4.752,1.914,7.129,5.742,7.129
		C459.471,406.541,462.902,405.926,466.334,404.693z"/>
	<path d="M481.712,375.785h3.234v2.508c2.111-1.145,4.068-1.947,5.874-2.41c1.804-0.461,3.673-0.691,5.609-0.691
		c2.815,0,4.983,0.494,6.501,1.484c1.519,0.99,2.574,2.641,3.168,4.949c0.595,2.311,0.892,5.621,0.892,9.934v17.228h-3.168v-17.16
		c0-3.563-0.209-6.291-0.627-8.185c-0.419-1.893-1.155-3.256-2.211-4.092c-1.057-0.836-2.619-1.256-4.687-1.256
		c-1.805,0-3.653,0.244-5.544,0.727c-1.893,0.484-3.323,0.99-4.29,1.519l-1.452,0.728v27.721h-3.3V375.785L481.712,375.785z"/>
	<path d="M517.946,405.385c-1.761-2.66-2.641-6.807-2.641-12.439c0-4.268,0.474-7.688,1.419-10.264
		c0.946-2.574,2.465-4.465,4.555-5.676c2.089-1.209,4.894-1.814,8.415-1.814c2.771,0,5.455,0.265,8.052,0.791V360.87h3.168v47.916
		h-3.234v-2.642c-3.432,2.156-7.105,3.234-11.021,3.234C522.609,409.379,519.706,408.049,517.946,405.385z M532.136,405.715
		c1.759-0.504,3.124-1.021,4.092-1.551l1.519-0.725v-24.554c-2.904-0.571-5.632-0.856-8.185-0.856c-2.771,0-4.939,0.506-6.501,1.518
		s-2.673,2.553-3.333,4.619c-0.659,2.07-0.989,4.842-0.989,8.316c0,4.664,0.627,8.161,1.881,10.493s3.421,3.498,6.501,3.498
		C528.704,406.475,530.376,406.223,532.136,405.715z"/>
	<path d="M565.762,406.871c-1.518-1.672-2.276-4.027-2.276-7.063c0-3.035,0.748-5.333,2.244-6.896
		c1.495-1.563,3.894-2.541,7.193-2.938l11.814-1.188v-3.168c0-2.554-0.54-4.435-1.617-5.644c-1.079-1.211-2.563-1.815-4.455-1.815
		c-1.937,0-3.74,0.065-5.412,0.198c-1.672,0.132-4.29,0.396-7.854,0.791l-0.198-2.705c4.752-0.836,8.976-1.254,12.672-1.254
		c3.476,0,6.028,0.836,7.656,2.509c1.627,1.672,2.441,4.313,2.441,7.92V403.9c0.043,0.705,0.462,1.299,1.254,1.782
		c0.793,0.484,1.892,0.814,3.301,0.988l-0.133,2.707c-1.584,0-3.003-0.242-4.257-0.727c-1.254-0.482-2.233-1.164-2.937-2.045
		c-4.136,1.848-8.405,2.771-12.805,2.771C569.491,409.379,567.28,408.543,565.762,406.871z M582.955,404.693l1.782-0.595v-12.606
		l-11.418,1.123c-2.289,0.176-3.928,0.814-4.917,1.914c-0.99,1.1-1.485,2.729-1.485,4.883c0,4.752,1.914,7.129,5.742,7.129
		C576.091,406.541,579.521,405.926,582.955,404.693z"/>
	<path d="M598.729,360.869h3.3v47.916h-3.3V360.869z"/>
	<path d="M613.049,408.586l-1.979-0.33l0.264-2.902c4.972,0.748,8.733,1.121,11.286,1.121c3.079,0,5.346-0.526,6.798-1.584
		c1.452-1.057,2.178-2.75,2.178-5.082c0-1.672-0.362-2.938-1.089-3.795c-0.726-0.857-1.65-1.463-2.771-1.813
		c-1.122-0.351-2.674-0.66-4.653-0.925c-0.31-0.088-0.815-0.176-1.519-0.266c-2.86-0.482-5.061-1.033-6.6-1.648
		c-1.541-0.616-2.64-1.452-3.3-2.508c-0.66-1.057-0.99-2.485-0.99-4.291c0-3.475,1.045-5.895,3.135-7.26
		c2.09-1.363,5.115-2.047,9.075-2.047c3.521,0,6.578,0.221,9.174,0.66l1.717,0.33l-0.133,2.838
		c-4.487-0.703-8.117-1.055-10.89-1.055c-3.081,0-5.313,0.506-6.699,1.518c-1.386,1.012-2.079,2.531-2.079,4.555
		c0,1.408,0.33,2.486,0.99,3.232c0.66,0.75,1.528,1.287,2.607,1.617c1.078,0.33,2.649,0.672,4.719,1.023
		c0.307,0.088,0.769,0.176,1.386,0.264c2.904,0.529,5.115,1.09,6.633,1.684c1.519,0.594,2.662,1.463,3.433,2.607
		c0.77,1.145,1.155,2.771,1.155,4.883c0,3.521-1.023,6.063-3.069,7.623c-2.046,1.563-5.204,2.344-9.471,2.344
		C619.671,409.379,616.569,409.115,613.049,408.586z"/>
	<path d="M646.939,407.762c-1.958-1.078-3.333-2.813-4.125-5.215c-0.792-2.396-1.188-5.709-1.188-9.932
		c0-4.443,0.418-7.91,1.254-10.396c0.835-2.484,2.232-4.277,4.191-5.379c1.957-1.098,4.695-1.648,8.217-1.648
		c3.563,0,6.325,0.562,8.283,1.683c1.957,1.123,3.343,2.928,4.158,5.412c0.813,2.485,1.221,5.93,1.221,10.33
		c0,4.223-0.386,7.535-1.155,9.932c-0.771,2.4-2.135,4.137-4.092,5.215c-1.958,1.078-4.763,1.617-8.415,1.617
		C651.68,409.379,648.896,408.84,646.939,407.762z M661.855,405.154c1.43-0.879,2.408-2.277,2.937-4.191s0.792-4.695,0.792-8.348
		c0-3.871-0.287-6.832-0.858-8.877c-0.571-2.047-1.573-3.498-3.003-4.357c-1.43-0.857-3.53-1.287-6.303-1.287
		c-2.815,0-4.961,0.43-6.435,1.287c-1.476,0.859-2.498,2.311-3.069,4.357c-0.572,2.045-0.857,5.006-0.857,8.877
		c0,3.606,0.264,6.379,0.791,8.315c0.528,1.937,1.528,3.345,3.004,4.224c1.474,0.881,3.662,1.319,6.566,1.319
		C658.28,406.475,660.425,406.035,661.855,405.154z"/>
	<path d="M696.405,365.752v19.867h20.063v2.969h-20.063v20.197h-3.3v-46.002h26.729v2.969H696.405z"/>
	<path d="M724.355,406.871c-1.519-1.672-2.277-4.027-2.277-7.063c0-3.035,0.748-5.333,2.244-6.896s3.894-2.541,7.193-2.938
		l11.814-1.188v-3.168c0-2.554-0.54-4.435-1.617-5.644c-1.079-1.211-2.563-1.815-4.455-1.815c-1.937,0-3.74,0.065-5.412,0.198
		c-1.672,0.132-4.29,0.396-7.854,0.791l-0.198-2.705c4.752-0.836,8.976-1.254,12.672-1.254c3.477,0,6.028,0.836,7.656,2.509
		c1.627,1.672,2.442,4.313,2.442,7.92V403.9c0.043,0.705,0.462,1.299,1.254,1.782c0.792,0.484,1.891,0.814,3.3,0.988l-0.132,2.707
		c-1.584,0-3.003-0.242-4.258-0.727c-1.254-0.482-2.233-1.164-2.937-2.045c-4.136,1.848-8.405,2.771-12.804,2.771
		C728.084,409.379,725.874,408.543,724.355,406.871z M741.548,404.693l1.782-0.595v-12.606l-11.418,1.123
		c-2.289,0.176-3.927,0.814-4.917,1.914s-1.485,2.729-1.485,4.883c0,4.752,1.914,7.129,5.742,7.129
		C734.685,406.541,738.116,405.926,741.548,404.693z"/>
	<path d="M756.926,375.785h3.234v2.508c3.388-2.068,6.952-3.102,10.691-3.102c4.181,0,6.996,1.166,8.448,3.498
		c1.408-0.924,3.3-1.738,5.677-2.443c2.375-0.703,4.795-1.055,7.26-1.055c2.64,0,4.686,0.526,6.138,1.584
		c1.452,1.055,2.464,2.75,3.036,5.082c0.571,2.332,0.857,5.565,0.857,9.701v17.227h-3.233v-17.16c0-3.652-0.198-6.412-0.594-8.283
		c-0.396-1.869-1.122-3.211-2.179-4.025c-1.056-0.813-2.64-1.223-4.752-1.223c-1.893,0-3.762,0.244-5.609,0.727
		c-1.849,0.484-3.212,0.99-4.092,1.519l-1.387,0.728c0.748,0.617,1.122,4.137,1.122,10.561v17.16h-3.3v-17.029
		c0-3.607-0.198-6.369-0.594-8.281c-0.396-1.914-1.112-3.289-2.146-4.125c-1.034-0.836-2.563-1.256-4.587-1.256
		c-1.76,0-3.542,0.232-5.346,0.693c-1.805,0.463-3.168,0.98-4.092,1.551l-1.254,0.727v27.722h-3.301V375.785L756.926,375.785z"/>
	<path d="M812.035,362.584h3.168v4.357h-3.168V362.584z M812.035,375.785h3.168v33h-3.168V375.785z"/>
	<path d="M825.697,360.869h3.299v47.916h-3.299V360.869z"/>
	<path d="M839.424,362.584h3.168v4.357h-3.168V362.584z M839.424,375.785h3.168v33h-3.168V375.785z"/>
	<path d="M852.92,406.871c-1.518-1.672-2.276-4.027-2.276-7.063c0-3.035,0.747-5.333,2.243-6.896s3.896-2.541,7.195-2.938
		l11.813-1.188v-3.168c0-2.554-0.539-4.435-1.616-5.644c-1.079-1.211-2.563-1.815-4.455-1.815c-1.938,0-3.74,0.065-5.412,0.198
		c-1.673,0.132-4.29,0.396-7.854,0.791l-0.196-2.705c4.752-0.836,8.977-1.254,12.672-1.254c3.476,0,6.026,0.836,7.655,2.509
		c1.627,1.672,2.441,4.313,2.441,7.92V403.9c0.044,0.705,0.463,1.299,1.254,1.782c0.793,0.484,1.893,0.814,3.301,0.988l-0.133,2.707
		c-1.584,0-3.002-0.242-4.256-0.727c-1.254-0.482-2.234-1.164-2.938-2.045c-4.138,1.848-8.404,2.771-12.806,2.771
		C856.649,409.379,854.438,408.543,852.92,406.871z M870.113,404.693l1.781-0.595v-12.606l-11.418,1.123
		c-2.288,0.176-3.927,0.814-4.917,1.914c-0.989,1.1-1.484,2.729-1.484,4.883c0,4.752,1.914,7.129,5.742,7.129
		C863.25,406.541,866.682,405.926,870.113,404.693z"/>
	<path d="M885.49,375.785h3.233v4.883c3.739-2.727,7.986-4.596,12.738-5.609v3.365c-1.805,0.354-3.818,0.969-6.039,1.85
		c-2.223,0.881-3.84,1.672-4.852,2.375l-1.781,0.99v25.146h-3.301L885.49,375.785L885.49,375.785z"/>
	<path d="M919.348,375.785h3.301l7.854,30.096h0.791l9.108-29.436h3.433l9.041,29.436h0.924l7.724-30.096h3.365l-8.58,33H950.5
		l-8.383-28.248l-8.382,28.248h-5.874L919.348,375.785z"/>
	<path d="M972.146,362.584h3.168v4.357h-3.168V362.584z M972.146,375.785h3.168v33h-3.168V375.785z"/>
	<path d="M989.57,408.455c-1.188-0.703-2.046-1.902-2.574-3.598c-0.527-1.693-0.791-4.103-0.791-7.228v-18.94h-5.018v-2.904h5.018
		v-10.494h3.168v10.494h11.549v2.904h-11.549v16.696c0,3.035,0.109,5.291,0.33,6.767c0.219,1.475,0.714,2.584,1.484,3.332
		c0.77,0.748,2.034,1.123,3.795,1.123l6.27-0.529l0.266,2.772c-3.081,0.438-5.412,0.658-6.996,0.658
		C992.408,409.51,990.758,409.158,989.57,408.455z"/>
	<path d="M1007.06,360.869h3.301v16.896c3.738-1.718,7.458-2.574,11.153-2.574c2.904,0,5.125,0.494,6.666,1.483
		c1.539,0.99,2.617,2.642,3.234,4.949c0.615,2.312,0.924,5.621,0.924,9.935v17.227h-3.301v-17.094c0-3.785-0.209-6.623-0.627-8.517
		c-0.418-1.891-1.199-3.211-2.344-3.959s-2.882-1.123-5.214-1.123c-2.903,0-5.938,0.617-9.106,1.851l-1.387,0.527v28.313h-3.301
		L1007.06,360.869L1007.06,360.869z"/>
	<path d="M1057.482,362.783h16.764c4.84,0,8.383,1.166,10.627,3.498s3.365,5.938,3.365,10.824c0,5.146-1.154,8.985-3.465,11.516
		c-2.312,2.531-5.819,3.795-10.527,3.795h-13.463v16.369h-3.301V362.783z M1074.181,389.314c7.039,0,10.561-4.068,10.561-12.209
		c0-3.873-0.836-6.722-2.508-8.547c-1.673-1.826-4.355-2.74-8.053-2.74h-13.396v23.496H1074.181z"/>
	<path d="M1129.355,362.783v46.002h-3.234V387.27h-26.069v21.517h-3.3v-46.002h3.3v21.383h26.069v-21.383L1129.355,362.783
		L1129.355,362.783z"/>
	<path d="M1141.235,362.783h16.764c4.84,0,8.382,1.166,10.626,3.498s3.366,5.938,3.366,10.824c0,5.146-1.155,8.985-3.465,11.516
		c-2.312,2.531-5.819,3.795-10.527,3.795h-13.464v16.369h-3.3V362.783z M1157.933,389.314c7.04,0,10.562-4.068,10.562-12.209
		c0-3.873-0.837-6.722-2.508-8.547c-1.674-1.826-4.356-2.74-8.054-2.74h-13.396v23.496H1157.933z"/>
</g>
</svg>
