<?xml version="1.0" encoding="utf-8"?>
<!-- Generator: Adobe Illustrator 22.0.1, SVG Export Plug-In . SVG Version: 6.00 Build 0)  -->
<svg version="1.1" id="Layer_1" xmlns="http://www.w3.org/2000/svg" xmlns:xlink="http://www.w3.org/1999/xlink" x="0px" y="0px"
	 viewBox="0 0 4451 6106.1" style="enable-background:new 0 0 4451 6106.1;" xml:space="preserve">
<style type="text/css">
	.st0{display:none;}
	.st1{display:inline;opacity:0.6;}
	.st2{fill:none;stroke:#121212;stroke-width:30;stroke-linecap:round;stroke-miterlimit:10;}
	.st3{fill:#121212;}
	.st4{display:inline;}
	.st5{display:inline;fill:#007AFF;}
	.st6{display:inline;fill:#E23237;}
	.st7{display:inline;fill:#121212;}
	.st8{font-family:'Cairo-Light';}
	.st9{font-size:236.2701px;}
	.st10{font-size:276.8966px;}
	.st11{font-family:'Cairo-ExtraLight';}
	.st12{font-size:275.1063px;}
	.st13{fill:#8099CE;}
	.st14{fill:#8DC64E;}
	.st15{opacity:0.7;}
	.st16{display:none;fill:#231F20;}
	.st17{font-size:328.5735px;}
	.st18{fill:#231F20;}
	.st19{fill:none;stroke:#231F20;stroke-width:30;stroke-miterlimit:10;}
</style>
<g class="st0">
	<g class="st1">
		<line class="st2" x1="1788.6" y1="2266.9" x2="1788.6" y2="3839.2"/>
		<g>
			<path class="st3" d="M1721,2270.3c0-37.4,30.3-67.7,67.7-67.7s67.7,30.3,67.7,67.7c0,37.4-30.3,67.7-67.7,67.7
				S1721,2307.7,1721,2270.3z"/>
		</g>
		<g>
			<path class="st3" d="M1721,3835.8c0,37.4,30.3,67.7,67.7,67.7s67.7-30.3,67.7-67.7c0-37.4-30.3-67.7-67.7-67.7
				S1721,3798.4,1721,3835.8z"/>
		</g>
	</g>
</g>
<g class="st0">
	<path class="st4" d="M2382.7,2528.4h75.3c21.2,0,36.9,3.9,47.2,11.6c10.3,7.8,15.4,19.7,15.4,35.7c0,11.4-2.5,20.5-7.4,27.3
		c-4.9,6.8-12.2,11.9-21.9,15.5c12.6,3.7,21.9,9.3,27.9,16.7c6.1,7.4,9.1,17.4,9.1,30.1c0,17.3-5.5,29.9-16.5,37.7
		c-11,7.8-27.2,11.8-48.6,11.8h-80.6V2528.4z M2460.5,2613.4c15,0,26.1-3.1,33.3-9.2c7.2-6.2,10.8-15.5,10.8-27.9
		c0-12.7-3.7-21.7-11.1-27.3c-7.4-5.5-19.3-8.3-35.8-8.3h-59.6v72.7H2460.5z M2462.6,2702.5c16.1,0,28.4-3,37-9.1
		c8.6-6.1,13-15.7,13-28.9c0-14.4-4.8-24.5-14.4-30.2c-9.6-5.7-22.2-8.6-37.8-8.6h-62.4v76.7H2462.6z"/>
	<path class="st4" d="M2586.7,2711.3c-7-3.9-11.9-10.6-14.7-19.9s-4.2-22.9-4.2-40.5v-69.8h15.4v69c0,15,0.9,26.3,2.8,34.1
		c1.9,7.8,5.2,13.2,10.2,16.4c4.9,3.2,12.3,4.8,22.2,4.8c17.3,0,33.9-4,49.7-12v-112.3h15.1v133.7h-15.4v-10.2
		c-8.2,4.3-16.2,7.4-23.9,9.5c-7.7,2-16.7,3.1-27,3.1C2603.8,2717.2,2593.7,2715.2,2586.7,2711.3z"/>
	<path class="st4" d="M2730.3,2527.6h14.8v17.6h-14.8V2527.6z M2730.3,2581.1h14.8v133.7h-14.8V2581.1z"/>
	<path class="st4" d="M2794.2,2520.6h15.4v194.1h-15.4V2520.6z"/>
	<path class="st4" d="M2862.1,2701c-8.2-10.8-12.3-27.6-12.3-50.4c0-17.3,2.2-31.2,6.6-41.6c4.4-10.4,11.5-18.1,21.3-23
		c9.8-4.9,22.9-7.4,39.4-7.4c13,0,25.5,1.1,37.7,3.2v-61.2h14.8v194.1h-15.1v-10.7c-16.1,8.7-33.2,13.1-51.6,13.1
		C2883.9,2717.2,2870.3,2711.8,2862.1,2701z M2928.5,2702.3c8.2-2,14.6-4.1,19.1-6.3l7.1-2.9v-99.5c-13.6-2.3-26.3-3.5-38.3-3.5
		c-13,0-23.1,2.1-30.4,6.2c-7.3,4.1-12.5,10.3-15.6,18.7c-3.1,8.4-4.6,19.6-4.6,33.7c0,18.9,2.9,33.1,8.8,42.5
		c5.9,9.5,16,14.2,30.4,14.2C2912.4,2705.4,2920.2,2704.4,2928.5,2702.3z"/>
	<path class="st5" d="M3093.8,2712.2l-13-1.6l2.9-20.1c33,3.8,58,5.6,74.9,5.6c35.7,0,53.5-14.5,53.5-43.6c0-7.9-1.6-14.2-4.9-18.8
		c-3.3-4.6-8.8-8.4-16.6-11.3c-7.8-2.9-19.2-5.6-34.2-8.1c-19.8-3.6-35.2-7.6-46.1-12.2c-11-4.6-19-10.8-24.1-18.5
		c-5.1-7.7-7.6-18.1-7.6-31c0-38.9,26.9-58.3,80.7-58.3c18.6,0,43.8,2.1,75.6,6.3l-2.5,20.4c-34.7-3.6-58.5-5.3-71.3-5.3
		c-36.2,0-54.3,11.8-54.3,35.4c0,9,1.7,15.8,5.2,20.5c3.5,4.7,9.5,8.5,17.9,11.4c8.4,2.9,21.8,6.2,40.2,9.7
		c17.8,3.6,31.7,7.5,41.4,11.9c9.8,4.4,16.9,10.2,21.5,17.4c4.6,7.2,6.9,16.8,6.9,28.7c0,44.5-26.7,66.7-80,66.7
		C3143.1,2717.6,3121,2715.8,3093.8,2712.2z"/>
	<path class="st5" d="M3278.8,2563h19.5v151.8h-19.5V2563z"/>
	<path class="st5" d="M3469.3,2563v151.8h-35.7l-68.1-136.9h-4.8v136.9h-19.5V2563h36.5l67.4,136.9h5.1V2563H3469.3z"/>
	<path class="st5" d="M3533,2708.6c-9.9-5.6-17-14-21.3-25.3c-4.3-11.3-6.5-26.1-6.5-44.4c0-18.1,2.2-32.9,6.5-44.3
		c4.3-11.4,11.4-19.9,21.1-25.4c9.8-5.6,23-8.3,39.8-8.3c15.2,0,31.5,1.5,48.9,4.4l8.6,1.3l-0.8,14c-20.9-3.1-39.1-4.6-54.4-4.6
		c-12.8,0-22.8,2.1-30,6.3c-7.2,4.2-12.2,10.7-15.1,19.7c-2.9,9-4.3,21.3-4.3,37c0,15.6,1.4,28,4.3,37c2.9,9,7.9,15.6,14.9,19.9
		c7.1,4.2,17.1,6.4,29.9,6.4c11.3,0,23.4-1,36.2-3.1v-46.7h-29.1v-15.1h48.4v74.6c-21.3,3.5-40.3,5.3-57,5.3
		C3556.2,2716.9,3542.8,2714.2,3533,2708.6z"/>
	<path class="st5" d="M3764.8,2699.6v15.1h-96.5V2563h19.5v136.7H3764.8z"/>
	<path class="st5" d="M3809.1,2577.9v52.4h71.9v14.7h-71.9v54.8h87.1v14.9h-106.6V2563h106.6v14.9H3809.1z"/>
	<path class="st5" d="M4018.5,2497.9h91.5c27.3,0,47.4,5.7,60.4,17.1c13,11.4,19.5,29,19.5,52.8c0,49.3-26.7,74-80,74h-63.7v73
		h-27.9V2497.9z M4109.7,2620.4c34.5,0,51.7-17.5,51.7-52.6c0-16.9-4.1-29.2-12.3-37c-8.2-7.7-21.3-11.6-39.4-11.6h-63.3v101.2
		H4109.7z"/>
	<path class="st5" d="M4315.2,2675.7h-75l-12.7,39h-19.2l48.1-151.8h42.5l48.1,151.8h-19.2L4315.2,2675.7z M4244.6,2660.6h66.4
		l-26.6-83.1h-13.2L4244.6,2660.6z"/>
	<path class="st5" d="M4392.3,2708.6c-9.9-5.6-17-14-21.3-25.3c-4.3-11.3-6.5-26.1-6.5-44.4c0-18.1,2.2-32.9,6.5-44.3
		c4.3-11.4,11.4-19.9,21.1-25.4c9.8-5.6,23-8.3,39.8-8.3c15.2,0,31.5,1.5,48.9,4.4l8.6,1.3l-0.8,14c-20.9-3.1-39.1-4.6-54.5-4.6
		c-12.8,0-22.8,2.1-30,6.3c-7.2,4.2-12.2,10.7-15.1,19.7c-2.9,9-4.3,21.3-4.3,37c0,15.6,1.4,28,4.3,37c2.9,9,7.9,15.6,14.9,19.9
		c7.1,4.2,17.1,6.4,29.9,6.4c11.3,0,23.4-1,36.2-3.1v-46.7h-29.1v-15.1h48.4v74.6c-21.3,3.5-40.3,5.3-57,5.3
		C4415.6,2716.9,4402.2,2714.2,4392.3,2708.6z"/>
	<path class="st5" d="M4547.2,2577.9v52.4h71.9v14.7h-71.9v54.8h87.1v14.9h-106.6V2563h106.6v14.9H4547.2z"/>
	<path class="st4" d="M2365.7,2849.3h16.1l40.7,174.1h10.8l46.3-171.9h18.2l46.3,171.9h10.8l40.7-174.1h15.7l-44.8,186.4h-34.3
		l-43.8-166.6l-43.5,166.6h-34.3L2365.7,2849.3z"/>
	<path class="st4" d="M2647.4,3022.3c-9.4-10.5-14-27.2-14-50c0-24.8,5.1-43.1,15.3-54.9c10.2-11.9,26.2-17.8,48-17.8
		c20.2,0,35.1,5.1,44.8,15.4c9.7,10.3,14.5,26.3,14.5,48l-0.3,11.2h-106.8c-0.2,12.8,1.2,23,4.3,30.6c3.1,7.6,8.4,13.1,15.9,16.6
		c7.5,3.5,18,5.2,31.3,5.2c5.6,0,12.1-0.1,19.6-0.4c7.5-0.3,14.5-0.7,20.8-1.2l9.3-0.8l0.6,11c-21.4,2-39.6,2.9-54.6,2.9
		C2673,3038,2656.8,3032.8,2647.4,3022.3z M2740.5,2962.9c0-18.5-3.5-31.9-10.5-40c-7-8.1-18.1-12.2-33.3-12.2
		c-15.9,0-27.8,4.2-35.8,12.7c-8,8.5-12.1,21.6-12.3,39.4H2740.5z"/>
	<path class="st4" d="M2802.2,3036.2l-7.4-0.8v-193.9h14.8v68.2c16.9-6.8,34.1-10.2,51.6-10.2c13.4,0,23.9,2.2,31.5,6.7
		c7.6,4.5,13.1,11.6,16.4,21.4c3.3,9.8,4.9,23.2,4.9,40.1c0,18.7-2.2,33-6.5,42.9c-4.3,9.9-11.8,16.9-22.4,21
		c-10.6,4.1-26,6.2-46.2,6.2C2826.4,3037.8,2814.1,3037.2,2802.2,3036.2z M2877.8,3020.4c7.8-3.9,13.2-10.1,16.2-18.5
		c3-8.4,4.5-20.1,4.5-35c0-14.1-1.2-25.1-3.7-33.2c-2.5-8-6.6-13.8-12.3-17.2c-5.8-3.5-13.9-5.2-24.4-5.2c-13.2,0-29.3,3.2-48.5,9.6
		v104c16.9,0.9,28.2,1.3,34,1.3C2858.6,3026.3,2870,3024.3,2877.8,3020.4z"/>
	<path class="st4" d="M3140.2,2981.6h-99.1l-18.5,54h-15.1l63.6-186.4h39.2l63.6,186.4h-15.1L3140.2,2981.6z M3098.9,2861.3h-16.1
		l-37.7,107.8h91.1L3098.9,2861.3z"/>
	<path class="st4" d="M3205.7,2901.9h15.1v10.7c16.7-8.7,33.8-13.1,51.2-13.1c18.9,0,32.6,5.3,40.9,16c8.3,10.7,12.5,27.9,12.5,51.6
		c0,16.9-2.2,30.5-6.5,40.8c-4.3,10.3-11.4,17.8-21.3,22.7c-9.9,4.9-23.2,7.4-39.8,7.4c-12.6,0-24.8-1.1-36.7-3.2v61.5h-15.4V2901.9
		z M3298.6,3012.8c7.6-9.2,11.4-24,11.4-44.5c0-20.3-3.2-34.9-9.7-43.7c-6.5-8.8-16.1-13.2-28.9-13.2c-7,0-14.7,1-23,3.1
		c-8.3,2.1-15.2,4.2-20.5,6.6l-6.8,3.5v98.7c18.1,2.3,31.1,3.5,38.9,3.5C3278.1,3026.5,3291,3021.9,3298.6,3012.8z"/>
	<path class="st4" d="M3366.2,2901.9h15.1v10.7c16.7-8.7,33.8-13.1,51.2-13.1c18.9,0,32.6,5.3,40.9,16c8.3,10.7,12.5,27.9,12.5,51.6
		c0,16.9-2.2,30.5-6.5,40.8c-4.3,10.3-11.4,17.8-21.3,22.7c-9.9,4.9-23.2,7.4-39.8,7.4c-12.6,0-24.8-1.1-36.7-3.2v61.5h-15.4V2901.9
		z M3459.1,3012.8c7.6-9.2,11.4-24,11.4-44.5c0-20.3-3.2-34.9-9.7-43.7c-6.5-8.8-16.1-13.2-28.9-13.2c-7,0-14.7,1-23,3.1
		c-8.3,2.1-15.2,4.2-20.5,6.6l-6.8,3.5v98.7c18.1,2.3,31.1,3.5,38.9,3.5C3438.6,3026.5,3451.5,3021.9,3459.1,3012.8z"/>
	<path class="st4" d="M3528.6,2841.5h15.4v194.1h-15.4V2841.5z"/>
	<path class="st4" d="M3592.8,2848.4h14.8v17.6h-14.8V2848.4z M3592.8,2901.9h14.8v133.7h-14.8V2901.9z"/>
	<path class="st4" d="M3671.2,3031.1c-8.9-4.6-15.1-11.9-18.8-21.9c-3.7-10-5.6-23.4-5.6-40.4c0-12.8,1.1-24.1,3.4-33.8
		c2.3-9.7,7.6-18.1,16.1-25.3c8.4-7.1,21.2-10.7,38.3-10.7c6.4,0,12.7,0.2,18.8,0.7c6.2,0.4,14.8,1.5,25.9,3.1l-0.9,11
		c-16.3-1.6-28.8-2.4-37.7-2.4c-12.6,0-22.3,1.7-29.2,5.2c-6.9,3.5-11.8,9.4-14.7,17.6c-2.9,8.3-4.3,20.1-4.3,35.4
		c0,14.4,1.4,25.7,4.2,33.7c2.8,8,7.7,13.9,14.8,17.5c7.1,3.7,17.3,5.5,30.7,5.5l36.7-2.4l0.6,11.2c-18.7,2-32.5,2.9-41.4,2.9
		C3692.4,3038,3680.1,3035.7,3671.2,3031.1z"/>
	<path class="st4" d="M3787.1,3027.9c-7.1-6.8-10.7-16.3-10.7-28.6s3.5-21.6,10.5-27.9c7-6.3,18.2-10.3,33.6-11.9l55.3-4.8v-12.8
		c0-10.3-2.5-18-7.6-22.9c-5-4.9-12-7.4-20.8-7.4c-9.1,0-17.5,0.3-25.3,0.8c-7.8,0.5-20.1,1.6-36.7,3.2l-0.9-11
		c22.2-3.4,42-5.1,59.3-5.1c16.3,0,28.2,3.4,35.8,10.2c7.6,6.8,11.4,17.5,11.4,32.1v74.1c0.2,2.9,2.2,5.3,5.9,7.2
		c3.7,2,8.8,3.3,15.4,4l-0.6,11c-7.4,0-14-1-19.9-2.9c-5.9-2-10.4-4.7-13.7-8.3c-19.3,7.5-39.3,11.2-59.9,11.2
		C3804.6,3038,3794.2,3034.6,3787.1,3027.9z M3867.5,3019l8.3-2.4v-51.1l-53.4,4.5c-10.7,0.7-18.4,3.3-23,7.8
		c-4.6,4.5-6.9,11.1-6.9,19.8c0,19.3,9,28.9,26.9,28.9C3835.4,3026.5,3851.5,3024,3867.5,3019z"/>
	<path class="st4" d="M3964.2,3034.3c-5.6-2.8-9.6-7.7-12-14.6c-2.5-6.9-3.7-16.6-3.7-29.3v-76.7H3925v-11.8h23.5v-42.5h14.8v42.5
		h54v11.8h-54v67.7c0,12.3,0.5,21.4,1.5,27.4c1,6,3.3,10.5,6.9,13.5c3.6,3,9.5,4.5,17.8,4.5l29.3-2.1l1.2,11.2
		c-14.4,1.8-25.3,2.7-32.7,2.7C3977.4,3038.6,3969.7,3037.1,3964.2,3034.3z"/>
	<path class="st4" d="M4046,2848.4h14.8v17.6H4046V2848.4z M4046,2901.9h14.8v133.7H4046V2901.9z"/>
	<path class="st4" d="M4124.5,3031.5c-9.2-4.4-15.6-11.4-19.3-21.1c-3.7-9.7-5.6-23.1-5.6-40.2c0-18,2-32,5.9-42.1
		c3.9-10.1,10.4-17.3,19.6-21.8c9.2-4.5,22-6.7,38.4-6.7c16.7,0,29.6,2.3,38.7,6.8c9.2,4.5,15.6,11.9,19.4,21.9
		c3.8,10.1,5.7,24,5.7,41.8c0,17.1-1.8,30.5-5.4,40.2c-3.6,9.7-10,16.8-19.1,21.1c-9.2,4.4-22.3,6.6-39.4,6.6
		C4146.7,3038,4133.7,3035.8,4124.5,3031.5z M4194.3,3020.9c6.7-3.6,11.3-9.2,13.7-17c2.5-7.8,3.7-19,3.7-33.8c0-15.7-1.3-27.7-4-36
		c-2.7-8.3-7.4-14.2-14-17.6c-6.7-3.5-16.5-5.2-29.5-5.2c-13.2,0-23.2,1.7-30.1,5.2c-6.9,3.5-11.7,9.4-14.4,17.6
		c-2.7,8.3-4,20.3-4,36c0,14.6,1.2,25.8,3.7,33.7c2.5,7.8,7.1,13.5,14,17.1c6.9,3.6,17.1,5.3,30.7,5.3
		C4177.6,3026.3,4187.6,3024.5,4194.3,3020.9z"/>
	<path class="st4" d="M4268.2,2901.9h15.1v10.2c9.9-4.6,19-7.9,27.5-9.8c8.4-1.9,17.2-2.8,26.2-2.8c13.2,0,23.3,2,30.4,6
		c7.1,4,12,10.7,14.8,20.1c2.8,9.4,4.2,22.8,4.2,40.2v69.8h-14.8v-69.5c0-14.4-1-25.5-2.9-33.2c-2-7.7-5.4-13.2-10.3-16.6
		c-4.9-3.4-12.2-5.1-21.9-5.1c-8.4,0-17.1,1-25.9,2.9c-8.9,2-15.5,4-20.1,6.2l-6.8,2.9v112.3h-15.4V2901.9z"/>
	<path class="st4" d="M2399.5,3398.5c-11.6-8.7-17.4-22.7-17.4-42v-134.5h11.1v135c0,30.3,19.5,45.5,58.7,45.5
		c20.8,0,36.3-3.6,46.6-10.7c10.3-7.1,15.4-18.7,15.4-34.8v-135h10.5v134.5c0,19.3-6,33.2-17.9,42c-11.9,8.7-29.8,13.1-53.7,13.1
		C2428.9,3411.6,2411.1,3407.3,2399.5,3398.5z"/>
	<path class="st4" d="M2576.5,3408.4l-9-1.1l1.2-9.1c24.3,3.2,41.8,4.8,52.5,4.8c15.4,0,26.8-2.4,34-7.1
		c7.2-4.7,10.8-12.3,10.8-22.6c0-7.3-1.7-12.9-5.1-16.7c-3.4-3.8-7.7-6.5-13-8c-5.2-1.5-12.7-2.9-22.4-4.1c-3.7-0.4-6.5-0.7-8.3-1.1
		c-14-2-24.6-4.2-31.8-6.8c-7.2-2.6-12.3-5.9-15.3-10c-3-4.1-4.5-9.6-4.5-16.6c0-13.9,4.8-23.5,14.5-28.7c9.7-5.3,23.7-7.9,42-7.9
		c16.3,0,30.3,0.8,42,2.4l7.7,1.3l-0.6,8.6c-9.9-1.4-19.4-2.5-28.6-3.2c-9.2-0.7-16.4-1.1-21.8-1.1c-15.6,0-26.9,2.3-33.8,7
		c-6.9,4.6-10.3,11.3-10.3,20.1c0,6.6,1.8,11.5,5.4,14.8c3.6,3.3,8.1,5.6,13.4,6.8c5.3,1.2,14.7,2.9,28.1,5.1
		c14.2,2.1,24.9,4.4,32,6.7c7.1,2.3,12.4,5.8,16.1,10.4c3.6,4.6,5.4,11.2,5.4,19.8c0,13.9-4.8,24-14.4,30.2
		c-9.6,6.2-24.1,9.4-43.7,9.4C2608.7,3411.6,2594.5,3410.6,2576.5,3408.4z"/>
	<path class="st4" d="M2716.1,3222.1h10.5v14.7h-10.5V3222.1z M2716.4,3275.5h10.5v133.7h-10.5V3275.5z"/>
	<path class="st4" d="M2775.4,3275.5h10.5v10.7c10.5-4.8,20.1-8.2,28.9-10.2c8.7-2,17.8-2.9,27-2.9c13.4,0,23.5,2,30.4,5.9
		c6.9,3.9,11.7,10.6,14.5,20.1c2.8,9.5,4.2,23.1,4.2,40.9v69.3h-10.5V3340c0-15.3-1-27.1-2.9-35.3c-2-8.2-5.6-14.1-10.8-17.6
		c-5.2-3.6-12.9-5.3-23-5.3c-9.3,0-18.7,1.1-28.2,3.2c-9.6,2.1-16.8,4.4-21.8,6.7l-7.4,3.5v114.2h-10.8V3275.5z"/>
	<path class="st4" d="M2953.5,3468.6c-8.4-2.9-14.2-7.1-17.3-12.8c-3.1-5.7-4.6-13.5-4.6-23.5c0-6.4,0.8-11.5,2.3-15.1
		c1.5-3.7,3.8-6.7,6.8-9.1c3-2.4,8.5-6.3,16.5-11.6c-2.3-1.2-4-3.4-5.1-6.6c-1.1-3.1-1.7-6.4-1.7-9.8c0-2.1,0.6-4.5,1.7-7.2
		c1.1-2.7,3.8-7.6,7.9-14.7c-17.7-4.5-26.5-18-26.5-40.6c0-15.1,4.2-26.4,12.7-33.7c8.4-7.3,22.2-11,41.4-11
		c10.1,0,20.6,1.2,31.5,3.5l43.2-0.8v9.4l-33.6,0.3c4.1,2.5,7.3,6.6,9.4,12.2c2.2,5.6,3.2,12.4,3.2,20.5c0,15.7-4.4,26.9-13.3,33.6
		c-8.9,6.7-23.1,10-42.6,10c-6.6,0-12.2-0.4-17-1.1l-2.5,5.3c-1.4,3-2.6,5.7-3.4,8c-0.8,2.3-1.2,4.5-1.2,6.7c0,5.3,2.2,8.9,6.6,10.7
		c4.4,1.8,11,2.7,19.6,2.7l21.3-0.3c11.1,0,20.2,1,27.2,2.9c7,2,12.4,5.6,16.2,10.8c3.8,5.3,5.7,12.9,5.7,22.9c0,10-2.1,18-6.2,24.2
		c-4.1,6.2-11.1,10.8-20.8,13.9c-9.8,3.1-23.2,4.7-40.3,4.7C2974.3,3472.9,2961.9,3471.4,2953.5,3468.6z M3024.8,3461.2
		c7.8-2.2,13.4-5.9,16.8-11c3.4-5.1,5.1-12.1,5.1-21c0-7.5-1.1-13.1-3.2-16.8c-2.2-3.7-6.3-6.4-12.5-8c-6.2-1.6-15.6-2.3-28.4-2.1
		l-37-1.1c-6.8,3.9-11.7,7.2-14.8,9.8c-3.1,2.6-5.2,5.4-6.5,8.4c-1.2,3-1.9,7.1-1.9,12.3c0,8.6,1.5,15.2,4.5,19.9c3,4.7,8,8.1,15,10
		c7,2,17.1,2.9,30.3,2.9C3006.1,3464.6,3017,3463.5,3024.8,3461.2z M3020.2,3344.9c6.4-5.3,9.6-14.6,9.6-27.9
		c0-13.2-3.1-22.4-9.4-27.7c-6.3-5.3-17.1-7.9-32.6-7.9c-15.8,0-27.1,2.7-33.6,8.2c-6.6,5.4-9.9,14.8-9.9,27.9
		c0,13.2,3.2,22.4,9.7,27.5c6.5,5.2,17.5,7.8,33.2,7.8C3002.8,3352.8,3013.8,3350.2,3020.2,3344.9z"/>
	<path class="st6" d="M3293.4,3359.1h-99.9l-15.5,50.1h-34.1l64-214.2h71.2l64,214.2h-34.1L3293.4,3359.1z M3200.6,3332.6h85.5
		l-33.4-112.4H3234L3200.6,3332.6z"/>
	<path class="st6" d="M3375.7,3253.6h33.1v10.3c10.3-5,19.6-8.5,28-10.6c8.4-2.1,17.3-3.1,26.6-3.1c15.1,0,27,2.6,35.6,7.8
		c8.6,5.2,14.7,13.2,18.3,24.1c3.6,10.9,5.4,25.7,5.4,44.4v82.8h-33.4V3327c0-13.1-0.9-23.2-2.7-30.4c-1.8-7.2-5.2-12.3-10.1-15.6
		c-4.9-3.2-12-4.8-21.4-4.8c-12.7,0-26,2.4-39.9,7.2l-6.1,2.5v123.3h-33.4V3253.6z"/>
	<path class="st6" d="M3580.4,3471.7c-12.1-6.7-18.2-18-18.2-33.8c0-8.9,2-16,5.9-21.3c4-5.3,11.2-11.5,21.7-18.5
		c-3.8-2.3-6.7-5.3-8.4-9c-1.8-3.7-2.7-7.7-2.7-11.8c0-2.9,0.8-6,2.3-9.2c1.6-3.2,5.1-8.9,10.6-17c-18.2-8.3-27.3-23.8-27.3-46.4
		c0-36.1,23.4-54.2,70.1-54.2c11,0,23.2,1.4,36.7,4l54.6-1.2v24l-32-0.9c3.8,3.7,6.6,7.8,8.3,12.3c1.7,4.5,2.5,10.2,2.5,17.3
		c0,18.5-5.7,31.7-17.1,39.7c-11.4,8-29.2,12-53.4,12c-7.2,0-13.1-0.4-17.6-1.2c-3.8,7.9-5.8,13.6-5.8,17.1c0,5,2.3,8.2,7,9.7
		c4.7,1.5,11.9,2.2,21.7,2.2h12.6c16.8,0.2,30.2,1.4,40.3,3.4c10.1,2.1,17.8,6.3,23.4,12.6c5.5,6.3,8.3,15.5,8.3,27.6
		c0,18.3-6.8,31.6-20.3,40.2c-13.5,8.5-35.4,12.8-65.6,12.8C3611.7,3481.8,3592.5,3478.4,3580.4,3471.7z M3678.9,3451.7
		c7.3-4,11-11,11-20.7c0-5.8-1.4-10.1-4.1-12.9c-2.8-2.8-6.9-4.7-12.4-5.6c-5.5-0.9-13.7-1.5-24.4-1.7l-36.7-1.9
		c-6.5,4.4-10.9,8.3-13.3,11.8c-2.4,3.5-3.6,7.8-3.6,12.8c0,8.9,3.5,15.2,10.4,18.8c6.9,3.6,18.7,5.4,35.2,5.4
		C3658.9,3457.8,3671.6,3455.8,3678.9,3451.7z M3662.7,3327.7c5.6-4.8,8.4-12.7,8.4-23.7c0-10.8-2.9-18.6-8.6-23.4
		c-5.8-4.8-15-7.2-27.7-7.2c-12.9,0-22.3,2.4-28.2,7.3c-5.9,4.9-8.8,12.7-8.8,23.5c0,10.8,2.9,18.6,8.8,23.4
		c5.9,4.8,15.3,7.2,28.2,7.2C3647.8,3334.8,3657.1,3332.4,3662.7,3327.7z"/>
	<path class="st6" d="M3778.2,3405c-8.4-5.1-14.3-13.2-17.6-24.3c-3.4-11.1-5-26.4-5-45.9v-81.3h33.4v81.3c0,14.3,0.8,25.1,2.5,32.2
		c1.7,7.2,4.9,12.2,9.5,15.1c4.7,2.9,11.8,4.4,21.4,4.4c7.9,0,15.4-0.8,22.5-2.5c7.1-1.7,14.7-4,22.8-7.2v-123.3h33.4v155.7h-33.4
		V3399c-10.1,5-19.1,8.5-27.1,10.6c-8,2.1-16.8,3.1-26.4,3.1C3798.6,3412.7,3786.6,3410.1,3778.2,3405z"/>
	<path class="st6" d="M3952.9,3187.6h33.4v221.7h-33.4V3187.6z"/>
	<path class="st6" d="M4039.9,3400.2c-8.9-8.3-13.3-20.2-13.3-35.8c0-15.4,4.5-26.6,13.7-33.8c9.1-7.2,23.6-11.6,43.5-13.2l51-4
		v-12.1c0-9.1-2.3-15.7-6.8-19.8c-4.6-4-11.3-6.1-20.1-6.1c-20.1,0-43.4,1.2-69.7,3.7l-1.1-21.2c25.4-5.2,49-7.8,70.8-7.8
		c21.1,0,36.4,4.1,46,12.3c9.6,8.2,14.4,21.1,14.4,38.8v75c0.5,4.2,2.1,7.3,4.9,9.5c2.8,2.2,7.1,3.7,13.1,4.5l-1.1,22.4
		c-10.3,0-19.1-1-26.2-3s-13.5-5-19.1-9.2c-20.4,8.1-40.7,12.1-61.1,12.1C4061.7,3412.7,4048.8,3408.5,4039.9,3400.2z
		 M4127.3,3382.5l7.5-2.2v-45.8l-46.7,3.7c-9.3,0.8-16.2,3.3-20.7,7.3c-4.4,4-6.7,10-6.7,17.9c0,16.6,8,24.9,24.1,24.9
		C4099.5,3388.4,4113.6,3386.4,4127.3,3382.5z"/>
	<path class="st6" d="M4219.3,3253.6h33.1v19.6c21.3-11.8,42.4-19.5,63.3-23v29.3c-9.3,1.7-19.1,3.9-29.1,6.8
		c-10.1,2.9-18.5,5.7-25.2,8.4l-8.6,3.4v111.1h-33.4V3253.6z"/>
	<path class="st4" d="M2394.7,3551.8v84.8h96.6v8.8h-96.6v84.8h-11.4v-187.2h123.8v8.8H2394.7z"/>
	<path class="st4" d="M2533.3,3596.4h10.5v20.9c17.9-11.6,38.4-19.4,61.4-23.5v9.6c-8.6,1.4-18.4,4.1-29.2,8
		c-10.8,3.9-18.5,7.4-23,10.4l-9,4.5v103.7h-10.8V3596.4z"/>
	<path class="st4" d="M2635.7,3722.4c-7.1-6.8-10.7-16.1-10.7-28.1c0-11.9,3.4-21.1,10.3-27.4c6.9-6.3,17.8-10.4,32.6-12.2l58.7-5.1
		V3636c0-11.1-2.7-19.3-8-24.7c-5.4-5.4-12.7-8.2-21.9-8.2c-9.1,0-17,0.3-23.9,0.8c-6.9,0.5-19.8,1.8-38.7,3.7l-0.9-8.8
		c21.4-3.2,40.9-4.8,58.3-4.8c15.8,0,27.5,3.4,35,10.3c7.5,6.9,11.3,17.4,11.3,31.7v77c0.2,2.7,2.4,5,6.5,7.1
		c4.1,2.1,9.6,3.4,16.4,4.1l-0.6,8.3c-6.8,0-13.1-1.1-19-3.2c-5.9-2.1-10.1-5-12.8-8.6c-20.6,7.8-41.4,11.8-62.4,11.8
		C2652.8,3732.5,2642.8,3729.1,2635.7,3722.4z M2717.9,3715.7l8.6-2.9v-54.3l-57.4,4.8c-11.3,0.7-19.5,3.4-24.5,8.2
		c-5,4.7-7.6,11.8-7.6,21.3c0,20.7,9.7,31,29,31C2684,3723.7,2701.3,3721,2717.9,3715.7z"/>
	<path class="st4" d="M2787.4,3596.4h10.5v10.7c16.5-8.7,33.9-13.1,52.2-13.1c19.8,0,33,4.8,39.8,14.4c6-3.6,14.7-6.9,26.2-9.9
		c11.5-3,23.4-4.5,35.5-4.5c12.3,0,21.8,2.1,28.4,6.4c6.6,4.3,11.2,11.1,13.7,20.6c2.6,9.5,3.9,22.7,3.9,39.8v69.3h-10.8v-69.3
		c0-15.9-1-27.9-2.9-36c-2-8.1-5.6-13.9-10.8-17.2c-5.2-3.4-13.1-5.1-23.6-5.1c-9.9,0-19.6,1.1-29,3.2c-9.5,2.1-16.2,4.4-20.1,6.7
		l-6.8,3.2c3.9,0.7,5.9,15.6,5.9,44.7v69.8h-10.8v-69.3c0-15.3-1-27.1-2.9-35.3c-2-8.2-5.5-14.1-10.7-17.6
		c-5.1-3.6-12.8-5.3-22.8-5.3c-9.1,0-18.2,1-27.3,3.1c-9.2,2.1-15.9,4.3-20.2,6.8l-6.5,3.5v114.2h-10.8V3596.4z"/>
	<path class="st4" d="M3052.6,3716.6c-9.3-10.6-13.9-27.1-13.9-49.6c0-25,5-43.4,15-55.2c10-11.9,25.8-17.8,47.4-17.8
		c19.8,0,34.4,5.2,43.8,15.5c9.5,10.3,14.2,26.6,14.2,48.7v8.8h-109.3c-0.2,14.1,1.3,25.2,4.6,33.3c3.3,8.1,8.8,14.1,16.7,17.9
		c7.8,3.8,18.8,5.7,33,5.7c5.3,0,11.7-0.2,19-0.5c7.3-0.4,14.2-0.7,20.8-1.1l9.3-0.8l0.6,8.8c-25.1,1.4-42.8,2.1-53.1,2.1
		C3077.9,3732.5,3061.8,3727.2,3052.6,3716.6z M3147.7,3658.4c0-19.8-3.7-34-11.1-42.8c-7.4-8.7-19.1-13.1-35.2-13.1
		c-17.1,0-29.9,4.5-38.6,13.6c-8.6,9.1-13.1,23.2-13.3,42.2H3147.7z"/>
	<path class="st4" d="M3184.1,3596.4h11.4l39.2,125.1h3.4l45.7-122.5h11.7l45.4,122.5h4l38.9-125.1h11.4l-41.7,133.7h-21.3
		l-42.6-119.8l-42.9,119.8h-21L3184.1,3596.4z"/>
	<path class="st4" d="M3445.4,3726.2c-9-4.2-15.1-11.1-18.5-20.6c-3.4-9.5-5.1-23.1-5.1-40.8c0-18.5,1.9-32.8,5.6-42.9
		c3.7-10.1,10-17.2,19-21.5c9-4.3,21.8-6.4,38.4-6.4s29.5,2.2,38.4,6.6c9,4.4,15.2,11.6,18.8,21.7c3.6,10.1,5.4,24.3,5.4,42.6
		c0,17.6-1.6,31.2-4.9,40.6c-3.3,9.5-9.4,16.3-18.4,20.6c-9,4.3-22.1,6.4-39.4,6.4C3467.5,3732.5,3454.4,3730.4,3445.4,3726.2z
		 M3517.6,3718.2c7.1-3.7,11.9-9.5,14.4-17.6c2.5-8.1,3.7-20,3.7-35.7c0-16.9-1.3-29.7-4-38.4c-2.7-8.6-7.6-14.7-14.7-18.3
		c-7.1-3.6-17.8-5.3-32-5.3s-25,1.8-32.3,5.3c-7.3,3.6-12.3,9.7-15.1,18.4c-2.8,8.7-4.2,21.5-4.2,38.2c0,15.5,1.3,27.4,3.9,35.6
		c2.6,8.2,7.5,14.1,14.8,17.8c7.3,3.7,18.3,5.5,32.9,5.5C3499.7,3723.7,3510.5,3721.9,3517.6,3718.2z"/>
	<path class="st4" d="M3590,3596.4h10.5v20.9c17.9-11.6,38.4-19.4,61.4-23.5v9.6c-8.6,1.4-18.4,4.1-29.2,8
		c-10.8,3.9-18.5,7.4-23,10.4l-9,4.5v103.7H3590V3596.4z"/>
	<path class="st4" d="M3691.6,3534.9h10.8v117.9h29.6l53.4-56.4h12.7l-57.1,60.2l59.3,73.5h-12.7l-55.9-68.7l-29.3-0.3v69h-10.8
		V3534.9z"/>
</g>
<text transform="matrix(1.1545 0 0 1 211.007 4054.249)" class="st0"><tspan x="0" y="0" class="st7 st8 st9">Build </tspan><tspan x="542.2" y="0" class="st7 st8 st10">Single Page</tspan><tspan x="1875.2" y="0" class="st7 st8 st9"> Web Application</tspan><tspan x="402.1" y="330.1" class="st4 st11 st9"> Using </tspan><tspan x="1053" y="330.1" class="st6 st11 st12">Angular </tspan><tspan x="1983.6" y="330.1" class="st4 st11 st9">Framework</tspan></text>
<g class="st0">
	<g class="st4">
		<path class="st3" d="M5013,2725.9l2.7,124.5l2.5,124.5l4.6,249l0.2,9.6l-10,0.2L4749,3238l14.2-14.2c0.3,20.2,0.7,40.4,0.7,60.5
			c0.1,20.2-0.1,40.4-0.2,60.5c-0.3,40.4-0.1,80.7-0.2,121.1v242.2v14.5H4749h-689.9l14.5-14.5v733.4v14.5h-14.5H2274.7h-892.2
			h-55.8c-18.6,0-37.2,0-55.8,0.2c-18.6,0.1-37.2,0.3-55.8,0.2c-18.6-0.1-37.2-0.4-55.8-0.7l-223.1-3.7
			c-148.7-2.5-297.4-5.2-446.1-8.3v-4.1c148.7-3.1,297.4-5.8,446.1-8.3l223.1-3.7c18.6-0.3,37.2-0.7,55.8-0.7
			c18.6-0.1,37.2,0,55.8,0.2c18.6,0.1,37.2,0.2,55.8,0.2h55.8h892.2h1784.5l-14.5,14.5v-733.4v-14.5h14.5H4749l-14.5,14.5V3466
			c0-40.4,0.1-80.7-0.2-121.1c-0.1-20.2-0.3-40.4-0.2-60.5c0-20.2,0.3-40.4,0.7-60.5l0.2-14.4l14,0.2l263.9,4.4l-9.8,9.8l4.6-249
			l2.5-124.5L5013,2725.9z"/>
		<g>
			<path class="st3" d="M495.3,4340.2c-56,0-101.4,45.4-101.4,101.4c0,56,45.4,101.4,101.4,101.4c56,0,101.4-45.4,101.4-101.4
				C596.7,4385.6,551.3,4340.2,495.3,4340.2z"/>
		</g>
	</g>
</g>
<g>
	<g>
		<g id="g4_1_" transform="translate(-44.632 -141.55)">
			<g id="g6_1_" transform="matrix(8.3528 0 0 8.3119 -727.13 -3759.5)">
				<path id="path8_1_" class="st13" d="M247.9,925.5H287c11.5,0.1,19.8,3.4,24.9,9.9c5.2,6.5,6.9,15.4,5.1,26.7
					c-0.7,5.2-2.2,10.2-4.5,15.2c-2.2,5-5.3,9.4-9.3,13.4c-4.9,5.1-10.1,8.3-15.6,9.6c-5.5,1.4-11.3,2-17.2,2h-17.5l-5.5,27.7h-20.3
					L247.9,925.5 M265,942.1l-8.8,43.8c0.6,0.1,1.2,0.1,1.8,0.1h2c9.3,0.1,17.1-0.8,23.3-2.8c6.2-2,10.4-9.1,12.5-21.3
					c1.8-10.2,0-16.1-5.3-17.6c-5.2-1.6-11.6-2.3-19.4-2.2c-1.2,0.1-2.3,0.1-3.4,0.1c-1,0-2,0-3.1,0L265,942.1"/>
				<path id="path10_1_" class="st13" d="M340.1,897.7h20.1l-5.7,27.9h18.1c9.9,0.2,17.3,2.2,22.2,6.1c5,3.9,6.4,11.3,4.4,22.2
					l-9.8,48.6H369l9.3-46.4c1-4.9,0.7-8.3-0.9-10.4c-1.6-2-4.9-3.1-10.1-3.1l-16.2-0.1l-12,59.9h-20.1L340.1,897.7"/>
				<path id="path12_1_" class="st13" d="M420.8,925.5h39.1c11.5,0.1,19.8,3.4,24.9,9.9c5.2,6.5,6.9,15.4,5.1,26.7
					c-0.7,5.2-2.2,10.2-4.5,15.2c-2.2,5-5.3,9.4-9.3,13.4c-4.9,5.1-10.1,8.3-15.6,9.6c-5.5,1.4-11.3,2-17.2,2h-17.5l-5.5,27.7H400
					L420.8,925.5 M437.9,942.1l-8.8,43.8c0.6,0.1,1.2,0.1,1.8,0.1h2c9.3,0.1,17.1-0.8,23.3-2.8c6.2-2,10.4-9.1,12.5-21.3
					c1.8-10.2,0-16.1-5.3-17.6c-5.2-1.6-11.6-2.3-19.4-2.2c-1.2,0.1-2.3,0.1-3.4,0.1c-1,0-2,0-3.1,0L437.9,942.1"/>
			</g>
		</g>
	</g>
	<g>
		<path class="st14" d="M3109.7,1366.1c0,135.5,0,271,0,406.5c0,60.5-25.9,106.6-78.2,136.2c-242.8,137.5-485.8,274.5-729,411.2
			c-51.5,28.9-104.5,28.2-155.7-0.8c-81.9-46.5-163.2-94-244.6-141.3c-7.7-4.4-18.8-8.2-18.1-18.3c0.7-10.8,13-11.1,21.1-13.8
			c31.8-10.7,63-23,91.5-40.8c14.7-9.2,26.4-7.3,40.5,1c54.6,32.4,109.9,63.6,164.4,96.2c16.2,9.7,29.6,10.4,46.5,0.9
			c235.5-133.4,471.2-266.4,707.2-398.8c17.7-9.9,24.2-21.7,24.2-41.6c-0.5-264.7-0.5-529.4,0-794.1c0-19.9-6.7-31.8-24.3-41.7
			c-236-132.4-471.8-265.4-707.3-398.6c-15.9-9-28.8-8.9-44.6,0.1c-236.7,134-473.7,267.6-710.8,400.9
			c-14.6,8.2-20.5,18.7-20.4,35.3c0.3,267.5,0.3,535,0,802.5c0,16.8,6.3,26.9,20.9,34.9c61.7,34,122.9,68.9,184.3,103.5
			c27.9,15.7,57.4,25.3,89.8,24.1c49.4-1.8,85.4-35,91.3-84c1.2-9.7,1.4-19.5,1.4-29.2c0.1-258.4,0.1-516.9,0.1-775.3
			c0-35.5,2.2-37.7,38.3-37.7c23.7,0,47.5,0.1,71.2,0c17.4-0.1,25.6,8.8,25.7,25.8c0.1,19.6,0,39.1,0,58.7
			c0,244.5,0,488.9,0.1,733.4c0,28-1.3,55.8-7.4,83.2c-20.8,93.3-87.8,148.5-182.8,155.7c-72.6,5.4-138.3-13.4-200.6-47.3
			c-61.3-33.3-121.7-68.1-182.4-102.6c-53.9-30.6-80.5-77-80.4-139.2c0.2-270.3,0.2-540.6,0-810.9c0-62.2,26.8-108.6,80.7-139.1
			c239.3-135.2,478.6-270.2,717.9-405.4c57.1-32.3,113.8-32.6,171-0.3c239.3,135.2,478.6,270.2,717.9,405.4
			c54.6,30.9,81.5,77.8,81.3,140.9C3109.4,1096.5,3109.7,1231.3,3109.7,1366.1z"/>
		<path class="st14" d="M2454.2,1773.1c-84-1.7-159.6-7.5-231.5-36.2c-98.1-39.2-154.1-109.3-158.4-217.2
			c-0.9-23.4,5.1-30.8,28-31.1c27.2-0.3,54.5,0.3,81.7-0.2c17-0.4,26.3,6.8,28,23.8c0.3,3.4,1.6,6.8,2.2,10.2
			c9.9,57.6,43.3,95.2,99.6,108.6c94.3,22.4,189.6,23.5,284,0.5c54.9-13.4,80.6-46.7,82.4-94.4c1.2-31.5-12.7-51.7-40.2-64.3
			c-35.3-16.1-73-22.9-110.9-29.2c-79.8-13.2-161.2-14.9-240.2-33.4c-25.8-6.1-50.9-14.2-75.6-23.9c-149.1-58.5-135.2-243-59.7-316
			c43.3-41.8,95.3-65.4,153.1-76.4c107.1-20.4,214-19.2,318.6,14.1c103.4,32.9,162.4,110,171,217.5c1.5,18.5-6.9,28.2-24.8,28.6
			c-29.3,0.6-58.6,0.3-88,0.1c-11.6-0.1-21.5-5.1-23.8-16.7c-17.3-89.9-79.9-122-162.7-127.6c-55.1-3.7-110.3-5.8-164.6,7
			c-39.2,9.3-75.2,23.8-85.9,69c-9.7,40.8,2.3,64.7,41.4,78.9c51.5,18.7,105.8,24.3,159.6,32.1c75.8,11,152.3,18.5,226,41.5
			c5.3,1.7,10.7,3.2,15.9,5c68.6,24.2,121.1,63.8,132.6,141.3c13,88.3-9.9,163.4-83.9,218.2c-51.3,37.9-111.1,53.8-173.1,63.1
			C2519.1,1771.4,2482.8,1771.8,2454.2,1773.1z"/>
	</g>
	<g>
		<g class="st15">
			<text transform="matrix(1 0 0 1 325.5903 3101.9795)" class="st16 st8 st17">Side Server Development</text>
			<g>
				<path class="st18" d="M365.3,3100l-11.8-1.3l1.6-15.1c30.2,3.9,53,5.9,68.3,5.9c36.4,0,54.5-17.6,54.5-52.9
					c0-9.6-1.4-17.1-4.3-22.5c-2.8-5.4-8.2-9.7-15.9-13.1c-7.8-3.4-19.3-6.4-34.7-9c-18.4-3.3-32.6-7.1-42.6-11.5
					c-10-4.4-17.3-10.6-21.9-18.7c-4.6-8.1-6.9-19.3-6.9-33.5c0-19.7,5.9-34.4,17.6-44.2c11.7-9.7,29.8-14.6,54.4-14.6
					c18,0,40.1,1.9,66.4,5.6l-1.6,15.1c-31.1-3.7-52.6-5.6-64.4-5.6c-36.8,0-55.2,14.2-55.2,42.7c0,11.4,1.4,19.8,4.1,25.3
					c2.7,5.5,8.2,9.9,16.3,13.1c8.1,3.3,21.5,6.8,40.1,10.5c16.6,3.1,29.6,6.7,38.8,11c9.2,4.3,15.9,10.1,20.2,17.6
					c4.3,7.4,6.4,17.5,6.4,30.2c0,23.7-5.7,41.2-17.1,52.6c-11.4,11.4-29.2,17.1-53.6,17.1C409.5,3104.6,389.9,3103.1,365.3,3100z"
					/>
				<path class="st18" d="M537.2,2872h15.8v21.7h-15.8V2872z M537.2,2937.7h15.8V3102h-15.8V2937.7z"/>
				<path class="st18" d="M607.2,3085.1c-8.8-13.3-13.1-33.9-13.1-61.9c0-21.2,2.4-38.3,7.1-51.1c4.7-12.8,12.3-22.2,22.7-28.3
					c10.4-6,24.4-9,41.9-9c13.8,0,27.2,1.3,40.1,3.9v-75.2h15.8V3102h-16.1v-13.1c-17.1,10.7-35.4,16.1-54.9,16.1
					C630.4,3104.9,615.9,3098.3,607.2,3085.1z M677.8,3086.7c8.8-2.5,15.5-5.1,20.4-7.7l7.6-3.6v-122.2c-14.5-2.8-28-4.3-40.7-4.3
					c-13.8,0-24.6,2.5-32.4,7.6c-7.8,5-13.3,12.7-16.6,23c-3.3,10.3-4.9,24.1-4.9,41.4c0,23.2,3.1,40.6,9.4,52.2
					c6.2,11.6,17,17.4,32.4,17.4C660.7,3090.5,669,3089.2,677.8,3086.7z"/>
				<path class="st18" d="M777.9,3085.6c-10-12.9-15-33.4-15-61.4c0-30.4,5.4-52.9,16.3-67.5c10.8-14.6,27.9-21.9,51.1-21.9
					c21.5,0,37.3,6.3,47.6,18.9c10.3,12.6,15.4,32.3,15.4,59l-0.3,13.8H779.3c-0.2,15.8,1.3,28.3,4.6,37.6
					c3.3,9.3,8.9,16.1,16.9,20.4c8,4.3,19.1,6.4,33.3,6.4c5.9,0,12.9-0.2,20.9-0.5c8-0.3,15.4-0.8,22.2-1.5l9.9-1l0.7,13.5
					c-22.8,2.4-42.2,3.6-58.2,3.6C805.1,3104.9,787.8,3098.5,777.9,3085.6z M876.9,3012.6c0-22.8-3.7-39.2-11.2-49.1
					c-7.4-10-19.3-15-35.5-15c-16.9,0-29.6,5.2-38.1,15.6c-8.5,10.4-12.9,26.6-13.1,48.5H876.9z"/>
				<path class="st18" d="M1012.9,3100l-11.8-1.3l1.6-15.1c30.2,3.9,53,5.9,68.3,5.9c36.4,0,54.5-17.6,54.5-52.9
					c0-9.6-1.4-17.1-4.3-22.5c-2.8-5.4-8.2-9.7-15.9-13.1c-7.8-3.4-19.3-6.4-34.7-9c-18.4-3.3-32.6-7.1-42.6-11.5
					c-10-4.4-17.3-10.6-21.9-18.7c-4.6-8.1-6.9-19.3-6.9-33.5c0-19.7,5.9-34.4,17.6-44.2c11.7-9.7,29.8-14.6,54.4-14.6
					c18,0,40.1,1.9,66.4,5.6l-1.6,15.1c-31.1-3.7-52.6-5.6-64.4-5.6c-36.8,0-55.2,14.2-55.2,42.7c0,11.4,1.4,19.8,4.1,25.3
					c2.7,5.5,8.2,9.9,16.3,13.1c8.1,3.3,21.5,6.8,40.1,10.5c16.6,3.1,29.6,6.7,38.8,11c9.2,4.3,15.9,10.1,20.2,17.6
					c4.3,7.4,6.4,17.5,6.4,30.2c0,23.7-5.7,41.2-17.1,52.6c-11.4,11.4-29.2,17.1-53.6,17.1C1057.1,3104.6,1037.5,3103.1,1012.9,3100
					z"/>
				<path class="st18" d="M1193.2,3085.6c-10-12.9-14.9-33.4-14.9-61.4c0-30.4,5.4-52.9,16.3-67.5c10.8-14.6,27.9-21.9,51.1-21.9
					c21.5,0,37.3,6.3,47.6,18.9c10.3,12.6,15.4,32.3,15.4,59l-0.3,13.8h-113.7c-0.2,15.8,1.3,28.3,4.6,37.6
					c3.3,9.3,8.9,16.1,16.9,20.4c8,4.3,19.1,6.4,33.3,6.4c5.9,0,12.9-0.2,20.9-0.5c8-0.3,15.4-0.8,22.2-1.5l9.9-1l0.7,13.5
					c-22.8,2.4-42.2,3.6-58.2,3.6C1220.4,3104.9,1203.1,3098.5,1193.2,3085.6z M1292.2,3012.6c0-22.8-3.7-39.2-11.2-49.1
					c-7.4-10-19.3-15-35.5-15c-16.9,0-29.6,5.2-38.1,15.6c-8.5,10.4-12.9,26.6-13.1,48.5H1292.2z"/>
				<path class="st18" d="M1350.1,2937.7h16.1v24.3c18.6-13.6,39.8-22.9,63.4-27.9v16.8c-9,1.8-19,4.8-30.1,9.2
					c-11.1,4.4-19.1,8.3-24.1,11.8l-8.9,4.9V3102h-16.4V2937.7z"/>
				<path class="st18" d="M1444.7,2937.7h17.7l43.7,149.8h13.5l45-149.8h17.1l-49.3,164.3H1494L1444.7,2937.7z"/>
				<path class="st18" d="M1621,3085.6c-10-12.9-14.9-33.4-14.9-61.4c0-30.4,5.4-52.9,16.3-67.5c10.8-14.6,27.9-21.9,51.1-21.9
					c21.5,0,37.3,6.3,47.6,18.9c10.3,12.6,15.4,32.3,15.4,59l-0.3,13.8h-113.7c-0.2,15.8,1.3,28.3,4.6,37.6
					c3.3,9.3,8.9,16.1,16.9,20.4c8,4.3,19.1,6.4,33.3,6.4c5.9,0,12.9-0.2,20.9-0.5c8-0.3,15.4-0.8,22.2-1.5l9.9-1l0.7,13.5
					c-22.8,2.4-42.2,3.6-58.2,3.6C1648.2,3104.9,1630.9,3098.5,1621,3085.6z M1720,3012.6c0-22.8-3.7-39.2-11.2-49.1
					c-7.4-10-19.3-15-35.5-15c-16.9,0-29.6,5.2-38.1,15.6c-8.5,10.4-12.9,26.6-13.1,48.5H1720z"/>
				<path class="st18" d="M1777.8,2937.7h16.1v24.3c18.6-13.6,39.8-22.9,63.4-27.9v16.8c-9,1.8-19,4.8-30.1,9.2
					c-11.1,4.4-19.1,8.3-24.2,11.8l-8.9,4.9V3102h-16.4V2937.7z"/>
				<path class="st18" d="M2112,2904.8c10.5,21.2,15.8,46.7,15.8,76.2c0,41.4-7,71.9-20.9,91.5c-13.9,19.6-33.3,29.4-58.3,29.4
					h-83.8v-229h83.8C2080.3,2873,2101.5,2883.6,2112,2904.8z M2081.1,3075.7c9.4-7.7,16.8-19.1,22-34.3c5.3-15.2,7.9-33.9,7.9-56
					c0-33.1-5.5-57.6-16.6-73.6c-11.1-16-26.3-24-45.8-24h-67.4v199.4h67.4C2060.9,3087.2,2071.7,3083.4,2081.1,3075.7z"/>
				<path class="st18" d="M2181.5,3085.6c-10-12.9-14.9-33.4-14.9-61.4c0-30.4,5.4-52.9,16.3-67.5c10.8-14.6,27.9-21.9,51.1-21.9
					c21.5,0,37.3,6.3,47.6,18.9c10.3,12.6,15.4,32.3,15.4,59l-0.3,13.8H2183c-0.2,15.8,1.3,28.3,4.6,37.6
					c3.3,9.3,8.9,16.1,16.9,20.4c8,4.3,19.1,6.4,33.3,6.4c5.9,0,12.9-0.2,20.9-0.5c8-0.3,15.4-0.8,22.2-1.5l9.9-1l0.7,13.5
					c-22.8,2.4-42.2,3.6-58.2,3.6C2208.7,3104.9,2191.5,3098.5,2181.5,3085.6z M2280.6,3012.6c0-22.8-3.7-39.2-11.2-49.1
					c-7.4-10-19.3-15-35.5-15c-16.9,0-29.6,5.2-38.1,15.6c-8.5,10.4-12.9,26.6-13.1,48.5H2280.6z"/>
				<path class="st18" d="M2320,2937.7h17.7l43.7,149.8h13.5l45-149.8h17.1l-49.3,164.3h-38.4L2320,2937.7z"/>
				<path class="st18" d="M2496.3,3085.6c-10-12.9-14.9-33.4-14.9-61.4c0-30.4,5.4-52.9,16.3-67.5c10.8-14.6,27.9-21.9,51.1-21.9
					c21.5,0,37.3,6.3,47.6,18.9c10.3,12.6,15.4,32.3,15.4,59l-0.3,13.8h-113.7c-0.2,15.8,1.3,28.3,4.6,37.6
					c3.3,9.3,8.9,16.1,16.9,20.4c8,4.3,19.1,6.4,33.3,6.4c5.9,0,12.9-0.2,20.9-0.5c8-0.3,15.4-0.8,22.2-1.5l9.9-1l0.7,13.5
					c-22.8,2.4-42.2,3.6-58.2,3.6C2523.5,3104.9,2506.2,3098.5,2496.3,3085.6z M2595.3,3012.6c0-22.8-3.7-39.2-11.2-49.1
					c-7.4-10-19.3-15-35.5-15c-16.9,0-29.6,5.2-38.1,15.6c-8.5,10.4-12.9,26.6-13.1,48.5H2595.3z"/>
				<path class="st18" d="M2655.1,2863.4h16.4V3102h-16.4V2863.4z"/>
				<path class="st18" d="M2741.1,3096.9c-9.7-5.4-16.6-14-20.5-26c-3.9-11.9-5.9-28.4-5.9-49.5c0-22.1,2.1-39.4,6.2-51.7
					c4.2-12.4,11.1-21.3,20.9-26.8c9.7-5.5,23.4-8.2,40.9-8.2c17.7,0,31.5,2.8,41.2,8.4c9.7,5.6,16.6,14.6,20.7,26.9
					c4.1,12.4,6.1,29.5,6.1,51.4c0,21-1.9,37.5-5.7,49.5c-3.8,11.9-10.6,20.6-20.4,26c-9.7,5.4-23.7,8.1-41.9,8.1
					C2764.7,3104.9,2750.8,3102.3,2741.1,3096.9z M2815.3,3083.9c7.1-4.4,12-11.3,14.6-20.9c2.6-9.5,3.9-23.4,3.9-41.6
					c0-19.3-1.4-34-4.3-44.2c-2.9-10.2-7.8-17.4-15-21.7c-7.1-4.3-17.6-6.4-31.4-6.4c-14,0-24.7,2.1-32,6.4
					c-7.3,4.3-12.4,11.5-15.3,21.7c-2.9,10.2-4.3,24.9-4.3,44.2c0,18,1.3,31.8,3.9,41.4c2.6,9.6,7.6,16.7,14.9,21
					c7.3,4.4,18.2,6.6,32.7,6.6C2797.5,3090.5,2808.2,3088.3,2815.3,3083.9z"/>
				<path class="st18" d="M2894,2937.7h16.1v13.1c17.7-10.7,35.9-16.1,54.5-16.1c20.2,0,34.7,6.6,43.5,19.7
					c8.9,13.1,13.3,34.3,13.3,63.4c0,20.8-2.3,37.5-6.9,50.1c-4.6,12.6-12.2,21.9-22.7,27.9c-10.5,6-24.6,9-42.4,9
					c-13.4,0-26.4-1.3-39.1-3.9v75.6H2894V2937.7z M2992.9,3073.9c8.1-11.3,12.2-29.5,12.2-54.7c0-25-3.4-42.9-10.3-53.7
					c-6.9-10.8-17.1-16.3-30.7-16.3c-7.4,0-15.6,1.3-24.5,3.8c-8.9,2.5-16.2,5.2-21.9,8l-7.2,4.3v121.2c19.3,2.8,33.1,4.3,41.4,4.3
					C2971.1,3090.8,2984.8,3085.2,2992.9,3073.9z"/>
				<path class="st18" d="M3064.9,2937.7h16.1v12.5c16.9-10.3,34.6-15.4,53.2-15.4c20.8,0,34.8,5.8,42.1,17.4
					c7-4.6,16.4-8.7,28.3-12.2c11.8-3.5,23.9-5.3,36.1-5.3c13.1,0,23.3,2.6,30.6,7.9c7.2,5.3,12.3,13.7,15.1,25.3
					c2.8,11.6,4.3,27.7,4.3,48.3v85.8h-16.1v-85.4c0-18.2-1-31.9-3-41.2c-2-9.3-5.6-16-10.8-20c-5.3-4.1-13.1-6.1-23.7-6.1
					c-9.4,0-18.7,1.2-27.9,3.6c-9.2,2.4-16,4.9-20.4,7.6l-6.9,3.6c3.7,3.1,5.6,20.6,5.6,52.6v85.4H3171v-84.8c0-18-1-31.7-3-41.2
					c-2-9.5-5.5-16.4-10.7-20.5c-5.1-4.2-12.8-6.2-22.8-6.2c-8.8,0-17.6,1.1-26.6,3.4c-9,2.3-15.8,4.9-20.4,7.7l-6.2,3.6v138h-16.4
					V2937.7z"/>
				<path class="st18" d="M3347.6,3085.6c-10-12.9-14.9-33.4-14.9-61.4c0-30.4,5.4-52.9,16.3-67.5c10.8-14.6,27.9-21.9,51.1-21.9
					c21.5,0,37.3,6.3,47.6,18.9c10.3,12.6,15.4,32.3,15.4,59l-0.3,13.8h-113.7c-0.2,15.8,1.3,28.3,4.6,37.6
					c3.3,9.3,8.9,16.1,16.9,20.4c8,4.3,19.1,6.4,33.3,6.4c5.9,0,12.9-0.2,20.9-0.5c8-0.3,15.4-0.8,22.2-1.5l9.9-1l0.7,13.5
					c-22.8,2.4-42.2,3.6-58.2,3.6C3374.8,3104.9,3357.6,3098.5,3347.6,3085.6z M3446.7,3012.6c0-22.8-3.7-39.2-11.2-49.1
					c-7.4-10-19.3-15-35.5-15c-16.9,0-29.6,5.2-38.1,15.6c-8.5,10.4-12.9,26.6-13.1,48.5H3446.7z"/>
				<path class="st18" d="M3504.5,2937.7h16.1v12.5c10.5-5.7,20.3-9.7,29.2-12c9-2.3,18.3-3.4,27.9-3.4c14,0,24.8,2.5,32.4,7.4
					c7.6,4.9,12.8,13.1,15.8,24.6c3,11.5,4.4,28,4.4,49.4v85.8h-15.8v-85.4c0-17.7-1-31.3-3.1-40.7c-2.1-9.4-5.7-16.2-11-20.4
					c-5.3-4.2-13-6.2-23.3-6.2c-9,0-18.2,1.2-27.6,3.6c-9.4,2.4-16.5,4.9-21.4,7.6l-7.2,3.6v138h-16.4V2937.7z"/>
				<path class="st18" d="M3703.6,3100.3c-5.9-3.5-10.2-9.5-12.8-17.9c-2.6-8.4-3.9-20.4-3.9-36v-94.3h-25v-14.5h25v-52.2h15.8v52.2
					h57.5v14.5h-57.5v83.1c0,15.1,0.5,26.3,1.6,33.7c1.1,7.3,3.6,12.9,7.4,16.6c3.8,3.7,10.1,5.6,18.9,5.6l31.2-2.6l1.3,13.8
					c-15.3,2.2-26.9,3.3-34.8,3.3C3717.7,3105.6,3709.5,3103.8,3703.6,3100.3z"/>
			</g>
			<g>
				<g>
					<path class="st19" d="M3856.5,2561.6H261.6c-34.4,0-62.3,27.9-62.3,62.3v733.8c0,34.4,27.9,62.3,62.3,62.3h3923.6"/>
					<g>
						<path class="st18" d="M3853,2491.7c38.6,0,69.9,31.3,69.9,69.9c0,38.6-31.3,69.9-69.9,69.9c-38.6,0-69.9-31.3-69.9-69.9
							C3783.1,2523,3814.4,2491.7,3853,2491.7z"/>
					</g>
					<g>
						<path class="st18" d="M4181.8,3490c38.6,0,69.9-31.3,69.9-69.9c0-38.6-31.3-69.9-69.9-69.9c-38.6,0-69.9,31.3-69.9,69.9
							C4111.8,3458.7,4143.1,3490,4181.8,3490z"/>
					</g>
				</g>
			</g>
		</g>
	</g>
	<g class="st15">
		<text transform="matrix(1 0 0 1 1274.0663 5395.1748)" class="st16 st8 st17">RESTful API Building</text>
		<g>
			<path class="st18" d="M1307.7,5166.2h82.8c23.7,0,41.2,5.4,52.7,16.3c11.5,10.8,17.3,27.8,17.3,50.8c0,37.7-15.2,59.9-45.7,66.7
				l49,95.3h-18.4l-47.6-92.3h-73.6v92.3h-16.4V5166.2z M1390.9,5287.7c35,0,52.6-17.7,52.6-53.2c0-18.2-4.3-31.6-13-40.2
				c-8.7-8.7-22-13-39.9-13h-66.4v106.5H1390.9z"/>
			<path class="st18" d="M1525.9,5180.9v90h99.6v14.8h-99.6v94.6h119.3v14.8h-135.7v-229h135.7v14.8H1525.9z"/>
			<path class="st18" d="M1691.2,5393.2l-11.8-1.3l1.6-15.1c30.2,3.9,53,5.9,68.3,5.9c36.4,0,54.5-17.6,54.5-52.9
				c0-9.6-1.4-17.1-4.3-22.5c-2.9-5.4-8.2-9.7-15.9-13.1c-7.8-3.4-19.3-6.4-34.7-9c-18.4-3.3-32.6-7.1-42.5-11.5
				c-10-4.4-17.3-10.6-21.9-18.7c-4.6-8.1-6.9-19.3-6.9-33.5c0-19.7,5.9-34.4,17.6-44.2c11.7-9.7,29.8-14.6,54.4-14.6
				c18,0,40.1,1.9,66.4,5.6l-1.6,15.1c-31.1-3.7-52.6-5.6-64.4-5.6c-36.8,0-55.2,14.2-55.2,42.7c0,11.4,1.4,19.8,4.1,25.3
				c2.7,5.5,8.2,9.9,16.3,13.1c8.1,3.3,21.5,6.8,40.1,10.5c16.6,3.1,29.6,6.7,38.8,11c9.2,4.3,15.9,10.1,20.2,17.6
				c4.3,7.4,6.4,17.5,6.4,30.2c0,23.7-5.7,41.2-17.1,52.6c-11.4,11.4-29.2,17.1-53.6,17.1
				C1735.3,5397.8,1715.7,5396.3,1691.2,5393.2z"/>
			<path class="st18" d="M1916.6,5181.3h-74.3v-15.1h164.3v15.1H1933v213.9h-16.4V5181.3z"/>
			<path class="st18" d="M2037.8,5245.3h-22v-14.5h22v-18.1c0-15.3,1.4-27.3,4.1-35.8c2.7-8.5,7.2-14.6,13.3-18.1
				c6.1-3.5,14.6-5.3,25.3-5.3l31.5,2l-0.3,13.1c-15.3-0.2-24.5-0.4-27.6-0.5c-3.1-0.1-5-0.2-5.9-0.2c-9.6,0-16.1,3.6-19.4,10.8
				c-3.3,7.2-4.9,18.6-4.9,34.2v17.7h51.3v14.5h-51.3v149.8h-16.1V5245.3z"/>
			<path class="st18" d="M2154.8,5390.9c-7.4-4.8-12.7-13-15.6-24.5c-3-11.5-4.4-28.1-4.4-49.8v-85.8h16.4v84.8
				c0,18.4,1,32.4,3,41.9c2,9.5,5.6,16.3,10.8,20.2c5.3,3.9,13.1,5.9,23.7,5.9c18.4,0,36-4.9,52.9-14.8v-138h16.1v164.3h-16.4v-12.5
				c-8.8,5.3-17.3,9.1-25.5,11.7c-8.2,2.5-17.8,3.8-28.8,3.8C2173,5398.1,2162.2,5395.7,2154.8,5390.9z"/>
			<path class="st18" d="M2309.6,5156.6h16.4v238.5h-16.4V5156.6z"/>
			<path class="st18" d="M2575.4,5328.8h-105.5l-19.7,66.4h-16.1l67.7-229h41.7l67.7,229h-16.1L2575.4,5328.8z M2531.3,5180.9h-17.1
				l-40.1,132.4h96.9L2531.3,5180.9z"/>
			<path class="st18" d="M2649.6,5166.2h83.5c24.1,0,41.7,5.8,52.9,17.4s16.8,29.6,16.8,53.9c0,25.6-5.8,44.7-17.3,57.3
				c-11.5,12.6-29,18.9-52.4,18.9h-67v81.5h-16.4V5166.2z M2732.7,5298.2c35,0,52.6-20.3,52.6-60.8c0-19.3-4.2-33.5-12.5-42.5
				c-8.3-9.1-21.7-13.6-40.1-13.6H2666v117H2732.7z"/>
			<path class="st18" d="M2845.1,5166.2h16.4v229h-16.4V5166.2z"/>
			<path class="st18" d="M2992.6,5166.2h80.2c22.6,0,39.3,4.8,50.3,14.3c11,9.5,16.4,24.2,16.4,43.9c0,14-2.6,25.2-7.9,33.5
				c-5.3,8.3-13,14.7-23.3,19.1c13.4,4.6,23.3,11.4,29.7,20.5c6.5,9.1,9.7,21.4,9.7,37c0,21.2-5.9,36.7-17.6,46.3
				c-11.7,9.6-29,14.5-51.8,14.5h-85.8V5166.2z M3075.4,5270.6c16,0,27.8-3.8,35.5-11.3c7.7-7.6,11.5-19,11.5-34.3
				c0-15.6-3.9-26.7-11.8-33.5c-7.9-6.8-20.6-10.2-38.1-10.2h-63.4v89.4H3075.4z M3077.7,5380.1c17.1,0,30.2-3.7,39.4-11.2
				c9.2-7.4,13.8-19.3,13.8-35.5c0-17.7-5.1-30.1-15.3-37.1c-10.2-7-23.6-10.5-40.3-10.5h-66.4v94.3H3077.7z"/>
			<path class="st18" d="M3209.8,5390.9c-7.4-4.8-12.6-13-15.6-24.5c-3-11.5-4.4-28.1-4.4-49.8v-85.8h16.4v84.8
				c0,18.4,1,32.4,3,41.9c2,9.5,5.6,16.3,10.8,20.2c5.3,3.9,13.1,5.9,23.7,5.9c18.4,0,36-4.9,52.9-14.8v-138h16.1v164.3h-16.4v-12.5
				c-8.8,5.3-17.3,9.1-25.5,11.7c-8.2,2.5-17.8,3.8-28.8,3.8C3228,5398.1,3217.3,5395.7,3209.8,5390.9z"/>
			<path class="st18" d="M3362.6,5165.2h15.8v21.7h-15.8V5165.2z M3362.6,5230.9h15.8v164.3h-15.8V5230.9z"/>
			<path class="st18" d="M3430.6,5156.6h16.4v238.5h-16.4V5156.6z"/>
			<path class="st18" d="M3502.9,5378.3c-8.8-13.3-13.1-33.9-13.1-61.9c0-21.2,2.4-38.3,7.1-51.1c4.7-12.8,12.3-22.2,22.7-28.3
				c10.4-6,24.4-9,41.9-9c13.8,0,27.2,1.3,40.1,3.9v-75.2h15.8v238.5h-16.1V5382c-17.1,10.7-35.4,16.1-54.9,16.1
				C3526.1,5398.1,3511.7,5391.5,3502.9,5378.3z M3573.5,5379.9c8.8-2.5,15.6-5.1,20.4-7.7l7.6-3.6v-122.2
				c-14.5-2.8-28-4.3-40.7-4.3c-13.8,0-24.6,2.5-32.4,7.6c-7.8,5-13.3,12.7-16.6,23c-3.3,10.3-4.9,24.1-4.9,41.4
				c0,23.2,3.1,40.6,9.4,52.2c6.2,11.6,17,17.4,32.4,17.4C3556.5,5383.7,3564.8,5382.4,3573.5,5379.9z"/>
			<path class="st18" d="M3667.5,5165.2h15.8v21.7h-15.8V5165.2z M3667.5,5230.9h15.8v164.3h-15.8V5230.9z"/>
			<path class="st18" d="M3733.5,5230.9h16.1v12.5c10.5-5.7,20.3-9.7,29.2-12c9-2.3,18.3-3.4,27.9-3.4c14,0,24.8,2.5,32.4,7.4
				c7.6,4.9,12.8,13.1,15.8,24.6c3,11.5,4.4,28,4.4,49.4v85.8h-15.8v-85.4c0-17.7-1-31.3-3.1-40.7c-2.1-9.4-5.7-16.2-11-20.4
				c-5.3-4.2-13-6.2-23.3-6.2c-9,0-18.2,1.2-27.6,3.6c-9.4,2.4-16.5,4.9-21.4,7.6l-7.2,3.6v138h-16.4V5230.9z"/>
			<path class="st18" d="M3925.9,5468c-9.3-3.4-15.8-8.6-19.4-15.6c-3.6-7-5.4-16.5-5.4-28.6c0-7.7,0.8-13.7,2.5-18.1
				c1.6-4.4,4.1-8.2,7.4-11.3c3.3-3.2,9-7.8,17.1-14c-2.6-1.7-4.6-4.5-5.9-8.4c-1.3-3.8-2-7.9-2-12.3c0-2.8,0.6-5.9,1.8-9.2
				c1.2-3.3,4-9.2,8.4-17.7c-18.2-6.4-27.3-22.9-27.3-49.6c0-18.8,4.7-32.8,14.1-41.9c9.4-9.1,24.4-13.6,45-13.6
				c10.3,0,21.5,1.4,33.5,4.3l46.7-1.3v15.1h-33.8c8.1,6.8,12.2,19.4,12.2,37.8c0,19.5-4.8,33.3-14.3,41.6
				c-9.5,8.2-24.9,12.3-46.2,12.3c-7,0-12.8-0.4-17.4-1.3c-0.4,0.9-0.8,1.9-1.2,3.1c-0.3,1.2-0.8,2.4-1.5,3.4
				c-1.3,3.3-2.4,6.3-3.3,9c-0.9,2.7-1.3,5.2-1.3,7.4c0,6.4,2.4,10.5,7.1,12.5c4.7,2,12,3,21.9,3h15.4c13.4-0.2,24.2,0.8,32.5,3
				c8.3,2.2,14.8,6.6,19.4,13.3c4.6,6.7,6.9,16.4,6.9,29.1c0,18.6-5.5,32.1-16.6,40.6c-11.1,8.4-30,12.7-56.7,12.7
				C3948.4,5473,3935.2,5471.3,3925.9,5468z M4000,5455.5c7.9-2.5,13.5-6.7,16.9-12.5c3.4-5.8,5.1-13.6,5.1-23.5
				c0-8.3-1.1-14.6-3.5-18.9c-2.3-4.3-6.6-7.3-12.8-9.2c-6.2-1.9-15.6-2.7-28.1-2.5l-38.1-1.3c-9.2,6.4-15.2,11.7-18.1,15.9
				c-2.9,4.3-4.3,10.6-4.3,18.9c0,9.4,1.5,16.8,4.6,22c3.1,5.3,8.2,9,15.3,11.3c7.1,2.3,17.3,3.4,30.4,3.4
				C3981.3,5459.2,3992.1,5458,4000,5455.5z M3994.8,5314.7c6.4-6.1,9.5-16.9,9.5-32.2c0-15.1-3.2-25.7-9.5-31.9
				c-6.4-6.1-17.1-9.2-32.2-9.2c-15.8,0-26.9,3.1-33.5,9.4c-6.6,6.2-9.9,16.9-9.9,32c0,15.1,3.2,25.7,9.7,31.9
				c6.5,6.1,17.5,9.2,33,9.2C3977.5,5323.9,3988.4,5320.8,3994.8,5314.7z"/>
		</g>
		<g>
			<g>
				<path class="st19" d="M594.5,5714.8h3594.9c34.4,0,62.3-27.9,62.3-62.3v-733.8c0-34.4-27.9-62.3-62.3-62.3H265.7"/>
				<g>
					<path class="st18" d="M598,5784.7c-38.6,0-69.9-31.3-69.9-69.9s31.3-69.9,69.9-69.9c38.6,0,69.9,31.3,69.9,69.9
						S636.6,5784.7,598,5784.7z"/>
				</g>
				<g>
					<path class="st18" d="M269.2,4786.3c-38.6,0-69.9,31.3-69.9,69.9s31.3,69.9,69.9,69.9c38.6,0,69.9-31.3,69.9-69.9
						S307.8,4786.3,269.2,4786.3z"/>
				</g>
			</g>
		</g>
	</g>
</g>
</svg>
