<?xml version="1.0" encoding="utf-8"?>
<!-- Generator: Adobe Illustrator 16.0.0, SVG Export Plug-In . SVG Version: 6.00 Build 0)  -->
<!DOCTYPE svg PUBLIC "-//W3C//DTD SVG 1.1//EN" "http://www.w3.org/Graphics/SVG/1.1/DTD/svg11.dtd">
<svg version="1.1" id="Layer_1" xmlns="http://www.w3.org/2000/svg" xmlns:xlink="http://www.w3.org/1999/xlink" x="0px" y="0px"
	 width="4450.971px" height="6106.121px" viewBox="0 0 4450.971 6106.121" enable-background="new 0 0 4450.971 6106.121"
	 xml:space="preserve">
<g>
	<g>
		<g>
			<circle fill="#121312" cx="2225.485" cy="2387.696" r="1075.635"/>
			<g>
				<path fill="#FFFFFF" d="M2260.19,1632.484c108.182,3.132,215.043,14.366,317.846,50.785
					c26.051,9.226,50.84,21.219,75.656,33.374c41.578,20.364,65.75,53.089,78.035,97.291
					c21.371,76.829,26.154,155.008,24.504,234.183c-1.928,92.988-16.646,183.627-47.838,271.234
					c-42.363,118.921-116.609,216.566-206.939,302.645c-76.717,73.098-163.471,131.89-260.195,175.642
					c-9.313,4.227-17.795,7.409-28.573,2.373c-198.956-92.932-354.858-231.587-451.439-430.91
					c-44.88-92.594-62.687-192.795-67.469-295.281c-3.65-78.361-1.551-156.307,16.628-233.093
					c2.175-9.171,5.012-18.179,7.273-27.326c10.967-44.54,36.912-75.797,78.089-97.201c66.56-34.615,137.322-55.154,210.548-67.505
					C2090.283,1634.536,2175.188,1631.31,2260.19,1632.484 M2194.825,1715.987c-30.241-0.532-89.997,3.802-149.574,12.037
					c-66.998,9.27-131.588,26.039-193.71,53.534c-33.268,14.726-53.22,37.089-58.56,72.899c-1.573,10.602-4.527,20.983-6.289,31.563
					c-11.271,68.143-14.422,136.395-8.219,205.475c8.022,89.287,24.382,176.535,65.423,256.572
					c82.509,160.876,210.067,276.682,369.077,359.738c9.949,5.196,17.288,2.429,25.987-1.996
					c76.25-38.829,145.443-87.649,206.98-147.058c80.924-78.141,148.17-165.633,185.59-273.476
					c25.129-72.482,37.396-147.412,41.432-223.552c4.211-79.743-1.373-158.849-25.795-235.75
					c-4.404-13.855-12.289-23.195-24.646-30.264c-28.182-16.122-57.668-29.128-88.588-38.88
					C2433.251,1725.083,2329.54,1716.5,2194.825,1715.987"/>
				<path fill="#FFFFFF" d="M2543.243,2866.777c13.484,0,26.986-0.143,40.486,0.019c48.875,0.581,84.336,27.262,93.758,70.428
					c10.766,49.246-9.91,94.847-52.719,115.837c-16.584,8.132-34.299,12.228-52.756,12.308c-26.303,0.104-52.619-0.096-78.936-0.498
					c-3.984-0.069-10.529,2.668-10.783-5.03c-0.146-4.274,2.684-8.112,7.205-8.515c17.389-1.551,17.32-14.533,17.443-26.763
					c0.391-39.811,0.236-79.614,0.531-119.428c0.1-13.215-3.848-22.143-18.783-23.56c-4.139-0.383-12.326,0.946-10.752-7.682
					c1.18-6.481,6.834-7.173,12.674-7.111c17.541,0.18,35.084,0.057,52.631,0.057V2866.777L2543.243,2866.777z M2539.353,2961.117
					h0.123c0,21.597,0.111,43.172-0.051,64.763c-0.109,12.142,6.582,18.311,17.389,21.621c25.262,7.743,54.041,0.575,69.809-20.113
					c24.334-31.956,25.391-67.628,9.918-103.275c-12.877-29.686-45.656-44.771-82.965-42.264
					c-10.102,0.681-14.576,4.039-14.354,14.521C2539.659,2917.957,2539.353,2939.544,2539.353,2961.117"/>
				<path fill="#FFFFFF" d="M2823.948,2953.288c28.027,9.584,43.828,25.62,40.887,55.61c-2.719,27.768-21.215,41.265-44.182,49.653
					c-37.889,13.843-77.469,4.735-116.293,6.206c-2.998,0.123-5.314-1.348-5.135-4.623c0.24-4.468,2.867-8.373,7.111-8.595
					c21.811-1.174,20.645-16.468,20.596-31.762c-0.123-38.414-0.191-76.82,0.377-115.229c0.203-13.125-1.953-22.599-17.703-23.289
					c-3.824-0.172-10.82,0.335-9.768-6.938c0.969-6.613,6.35-7.516,12.275-7.479c26.281,0.175,52.559-0.062,78.838,0.1
					c23.889,0.147,46.725,3.856,57.125,29.176C2858.358,2921.12,2845.247,2938.57,2823.948,2953.288 M2788.351,3049.482
					c34.975,0.298,55.129-30.239,39.479-60.152c-9.727-18.572-27.898-21.152-46.182-23.745
					c-15.943-2.261-26.211,0.081-23.529,20.113c1.496,11.214,0.146,22.807,0.408,34.235
					C2759.069,3044.674,2763.802,3049.265,2788.351,3049.482 M2758.624,2917.389h-0.166c0,8.029-0.02,16.075,0,24.108
					c0.02,5.29,1.742,9.271,7.854,9.351c12.02,0.147,24.197,1.835,35.77-2.882c14.07-5.727,20.385-21.769,15.59-39.007
					c-5.24-18.821-24.5-29.455-48.189-26.396c-19.305,2.483-7.643,17.708-10.74,26.828
					C2757.931,2911.801,2758.624,2914.708,2758.624,2917.389"/>
				<path fill="#FFFFFF" d="M1589.071,2944.625c13.535-3.597,27.08-7.138,40.604-10.786c15.942-4.325,3.591,10.891,12.451,14.432
					c6.328-0.346,12.199-7.735,19.822-11.147c18.37-8.193,35.548-9.157,49.253,7.934c5.042,6.303,8.54,6.53,14.526,1.977
					c5.32-4.039,11.222-7.508,17.296-10.307c29.938-13.815,56.542,0.359,60.213,33.422c2.143,19.317,1.168,39.02,0.983,58.554
					c-0.1,10.818,0.062,20.444,14.137,22.132c3.652,0.439,8.589,1.935,7.453,7.457c-0.94,4.511-4.398,5.914-9.097,5.828
					c-16.17-0.305-32.333-0.278-48.511-0.238c-3.614,0.011-7.13-0.484-8.255-4.17c-1.551-5.041,2.156-7.717,6.21-8.556
					c11.281-2.322,12.636-10.108,12.401-19.691c-0.417-16.855,0.927-33.824-0.638-50.532c-2.502-26.741-29.399-37.407-50.982-21.545
					c-5.481,4.022-5.344,8.544-5.295,13.981c0.16,17.535,0.173,35.071,0.136,52.604c-0.025,11.325-2.607,23.865,14.483,25.671
					c3.609,0.38,6.144,3.013,5.335,7.087c-0.768,3.825-3.695,5.309-7.421,5.327c-16.851,0.067-33.707,0.104-50.563,0.195
					c-4.395,0.032-8.213-0.938-8.676-6.061c-0.376-4.227,3.059-6.263,6.31-6.547c14.409-1.288,13.877-11.691,14.348-22.012
					c0.797-17.521,1.785-35.058-0.896-52.483c-2.83-18.388-13.526-27.99-29.918-25.259c-15.923,2.657-29.992,7.73-27.727,29.375
					c1.601,15.337,0.513,30.981,0.335,46.49c-0.125,11.121-0.872,22.218,14.545,23.867c3.898,0.429,5.709,3.238,5.177,7.182
					c-0.754,5.635-5.121,5.258-9.151,5.271c-16.17,0.03-32.347-0.074-48.506,0.1c-4.517,0.035-8.187-0.793-8.681-5.885
					c-0.395-4.087,2.701-6.265,6.154-6.672c14.88-1.725,15.472-12.246,15.38-23.691c-0.104-12.795-0.259-25.627,0.5-38.406
					c1.138-19.052,1.563-37.241-27.026-39.606C1586.882,2948.154,1587.969,2946.394,1589.071,2944.625"/>
				<path fill="#FFFFFF" d="M2301.827,2935.356c1.896,10.269,0.871,19.464-7.205,20.613c-15.23,2.164-14.676,10.628-15.258,22.604
					c-1.209,25.092-18.949,41.101-47.83,46.68c-7.032,1.348-18.037,0.472-17.806,9.346c0.246,9.835,11.276,9.353,19.257,10.156
					c13.385,1.366,26.941,1.872,40.129,4.331c21.982,4.128,32.475,22.33,26.391,43.836c-11.828,41.749-76.461,64.741-112.521,40.026
					c-21.897-15.015-23.332-36.204-3.485-53.153c5.111-4.369,10.565-8.341,15.845-12.517c-22.536-20.017-22.536-20.017,4.256-40.696
					c-27.213-18.074-35.943-40.404-25.104-64.174c10.596-23.251,44.426-36.705,73.202-28.252
					C2267.954,2938.916,2283.782,2944.834,2301.827,2935.356 M2236.021,3069.402c-24.495-0.592-39.552,9.189-41.561,23.672
					c-2.064,14.86,9.8,27.763,29.852,31.657c13.469,2.619,26.694,1.519,38.792-5.724c10.053-6.019,15.525-14.914,14.025-26.742
					c-1.463-11.504-9.656-17.102-20.266-19.314C2248.384,3071.169,2239.765,3070.034,2236.021,3069.402 M2253.61,2981.428
					c0.16-22.122-10.887-36.706-28.126-37.124c-14.879-0.345-25.067,11.874-25.093,30.128c-0.03,22.107,12.746,38.508,29.887,38.31
					C2245.116,3012.594,2253.47,3001.372,2253.61,2981.428"/>
				<path fill="#FFFFFF" d="M2050.304,2950.779c21.899-14.563,40.33-27.867,63.106-15.565c23.616,12.755,22.72,36.079,22.77,58.573
					c0.02,11.472,0.099,22.946,0.144,34.401c0.037,10.358-0.575,20.922,14.268,21.899c4.244,0.278,7.647,3.102,7.136,8.084
					c-0.643,6.208-5.078,6.76-10.274,6.709c-16.197-0.198-32.384-0.08-48.573,0c-4.227,0.04-8.306,0.04-8.843-5.533
					c-0.444-4.575,1.205-8.566,6.037-8.845c13.031-0.758,12.246-10.015,12.166-18.832c-0.147-17.528,0.153-35.109-0.896-52.6
					c-1.024-16.949-13.47-27.883-29.608-25.831c-15.628,1.99-28.862,7.125-27.207,27.652c1.247,15.428,0.396,31.024,0.575,46.541
					c0.117,10.732-1.482,22.43,14.717,23.394c5.023,0.298,6.099,4.628,5.279,9.091c-0.749,4.058-3.562,4.966-7.38,4.949
					c-17.529-0.131-35.071-0.031-52.612-0.056c-4.258,0-8.156-0.619-8.466-6.145c-0.222-3.921,1.792-7.267,5.228-7.551
					c17.474-1.438,14.559-14.273,14.693-25.421c0.18-14.828-0.271-29.707,0.402-44.511c0.581-12.915,0.254-24.39-15.911-27.523
					c-2.854-0.568-6.97-2.001-6.428-6.498c0.488-4.079,4.247-4.955,7.378-5.724c9.152-2.237,19.075-2.612,27.436-6.469
					C2050.385,2928.097,2052.856,2934.764,2050.304,2950.779"/>
				<path fill="#FFFFFF" d="M1918.89,2931.464c36.308,0.217,62.056,27.559,61.661,65.485c-0.429,40.779-30.117,69.932-70.731,69.481
					c-38.552-0.42-62.463-26.929-62.16-68.903C1847.95,2958.862,1877.75,2931.223,1918.89,2931.464 M1876.045,2996.979
					c0.396,11.782,3.782,28.825,16.331,42.296c9.638,10.354,21.631,15.732,36.214,11.332c14.183-4.282,19.168-15.225,21.263-28.731
					c2.093-13.483,1.626-26.884-1.631-39.936c-5.943-23.756-24.197-37.908-44.384-35.535
					C1885.61,2948.566,1875.811,2964.249,1876.045,2996.979"/>
				<path fill="#FFFFFF" d="M2317.558,2998.203c0.117-38.944,29.455-66.701,70.557-66.738c36.566-0.038,62.303,26.741,62.314,64.818
					c0.012,40.742-29.443,70.267-70.025,70.154C2341.704,3066.314,2317.435,3039.973,2317.558,2998.203 M2345.862,2995.107
					c0.174,12.562,3.48,30.291,16.555,44.314c9.676,10.358,21.713,15.61,36.275,11.124c14.156-4.377,19.217-15.361,21.041-28.882
					c1.996-14.819,1.797-29.458-3.055-43.686c-7.842-22.962-25.314-34.911-45.131-31.209
					C2355.04,2949.865,2346.093,2964.658,2345.862,2995.107"/>
				<path fill="#FFFFFF" d="M2417.583,2194.671c0.803,128.411-48.857,235.321-146.807,319.071
					c-4.023,3.458-9.082,5.684-13.594,8.525c-10.127,15.374-10.498,33.786-16.113,50.58c-13.656,0.619-4.637,21.741-19.403,21.369
					c-2.038-14.075-4.072-28.221-6.111-42.363c-2.65-6.798-5.307-13.657-7.965-20.503
					c-71.15-57.322-126.675-126.373-155.023-214.202c-35.389-109.75-22.541-217.027,21.613-321.782
					c24.588-63.308,62.879-117.158,112.595-162.933c14.453-13.272,29.956-25.322,34.094-46.07c0.057-0.495,0.617-0.927,0.99-1.36
					c1.051,1.36,2.031,2.719,3.089,4.079c20.756,51.51,67.135,83.442,97.584,127.602
					C2380.337,2000.492,2416.903,2092.151,2417.583,2194.671z"/>
			</g>
		</g>
		<g>
			<path fill="#121312" d="M3301.12,4618.833c0,594.063-481.576,1075.639-1075.635,1075.639S1149.851,5212.895,1149.851,4618.83
				c0-594.057,481.575-1075.626,1075.634-1075.626C2819.544,3543.206,3301.12,4024.773,3301.12,4618.833z"/>
			<g>
				<path fill="#FFFFFF" d="M1286.381,5035.869h64.496v-255.477l100.705,222.74c11.405,26.779,27.793,36.713,59.529,36.713
					c31.758,0,47.144-9.934,59.045-36.713l100.224-222.74v255.477h64.99v-255.477c0-24.789-9.936-36.714-30.77-43.166
					c-49.112-14.879-81.859-1.977-96.738,31.252l-98.716,220.281l-95.254-220.281c-14.385-33.216-47.627-46.118-97.232-31.252
					c-20.34,6.452-30.264,18.365-30.264,43.166v255.477H1286.381L1286.381,5035.869z M1788.943,4828.006h64.978v140.399
					c-0.483,7.934,2.484,25.805,37.703,26.286c18.364,0.493,139.904,0,140.893,0v-167.685h64.991v229.71
					c0,56.55-69.946,68.933-102.694,69.438h-204.4v-43.152h204.893c41.673-4.462,36.715-25.298,36.715-32.243v-16.882h-137.419
					c-64.002-0.496-105.178-28.77-105.661-61.023C1788.943,4969.89,1790.413,4828.995,1788.943,4828.006 M3182.966,4665.291
					c-39.67-0.988-70.453,2.979-96.254,13.903c-7.416,2.989-19.342,2.989-20.316,12.407c3.969,3.956,4.447,10.405,7.934,15.881
					c5.943,9.923,16.373,23.305,25.791,30.253c10.43,7.957,20.848,15.88,31.748,22.825c19.34,11.887,41.164,18.846,60.01,30.76
					c10.924,6.942,21.836,15.867,32.748,23.318c5.451,3.967,8.936,10.43,15.881,12.902v-1.508
					c-3.473-4.449-4.475-10.889-7.934-15.867c-4.969-4.958-9.924-9.432-14.891-14.387c-14.373-19.352-32.244-36.221-51.607-50.084
					c-15.881-10.926-50.605-25.805-57.057-44.157l-0.975-1.013c10.896-0.998,23.813-4.965,34.229-7.946
					c16.871-4.449,32.244-3.458,49.594-7.921c7.959-1.986,15.879-4.473,23.838-6.942v-4.462
					c-8.934-8.936-15.387-20.85-24.801-29.275c-25.297-21.832-53.09-43.161-81.871-61.018
					c-15.373-9.924-35.221-16.387-51.568-24.803c-5.982-2.979-15.881-4.46-19.354-9.429c-8.947-10.912-13.902-25.295-20.34-38.197
					c-14.385-27.285-28.287-57.538-40.684-86.321c-8.922-19.352-14.398-38.693-25.297-56.551
					c-51.102-84.342-106.66-135.441-191.992-185.539c-18.352-10.419-40.176-14.889-63.508-20.343
					c-12.395-0.495-24.789-1.481-37.197-1.99c-7.961-3.458-15.879-12.899-22.838-17.358
					c-28.262-17.857-101.199-56.553-122.047-5.465c-13.396,32.244,19.848,63.991,31.254,80.365
					c8.451,11.418,19.352,24.307,25.32,37.211c3.449,8.427,4.438,17.362,7.924,26.295c7.932,21.824,15.385,46.137,25.799,66.477
					c5.441,10.419,11.396,21.342,18.34,30.77c3.969,5.462,10.928,7.934,12.396,16.869c-6.945,9.922-7.428,24.801-11.395,37.226
					c-17.857,56.055-10.912,125.505,14.385,166.67c7.945,12.406,26.791,39.687,52.1,29.27c22.318-8.93,17.35-37.203,23.803-62.02
					c1.506-5.946,0.504-9.913,3.471-13.88v0.991c6.957,13.88,13.891,27.286,20.34,41.176c15.389,24.31,42.178,49.61,64.512,66.482
					c11.898,8.933,21.314,24.317,36.205,29.769v-1.495h-0.988c-2.979-4.448-7.439-6.438-11.418-9.924
					c-8.922-8.938-18.846-19.85-25.791-29.771c-20.824-27.773-39.174-58.546-55.549-90.291
					c-7.959-15.374-14.904-32.246-21.33-47.617c-3.004-5.96-3.004-14.89-7.947-17.857c-7.453,10.912-18.35,20.343-23.826,33.725
					c-9.441,21.331-10.418,47.628-13.877,74.916c-2.002,0.504-1.002,0-2.002,0.985c-15.857-3.953-21.332-20.34-27.287-34.217
					c-14.865-35.232-17.361-91.782-4.461-132.466c3.461-10.416,18.365-43.166,12.42-53.076c-3.002-9.432-12.9-14.879-18.363-22.33
					c-6.451-9.432-13.385-21.332-17.846-31.748c-11.902-27.781-17.846-58.541-30.758-86.321
					c-5.971-12.899-16.387-26.297-24.818-38.197c-9.428-13.396-19.818-22.826-27.273-38.693c-2.484-5.461-5.957-14.384-1.988-20.34
					c0.975-3.967,2.977-5.451,6.934-6.439c6.449-5.461,24.814,1.484,31.266,4.449c18.352,7.438,33.725,14.396,49.1,24.803
					c6.945,4.955,14.396,14.383,23.33,16.88h10.432c15.879,3.463,33.725,0.988,48.602,5.437c26.285,8.453,50.1,20.849,71.441,34.247
					c64.992,41.165,118.586,99.705,154.783,169.661c5.943,11.405,8.428,21.824,13.902,33.738
					c10.42,24.31,23.318,49.112,33.715,72.926c10.428,23.319,20.354,47.13,35.23,66.472c7.449,10.43,37.197,15.869,50.594,21.331
					c9.936,4.46,25.297,8.439,34.256,13.891c16.855,10.416,33.725,22.335,49.604,33.743
					C3156.667,4642.97,3181.481,4655.367,3182.966,4665.291"/>
				<path fill="#FFFFFF" d="M2676.933,4234.179c-8.428,0-14.371,0.986-20.314,2.483v0.991h0.977
					c3.967,7.943,10.91,13.395,15.879,20.34c3.967,7.931,7.439,15.867,11.418,23.812l0.977-0.988
					c6.945-4.955,10.43-12.902,10.43-24.803c-2.977-3.474-3.473-6.956-5.943-10.419
					C2687.376,4240.629,2680.913,4238.157,2676.933,4234.179"/>
				<path fill="#FFFFFF" d="M2147.125,5035.869h186.531c21.824,0,42.672-4.449,59.527-12.396
					c28.275-12.902,41.674-30.25,41.674-53.076v-47.615c0-18.353-15.375-35.728-46.123-47.615
					c-15.879-5.956-35.727-9.431-55.064-9.431h-78.387c-26.285,0-38.68-7.957-42.166-25.309c-0.494-1.977-0.494-3.967-0.494-5.943
					v-29.278c0-1.494,0-3.471,0.494-5.447c3.473-13.398,10.417-16.883,33.244-19.344h190.99v-43.166h-181.588
					c-26.285,0-40.175,1.497-52.583,5.464c-38.198,11.899-55.067,30.743-55.067,63.975v37.718c0,29.262,32.75,54.078,88.312,60.021
					c5.943,0.506,12.395,0.506,18.846,0.506h66.979c2.484,0,4.943,0,6.922,0.496c20.354,1.975,29.275,5.448,35.232,12.886
					c3.967,3.97,4.965,7.441,4.965,11.914v37.704c0,4.447-2.977,10.431-8.934,15.375c-5.969,4.952-15.398,8.426-27.793,8.936
					c-2.486,0-3.955,0.492-6.451,0.492h-179.066V5035.869L2147.125,5035.869z M2838.673,4960.978
					c0,44.154,33.244,68.943,99.719,73.912c6.449,0.507,12.406,0.979,18.846,0.979h168.684v-43.143h-170.154
					c-37.729,0-52.113-9.428-52.113-32.257v-223.23h-64.992v223.737h0.012V4960.978z M2476.019,4962.945v-153.771
					c0-39.199,27.779-63.024,81.871-70.454c5.957-0.493,11.9-0.999,17.352-0.999h123.021c6.449,0,11.924,0.503,18.365,0.999
					c54.078,7.43,81.35,31.255,81.35,70.454v153.771c0,31.744-11.393,48.627-38.197,60.045l63.494,57.525h-74.887l-51.621-46.627
					l-52.1,2.981h-69.453c-11.395,0-24.297-1.47-37.689-4.944C2496.372,5020.494,2476.019,4998.669,2476.019,4962.945z
					 M2545.964,4959.495c0,1.977,1.002,3.942,1.51,6.452c3.471,17.844,20.326,27.768,46.119,27.768h58.564l-53.584-48.616h74.9
					l47.121,42.673c8.947-4.969,14.396-11.927,16.373-20.85c0.508-1.977,0.508-4.445,0.508-6.449v-147.345
					c0-1.974,0-3.939-0.508-5.943c-3.473-16.869-20.328-26.286-45.625-26.286h-97.752c-28.771,0-47.627,12.409-47.627,32.229
					V4959.495z"/>
			</g>
		</g>
	</g>
	<g>
		<g opacity="0.8">
			<g>
				
					<line fill="none" stroke="#121312" stroke-width="57" stroke-miterlimit="10" x1="408.581" y1="913.432" x2="4047.565" y2="913.432"/>
				<g>
					<path fill="#121312" d="M414.581,1033.443c-66.271,0-120.012-53.74-120.012-120.012c0-66.272,53.74-120.013,120.012-120.013
						c66.271,0,120.012,53.74,120.012,120.013C534.592,979.703,480.852,1033.443,414.581,1033.443z"/>
				</g>
				<g>
					<path fill="#121312" d="M4041.563,1033.443c66.271,0,120.012-53.74,120.012-120.012c0-66.272-53.74-120.013-120.012-120.013
						s-120.012,53.74-120.012,120.013C3921.552,979.703,3975.292,1033.443,4041.563,1033.443z"/>
				</g>
			</g>
		</g>
		<g>
			<path fill="#231F20" d="M176.871,422.004h31.847l46.978,248.411h11.544l56.135-246.026h35.826l56.135,246.026h11.543
				l46.979-248.411h31.451L449.574,697.49h-56.135l-52.148-235.281L289.137,697.49h-56.13L176.871,422.004z"/>
			<path fill="#231F20" d="M564.224,690.923c-12.478-7.032-21.367-17.978-26.67-32.847c-5.313-14.858-7.961-34.496-7.961-58.92
				c0-25.211,2.784-45.446,8.36-60.708c5.568-15.257,14.59-26.409,27.066-33.441c12.474-7.025,29.063-10.553,49.764-10.553
				c20.963,0,37.621,3.582,49.962,10.752c12.34,7.164,21.299,18.309,26.874,33.44c5.575,15.125,8.359,35.299,8.359,60.51
				c0,24.424-2.653,44.062-7.962,58.92c-5.313,14.869-14.135,25.813-26.476,32.847c-12.341,7.028-29.261,10.549-50.759,10.549
				C593.546,701.473,576.696,697.951,564.224,690.923z M648.623,668.23c7.694-4.91,13.07-12.74,16.123-23.486
				c3.052-10.752,4.578-25.941,4.578-45.588c0-20.701-1.589-36.624-4.778-47.771c-3.184-11.15-8.627-19.112-16.321-23.891
				c-7.698-4.772-18.708-7.163-33.042-7.163c-14.328,0-25.417,2.391-33.24,7.163c-7.831,4.778-13.406,12.739-16.722,23.891
				c-3.319,11.146-4.977,27.068-4.977,47.771c0,19.379,1.524,34.505,4.578,45.388c3.046,10.885,8.491,18.776,16.32,23.687
				c7.825,4.914,19.177,7.363,34.039,7.363C629.778,675.594,640.923,673.145,648.623,668.23z"/>
			<path fill="#231F20" d="M748.546,411.649h29.858v168.798l31.054-1.594l56.928-80.42h33.839l-64.888,91.569l67.679,107.486h-33.84
				l-59.317-92.36l-31.453,1.196v91.164h-29.858L748.546,411.649L748.546,411.649z"/>
			<path fill="#231F20" d="M939.236,498.434h29.46v27.074c22.823-15.654,47.107-26.14,72.854-31.452v30.257
				c-10.348,2.13-21.566,5.375-33.641,9.756c-12.079,4.38-21.697,8.43-28.861,12.142l-9.955,5.177v146.104h-29.857V498.434
				L939.236,498.434z"/>
			<path fill="#231F20" d="M1076.979,418.813h29.461v34.638h-29.461V418.813z M1076.979,498.434h29.461V697.49h-29.461V498.434z"/>
			<path fill="#231F20" d="M1163.759,498.434h29.459v13.937c11.948-6.628,22.895-11.275,32.85-13.937
				c9.948-2.647,20.364-3.979,31.248-3.979c16.981,0,30.12,3.188,39.415,9.557c9.287,6.372,15.854,16.521,19.703,30.456
				c3.846,13.931,5.775,33.241,5.775,57.924v105.101h-29.46V593.188c0-18.845-1.134-33.304-3.384-43.396
				c-2.261-10.079-6.311-17.38-12.147-21.896c-5.837-4.51-14.327-6.767-25.479-6.767c-9.021,0-18.247,1.135-27.666,3.385
				c-9.425,2.261-17.058,4.846-22.888,7.762l-7.569,3.581v161.635h-29.857V498.434z"/>
			<path fill="#231F20" d="M1387.296,777.709c-12.341-8.895-18.515-23.686-18.515-44.393c0-8.496,0.997-15.461,2.984-20.899
				c1.992-5.438,5.107-10.286,9.356-14.528c4.242-4.242,10.608-9.687,19.112-16.32c-3.727-2.394-6.511-5.975-8.36-10.752
				c-1.862-4.777-2.791-9.813-2.791-15.127c0-3.444,0.797-7.227,2.392-11.344c1.589-4.111,5.303-11.35,11.146-21.699
				c-20.969-9.286-31.453-29.191-31.453-59.716c0-23.088,6.236-40.27,18.713-51.557c12.473-11.276,31.313-16.92,56.534-16.92
				c12.204,0,25.735,1.73,40.604,5.177l58.921-1.595v25.479l-37.82-0.791c4.511,4.518,7.825,10.02,9.95,16.521
				c2.124,6.505,3.188,14.797,3.188,24.883c0,23.621-6.11,40.474-18.313,50.56c-12.21,10.086-31.447,15.127-57.726,15.127
				c-8.229,0-15-0.53-20.303-1.598c-2.129,5.315-3.849,9.956-5.176,13.937c-1.333,3.981-1.993,7.433-1.993,10.354
				c0,6.902,2.722,11.412,8.16,13.532c5.438,2.129,13.867,3.188,25.279,3.188h15.53c17.519,0,31.646,1.326,42.398,3.981
				c10.746,2.653,19.038,8.028,24.882,16.121c5.831,8.099,8.759,19.837,8.759,35.233c0,23.088-7.17,39.939-21.499,50.562
				c-14.334,10.608-37.956,15.923-70.861,15.923C1420.668,791.047,1399.637,786.6,1387.296,777.709z M1499.362,757.009
				c8.758-5.974,13.138-16.26,13.138-30.855c0-8.497-1.464-14.927-4.38-19.306c-2.928-4.379-7.83-7.364-14.732-8.959
				c-6.9-1.595-16.855-2.391-29.857-2.391l-42.991-1.989c-8.759,6.367-14.67,11.943-17.718,16.722
				c-3.053,4.776-4.577,11.146-4.577,19.105c0,13.8,4.043,23.355,12.142,28.669c8.092,5.301,22.357,7.962,42.797,7.962
				C1475.209,765.967,1490.604,762.977,1499.362,757.009z M1481.046,595.973c6.902-6.63,10.354-17.917,10.354-33.84
				c0-15.654-3.451-26.801-10.354-33.439c-6.901-6.63-18.309-9.948-34.237-9.948c-16.459,0-28.201,3.382-35.229,10.146
				c-7.039,6.772-10.553,17.984-10.553,33.643c0,15.66,3.514,26.811,10.553,33.439c7.027,6.641,18.64,9.953,34.836,9.953
				C1462.6,605.926,1474.145,602.612,1481.046,595.973z"/>
			<path fill="#231F20" d="M1653.016,422.004h31.854l46.978,248.411h11.544l56.136-246.026h35.827l56.135,246.026h11.544
				l46.977-248.411h31.448L1925.72,697.49h-56.129l-52.154-235.281L1765.29,697.49h-56.135L1653.016,422.004z"/>
			<path fill="#231F20" d="M2022.459,418.813h29.459v34.638h-29.459V418.813z M2022.459,498.434h29.459V697.49h-29.459V498.434z"/>
			<path fill="#231F20" d="M2134.917,695.303c-7.563-4.38-13.008-11.811-16.322-22.295c-3.319-10.483-4.978-25.143-4.978-43.994
				V524.313h-28.266v-25.878h28.266v-60.905h29.46v60.905h63.299v25.878h-63.299v95.151c0,14.863,0.528,25.94,1.595,33.241
				c1.054,7.301,3.645,12.877,7.762,16.721c4.111,3.851,10.547,5.771,19.307,5.771l35.435-2.388l1.987,24.683
				c-18.846,2.916-33.042,4.38-42.6,4.38C2153.033,701.87,2142.479,699.678,2134.917,695.303z"/>
			<path fill="#231F20" d="M2243.001,411.649h29.859v97.937c11.674-5.309,22.488-9.157,32.443-11.55
				c9.953-2.386,20.104-3.582,30.455-3.582c17.252,0,30.59,3.126,40.008,9.355c9.42,6.241,16.055,16.392,19.908,30.458
				c3.846,14.07,5.771,33.439,5.771,58.122V697.49h-29.859V593.188c0-19.637-1.127-34.438-3.383-44.394
				c-2.254-9.948-6.504-17.051-12.74-21.299c-6.234-4.237-15.461-6.367-27.666-6.367c-15.131,0-30.922,3.054-47.375,9.158
				l-7.563,2.785v164.418h-29.859V411.649z"/>
			<path fill="#231F20" d="M2712.155,440.313c14.996,12.21,25.014,27.739,30.059,46.578c5.039,18.852,7.57,40.873,7.57,66.084
				c0,50.429-8.305,87.127-24.889,110.076c-16.59,22.963-42.27,34.438-77.029,34.438h-98.336V422.003h98.336
				C2675.731,422.004,2697.161,428.108,2712.155,440.313z M2718.329,555.766c0-37.153-5.711-64.228-17.119-81.216
				c-11.412-16.98-29.197-25.479-53.344-25.479h-67.68v221.344h67.68C2694.843,670.415,2718.329,632.203,2718.329,555.766z"/>
			<path fill="#231F20" d="M2802.724,685.947c-9.557-10.354-14.334-25.213-14.334-44.592c0-19.106,4.84-33.306,14.531-42.594
				c9.689-9.288,25.146-14.994,46.381-17.119l62.506-5.974V558.55c0-25.211-10.887-37.819-32.646-37.819
				c-21.5,0-47.645,1.731-78.424,5.177l-1.197-22.693c28.395-5.832,54.271-8.76,77.627-8.76c22.559,0,38.949,5.113,49.166,15.33
				c10.217,10.218,15.33,26.472,15.33,48.767v101.916c0.797,9.825,8.496,15.662,23.088,17.52l-1.197,23.485
				c-20.969,0-36.754-5.308-47.369-15.925c-23.623,10.617-47.514,15.925-71.66,15.925
				C2826.208,701.473,2812.278,696.294,2802.724,685.947z M2902.651,667.233l9.156-3.185v-65.686l-58.926,5.568
				c-11.941,1.065-20.57,4.517-25.877,10.354c-5.313,5.837-7.963,14.329-7.963,25.479c0,24.421,10.088,36.624,30.258,36.624
				C2867.081,676.391,2884.86,673.343,2902.651,667.233z"/>
			<path fill="#231F20" d="M3032.235,695.303c-7.57-4.38-13.01-11.811-16.322-22.295c-3.326-10.483-4.979-25.143-4.979-43.994
				V524.313h-28.27v-25.878h28.27v-60.905h29.459v60.905h63.301v25.878h-63.301v95.151c0,14.863,0.531,25.94,1.59,33.241
				c1.061,7.301,3.645,12.877,7.762,16.721c4.113,3.851,10.553,5.771,19.313,5.771l35.43-2.388l1.992,24.683
				c-18.85,2.916-33.043,4.38-42.598,4.38C3050.345,701.87,3039.798,699.678,3032.235,695.303z"/>
			<path fill="#231F20" d="M3141.907,685.947c-9.557-10.354-14.334-25.213-14.334-44.592c0-19.106,4.84-33.306,14.533-42.594
				c9.682-9.288,25.145-14.994,46.379-17.119l62.504-5.974V558.55c0-25.211-10.891-37.819-32.646-37.819
				c-21.496,0-47.643,1.731-78.43,5.177l-1.191-22.693c28.396-5.832,54.273-8.76,77.629-8.76c22.559,0,38.947,5.113,49.164,15.33
				c10.219,10.218,15.33,26.472,15.33,48.767v101.916c0.799,9.825,8.494,15.662,23.088,17.52l-1.195,23.485
				c-20.969,0-36.76-5.308-47.369-15.925c-23.629,10.617-47.514,15.925-71.66,15.925
				C3165.396,701.473,3151.464,696.294,3141.907,685.947z M3241.831,667.233l9.158-3.185v-65.686l-58.922,5.568
				c-11.941,1.065-20.568,4.517-25.877,10.354c-5.314,5.837-7.961,14.329-7.961,25.479c0,24.421,10.08,36.624,30.256,36.624
				C3206.261,676.391,3224.046,673.343,3241.831,667.233z"/>
			<path fill="#231F20" d="M3350.911,698.288l-11.15-1.196V411.65h29.461v96.739c20.701-9.288,40.867-13.936,60.514-13.936
				c17.52,0,31.313,3.389,41.402,10.154c10.08,6.766,17.449,17.586,22.098,32.442c4.635,14.869,6.965,34.773,6.965,59.719
				c0,27.342-2.922,48.436-8.76,63.299c-5.844,14.863-15.594,25.416-29.262,31.646c-13.674,6.235-32.979,9.355-57.922,9.355
				C3386.737,701.071,3368.954,700.139,3350.911,698.288z M3446.058,667.034c9.021-5.178,15.258-13.338,18.707-24.482
				c3.451-11.146,5.178-26.675,5.178-46.579c0-18.839-1.465-33.641-4.379-44.388c-2.924-10.752-7.764-18.513-14.527-23.291
				c-6.771-4.778-16.123-7.165-28.07-7.165c-14.596,0-32.514,3.851-53.744,11.543v140.137c19.113,1.334,31.854,1.986,38.221,1.986
				C3424.159,674.795,3437.03,672.21,3446.058,667.034z"/>
			<path fill="#231F20" d="M3550.753,685.947c-9.557-10.354-14.334-25.213-14.334-44.592c0-19.106,4.84-33.306,14.533-42.594
				c9.682-9.288,25.143-14.994,46.379-17.119l62.502-5.974V558.55c0-25.211-10.887-37.819-32.645-37.819
				c-21.498,0-47.643,1.731-78.43,5.177l-1.189-22.693c28.395-5.832,54.271-8.76,77.627-8.76c22.559,0,38.947,5.113,49.164,15.33
				c10.217,10.218,15.332,26.472,15.332,48.767v101.916c0.797,9.825,8.49,15.662,23.088,17.52l-1.197,23.485
				c-20.969,0-36.76-5.308-47.369-15.925c-23.629,10.617-47.514,15.925-71.66,15.925
				C3574.239,701.473,3560.31,696.294,3550.753,685.947z M3650.677,667.233l9.156-3.185v-65.686l-58.92,5.568
				c-11.939,1.065-20.568,4.517-25.877,10.354c-5.313,5.837-7.963,14.329-7.963,25.479c0,24.421,10.08,36.624,30.258,36.624
				C3615.104,676.391,3632.892,673.343,3650.677,667.233z"/>
			<path fill="#231F20" d="M3752.587,695.895l-11.941-1.986l1.596-25.878c31.049,4.517,53.875,6.765,68.469,6.765
				c15.93,0,27.805-2.585,35.635-7.761c7.824-5.179,11.744-13.47,11.744-24.884c0-8.222-1.928-14.459-5.775-18.705
				c-3.852-4.242-8.754-7.302-14.729-9.158s-14.4-3.581-25.279-5.178l-9.955-1.595c-15.922-2.647-28.4-5.832-37.422-9.551
				c-9.025-3.712-15.791-8.958-20.301-15.729c-4.518-6.767-6.768-16.121-6.768-28.064c0-21.499,6.498-36.754,19.504-45.781
				c13.004-9.021,31.455-13.537,55.34-13.537c18.84,0,38.082,1.731,57.725,5.179l11.15,1.991l-0.799,25.475
				c-28.662-4.237-51.096-6.367-67.279-6.367c-15.398,0-26.873,2.386-34.438,7.165c-7.563,4.778-11.346,12.209-11.346,22.295
				c0,7.164,1.852,12.677,5.57,16.521c3.713,3.85,8.561,6.635,14.533,8.358c5.969,1.731,14.391,3.521,25.279,5.376l9.949,1.987
				c16.453,2.928,29.191,6.313,38.219,10.155c9.021,3.85,15.73,9.355,20.107,16.521c4.381,7.163,6.566,17.119,6.566,29.858
				c0,21.499-6.311,37.222-18.906,47.177c-12.615,9.949-31.922,14.927-57.93,14.927
				C3795.187,701.473,3775.679,699.608,3752.587,695.895z"/>
			<path fill="#231F20" d="M3943.88,677.786c-12.607-15.786-18.912-40.673-18.912-74.65c0-36.886,6.771-64.222,20.303-82.007
				c13.535-17.779,34.768-26.675,63.697-26.675c26.539,0,46.381,7.637,59.52,22.894c13.139,15.263,19.705,38.687,19.705,70.266
				l-1.592,22.693h-131.375c0,16.457,1.793,29.329,5.375,38.617s9.682,15.99,18.311,20.104c8.621,4.117,20.633,6.169,36.033,6.169
				c7.691,0,16.582-0.2,26.668-0.6c10.086-0.393,19.242-0.991,27.473-1.789l11.543-1.194l0.797,23.491
				c-29.459,4.236-53.879,6.367-73.254,6.367C3977.919,701.473,3956.481,693.578,3943.88,677.786z M4058.337,586.417
				c0-24.146-3.854-41.334-11.549-51.553c-7.699-10.216-20.303-15.329-37.82-15.329c-18.311,0-31.846,5.376-40.604,16.128
				c-8.762,10.746-13.275,27.666-13.537,50.754H4058.337L4058.337,586.417z"/>
			<path fill="#231F20" d="M4138.743,695.895l-11.939-1.986l1.594-25.878c31.049,4.517,53.875,6.765,68.471,6.765
				c15.928,0,27.803-2.585,35.633-7.761c7.826-5.179,11.744-13.47,11.744-24.884c0-8.222-1.926-14.459-5.775-18.705
				c-3.85-4.242-8.754-7.302-14.727-9.158c-5.975-1.856-14.402-3.581-25.279-5.178l-9.957-1.595
				c-15.922-2.647-28.398-5.832-37.42-9.551c-9.025-3.712-15.793-8.958-20.303-15.729c-4.516-6.767-6.766-16.121-6.766-28.064
				c0-21.499,6.498-36.754,19.506-45.781c13-9.021,31.453-13.537,55.338-13.537c18.838,0,38.082,1.731,57.725,5.179l11.148,1.991
				l-0.795,25.475c-28.664-4.237-51.098-6.367-67.281-6.367c-15.396,0-26.873,2.386-34.438,7.165
				c-7.563,4.778-11.346,12.209-11.346,22.295c0,7.164,1.852,12.677,5.57,16.521c3.713,3.85,8.561,6.635,14.535,8.358
				c5.967,1.731,14.389,3.521,25.275,5.376l9.951,1.987c16.451,2.928,29.191,6.313,38.221,10.155
				c9.02,3.85,15.729,9.355,20.105,16.521c4.381,7.163,6.566,17.119,6.566,29.858c0,21.499-6.311,37.222-18.906,47.177
				c-12.615,9.949-31.92,14.927-57.93,14.927C4181.343,701.473,4161.837,699.608,4138.743,695.895z"/>
		</g>
	</g>
</g>
</svg>
