<?xml version="1.0" encoding="utf-8"?>
<!-- Generator: Adobe Illustrator 16.0.0, SVG Export Plug-In . SVG Version: 6.00 Build 0)  -->
<!DOCTYPE svg PUBLIC "-//W3C//DTD SVG 1.1//EN" "http://www.w3.org/Graphics/SVG/1.1/DTD/svg11.dtd">
<svg version="1.1" id="Layer_1" xmlns="http://www.w3.org/2000/svg" xmlns:xlink="http://www.w3.org/1999/xlink" x="0px" y="0px"
	 width="1579.78px" height="659.449px" viewBox="0 0 1579.78 659.449" enable-background="new 0 0 1579.78 659.449"
	 xml:space="preserve">
<g>
	<g>
		<g>
			<circle fill="#131313" cx="427.047" cy="419.198" r="170"/>
			<g>
				<path fill="#FFFFFF" d="M432.532,299.84c17.098,0.495,33.986,2.271,50.234,8.026c4.117,1.458,8.035,3.354,11.957,5.274
					c6.571,3.219,10.392,8.391,12.333,15.377c3.378,12.143,4.134,24.498,3.873,37.012c-0.305,14.696-2.631,29.021-7.561,42.867
					c-6.695,18.795-18.43,34.228-32.706,47.832c-12.125,11.553-25.836,20.845-41.123,27.76c-1.472,0.668-2.813,1.171-4.516,0.375
					c-31.444-14.688-56.084-36.602-71.349-68.104c-7.093-14.635-9.907-30.471-10.663-46.668c-0.577-12.385-0.245-24.704,2.628-36.84
					c0.344-1.449,0.792-2.873,1.149-4.318c1.733-7.039,5.834-11.979,12.342-15.362c10.52-5.471,21.703-8.717,33.276-10.669
					C405.679,300.164,419.098,299.654,432.532,299.84 M422.201,313.037c-4.779-0.084-14.224,0.601-23.64,1.902
					c-10.589,1.465-20.797,4.115-30.615,8.461c-5.258,2.327-8.411,5.861-9.255,11.521c-0.249,1.676-0.716,3.316-0.994,4.988
					c-1.781,10.77-2.279,21.557-1.299,32.475c1.268,14.111,3.854,27.9,10.34,40.55c13.04,25.426,33.2,43.729,58.331,56.855
					c1.572,0.821,2.732,0.384,4.107-0.315c12.051-6.137,22.986-13.853,32.712-23.242c12.79-12.35,23.418-26.178,29.332-43.222
					c3.972-11.455,5.91-23.298,6.548-35.331c0.666-12.604-0.217-25.105-4.076-37.26c-0.696-2.189-1.942-3.666-3.896-4.783
					c-4.454-2.548-9.114-4.604-14.001-6.145C459.884,314.475,443.492,313.118,422.201,313.037"/>
				<path fill="#FFFFFF" d="M477.268,494.915c2.131,0,4.265-0.022,6.398,0.003c7.725,0.092,13.329,4.309,14.818,11.131
					c1.701,7.783-1.566,14.99-8.332,18.308c-2.621,1.285-5.421,1.933-8.338,1.945c-4.157,0.017-8.316-0.016-12.476-0.079
					c-0.63-0.011-1.664,0.422-1.704-0.795c-0.023-0.676,0.424-1.282,1.139-1.346c2.748-0.245,2.737-2.297,2.757-4.229
					c0.062-6.292,0.037-12.583,0.084-18.875c0.016-2.089-0.608-3.5-2.969-3.724c-0.654-0.061-1.948,0.149-1.699-1.214
					c0.187-1.024,1.08-1.134,2.003-1.124c2.772,0.028,5.545,0.009,8.318,0.009V494.915z M476.652,509.825h0.02
					c0,3.413,0.018,6.823-0.008,10.235c-0.018,1.919,1.04,2.894,2.748,3.417c3.992,1.224,8.541,0.091,11.033-3.179
					c3.846-5.051,4.013-10.688,1.567-16.322c-2.035-4.691-7.216-7.076-13.112-6.68c-1.597,0.107-2.304,0.639-2.269,2.295
					C476.701,503.004,476.652,506.416,476.652,509.825"/>
				<path fill="#FFFFFF" d="M521.632,508.588c4.43,1.515,6.927,4.049,6.462,8.789c-0.43,4.389-3.353,6.521-6.982,7.848
					c-5.988,2.188-12.244,0.748-18.38,0.98c-0.474,0.02-0.84-0.213-0.812-0.73c0.038-0.706,0.453-1.323,1.124-1.358
					c3.447-0.186,3.263-2.603,3.255-5.02c-0.02-6.071-0.03-12.142,0.06-18.212c0.032-2.074-0.309-3.571-2.798-3.681
					c-0.604-0.027-1.71,0.053-1.544-1.097c0.153-1.045,1.004-1.188,1.94-1.182c4.153,0.027,8.307-0.01,12.46,0.016
					c3.775,0.023,7.385,0.609,9.028,4.611C527.07,503.504,524.998,506.262,521.632,508.588 M516.006,523.791
					c5.527,0.047,8.713-4.779,6.239-9.507c-1.537-2.936-4.409-3.343-7.299-3.753c-2.52-0.357-4.143,0.013-3.719,3.179
					c0.236,1.772,0.023,3.604,0.064,5.411C511.378,523.031,512.126,523.757,516.006,523.791 M511.308,502.914h-0.026
					c0,1.27-0.003,2.541,0,3.811c0.003,0.836,0.275,1.465,1.241,1.478c1.899,0.023,3.824,0.29,5.653-0.455
					c2.224-0.905,3.222-3.44,2.464-6.165c-0.828-2.975-3.872-4.655-7.616-4.172c-3.051,0.393-1.208,2.799-1.697,4.24
					C511.198,502.031,511.308,502.49,511.308,502.914"/>
				<path fill="#FFFFFF" d="M326.464,507.219c2.14-0.568,4.28-1.128,6.418-1.705c2.52-0.684,0.567,1.722,1.968,2.281
					c1-0.055,1.928-1.223,3.133-1.762c2.903-1.295,5.618-1.447,7.784,1.254c0.797,0.996,1.35,1.032,2.296,0.313
					c0.841-0.639,1.773-1.187,2.733-1.629c4.731-2.184,8.937,0.057,9.517,5.282c0.339,3.053,0.185,6.167,0.155,9.254
					c-0.016,1.71,0.01,3.231,2.234,3.498c0.577,0.069,1.357,0.306,1.178,1.179c-0.148,0.713-0.695,0.935-1.438,0.921
					c-2.556-0.048-5.11-0.044-7.667-0.037c-0.571,0.001-1.127-0.077-1.305-0.659c-0.245-0.797,0.341-1.22,0.981-1.353
					c1.783-0.367,1.997-1.598,1.96-3.112c-0.065-2.664,0.146-5.346-0.101-7.986c-0.396-4.227-4.646-5.912-8.058-3.405
					c-0.866,0.636-0.845,1.351-0.837,2.21c0.025,2.771,0.027,5.543,0.021,8.314c-0.004,1.789-0.412,3.771,2.289,4.057
					c0.57,0.061,0.971,0.477,0.843,1.12c-0.121,0.604-0.584,0.839-1.173,0.842c-2.663,0.011-5.327,0.017-7.991,0.031
					c-0.694,0.005-1.298-0.148-1.371-0.958c-0.06-0.668,0.483-0.99,0.997-1.035c2.277-0.203,2.193-1.848,2.268-3.479
					c0.126-2.77,0.282-5.541-0.142-8.295c-0.447-2.906-2.138-4.424-4.729-3.992c-2.517,0.42-4.74,1.222-4.382,4.643
					c0.253,2.424,0.081,4.896,0.053,7.348c-0.02,1.758-0.138,3.512,2.299,3.772c0.616,0.067,0.902,0.512,0.818,1.135
					c-0.119,0.891-0.81,0.831-1.446,0.833c-2.556,0.005-5.112-0.012-7.666,0.016c-0.714,0.006-1.294-0.125-1.372-0.93
					c-0.063-0.646,0.427-0.99,0.973-1.055c2.352-0.272,2.445-1.936,2.431-3.744c-0.017-2.022-0.041-4.051,0.079-6.07
					c0.18-3.011,0.247-5.886-4.271-6.26C326.118,507.776,326.29,507.498,326.464,507.219"/>
				<path fill="#FFFFFF" d="M439.112,505.754c0.3,1.623,0.138,3.076-1.139,3.258c-2.407,0.342-2.319,1.68-2.411,3.572
					c-0.191,3.966-2.995,6.496-7.56,7.378c-1.111,0.213-2.851,0.074-2.814,1.477c0.039,1.555,1.782,1.479,3.044,1.605
					c2.115,0.216,4.258,0.296,6.342,0.685c3.475,0.652,5.133,3.529,4.171,6.928c-1.869,6.599-12.084,10.232-17.783,6.326
					c-3.461-2.373-3.688-5.722-0.551-8.4c0.808-0.69,1.67-1.318,2.504-1.979c-3.562-3.163-3.562-3.163,0.673-6.432
					c-4.301-2.856-5.681-6.386-3.968-10.143c1.675-3.675,7.021-5.801,11.569-4.465C433.759,506.316,436.261,507.252,439.112,505.754
					 M428.712,526.939c-3.871-0.094-6.251,1.452-6.568,3.741c-0.326,2.349,1.549,4.388,4.718,5.003
					c2.129,0.414,4.219,0.24,6.131-0.904c1.589-0.951,2.454-2.357,2.217-4.227c-0.231-1.818-1.526-2.703-3.203-3.053
					C430.666,527.219,429.304,527.039,428.712,526.939 M431.492,513.035c0.025-3.496-1.721-5.801-4.445-5.867
					c-2.352-0.055-3.962,1.877-3.966,4.762c-0.005,3.494,2.015,6.086,4.724,6.055C430.149,517.961,431.47,516.188,431.492,513.035"
					/>
				<path fill="#FFFFFF" d="M399.36,508.191c3.461-2.302,6.374-4.404,9.974-2.46c3.732,2.016,3.591,5.702,3.599,9.257
					c0.003,1.813,0.016,3.627,0.022,5.438c0.006,1.637-0.091,3.307,2.255,3.461c0.671,0.044,1.209,0.49,1.128,1.277
					c-0.102,0.981-0.803,1.068-1.624,1.061c-2.56-0.031-5.118-0.013-7.677,0c-0.668,0.006-1.313,0.006-1.397-0.875
					c-0.07-0.723,0.19-1.354,0.954-1.397c2.06-0.12,1.936-1.583,1.923-2.977c-0.023-2.771,0.024-5.549-0.142-8.313
					c-0.162-2.679-2.129-4.406-4.68-4.082c-2.47,0.314-4.562,1.126-4.3,4.37c0.197,2.438,0.063,4.903,0.091,7.355
					c0.019,1.696-0.234,3.545,2.326,3.697c0.794,0.047,0.964,0.731,0.834,1.437c-0.118,0.642-0.563,0.785-1.166,0.782
					c-2.771-0.021-5.543-0.005-8.315-0.009c-0.673,0-1.289-0.098-1.338-0.971c-0.035-0.62,0.283-1.148,0.826-1.193
					c2.762-0.228,2.301-2.256,2.322-4.018c0.028-2.344-0.043-4.695,0.063-7.035c0.092-2.041,0.04-3.854-2.515-4.35
					c-0.451-0.09-1.102-0.316-1.016-1.027c0.077-0.645,0.671-0.783,1.166-0.904c1.446-0.354,3.015-0.413,4.336-1.022
					C399.373,504.606,399.764,505.66,399.36,508.191"/>
				<path fill="#FFFFFF" d="M378.591,505.139c5.738,0.034,9.808,4.355,9.745,10.35c-0.067,6.445-4.76,11.053-11.179,10.981
					c-6.093-0.066-9.872-4.256-9.824-10.89C367.379,509.469,372.089,505.101,378.591,505.139 M371.819,515.493
					c0.063,1.862,0.598,4.556,2.581,6.685c1.523,1.637,3.419,2.486,5.724,1.791c2.241-0.677,3.029-2.406,3.36-4.541
					c0.331-2.131,0.257-4.249-0.258-6.312c-0.939-3.755-3.824-5.991-7.015-5.616C373.331,507.842,371.782,510.32,371.819,515.493"/>
				<path fill="#FFFFFF" d="M441.599,515.687c0.019-6.155,4.655-10.542,11.151-10.548c5.779-0.006,9.847,4.227,9.849,10.244
					c0.002,6.439-4.653,11.105-11.067,11.088C445.415,526.451,441.579,522.288,441.599,515.687 M446.072,515.197
					c0.027,1.985,0.55,4.787,2.616,7.004c1.529,1.637,3.432,2.467,5.733,1.758c2.237-0.691,3.037-2.428,3.325-4.564
					c0.315-2.342,0.284-4.655-0.482-6.904c-1.239-3.629-4.001-5.518-7.133-4.933C447.522,508.047,446.108,510.385,446.072,515.197"
					/>
				<path fill="#FFFFFF" d="M457.407,388.691c0.127,20.295-7.722,37.191-23.202,50.428c-0.636,0.547-1.436,0.898-2.148,1.348
					c-1.601,2.43-1.659,5.34-2.547,7.994c-2.158,0.098-0.732,3.436-3.066,3.377c-0.322-2.225-0.644-4.46-0.966-6.695
					c-0.419-1.074-0.839-2.158-1.259-3.24c-11.245-9.06-20.021-19.973-24.501-33.854c-5.593-17.346-3.563-34.301,3.416-50.856
					c3.886-10.006,9.938-18.517,17.795-25.751c2.284-2.098,4.734-4.002,5.389-7.281c0.009-0.078,0.098-0.146,0.156-0.215
					c0.166,0.215,0.321,0.43,0.488,0.645c3.28,8.141,10.61,13.188,15.423,20.167C451.521,358.002,457.3,372.488,457.407,388.691z"/>
			</g>
		</g>
		<g>
			<circle fill="#131313" cx="1152.733" cy="419.197" r="170"/>
			<g>
				<path fill="#FFFFFF" d="M1004.312,485.108h10.193v-40.377l15.916,35.203c1.803,4.232,4.393,5.803,9.408,5.803
					c5.02,0,7.451-1.57,9.332-5.803l15.84-35.203v40.377h10.271v-40.377c0-3.918-1.57-5.803-4.863-6.822
					c-7.762-2.352-12.938-0.313-15.289,4.939l-15.602,34.814l-15.055-34.814c-2.273-5.25-7.527-7.289-15.367-4.939
					c-3.215,1.02-4.783,2.902-4.783,6.822v40.377H1004.312z M1083.739,452.257h10.27v22.189c-0.076,1.254,0.393,4.078,5.959,4.154
					c2.902,0.078,22.111,0,22.268,0v-26.502h10.271v36.305c0,8.938-11.055,10.895-16.23,10.975h-32.305v-6.82h32.383
					c6.586-0.705,5.803-3.998,5.803-5.096v-2.668h-21.719c-10.115-0.078-16.623-4.547-16.699-9.645
					C1083.739,474.681,1083.972,452.413,1083.739,452.257 M1304.06,426.54c-6.27-0.156-11.135,0.471-15.213,2.197
					c-1.172,0.473-3.057,0.473-3.211,1.961c0.627,0.625,0.703,1.645,1.254,2.51c0.939,1.568,2.588,3.684,4.076,4.781
					c1.648,1.258,3.295,2.51,5.018,3.607c3.057,1.879,6.506,2.979,9.484,4.861c1.727,1.098,3.451,2.508,5.176,3.686
					c0.861,0.627,1.412,1.648,2.51,2.039v-0.238c-0.549-0.703-0.707-1.721-1.254-2.508c-0.785-0.783-1.568-1.49-2.354-2.273
					c-2.271-3.059-5.096-5.725-8.156-7.916c-2.51-1.727-7.998-4.078-9.018-6.979l-0.154-0.16c1.723-0.158,3.764-0.785,5.41-1.256
					c2.666-0.703,5.096-0.547,7.838-1.252c1.258-0.314,2.51-0.707,3.768-1.098v-0.705c-1.412-1.412-2.432-3.295-3.92-4.627
					c-3.998-3.45-8.391-6.821-12.939-9.644c-2.43-1.568-5.566-2.59-8.15-3.92c-0.945-0.471-2.51-0.705-3.059-1.49
					c-1.414-1.725-2.197-3.998-3.215-6.037c-2.273-4.313-4.471-9.094-6.43-13.643c-1.41-3.059-2.275-6.115-3.998-8.938
					c-8.076-13.33-16.857-21.406-30.344-29.324c-2.9-1.646-6.35-2.354-10.037-3.215c-1.959-0.078-3.918-0.234-5.879-0.314
					c-1.258-0.547-2.51-2.039-3.609-2.744c-4.467-2.822-15.994-8.938-19.289-0.863c-2.117,5.096,3.137,10.113,4.939,12.701
					c1.336,1.805,3.059,3.842,4.002,5.881c0.545,1.332,0.701,2.744,1.252,4.156c1.254,3.449,2.432,7.291,4.078,10.506
					c0.859,1.646,1.801,3.373,2.898,4.863c0.627,0.863,1.727,1.254,1.959,2.666c-1.098,1.568-1.174,3.92-1.801,5.883
					c-2.822,8.859-1.725,19.836,2.273,26.342c1.256,1.961,4.234,6.272,8.234,4.626c3.527-1.411,2.742-5.88,3.762-9.802
					c0.238-0.939,0.08-1.566,0.549-2.193v0.156c1.1,2.193,2.195,4.313,3.215,6.508c2.432,3.842,6.666,7.841,10.195,10.507
					c1.881,1.412,3.369,3.844,5.723,4.705v-0.236h-0.156c-0.471-0.703-1.176-1.018-1.805-1.568c-1.41-1.412-2.979-3.137-4.076-4.705
					c-3.291-4.39-6.191-9.253-8.779-14.271c-1.258-2.43-2.355-5.096-3.371-7.525c-0.475-0.941-0.475-2.354-1.256-2.822
					c-1.178,1.725-2.9,3.215-3.766,5.33c-1.492,3.371-1.646,7.527-2.193,11.84c-0.316,0.08-0.158,0-0.316,0.156
					c-2.506-0.625-3.371-3.215-4.313-5.408c-2.35-5.568-2.744-14.506-0.705-20.936c0.547-1.646,2.902-6.822,1.963-8.389
					c-0.475-1.49-2.039-2.352-2.902-3.529c-1.02-1.49-2.115-3.371-2.82-5.018c-1.881-4.391-2.82-9.252-4.861-13.643
					c-0.943-2.039-2.59-4.156-3.922-6.037c-1.49-2.117-3.133-3.607-4.311-6.115c-0.393-0.863-0.941-2.273-0.314-3.215
					c0.154-0.627,0.471-0.861,1.096-1.018c1.02-0.863,3.922,0.234,4.941,0.703c2.9,1.176,5.33,2.275,7.76,3.92
					c1.098,0.783,2.275,2.273,3.688,2.668h1.648c2.51,0.547,5.33,0.156,7.682,0.859c4.154,1.336,7.918,3.295,11.291,5.412
					c10.271,6.506,18.742,15.758,24.463,26.814c0.939,1.803,1.332,3.449,2.197,5.332c1.646,3.842,3.686,7.762,5.328,11.525
					c1.648,3.686,3.217,7.449,5.568,10.506c1.178,1.648,5.879,2.508,7.996,3.371c1.57,0.705,3.998,1.334,5.414,2.195
					c2.664,1.646,5.33,3.53,7.84,5.333C1299.903,423.013,1303.825,424.972,1304.06,426.54"/>
				<path fill="#FFFFFF" d="M1224.083,358.404c-1.332,0-2.271,0.156-3.211,0.393v0.156h0.154c0.627,1.256,1.725,2.117,2.51,3.215
					c0.627,1.254,1.176,2.508,1.805,3.764l0.154-0.156c1.098-0.783,1.648-2.039,1.648-3.92c-0.471-0.549-0.549-1.1-0.939-1.646
					C1225.733,359.424,1224.712,359.033,1224.083,358.404"/>
				<path fill="#FFFFFF" d="M1140.349,485.108h29.48c3.449,0,6.744-0.703,9.408-1.959c4.469-2.039,6.586-4.781,6.586-8.389v-7.525
					c0-2.9-2.43-5.646-7.289-7.525c-2.51-0.941-5.646-1.49-8.703-1.49h-12.389c-4.154,0-6.113-1.258-6.664-4
					c-0.078-0.313-0.078-0.627-0.078-0.939v-4.627c0-0.236,0-0.549,0.078-0.861c0.549-2.117,1.646-2.668,5.254-3.057h30.186v-6.822
					h-28.699c-4.154,0-6.35,0.236-8.311,0.863c-6.037,1.881-8.703,4.859-8.703,10.111v5.961c0,4.625,5.176,8.547,13.957,9.486
					c0.939,0.08,1.959,0.08,2.979,0.08h10.586c0.393,0,0.781,0,1.094,0.078c3.217,0.313,4.627,0.861,5.568,2.037
					c0.627,0.627,0.785,1.176,0.785,1.883v5.959c0,0.703-0.471,1.648-1.412,2.43c-0.943,0.783-2.434,1.332-4.393,1.412
					c-0.393,0-0.625,0.078-1.02,0.078h-28.301V485.108z M1249.646,473.272c0,6.979,5.254,10.896,15.76,11.682
					c1.02,0.08,1.961,0.154,2.979,0.154h26.66v-6.818h-26.893c-5.963,0-8.236-1.49-8.236-5.098v-35.281h-10.271v35.361H1249.646z
					 M1192.329,473.583V449.28c0-6.195,4.391-9.961,12.939-11.135c0.941-0.078,1.881-0.158,2.742-0.158h19.443
					c1.02,0,1.885,0.08,2.902,0.158c8.547,1.174,12.857,4.939,12.857,11.135v24.303c0,5.018-1.801,7.686-6.037,9.49l10.035,9.092
					h-11.836l-8.158-7.369l-8.234,0.471h-10.977c-1.801,0-3.84-0.232-5.957-0.781
					C1195.546,482.679,1192.329,479.229,1192.329,473.583z M1203.384,473.038c0,0.313,0.158,0.623,0.238,1.02
					c0.549,2.82,3.213,4.389,7.289,4.389h9.256l-8.469-7.684h11.838l7.447,6.744c1.414-0.785,2.275-1.885,2.588-3.295
					c0.08-0.313,0.08-0.703,0.08-1.02v-23.287c0-0.313,0-0.623-0.08-0.939c-0.549-2.666-3.213-4.154-7.211-4.154h-15.449
					c-4.547,0-7.527,1.961-7.527,5.094V473.038z"/>
			</g>
		</g>
	</g>
	<g>
		<g opacity="0.8">
			<g>
				
					<line fill="none" stroke="#131313" stroke-width="12" stroke-miterlimit="10" x1="482.337" y1="165.034" x2="1097.443" y2="165.034"/>
				<g>
					<circle fill="#131313" cx="483.601" cy="165.034" r="25.266"/>
				</g>
				<g>
					<circle fill="#131313" cx="1096.18" cy="165.034" r="25.266"/>
				</g>
			</g>
		</g>
		<g>
			<path d="M438.152,80.764h5.461l8.056,42.598h1.979l9.626-42.188h6.144l9.626,42.188h1.979l8.056-42.598h5.394l-9.558,47.241
				h-9.626l-8.942-40.346l-8.943,40.346h-9.625L438.152,80.764z"/>
			<path d="M504.575,126.879c-2.14-1.206-3.664-3.083-4.573-5.633c-0.911-2.548-1.365-5.915-1.365-10.104
				c0-4.323,0.478-7.793,1.434-10.41c0.955-2.616,2.502-4.528,4.642-5.734c2.139-1.205,4.983-1.81,8.533-1.81
				c3.595,0,6.451,0.614,8.567,1.844c2.116,1.229,3.652,3.14,4.608,5.734c0.956,2.594,1.434,6.053,1.434,10.376
				c0,4.188-0.455,7.556-1.365,10.104c-0.911,2.55-2.424,4.427-4.54,5.633c-2.116,1.205-5.018,1.809-8.704,1.809
				C509.604,128.688,506.714,128.084,504.575,126.879z M519.048,122.987c1.319-0.842,2.241-2.185,2.765-4.027
				c0.523-1.844,0.785-4.448,0.785-7.817c0-3.55-0.272-6.28-0.819-8.191c-0.546-1.912-1.479-3.277-2.799-4.097
				c-1.32-0.818-3.208-1.229-5.666-1.229c-2.457,0-4.358,0.41-5.7,1.229c-1.343,0.819-2.299,2.185-2.867,4.097
				c-0.569,1.911-0.854,4.642-0.854,8.191c0,3.323,0.262,5.917,0.785,7.783c0.522,1.866,1.456,3.22,2.799,4.062
				c1.342,0.843,3.288,1.263,5.837,1.263C515.816,124.25,517.728,123.83,519.048,122.987z"/>
			<path d="M536.183,78.989h5.12v28.945l5.325-0.273l9.762-13.79h5.803l-11.127,15.702l11.605,18.432h-5.803l-10.172-15.838
				l-5.394,0.205v15.633h-5.12V78.989z"/>
			<path d="M568.882,93.871h5.052v4.643c3.914-2.685,8.078-4.482,12.493-5.394v5.188c-1.774,0.365-3.698,0.922-5.769,1.673
				c-2.071,0.751-3.721,1.445-4.949,2.082l-1.707,0.888v25.054h-5.12V93.871z"/>
			<path d="M592.502,80.218h5.052v5.939h-5.052V80.218z M592.502,93.871h5.052v34.134h-5.052V93.871z"/>
			<path d="M607.383,93.871h5.052v2.39c2.049-1.137,3.926-1.934,5.633-2.39c1.706-0.454,3.492-0.683,5.358-0.683
				c2.912,0,5.165,0.547,6.759,1.639c1.593,1.093,2.719,2.833,3.379,5.223c0.659,2.389,0.99,5.7,0.99,9.933v18.022h-5.052v-17.886
				c0-3.231-0.194-5.711-0.58-7.441c-0.388-1.729-1.082-2.98-2.083-3.755c-1.001-0.773-2.457-1.16-4.369-1.16
				c-1.547,0-3.129,0.194-4.744,0.58c-1.616,0.388-2.925,0.831-3.925,1.331l-1.298,0.614v27.717h-5.12V93.871z"/>
			<path d="M645.715,141.761c-2.116-1.525-3.175-4.062-3.175-7.612c0-1.457,0.171-2.651,0.512-3.584
				c0.342-0.933,0.876-1.764,1.604-2.491c0.728-0.728,1.819-1.661,3.277-2.799c-0.639-0.41-1.116-1.024-1.434-1.844
				c-0.319-0.819-0.479-1.683-0.479-2.594c0-0.591,0.137-1.239,0.41-1.945c0.272-0.705,0.909-1.946,1.911-3.721
				c-3.596-1.593-5.394-5.006-5.394-10.24c0-3.959,1.069-6.905,3.209-8.841c2.139-1.934,5.369-2.901,9.694-2.901
				c2.093,0,4.413,0.297,6.963,0.888l10.104-0.273v4.369l-6.485-0.136c0.773,0.774,1.342,1.718,1.706,2.833s0.547,2.537,0.547,4.267
				c0,4.051-1.048,6.94-3.141,8.67c-2.094,1.729-5.393,2.594-9.898,2.594c-1.411,0-2.572-0.091-3.481-0.273
				c-0.365,0.911-0.66,1.707-0.888,2.39c-0.229,0.683-0.342,1.274-0.342,1.775c0,1.184,0.467,1.957,1.399,2.32
				c0.933,0.365,2.378,0.547,4.335,0.547h2.663c3.004,0,5.427,0.228,7.271,0.683c1.843,0.455,3.265,1.377,4.267,2.765
				c1,1.389,1.502,3.401,1.502,6.042c0,3.959-1.229,6.849-3.687,8.67c-2.458,1.819-6.509,2.73-12.151,2.73
				C651.438,144.048,647.831,143.285,645.715,141.761z M664.932,138.211c1.502-1.024,2.253-2.788,2.253-5.291
				c0-1.457-0.251-2.56-0.751-3.311c-0.502-0.751-1.343-1.263-2.526-1.536s-2.891-0.41-5.12-0.41l-7.372-0.341
				c-1.502,1.092-2.516,2.048-3.038,2.867c-0.523,0.819-0.785,1.911-0.785,3.276c0,2.366,0.693,4.005,2.082,4.916
				c1.388,0.909,3.834,1.365,7.339,1.365C660.79,139.747,663.43,139.234,664.932,138.211z M661.791,110.597
				c1.184-1.137,1.775-3.072,1.775-5.803c0-2.685-0.592-4.596-1.775-5.734c-1.184-1.137-3.14-1.706-5.871-1.706
				c-2.822,0-4.836,0.58-6.041,1.74c-1.207,1.161-1.81,3.084-1.81,5.769c0,2.686,0.603,4.598,1.81,5.734
				c1.205,1.139,3.196,1.707,5.974,1.707C658.628,112.304,660.607,111.735,661.791,110.597z"/>
			<path d="M691.28,80.764h5.462l8.056,42.598h1.979l9.626-42.188h6.144l9.626,42.188h1.979l8.056-42.598h5.393l-9.558,47.241
				h-9.625l-8.943-40.346l-8.942,40.346h-9.626L691.28,80.764z"/>
			<path d="M754.632,80.218h5.052v5.939h-5.052V80.218z M754.632,93.871h5.052v34.134h-5.052V93.871z"/>
			<path d="M773.916,127.63c-1.297-0.751-2.23-2.025-2.799-3.823c-0.569-1.798-0.854-4.312-0.854-7.544V98.309h-4.847v-4.438h4.847
				V83.427h5.052v10.444h10.854v4.438h-10.854v16.316c0,2.549,0.091,4.448,0.273,5.7c0.181,1.252,0.625,2.208,1.331,2.867
				c0.705,0.66,1.809,0.989,3.311,0.989l6.076-0.409l0.341,4.232c-3.231,0.5-5.666,0.751-7.305,0.751
				C777.022,128.756,775.213,128.38,773.916,127.63z"/>
			<path d="M792.45,78.989h5.12v16.794c2.002-0.91,3.856-1.57,5.563-1.98c1.707-0.409,3.447-0.614,5.223-0.614
				c2.958,0,5.245,0.536,6.86,1.604c1.615,1.07,2.753,2.811,3.414,5.223c0.659,2.413,0.989,5.734,0.989,9.967v18.022h-5.12v-17.886
				c0-3.367-0.193-5.905-0.58-7.612c-0.387-1.706-1.115-2.924-2.185-3.652c-1.069-0.727-2.651-1.092-4.744-1.092
				c-2.595,0-5.303,0.523-8.124,1.57l-1.297,0.478v28.194h-5.12V78.989z"/>
			<path d="M872.9,83.904c2.571,2.094,4.289,4.757,5.154,7.987c0.864,3.232,1.298,7.009,1.298,11.332
				c0,8.647-1.424,14.94-4.268,18.876c-2.845,3.938-7.248,5.905-13.209,5.905h-16.862V80.764h16.862
				C866.654,80.764,870.329,81.812,872.9,83.904z M873.959,103.702c0-6.371-0.979-11.014-2.936-13.927
				c-1.957-2.912-5.007-4.369-9.147-4.369h-11.605v37.956h11.605C869.932,123.362,873.959,116.81,873.959,103.702z"/>
			<path d="M888.431,126.025c-1.639-1.775-2.458-4.323-2.458-7.646c0-3.276,0.83-5.711,2.492-7.304
				c1.661-1.593,4.312-2.571,7.953-2.936l10.719-1.024v-2.936c0-4.323-1.867-6.485-5.599-6.485c-3.687,0-8.17,0.297-13.448,0.888
				l-0.205-3.892c4.869-1,9.307-1.502,13.312-1.502c3.868,0,6.679,0.877,8.431,2.629s2.629,4.539,2.629,8.362v17.477
				c0.137,1.685,1.457,2.686,3.959,3.004l-0.205,4.027c-3.596,0-6.303-0.91-8.123-2.73c-4.051,1.82-8.147,2.73-12.288,2.73
				C892.458,128.688,890.069,127.8,888.431,126.025z M905.566,122.816l1.57-0.546v-11.264l-10.104,0.955
				c-2.048,0.183-3.527,0.774-4.438,1.775c-0.911,1.001-1.365,2.457-1.365,4.369c0,4.188,1.729,6.28,5.188,6.28
				C899.467,124.387,902.516,123.864,905.566,122.816z"/>
			<path d="M927.787,127.63c-1.298-0.751-2.23-2.025-2.799-3.823c-0.57-1.798-0.854-4.312-0.854-7.544V98.309h-4.848v-4.438h4.848
				V83.427h5.052v10.444h10.854v4.438h-10.854v16.316c0,2.549,0.091,4.448,0.272,5.7s0.625,2.208,1.331,2.867
				c0.705,0.66,1.81,0.989,3.312,0.989l6.075-0.409l0.342,4.232c-3.232,0.5-5.666,0.751-7.305,0.751
				C930.893,128.756,929.084,128.38,927.787,127.63z"/>
			<path d="M946.594,126.025c-1.639-1.775-2.458-4.323-2.458-7.646c0-3.276,0.83-5.711,2.492-7.304
				c1.66-1.593,4.312-2.571,7.953-2.936l10.718-1.024v-2.936c0-4.323-1.867-6.485-5.598-6.485c-3.687,0-8.17,0.297-13.449,0.888
				l-0.204-3.892c4.869-1,9.307-1.502,13.312-1.502c3.868,0,6.679,0.877,8.431,2.629s2.629,4.539,2.629,8.362v17.477
				c0.137,1.685,1.456,2.686,3.959,3.004l-0.205,4.027c-3.596,0-6.304-0.91-8.123-2.73c-4.052,1.82-8.147,2.73-12.288,2.73
				C950.621,128.688,948.232,127.8,946.594,126.025z M963.729,122.816l1.57-0.546v-11.264l-10.104,0.955
				c-2.048,0.183-3.527,0.774-4.438,1.775c-0.911,1.001-1.365,2.457-1.365,4.369c0,4.188,1.729,6.28,5.188,6.28
				C957.629,124.387,960.679,123.864,963.729,122.816z"/>
			<path d="M982.434,128.142l-1.912-0.205V78.989h5.052v16.589c3.55-1.593,7.008-2.39,10.377-2.39c3.004,0,5.369,0.581,7.1,1.741
				c1.729,1.16,2.992,3.016,3.789,5.563c0.795,2.55,1.194,5.963,1.194,10.24c0,4.688-0.501,8.306-1.502,10.854
				c-1.002,2.549-2.674,4.358-5.018,5.427c-2.345,1.069-5.655,1.604-9.933,1.604C988.577,128.619,985.527,128.459,982.434,128.142z
				 M998.749,122.782c1.547-0.888,2.616-2.287,3.208-4.198s0.888-4.574,0.888-7.987c0-3.23-0.251-5.769-0.751-7.611
				c-0.501-1.844-1.331-3.175-2.491-3.994c-1.161-0.819-2.765-1.229-4.813-1.229c-2.503,0-5.575,0.66-9.216,1.979v24.03
				c3.277,0.229,5.462,0.341,6.554,0.341C994.994,124.113,997.201,123.67,998.749,122.782z"/>
			<path d="M1016.702,126.025c-1.639-1.775-2.458-4.323-2.458-7.646c0-3.276,0.83-5.711,2.492-7.304
				c1.66-1.593,4.312-2.571,7.953-2.936l10.718-1.024v-2.936c0-4.323-1.867-6.485-5.598-6.485c-3.687,0-8.17,0.297-13.449,0.888
				l-0.204-3.892c4.869-1,9.307-1.502,13.312-1.502c3.868,0,6.679,0.877,8.431,2.629s2.629,4.539,2.629,8.362v17.477
				c0.137,1.685,1.456,2.686,3.959,3.004l-0.205,4.027c-3.596,0-6.304-0.91-8.123-2.73c-4.052,1.82-8.147,2.73-12.288,2.73
				C1020.729,128.688,1018.341,127.8,1016.702,126.025z M1033.837,122.816l1.57-0.546v-11.264l-10.104,0.955
				c-2.048,0.183-3.527,0.774-4.438,1.775c-0.911,1.001-1.365,2.457-1.365,4.369c0,4.188,1.729,6.28,5.188,6.28
				C1027.737,124.387,1030.787,123.864,1033.837,122.816z"/>
			<path d="M1051.313,127.731l-2.048-0.341l0.273-4.438c5.324,0.774,9.238,1.16,11.741,1.16c2.731,0,4.768-0.443,6.11-1.331
				c1.342-0.888,2.014-2.31,2.014-4.267c0-1.41-0.33-2.479-0.99-3.208c-0.66-0.728-1.501-1.252-2.525-1.57s-2.47-0.614-4.335-0.888
				l-1.707-0.273c-2.73-0.454-4.87-1-6.417-1.638c-1.548-0.637-2.708-1.536-3.481-2.697c-0.774-1.16-1.16-2.765-1.16-4.813
				c0-3.687,1.114-6.303,3.345-7.851c2.229-1.547,5.394-2.321,9.489-2.321c3.23,0,6.53,0.297,9.898,0.888l1.912,0.342l-0.137,4.368
				c-4.915-0.727-8.762-1.092-11.537-1.092c-2.641,0-4.608,0.409-5.905,1.229s-1.945,2.094-1.945,3.823
				c0,1.229,0.317,2.174,0.955,2.833c0.637,0.66,1.468,1.138,2.492,1.434c1.023,0.297,2.468,0.604,4.335,0.922l1.706,0.341
				c2.821,0.502,5.006,1.082,6.554,1.741c1.547,0.66,2.697,1.604,3.448,2.833s1.126,2.936,1.126,5.12
				c0,3.687-1.082,6.383-3.242,8.09c-2.163,1.706-5.474,2.56-9.934,2.56C1058.617,128.688,1055.272,128.368,1051.313,127.731z"/>
			<path d="M1084.115,124.626c-2.162-2.707-3.243-6.975-3.243-12.801c0-6.325,1.161-11.013,3.481-14.063
				c2.321-3.049,5.962-4.574,10.923-4.574c4.551,0,7.953,1.31,10.206,3.926c2.253,2.617,3.379,6.634,3.379,12.049l-0.272,3.892
				h-22.528c0,2.822,0.308,5.029,0.922,6.622s1.66,2.742,3.14,3.447c1.479,0.706,3.538,1.058,6.179,1.058
				c1.319,0,2.844-0.034,4.573-0.103c1.729-0.067,3.3-0.17,4.711-0.307l1.979-0.205l0.137,4.028
				c-5.052,0.727-9.239,1.092-12.562,1.092C1089.952,128.688,1086.276,127.334,1084.115,124.626z M1103.742,108.958
				c0-4.141-0.661-7.088-1.98-8.84c-1.32-1.752-3.481-2.629-6.485-2.629c-3.14,0-5.461,0.922-6.963,2.766
				c-1.502,1.843-2.276,4.744-2.321,8.703H1103.742z"/>
			<path d="M1117.53,127.731l-2.048-0.341l0.273-4.438c5.324,0.774,9.238,1.16,11.741,1.16c2.731,0,4.768-0.443,6.11-1.331
				c1.342-0.888,2.014-2.31,2.014-4.267c0-1.41-0.33-2.479-0.99-3.208c-0.66-0.728-1.501-1.252-2.525-1.57s-2.47-0.614-4.335-0.888
				l-1.707-0.273c-2.73-0.454-4.87-1-6.417-1.638c-1.548-0.637-2.708-1.536-3.481-2.697c-0.774-1.16-1.16-2.765-1.16-4.813
				c0-3.687,1.114-6.303,3.345-7.851c2.229-1.547,5.394-2.321,9.489-2.321c3.23,0,6.53,0.297,9.898,0.888l1.912,0.342l-0.137,4.368
				c-4.915-0.727-8.762-1.092-11.537-1.092c-2.641,0-4.608,0.409-5.905,1.229s-1.945,2.094-1.945,3.823
				c0,1.229,0.317,2.174,0.955,2.833c0.637,0.66,1.468,1.138,2.492,1.434c1.023,0.297,2.468,0.604,4.335,0.922l1.706,0.341
				c2.821,0.502,5.006,1.082,6.554,1.741c1.547,0.66,2.697,1.604,3.448,2.833s1.126,2.936,1.126,5.12
				c0,3.687-1.082,6.383-3.242,8.09c-2.163,1.706-5.474,2.56-9.934,2.56C1124.835,128.688,1121.49,128.368,1117.53,127.731z"/>
		</g>
	</g>
</g>
</svg>
