<?xml version="1.0" encoding="utf-8"?>
<!-- Generator: Adobe Illustrator 22.0.1, SVG Export Plug-In . SVG Version: 6.00 Build 0)  -->
<svg version="1.1" id="Layer_1" xmlns="http://www.w3.org/2000/svg" xmlns:xlink="http://www.w3.org/1999/xlink" x="0px" y="0px"
	 viewBox="0 0 4451 6106.1" style="enable-background:new 0 0 4451 6106.1;" xml:space="preserve">
<style type="text/css">
	.st0{display:none;}
	.st1{display:inline;opacity:0.6;}
	.st2{fill:none;stroke:#121212;stroke-width:30;stroke-linecap:round;stroke-miterlimit:10;}
	.st3{fill:#121212;}
	.st4{display:inline;}
	.st5{display:inline;fill:#007AFF;}
	.st6{display:inline;fill:#E23237;}
	.st7{display:inline;fill:#121212;}
	.st8{font-family:'Cairo-Light';}
	.st9{font-size:236.2701px;}
	.st10{font-size:276.8966px;}
	.st11{font-family:'Cairo-ExtraLight';}
	.st12{font-size:275.1063px;}
	.st13{display:inline;fill:#131313;}
	.st14{font-size:602.9221px;}
	.st15{font-size:346.1032px;}
	.st16{fill:#131313;}
	.st17{fill:#82C465;}
	.st18{fill:#927856;}
	.st19{fill:#423120;}
	.st20{fill:#539847;}
	.st21{fill:#7AB868;}
	.st22{fill:#02678C;}
	.st23{fill:#CC8A2B;}
	.st24{fill:none;stroke:#383838;stroke-width:60;stroke-miterlimit:10;}
	.st25{fill:#383838;}
</style>
<g class="st0">
	<g class="st1">
		<line class="st2" x1="1788.6" y1="2266.9" x2="1788.6" y2="3839.2"/>
		<g>
			<path class="st3" d="M1721,2270.3c0-37.4,30.3-67.7,67.7-67.7s67.7,30.3,67.7,67.7c0,37.4-30.3,67.7-67.7,67.7
				S1721,2307.7,1721,2270.3z"/>
		</g>
		<g>
			<path class="st3" d="M1721,3835.8c0,37.4,30.3,67.7,67.7,67.7s67.7-30.3,67.7-67.7c0-37.4-30.3-67.7-67.7-67.7
				S1721,3798.4,1721,3835.8z"/>
		</g>
	</g>
</g>
<g class="st0">
	<path class="st4" d="M2382.7,2528.4h75.3c21.2,0,36.9,3.9,47.2,11.6c10.3,7.8,15.4,19.7,15.4,35.7c0,11.4-2.5,20.5-7.4,27.3
		c-4.9,6.8-12.2,11.9-21.9,15.5c12.6,3.7,21.9,9.3,27.9,16.7c6.1,7.4,9.1,17.4,9.1,30.1c0,17.3-5.5,29.9-16.5,37.7
		c-11,7.8-27.2,11.8-48.6,11.8h-80.6V2528.4z M2460.5,2613.4c15,0,26.1-3.1,33.3-9.2c7.2-6.2,10.8-15.5,10.8-27.9
		c0-12.7-3.7-21.7-11.1-27.3c-7.4-5.5-19.3-8.3-35.8-8.3h-59.6v72.7H2460.5z M2462.6,2702.5c16.1,0,28.4-3,37-9.1
		c8.6-6.1,13-15.7,13-28.9c0-14.4-4.8-24.5-14.4-30.2c-9.6-5.7-22.2-8.6-37.8-8.6h-62.4v76.7H2462.6z"/>
	<path class="st4" d="M2586.7,2711.3c-7-3.9-11.9-10.6-14.7-19.9s-4.2-22.9-4.2-40.5v-69.8h15.4v69c0,15,0.9,26.3,2.8,34.1
		c1.9,7.8,5.2,13.2,10.2,16.4c4.9,3.2,12.3,4.8,22.2,4.8c17.3,0,33.9-4,49.7-12v-112.3h15.1v133.7h-15.4v-10.2
		c-8.2,4.3-16.2,7.4-23.9,9.5c-7.7,2-16.7,3.1-27,3.1C2603.8,2717.2,2593.7,2715.2,2586.7,2711.3z"/>
	<path class="st4" d="M2730.3,2527.6h14.8v17.6h-14.8V2527.6z M2730.3,2581.1h14.8v133.7h-14.8V2581.1z"/>
	<path class="st4" d="M2794.2,2520.6h15.4v194.1h-15.4V2520.6z"/>
	<path class="st4" d="M2862.1,2701c-8.2-10.8-12.3-27.6-12.3-50.4c0-17.3,2.2-31.2,6.6-41.6c4.4-10.4,11.5-18.1,21.3-23
		c9.8-4.9,22.9-7.4,39.4-7.4c13,0,25.5,1.1,37.7,3.2v-61.2h14.8v194.1h-15.1v-10.7c-16.1,8.7-33.2,13.1-51.6,13.1
		C2883.9,2717.2,2870.3,2711.8,2862.1,2701z M2928.5,2702.3c8.2-2,14.6-4.1,19.1-6.3l7.1-2.9v-99.5c-13.6-2.3-26.3-3.5-38.3-3.5
		c-13,0-23.1,2.1-30.4,6.2c-7.3,4.1-12.5,10.3-15.6,18.7c-3.1,8.4-4.6,19.6-4.6,33.7c0,18.9,2.9,33.1,8.8,42.5
		c5.9,9.5,16,14.2,30.4,14.2C2912.4,2705.4,2920.2,2704.4,2928.5,2702.3z"/>
	<path class="st5" d="M3093.8,2712.2l-13-1.6l2.9-20.1c33,3.8,58,5.6,74.9,5.6c35.7,0,53.5-14.5,53.5-43.6c0-7.9-1.6-14.2-4.9-18.8
		c-3.3-4.6-8.8-8.4-16.6-11.3c-7.8-2.9-19.2-5.6-34.2-8.1c-19.8-3.6-35.2-7.6-46.1-12.2c-11-4.6-19-10.8-24.1-18.5
		c-5.1-7.7-7.6-18.1-7.6-31c0-38.9,26.9-58.3,80.7-58.3c18.6,0,43.8,2.1,75.6,6.3l-2.5,20.4c-34.7-3.6-58.5-5.3-71.3-5.3
		c-36.2,0-54.3,11.8-54.3,35.4c0,9,1.7,15.8,5.2,20.5c3.5,4.7,9.5,8.5,17.9,11.4c8.4,2.9,21.8,6.2,40.2,9.7
		c17.8,3.6,31.7,7.5,41.4,11.9c9.8,4.4,16.9,10.2,21.5,17.4c4.6,7.2,6.9,16.8,6.9,28.7c0,44.5-26.7,66.7-80,66.7
		C3143.1,2717.6,3121,2715.8,3093.8,2712.2z"/>
	<path class="st5" d="M3278.8,2563h19.5v151.8h-19.5V2563z"/>
	<path class="st5" d="M3469.3,2563v151.8h-35.7l-68.1-136.9h-4.8v136.9h-19.5V2563h36.5l67.4,136.9h5.1V2563H3469.3z"/>
	<path class="st5" d="M3533,2708.6c-9.9-5.6-17-14-21.3-25.3c-4.3-11.3-6.5-26.1-6.5-44.4c0-18.1,2.2-32.9,6.5-44.3
		c4.3-11.4,11.4-19.9,21.1-25.4c9.8-5.6,23-8.3,39.8-8.3c15.2,0,31.5,1.5,48.9,4.4l8.6,1.3l-0.8,14c-20.9-3.1-39.1-4.6-54.4-4.6
		c-12.8,0-22.8,2.1-30,6.3c-7.2,4.2-12.2,10.7-15.1,19.7c-2.9,9-4.3,21.3-4.3,37c0,15.6,1.4,28,4.3,37c2.9,9,7.9,15.6,14.9,19.9
		c7.1,4.2,17.1,6.4,29.9,6.4c11.3,0,23.4-1,36.2-3.1v-46.7h-29.1v-15.1h48.4v74.6c-21.3,3.5-40.3,5.3-57,5.3
		C3556.2,2716.9,3542.8,2714.2,3533,2708.6z"/>
	<path class="st5" d="M3764.8,2699.6v15.1h-96.5V2563h19.5v136.7H3764.8z"/>
	<path class="st5" d="M3809.1,2577.9v52.4h71.9v14.7h-71.9v54.8h87.1v14.9h-106.6V2563h106.6v14.9H3809.1z"/>
	<path class="st5" d="M4018.5,2497.9h91.5c27.3,0,47.4,5.7,60.4,17.1c13,11.4,19.5,29,19.5,52.8c0,49.3-26.7,74-80,74h-63.7v73
		h-27.9V2497.9z M4109.7,2620.4c34.5,0,51.7-17.5,51.7-52.6c0-16.9-4.1-29.2-12.3-37c-8.2-7.7-21.3-11.6-39.4-11.6h-63.3v101.2
		H4109.7z"/>
	<path class="st5" d="M4315.2,2675.7h-75l-12.7,39h-19.2l48.1-151.8h42.5l48.1,151.8h-19.2L4315.2,2675.7z M4244.6,2660.6h66.4
		l-26.6-83.1h-13.2L4244.6,2660.6z"/>
	<path class="st5" d="M4392.3,2708.6c-9.9-5.6-17-14-21.3-25.3c-4.3-11.3-6.5-26.1-6.5-44.4c0-18.1,2.2-32.9,6.5-44.3
		c4.3-11.4,11.4-19.9,21.1-25.4c9.8-5.6,23-8.3,39.8-8.3c15.2,0,31.5,1.5,48.9,4.4l8.6,1.3l-0.8,14c-20.9-3.1-39.1-4.6-54.5-4.6
		c-12.8,0-22.8,2.1-30,6.3c-7.2,4.2-12.2,10.7-15.1,19.7c-2.9,9-4.3,21.3-4.3,37c0,15.6,1.4,28,4.3,37c2.9,9,7.9,15.6,14.9,19.9
		c7.1,4.2,17.1,6.4,29.9,6.4c11.3,0,23.4-1,36.2-3.1v-46.7h-29.1v-15.1h48.4v74.6c-21.3,3.5-40.3,5.3-57,5.3
		C4415.6,2716.9,4402.2,2714.2,4392.3,2708.6z"/>
	<path class="st5" d="M4547.2,2577.9v52.4h71.9v14.7h-71.9v54.8h87.1v14.9h-106.6V2563h106.6v14.9H4547.2z"/>
	<path class="st4" d="M2365.7,2849.3h16.1l40.7,174.1h10.8l46.3-171.9h18.2l46.3,171.9h10.8l40.7-174.1h15.7l-44.8,186.4h-34.3
		l-43.8-166.6l-43.5,166.6h-34.3L2365.7,2849.3z"/>
	<path class="st4" d="M2647.4,3022.3c-9.4-10.5-14-27.2-14-50c0-24.8,5.1-43.1,15.3-54.9c10.2-11.9,26.2-17.8,48-17.8
		c20.2,0,35.1,5.1,44.8,15.4c9.7,10.3,14.5,26.3,14.5,48l-0.3,11.2h-106.8c-0.2,12.8,1.2,23,4.3,30.6c3.1,7.6,8.4,13.1,15.9,16.6
		c7.5,3.5,18,5.2,31.3,5.2c5.6,0,12.1-0.1,19.6-0.4c7.5-0.3,14.5-0.7,20.8-1.2l9.3-0.8l0.6,11c-21.4,2-39.6,2.9-54.6,2.9
		C2673,3038,2656.8,3032.8,2647.4,3022.3z M2740.5,2962.9c0-18.5-3.5-31.9-10.5-40c-7-8.1-18.1-12.2-33.3-12.2
		c-15.9,0-27.8,4.2-35.8,12.7c-8,8.5-12.1,21.6-12.3,39.4H2740.5z"/>
	<path class="st4" d="M2802.2,3036.2l-7.4-0.8v-193.9h14.8v68.2c16.9-6.8,34.1-10.2,51.6-10.2c13.4,0,23.9,2.2,31.5,6.7
		c7.6,4.5,13.1,11.6,16.4,21.4c3.3,9.8,4.9,23.2,4.9,40.1c0,18.7-2.2,33-6.5,42.9c-4.3,9.9-11.8,16.9-22.4,21
		c-10.6,4.1-26,6.2-46.2,6.2C2826.4,3037.8,2814.1,3037.2,2802.2,3036.2z M2877.8,3020.4c7.8-3.9,13.2-10.1,16.2-18.5
		c3-8.4,4.5-20.1,4.5-35c0-14.1-1.2-25.1-3.7-33.2c-2.5-8-6.6-13.8-12.3-17.2c-5.8-3.5-13.9-5.2-24.4-5.2c-13.2,0-29.3,3.2-48.5,9.6
		v104c16.9,0.9,28.2,1.3,34,1.3C2858.6,3026.3,2870,3024.3,2877.8,3020.4z"/>
	<path class="st4" d="M3140.2,2981.6h-99.1l-18.5,54h-15.1l63.6-186.4h39.2l63.6,186.4h-15.1L3140.2,2981.6z M3098.9,2861.3h-16.1
		l-37.7,107.8h91.1L3098.9,2861.3z"/>
	<path class="st4" d="M3205.7,2901.9h15.1v10.7c16.7-8.7,33.8-13.1,51.2-13.1c18.9,0,32.6,5.3,40.9,16c8.3,10.7,12.5,27.9,12.5,51.6
		c0,16.9-2.2,30.5-6.5,40.8c-4.3,10.3-11.4,17.8-21.3,22.7c-9.9,4.9-23.2,7.4-39.8,7.4c-12.6,0-24.8-1.1-36.7-3.2v61.5h-15.4V2901.9
		z M3298.6,3012.8c7.6-9.2,11.4-24,11.4-44.5c0-20.3-3.2-34.9-9.7-43.7c-6.5-8.8-16.1-13.2-28.9-13.2c-7,0-14.7,1-23,3.1
		c-8.3,2.1-15.2,4.2-20.5,6.6l-6.8,3.5v98.7c18.1,2.3,31.1,3.5,38.9,3.5C3278.1,3026.5,3291,3021.9,3298.6,3012.8z"/>
	<path class="st4" d="M3366.2,2901.9h15.1v10.7c16.7-8.7,33.8-13.1,51.2-13.1c18.9,0,32.6,5.3,40.9,16c8.3,10.7,12.5,27.9,12.5,51.6
		c0,16.9-2.2,30.5-6.5,40.8c-4.3,10.3-11.4,17.8-21.3,22.7c-9.9,4.9-23.2,7.4-39.8,7.4c-12.6,0-24.8-1.1-36.7-3.2v61.5h-15.4V2901.9
		z M3459.1,3012.8c7.6-9.2,11.4-24,11.4-44.5c0-20.3-3.2-34.9-9.7-43.7c-6.5-8.8-16.1-13.2-28.9-13.2c-7,0-14.7,1-23,3.1
		c-8.3,2.1-15.2,4.2-20.5,6.6l-6.8,3.5v98.7c18.1,2.3,31.1,3.5,38.9,3.5C3438.6,3026.5,3451.5,3021.9,3459.1,3012.8z"/>
	<path class="st4" d="M3528.6,2841.5h15.4v194.1h-15.4V2841.5z"/>
	<path class="st4" d="M3592.8,2848.4h14.8v17.6h-14.8V2848.4z M3592.8,2901.9h14.8v133.7h-14.8V2901.9z"/>
	<path class="st4" d="M3671.2,3031.1c-8.9-4.6-15.1-11.9-18.8-21.9c-3.7-10-5.6-23.4-5.6-40.4c0-12.8,1.1-24.1,3.4-33.8
		c2.3-9.7,7.6-18.1,16.1-25.3c8.4-7.1,21.2-10.7,38.3-10.7c6.4,0,12.7,0.2,18.8,0.7c6.2,0.4,14.8,1.5,25.9,3.1l-0.9,11
		c-16.3-1.6-28.8-2.4-37.7-2.4c-12.6,0-22.3,1.7-29.2,5.2c-6.9,3.5-11.8,9.4-14.7,17.6c-2.9,8.3-4.3,20.1-4.3,35.4
		c0,14.4,1.4,25.7,4.2,33.7c2.8,8,7.7,13.9,14.8,17.5c7.1,3.7,17.3,5.5,30.7,5.5l36.7-2.4l0.6,11.2c-18.7,2-32.5,2.9-41.4,2.9
		C3692.4,3038,3680.1,3035.7,3671.2,3031.1z"/>
	<path class="st4" d="M3787.1,3027.9c-7.1-6.8-10.7-16.3-10.7-28.6s3.5-21.6,10.5-27.9c7-6.3,18.2-10.3,33.6-11.9l55.3-4.8v-12.8
		c0-10.3-2.5-18-7.6-22.9c-5-4.9-12-7.4-20.8-7.4c-9.1,0-17.5,0.3-25.3,0.8c-7.8,0.5-20.1,1.6-36.7,3.2l-0.9-11
		c22.2-3.4,42-5.1,59.3-5.1c16.3,0,28.2,3.4,35.8,10.2c7.6,6.8,11.4,17.5,11.4,32.1v74.1c0.2,2.9,2.2,5.3,5.9,7.2
		c3.7,2,8.8,3.3,15.4,4l-0.6,11c-7.4,0-14-1-19.9-2.9c-5.9-2-10.4-4.7-13.7-8.3c-19.3,7.5-39.3,11.2-59.9,11.2
		C3804.6,3038,3794.2,3034.6,3787.1,3027.9z M3867.5,3019l8.3-2.4v-51.1l-53.4,4.5c-10.7,0.7-18.4,3.3-23,7.8
		c-4.6,4.5-6.9,11.1-6.9,19.8c0,19.3,9,28.9,26.9,28.9C3835.4,3026.5,3851.5,3024,3867.5,3019z"/>
	<path class="st4" d="M3964.2,3034.3c-5.6-2.8-9.6-7.7-12-14.6c-2.5-6.9-3.7-16.6-3.7-29.3v-76.7H3925v-11.8h23.5v-42.5h14.8v42.5
		h54v11.8h-54v67.7c0,12.3,0.5,21.4,1.5,27.4c1,6,3.3,10.5,6.9,13.5c3.6,3,9.5,4.5,17.8,4.5l29.3-2.1l1.2,11.2
		c-14.4,1.8-25.3,2.7-32.7,2.7C3977.4,3038.6,3969.7,3037.1,3964.2,3034.3z"/>
	<path class="st4" d="M4046,2848.4h14.8v17.6H4046V2848.4z M4046,2901.9h14.8v133.7H4046V2901.9z"/>
	<path class="st4" d="M4124.5,3031.5c-9.2-4.4-15.6-11.4-19.3-21.1c-3.7-9.7-5.6-23.1-5.6-40.2c0-18,2-32,5.9-42.1
		c3.9-10.1,10.4-17.3,19.6-21.8c9.2-4.5,22-6.7,38.4-6.7c16.7,0,29.6,2.3,38.7,6.8c9.2,4.5,15.6,11.9,19.4,21.9
		c3.8,10.1,5.7,24,5.7,41.8c0,17.1-1.8,30.5-5.4,40.2c-3.6,9.7-10,16.8-19.1,21.1c-9.2,4.4-22.3,6.6-39.4,6.6
		C4146.7,3038,4133.7,3035.8,4124.5,3031.5z M4194.3,3020.9c6.7-3.6,11.3-9.2,13.7-17c2.5-7.8,3.7-19,3.7-33.8c0-15.7-1.3-27.7-4-36
		c-2.7-8.3-7.4-14.2-14-17.6c-6.7-3.5-16.5-5.2-29.5-5.2c-13.2,0-23.2,1.7-30.1,5.2c-6.9,3.5-11.7,9.4-14.4,17.6
		c-2.7,8.3-4,20.3-4,36c0,14.6,1.2,25.8,3.7,33.7c2.5,7.8,7.1,13.5,14,17.1c6.9,3.6,17.1,5.3,30.7,5.3
		C4177.6,3026.3,4187.6,3024.5,4194.3,3020.9z"/>
	<path class="st4" d="M4268.2,2901.9h15.1v10.2c9.9-4.6,19-7.9,27.5-9.8c8.4-1.9,17.2-2.8,26.2-2.8c13.2,0,23.3,2,30.4,6
		c7.1,4,12,10.7,14.8,20.1c2.8,9.4,4.2,22.8,4.2,40.2v69.8h-14.8v-69.5c0-14.4-1-25.5-2.9-33.2c-2-7.7-5.4-13.2-10.3-16.6
		c-4.9-3.4-12.2-5.1-21.9-5.1c-8.4,0-17.1,1-25.9,2.9c-8.9,2-15.5,4-20.1,6.2l-6.8,2.9v112.3h-15.4V2901.9z"/>
	<path class="st4" d="M2399.5,3398.5c-11.6-8.7-17.4-22.7-17.4-42v-134.5h11.1v135c0,30.3,19.5,45.5,58.7,45.5
		c20.8,0,36.3-3.6,46.6-10.7c10.3-7.1,15.4-18.7,15.4-34.8v-135h10.5v134.5c0,19.3-6,33.2-17.9,42c-11.9,8.7-29.8,13.1-53.7,13.1
		C2428.9,3411.6,2411.1,3407.3,2399.5,3398.5z"/>
	<path class="st4" d="M2576.5,3408.4l-9-1.1l1.2-9.1c24.3,3.2,41.8,4.8,52.5,4.8c15.4,0,26.8-2.4,34-7.1
		c7.2-4.7,10.8-12.3,10.8-22.6c0-7.3-1.7-12.9-5.1-16.7c-3.4-3.8-7.7-6.5-13-8c-5.2-1.5-12.7-2.9-22.4-4.1c-3.7-0.4-6.5-0.7-8.3-1.1
		c-14-2-24.6-4.2-31.8-6.8c-7.2-2.6-12.3-5.9-15.3-10c-3-4.1-4.5-9.6-4.5-16.6c0-13.9,4.8-23.5,14.5-28.7c9.7-5.3,23.7-7.9,42-7.9
		c16.3,0,30.3,0.8,42,2.4l7.7,1.3l-0.6,8.6c-9.9-1.4-19.4-2.5-28.6-3.2c-9.2-0.7-16.4-1.1-21.8-1.1c-15.6,0-26.9,2.3-33.8,7
		c-6.9,4.6-10.3,11.3-10.3,20.1c0,6.6,1.8,11.5,5.4,14.8c3.6,3.3,8.1,5.6,13.4,6.8c5.3,1.2,14.7,2.9,28.1,5.1
		c14.2,2.1,24.9,4.4,32,6.7c7.1,2.3,12.4,5.8,16.1,10.4c3.6,4.6,5.4,11.2,5.4,19.8c0,13.9-4.8,24-14.4,30.2
		c-9.6,6.2-24.1,9.4-43.7,9.4C2608.7,3411.6,2594.5,3410.6,2576.5,3408.4z"/>
	<path class="st4" d="M2716.1,3222.1h10.5v14.7h-10.5V3222.1z M2716.4,3275.5h10.5v133.7h-10.5V3275.5z"/>
	<path class="st4" d="M2775.4,3275.5h10.5v10.7c10.5-4.8,20.1-8.2,28.9-10.2c8.7-2,17.8-2.9,27-2.9c13.4,0,23.5,2,30.4,5.9
		c6.9,3.9,11.7,10.6,14.5,20.1c2.8,9.5,4.2,23.1,4.2,40.9v69.3h-10.5V3340c0-15.3-1-27.1-2.9-35.3c-2-8.2-5.6-14.1-10.8-17.6
		c-5.2-3.6-12.9-5.3-23-5.3c-9.3,0-18.7,1.1-28.2,3.2c-9.6,2.1-16.8,4.4-21.8,6.7l-7.4,3.5v114.2h-10.8V3275.5z"/>
	<path class="st4" d="M2953.5,3468.6c-8.4-2.9-14.2-7.1-17.3-12.8c-3.1-5.7-4.6-13.5-4.6-23.5c0-6.4,0.8-11.5,2.3-15.1
		c1.5-3.7,3.8-6.7,6.8-9.1c3-2.4,8.5-6.3,16.5-11.6c-2.3-1.2-4-3.4-5.1-6.6c-1.1-3.1-1.7-6.4-1.7-9.8c0-2.1,0.6-4.5,1.7-7.2
		c1.1-2.7,3.8-7.6,7.9-14.7c-17.7-4.5-26.5-18-26.5-40.6c0-15.1,4.2-26.4,12.7-33.7c8.4-7.3,22.2-11,41.4-11
		c10.1,0,20.6,1.2,31.5,3.5l43.2-0.8v9.4l-33.6,0.3c4.1,2.5,7.3,6.6,9.4,12.2c2.2,5.6,3.2,12.4,3.2,20.5c0,15.7-4.4,26.9-13.3,33.6
		c-8.9,6.7-23.1,10-42.6,10c-6.6,0-12.2-0.4-17-1.1l-2.5,5.3c-1.4,3-2.6,5.7-3.4,8c-0.8,2.3-1.2,4.5-1.2,6.7c0,5.3,2.2,8.9,6.6,10.7
		c4.4,1.8,11,2.7,19.6,2.7l21.3-0.3c11.1,0,20.2,1,27.2,2.9c7,2,12.4,5.6,16.2,10.8c3.8,5.3,5.7,12.9,5.7,22.9c0,10-2.1,18-6.2,24.2
		c-4.1,6.2-11.1,10.8-20.8,13.9c-9.8,3.1-23.2,4.7-40.3,4.7C2974.3,3472.9,2961.9,3471.4,2953.5,3468.6z M3024.8,3461.2
		c7.8-2.2,13.4-5.9,16.8-11c3.4-5.1,5.1-12.1,5.1-21c0-7.5-1.1-13.1-3.2-16.8c-2.2-3.7-6.3-6.4-12.5-8c-6.2-1.6-15.6-2.3-28.4-2.1
		l-37-1.1c-6.8,3.9-11.7,7.2-14.8,9.8c-3.1,2.6-5.2,5.4-6.5,8.4c-1.2,3-1.9,7.1-1.9,12.3c0,8.6,1.5,15.2,4.5,19.9c3,4.7,8,8.1,15,10
		c7,2,17.1,2.9,30.3,2.9C3006.1,3464.6,3017,3463.5,3024.8,3461.2z M3020.2,3344.9c6.4-5.3,9.6-14.6,9.6-27.9
		c0-13.2-3.1-22.4-9.4-27.7c-6.3-5.3-17.1-7.9-32.6-7.9c-15.8,0-27.1,2.7-33.6,8.2c-6.6,5.4-9.9,14.8-9.9,27.9
		c0,13.2,3.2,22.4,9.7,27.5c6.5,5.2,17.5,7.8,33.2,7.8C3002.8,3352.8,3013.8,3350.2,3020.2,3344.9z"/>
	<path class="st6" d="M3293.4,3359.1h-99.9l-15.5,50.1h-34.1l64-214.2h71.2l64,214.2h-34.1L3293.4,3359.1z M3200.6,3332.6h85.5
		l-33.4-112.4H3234L3200.6,3332.6z"/>
	<path class="st6" d="M3375.7,3253.6h33.1v10.3c10.3-5,19.6-8.5,28-10.6c8.4-2.1,17.3-3.1,26.6-3.1c15.1,0,27,2.6,35.6,7.8
		c8.6,5.2,14.7,13.2,18.3,24.1c3.6,10.9,5.4,25.7,5.4,44.4v82.8h-33.4V3327c0-13.1-0.9-23.2-2.7-30.4c-1.8-7.2-5.2-12.3-10.1-15.6
		c-4.9-3.2-12-4.8-21.4-4.8c-12.7,0-26,2.4-39.9,7.2l-6.1,2.5v123.3h-33.4V3253.6z"/>
	<path class="st6" d="M3580.4,3471.7c-12.1-6.7-18.2-18-18.2-33.8c0-8.9,2-16,5.9-21.3c4-5.3,11.2-11.5,21.7-18.5
		c-3.8-2.3-6.7-5.3-8.4-9c-1.8-3.7-2.7-7.7-2.7-11.8c0-2.9,0.8-6,2.3-9.2c1.6-3.2,5.1-8.9,10.6-17c-18.2-8.3-27.3-23.8-27.3-46.4
		c0-36.1,23.4-54.2,70.1-54.2c11,0,23.2,1.4,36.7,4l54.6-1.2v24l-32-0.9c3.8,3.7,6.6,7.8,8.3,12.3c1.7,4.5,2.5,10.2,2.5,17.3
		c0,18.5-5.7,31.7-17.1,39.7c-11.4,8-29.2,12-53.4,12c-7.2,0-13.1-0.4-17.6-1.2c-3.8,7.9-5.8,13.6-5.8,17.1c0,5,2.3,8.2,7,9.7
		c4.7,1.5,11.9,2.2,21.7,2.2h12.6c16.8,0.2,30.2,1.4,40.3,3.4c10.1,2.1,17.8,6.3,23.4,12.6c5.5,6.3,8.3,15.5,8.3,27.6
		c0,18.3-6.8,31.6-20.3,40.2c-13.5,8.5-35.4,12.8-65.6,12.8C3611.7,3481.8,3592.5,3478.4,3580.4,3471.7z M3678.9,3451.7
		c7.3-4,11-11,11-20.7c0-5.8-1.4-10.1-4.1-12.9c-2.8-2.8-6.9-4.7-12.4-5.6c-5.5-0.9-13.7-1.5-24.4-1.7l-36.7-1.9
		c-6.5,4.4-10.9,8.3-13.3,11.8c-2.4,3.5-3.6,7.8-3.6,12.8c0,8.9,3.5,15.2,10.4,18.8c6.9,3.6,18.7,5.4,35.2,5.4
		C3658.9,3457.8,3671.6,3455.8,3678.9,3451.7z M3662.7,3327.7c5.6-4.8,8.4-12.7,8.4-23.7c0-10.8-2.9-18.6-8.6-23.4
		c-5.8-4.8-15-7.2-27.7-7.2c-12.9,0-22.3,2.4-28.2,7.3c-5.9,4.9-8.8,12.7-8.8,23.5c0,10.8,2.9,18.6,8.8,23.4
		c5.9,4.8,15.3,7.2,28.2,7.2C3647.8,3334.8,3657.1,3332.4,3662.7,3327.7z"/>
	<path class="st6" d="M3778.2,3405c-8.4-5.1-14.3-13.2-17.6-24.3c-3.4-11.1-5-26.4-5-45.9v-81.3h33.4v81.3c0,14.3,0.8,25.1,2.5,32.2
		c1.7,7.2,4.9,12.2,9.5,15.1c4.7,2.9,11.8,4.4,21.4,4.4c7.9,0,15.4-0.8,22.5-2.5c7.1-1.7,14.7-4,22.8-7.2v-123.3h33.4v155.7h-33.4
		V3399c-10.1,5-19.1,8.5-27.1,10.6c-8,2.1-16.8,3.1-26.4,3.1C3798.6,3412.7,3786.6,3410.1,3778.2,3405z"/>
	<path class="st6" d="M3952.9,3187.6h33.4v221.7h-33.4V3187.6z"/>
	<path class="st6" d="M4039.9,3400.2c-8.9-8.3-13.3-20.2-13.3-35.8c0-15.4,4.5-26.6,13.7-33.8c9.1-7.2,23.6-11.6,43.5-13.2l51-4
		v-12.1c0-9.1-2.3-15.7-6.8-19.8c-4.6-4-11.3-6.1-20.1-6.1c-20.1,0-43.4,1.2-69.7,3.7l-1.1-21.2c25.4-5.2,49-7.8,70.8-7.8
		c21.1,0,36.4,4.1,46,12.3c9.6,8.2,14.4,21.1,14.4,38.8v75c0.5,4.2,2.1,7.3,4.9,9.5c2.8,2.2,7.1,3.7,13.1,4.5l-1.1,22.4
		c-10.3,0-19.1-1-26.2-3s-13.5-5-19.1-9.2c-20.4,8.1-40.7,12.1-61.1,12.1C4061.7,3412.7,4048.8,3408.5,4039.9,3400.2z
		 M4127.3,3382.5l7.5-2.2v-45.8l-46.7,3.7c-9.3,0.8-16.2,3.3-20.7,7.3c-4.4,4-6.7,10-6.7,17.9c0,16.6,8,24.9,24.1,24.9
		C4099.5,3388.4,4113.6,3386.4,4127.3,3382.5z"/>
	<path class="st6" d="M4219.3,3253.6h33.1v19.6c21.3-11.8,42.4-19.5,63.3-23v29.3c-9.3,1.7-19.1,3.9-29.1,6.8
		c-10.1,2.9-18.5,5.7-25.2,8.4l-8.6,3.4v111.1h-33.4V3253.6z"/>
	<path class="st4" d="M2394.7,3551.8v84.8h96.6v8.8h-96.6v84.8h-11.4v-187.2h123.8v8.8H2394.7z"/>
	<path class="st4" d="M2533.3,3596.4h10.5v20.9c17.9-11.6,38.4-19.4,61.4-23.5v9.6c-8.6,1.4-18.4,4.1-29.2,8
		c-10.8,3.9-18.5,7.4-23,10.4l-9,4.5v103.7h-10.8V3596.4z"/>
	<path class="st4" d="M2635.7,3722.4c-7.1-6.8-10.7-16.1-10.7-28.1c0-11.9,3.4-21.1,10.3-27.4c6.9-6.3,17.8-10.4,32.6-12.2l58.7-5.1
		V3636c0-11.1-2.7-19.3-8-24.7c-5.4-5.4-12.7-8.2-21.9-8.2c-9.1,0-17,0.3-23.9,0.8c-6.9,0.5-19.8,1.8-38.7,3.7l-0.9-8.8
		c21.4-3.2,40.9-4.8,58.3-4.8c15.8,0,27.5,3.4,35,10.3c7.5,6.9,11.3,17.4,11.3,31.7v77c0.2,2.7,2.4,5,6.5,7.1
		c4.1,2.1,9.6,3.4,16.4,4.1l-0.6,8.3c-6.8,0-13.1-1.1-19-3.2c-5.9-2.1-10.1-5-12.8-8.6c-20.6,7.8-41.4,11.8-62.4,11.8
		C2652.8,3732.5,2642.8,3729.1,2635.7,3722.4z M2717.9,3715.7l8.6-2.9v-54.3l-57.4,4.8c-11.3,0.7-19.5,3.4-24.5,8.2
		c-5,4.7-7.6,11.8-7.6,21.3c0,20.7,9.7,31,29,31C2684,3723.7,2701.3,3721,2717.9,3715.7z"/>
	<path class="st4" d="M2787.4,3596.4h10.5v10.7c16.5-8.7,33.9-13.1,52.2-13.1c19.8,0,33,4.8,39.8,14.4c6-3.6,14.7-6.9,26.2-9.9
		c11.5-3,23.4-4.5,35.5-4.5c12.3,0,21.8,2.1,28.4,6.4c6.6,4.3,11.2,11.1,13.7,20.6c2.6,9.5,3.9,22.7,3.9,39.8v69.3h-10.8v-69.3
		c0-15.9-1-27.9-2.9-36c-2-8.1-5.6-13.9-10.8-17.2c-5.2-3.4-13.1-5.1-23.6-5.1c-9.9,0-19.6,1.1-29,3.2c-9.5,2.1-16.2,4.4-20.1,6.7
		l-6.8,3.2c3.9,0.7,5.9,15.6,5.9,44.7v69.8h-10.8v-69.3c0-15.3-1-27.1-2.9-35.3c-2-8.2-5.5-14.1-10.7-17.6
		c-5.1-3.6-12.8-5.3-22.8-5.3c-9.1,0-18.2,1-27.3,3.1c-9.2,2.1-15.9,4.3-20.2,6.8l-6.5,3.5v114.2h-10.8V3596.4z"/>
	<path class="st4" d="M3052.6,3716.6c-9.3-10.6-13.9-27.1-13.9-49.6c0-25,5-43.4,15-55.2c10-11.9,25.8-17.8,47.4-17.8
		c19.8,0,34.4,5.2,43.8,15.5c9.5,10.3,14.2,26.6,14.2,48.7v8.8h-109.3c-0.2,14.1,1.3,25.2,4.6,33.3c3.3,8.1,8.8,14.1,16.7,17.9
		c7.8,3.8,18.8,5.7,33,5.7c5.3,0,11.7-0.2,19-0.5c7.3-0.4,14.2-0.7,20.8-1.1l9.3-0.8l0.6,8.8c-25.1,1.4-42.8,2.1-53.1,2.1
		C3077.9,3732.5,3061.8,3727.2,3052.6,3716.6z M3147.7,3658.4c0-19.8-3.7-34-11.1-42.8c-7.4-8.7-19.1-13.1-35.2-13.1
		c-17.1,0-29.9,4.5-38.6,13.6c-8.6,9.1-13.1,23.2-13.3,42.2H3147.7z"/>
	<path class="st4" d="M3184.1,3596.4h11.4l39.2,125.1h3.4l45.7-122.5h11.7l45.4,122.5h4l38.9-125.1h11.4l-41.7,133.7h-21.3
		l-42.6-119.8l-42.9,119.8h-21L3184.1,3596.4z"/>
	<path class="st4" d="M3445.4,3726.2c-9-4.2-15.1-11.1-18.5-20.6c-3.4-9.5-5.1-23.1-5.1-40.8c0-18.5,1.9-32.8,5.6-42.9
		c3.7-10.1,10-17.2,19-21.5c9-4.3,21.8-6.4,38.4-6.4s29.5,2.2,38.4,6.6c9,4.4,15.2,11.6,18.8,21.7c3.6,10.1,5.4,24.3,5.4,42.6
		c0,17.6-1.6,31.2-4.9,40.6c-3.3,9.5-9.4,16.3-18.4,20.6c-9,4.3-22.1,6.4-39.4,6.4C3467.5,3732.5,3454.4,3730.4,3445.4,3726.2z
		 M3517.6,3718.2c7.1-3.7,11.9-9.5,14.4-17.6c2.5-8.1,3.7-20,3.7-35.7c0-16.9-1.3-29.7-4-38.4c-2.7-8.6-7.6-14.7-14.7-18.3
		c-7.1-3.6-17.8-5.3-32-5.3s-25,1.8-32.3,5.3c-7.3,3.6-12.3,9.7-15.1,18.4c-2.8,8.7-4.2,21.5-4.2,38.2c0,15.5,1.3,27.4,3.9,35.6
		c2.6,8.2,7.5,14.1,14.8,17.8c7.3,3.7,18.3,5.5,32.9,5.5C3499.7,3723.7,3510.5,3721.9,3517.6,3718.2z"/>
	<path class="st4" d="M3590,3596.4h10.5v20.9c17.9-11.6,38.4-19.4,61.4-23.5v9.6c-8.6,1.4-18.4,4.1-29.2,8
		c-10.8,3.9-18.5,7.4-23,10.4l-9,4.5v103.7H3590V3596.4z"/>
	<path class="st4" d="M3691.6,3534.9h10.8v117.9h29.6l53.4-56.4h12.7l-57.1,60.2l59.3,73.5h-12.7l-55.9-68.7l-29.3-0.3v69h-10.8
		V3534.9z"/>
</g>
<text transform="matrix(1.1545 0 0 1 211.007 4054.249)" class="st0"><tspan x="0" y="0" class="st7 st8 st9">Build </tspan><tspan x="542.2" y="0" class="st7 st8 st10">Single Page</tspan><tspan x="1875.2" y="0" class="st7 st8 st9"> Web Application</tspan><tspan x="402.1" y="330.1" class="st4 st11 st9"> Using </tspan><tspan x="1053" y="330.1" class="st6 st11 st12">Angular </tspan><tspan x="1983.6" y="330.1" class="st4 st11 st9">Framework</tspan></text>
<g class="st0">
	<g class="st4">
		<path class="st3" d="M5013,2725.9l2.7,124.5l2.5,124.5l4.6,249l0.2,9.6l-10,0.2L4749,3238l14.2-14.2c0.3,20.2,0.7,40.4,0.7,60.5
			c0.1,20.2-0.1,40.4-0.2,60.5c-0.3,40.4-0.1,80.7-0.2,121.1v242.2v14.5H4749h-689.9l14.5-14.5v733.4v14.5h-14.5H2274.7h-892.2
			h-55.8c-18.6,0-37.2,0-55.8,0.2c-18.6,0.1-37.2,0.3-55.8,0.2c-18.6-0.1-37.2-0.4-55.8-0.7l-223.1-3.7
			c-148.7-2.5-297.4-5.2-446.1-8.3v-4.1c148.7-3.1,297.4-5.8,446.1-8.3l223.1-3.7c18.6-0.3,37.2-0.7,55.8-0.7
			c18.6-0.1,37.2,0,55.8,0.2c18.6,0.1,37.2,0.2,55.8,0.2h55.8h892.2h1784.5l-14.5,14.5v-733.4v-14.5h14.5H4749l-14.5,14.5V3466
			c0-40.4,0.1-80.7-0.2-121.1c-0.1-20.2-0.3-40.4-0.2-60.5c0-20.2,0.3-40.4,0.7-60.5l0.2-14.4l14,0.2l263.9,4.4l-9.8,9.8l4.6-249
			l2.5-124.5L5013,2725.9z"/>
		<g>
			<path class="st3" d="M495.3,4340.2c-56,0-101.4,45.4-101.4,101.4c0,56,45.4,101.4,101.4,101.4c56,0,101.4-45.4,101.4-101.4
				C596.7,4385.6,551.3,4340.2,495.3,4340.2z"/>
		</g>
	</g>
</g>
<g>
	<g class="st0">
		<text transform="matrix(1.0266 0 0 1 245.8647 4461.0259)" class="st13 st8 st14">G</text>
		<text transform="matrix(0.7186 0 0 0.7 628.3686 4461.0259)" class="st13 st8 st14">ood</text>
		<text transform="matrix(1.0266 0 0 1 1483.6146 4461.0259)" class="st13 st8 st14"> E</text>
		<text transform="matrix(0.7186 0 0 0.7 1962.0443 4461.0259)" class="st13 st8 st14">xperience</text>
		<text transform="matrix(1.0266 0 0 1 4068.9526 4461.0259)" class="st13 st8 st14"> </text>
		<text transform="matrix(1.0266 0 0 1 1150.7777 4798.4409)" class="st13 st8 st14"> </text>
		<text transform="matrix(0.7186 0 0 0.7 1286.9359 4798.4409)" class="st13 st8 st15">with</text>
		<text transform="matrix(1.0266 0 0 1 1857.9633 4798.4409)" class="st13 st8 st15"> D</text>
		<text transform="matrix(0.7186 0 0 0.7 2166.356 4798.4409)" class="st13 st8 st15">atabases</text>
	</g>
	<g>
		<path class="st16" d="M351.7,4443.2c-23.9-15.5-41.2-38.9-51.7-70.2c-10.5-31.4-15.8-71.7-15.8-121.2c0-49.8,5.2-90.5,15.5-122.1
			c10.3-31.5,27.3-55.2,51.1-70.8c23.7-15.7,55.8-23.5,96.2-23.5c35.9,0,75.1,3.8,117.6,11.5l20.4,3.6l-1.9,27.1
			c-52-9.6-98-14.5-138-14.5c-30.5,0-55.1,5.7-73.7,17.2c-18.6,11.5-32.3,30.4-41.2,57c-8.9,26.5-13.3,62.7-13.3,108.5
			c0,47,4,84.5,12.1,112.4c8,27.9,21.6,48.4,40.5,61.5c19,13.1,45.6,19.6,79.8,19.6c16.9,0,33.2-0.9,48.9-2.7
			c15.7-1.8,34.2-4.7,55.7-8.7v-149.5h-85.4V4250H585v202c-48.7,9.6-94.5,14.5-137.4,14.5C407.6,4466.5,375.6,4458.7,351.7,4443.2z"
			/>
		<path class="st16" d="M702.5,4449.2c-17-10.4-29.1-26.4-36.2-48.1c-7.1-21.7-10.6-50.4-10.6-86.1c0-35.5,3.7-64.2,11-86.3
			c7.4-22.1,19.5-38.5,36.4-49.4c16.9-10.8,39.9-16.2,69.1-16.2c28.9,0,51.8,5.4,68.9,16.2c17,10.8,29.3,27.4,36.8,49.6
			c7.5,22.2,11.3,51.4,11.3,87.4c0,36.6-3.6,65.6-10.8,86.9c-7.2,21.4-19.2,37-36,46.8c-16.8,9.9-40,14.8-69.8,14.8
			C742.9,4464.8,719.5,4459.6,702.5,4449.2z M829.6,4433c13.4-8.6,22.9-22.1,28.4-40.5c5.5-18.4,8.2-43.8,8.2-76.2
			c0-32.4-2.8-58.2-8.4-77.4c-5.6-19.3-15.3-33.6-29-42.8c-13.7-9.3-32.6-13.9-56.5-13.9c-24.3,0-43.3,4.6-57,13.7
			c-13.7,9.1-23.4,23.3-29,42.4c-5.6,19.1-8.4,44.7-8.4,76.8c0,32.9,2.9,58.7,8.7,77.4c5.8,18.7,15.4,32.3,29,40.7
			c13.6,8.4,32.6,12.7,57.2,12.7C797.2,4445.8,816.2,4441.5,829.6,4433z"/>
		<path class="st16" d="M989.7,4449.2c-17-10.4-29.1-26.4-36.2-48.1c-7.1-21.7-10.6-50.4-10.6-86.1c0-35.5,3.7-64.2,11-86.3
			c7.4-22.1,19.5-38.5,36.4-49.4c16.9-10.8,39.9-16.2,69.1-16.2c28.9,0,51.8,5.4,68.9,16.2c17,10.8,29.3,27.4,36.8,49.6
			c7.5,22.2,11.3,51.4,11.3,87.4c0,36.6-3.6,65.6-10.8,86.9c-7.2,21.4-19.2,37-36,46.8c-16.8,9.9-40,14.8-69.8,14.8
			C1030.1,4464.8,1006.7,4459.6,989.7,4449.2z M1116.9,4433c13.4-8.6,22.9-22.1,28.4-40.5c5.5-18.4,8.2-43.8,8.2-76.2
			c0-32.4-2.8-58.2-8.4-77.4c-5.6-19.3-15.3-33.6-29-42.8c-13.7-9.3-32.6-13.9-56.5-13.9c-24.3,0-43.3,4.6-57,13.7
			c-13.7,9.1-23.4,23.3-29,42.4c-5.6,19.1-8.4,44.7-8.4,76.8c0,32.9,2.9,58.7,8.7,77.4c5.8,18.7,15.4,32.3,29,40.7
			c13.6,8.4,32.6,12.7,57.2,12.7C1084.4,4445.8,1103.4,4441.5,1116.9,4433z"/>
		<path class="st16" d="M1436,4207.8c13.9,27.3,20.8,59.9,20.8,97.9c0,53.2-9.2,92.4-27.5,117.5c-18.3,25.2-44,37.8-76.9,37.8
			h-110.5v-294.2h110.5C1394.2,4166.9,1422.1,4180.5,1436,4207.8z M1395.2,4427.3c12.4-9.8,22.1-24.5,29-44.1
			c6.9-19.6,10.4-43.5,10.4-72c0-42.5-7.3-74-21.9-94.5c-14.6-20.5-34.7-30.8-60.4-30.8h-88.8V4442h88.8
			C1368.5,4442,1382.8,4437.1,1395.2,4427.3z"/>
		<path class="st16" d="M1706.4,4067.9v165.2H1894v27.1h-187.5v173.6h224.7v27.1h-255.6v-420.2h255.6v27.1H1706.4z"/>
		<path class="st16" d="M2068.2,4315.4l-96.2-148.6h25.6l84.9,133.4l84.9-133.4h24.7l-95.3,149l95.3,145.2H2167l-84.5-130.8
			l-85.8,130.8H1972L2068.2,4315.4z"/>
		<path class="st16" d="M2240.6,4166.9h110c31.8,0,55,7.5,69.8,22.4c14.7,14.9,22.1,38,22.1,69.2c0,32.9-7.6,57.5-22.7,73.6
			c-15.2,16.2-38.2,24.3-69.1,24.3h-88.4V4461h-21.7V4166.9z M2350.2,4336.5c46.2,0,69.3-26,69.3-78.1c0-24.8-5.5-43-16.5-54.7
			c-11-11.7-28.6-17.5-52.9-17.5h-88v150.2H2350.2z"/>
		<path class="st16" d="M2520.1,4185.9v115.6h131.3v19h-131.3V4442h157.3v19h-178.9v-294.2h178.9v19H2520.1z"/>
		<path class="st16" d="M2738,4166.9h109.2c31.2,0,54.4,7,69.5,20.9s22.7,35.7,22.7,65.2c0,48.4-20.1,77-60.2,85.7l64.6,122.4h-24.3
			l-62.8-118.6h-97V4461H2738V4166.9z M2847.6,4323c46.2,0,69.3-22.8,69.3-68.4c0-23.4-5.7-40.6-17.1-51.7
			c-11.4-11.1-29-16.7-52.6-16.7h-87.5V4323H2847.6z"/>
		<path class="st16" d="M3004,4166.9h21.7V4461H3004V4166.9z"/>
		<path class="st16" d="M3124.9,4185.9v115.6h131.3v19h-131.3V4442h157.3v19h-178.9v-294.2h178.9v19H3124.9z"/>
		<path class="st16" d="M3554.7,4166.9V4461h-45.1l-136.9-275.2h-8.2V4461h-21.7v-294.2h45.5l135.6,275.2h9.5v-275.2H3554.7z"/>
		<path class="st16" d="M3664.1,4447.7c-16.3-11.4-27.5-27.9-33.6-49.4s-9.1-49.9-9.1-85c0-33.8,2.8-61.3,8.4-82.5
			c5.6-21.2,16.6-37.8,32.9-49.8c16.3-12,39.8-17.9,70.4-17.9c21.9,0,47.9,2.7,78,8l-1.3,19.4c-28.3-5.3-54.2-8-77.6-8
			c-24.6,0-43,4.3-55.5,12.9c-12.4,8.6-20.9,22.6-25.6,42c-4.6,19.4-6.9,47.4-6.9,84c0,29.5,2.2,53,6.7,70.3
			c4.5,17.3,13.5,30.6,27.1,39.9c13.6,9.3,33.6,13.9,60.2,13.9c20.8,0,44.6-2.8,71.5-8.4l1.3,19.4c-28,5.6-53.7,8.4-77.1,8.4
			C3703.7,4464.8,3680.4,4459.1,3664.1,4447.7z"/>
		<path class="st16" d="M3890,4185.9v115.6h131.3v19H3890V4442h157.3v19h-178.9v-294.2h178.9v19H3890z"/>
		<path class="st16" d="M1311.1,4629.6h12.9l32.8,157.7h8.7l37.3-155.8h14.7l37.3,155.8h8.7l32.8-157.7h12.7l-36.1,168.9h-27.6
			l-35.3-150.9l-35.1,150.9h-27.6L1311.1,4629.6z"/>
		<path class="st16" d="M1540.4,4629.6h12.4v168.9h-12.4V4629.6z"/>
		<path class="st16" d="M1634.4,4640.7h-56.2v-11.1h124.4v11.1h-55.7v157.7h-12.4V4640.7z"/>
		<path class="st16" d="M1851,4629.6v168.9h-12.2v-79h-98.2v79h-12.4v-168.9h12.4v78.5h98.2v-78.5H1851z"/>
		<path class="st16" d="M2142.7,4590.8c11.4,22.4,17.1,49.1,17.1,80.3c0,43.6-7.5,75.7-22.6,96.4c-15,20.7-36.1,31-63.1,31h-90.6
			v-241.2h90.6C2108.5,4557.2,2131.3,4568.4,2142.7,4590.8z M2109.3,4770.8c10.2-8.1,18.1-20.1,23.8-36.2c5.7-16,8.5-35.7,8.5-59
			c0-34.8-6-60.7-17.9-77.5c-12-16.8-28.5-25.3-49.6-25.3h-72.8v210.1h72.8C2087.4,4782.9,2099.1,4778.8,2109.3,4770.8z"/>
		<path class="st16" d="M2295.4,4749.5h-79.8l-14.9,48.9h-12.2l51.2-168.9h31.6l51.2,168.9h-12.2L2295.4,4749.5z M2262.1,4640.5
			h-12.9l-30.3,97.6h73.4L2262.1,4640.5z"/>
		<path class="st16" d="M2376,4640.7h-56.2v-11.1h124.4v11.1h-55.7v157.7H2376V4640.7z"/>
		<path class="st16" d="M2548.4,4749.5h-79.8l-14.9,48.9h-12.2l51.2-168.9h31.6l51.2,168.9h-12.2L2548.4,4749.5z M2515,4640.5h-12.9
			l-30.3,97.6h73.4L2515,4640.5z"/>
		<path class="st16" d="M2604.6,4629.6h60.7c17.1,0,29.8,3.5,38.1,10.5c8.3,7,12.4,17.8,12.4,32.3c0,10.3-2,18.6-6,24.7
			c-4,6.1-9.9,10.8-17.7,14.1c10.1,3.4,17.6,8.4,22.5,15.1c4.9,6.7,7.3,15.8,7.3,27.3c0,15.7-4.4,27.1-13.3,34.2
			c-8.9,7.1-21.9,10.7-39.2,10.7h-64.9V4629.6z M2667.2,4706.6c12.1,0,21.1-2.8,26.9-8.4c5.8-5.6,8.7-14,8.7-25.3
			c0-11.5-3-19.7-9-24.7c-6-5-15.6-7.5-28.9-7.5h-48v65.9H2667.2z M2669,4787.3c12.9,0,22.9-2.7,29.8-8.2c7-5.5,10.4-14.2,10.4-26.2
			c0-13.1-3.9-22.2-11.6-27.4c-7.7-5.2-17.9-7.8-30.5-7.8H2617v69.5H2669z"/>
		<path class="st16" d="M2847.1,4749.5h-79.8l-14.9,48.9h-12.2l51.2-168.9h31.6l51.2,168.9H2862L2847.1,4749.5z M2813.7,4640.5
			h-12.9l-30.3,97.6h73.4L2813.7,4640.5z"/>
		<path class="st16" d="M2902.5,4797l-9-1l1.2-11.1c22.9,2.9,40.1,4.4,51.7,4.4c27.5,0,41.3-13,41.3-39c0-7.1-1.1-12.6-3.2-16.6
			c-2.2-4-6.2-7.2-12.1-9.7c-5.9-2.5-14.6-4.7-26.2-6.7c-13.9-2.4-24.7-5.2-32.2-8.5c-7.5-3.2-13.1-7.8-16.5-13.8
			c-3.5-6-5.2-14.2-5.2-24.7c0-14.5,4.4-25.4,13.3-32.6c8.9-7.2,22.6-10.8,41.2-10.8c13.6,0,30.3,1.4,50.2,4.1l-1.2,11.1
			c-23.5-2.7-39.8-4.1-48.7-4.1c-27.9,0-41.8,10.5-41.8,31.5c0,8.4,1,14.6,3.1,18.7c2.1,4,6.2,7.3,12.3,9.7c6.1,2.4,16.2,5,30.3,7.8
			c12.6,2.3,22.4,5,29.3,8.1s12.1,7.5,15.3,13c3.2,5.5,4.8,12.9,4.8,22.3c0,17.4-4.3,30.4-12.9,38.8c-8.6,8.4-22.1,12.6-40.5,12.6
			C2935.9,4800.4,2921.1,4799.2,2902.5,4797z"/>
		<path class="st16" d="M3048.5,4640.5v66.4h75.4v10.9h-75.4v69.8h90.3v10.9h-102.7v-168.9h102.7v10.9H3048.5z"/>
		<path class="st16" d="M3173.6,4797l-9-1l1.2-11.1c22.9,2.9,40.1,4.4,51.7,4.4c27.5,0,41.3-13,41.3-39c0-7.1-1.1-12.6-3.2-16.6
			c-2.2-4-6.2-7.2-12.1-9.7c-5.9-2.5-14.6-4.7-26.2-6.7c-13.9-2.4-24.7-5.2-32.2-8.5c-7.5-3.2-13.1-7.8-16.5-13.8
			c-3.5-6-5.2-14.2-5.2-24.7c0-14.5,4.4-25.4,13.3-32.6c8.9-7.2,22.6-10.8,41.2-10.8c13.6,0,30.3,1.4,50.2,4.1l-1.2,11.1
			c-23.5-2.7-39.8-4.1-48.7-4.1c-27.9,0-41.8,10.5-41.8,31.5c0,8.4,1,14.6,3.1,18.7c2.1,4,6.2,7.3,12.3,9.7c6.1,2.4,16.2,5,30.3,7.8
			c12.6,2.3,22.4,5,29.3,8.1s12.1,7.5,15.3,13c3.2,5.5,4.8,12.9,4.8,22.3c0,17.4-4.3,30.4-12.9,38.8c-8.6,8.4-22.1,12.6-40.5,12.6
			C3207,4800.4,3192.2,4799.2,3173.6,4797z"/>
	</g>
	<g>
		<g>
			<g>
				<path class="st17" d="M2085.7,1062.6c115.8,3.3,230.2,15.4,340.3,54.4c27.9,9.9,54.4,22.7,81,35.7
					c44.5,21.8,70.4,56.8,83.5,104.2c22.9,82.3,28,165.9,26.2,250.7c-2.1,99.6-17.8,196.6-51.2,290.4
					c-45.3,127.3-124.8,231.9-221.5,324c-82.1,78.3-175,141.2-278.6,188c-10,4.5-19.1,7.9-30.6,2.5
					c-213-99.5-379.9-247.9-483.3-461.3c-48-99.1-67.1-206.4-72.2-316.1c-3.9-83.9-1.7-167.3,17.8-249.5c2.3-9.8,5.4-19.5,7.8-29.3
					c11.7-47.7,39.5-81.1,83.6-104.1c71.3-37.1,147-59,225.4-72.3C1903.8,1064.8,1994.7,1061.4,2085.7,1062.6z M2015.7,1152
					c-32.4-0.6-96.4,4.1-160.1,12.9c-71.7,9.9-140.9,27.9-207.4,57.3c-35.6,15.8-57,39.7-62.7,78.1c-1.7,11.3-4.9,22.5-6.7,33.8
					c-12.1,73-15.4,146-8.8,220c8.6,95.6,26.1,189,70,274.7c88.3,172.2,224.9,296.2,395.1,385.1c10.6,5.6,18.5,2.6,27.8-2.1
					c81.6-41.6,155.7-93.8,221.6-157.4c86.6-83.7,158.6-177.3,198.7-292.8c26.9-77.6,40.1-157.8,44.4-239.3
					c4.5-85.4-1.5-170.1-27.6-252.4c-4.7-14.8-13.1-24.8-26.4-32.4c-30.2-17.3-61.7-31.2-94.8-41.6
					C2271,1161.8,2160,1152.6,2015.7,1152z"/>
				<path class="st18" d="M2388.8,2384.1c14.4,0,28.9-0.1,43.3,0c52.3,0.6,90.3,29.2,100.4,75.4c11.5,52.7-10.6,101.6-56.4,124
					c-17.8,8.7-36.7,13.1-56.5,13.2c-28.2,0.1-56.3-0.1-84.5-0.5c-4.3-0.1-11.3,2.9-11.5-5.4c-0.2-4.6,2.9-8.7,7.7-9.1
					c18.6-1.7,18.5-15.6,18.7-28.6c0.4-42.6,0.2-85.2,0.6-127.9c0.1-14.2-4.1-23.7-20.1-25.2c-4.4-0.4-13.2,1-11.5-8.2
					c1.3-6.9,7.3-7.7,13.6-7.6C2351.2,2384.3,2370,2384.2,2388.8,2384.1C2388.8,2384.1,2388.8,2384.1,2388.8,2384.1z M2384.6,2485.1
					c0,0,0.1,0,0.1,0c0,23.1,0.1,46.2-0.1,69.3c-0.1,13,7.1,19.6,18.6,23.1c27,8.3,57.9,0.6,74.7-21.5
					c26.1-34.2,27.2-72.4,10.6-110.6c-13.8-31.8-48.9-47.9-88.8-45.2c-10.8,0.7-15.6,4.3-15.4,15.6
					C2384.9,2438.9,2384.6,2462,2384.6,2485.1z"/>
				<path class="st18" d="M2689.3,2476.7c30,10.3,46.9,27.4,43.8,59.5c-2.9,29.7-22.7,44.2-47.3,53.2c-40.6,14.8-82.9,5.1-124.5,6.6
					c-3.2,0.1-5.7-1.4-5.5-4.9c0.3-4.8,3.1-9,7.6-9.2c23.4-1.2,22.1-17.6,22-34c-0.1-41.1-0.2-82.3,0.4-123.4
					c0.2-14.1-2.1-24.2-19-24.9c-4.1-0.2-11.6,0.4-10.4-7.4c1-7.1,6.8-8,13.1-8c28.1,0.2,56.3-0.1,84.4,0.1
					c25.6,0.2,50,4.1,61.2,31.2C2726.1,2442.3,2712.1,2460.9,2689.3,2476.7z M2651.2,2579.7c37.4,0.3,59-32.4,42.3-64.4
					c-10.4-19.9-29.9-22.7-49.5-25.4c-17.1-2.4-28,0.1-25.2,21.5c1.6,12,0.2,24.4,0.4,36.7
					C2619.8,2574.5,2624.9,2579.5,2651.2,2579.7z M2619.4,2438.3c-0.1,0-0.1,0-0.2,0c0,8.6,0,17.2,0,25.8c0,5.7,1.9,9.9,8.4,10
					c12.9,0.2,25.9,2,38.3-3.1c15.1-6.1,21.8-23.3,16.7-41.8c-5.6-20.2-26.2-31.5-51.6-28.3c-20.7,2.7-8.2,19-11.5,28.7
					C2618.6,2432.3,2619.4,2435.4,2619.4,2438.3z"/>
				<path class="st19" d="M1367.2,2467.4c14.5-3.8,29-7.6,43.5-11.6c17.1-4.6,3.8,11.7,13.3,15.5c6.8-0.4,13.1-8.3,21.2-11.9
					c19.7-8.8,38.1-9.8,52.7,8.5c5.4,6.7,9.1,7,15.6,2.1c5.7-4.3,12-8,18.5-11c32.1-14.8,60.5,0.4,64.5,35.8
					c2.3,20.7,1.2,41.8,1.1,62.7c-0.1,11.6,0.1,21.9,15.1,23.7c3.9,0.5,9.2,2.1,8,8c-1,4.8-4.7,6.3-9.7,6.2
					c-17.3-0.3-34.6-0.3-51.9-0.3c-3.9,0-7.6-0.5-8.8-4.5c-1.7-5.4,2.3-8.3,6.7-9.2c12.1-2.5,13.5-10.8,13.3-21.1
					c-0.4-18,1-36.2-0.7-54.1c-2.7-28.6-31.5-40-54.6-23.1c-5.9,4.3-5.7,9.2-5.7,15c0.2,18.8,0.2,37.5,0.1,56.3
					c0,12.1-2.8,25.6,15.5,27.5c3.9,0.4,6.6,3.2,5.7,7.6c-0.8,4.1-4,5.7-7.9,5.7c-18,0.1-36.1,0.1-54.1,0.2c-4.7,0-8.8-1-9.3-6.5
					c-0.4-4.5,3.3-6.7,6.7-7c15.4-1.4,14.9-12.5,15.4-23.6c0.9-18.8,1.9-37.5-1-56.2c-3-19.7-14.5-30-32-27
					c-17,2.8-32.1,8.3-29.7,31.4c1.7,16.4,0.5,33.2,0.4,49.8c-0.1,11.9-0.9,23.8,15.6,25.6c4.2,0.4,6.1,3.5,5.6,7.7
					c-0.8,6-5.5,5.6-9.8,5.6c-17.3,0-34.6-0.1-51.9,0.1c-4.8,0.1-8.8-0.9-9.3-6.3c-0.4-4.4,2.9-6.7,6.6-7.1
					c15.9-1.8,16.6-13.1,16.5-25.3c-0.1-13.7-0.3-27.5,0.5-41.1c1.2-20.4,1.7-39.9-28.9-42.4
					C1364.9,2471.2,1366,2469.3,1367.2,2467.4z"/>
				<path class="st19" d="M2130.3,2457.5c2,11,0.9,20.8-7.7,22.1c-16.3,2.3-15.7,11.4-16.3,24.2c-1.3,26.9-20.3,44-51.2,50
					c-7.5,1.5-19.3,0.5-19.1,10c0.3,10.5,12.1,10,20.6,10.9c14.3,1.4,28.9,2,43,4.6c23.5,4.4,34.8,23.9,28.2,46.9
					c-12.7,44.7-81.9,69.3-120.5,42.9c-23.4-16.1-25-38.8-3.7-56.9c5.5-4.7,11.3-8.9,17-13.4c-24.1-21.4-24.1-21.4,4.6-43.6
					c-29.1-19.3-38.5-43.3-26.9-68.7c11.3-24.9,47.6-39.3,78.4-30.2C2094,2461.3,2111,2467.7,2130.3,2457.5z M2059.9,2601
					c-26.2-0.6-42.4,9.8-44.5,25.3c-2.2,15.9,10.5,29.7,32,33.9c14.4,2.8,28.6,1.6,41.5-6.1c10.8-6.4,16.6-16,15-28.6
					c-1.6-12.3-10.3-18.3-21.7-20.7C2073.1,2602.9,2063.8,2601.7,2059.9,2601z M2078.7,2506.8c0.2-23.7-11.7-39.3-30.1-39.7
					c-15.9-0.4-26.8,12.7-26.9,32.3c0,23.7,13.6,41.2,32,41C2069.6,2540.2,2078.5,2528.2,2078.7,2506.8z"/>
				<path class="st19" d="M1861,2474c23.4-15.6,43.2-29.8,67.6-16.7c25.3,13.7,24.3,38.6,24.4,62.7c0,12.3,0.1,24.6,0.2,36.8
					c0,11.1-0.6,22.4,15.3,23.4c4.5,0.3,8.2,3.3,7.6,8.6c-0.7,6.6-5.4,7.2-11,7.2c-17.3-0.2-34.7-0.1-52,0c-4.5,0-8.9,0-9.5-5.9
					c-0.5-4.9,1.3-9.2,6.5-9.5c14-0.8,13.1-10.7,13-20.2c-0.2-18.8,0.2-37.6-1-56.3c-1.1-18.1-14.4-29.8-31.7-27.7
					c-16.7,2.1-30.9,7.6-29.1,29.6c1.3,16.5,0.4,33.2,0.6,49.8c0.1,11.5-1.6,24,15.8,25.1c5.4,0.3,6.5,4.9,5.6,9.7
					c-0.8,4.3-3.8,5.3-7.9,5.3c-18.8-0.1-37.6,0-56.3,0c-4.6,0-8.7-0.7-9.1-6.6c-0.2-4.2,1.9-7.8,5.6-8.1
					c18.7-1.5,15.6-15.3,15.7-27.2c0.2-15.9-0.3-31.8,0.4-47.7c0.6-13.8,0.3-26.1-17-29.5c-3.1-0.6-7.5-2.1-6.9-6.9
					c0.5-4.4,4.6-5.3,7.9-6.1c9.8-2.4,20.4-2.8,29.4-6.9C1861.1,2449.7,1863.7,2456.9,1861,2474z"/>
				<path class="st19" d="M1720.3,2453.3c38.9,0.2,66.4,29.5,66,70.1c-0.5,43.7-32.2,74.9-75.7,74.4c-41.3-0.5-66.9-28.8-66.5-73.8
					C1644.4,2482.7,1676.3,2453.1,1720.3,2453.3z M1674.4,2523.5c0.4,12.6,4.1,30.9,17.5,45.3c10.3,11.1,23.2,16.8,38.8,12.1
					c15.2-4.6,20.5-16.3,22.8-30.8c2.2-14.4,1.7-28.8-1.8-42.8c-6.4-25.4-25.9-40.6-47.5-38
					C1684.7,2471.7,1674.2,2488.4,1674.4,2523.5z"/>
				<path class="st19" d="M2147.1,2524.8c0.1-41.7,31.5-71.4,75.5-71.5c39.1,0,66.7,28.6,66.7,69.4c0,43.6-31.5,75.2-75,75.1
					C2173,2597.7,2147,2569.5,2147.1,2524.8z M2177.4,2521.5c0.2,13.4,3.7,32.4,17.7,47.4c10.3,11.1,23.2,16.7,38.8,11.9
					c15.2-4.7,20.6-16.4,22.5-30.9c2.1-15.9,1.9-31.5-3.3-46.8c-8.4-24.6-27.1-37.4-48.3-33.4
					C2187.3,2473,2177.7,2488.9,2177.4,2521.5z"/>
				<path class="st19" d="M2015.7,1152c144.2,0.6,255.3,9.7,363.1,43.7c33.1,10.4,64.7,24.4,94.8,41.6c13.2,7.6,21.7,17.6,26.4,32.4
					c26.2,82.3,32.1,167,27.6,252.4c-4.3,81.5-17.4,161.7-44.4,239.3c-40.1,115.5-112,209.1-198.7,292.8
					c-65.9,63.6-140,115.9-221.6,157.4c-9.3,4.7-17.2,7.7-27.8,2.1c-170.2-88.9-306.8-212.9-395.1-385.1
					c-43.9-85.7-61.5-179.1-70-274.7c-6.6-74-3.3-147,8.8-220c1.9-11.3,5-22.4,6.7-33.8c5.7-38.3,27.1-62.3,62.7-78.1
					c66.5-29.4,135.7-47.4,207.4-57.3C1919.4,1156.1,1983.4,1151.5,2015.7,1152z M2065.2,2069.4c6-18,6.4-37.7,17.2-54.2
					c4.9-3,10.2-5.4,14.5-9.1c104.9-89.7,158.1-204.1,157.2-341.6c-0.7-109.7-39.8-207.8-101.7-297.6
					c-32.6-47.3-82.3-81.5-104.5-136.6c-1.1-1.5-2.2-2.9-3.3-4.4c-0.4,0.5-1,0.9-1.1,1.5c-4.4,22.2-21,35.1-36.5,49.3
					c-53.3,49-94.2,106.7-120.5,174.4c-47.3,112.2-61.1,227-23.2,344.5c30.3,94,89.8,167.9,166,229.3c2.8,7.3,5.7,14.7,8.5,22
					c2.2,15.1,4.4,30.2,6.6,45.3c3.2,16.7-9.3,42.1,24.6,43.3C2067.4,2112.9,2070,2091,2065.2,2069.4z"/>
				<path class="st20" d="M2048,1230.3c22.2,55.2,71.9,89.3,104.5,136.6c61.9,89.7,101,187.9,101.7,297.6
					c0.9,137.5-52.3,252-157.2,341.6c-4.3,3.7-9.7,6.1-14.5,9.1c-7.2-2.6-10.9-9.2-16.1-14.1c-8.7-20.5-11.8-42.5-16.8-67.6
					c-1.2,5.9-1.5,8.5-2.2,11c-7.2,26.5-1.9,55.9-18.1,80.4c-76.2-61.4-135.6-135.3-166-229.3c-37.9-117.5-24.1-232.4,23.2-344.5
					c13.9,3.6,14.8,16.4,18.4,26.9c41.9,124.9,83.5,249.9,125.3,374.8c2.7,8.2,5.8,16.3,9.1,24.2c1.4,3.3,3.9,6.6,8,5.8
					c4.5-0.9,4.4-5.4,4-8.8c-2.4-23.2,4.7-45.7,4.7-68.7C2055.5,1613.7,2059.4,1421.9,2048,1230.3z"/>
				<path class="st21" d="M2048,1230.3c11.4,191.6,7.5,383.3,8,575.1c0.1,23-7,45.5-4.7,68.7c0.3,3.4,0.5,7.9-4,8.8
					c-4.1,0.8-6.6-2.5-8-5.8c-3.3-8-6.3-16.1-9.1-24.2c-41.8-124.9-83.4-249.9-125.3-374.8c-3.5-10.5-4.5-23.3-18.4-26.9
					c26.3-67.7,67.3-125.4,120.5-174.4c15.5-14.2,32.1-27.1,36.5-49.3c0.1-0.5,0.7-1,1.1-1.5
					C2045.8,1227.4,2046.9,1228.8,2048,1230.3z"/>
				<path class="st21" d="M2066.4,2001.1c5.2,4.9,8.8,11.5,16.1,14.1c-10.8,16.5-11.2,36.2-17.2,54.2c-14.6,0.7-5,23.3-20.7,22.9
					c-2.2-15.1-4.4-30.2-6.6-45.3c10.8-5.8,10.4-17.6,14.5-27C2055.6,2012.7,2055.3,2002.5,2066.4,2001.1z"/>
				<path class="st18" d="M2066.4,2001.1c-11.1,1.5-10.8,11.6-14,18.9c-4.1,9.4-3.7,21.2-14.5,27c-2.8-7.3-5.7-14.7-8.5-22
					c16.1-24.5,10.9-53.9,18.1-80.4c0.7-2.5,1-5.1,2.2-11C2054.7,1958.6,2057.7,1980.6,2066.4,2001.1z"/>
			</g>
		</g>
		<g>
			<g>
				<path class="st22" d="M1082.2,3525.7h107.7v-426.8l168.3,372.1c19.1,44.7,46.4,61.3,99.5,61.3c53.1,0,78.7-16.6,98.6-61.3
					l167.4-372.1v426.8h108.6v-426.8c0-41.4-16.6-61.4-51.4-72.1c-82.1-24.9-136.8-3.3-161.6,52.2l-164.9,368l-159.1-368
					c-24-55.5-79.6-77.1-162.4-52.2c-34,10.8-50.6,30.7-50.6,72.1L1082.2,3525.7L1082.2,3525.7L1082.2,3525.7z M1921.8,3178.4h108.6
					V3413c-0.8,13.2,4.1,43.1,63,43.9c30.7,0.8,233.7,0,235.4,0v-280.1h108.6v383.7c0,94.5-116.9,115.2-171.6,116h-341.5v-72.1
					h342.3c69.6-7.5,61.3-42.3,61.3-53.9v-28.2h-229.6c-106.9-0.8-175.7-48.1-176.5-101.9
					C1921.8,3415.5,1924.3,3180.1,1921.8,3178.4L1921.8,3178.4z M4250.8,2906.6c-66.3-1.7-117.7,5-160.8,23.2
					c-12.4,5-32.3,5-34,20.7c6.6,6.6,7.4,17.4,13.2,26.5c9.9,16.6,27.4,38.9,43.1,50.5c17.4,13.3,34.8,26.5,53,38.1
					c32.3,19.9,68.8,31.5,100.3,51.4c18.2,11.6,36.5,26.5,54.7,39c9.1,6.6,14.9,17.4,26.5,21.5v-2.5c-5.8-7.4-7.5-18.2-13.2-26.5
					c-8.3-8.3-16.6-15.8-24.9-24c-24-32.3-53.9-60.5-86.2-83.7c-26.5-18.2-84.5-43.1-95.3-73.8l-1.6-1.7
					c18.2-1.7,39.8-8.3,57.2-13.3c28.2-7.4,53.9-5.8,82.9-13.2c13.3-3.3,26.5-7.5,39.8-11.6v-7.4c-14.9-14.9-25.7-34.8-41.4-48.9
					c-42.3-36.5-88.7-72.1-136.8-101.9c-25.7-16.6-58.8-27.4-86.2-41.4c-10-5-26.5-7.5-32.3-15.8c-15-18.2-23.2-42.3-34-63.8
					c-24-45.6-47.2-96.1-68-144.2c-14.9-32.3-24.1-64.6-42.3-94.5c-85.4-140.9-178.2-226.3-320.8-310c-30.7-17.4-67.1-24.9-106.1-34
					c-20.7-0.8-41.4-2.5-62.2-3.3c-13.3-5.8-26.5-21.5-38.1-29c-47.2-29.8-169.1-94.5-203.9-9.1c-22.4,53.9,33.2,106.9,52.2,134.3
					c14.1,19.1,32.3,40.6,42.3,62.2c5.8,14.1,7.4,29,13.2,43.9c13.2,36.5,25.7,77.1,43.1,111.1c9.1,17.4,19,35.6,30.7,51.4
					c6.6,9.1,18.2,13.3,20.7,28.2c-11.6,16.6-12.4,41.4-19,62.2c-29.9,93.7-18.2,209.7,24,278.5c13.3,20.7,44.8,66.3,87,48.9
					c37.3-14.9,29-62.2,39.8-103.6c2.5-9.9,0.8-16.6,5.8-23.2v1.7c11.6,23.2,23.2,45.6,34,68.8c25.7,40.6,70.5,82.9,107.8,111.1
					c19.9,14.9,35.6,40.6,60.5,49.7v-2.5h-1.6c-5-7.4-12.4-10.8-19.1-16.6c-14.9-14.9-31.5-33.2-43.1-49.7
					c-34.8-46.4-65.4-97.8-92.8-150.8c-13.3-25.7-24.9-53.9-35.6-79.6c-5-10-5-24.9-13.3-29.8c-12.4,18.2-30.7,34-39.8,56.4
					c-15.8,35.6-17.4,79.6-23.2,125.1c-3.3,0.8-1.7,0-3.3,1.7c-26.5-6.6-35.6-34-45.6-57.2c-24.9-58.8-29-153.3-7.5-221.3
					c5.8-17.4,30.7-72.1,20.7-88.7c-5-15.8-21.5-24.9-30.7-37.3c-10.8-15.8-22.3-35.6-29.8-53c-19.9-46.4-29.8-97.8-51.4-144.2
					c-10-21.5-27.4-43.9-41.5-63.8c-15.8-22.4-33.1-38.1-45.6-64.6c-4.1-9.1-9.9-24-3.3-34c1.6-6.6,5-9.1,11.6-10.8
					c10.8-9.1,41.5,2.5,52.2,7.4c30.7,12.4,56.3,24,82,41.4c11.6,8.3,24.1,24,39,28.2h17.4c26.5,5.8,56.3,1.7,81.2,9.1
					c43.9,14.1,83.7,34.8,119.4,57.2c108.6,68.8,198.1,166.6,258.6,283.5c9.9,19.1,14.1,36.5,23.2,56.4
					c17.4,40.6,39,82.1,56.3,121.8c17.4,39,34,78.7,58.8,111.1c12.4,17.4,62.2,26.5,84.5,35.6c16.6,7.4,42.3,14.1,57.2,23.2
					c28.2,17.4,56.3,37.3,82.9,56.4C4206.8,2869.3,4248.3,2890,4250.8,2906.6L4250.8,2906.6z"/>
				<path class="st22" d="M3405.4,2186.3c-14.1,0-24,1.7-34,4.1v1.7h1.6c6.6,13.3,18.2,22.4,26.5,34c6.6,13.3,12.4,26.5,19.1,39.8
					l1.6-1.7c11.6-8.3,17.4-21.5,17.4-41.4c-5-5.8-5.8-11.6-9.9-17.4C3422.8,2197.1,3412,2193,3405.4,2186.3L3405.4,2186.3z"/>
				<path class="st23" d="M2520.2,3525.7h311.6c36.5,0,71.3-7.4,99.5-20.7c47.2-21.5,69.6-50.5,69.6-88.7v-79.6
					c0-30.7-25.7-59.7-77.1-79.6c-26.5-9.9-59.7-15.8-92-15.8h-130.9c-43.9,0-64.6-13.3-70.5-42.3c-0.8-3.3-0.8-6.6-0.8-9.9v-48.9
					c0-2.5,0-5.8,0.8-9.1c5.8-22.4,17.4-28.2,55.5-32.3h319.1v-72.1h-303.4c-43.9,0-67.1,2.5-87.8,9.1c-63.8,19.9-92,51.4-92,106.9
					v63c0,48.9,54.7,90.3,147.5,100.3c9.9,0.8,20.7,0.8,31.5,0.8h111.9c4.1,0,8.3,0,11.6,0.8c34,3.3,48.9,9.1,58.8,21.5
					c6.6,6.6,8.3,12.4,8.3,19.9v63c0,7.4-5,17.4-14.9,25.7c-10,8.3-25.7,14.1-46.4,14.9c-4.1,0-6.6,0.8-10.8,0.8h-299.2V3525.7
					L2520.2,3525.7z M3675.5,3400.6c0,73.8,55.5,115.2,166.6,123.5c10.8,0.8,20.7,1.6,31.5,1.6h281.8v-72.1h-284.3
					c-63,0-87-15.8-87-53.9v-373h-108.6L3675.5,3400.6L3675.5,3400.6L3675.5,3400.6z M3069.7,3403.8v-256.9
					c0-65.5,46.4-105.3,136.8-117.7c9.9-0.8,19.9-1.7,29-1.7H3441c10.8,0,19.9,0.8,30.7,1.7c90.3,12.4,135.9,52.2,135.9,117.7v256.9
					c0,53-19,81.2-63.8,100.3l106.1,96.1h-125.1l-86.2-77.9l-87,5h-116c-19,0-40.6-2.5-63-8.3
					C3103.7,3500,3069.7,3463.5,3069.7,3403.8L3069.7,3403.8z M3186.6,3398.1c0,3.3,1.7,6.6,2.5,10.8c5.8,29.8,34,46.4,77.1,46.4
					h97.8l-89.5-81.2h125.1l78.7,71.3c15-8.3,24.1-19.9,27.4-34.8c0.8-3.3,0.8-7.4,0.8-10.8v-246.2c0-3.3,0-6.6-0.8-9.9
					c-5.8-28.2-34-43.9-76.2-43.9h-163.3c-48.1,0-79.6,20.7-79.6,53.8L3186.6,3398.1L3186.6,3398.1z M4205.2,3526.5h15.8V3466h20.7
					v-12.4h-58v12.4h21.5L4205.2,3526.5L4205.2,3526.5z M4325.4,3526.5h14.9v-72.9h-22.3l-18.2,49.7l-19.9-49.7h-21.5v72.9h14.1
					V3471h0.8l20.7,55.5h10.8l20.7-55.5L4325.4,3526.5L4325.4,3526.5L4325.4,3526.5z"/>
			</g>
		</g>
		<g>
			<g>
				<polyline class="st24" points="3005.1,1093.6 3005.1,2861.6 254.1,2861.6 				"/>
				<g>
					<path class="st25" d="M2847.2,1101.5c0-87.2,70.7-157.9,157.9-157.9c87.2,0,157.9,70.7,157.9,157.9
						c0,87.2-70.7,157.9-157.9,157.9C2917.9,1259.4,2847.2,1188.7,2847.2,1101.5z"/>
				</g>
				<g>
					<path class="st25" d="M262,2703.7c-87.2,0-157.9,70.7-157.9,157.9c0,87.2,70.7,157.9,157.9,157.9
						c87.2,0,157.9-70.7,157.9-157.9C419.9,2774.4,349.2,2703.7,262,2703.7z"/>
				</g>
			</g>
		</g>
	</g>
</g>
</svg>
