<?xml version="1.0" encoding="utf-8"?>
<!-- Generator: Adobe Illustrator 22.0.1, SVG Export Plug-In . SVG Version: 6.00 Build 0)  -->
<svg version="1.1" id="Layer_1" xmlns="http://www.w3.org/2000/svg" xmlns:xlink="http://www.w3.org/1999/xlink" x="0px" y="0px"
	 viewBox="0 0 609.4 295.4" style="enable-background:new 0 0 609.4 295.4;" xml:space="preserve">
<style type="text/css">
	.st0{fill:#2B4A97;}
	.st1{fill:#263464;}
	.st2{fill:#76C8D9;}
	.st3{fill:#3C2C64;}
	.st4{fill:#221838;}
	.st5{fill:#A87EB7;}
	.st6{fill:#5E3D19;}
	.st7{fill:#472F16;}
	.st8{fill:#DE8726;}
	.st9{opacity:0.75;}
	.st10{fill:none;stroke:#000000;stroke-width:6;stroke-miterlimit:10;}
</style>
<g>
	<g>
		<g>
			<circle class="st0" cx="154.8" cy="143.3" r="54.1"/>
			<path class="st1" d="M172.9,131.6c-4.3,0-7.6,0.8-9.9,2.4l-10.4-10.3l0,0c-1.6-1.7-3.5-2.9-5.8-3.5c-3.2-0.9-10.9-0.7-26.3-0.7
				v46.6l31.1,31.1c1,0.1,2.1,0.1,3.1,0.1c25,0,46.1-17,52.2-40.1l-22-22l0,0C182.1,132.4,178,131.6,172.9,131.6z"/>
			<g>
				<path class="st2" d="M120.5,166.1v-46.6c15.4,0,23.1-0.2,26.3,0.7c2.7,0.7,4.9,2.2,6.7,4.6c3.5,4.5,3.3,12.2,1.1,16.3
					c-2,3.7-5.3,6-8.8,6.8c-4.1,0.8-10.3,0.7-15.9,0.7v17.6H120.5L120.5,166.1z M129.9,127.4v13.2c9.5,0,13.3,0.3,15.5-3
					c1.5-2.2,1.5-5.7-0.4-7.8C142.6,127.2,140,127.4,129.9,127.4z"/>
				<path class="st2" d="M157.5,156.5l9-1.4c0.8,3.8,3.4,5.3,7.2,5.3c2.9,0,6.4-0.7,6.4-3.7c0-2-1.6-2.4-3.6-2.9
					c-7.2-1.6-11.8-3-13.7-4.4c-2.7-1.8-4-4.4-4-7.6c0-2.9,1.2-5.4,3.5-7.4c2.3-2,5.9-3,10.7-3c7.4,0,12.9,1.8,14.9,8.9l-8.4,1.6
					c-0.4-1.3-1-2.3-2.1-3c-2.3-1.6-7.6-1.2-9.4-0.1c-1.3,0.9-1.4,2.5-0.1,3.4c2.6,1.9,13.6,2.6,18.3,6.5c1.9,1.6,2.8,3.8,2.8,6.6
					c0,3.1-1.3,5.8-3.9,8c-2.6,2.2-6.4,3.3-11.5,3.3c-4.6,0-8.2-0.9-10.9-2.8C160.1,162.2,158.3,159.7,157.5,156.5z"/>
			</g>
		</g>
		<g>
			<circle class="st3" cx="456.5" cy="143.3" r="52.2"/>
			<path class="st4" d="M479.9,131.1c-4.3,0-7.8,1.5-10.6,4.5c-0.8,0.9-1.5,1.9-2.1,2.9l-19-19h-9.5L421.5,164l31.4,31.4
				c1.2,0.1,2.5,0.1,3.7,0.1c25.7,0,47.1-18.6,51.4-43L490.4,135l0,0C487.7,132.4,484.2,131.1,479.9,131.1z"/>
			<g>
				<path class="st5" d="M466,164h-9.8l-3.9-10.1h-17.8L431,164h-9.5l17.3-44.4h9.5L466,164z M449.5,146.5l-6.1-16.5l-6,16.5H449.5z
					"/>
				<path class="st5" d="M486.3,153.8l8.5,1.4c-1.1,3.1-2.8,5.5-5.2,7.1c-2.4,1.6-5.3,2.4-8.8,2.4c-5.6,0-9.7-1.8-12.4-5.5
					c-2.1-2.9-3.2-6.6-3.2-11.1c0-5.3,1.4-9.5,4.2-12.5c2.8-3,6.3-4.5,10.6-4.5c4.8,0,8.6,1.6,11.3,4.7c2.8,3.2,4.1,8,4,14.5h-21.3
					c0.1,2.5,0.7,4.5,2.1,5.9c1.3,1.4,2.9,2.1,4.9,2.1c1.3,0,2.5-0.4,3.4-1.1C485.1,156.6,485.8,155.4,486.3,153.8z M486.8,145.2
					c-0.1-2.5-0.7-4.3-1.9-5.6c-1.2-1.3-2.7-1.9-4.4-1.9c-1.9,0-3.4,0.7-4.6,2c-1.2,1.4-1.8,3.2-1.8,5.5L486.8,145.2L486.8,145.2z"
					/>
			</g>
		</g>
		<g>
			<circle class="st6" cx="305.6" cy="143.3" r="51.4"/>
			<path class="st7" d="M356.9,139.3l-20.8-20.8h-9.5v8.8l4.9,4.9h-4.9v8L305,118.5h-10.6L275.2,168l26.6,26.6
				c1.3,0.1,2.5,0.1,3.8,0.1c28.4,0,51.4-23,51.4-51.4C357.1,142,357,140.6,356.9,139.3z"/>
			<g>
				<path class="st8" d="M324.8,168H314l-4.3-11.2h-19.8l-4.1,11.2h-10.6l19.3-49.5H305L324.8,168z M306.4,148.4l-6.8-18.4
					l-6.7,18.4H306.4z"/>
				<path class="st8" d="M326.6,127.2v-8.8h9.5v8.8H326.6z M326.6,168v-35.8h9.5V168L326.6,168L326.6,168z"/>
			</g>
		</g>
	</g>
	<g>
		<g class="st9">
			<path class="st10" d="M18.4,220.4V84c0-10.8,8.8-19.6,19.6-19.6h533.3c10.8,0,19.6,8.8,19.6,19.6v136.4"/>
			<g>
				<path d="M29.7,219.8c0,6.2-5.1,11.3-11.3,11.3S7.2,226,7.2,219.8c0-6.2,5.1-11.3,11.3-11.3S29.7,213.6,29.7,219.8z"/>
			</g>
			<g>
				<path d="M579.7,219.8c0,6.2,5.1,11.3,11.3,11.3s11.3-5.1,11.3-11.3c0-6.2-5.1-11.3-11.3-11.3S579.7,213.6,579.7,219.8z"/>
			</g>
		</g>
	</g>
</g>
</svg>
