<?xml version="1.0" encoding="utf-8"?>
<!-- Generator: Adobe Illustrator 16.0.0, SVG Export Plug-In . SVG Version: 6.00 Build 0)  -->
<!DOCTYPE svg PUBLIC "-//W3C//DTD SVG 1.1//EN" "http://www.w3.org/Graphics/SVG/1.1/DTD/svg11.dtd">
<svg version="1.1" id="Layer_1" xmlns="http://www.w3.org/2000/svg" xmlns:xlink="http://www.w3.org/1999/xlink" x="0px" y="0px"
	 width="1603.939px" height="609.449px" viewBox="0 0 1603.939 609.449" enable-background="new 0 0 1603.939 609.449"
	 xml:space="preserve">
<g>
	<g id="Page-1">
		<g id="electron-logo">
			<g id="Group" transform="translate(0.000000, 213.000000)">
				<path id="Shape" fill="#3B6970" d="M431.631,170.648h51.738c1.471,0,2.717-1.248,2.717-2.719c0-1.473-1.246-2.717-2.717-2.717
					h-48.794V133.4h43.134c1.472,0,2.717-1.246,2.717-2.717c0-1.473-1.245-2.717-2.717-2.717h-43.134V96.834h48.229
					c1.471,0,2.717-1.246,2.717-2.717c0-1.474-1.246-2.718-2.717-2.718h-51.172c-1.585,0-2.943,1.358-2.943,2.942v73.361
					C428.688,169.289,430.045,170.648,431.631,170.648L431.631,170.648z M522.006,167.703c0,1.586,1.359,2.945,2.943,2.945h47.209
					c1.472,0,2.717-1.248,2.717-2.719c0-1.473-1.245-2.717-2.717-2.717h-44.265V93.889c0-1.584-1.359-2.943-2.944-2.943
					c-1.584,0-2.943,1.359-2.943,2.943V167.703z M612.495,170.648h51.738c1.472,0,2.717-1.248,2.717-2.719
					c0-1.473-1.245-2.717-2.717-2.717h-48.794V133.4h43.133c1.472,0,2.717-1.246,2.717-2.717c0-1.473-1.245-2.717-2.717-2.717
					h-43.133V96.834h48.228c1.472,0,2.717-1.246,2.717-2.717c0-1.474-1.245-2.718-2.717-2.718h-51.172
					c-1.585,0-2.943,1.358-2.943,2.942v73.361C609.551,169.289,610.91,170.648,612.495,170.648L612.495,170.648z M738.758,172.006
					c13.245,0,21.963-4.869,30.001-12.34c0.453-0.453,0.906-1.133,0.906-2.039c0-1.471-1.359-2.828-2.831-2.828
					c-0.905,0-1.584,0.451-2.038,0.904c-7.471,7.133-15.057,10.98-25.812,10.98c-18.906,0-33.511-15.621-33.511-35.66v-0.229
					c0-19.924,14.378-35.434,33.398-35.434c11.095,0,18.68,4.303,25.246,10.303c0.454,0.453,1.246,0.793,2.037,0.793
					c1.585,0,3.058-1.359,3.058-2.945c0-1.02-0.566-1.811-1.132-2.377c-7.699-6.566-15.963-11.094-29.096-11.094
					c-22.869,0-39.624,18.567-39.624,40.983v0.227C699.36,154.006,716.116,172.006,738.758,172.006L738.758,172.006z
					 M825.85,168.156c0,1.586,1.359,2.945,2.943,2.945c1.586,0,2.945-1.359,2.945-2.945V96.834h25.357
					c1.473,0,2.719-1.246,2.719-2.717c0-1.474-1.246-2.718-2.719-2.718h-56.605c-1.472,0-2.717,1.244-2.717,2.718
					c0,1.471,1.246,2.717,2.717,2.717h25.359V168.156z M894.715,168.156c0,1.586,1.359,2.945,2.943,2.945
					c1.586,0,2.943-1.359,2.943-2.945v-30.342h25.928l24.34,31.701c0.678,0.904,1.471,1.586,2.604,1.586
					c1.584,0,3.057-1.473,3.057-3.059c0-0.678-0.34-1.359-0.906-2.037l-22.529-29.211c13.359-1.809,23.209-9.395,23.209-22.641
					v-0.227c0-5.66-2.264-10.982-6-14.719c-4.756-4.754-12.566-7.81-22.305-7.81h-30.34c-1.584,0-2.943,1.358-2.943,2.942V168.156z
					 M900.602,132.494v-35.66h27.059c14.377,0,22.756,6.678,22.756,17.32v0.227c0,11.434-9.85,18.113-23.096,18.113H900.602z
					 M1030.262,172.006c24.002,0,39.965-19.359,39.965-40.982v-0.229c0-21.621-15.736-40.754-39.738-40.754
					c-24,0-39.963,19.36-39.963,40.983v0.227C990.525,152.873,1006.262,172.006,1030.262,172.006L1030.262,172.006z
					 M1030.488,166.684c-19.586,0-33.85-16.076-33.85-35.66v-0.229c0-19.586,14.037-35.434,33.623-35.434
					s33.852,16.076,33.852,35.662v0.227C1064.113,150.834,1050.074,166.684,1030.488,166.684L1030.488,166.684z M1107.732,168.27
					c0,1.586,1.244,2.832,2.83,2.832c1.584,0,2.83-1.246,2.83-2.832v-68.268l54.455,69.061c0.904,1.131,1.811,1.924,2.943,1.924
					h0.453c1.357,0,2.377-1.131,2.377-2.49V93.775c0-1.583-1.246-2.83-2.83-2.83s-2.83,1.246-2.83,2.83v66.797l-53.438-67.814
					c-0.791-1.02-1.697-1.7-2.943-1.7h-0.906c-1.584,0-2.941,1.359-2.941,2.944V168.27z"/>
			</g>
			<g id="Group_1_" transform="translate(319.000000, 0.000000)">
				<path id="Shape_1_" fill="#3B6970" d="M462.615,129.177c-18.713-3.409-33.508,0.159-39.404,10.373
					c-4.401,7.621-3.143,17.726,3.049,28.528c0.528,0.918,1.7,1.237,2.62,0.71c0.919-0.527,1.237-1.7,0.709-2.62
					c-5.578-9.73-6.664-18.45-3.056-24.7c4.898-8.484,18.095-11.667,35.394-8.516c1.042,0.189,2.042-0.501,2.232-1.544
					C464.349,130.367,463.658,129.368,462.615,129.177L462.615,129.177z M435.991,181.207c7.567,8.314,17.397,16.114,28.608,22.587
					c27.145,15.671,56.042,19.86,70.284,10.148c0.875-0.596,1.102-1.79,0.504-2.666c-0.598-0.876-1.791-1.101-2.666-0.505
					c-12.746,8.692-40.197,4.713-66.203-10.303c-10.876-6.279-20.394-13.831-27.687-21.844c-0.713-0.784-1.928-0.841-2.711-0.128
					C435.336,179.209,435.278,180.423,435.991,181.207L435.991,181.207z"/>
				<path id="Shape_2_" fill="#3B6970" d="M530.338,178.872c12.254-14.474,16.533-29.033,10.646-39.225
					c-4.328-7.5-13.482-11.459-25.648-11.617c-1.059-0.014-1.93,0.834-1.943,1.894c-0.014,1.06,0.834,1.93,1.893,1.944
					c10.941,0.142,18.828,3.553,22.377,9.699c4.889,8.465,1.072,21.448-10.252,34.826c-0.686,0.81-0.584,2.02,0.225,2.705
					C528.443,179.782,529.654,179.681,530.338,178.872L530.338,178.872z M498.85,129.816c-11.078,2.374-22.87,7.015-34.195,13.553
					c-28.021,16.179-46.3,40.034-43.762,57.331c0.155,1.049,1.129,1.774,2.177,1.621c1.049-0.153,1.774-1.129,1.621-2.177
					c-2.254-15.358,15.072-37.971,41.883-53.45c10.986-6.343,22.405-10.836,33.081-13.124c1.037-0.222,1.695-1.242,1.475-2.278
					C500.906,130.255,499.887,129.594,498.85,129.816L498.85,129.816z"/>
				<path id="Shape_3_" fill="#3B6970" d="M453.454,212.692c6.405,17.888,16.888,28.903,28.673,28.903
					c8.594,0,16.547-5.86,22.746-16.175c0.547-0.908,0.254-2.086-0.654-2.634c-0.908-0.545-2.088-0.252-2.633,0.655
					c-5.574,9.271-12.418,14.315-19.459,14.315c-9.791,0-19.139-9.824-25.06-26.358c-0.356-0.998-1.456-1.517-2.453-1.159
					C453.616,210.596,453.098,211.694,453.454,212.692L453.454,212.692z M511.971,209.194c3.316-10.599,5.098-22.824,5.098-35.564
					c0-31.789-11.127-59.193-26.975-66.23c-0.969-0.43-2.104,0.006-2.533,0.975s0.008,2.102,0.977,2.533
					c14.133,6.275,24.693,32.284,24.693,62.722c0,12.36-1.725,24.199-4.924,34.417c-0.316,1.012,0.248,2.088,1.26,2.405
					C510.576,210.768,511.654,210.204,511.971,209.194L511.971,209.194z"/>
				<path id="Shape_4_" fill="#3B6970" d="M548.109,207.313c0-5.072-4.111-9.184-9.184-9.184s-9.184,4.112-9.184,9.184
					s4.111,9.184,9.184,9.184S548.109,212.385,548.109,207.313L548.109,207.313z M544.271,207.313c0,2.952-2.393,5.345-5.346,5.345
					s-5.346-2.393-5.346-5.345c0-2.953,2.393-5.347,5.346-5.347S544.271,204.361,544.271,207.313L544.271,207.313z"/>
				<path id="Shape_5_" fill="#3B6970" d="M425.194,216.497c5.073,0,9.184-4.112,9.184-9.184s-4.111-9.184-9.184-9.184
					c-5.072,0-9.184,4.112-9.184,9.184S420.122,216.497,425.194,216.497L425.194,216.497z M425.194,212.659
					c-2.952,0-5.346-2.393-5.346-5.345c0-2.953,2.394-5.347,5.346-5.347c2.953,0,5.347,2.394,5.347,5.347
					C430.541,210.266,428.146,212.659,425.194,212.659L425.194,212.659z"/>
				<path id="Shape_6_" fill="#3B6970" d="M482.127,116.768c5.07,0,9.184-4.112,9.184-9.184c0-5.073-4.113-9.184-9.184-9.184
					c-5.073,0-9.185,4.111-9.185,9.184C472.942,112.656,477.054,116.768,482.127,116.768L482.127,116.768z M482.127,112.93
					c-2.954,0-5.347-2.394-5.347-5.346c0-2.954,2.393-5.347,5.347-5.347c2.951,0,5.346,2.393,5.346,5.347
					C487.473,110.536,485.078,112.93,482.127,112.93L482.127,112.93z"/>
				<path id="Shape_7_" fill="#3B6970" d="M483.529,180.124c-3.588,0.776-7.122-1.504-7.898-5.091
					c-0.774-3.587,1.504-7.121,5.092-7.898c3.587-0.775,7.121,1.505,7.896,5.091C489.396,175.814,487.115,179.348,483.529,180.124z"
					/>
			</g>
		</g>
	</g>
	<g opacity="0.8">
		<g>
			
				<line fill="none" stroke="#000000" stroke-width="7" stroke-miterlimit="10" x1="309.545" y1="431.529" x2="1292.764" y2="431.529"/>
			<g>
				<circle cx="310.545" cy="431.529" r="20.002"/>
			</g>
			<g>
				<circle cx="1291.764" cy="431.529" r="20.002"/>
			</g>
		</g>
	</g>
	<g>
		<path d="M284.121,500.268c-1.549-1.074-2.608-2.643-3.18-4.709c-0.57-2.064-0.855-4.795-0.855-8.193
			c0-3.369,0.285-6.092,0.855-8.172c0.571-2.078,1.61-3.654,3.119-4.729c1.508-1.072,3.675-1.609,6.501-1.609
			c2.202,0,4.742,0.299,7.623,0.896l-0.122,2.648c-2.745-0.488-5.109-0.732-7.093-0.732c-2.12,0-3.724,0.381-4.811,1.141
			c-1.087,0.762-1.828,1.984-2.221,3.668c-0.395,1.686-0.592,4.131-0.592,7.338c0,2.771,0.184,4.939,0.551,6.502
			c0.366,1.563,1.121,2.744,2.262,3.545c1.142,0.803,2.867,1.203,5.177,1.203c1.875,0,4.117-0.244,6.727-0.732l0.122,2.689
			c-2.8,0.57-5.272,0.855-7.419,0.855C287.885,501.877,285.67,501.342,284.121,500.268z"/>
		<path d="M302.627,481.088h3.017v2.773c2.337-1.604,4.823-2.678,7.46-3.221v3.098c-1.061,0.217-2.208,0.551-3.444,0.998
			c-1.237,0.449-2.222,0.863-2.955,1.244l-1.02,0.529v14.961h-3.058V481.088z"/>
		<path d="M317.363,499.453c-1.291-1.617-1.937-4.166-1.937-7.643c0-3.779,0.692-6.578,2.079-8.398c1.386-1.82,3.56-2.73,6.521-2.73
			c2.717,0,4.749,0.781,6.094,2.344c1.346,1.563,2.019,3.961,2.019,7.193l-0.164,2.324h-13.451c0,1.686,0.184,3.004,0.551,3.953
			c0.366,0.953,0.991,1.639,1.874,2.059c0.884,0.422,2.113,0.633,3.689,0.633c0.788,0,1.698-0.02,2.731-0.061
			c1.032-0.041,1.97-0.104,2.813-0.184l1.182-0.123l0.082,2.406c-3.017,0.434-5.518,0.65-7.5,0.65
			C320.848,501.877,318.653,501.07,317.363,499.453z M329.082,490.098c0-2.473-0.395-4.232-1.182-5.279
			c-0.789-1.045-2.079-1.568-3.873-1.568c-1.875,0-3.261,0.549-4.158,1.65c-0.896,1.1-1.358,2.832-1.385,5.197H329.082z"/>
		<path d="M337.071,500.289c-0.979-1.061-1.468-2.582-1.468-4.566c0-1.957,0.496-3.41,1.487-4.361
			c0.992-0.951,2.575-1.535,4.749-1.752l6.399-0.613v-1.752c0-2.582-1.114-3.873-3.342-3.873c-2.201,0-4.878,0.178-8.03,0.529
			l-0.122-2.322c2.907-0.598,5.557-0.896,7.948-0.896c2.31,0,3.988,0.523,5.034,1.568c1.046,1.047,1.569,2.711,1.569,4.994v10.436
			c0.082,1.006,0.87,1.604,2.364,1.793l-0.122,2.404c-2.147,0-3.764-0.543-4.851-1.629c-2.419,1.086-4.865,1.629-7.338,1.629
			C339.477,501.877,338.049,501.348,337.071,500.289z M347.303,498.373l0.937-0.326v-6.727l-6.032,0.57
			c-1.223,0.109-2.106,0.463-2.649,1.061c-0.544,0.598-0.815,1.467-0.815,2.607c0,2.502,1.032,3.752,3.098,3.752
			C343.66,499.311,345.481,498.998,347.303,498.373z"/>
		<path d="M360.57,501.246c-0.774-0.449-1.332-1.209-1.671-2.283c-0.341-1.072-0.51-2.574-0.51-4.504v-10.721h-2.895v-2.65h2.895
			v-6.236h3.017v6.236h6.481v2.65h-6.481v9.742c0,1.521,0.054,2.656,0.163,3.404c0.107,0.746,0.373,1.318,0.795,1.711
			c0.421,0.395,1.08,0.592,1.977,0.592l3.628-0.244l0.204,2.527c-1.931,0.299-3.384,0.447-4.362,0.447
			C362.425,501.918,361.345,501.693,360.57,501.246z"/>
		<path d="M372.677,499.453c-1.291-1.617-1.937-4.166-1.937-7.643c0-3.779,0.693-6.578,2.079-8.398s3.56-2.73,6.521-2.73
			c2.717,0,4.749,0.781,6.094,2.344c1.346,1.563,2.019,3.961,2.019,7.193l-0.163,2.324h-13.452c0,1.686,0.184,3.004,0.551,3.953
			c0.367,0.953,0.991,1.639,1.875,2.059c0.883,0.422,2.112,0.633,3.689,0.633c0.787,0,1.697-0.02,2.73-0.061
			c1.032-0.041,1.97-0.104,2.813-0.184l1.183-0.123l0.081,2.406c-3.017,0.434-5.517,0.65-7.5,0.65
			C376.162,501.877,373.967,501.07,372.677,499.453z M384.396,490.098c0-2.473-0.395-4.232-1.182-5.279
			c-0.789-1.045-2.079-1.568-3.873-1.568c-1.875,0-3.261,0.549-4.157,1.65c-0.897,1.1-1.359,2.832-1.386,5.197H384.396z"/>
		<path d="M426.563,473.262v28.209h-5.747l-10.966-25.436h-0.774v25.436h-3.139v-28.209h5.87l10.843,25.436h0.815v-25.436H426.563z"
			/>
		<path d="M433.126,500.289c-0.978-1.061-1.467-2.582-1.467-4.566c0-1.957,0.495-3.41,1.487-4.361s2.574-1.535,4.749-1.752
			l6.399-0.613v-1.752c0-2.582-1.114-3.873-3.343-3.873c-2.201,0-4.878,0.178-8.029,0.529l-0.123-2.322
			c2.908-0.598,5.558-0.896,7.949-0.896c2.31,0,3.987,0.523,5.034,1.568c1.046,1.047,1.569,2.711,1.569,4.994v10.436
			c0.082,1.006,0.869,1.604,2.364,1.793l-0.122,2.404c-2.147,0-3.765-0.543-4.852-1.629c-2.419,1.086-4.864,1.629-7.337,1.629
			C435.531,501.877,434.104,501.348,433.126,500.289z M443.357,498.373l0.938-0.326v-6.727l-6.032,0.57
			c-1.223,0.109-2.106,0.463-2.65,1.061c-0.543,0.598-0.814,1.467-0.814,2.607c0,2.502,1.032,3.752,3.098,3.752
			C439.716,499.311,441.537,498.998,443.357,498.373z"/>
		<path d="M456.625,501.246c-0.774-0.449-1.331-1.209-1.671-2.283c-0.34-1.072-0.51-2.574-0.51-4.504v-10.721h-2.894v-2.65h2.894
			v-6.236h3.017v6.236h6.481v2.65h-6.481v9.742c0,1.521,0.055,2.656,0.163,3.404c0.108,0.746,0.373,1.318,0.795,1.711
			c0.421,0.395,1.08,0.592,1.977,0.592l3.628-0.244l0.204,2.527c-1.93,0.299-3.384,0.447-4.361,0.447
			C458.48,501.918,457.399,501.693,456.625,501.246z"/>
		<path d="M467.692,472.938h3.017v3.545h-3.017V472.938z M467.692,481.088h3.017v20.383h-3.017V481.088z"/>
		<path d="M474.662,481.088h3.261l4.77,17.732h1.509l4.932-17.732h3.139l-5.747,20.383h-6.114L474.662,481.088z"/>
		<path d="M496.857,499.453c-1.291-1.617-1.937-4.166-1.937-7.643c0-3.779,0.693-6.578,2.079-8.398s3.56-2.73,6.521-2.73
			c2.717,0,4.749,0.781,6.094,2.344c1.346,1.563,2.019,3.961,2.019,7.193l-0.163,2.324h-13.452c0,1.686,0.184,3.004,0.551,3.953
			c0.367,0.953,0.991,1.639,1.875,2.059c0.883,0.422,2.112,0.633,3.689,0.633c0.787,0,1.697-0.02,2.73-0.061
			c1.032-0.041,1.97-0.104,2.813-0.184l1.183-0.123l0.081,2.406c-3.017,0.434-5.517,0.65-7.5,0.65
			C500.343,501.877,498.147,501.07,496.857,499.453z M508.576,490.098c0-2.473-0.395-4.232-1.182-5.279
			c-0.789-1.045-2.079-1.568-3.873-1.568c-1.875,0-3.261,0.549-4.157,1.65c-0.897,1.1-1.359,2.832-1.386,5.197H508.576z"/>
		<path d="M542.551,475.137c1.535,1.252,2.562,2.84,3.078,4.77c0.516,1.93,0.774,4.186,0.774,6.768c0,5.162-0.85,8.92-2.548,11.27
			c-1.699,2.352-4.328,3.527-7.888,3.527h-10.068v-28.209h10.068C538.821,473.262,541.016,473.889,542.551,475.137z
			 M543.183,486.959c0-3.805-0.584-6.576-1.753-8.316c-1.168-1.738-2.989-2.607-5.462-2.607h-6.93v22.662h6.93
			C540.778,498.697,543.183,494.785,543.183,486.959z"/>
		<path d="M552.7,499.453c-1.291-1.617-1.937-4.166-1.937-7.643c0-3.779,0.693-6.578,2.079-8.398c1.387-1.82,3.56-2.73,6.521-2.73
			c2.718,0,4.749,0.781,6.095,2.344c1.345,1.563,2.018,3.961,2.018,7.193l-0.163,2.324h-13.451c0,1.686,0.183,3.004,0.55,3.953
			c0.367,0.953,0.992,1.639,1.875,2.059c0.883,0.422,2.112,0.633,3.689,0.633c0.788,0,1.697-0.02,2.731-0.061
			c1.031-0.041,1.97-0.104,2.812-0.184l1.183-0.123l0.081,2.406c-3.016,0.434-5.517,0.65-7.5,0.65
			C556.186,501.877,553.991,501.07,552.7,499.453z M564.42,490.098c0-2.473-0.395-4.232-1.183-5.279
			c-0.788-1.045-2.079-1.568-3.873-1.568c-1.874,0-3.261,0.549-4.157,1.65c-0.896,1.1-1.359,2.832-1.386,5.197H564.42z"/>
		<path d="M572.653,501.307l-1.224-0.203l0.164-2.65c3.179,0.463,5.516,0.693,7.011,0.693c1.63,0,2.846-0.266,3.648-0.795
			c0.801-0.529,1.202-1.379,1.202-2.547c0-0.842-0.197-1.48-0.591-1.916c-0.395-0.436-0.897-0.748-1.509-0.938
			s-1.475-0.367-2.588-0.531l-1.02-0.162c-1.631-0.271-2.908-0.598-3.831-0.979c-0.925-0.381-1.617-0.918-2.079-1.609
			c-0.463-0.693-0.693-1.652-0.693-2.875c0-2.201,0.666-3.764,1.998-4.688c1.331-0.924,3.22-1.385,5.665-1.385
			c1.93,0,3.899,0.176,5.911,0.529l1.142,0.203l-0.082,2.609c-2.935-0.434-5.231-0.652-6.889-0.652
			c-1.576,0-2.752,0.244-3.525,0.734c-0.775,0.488-1.162,1.25-1.162,2.283c0,0.732,0.189,1.297,0.57,1.691
			c0.38,0.393,0.877,0.678,1.488,0.855c0.611,0.176,1.474,0.361,2.588,0.551l1.02,0.203c1.685,0.299,2.989,0.646,3.913,1.039
			c0.924,0.395,1.61,0.959,2.059,1.691c0.448,0.734,0.673,1.754,0.673,3.059c0,2.199-0.646,3.811-1.937,4.83
			c-1.291,1.02-3.269,1.527-5.931,1.527C577.015,501.877,575.018,501.688,572.653,501.307z"/>
		<path d="M591.2,472.203h3.057v17.283l3.18-0.164l5.829-8.234h3.465l-6.645,9.375l6.93,11.008h-3.465l-6.073-9.457l-3.221,0.121
			v9.336H591.2V472.203z"/>
		<path d="M613.965,501.246c-0.774-0.449-1.331-1.209-1.671-2.283c-0.34-1.072-0.51-2.574-0.51-4.504v-10.721h-2.894v-2.65h2.894
			v-6.236h3.017v6.236h6.481v2.65h-6.481v9.742c0,1.521,0.055,2.656,0.163,3.404c0.108,0.746,0.373,1.318,0.795,1.711
			c0.421,0.395,1.08,0.592,1.978,0.592l3.627-0.244l0.204,2.527c-1.93,0.299-3.383,0.447-4.361,0.447
			C615.82,501.918,614.739,501.693,613.965,501.246z"/>
		<path d="M627.682,500.797c-1.277-0.719-2.188-1.84-2.731-3.363c-0.543-1.521-0.814-3.531-0.814-6.031
			c0-2.582,0.285-4.654,0.855-6.217c0.571-1.563,1.495-2.705,2.772-3.424c1.276-0.719,2.976-1.08,5.095-1.08
			c2.146,0,3.852,0.365,5.116,1.1c1.264,0.734,2.18,1.875,2.751,3.424c0.57,1.551,0.856,3.615,0.856,6.197
			c0,2.5-0.272,4.51-0.815,6.031c-0.545,1.523-1.446,2.645-2.711,3.363c-1.264,0.721-2.996,1.08-5.197,1.08
			C630.684,501.877,628.958,501.518,627.682,500.797z M636.323,498.475c0.789-0.504,1.338-1.305,1.651-2.406
			c0.312-1.1,0.47-2.656,0.47-4.666c0-2.121-0.164-3.75-0.491-4.893c-0.326-1.141-0.882-1.955-1.671-2.445
			c-0.787-0.488-1.916-0.732-3.383-0.732c-1.468,0-2.603,0.244-3.403,0.732c-0.802,0.49-1.373,1.305-1.712,2.445
			c-0.34,1.143-0.511,2.771-0.511,4.893c0,1.984,0.156,3.531,0.47,4.646c0.312,1.115,0.869,1.922,1.671,2.426
			c0.801,0.502,1.964,0.754,3.485,0.754C634.395,499.229,635.536,498.977,636.323,498.475z"/>
		<path d="M646.555,481.088h3.016v1.469c1.061-0.625,2.086-1.094,3.078-1.406s2.045-0.469,3.159-0.469
			c2.527,0,4.368,0.836,5.523,2.506c1.155,1.672,1.732,4.328,1.732,7.969c0,2.584-0.299,4.654-0.897,6.217
			c-0.598,1.564-1.548,2.705-2.853,3.424c-1.305,0.721-3.057,1.08-5.258,1.08c-1.522,0-3.004-0.148-4.444-0.447v9.09h-3.057V481.088
			z M658.62,497.354c0.897-1.25,1.346-3.275,1.346-6.074c0-2.771-0.388-4.775-1.162-6.012s-1.95-1.855-3.525-1.855
			c-0.789,0-1.638,0.129-2.549,0.387c-0.91,0.26-1.69,0.537-2.343,0.836l-0.775,0.408v13.736c2.012,0.301,3.507,0.449,4.484,0.449
			C656.216,499.229,657.724,498.604,658.62,497.354z"/>
		<path d="M692.25,494.215h-12.066l-2.037,7.256h-3.098l7.744-28.209h6.848l7.746,28.209h-3.1L692.25,494.215z M680.877,491.402
			h10.68l-4.279-15.449h-2.121L680.877,491.402z"/>
		<path d="M701.299,481.088h3.016v1.469c1.061-0.625,2.086-1.094,3.078-1.406s2.045-0.469,3.16-0.469
			c2.525,0,4.367,0.836,5.523,2.506c1.154,1.672,1.732,4.328,1.732,7.969c0,2.584-0.301,4.654-0.898,6.217
			c-0.598,1.564-1.549,2.705-2.854,3.424c-1.303,0.721-3.057,1.08-5.258,1.08c-1.521,0-3.002-0.148-4.443-0.447v9.09h-3.057V481.088
			z M713.363,497.354c0.898-1.25,1.348-3.275,1.348-6.074c0-2.771-0.389-4.775-1.164-6.012c-0.773-1.236-1.949-1.855-3.525-1.855
			c-0.789,0-1.637,0.129-2.547,0.387c-0.91,0.26-1.691,0.537-2.344,0.836l-0.775,0.408v13.736c2.012,0.301,3.506,0.449,4.484,0.449
			C710.959,499.229,712.467,498.604,713.363,497.354z"/>
		<path d="M722.779,481.088h3.016v1.469c1.061-0.625,2.086-1.094,3.078-1.406s2.045-0.469,3.16-0.469
			c2.527,0,4.367,0.836,5.523,2.506c1.154,1.672,1.732,4.328,1.732,7.969c0,2.584-0.299,4.654-0.898,6.217
			c-0.598,1.564-1.547,2.705-2.852,3.424c-1.305,0.721-3.057,1.08-5.26,1.08c-1.521,0-3.002-0.148-4.443-0.447v9.09h-3.057V481.088z
			 M734.846,497.354c0.896-1.25,1.346-3.275,1.346-6.074c0-2.771-0.389-4.775-1.162-6.012c-0.775-1.236-1.951-1.855-3.525-1.855
			c-0.789,0-1.639,0.129-2.549,0.387c-0.91,0.26-1.691,0.537-2.344,0.836l-0.775,0.408v13.736c2.012,0.301,3.508,0.449,4.484,0.449
			C732.441,499.229,733.949,498.604,734.846,497.354z"/>
		<path d="M744.506,472.203h3.057v29.268h-3.057V472.203z"/>
		<path d="M753.678,472.938h3.016v3.545h-3.016V472.938z M753.678,481.088h3.016v20.383h-3.016V481.088z"/>
		<path d="M764.805,500.797c-1.195-0.719-2.053-1.848-2.568-3.383s-0.773-3.58-0.773-6.135c0-3.232,0.543-5.814,1.631-7.744
			c1.086-1.93,3.191-2.895,6.318-2.895c0.814,0,1.656,0.041,2.525,0.121c0.871,0.082,2.053,0.26,3.547,0.531l-0.121,2.486
			c-2.148-0.244-3.791-0.367-4.934-0.367c-1.549,0-2.736,0.238-3.566,0.713c-0.83,0.477-1.414,1.279-1.752,2.406
			c-0.342,1.127-0.51,2.738-0.51,4.83c0,1.984,0.162,3.525,0.488,4.627c0.326,1.1,0.918,1.902,1.773,2.404
			c0.855,0.504,2.1,0.754,3.73,0.754l4.811-0.367l0.121,2.527c-2.609,0.381-4.566,0.57-5.869,0.57
			C767.617,501.877,766,501.518,764.805,500.797z"/>
		<path d="M780.252,500.289c-0.977-1.061-1.467-2.582-1.467-4.566c0-1.957,0.496-3.41,1.488-4.361s2.574-1.535,4.748-1.752
			l6.4-0.613v-1.752c0-2.582-1.113-3.873-3.342-3.873c-2.201,0-4.879,0.178-8.031,0.529l-0.121-2.322
			c2.906-0.598,5.557-0.896,7.949-0.896c2.309,0,3.986,0.523,5.033,1.568c1.045,1.047,1.568,2.711,1.568,4.994v10.436
			c0.082,1.006,0.869,1.604,2.365,1.793l-0.123,2.404c-2.146,0-3.764-0.543-4.852-1.629c-2.418,1.086-4.863,1.629-7.336,1.629
			C782.658,501.877,781.23,501.348,780.252,500.289z M790.484,498.373l0.938-0.326v-6.727l-6.033,0.57
			c-1.223,0.109-2.105,0.463-2.648,1.061c-0.545,0.598-0.816,1.467-0.816,2.607c0,2.502,1.033,3.752,3.098,3.752
			C786.842,499.311,788.664,498.998,790.484,498.373z"/>
		<path d="M803.754,501.246c-0.775-0.449-1.332-1.209-1.672-2.283c-0.34-1.072-0.51-2.574-0.51-4.504v-10.721h-2.895v-2.65h2.895
			v-6.236h3.016v6.236h6.482v2.65h-6.482v9.742c0,1.521,0.055,2.656,0.164,3.404c0.107,0.746,0.373,1.318,0.795,1.711
			c0.42,0.395,1.08,0.592,1.977,0.592l3.629-0.244l0.203,2.527c-1.93,0.299-3.383,0.447-4.361,0.447
			C805.607,501.918,804.527,501.693,803.754,501.246z"/>
		<path d="M814.82,472.938h3.016v3.545h-3.016V472.938z M814.82,481.088h3.016v20.383h-3.016V481.088z"/>
		<path d="M826.109,500.797c-1.277-0.719-2.188-1.84-2.73-3.363c-0.543-1.521-0.814-3.531-0.814-6.031
			c0-2.582,0.285-4.654,0.855-6.217s1.494-2.705,2.771-3.424s2.977-1.08,5.096-1.08c2.146,0,3.852,0.365,5.115,1.1
			s2.182,1.875,2.752,3.424c0.57,1.551,0.855,3.615,0.855,6.197c0,2.5-0.271,4.51-0.814,6.031c-0.545,1.523-1.447,2.645-2.711,3.363
			c-1.264,0.721-2.996,1.08-5.197,1.08C829.113,501.877,827.387,501.518,826.109,500.797z M834.752,498.475
			c0.787-0.504,1.338-1.305,1.65-2.406c0.313-1.1,0.469-2.656,0.469-4.666c0-2.121-0.162-3.75-0.488-4.893
			c-0.326-1.141-0.885-1.955-1.672-2.445c-0.789-0.488-1.916-0.732-3.383-0.732s-2.604,0.244-3.404,0.732
			c-0.803,0.49-1.373,1.305-1.713,2.445c-0.338,1.143-0.508,2.771-0.508,4.893c0,1.984,0.154,3.531,0.469,4.646
			c0.311,1.115,0.869,1.922,1.672,2.426c0.799,0.502,1.961,0.754,3.484,0.754C832.822,499.229,833.963,498.977,834.752,498.475z"/>
		<path d="M844.984,481.088H848v1.428c1.223-0.68,2.344-1.154,3.363-1.428c1.018-0.271,2.084-0.406,3.199-0.406
			c1.738,0,3.084,0.326,4.035,0.979s1.625,1.691,2.018,3.117c0.395,1.428,0.592,3.404,0.592,5.932v10.762h-3.018v-10.68
			c0-1.93-0.115-3.41-0.346-4.443s-0.646-1.779-1.242-2.242c-0.6-0.461-1.469-0.693-2.609-0.693c-0.924,0-1.869,0.115-2.834,0.346
			c-0.965,0.232-1.746,0.496-2.342,0.797l-0.775,0.365v16.551h-3.057V481.088z"/>
		<path d="M878.59,499.738c-1.615-1.428-2.424-3.703-2.424-6.828v-19.648h3.139v19.73c0,4.076,2.201,6.113,6.604,6.113
			c2.309,0,4.035-0.488,5.176-1.467c1.143-0.979,1.713-2.527,1.713-4.646v-19.73h3.098v19.648c0,3.098-0.822,5.367-2.467,6.807
			c-1.645,1.441-4.123,2.16-7.439,2.16C882.674,501.877,880.207,501.164,878.59,499.738z"/>
		<path d="M902.295,501.307l-1.223-0.203l0.162-2.65c3.18,0.463,5.516,0.693,7.012,0.693c1.631,0,2.846-0.266,3.648-0.795
			c0.801-0.529,1.203-1.379,1.203-2.547c0-0.842-0.199-1.48-0.592-1.916c-0.395-0.436-0.896-0.748-1.508-0.938
			c-0.613-0.189-1.475-0.367-2.59-0.531l-1.018-0.162c-1.631-0.271-2.908-0.598-3.832-0.979c-0.926-0.381-1.617-0.918-2.078-1.609
			c-0.463-0.693-0.693-1.652-0.693-2.875c0-2.201,0.664-3.764,1.996-4.688s3.221-1.385,5.666-1.385c1.93,0,3.9,0.176,5.91,0.529
			l1.143,0.203l-0.082,2.609c-2.936-0.434-5.23-0.652-6.889-0.652c-1.576,0-2.752,0.244-3.525,0.734
			c-0.775,0.488-1.162,1.25-1.162,2.283c0,0.732,0.189,1.297,0.57,1.691c0.381,0.393,0.877,0.678,1.488,0.855
			c0.611,0.176,1.473,0.361,2.588,0.551l1.02,0.203c1.684,0.299,2.988,0.646,3.912,1.039c0.924,0.395,1.611,0.959,2.059,1.691
			c0.449,0.734,0.674,1.754,0.674,3.059c0,2.199-0.646,3.811-1.938,4.83s-3.268,1.527-5.93,1.527
			C906.656,501.877,904.658,501.688,902.295,501.307z"/>
		<path d="M920.842,472.938h3.016v3.545h-3.016V472.938z M920.842,481.088h3.016v20.383h-3.016V481.088z"/>
		<path d="M929.729,481.088h3.016v1.428c1.223-0.68,2.344-1.154,3.363-1.428c1.018-0.271,2.084-0.406,3.199-0.406
			c1.738,0,3.084,0.326,4.035,0.979s1.625,1.691,2.018,3.117c0.395,1.428,0.592,3.404,0.592,5.932v10.762h-3.018v-10.68
			c0-1.93-0.115-3.41-0.346-4.443s-0.646-1.779-1.242-2.242c-0.6-0.461-1.469-0.693-2.609-0.693c-0.924,0-1.869,0.115-2.834,0.346
			c-0.965,0.232-1.746,0.496-2.344,0.797l-0.773,0.365v16.551h-3.057V481.088z"/>
		<path d="M952.615,509.684c-1.264-0.91-1.896-2.426-1.896-4.545c0-0.871,0.102-1.582,0.307-2.141
			c0.203-0.557,0.521-1.053,0.957-1.486c0.436-0.436,1.088-0.992,1.957-1.672c-0.381-0.244-0.666-0.611-0.855-1.102
			c-0.191-0.488-0.285-1.004-0.285-1.549c0-0.352,0.08-0.74,0.244-1.16c0.162-0.422,0.543-1.162,1.141-2.223
			c-2.146-0.951-3.221-2.99-3.221-6.113c0-2.365,0.639-4.125,1.916-5.279c1.277-1.156,3.207-1.732,5.789-1.732
			c1.25,0,2.637,0.176,4.158,0.529l6.033-0.164v2.609l-3.873-0.08c0.461,0.461,0.801,1.025,1.018,1.691
			c0.219,0.666,0.328,1.514,0.328,2.547c0,2.418-0.627,4.145-1.875,5.178c-1.252,1.033-3.221,1.549-5.912,1.549
			c-0.842,0-1.535-0.055-2.078-0.164c-0.219,0.545-0.395,1.02-0.529,1.428c-0.137,0.406-0.205,0.76-0.205,1.059
			c0,0.707,0.279,1.17,0.836,1.387s1.42,0.326,2.588,0.326h1.59c1.795,0,3.24,0.137,4.342,0.408s1.949,0.822,2.547,1.65
			s0.898,2.031,0.898,3.607c0,2.363-0.734,4.09-2.201,5.176c-1.469,1.088-3.887,1.631-7.256,1.631
			C956.031,511.049,953.879,510.594,952.615,509.684z M964.09,507.564c0.896-0.611,1.346-1.666,1.346-3.158
			c0-0.871-0.15-1.529-0.449-1.979s-0.803-0.754-1.508-0.916c-0.707-0.164-1.727-0.246-3.059-0.246l-4.402-0.203
			c-0.896,0.652-1.502,1.223-1.813,1.711c-0.314,0.49-0.469,1.143-0.469,1.957c0,1.414,0.414,2.393,1.242,2.936
			s2.289,0.814,4.383,0.814C961.617,508.48,963.193,508.176,964.09,507.564z M962.215,491.076c0.705-0.68,1.059-1.836,1.059-3.465
			c0-1.604-0.354-2.744-1.059-3.426c-0.707-0.678-1.875-1.018-3.506-1.018c-1.686,0-2.889,0.346-3.607,1.039
			c-0.721,0.693-1.08,1.842-1.08,3.445s0.359,2.744,1.08,3.424c0.719,0.68,1.908,1.02,3.566,1.02S961.508,491.756,962.215,491.076z"
			/>
		<path d="M985.203,476.035v9.742h11.576v2.73h-11.576v10.189h14.021v2.773h-17.16v-28.209h17.16v2.773H985.203z"/>
		<path d="M1004.32,472.203h3.057v29.268h-3.057V472.203z"/>
		<path d="M1014.287,499.453c-1.291-1.617-1.936-4.166-1.936-7.643c0-3.779,0.691-6.578,2.078-8.398s3.559-2.73,6.521-2.73
			c2.717,0,4.75,0.781,6.096,2.344c1.344,1.563,2.018,3.961,2.018,7.193l-0.164,2.324h-13.451c0,1.686,0.184,3.004,0.549,3.953
			c0.367,0.953,0.992,1.639,1.877,2.059c0.881,0.422,2.111,0.633,3.688,0.633c0.789,0,1.699-0.02,2.732-0.061
			c1.031-0.041,1.969-0.104,2.813-0.184l1.182-0.123l0.082,2.406c-3.018,0.434-5.518,0.65-7.5,0.65
			C1017.771,501.877,1015.578,501.07,1014.287,499.453z M1026.006,490.098c0-2.473-0.393-4.232-1.182-5.279
			c-0.789-1.045-2.078-1.568-3.873-1.568c-1.875,0-3.26,0.549-4.156,1.65c-0.898,1.1-1.361,2.832-1.387,5.197H1026.006z"/>
		<path d="M1036.318,500.797c-1.195-0.719-2.053-1.848-2.568-3.383s-0.773-3.58-0.773-6.135c0-3.232,0.543-5.814,1.631-7.744
			c1.086-1.93,3.191-2.895,6.318-2.895c0.814,0,1.656,0.041,2.525,0.121c0.871,0.082,2.053,0.26,3.547,0.531l-0.121,2.486
			c-2.148-0.244-3.791-0.367-4.934-0.367c-1.549,0-2.736,0.238-3.566,0.713c-0.83,0.477-1.412,1.279-1.752,2.406
			c-0.342,1.127-0.51,2.738-0.51,4.83c0,1.984,0.162,3.525,0.488,4.627c0.326,1.1,0.918,1.902,1.773,2.404
			c0.855,0.504,2.1,0.754,3.73,0.754l4.811-0.367l0.121,2.527c-2.609,0.381-4.566,0.57-5.869,0.57
			C1039.131,501.877,1037.514,501.518,1036.318,500.797z"/>
		<path d="M1054.844,501.246c-0.773-0.449-1.332-1.209-1.67-2.283c-0.342-1.072-0.51-2.574-0.51-4.504v-10.721h-2.895v-2.65h2.895
			v-6.236h3.016v6.236h6.48v2.65h-6.48v9.742c0,1.521,0.055,2.656,0.164,3.404c0.107,0.746,0.373,1.318,0.795,1.711
			c0.42,0.395,1.08,0.592,1.977,0.592l3.627-0.244l0.205,2.527c-1.932,0.299-3.385,0.447-4.363,0.447
			C1056.699,501.918,1055.619,501.693,1054.844,501.246z"/>
		<path d="M1065.912,481.088h3.016v2.773c2.336-1.604,4.824-2.678,7.459-3.221v3.098c-1.059,0.217-2.207,0.551-3.443,0.998
			c-1.238,0.449-2.223,0.863-2.955,1.244l-1.02,0.529v14.961h-3.057V481.088z"/>
		<path d="M1082.256,500.797c-1.277-0.719-2.186-1.84-2.73-3.363c-0.543-1.521-0.814-3.531-0.814-6.031
			c0-2.582,0.285-4.654,0.855-6.217s1.494-2.705,2.771-3.424s2.977-1.08,5.096-1.08c2.146,0,3.852,0.365,5.115,1.1
			s2.182,1.875,2.752,3.424c0.57,1.551,0.857,3.615,0.857,6.197c0,2.5-0.273,4.51-0.816,6.031c-0.545,1.523-1.447,2.645-2.711,3.363
			c-1.264,0.721-2.996,1.08-5.197,1.08C1085.26,501.877,1083.533,501.518,1082.256,500.797z M1090.898,498.475
			c0.789-0.504,1.338-1.305,1.65-2.406c0.313-1.1,0.471-2.656,0.471-4.666c0-2.121-0.164-3.75-0.49-4.893
			c-0.326-1.141-0.883-1.955-1.672-2.445c-0.787-0.488-1.916-0.732-3.383-0.732s-2.602,0.244-3.404,0.732
			c-0.801,0.49-1.373,1.305-1.711,2.445c-0.34,1.143-0.51,2.771-0.51,4.893c0,1.984,0.156,3.531,0.469,4.646
			s0.869,1.922,1.672,2.426c0.801,0.502,1.963,0.754,3.484,0.754C1088.969,499.229,1090.111,498.977,1090.898,498.475z"/>
		<path d="M1101.131,481.088h3.016v1.428c1.223-0.68,2.344-1.154,3.363-1.428c1.018-0.271,2.084-0.406,3.199-0.406
			c1.74,0,3.084,0.326,4.035,0.979s1.625,1.691,2.018,3.117c0.395,1.428,0.592,3.404,0.592,5.932v10.762h-3.016v-10.68
			c0-1.93-0.117-3.41-0.348-4.443s-0.645-1.779-1.242-2.242c-0.6-0.461-1.469-0.693-2.609-0.693c-0.924,0-1.869,0.115-2.834,0.346
			c-0.963,0.232-1.746,0.496-2.342,0.797l-0.775,0.365v16.551h-3.057V481.088z"/>
		<path d="M1135.654,476.035v11.004h11.617v2.773h-11.617v11.658h-3.139v-28.209h16.875v2.773H1135.654z"/>
		<path d="M1152.57,481.088h3.016v2.773c2.338-1.604,4.824-2.678,7.461-3.221v3.098c-1.061,0.217-2.207,0.551-3.445,0.998
			c-1.236,0.449-2.221,0.863-2.955,1.244l-1.02,0.529v14.961h-3.057V481.088z"/>
		<path d="M1166.836,500.289c-0.977-1.061-1.467-2.582-1.467-4.566c0-1.957,0.496-3.41,1.488-4.361s2.574-1.535,4.748-1.752
			l6.4-0.613v-1.752c0-2.582-1.115-3.873-3.342-3.873c-2.201,0-4.879,0.178-8.031,0.529l-0.121-2.322
			c2.906-0.598,5.557-0.896,7.947-0.896c2.311,0,3.988,0.523,5.035,1.568c1.045,1.047,1.568,2.711,1.568,4.994v10.436
			c0.082,1.006,0.869,1.604,2.365,1.793l-0.123,2.404c-2.146,0-3.764-0.543-4.852-1.629c-2.418,1.086-4.863,1.629-7.336,1.629
			C1169.242,501.877,1167.814,501.348,1166.836,500.289z M1177.068,498.373l0.938-0.326v-6.727l-6.033,0.57
			c-1.223,0.109-2.105,0.463-2.648,1.061c-0.545,0.598-0.816,1.467-0.816,2.607c0,2.502,1.033,3.752,3.098,3.752
			C1173.426,499.311,1175.248,498.998,1177.068,498.373z"/>
		<path d="M1187.096,481.088h3.016v1.428c2.039-1.223,4.078-1.834,6.115-1.834c1.113,0,2.119,0.17,3.018,0.51
			c0.896,0.34,1.602,0.863,2.119,1.568c1.006-0.598,2.188-1.094,3.545-1.486c1.359-0.395,2.746-0.592,4.158-0.592
			c1.658,0,2.949,0.332,3.873,0.998s1.582,1.719,1.977,3.16c0.395,1.439,0.592,3.396,0.592,5.869v10.762h-3.059v-10.68
			c0-1.93-0.107-3.41-0.324-4.443c-0.219-1.033-0.619-1.779-1.203-2.242c-0.586-0.461-1.447-0.693-2.588-0.693
			c-0.926,0-1.863,0.115-2.813,0.346c-0.951,0.232-1.727,0.496-2.324,0.797l-0.773,0.365c0.352,0.871,0.529,2.854,0.529,5.951v10.6
			h-3.057v-10.518c0-2.01-0.109-3.539-0.328-4.586c-0.217-1.045-0.609-1.799-1.182-2.262c-0.57-0.461-1.426-0.693-2.566-0.693
			c-0.898,0-1.809,0.115-2.732,0.346c-0.924,0.232-1.672,0.496-2.242,0.797l-0.693,0.365v16.551h-3.057V481.088z"/>
		<path d="M1222.213,499.453c-1.291-1.617-1.936-4.166-1.936-7.643c0-3.779,0.693-6.578,2.078-8.398
			c1.387-1.82,3.561-2.73,6.521-2.73c2.717,0,4.75,0.781,6.096,2.344c1.344,1.563,2.018,3.961,2.018,7.193l-0.164,2.324h-13.451
			c0,1.686,0.184,3.004,0.549,3.953c0.369,0.953,0.994,1.639,1.877,2.059c0.883,0.422,2.111,0.633,3.689,0.633
			c0.787,0,1.697-0.02,2.73-0.061c1.031-0.041,1.969-0.104,2.813-0.184l1.182-0.123l0.082,2.406c-3.018,0.434-5.518,0.65-7.5,0.65
			C1225.697,501.877,1223.504,501.07,1222.213,499.453z M1233.932,490.098c0-2.473-0.393-4.232-1.182-5.279
			c-0.787-1.045-2.078-1.568-3.873-1.568c-1.875,0-3.26,0.549-4.156,1.65c-0.898,1.1-1.359,2.832-1.387,5.197H1233.932z"/>
		<path d="M1239.883,481.088h3.057l4.117,17.732h0.652l4.852-17.324h3.18l4.85,17.324h0.693l4.076-17.732h3.057l-4.85,20.383h-5.096
			l-4.322-15.939l-4.32,15.939h-5.096L1239.883,481.088z"/>
		<path d="M1275.061,500.797c-1.277-0.719-2.188-1.84-2.73-3.363c-0.543-1.521-0.814-3.531-0.814-6.031
			c0-2.582,0.285-4.654,0.855-6.217s1.494-2.705,2.771-3.424s2.977-1.08,5.096-1.08c2.146,0,3.852,0.365,5.115,1.1
			s2.182,1.875,2.752,3.424c0.57,1.551,0.855,3.615,0.855,6.197c0,2.5-0.271,4.51-0.814,6.031c-0.545,1.523-1.447,2.645-2.711,3.363
			c-1.264,0.721-2.996,1.08-5.197,1.08C1278.064,501.877,1276.338,501.518,1275.061,500.797z M1283.703,498.475
			c0.787-0.504,1.338-1.305,1.65-2.406c0.313-1.1,0.469-2.656,0.469-4.666c0-2.121-0.162-3.75-0.488-4.893
			c-0.328-1.141-0.885-1.955-1.672-2.445c-0.789-0.488-1.916-0.732-3.383-0.732c-1.469,0-2.604,0.244-3.404,0.732
			c-0.803,0.49-1.373,1.305-1.713,2.445c-0.34,1.143-0.508,2.771-0.508,4.893c0,1.984,0.154,3.531,0.469,4.646
			c0.311,1.115,0.869,1.922,1.672,2.426c0.799,0.502,1.961,0.754,3.484,0.754C1281.773,499.229,1282.914,498.977,1283.703,498.475z"
			/>
		<path d="M1293.936,481.088h3.016v2.773c2.336-1.604,4.824-2.678,7.459-3.221v3.098c-1.059,0.217-2.207,0.551-3.443,0.998
			c-1.238,0.449-2.223,0.863-2.955,1.244l-1.02,0.529v14.961h-3.057V481.088z"/>
		<path d="M1308.037,472.203h3.057v17.283l3.18-0.164l5.83-8.234h3.465l-6.645,9.375l6.93,11.008h-3.465l-6.074-9.457l-3.221,0.121
			v9.336h-3.057V472.203z"/>
	</g>
</g>
</svg>
