<?xml version="1.0" encoding="utf-8"?>
<!-- Generator: Adobe Illustrator 16.0.0, SVG Export Plug-In . SVG Version: 6.00 Build 0)  -->
<!DOCTYPE svg PUBLIC "-//W3C//DTD SVG 1.1//EN" "http://www.w3.org/Graphics/SVG/1.1/DTD/svg11.dtd">
<svg version="1.1" id="Layer_1" xmlns="http://www.w3.org/2000/svg" xmlns:xlink="http://www.w3.org/1999/xlink" x="0px" y="0px"
	 width="4450.971px" height="6106.121px" viewBox="0 0 4450.971 6106.121" enable-background="new 0 0 4450.971 6106.121"
	 xml:space="preserve">
<g>
	<g id="Page-1">
		<g id="electron-logo">
			<g id="Group" transform="translate(0.000000, 213.000000)">
				<path id="Shape" fill="#3A6970" d="M380.692,3309.841h263.581c7.495,0,13.84-6.357,13.84-13.85
					c0-7.502-6.345-13.842-13.84-13.842H395.688v-162.068h219.747c7.5,0,13.841-6.35,13.841-13.842
					c0-7.502-6.341-13.84-13.841-13.84H395.688v-158.607h245.702c7.495,0,13.841-6.35,13.841-13.842
					c0-7.508-6.346-13.844-13.841-13.844H380.692c-8.077,0-14.994,6.918-14.994,14.99v373.74
					C365.698,3302.917,372.615,3309.841,380.692,3309.841L380.692,3309.841z M841.11,3294.837c0,8.08,6.923,15.004,14.996,15.004
					h240.51c7.5,0,13.843-6.357,13.843-13.85c0-7.502-6.343-13.842-13.843-13.842h-225.51v-363.363c0-8.068-6.923-14.992-15-14.992
					c-8.072,0-14.996,6.924-14.996,14.992V3294.837z M1302.108,3309.841h263.58c7.5,0,13.841-6.357,13.841-13.85
					c0-7.502-6.341-13.842-13.841-13.842h-248.582v-162.068h219.744c7.5,0,13.841-6.35,13.841-13.842
					c0-7.502-6.341-13.84-13.841-13.84h-219.744v-158.607h245.699c7.5,0,13.841-6.35,13.841-13.842
					c0-7.508-6.341-13.844-13.841-13.844h-260.697c-8.075,0-14.995,6.918-14.995,14.99v373.74
					C1287.113,3302.917,1294.034,3309.841,1302.108,3309.841L1302.108,3309.841z M1945.363,3316.757
					c67.477,0,111.89-24.807,152.84-62.865c2.309-2.309,4.614-5.771,4.614-10.389c0-7.492-6.922-14.408-14.42-14.408
					c-4.611,0-8.072,2.299-10.383,4.607c-38.063,36.338-76.707,55.939-131.5,55.939c-96.316,0-170.722-79.582-170.722-181.67v-1.164
					c0-101.504,73.249-180.518,170.147-180.518c56.522,0,95.167,21.92,128.617,52.486c2.311,2.309,6.346,4.041,10.378,4.041
					c8.077,0,15.577-6.926,15.577-15.006c0-5.193-2.883-9.225-5.766-12.109c-39.222-33.453-81.326-56.52-148.231-56.52
					c-116.505,0-201.866,94.59-201.866,208.789v1.154C1744.648,3225.056,1830.009,3316.757,1945.363,3316.757L1945.363,3316.757z
					 M2389.052,3297.146c0,8.08,6.925,15.004,14.995,15.004c8.08,0,15.005-6.924,15.005-15.004v-363.354h129.185
					c7.502,0,13.851-6.35,13.851-13.842c0-7.508-6.349-13.844-13.851-13.844H2259.86c-7.498,0-13.844,6.336-13.844,13.844
					c0,7.492,6.346,13.842,13.844,13.842h129.191V3297.146z M2739.889,3297.146c0,8.08,6.924,15.004,14.994,15.004
					c8.08,0,14.995-6.924,14.995-15.004v-154.578h132.089l124,161.504c3.453,4.605,7.492,8.078,13.264,8.078
					c8.07,0,15.572-7.502,15.572-15.582c0-3.451-1.73-6.926-4.617-10.377l-114.775-148.816
					c68.059-9.215,118.238-47.861,118.238-115.344v-1.154c0-28.836-11.531-55.951-30.566-74.984
					c-24.229-24.219-64.02-39.785-113.633-39.785h-154.566c-8.07,0-14.994,6.918-14.994,14.99V3297.146z M2769.878,3115.464
					v-181.672h137.851c73.244,0,115.93,34.02,115.93,88.238v1.154c0,58.248-50.178,92.279-117.662,92.279H2769.878z
					 M3430.436,3316.757c122.279,0,203.602-98.627,203.602-208.785v-1.164c0-110.15-80.17-207.625-202.447-207.625
					c-122.27,0-203.592,98.629-203.592,208.789v1.154C3227.998,3219.285,3308.166,3316.757,3430.436,3316.757L3430.436,3316.757z
					 M3431.59,3289.642c-99.781,0-172.449-81.9-172.449-181.67v-1.164c0-99.783,71.514-180.518,171.295-180.518
					s172.457,81.9,172.457,181.682v1.154C3602.893,3208.898,3531.371,3289.642,3431.59,3289.642L3431.59,3289.642z
					 M3825.111,3297.722c0,8.08,6.34,14.428,14.418,14.428c8.07,0,14.418-6.348,14.418-14.428v-347.791l277.424,351.832
					c4.607,5.76,9.225,9.801,14.994,9.801h2.309c6.916,0,12.111-5.762,12.111-12.688V2918.21c0-8.068-6.35-14.416-14.42-14.416
					c-8.068,0-14.418,6.348-14.418,14.416v340.299l-272.238-345.484c-4.029-5.193-8.646-8.658-14.994-8.658h-4.617
					c-8.07,0-14.986,6.926-14.986,14.998V3297.722z"/>
			</g>
			<g id="Group_1_" transform="translate(319.000000, 0.000000)">
				<path id="Shape_1_" fill="#3A6970" d="M1639.77,1414.054c-252.22-45.942-451.637,2.148-531.106,139.814
					c-59.315,102.711-42.362,238.909,41.101,384.508c7.12,12.379,22.917,16.668,35.314,9.569
					c12.386-7.106,16.671-22.919,9.563-35.312c-75.179-131.142-89.815-248.674-41.186-332.911
					c66.017-114.355,243.888-157.245,477.047-114.776c14.039,2.556,27.516-6.751,30.084-20.813
					C1663.14,1430.087,1653.82,1416.623,1639.77,1414.054L1639.77,1414.054z M1280.92,2115.322
					c101.997,112.068,234.49,217.198,385.588,304.439c365.871,211.217,755.349,267.684,947.309,136.782
					c11.794-8.029,14.848-24.125,6.795-35.928c-8.057-11.806-24.142-14.832-35.934-6.81
					c-171.797,117.152-541.796,63.529-892.312-138.866c-146.59-84.626-274.873-186.411-373.175-294.425
					c-9.609-10.569-25.984-11.337-36.54-1.725C1272.089,2088.401,1271.313,2104.762,1280.92,2115.322L1280.92,2115.322z"/>
				<path id="Shape_2_" fill="#3A6970" d="M2552.559,2083.853c165.162-195.081,222.843-391.313,143.498-528.683
					c-58.336-101.088-181.721-154.454-345.699-156.58c-14.267-0.186-26.007,11.241-26.193,25.52
					c-0.184,14.29,11.242,26.02,25.511,26.203c147.47,1.912,253.771,47.886,301.605,130.729
					c65.891,114.098,14.452,289.089-138.182,469.398c-9.241,10.913-7.87,27.229,3.025,36.455
					C2527.024,2096.127,2543.346,2094.765,2552.559,2083.853L2552.559,2083.853z M2128.148,1422.662
					c-149.314,31.992-308.243,94.546-460.889,182.669c-377.684,218.069-624.045,539.595-589.844,772.73
					c2.087,14.135,15.223,23.91,29.346,21.842c14.136-2.066,23.909-15.22,21.845-29.345
					c-30.386-206.999,203.148-511.781,564.518-720.422c148.07-85.49,301.979-146.056,445.87-176.892
					c13.978-2.994,22.85-16.742,19.879-30.707C2155.871,1428.58,2142.128,1419.668,2128.148,1422.662L2128.148,1422.662z"/>
				<path id="Shape_3_" fill="#3A6970" d="M1516.293,2539.694c86.333,241.098,227.618,389.571,386.463,389.571
					c115.83,0,223.025-78.982,306.581-218.01c7.368-12.241,3.421-28.123-8.82-35.499c-12.242-7.353-28.142-3.402-35.484,8.831
					c-75.132,124.958-167.374,192.944-262.276,192.944c-131.961,0-257.959-132.409-337.769-355.27
					c-4.804-13.452-19.618-20.447-33.064-15.618C1518.471,2511.45,1511.487,2526.25,1516.293,2539.694L1516.293,2539.694z
					 M2304.999,2492.549c44.702-142.854,68.709-307.627,68.709-479.35c0-428.467-149.973-797.833-363.575-892.675
					c-13.053-5.791-28.351,0.085-34.141,13.142c-5.793,13.058,0.105,28.335,13.161,34.141
					c190.487,84.579,332.825,435.13,332.825,845.393c0,166.596-23.242,326.166-66.363,463.883
					c-4.264,13.645,3.343,28.147,16.979,32.412C2286.205,2513.757,2300.735,2506.156,2304.999,2492.549L2304.999,2492.549z"/>
				<path id="Shape_4_" fill="#3A6970" d="M2792.089,2467.202c0-68.357-55.412-123.783-123.777-123.783
					c-68.369,0-123.78,55.426-123.78,123.783c0,68.362,55.411,123.78,123.78,123.78
					C2736.677,2590.982,2792.089,2535.564,2792.089,2467.202L2792.089,2467.202z M2740.364,2467.202
					c0,39.792-32.25,72.047-72.053,72.047c-39.804,0-72.053-32.255-72.053-72.047c0-39.796,32.249-72.064,72.053-72.064
					C2708.114,2395.138,2740.364,2427.406,2740.364,2467.202L2740.364,2467.202z"/>
				<path id="Shape_5_" fill="#3A6970" d="M1135.391,2590.982c68.371,0,123.787-55.418,123.787-123.78
					c0-68.357-55.416-123.783-123.787-123.783c-68.366,0-123.78,55.426-123.78,123.783
					C1011.611,2535.564,1067.025,2590.982,1135.391,2590.982L1135.391,2590.982z M1135.391,2539.249
					c-39.784,0-72.051-32.255-72.051-72.047c0-39.796,32.267-72.064,72.051-72.064c39.796,0,72.064,32.269,72.064,72.064
					C1207.456,2506.994,1175.187,2539.249,1135.391,2539.249L1135.391,2539.249z"/>
				<path id="Shape_6_" fill="#3A6970" d="M1902.756,1246.794c68.338,0,123.777-55.42,123.777-123.78
					c0-68.373-55.439-123.785-123.777-123.785c-68.38,0-123.794,55.412-123.794,123.785
					C1778.962,1191.374,1834.376,1246.794,1902.756,1246.794L1902.756,1246.794z M1902.756,1195.066
					c-39.816,0-72.072-32.262-72.072-72.053c0-39.812,32.255-72.065,72.072-72.065c39.778,0,72.053,32.254,72.053,72.065
					C1974.809,1162.805,1942.534,1195.066,1902.756,1195.066L1902.756,1195.066z"/>
				<path id="Shape_7_" fill="#3A6970" d="M1921.658,2100.734c-48.359,10.458-95.994-20.271-106.453-68.623
					c-10.432-48.351,20.276-95.98,68.629-106.449c48.354-10.448,95.974,20.282,106.424,68.62
					C2000.738,2042.649,1969.987,2090.271,1921.658,2100.734z"/>
			</g>
		</g>
	</g>
	<g opacity="0.8">
		<g>
			
				<line fill="none" stroke="#231F20" stroke-width="43" stroke-miterlimit="10" x1="606.943" y1="3916.628" x2="3835.722" y2="3916.628"/>
			<g>
				<path fill="#231F20" d="M613.086,4039.498c-67.849,0-122.869-55.02-122.869-122.869s55.02-122.869,122.869-122.869
					s122.869,55.02,122.869,122.869S680.936,4039.498,613.086,4039.498z"/>
			</g>
			<g>
				<path fill="#231F20" d="M3829.578,4039.498c67.85,0,122.869-55.02,122.869-122.869s-55.02-122.869-122.869-122.869
					s-122.869,55.02-122.869,122.869S3761.729,4039.498,3829.578,4039.498z"/>
			</g>
		</g>
	</g>
	<g>
		<g>
			<path fill="#231F20" d="M280.412,4458.88c-10.514-7.291-17.708-17.939-21.585-31.969c-3.871-14.014-5.808-32.549-5.808-55.619
				c0-22.871,1.937-41.355,5.808-55.475c3.878-14.107,10.932-24.809,21.174-32.1c10.236-7.279,24.947-10.926,44.131-10.926
				c14.949,0,32.192,2.027,51.749,6.086l-0.829,17.979c-18.634-3.313-34.684-4.971-48.148-4.971
				c-14.392,0-25.279,2.584-32.657,7.742c-7.378,5.172-12.41,13.471-15.075,24.9c-2.678,11.441-4.017,28.041-4.017,49.813
				c0,18.814,1.247,33.531,3.738,44.139c2.487,10.607,7.611,18.627,15.354,24.064c7.749,5.449,19.464,8.168,35.142,8.168
				c12.729,0,27.95-1.658,45.663-4.973l0.829,18.258c-19.006,3.871-35.792,5.807-50.363,5.807
				C305.961,4469.804,290.926,4466.171,280.412,4458.88z"/>
			<path fill="#231F20" d="M406.038,4328.677h20.478v18.828c15.864-10.885,32.743-18.178,50.642-21.863v21.029
				c-7.199,1.471-14.99,3.738-23.382,6.775c-8.399,3.049-15.082,5.859-20.06,8.445l-6.921,3.592v101.564h-20.757V4328.677z"/>
			<path fill="#231F20" d="M506.075,4453.351c-8.764-10.979-13.145-28.281-13.145-51.883c0-25.656,4.7-44.654,14.113-57.012
				c9.407-12.355,24.165-18.535,44.272-18.535c18.442,0,32.238,5.303,41.366,15.91c9.136,10.607,13.704,26.889,13.704,48.832
				l-1.114,15.779h-91.313c0,11.441,1.247,20.391,3.738,26.834c2.487,6.471,6.729,11.125,12.723,13.977
				c5.999,2.861,14.346,4.295,25.046,4.295c5.35,0,11.528-0.135,18.542-0.412c7.007-0.279,13.372-0.701,19.093-1.246l8.021-0.836
				l0.557,16.336c-20.478,2.943-37.456,4.414-50.914,4.414C529.729,4469.804,514.833,4464.328,506.075,4453.351z M585.628,4389.841
				c0-16.785-2.678-28.732-8.021-35.838c-5.357-7.094-14.114-10.646-26.292-10.646c-12.729,0-22.136,3.725-28.229,11.203
				c-6.086,7.465-9.221,19.225-9.4,35.281H585.628z"/>
			<path fill="#231F20" d="M639.863,4459.025c-6.643-7.199-9.964-17.527-9.964-30.998c0-13.285,3.368-23.15,10.097-29.607
				c6.735-6.457,17.481-10.422,32.239-11.893l43.442-4.164v-11.893c0-17.527-7.563-26.293-22.685-26.293
				c-14.942,0-33.113,1.207-54.514,3.594l-0.828-15.764c19.735-4.059,37.721-6.086,53.956-6.086
				c15.678,0,27.074,3.553,34.174,10.646c7.101,7.107,10.654,18.404,10.654,33.902v70.842c0.557,6.828,5.906,10.885,16.05,12.172
				l-0.829,16.32c-14.579,0-25.55-3.686-32.928-11.057c-16.421,7.371-33.028,11.057-49.814,11.057
				C656.191,4469.804,646.499,4466.21,639.863,4459.025z M709.32,4446.019l6.356-2.215v-45.662l-40.95,3.871
				c-8.3,0.742-14.298,3.143-17.985,7.197c-3.693,4.059-5.536,9.959-5.536,17.701c0,16.986,7.007,25.471,21.028,25.471
				C684.592,4452.382,696.955,4450.261,709.32,4446.019z"/>
			<path fill="#231F20" d="M799.386,4465.523c-5.257-3.051-9.042-8.207-11.343-15.5c-2.314-7.279-3.46-17.475-3.46-30.574v-72.777
				h-19.651v-17.994h19.651v-42.334h20.478v42.334h43.999v17.994h-43.999v66.135c0,10.328,0.364,18.031,1.107,23.109
				c0.729,5.064,2.532,8.951,5.396,11.615c2.856,2.678,7.332,4.018,13.418,4.018l24.628-1.658l1.386,17.158
				c-13.106,2.027-22.972,3.035-29.613,3.035C811.976,4470.083,804.643,4468.558,799.386,4465.523z"/>
			<path fill="#231F20" d="M881.571,4453.351c-8.764-10.979-13.147-28.281-13.147-51.883c0-25.656,4.707-44.654,14.115-57.012
				c9.407-12.355,24.163-18.535,44.271-18.535c18.443,0,32.238,5.303,41.367,15.91c9.135,10.607,13.704,26.889,13.704,48.832
				l-1.107,15.779h-91.321c0,11.441,1.247,20.391,3.739,26.834c2.494,6.471,6.729,11.125,12.729,13.977
				c5.993,2.861,14.339,4.295,25.046,4.295c5.343,0,11.521-0.135,18.537-0.412c7.006-0.279,13.371-0.701,19.092-1.246l8.027-0.836
				l0.551,16.336c-20.479,2.943-37.45,4.414-50.914,4.414C905.23,4469.804,890.328,4464.328,881.571,4453.351z M961.123,4389.841
				c0-16.785-2.678-28.732-8.021-35.838c-5.357-7.094-14.115-10.646-26.292-10.646c-12.729,0-22.136,3.725-28.221,11.203
				c-6.093,7.465-9.229,19.225-9.408,35.281H961.123z"/>
			<path fill="#231F20" d="M1247.38,4275.55v191.498h-39.014l-74.442-172.67h-5.256v172.67h-21.307V4275.55h39.849l73.605,172.67
				h5.536v-172.67H1247.38z"/>
			<path fill="#231F20" d="M1291.929,4459.025c-6.635-7.199-9.957-17.527-9.957-30.998c0-13.285,3.361-23.15,10.097-29.607
				c6.735-6.457,17.475-10.422,32.239-11.893l43.443-4.164v-11.893c0-17.527-7.565-26.293-22.693-26.293
				c-14.944,0-33.115,1.207-54.506,3.594l-0.835-15.764c19.742-4.059,37.728-6.086,53.962-6.086
				c15.679,0,27.068,3.553,34.176,10.646c7.1,7.107,10.652,18.404,10.652,33.902v70.842c0.557,6.828,5.901,10.885,16.05,12.172
				l-0.828,16.32c-14.579,0-25.557-3.686-32.936-11.057c-16.42,7.371-33.021,11.057-49.806,11.057
				C1308.257,4469.804,1298.572,4466.21,1291.929,4459.025z M1361.386,4446.019l6.364-2.215v-45.662l-40.95,3.871
				c-8.301,0.742-14.301,3.143-17.993,7.197c-3.685,4.059-5.529,9.959-5.529,17.701c0,16.986,7.008,25.471,21.029,25.471
				C1336.664,4452.382,1349.027,4450.261,1361.386,4446.019z"/>
			<path fill="#231F20" d="M1451.452,4465.523c-5.257-3.051-9.036-8.207-11.343-15.5c-2.307-7.279-3.46-17.475-3.46-30.574v-72.777
				h-19.643v-17.994h19.643v-42.334h20.478v42.334h43.999v17.994h-43.999v66.135c0,10.328,0.371,18.031,1.107,23.109
				c0.735,5.064,2.532,8.951,5.396,11.615c2.857,2.678,7.331,4.018,13.417,4.018l24.628-1.658l1.386,17.158
				c-13.1,2.027-22.971,3.035-29.608,3.035C1464.047,4470.083,1456.709,4468.558,1451.452,4465.523z"/>
			<path fill="#231F20" d="M1526.583,4273.351h20.478v24.064h-20.478V4273.351z M1526.583,4328.677h20.478v138.371h-20.478V4328.677
				z"/>
			<path fill="#231F20" d="M1573.897,4328.677h22.135l32.378,120.377h10.243l33.478-120.377h21.307l-39.013,138.371h-41.506
				L1573.897,4328.677z"/>
			<path fill="#231F20" d="M1724.569,4453.351c-8.764-10.979-13.146-28.281-13.146-51.883c0-25.656,4.707-44.654,14.114-57.012
				c9.407-12.355,24.165-18.535,44.271-18.535c18.444,0,32.239,5.303,41.368,15.91c9.136,10.607,13.704,26.889,13.704,48.832
				l-1.107,15.779h-91.319c0,11.441,1.247,20.391,3.738,26.834c2.492,6.471,6.729,11.125,12.728,13.977
				c5.994,2.861,14.34,4.295,25.045,4.295c5.344,0,11.523-0.135,18.537-0.412c7.007-0.279,13.372-0.701,19.092-1.246l8.028-0.836
				l0.55,16.336c-20.477,2.943-37.449,4.414-50.914,4.414C1748.23,4469.804,1733.326,4464.328,1724.569,4453.351z
				 M1804.122,4389.841c0-16.785-2.679-28.732-8.021-35.838c-5.357-7.094-14.115-10.646-26.293-10.646
				c-12.728,0-22.135,3.725-28.221,11.203c-6.093,7.465-9.229,19.225-9.407,35.281H1804.122z"/>
			<path fill="#231F20" d="M2034.757,4288.279c10.422,8.5,17.389,19.279,20.896,32.379c3.5,13.1,5.257,28.412,5.257,45.941
				c0,35.043-5.768,60.553-17.295,76.502c-11.536,15.965-29.381,23.947-53.546,23.947h-68.35V4275.55h68.35
				C2009.44,4275.55,2024.337,4279.808,2034.757,4288.279z M2039.046,4368.535c0-25.828-3.963-44.643-11.899-56.455
				c-7.928-11.801-20.293-17.701-37.078-17.701h-47.042v153.842h47.042C2022.726,4448.22,2039.046,4421.662,2039.046,4368.535z"/>
			<path fill="#231F20" d="M2103.657,4453.351c-8.764-10.979-13.146-28.281-13.146-51.883c0-25.656,4.707-44.654,14.115-57.012
				c9.414-12.355,24.164-18.535,44.271-18.535c18.449,0,32.239,5.303,41.374,15.91c9.128,10.607,13.696,26.889,13.696,48.832
				l-1.106,15.779h-91.313c0,11.441,1.239,20.391,3.732,26.834c2.492,6.471,6.735,11.125,12.728,13.977
				c5.992,2.861,14.339,4.295,25.046,4.295c5.349,0,11.521-0.135,18.543-0.412c7-0.279,13.371-0.701,19.086-1.246l8.027-0.836
				l0.55,16.336c-20.472,2.943-37.449,4.414-50.914,4.414C2127.317,4469.804,2112.421,4464.328,2103.657,4453.351z
				 M2183.217,4389.841c0-16.785-2.679-28.732-8.029-35.838c-5.351-7.094-14.115-10.646-26.292-10.646
				c-12.723,0-22.136,3.725-28.222,11.203c-6.085,7.465-9.228,19.225-9.407,35.281H2183.217z"/>
			<path fill="#231F20" d="M2239.108,4465.933l-8.306-1.379l1.113-17.992c21.578,3.143,37.443,4.707,47.592,4.707
				c11.064,0,19.318-1.803,24.767-5.396c5.438-3.594,8.162-9.361,8.162-17.289c0-5.715-1.339-10.051-4.012-13.006
				c-2.677-2.957-6.092-5.078-10.241-6.367c-4.151-1.285-10.011-2.49-17.568-3.604l-6.922-1.102
				c-11.069-1.842-19.741-4.057-26.007-6.643c-6.277-2.586-10.978-6.232-14.113-10.926c-3.142-4.707-4.707-11.215-4.707-19.516
				c0-14.943,4.521-25.551,13.564-31.822c9.034-6.271,21.856-9.4,38.456-9.4c13.101,0,26.471,1.193,40.128,3.594l7.75,1.379
				l-0.557,17.713c-19.921-2.943-35.515-4.428-46.764-4.428c-10.701,0-18.683,1.656-23.932,4.984c-5.264,3.316-7.89,8.486-7.89,15.5
				c0,4.973,1.285,8.805,3.871,11.482c2.579,2.664,5.953,4.6,10.104,5.807c4.149,1.193,10.003,2.453,17.567,3.738l6.921,1.381
				c11.436,2.027,20.292,4.389,26.563,7.053c6.271,2.68,10.932,6.51,13.976,11.482c3.042,4.984,4.567,11.906,4.567,20.764
				c0,14.928-4.39,25.867-13.147,32.789c-8.763,6.922-22.188,10.367-40.26,10.367
				C2268.716,4469.804,2255.158,4468.519,2239.108,4465.933z"/>
			<path fill="#231F20" d="M2365.013,4268.365h20.751v117.328l21.585-1.115l39.57-55.9h23.522l-45.106,63.643l47.043,74.729h-23.522
				l-41.229-64.201l-21.863,0.822v63.379h-20.751V4268.365z"/>
			<path fill="#231F20" d="M2519.552,4465.523c-5.258-3.051-9.036-8.207-11.344-15.5c-2.306-7.279-3.46-17.475-3.46-30.574v-72.777
				h-19.643v-17.994h19.643v-42.334h20.479v42.334h44v17.994h-44v66.135c0,10.328,0.37,18.031,1.106,23.109
				c0.735,5.064,2.533,8.951,5.396,11.615c2.858,2.678,7.332,4.018,13.424,4.018l24.623-1.658l1.385,17.158
				c-13.1,2.027-22.965,3.035-29.606,3.035C2532.147,4470.083,2524.809,4468.558,2519.552,4465.523z"/>
			<path fill="#231F20" d="M2612.668,4462.472c-8.672-4.879-14.851-12.49-18.542-22.83c-3.687-10.33-5.529-23.973-5.529-40.943
				c0-17.529,1.936-31.598,5.807-42.203c3.879-10.607,10.149-18.363,18.821-23.242c8.664-4.881,20.2-7.332,34.585-7.332
				c14.565,0,26.147,2.479,34.731,7.465c8.579,4.984,14.797,12.727,18.676,23.242c3.871,10.527,5.813,24.541,5.813,42.07
				c0,16.971-1.85,30.613-5.535,40.943c-3.699,10.34-9.819,17.951-18.403,22.83c-8.578,4.893-20.339,7.332-35.282,7.332
				C2633.047,4469.804,2621.332,4467.365,2612.668,4462.472z M2671.331,4446.708c5.357-3.42,9.082-8.857,11.21-16.336
				c2.114-7.465,3.189-18.031,3.189-31.674c0-14.398-1.114-25.457-3.335-33.215c-2.214-7.744-5.986-13.271-11.344-16.6
				c-5.343-3.313-13.006-4.971-22.963-4.971c-9.964,0-17.668,1.658-23.104,4.971c-5.443,3.328-9.322,8.855-11.621,16.6
				c-2.308,7.758-3.468,18.816-3.468,33.215c0,13.471,1.061,23.971,3.189,31.543c2.114,7.568,5.899,13.047,11.343,16.467
				c5.436,3.406,13.332,5.117,23.66,5.117C2658.237,4451.826,2665.987,4450.115,2671.331,4446.708z"/>
			<path fill="#231F20" d="M2740.787,4328.677h20.472v9.971c7.199-4.242,14.161-7.424,20.896-9.545s13.882-3.182,21.444-3.182
				c17.157,0,29.653,5.674,37.497,17.01c7.842,11.352,11.761,29.381,11.761,54.098c0,17.539-2.029,31.596-6.093,42.199
				c-4.058,10.621-10.508,18.365-19.364,23.244c-8.856,4.893-20.75,7.332-35.692,7.332c-10.336,0-20.393-1.006-30.17-3.037v61.709
				h-20.751V4328.677z M2822.693,4439.097c6.093-8.484,9.135-22.234,9.135-41.234c0-18.814-2.631-32.418-7.89-40.811
				c-5.257-8.393-13.237-12.596-23.932-12.596c-5.355,0-11.116,0.875-17.303,2.625c-6.179,1.764-11.475,3.646-15.903,5.676
				l-5.263,2.771v93.248c13.655,2.041,23.805,3.049,30.441,3.049C2806.372,4451.826,2816.607,4447.583,2822.693,4439.097z"/>
			<path fill="#231F20" d="M3050.989,4417.791h-81.913l-13.828,49.258h-21.028l52.57-191.498h46.486l52.583,191.498h-21.042
				L3050.989,4417.791z M2973.783,4398.699h72.499l-29.05-104.877h-14.399L2973.783,4398.699z"/>
			<path fill="#231F20" d="M3112.417,4328.677h20.472v9.971c7.198-4.242,14.16-7.424,20.896-9.545
				c6.736-2.121,13.883-3.182,21.453-3.182c17.144,0,29.646,5.674,37.495,17.01c7.836,11.352,11.761,29.381,11.761,54.098
				c0,17.539-2.041,31.596-6.099,42.199c-4.058,10.621-10.515,18.365-19.371,23.244c-8.844,4.893-20.75,7.332-35.692,7.332
				c-10.33,0-20.38-1.006-30.164-3.037v61.709h-20.75V4328.677z M3194.315,4439.097c6.101-8.484,9.149-22.234,9.149-41.234
				c0-18.814-2.638-32.418-7.903-40.811c-5.25-8.393-13.23-12.596-23.932-12.596c-5.355,0-11.109,0.875-17.288,2.625
				c-6.179,1.764-11.482,3.646-15.911,5.676l-5.264,2.771v93.248c13.656,2.041,23.799,3.049,30.442,3.049
				C3177.995,4451.826,3188.23,4447.583,3194.315,4439.097z"/>
			<path fill="#231F20" d="M3258.236,4328.677h20.472v9.971c7.2-4.242,14.161-7.424,20.896-9.545s13.882-3.182,21.452-3.182
				c17.156,0,29.647,5.674,37.497,17.01c7.834,11.352,11.759,29.381,11.759,54.098c0,17.539-2.028,31.596-6.099,42.199
				c-4.057,10.621-10.5,18.365-19.357,23.244c-8.857,4.893-20.751,7.332-35.706,7.332c-10.328,0-20.378-1.006-30.163-3.037v61.709
				h-20.751V4328.677z M3340.149,4439.097c6.086-8.484,9.135-22.234,9.135-41.234c0-18.814-2.638-32.418-7.889-40.811
				c-5.264-8.393-13.245-12.596-23.933-12.596c-5.356,0-11.123,0.875-17.302,2.625c-6.179,1.764-11.482,3.646-15.91,5.676
				l-5.264,2.771v93.248c13.656,2.041,23.813,3.049,30.441,3.049C3323.827,4451.826,3334.063,4447.583,3340.149,4439.097z"/>
			<path fill="#231F20" d="M3405.728,4268.365h20.75v198.684h-20.75V4268.365z"/>
			<path fill="#231F20" d="M3467.99,4273.351h20.472v24.064h-20.472V4273.351z M3467.99,4328.677h20.472v138.371h-20.472V4328.677z"
				/>
			<path fill="#231F20" d="M3543.525,4462.472c-8.114-4.879-13.936-12.541-17.435-22.963c-3.5-10.422-5.252-24.305-5.252-41.646
				c0-21.943,3.687-39.471,11.072-52.572c7.372-13.098,21.664-19.648,42.892-19.648c5.529,0,11.243,0.279,17.145,0.822
				c5.913,0.557,13.934,1.764,24.077,3.605l-0.822,16.879c-14.585-1.658-25.735-2.492-33.49-2.492
				c-10.515,0-18.576,1.617-24.212,4.84c-5.635,3.234-9.599,8.684-11.893,16.334c-2.32,7.65-3.461,18.59-3.461,32.789
				c0,13.471,1.101,23.932,3.315,31.41c2.213,7.465,6.231,12.914,12.038,16.322c5.808,3.42,14.254,5.117,25.325,5.117l32.655-2.492
				l0.822,17.156c-17.714,2.586-30.999,3.871-39.842,3.871C3562.619,4469.804,3551.641,4467.365,3543.525,4462.472z"/>
			<path fill="#231F20" d="M3648.389,4459.025c-6.629-7.199-9.957-17.527-9.957-30.998c0-13.285,3.367-23.15,10.103-29.607
				s17.475-10.422,32.232-11.893l43.448-4.164v-11.893c0-17.527-7.556-26.293-22.685-26.293c-14.942,0-33.12,1.207-54.52,3.594
				l-0.822-15.764c19.729-4.059,37.721-6.086,53.964-6.086c15.671,0,27.06,3.553,34.167,10.646
				c7.094,7.107,10.646,18.404,10.646,33.902v70.842c0.557,6.828,5.9,10.885,16.058,12.172l-0.836,16.32
				c-14.571,0-25.55-3.686-32.935-11.057c-16.415,7.371-33.016,11.057-49.801,11.057
				C3664.724,4469.804,3655.032,4466.21,3648.389,4459.025z M3717.853,4446.019l6.362-2.215v-45.662l-40.954,3.871
				c-8.302,0.742-14.294,3.143-17.98,7.197c-3.698,4.059-5.542,9.959-5.542,17.701c0,16.986,7.014,25.471,21.028,25.471
				C3693.124,4452.382,3705.495,4450.261,3717.853,4446.019z"/>
			<path fill="#231F20" d="M3807.932,4465.523c-5.264-3.051-9.043-8.207-11.35-15.5c-2.306-7.279-3.46-17.475-3.46-30.574v-72.777
				h-19.649v-17.994h19.649v-42.334h20.471v42.334h44.006v17.994h-44.006v66.135c0,10.328,0.371,18.031,1.113,23.109
				c0.729,5.064,2.532,8.951,5.397,11.615c2.85,2.678,7.331,4.018,13.417,4.018l24.635-1.658l1.38,17.158
				c-13.101,2.027-22.965,3.035-29.606,3.035C3820.515,4470.083,3813.183,4468.558,3807.932,4465.523z"/>
			<path fill="#231F20" d="M3883.057,4273.351h20.472v24.064h-20.472V4273.351z M3883.057,4328.677h20.472v138.371h-20.472V4328.677
				z"/>
			<path fill="#231F20" d="M3959.691,4462.472c-8.672-4.879-14.851-12.49-18.535-22.83c-3.686-10.33-5.529-23.973-5.529-40.943
				c0-17.529,1.935-31.598,5.808-42.203c3.871-10.607,10.143-18.363,18.813-23.242c8.672-4.881,20.206-7.332,34.593-7.332
				c14.572,0,26.146,2.479,34.724,7.465c8.579,4.984,14.812,12.727,18.683,23.242c3.871,10.527,5.808,24.541,5.808,42.07
				c0,16.971-1.844,30.613-5.529,40.943c-3.699,10.34-9.825,17.951-18.403,22.83c-8.578,4.893-20.34,7.332-35.281,7.332
				C3980.082,4469.804,3968.363,4467.365,3959.691,4462.472z M4018.36,4446.708c5.345-3.42,9.083-8.857,11.204-16.336
				c2.122-7.465,3.183-18.031,3.183-31.674c0-14.398-1.101-25.457-3.315-33.215c-2.214-7.744-6.005-13.271-11.35-16.6
				c-5.356-3.313-13.006-4.971-22.962-4.971c-9.959,0-17.676,1.658-23.111,4.971c-5.449,3.328-9.322,8.855-11.628,16.6
				c-2.293,7.758-3.447,18.816-3.447,33.215c0,13.471,1.048,23.971,3.182,31.543c2.108,7.568,5.9,13.047,11.351,16.467
				c5.422,3.406,13.312,5.117,23.654,5.117C4005.262,4451.826,4013.005,4450.115,4018.36,4446.708z"/>
			<path fill="#231F20" d="M4087.824,4328.677h20.472v9.693c8.299-4.613,15.91-7.836,22.83-9.693
				c6.909-1.842,14.148-2.756,21.719-2.756c11.8,0,20.936,2.215,27.393,6.643c6.457,4.43,11.031,11.482,13.696,21.16
				c2.679,9.693,4.019,23.111,4.019,40.268v73.057h-20.484v-72.5c0-13.1-0.783-23.15-2.348-30.164s-4.389-12.078-8.433-15.223
				c-4.07-3.127-9.97-4.705-17.714-4.705c-6.271,0-12.689,0.781-19.238,2.348c-6.549,1.578-11.854,3.367-15.897,5.408l-5.264,2.479
				v112.357h-20.75V4328.677z"/>
		</g>
		<g>
			<path fill="#231F20" d="M722.379,4750.017c-10.965-9.693-16.454-25.139-16.454-46.354v-133.383h21.307v133.939
				c0,27.672,14.941,41.5,44.827,41.5c15.672,0,27.394-3.314,35.137-9.959c7.756-6.641,11.627-17.154,11.627-31.541v-133.939h21.03
				v133.383c0,21.027-5.583,36.436-16.748,46.207c-11.163,9.785-27.987,14.662-50.502,14.662
				C750.104,4764.533,733.358,4759.695,722.379,4750.017z"/>
			<path fill="#231F20" d="M883.3,4760.664l-8.299-1.379l1.101-17.994c21.585,3.143,37.443,4.707,47.598,4.707
				c11.071,0,19.319-1.803,24.769-5.395c5.437-3.594,8.167-9.361,8.167-17.291c0-5.713-1.352-10.049-4.016-13.006
				c-2.68-2.955-6.087-5.076-10.237-6.365c-4.163-1.285-10.011-2.492-17.582-3.605l-6.907-1.1
				c-11.071-1.844-19.742-4.059-26.012-6.643c-6.285-2.586-10.98-6.232-14.108-10.926c-3.143-4.707-4.707-11.217-4.707-19.518
				c0-14.941,4.508-25.549,13.55-31.82c9.042-6.271,21.864-9.4,38.464-9.4c13.099,0,26.477,1.193,40.12,3.592l7.757,1.379
				l-0.557,17.713c-19.926-2.943-35.506-4.426-46.764-4.426c-10.699,0-18.681,1.656-23.931,4.984
				c-5.265,3.314-7.891,8.486-7.891,15.5c0,4.971,1.287,8.805,3.873,11.482c2.584,2.664,5.953,4.6,10.103,5.807
				c4.15,1.193,9.998,2.453,17.567,3.738l6.923,1.379c11.428,2.029,20.284,4.389,26.556,7.055
				c6.271,2.678,10.938,6.51,13.973,11.482c3.05,4.984,4.575,11.906,4.575,20.764c0,14.928-4.388,25.865-13.153,32.787
				c-8.763,6.922-22.182,10.367-40.252,10.367C912.908,4764.533,899.345,4763.248,883.3,4760.664z"/>
			<path fill="#231F20" d="M1009.206,4568.08h20.472v24.064h-20.472V4568.08z M1009.206,4623.408h20.472v138.369h-20.472V4623.408z"
				/>
			<path fill="#231F20" d="M1069.533,4623.408h20.472v9.693c8.3-4.615,15.909-7.836,22.832-9.693
				c6.907-1.844,14.147-2.756,21.718-2.756c11.8,0,20.935,2.213,27.392,6.641c6.457,4.43,11.032,11.482,13.697,21.162
				c2.678,9.691,4.016,23.111,4.016,40.266v73.057h-20.485v-72.498c0-13.102-0.781-23.15-2.347-30.164
				c-1.564-7.014-4.388-12.078-8.43-15.223c-4.073-3.129-9.973-4.705-17.716-4.705c-6.27,0-12.688,0.781-19.238,2.346
				c-6.551,1.578-11.855,3.367-15.912,5.41l-5.25,2.479v112.355h-20.75V4623.408z"/>
			<path fill="#231F20" d="M1224.9,4817.529c-8.581-6.178-12.875-16.467-12.875-30.852c0-5.914,0.689-10.74,2.082-14.531
				c1.379-3.779,3.54-7.146,6.496-10.092c2.957-2.957,7.386-6.734,13.286-11.348c-2.587-1.658-4.521-4.152-5.807-7.479
				c-1.301-3.314-1.936-6.814-1.936-10.516c0-2.385,0.541-5.025,1.655-7.875c1.101-2.863,3.688-7.889,7.745-15.088
				c-14.572-6.457-21.864-20.299-21.864-41.5c0-16.057,4.336-28.002,13.005-35.838c8.674-7.85,21.773-11.76,39.301-11.76
				c8.484,0,17.898,1.191,28.227,3.592l40.957-1.113v17.713l-26.291-0.543c3.128,3.129,5.434,6.961,6.907,11.482
				c1.483,4.521,2.228,10.275,2.228,17.287c0,16.416-4.258,28.135-12.729,35.15c-8.5,7.014-21.864,10.514-40.134,10.514
				c-5.715,0-10.423-0.371-14.108-1.113c-1.483,3.699-2.678,6.922-3.594,9.691c-0.926,2.76-1.39,5.158-1.39,7.188
				c0,4.799,1.895,7.941,5.674,9.414c3.779,1.471,9.64,2.215,17.567,2.215h10.793c12.185,0,21.997,0.926,29.476,2.77
				c7.478,1.844,13.231,5.582,17.289,11.205c4.057,5.621,6.098,13.787,6.098,24.488c0,16.043-4.984,27.764-14.941,35.135
				c-9.97,7.385-26.387,11.072-49.258,11.072C1248.089,4826.798,1233.478,4823.707,1224.9,4817.529z M1302.794,4803.144
				c6.087-4.15,9.135-11.311,9.135-21.439c0-5.912-1.021-10.381-3.048-13.432c-2.03-3.049-5.45-5.117-10.236-6.219
				c-4.802-1.113-11.722-1.67-20.763-1.67l-29.888-1.379c-6.084,4.43-10.194,8.299-12.302,11.615
				c-2.134,3.328-3.183,7.756-3.183,13.285c0,9.6,2.811,16.242,8.432,19.928s15.54,5.529,29.752,5.529
				C1286.008,4809.363,1296.71,4807.292,1302.794,4803.144z M1290.065,4691.214c4.789-4.615,7.188-12.463,7.188-23.521
				c0-10.885-2.4-18.629-7.188-23.256c-4.799-4.602-12.727-6.908-23.798-6.908c-11.443,0-19.61,2.348-24.49,7.055
				c-4.893,4.707-7.332,12.502-7.332,23.387c0,10.887,2.438,18.629,7.332,23.244c4.88,4.613,12.953,6.92,24.211,6.92
				C1277.245,4698.134,1285.267,4695.828,1290.065,4691.214z"/>
			<path fill="#231F20" d="M1446.122,4589.109v66.133h78.584v18.535h-78.584v69.172h95.186v18.828h-116.493v-191.496h116.493v18.828
				H1446.122z"/>
			<path fill="#231F20" d="M1575.898,4563.095h20.75v198.682h-20.75V4563.095z"/>
			<path fill="#231F20" d="M1643.559,4748.08c-8.765-10.977-13.14-28.279-13.14-51.881c0-25.656,4.692-44.654,14.106-57.012
				c9.416-12.357,24.159-18.535,44.272-18.535c18.444,0,32.246,5.303,41.38,15.908c9.122,10.609,13.697,26.889,13.697,48.832
				l-1.114,15.779h-91.313c0,11.441,1.247,20.391,3.727,26.836c2.491,6.469,6.735,11.123,12.74,13.975
				c5.98,2.863,14.332,4.295,25.034,4.295c5.356,0,11.535-0.133,18.548-0.41c7.001-0.279,13.364-0.703,19.092-1.246l8.021-0.838
				l0.557,16.336c-20.485,2.943-37.456,4.414-50.914,4.414C1667.214,4764.533,1652.322,4759.058,1643.559,4748.08z
				 M1723.111,4684.572c0-16.787-2.665-28.732-8.021-35.84c-5.356-7.094-14.108-10.646-26.293-10.646
				c-12.729,0-22.127,3.727-28.214,11.205c-6.098,7.463-9.242,19.225-9.414,35.281H1723.111z"/>
			<path fill="#231F20" d="M1793.117,4757.203c-8.115-4.881-13.934-12.543-17.434-22.965c-3.5-10.422-5.252-24.303-5.252-41.645
				c0-21.943,3.688-39.473,11.071-52.572c7.373-13.1,21.664-19.648,42.893-19.648c5.528,0,11.243,0.279,17.143,0.822
				c5.913,0.557,13.937,1.762,24.079,3.605l-0.823,16.879c-14.584-1.658-25.736-2.492-33.492-2.492
				c-10.514,0-18.574,1.615-24.208,4.84c-5.635,3.234-9.588,8.684-11.894,16.332c-2.321,7.65-3.461,18.592-3.461,32.791
				c0,13.471,1.101,23.932,3.316,31.41c2.215,7.463,6.23,12.914,12.04,16.322c5.806,3.418,14.251,5.115,25.323,5.115l32.657-2.492
				l0.822,17.158c-17.713,2.584-30.999,3.869-39.842,3.869C1812.209,4764.533,1801.232,4762.095,1793.117,4757.203z"/>
			<path fill="#231F20" d="M1918.875,4760.251c-5.249-3.049-9.041-8.207-11.334-15.498c-2.321-7.279-3.461-17.477-3.461-30.576
				V4641.4h-19.649v-17.992h19.649v-42.334h20.472v42.334h43.994v17.992h-43.994v66.135c0,10.328,0.372,18.033,1.114,23.111
				c0.729,5.064,2.532,8.949,5.395,11.613c2.853,2.678,7.334,4.018,13.419,4.018l24.623-1.656l1.393,17.156
				c-13.114,2.027-22.978,3.037-29.622,3.037C1931.472,4764.814,1924.14,4763.289,1918.875,4760.251z"/>
			<path fill="#231F20" d="M1994.013,4623.408h20.472v18.828c15.857-10.885,32.75-18.178,50.635-21.863v21.027
				c-7.186,1.473-14.98,3.74-23.374,6.775c-8.406,3.049-15.089,5.859-20.063,8.445l-6.92,3.594v101.563h-20.75V4623.408z"/>
			<path fill="#231F20" d="M2104.962,4757.203c-8.671-4.881-14.834-12.49-18.535-22.832c-3.685-10.328-5.528-23.971-5.528-40.943
				c0-17.527,1.937-31.596,5.806-42.203c3.873-10.605,10.145-18.363,18.814-23.242c8.672-4.879,20.206-7.33,34.593-7.33
				c14.571,0,26.145,2.479,34.723,7.463c8.581,4.986,14.811,12.729,18.684,23.242c3.87,10.527,5.819,24.543,5.819,42.07
				c0,16.973-1.855,30.615-5.541,40.943c-3.701,10.342-9.824,17.951-18.405,22.832c-8.578,4.893-20.336,7.33-35.28,7.33
				C2125.356,4764.533,2113.634,4762.095,2104.962,4757.203z M2163.634,4741.439c5.356-3.422,9.081-8.859,11.202-16.336
				c2.124-7.465,3.196-18.031,3.196-31.676c0-14.398-1.114-25.457-3.326-33.213c-2.215-7.744-5.994-13.271-11.352-16.602
				c-5.341-3.313-13.005-4.971-22.962-4.971s-17.661,1.658-23.111,4.971c-5.437,3.33-9.319,8.857-11.615,16.602
				c-2.306,7.756-3.458,18.814-3.458,33.213c0,13.471,1.059,23.971,3.18,31.543c2.121,7.57,5.9,13.047,11.35,16.469
				c5.437,3.406,13.325,5.115,23.655,5.115C2150.533,4746.554,2158.289,4744.845,2163.634,4741.439z"/>
			<path fill="#231F20" d="M2233.097,4623.408h20.472v9.693c8.3-4.615,15.909-7.836,22.832-9.693
				c6.907-1.844,14.145-2.756,21.716-2.756c11.815,0,20.938,2.213,27.395,6.641c6.457,4.43,11.029,11.482,13.694,21.162
				c2.678,9.691,4.019,23.111,4.019,40.266v73.057h-20.472v-72.498c0-13.102-0.797-23.15-2.36-30.164
				c-1.564-7.014-4.375-12.078-8.433-15.223c-4.07-3.129-9.971-4.705-17.713-4.705c-6.272,0-12.69,0.781-19.238,2.346
				c-6.537,1.578-11.854,3.367-15.898,5.41l-5.263,2.479v112.355h-20.75V4623.408z"/>
			<path fill="#231F20" d="M2467.459,4589.109v74.697h78.862v18.828h-78.862v79.143h-21.308v-191.496h114.557v18.828H2467.459z"/>
			<path fill="#231F20" d="M2582.291,4623.408h20.472v18.828c15.873-10.885,32.75-18.178,50.648-21.863v21.027
				c-7.199,1.473-14.98,3.74-23.387,6.775c-8.394,3.049-15.077,5.859-20.061,8.445l-6.923,3.594v101.563h-20.75V4623.408z"/>
			<path fill="#231F20" d="M2679.135,4753.755c-6.632-7.201-9.958-17.529-9.958-31c0-13.285,3.368-23.148,10.104-29.605
				s17.476-10.422,32.232-11.895l43.449-4.162v-11.895c0-17.527-7.57-26.291-22.687-26.291c-14.943,0-33.12,1.205-54.521,3.592
				l-0.822-15.764c19.729-4.057,37.722-6.084,53.951-6.084c15.686,0,27.074,3.553,34.182,10.645
				c7.092,7.107,10.646,18.404,10.646,33.902v70.844c0.555,6.828,5.9,10.885,16.056,12.17l-0.836,16.32
				c-14.571,0-25.549-3.686-32.935-11.057c-16.414,7.371-33.014,11.057-49.8,11.057
				C2695.468,4764.533,2685.776,4760.941,2679.135,4753.755z M2748.597,4740.75l6.365-2.215v-45.664l-40.959,3.871
				c-8.299,0.744-14.29,3.143-17.979,7.199c-3.697,4.057-5.54,9.959-5.54,17.701c0,16.986,7.014,25.471,21.028,25.471
				C2723.869,4747.113,2736.239,4744.992,2748.597,4740.75z"/>
			<path fill="#231F20" d="M2816.666,4623.408h20.472v9.693c13.843-8.301,27.686-12.449,41.514-12.449
				c7.558,0,14.387,1.152,20.484,3.459c6.087,2.309,10.873,5.859,14.387,10.648c6.829-4.059,14.851-7.428,24.065-10.092
				c9.227-2.678,18.643-4.016,28.228-4.016c11.256,0,20.021,2.252,26.291,6.773c6.272,4.521,10.74,11.668,13.419,21.453
				c2.678,9.773,4.019,23.057,4.019,39.842v73.057h-20.764v-72.498c0-13.102-0.731-23.15-2.201-30.164
				c-1.486-7.014-4.203-12.078-8.167-15.223c-3.979-3.129-9.825-4.705-17.57-4.705c-6.282,0-12.648,0.781-19.092,2.346
				c-6.457,1.578-11.72,3.367-15.776,5.41l-5.252,2.479c2.389,5.914,3.594,19.371,3.594,40.398v71.957h-20.75v-71.398
				c0-13.643-0.742-24.025-2.229-31.133c-1.47-7.094-4.135-12.209-8.021-15.354c-3.873-3.129-9.679-4.705-17.424-4.705
				c-6.098,0-12.276,0.781-18.549,2.346c-6.27,1.578-11.347,3.367-15.22,5.41l-4.708,2.479v112.355h-20.75V4623.408z"/>
			<path fill="#231F20" d="M3055.06,4748.08c-8.763-10.977-13.138-28.279-13.138-51.881c0-25.656,4.705-44.654,14.105-57.012
				c9.414-12.357,24.17-18.535,44.272-18.535c18.441,0,32.243,5.303,41.381,15.908c9.121,10.609,13.694,26.889,13.694,48.832
				l-1.114,15.779h-91.313c0,11.441,1.246,20.391,3.727,26.836c2.506,6.469,6.748,11.123,12.742,13.975
				c5.993,2.863,14.332,4.295,25.044,4.295c5.343,0,11.521-0.133,18.535-0.41c7.001-0.279,13.367-0.703,19.096-1.246l8.021-0.838
				l0.557,16.336c-20.484,2.943-37.455,4.414-50.913,4.414C3078.714,4764.533,3063.825,4759.058,3055.06,4748.08z
				 M3134.611,4684.572c0-16.787-2.662-28.732-8.021-35.84c-5.344-7.094-14.106-10.646-26.291-10.646
				c-12.729,0-22.13,3.727-28.215,11.205c-6.1,7.463-9.229,19.225-9.416,35.281H3134.611z"/>
			<path fill="#231F20" d="M3175.011,4623.408h20.75l27.949,120.375h4.43l32.936-117.604h21.585l32.92,117.604h4.708l27.67-120.375
				h20.75l-32.922,138.369h-34.591l-29.341-108.205l-29.328,108.205h-34.593L3175.011,4623.408z"/>
			<path fill="#231F20" d="M3413.815,4757.203c-8.672-4.881-14.85-12.49-18.535-22.832c-3.688-10.328-5.53-23.971-5.53-40.943
				c0-17.527,1.937-31.596,5.809-42.203c3.87-10.605,10.143-18.363,18.814-23.242c8.671-4.879,20.206-7.33,34.59-7.33
				c14.572,0,26.148,2.479,34.726,7.463c8.578,4.986,14.812,12.729,18.682,23.242c3.873,10.527,5.809,24.543,5.809,42.07
				c0,16.973-1.843,30.615-5.53,40.943c-3.698,10.342-9.824,17.951-18.402,22.832c-8.578,4.893-20.339,7.33-35.283,7.33
				C3434.207,4764.533,3422.487,4762.095,3413.815,4757.203z M3472.485,4741.439c5.343-3.422,9.082-8.859,11.203-16.336
				c2.121-7.465,3.184-18.031,3.184-31.676c0-14.398-1.102-25.457-3.315-33.213c-2.229-7.744-6.007-13.271-11.351-16.602
				c-5.355-3.313-13.005-4.971-22.965-4.971c-9.97,0-17.671,1.658-23.107,4.971c-5.45,3.33-9.322,8.857-11.629,16.602
				c-2.308,7.756-3.448,18.814-3.448,33.213c0,13.471,1.049,23.971,3.184,31.543c2.107,7.57,5.899,13.047,11.35,16.469
				c5.424,3.406,13.312,5.115,23.651,5.115C3459.387,4746.554,3467.129,4744.845,3472.485,4741.439z"/>
			<path fill="#231F20" d="M3541.949,4623.408h20.47v18.828c15.857-10.885,32.75-18.178,50.635-21.863v21.027
				c-7.186,1.473-14.982,3.74-23.373,6.775c-8.406,3.049-15.09,5.859-20.061,8.445l-6.92,3.594v101.563h-20.751V4623.408z"/>
			<path fill="#231F20" d="M3637.677,4563.095h20.75v117.326l21.586-1.113l39.576-55.9h23.522l-45.107,63.643l47.041,74.727h-23.52
				l-41.237-64.199l-21.861,0.822v63.377h-20.75V4563.095z"/>
		</g>
	</g>
</g>
</svg>
