<?xml version="1.0" encoding="utf-8"?>
<!-- Generator: Adobe Illustrator 22.0.1, SVG Export Plug-In . SVG Version: 6.00 Build 0)  -->
<svg version="1.1" id="Layer_1" xmlns="http://www.w3.org/2000/svg" xmlns:xlink="http://www.w3.org/1999/xlink" x="0px" y="0px"
	 viewBox="0 0 1422.4 609.4" style="enable-background:new 0 0 1422.4 609.4;" xml:space="preserve">
<style type="text/css">
	.st0{fill:#E44F26;}
	.st1{fill:#F1672A;}
	.st2{fill:#EBEAEA;}
	.st3{fill:#E68C75;}
	.st4{fill:#3A6AAF;}
	.st5{fill:#4F6F99;}
	.st6{fill:#4C9FD5;}
	.st7{fill:#E5E3E3;}
	.st8{fill:#EEC722;}
	.st9{fill:#FADE34;}
	.st10{fill:#EBEBEB;}
	.st11{fill:none;stroke:#2D2D2D;stroke-width:7;stroke-miterlimit:10;}
	.st12{fill:#2D2D2D;}
	.st13{display:none;}
	.st14{display:inline;}
	.st15{font-family:'Cairo-ExtraLight';}
	.st16{font-size:40.8648px;}
	.st17{display:inline;fill:#E44F26;}
	.st18{font-family:'Cairo-SemiBold';}
	.st19{display:inline;fill:#3A6AAF;}
	.st20{display:inline;fill:#EEC722;}
</style>
<g>
	<g>
		<path class="st0" d="M297,69c59.8,0,119.7,0,179.5,0c2.2,0,2.9,0.3,2.6,2.8c-2,21.7-3.9,43.4-5.8,65.1
			c-2.3,25.4-4.6,50.7-6.9,76.1c-2.1,23.5-4.1,47.1-6.2,70.6c-2.3,25.4-4.6,50.7-6.8,76.1c-2.1,23.5-4.1,47.1-6.2,70.6
			c-0.3,2.9-0.7,5.8-0.8,8.8c0,1.9-0.7,2.7-2.6,3.2c-16.1,4.4-32.2,8.9-48.3,13.3c-31.9,8.8-63.8,17.6-95.7,26.5
			c-2.3,0.6-4.3,0.6-6.6-0.1c-47.8-13.3-95.7-26.5-143.5-39.7c-1.5-0.4-2.1-1-2.2-2.6c-2.2-25.4-4.6-50.9-6.8-76.3
			c-1.9-21.7-3.8-43.4-5.7-65.1c-2.3-25.4-4.6-50.7-6.8-76.1c-2.1-23.5-4.1-47.1-6.2-70.6c-2.1-23.4-4.2-46.9-6.3-70.3
			c-0.3-3.5-0.6-7-0.9-10.5c-0.1-1.2,0.2-1.7,1.4-1.6c0.6,0.1,1.2,0,1.8,0C177.5,69,237.2,69,297,69z M296.9,356
			c-0.5-0.1-1-0.1-1.5-0.2c-15.8-4.2-31.6-8.5-47.5-12.6c-1.9-0.5-2.3-1.3-2.4-3c-0.9-10.6-1.9-21.2-2.7-31.8
			c-0.1-1.8-0.7-2.3-2.6-2.3c-13.4,0.1-26.8,0-40.2,0c-3.5,0-3.4,0-3.1,3.3c2,22.1,4,44.2,5.9,66.3c0.1,1.6,0.7,2.2,2.3,2.7
			c16,4.4,32,8.9,48,13.4c14.4,4,28.8,8.1,43.2,12.1c0.7,1,0.5,2.1,0.5,3.2c0,12.7,0,25.5,0,38.2c0,1.8-0.8,4.3,0.4,5.3
			c1.2,1,3.4-0.5,5.1-1c14.9-4.1,29.9-8.3,44.8-12.5c15.1-4.2,30.2-8.4,45.3-12.6c7.5-2.1,15.1-4.2,22.6-6.3c1.1-0.3,2.3-0.4,2.4-2
			c0.3-3.6,0.6-7.1,1-10.7c0.4-4.3,0.7-8.6,1.1-12.9c0.7-7,1.3-13.9,1.9-20.9c0.4-4.1,0.7-8.3,1.1-12.4c0.6-6.7,1.3-13.4,1.9-20.1
			c0.4-4.5,0.7-9,1.1-13.4c0.6-7.1,1.3-14.2,1.9-21.4c0.4-4.1,0.7-8.3,1.1-12.4c0.6-6.6,1.3-13.2,1.9-19.9c0.4-4.6,0.7-9.1,1.1-13.7
			c0.6-7.1,1.3-14.2,1.9-21.4c0.4-4.1,0.7-8.3,1.1-12.4c0.6-6.6,1.3-13.2,1.9-19.9c0.4-4.6,0.7-9.1,1.1-13.7
			c0.6-7.1,1.3-14.2,2-21.4c0.4-4.1,0.7-8.3,1.1-12.4c0.6-7,1.3-14.1,1.9-21.1c0.4-4.2,0.7-8.5,1.1-12.7c0.6-7,1.2-13.9,1.9-20.9
			c0.2-2.2-0.4-2.9-2.7-2.8c-47.8,0.1-95.7,0.1-143.5,0c-2.1,0-2.6,0.7-2.6,2.7c0.1,14.2,0,28.3,0,42.5c-1,0-2,0.1-3,0.1
			c-36.2,0-72.4,0-108.6,0c-1,0-2.2-0.6-3,0.5c0.1,1.5,0.3,3,0.4,4.5c1.7,19.5,3.5,39,5.2,58.5c2.1,23.9,4.4,47.9,6.4,71.8
			c0.2,2.4,0.9,2.9,3.3,2.9c31.9-0.1,63.8-0.1,95.8-0.1c1,0,2,0.1,3,0.1c0.7,1,0.5,2.1,0.5,3.2C296.9,309.6,296.9,332.8,296.9,356z"
			/>
		<path class="st1" d="M296.9,144.7c0-14.2,0-28.3,0-42.5c0-2,0.5-2.7,2.6-2.7c47.8,0.1,95.7,0.1,143.5,0c2.3,0,3,0.7,2.7,2.8
			c-0.7,6.9-1.3,13.9-1.9,20.9c-0.4,4.2-0.7,8.5-1.1,12.7c-0.6,7-1.3,14.1-1.9,21.1c-0.4,4.1-0.7,8.3-1.1,12.4
			c-0.6,7.1-1.3,14.2-2,21.4c-0.4,4.6-0.7,9.1-1.1,13.7c-0.6,6.6-1.3,13.2-1.9,19.9c-0.4,4.1-0.7,8.3-1.1,12.4
			c-0.6,7.1-1.3,14.2-1.9,21.4c-0.4,4.6-0.7,9.1-1.1,13.7c-0.6,6.6-1.3,13.2-1.9,19.9c-0.4,4.1-0.7,8.3-1.1,12.4
			c-0.6,7.1-1.3,14.2-1.9,21.4c-0.4,4.5-0.7,9-1.1,13.4c-0.6,6.7-1.3,13.4-1.9,20.1c-0.4,4.1-0.7,8.3-1.1,12.4
			c-0.6,7-1.2,13.9-1.9,20.9c-0.4,4.3-0.7,8.6-1.1,12.9c-0.4,3.6-0.7,7.1-1,10.7c-0.1,1.7-1.4,1.7-2.4,2c-7.5,2.1-15.1,4.2-22.6,6.3
			c-15.1,4.2-30.2,8.4-45.3,12.6c-14.9,4.2-29.9,8.4-44.8,12.5c-1.7,0.5-3.9,2-5.1,1c-1.2-1-0.4-3.5-0.4-5.3c0-12.7,0-25.5,0-38.2
			c0-1.1,0.2-2.2-0.5-3.2c0.2-0.1,0.4-0.2,0.6-0.3c30.5-8.5,61-16.9,91.5-25.3c1.6-0.4,1.9-1.2,2-2.6c0.1-2.6,0.4-5.2,0.6-7.8
			c1.3-14,2.6-28,3.8-42c1.3-14,2.5-28,3.7-42c1.3-14.4,2.6-28.8,3.9-43.3c0.3-3.1,0.2-3.1-3.1-3.1c-33.3,0-66.7,0-100,0
			c-0.8,0-1.7,0.1-2.5,0.1l0-0.2c0-15.4,0-30.9,0-46.3c0-0.1,0-0.2,0-0.4c0.2,0,0.5,0.1,0.7,0.1c35.8,0,71.5,0,107.3,0.1
			c1.7,0,2-0.6,2.2-2.1c1.2-13.6,2.5-27.2,3.9-40.7c0.2-2.4-0.5-2.9-2.7-2.9c-36.3,0.1-72.5,0-108.8,0.1c-0.8,0-1.7,0.1-2.5,0.1
			l0.1-0.1l0-0.1C297,145,297,144.8,296.9,144.7z"/>
		<path class="st2" d="M296.9,190.7c0,0.1,0,0.2,0,0.4c-0.7-0.1-1.3-0.2-2-0.2c-20.1,0-40.2,0-60.3-0.1c-2.2,0-2.2,0.9-2.1,2.5
			c1.3,14,2.6,28,3.8,42c0.2,1.9,0.8,2.3,2.5,2.3c18.6-0.1,37.2,0,55.8,0c0.7,0,1.5-0.1,2.2-0.1c0,0,0,0.2,0,0.2
			c0,15.2,0,30.3,0,45.5c-0.2,0-0.3,0.1-0.5,0.1c-1,0-2-0.1-3-0.1c-31.9,0-63.8,0-95.8,0.1c-2.3,0-3.1-0.6-3.3-2.9
			c-2.1-23.9-4.3-47.9-6.4-71.8c-1.8-19.5-3.5-39-5.2-58.5c-0.1-1.5-0.3-3-0.4-4.5c1.1,0,2.2-0.1,3.3-0.1c36.1,0,72.1,0,108.2,0
			c1.1,0,2.2,0.2,3.2-0.3l0,0.1c0,0-0.1,0.1-0.1,0.1C296.9,160.4,296.9,175.6,296.9,190.7z"/>
		<path class="st2" d="M297,403.6c-0.2,0.1-0.4,0.2-0.6,0.3c-14.4-4-28.8-8.1-43.2-12.1c-16-4.5-32-9-48-13.4
			c-1.6-0.4-2.1-1-2.3-2.7c-1.9-22.1-3.9-44.2-5.9-66.3c-0.3-3.4-0.3-3.3,3.1-3.3c13.4,0,26.8,0,40.2,0c1.8,0,2.4,0.5,2.6,2.3
			c0.9,10.6,1.9,21.2,2.7,31.8c0.1,1.7,0.6,2.6,2.4,3c15.8,4.1,31.6,8.4,47.5,12.6c0.5,0.1,1,0.1,1.5,0.2c0,0,0,0.2,0,0.2
			C296.9,372,296.9,387.8,297,403.6z"/>
		<path class="st1" d="M296.4,283.2c0.2,0,0.3-0.1,0.5-0.1c0.9,0,1.8,0.1,2.8,0.1c17,0,34,0,51,0c1.7,0,2.5,0.3,2.1,2.2
			c-0.3,1.8-0.4,3.7-0.5,5.5c-1.5,16.5-3,33-4.4,49.5c-0.1,1.7-0.7,2.4-2.4,2.8c-16.2,4.3-32.4,8.7-48.6,13c0,0,0-0.2,0-0.2
			c0-23.2,0-46.4,0-69.6C296.9,285.3,297.1,284.2,296.4,283.2z"/>
		<path class="st3" d="M297,145.1c-1,0.5-2.1,0.3-3.2,0.3c-36.1,0-72.1,0-108.2,0c-1.1,0-2.2,0-3.3,0.1c0.8-1.1,2-0.5,3-0.5
			c36.2,0,72.4,0,108.6,0c1,0,2-0.1,3-0.1C297,144.8,297,145,297,145.1z"/>
		<path class="st0" d="M296.9,237.4c-0.7,0-1.5,0.1-2.2,0.1c-18.6,0-37.2,0-55.8,0c-1.8,0-2.4-0.4-2.5-2.3c-1.2-14-2.5-28-3.8-42
			c-0.2-1.6-0.1-2.5,2.1-2.5c20.1,0.1,40.2,0.1,60.3,0.1c0.7,0,1.3,0.2,2,0.2C296.9,206.5,296.9,221.9,296.9,237.4z"/>
	</g>
	<g>
		<path class="st4" d="M581.7,444.4c-0.1,0-0.3,0-0.4,0c-0.2-1.1-0.9-1.5-1.9-1.5c-0.8,0-1.5-0.3-2.2-0.5c-2.4-0.6-4.5-1.9-7.1-2
			c-1.4,0-3.2-0.5-3.5-2.2c-0.3-1.8-0.5-3.6-0.8-5.4c-0.4-2.7-0.3-5.4-0.6-8.2c-0.4-3.5-1.5-7-1-10.6c0.3-2.3-1.2-4.3-0.9-6.6
			c0-0.1-0.4-0.3-0.6-0.4c0-0.7-0.1-1.3-0.1-2c-0.4-4.6,0.5-9.2-0.7-13.8c-0.7-2.9,0-6.1-0.8-9.1c-0.6-2.3-0.2-4.8-0.7-7.2
			c-0.7-3.3-0.2-6.8-0.9-10.3c-0.6-2.7-0.3-5.5-0.6-8.4c-0.5-3.5-1.5-7.1-1-10.8c0.2-1.3,0-2.6,0-3.9c0-1.3-0.5-2.3-1.5-3.1
			c0-0.4,0-0.8,0-1.2c-0.3-4.6,0.5-9.1-0.7-13.7c-0.8-3,0.1-6.2-0.7-9.3c-0.7-2.6-0.3-5.4-0.8-8.1c-0.7-3.5-0.2-7.2-0.7-10.9
			c-0.5-3.3-1.3-6.6-1.1-10.1c0.1-1.2,0.2-2.8-0.1-3.7c-0.9-2.6-0.2-5.1-0.6-7.6c-0.2-1.4-0.3-2.9-1.5-3.9c0-0.1,0-0.3,0-0.4
			c0.6-5.6-1-11-0.8-16.6c0-0.9,0.2-1.9-0.1-2.7c-1.4-3.2-0.2-6.7-1.3-10c-0.9-2.7-0.1-5.8-0.7-8.7c-0.7-3.4-0.6-7-0.8-10.5
			c-0.2-4.9-1.3-9.7-1.1-14.6c0.1-1.1-0.1-2.7-1.4-3.5c0-0.1,0-0.3,0-0.4c0.6-1.2,0.3-2.4,0.1-3.7c-0.4-2.8-0.5-5.7-0.7-8.6
			c-0.5-5.7-0.6-11.5-1.6-17.2c-0.7-4.1-0.3-8.4-0.8-12.6c-0.3-2.7-0.8-5.4-1-8.1c0-0.5-0.3-0.7-0.7-0.7c0-0.3,0-0.7-0.1-1
			c-0.2-3.3,0.7-6.7-0.6-9.9c-0.1-0.3-0.1-0.8,0-0.9c1.1-1.2,0.4-2.4,0.1-3.6c-0.3-1.4-0.7-2.8-0.8-4.1c-0.4-3.7,0.1-7.4-0.9-11.1
			c-0.6-2.2,0.1-4.5-0.7-6.9c-0.7-2.3-0.4-5-0.6-7.5c-0.6-5.9-0.8-11.8-1.1-17.7c0-0.2,0-0.4-0.1-0.6c-0.8-2.9-1.5-5.7-1.5-8.7
			c0-1.5,0.1-3,0-4.5c-0.2-1.8,0.5-2.1,2.2-2.1c118.4,0,236.8,0,355.2,0c0.8,0,1.5,0.1,2.3,0.1c0.5,0,0.9,0.2,0.8,0.8
			c-0.1,1.4,0.3,3-0.2,4.2c-0.8,2.2-0.7,4.4-0.5,6.5c0.1,2.2-1.8,3.9-0.9,6.2c0.6,1.6-0.4,3.4-0.7,5c-0.3,2.3-0.1,4.5-0.7,6.8
			c-0.7,2.8-0.2,5.8-0.8,8.7c-0.7,3,0.1,6.2-0.7,9.4c-0.7,2.5-0.5,5.3-0.8,8c-0.7,5.8-1,11.7-1.5,17.6c-0.4,5.8-1.5,11.7-0.9,17.6
			c0,0,0,0,0,0c-0.8,0.1-0.8,0.7-0.8,1.3c0,1,0,2.1,0,3.1c0,0.1-0.1,0.1-0.2,0.3c-0.4-0.4,0.1-1.1-0.5-1.6c0,2.1,0,4,0,6
			c0,1.3,0.3,2.7-0.1,3.9c-1.4,3.7-0.6,7.7-1.3,11.5c-0.7,4.1,0.1,8.6-1.1,12.7c-1.2,4-0.3,8.1-1.2,12.2c-0.7,3.3-0.2,6.8-0.2,10.3
			c0,0,0,0,0,0c-1.6,1.2-0.5,2.7-0.4,4.1c-0.9,1.5,0,3.3-0.4,4.9c-0.5,0.1-0.7,0.4-0.8,1c0,4.2-1.2,8.3-0.8,12.6
			c0.1,0.5,0.2,1.1-0.1,1.5c-1.5,2.6-0.3,5.5-1.3,8.2c-0.9,2.6,0.3,5.5-0.8,8.3c-0.7,1.9-0.3,4.1-0.7,6.2c-0.7,3.7-0.7,7.7-0.7,11.5
			c-0.1,4.9-1.9,9.5-1.1,14.4c0.1,0.8-0.9,1.4-0.8,2.4c0.5,4.5-1.2,8.9-0.8,13.4c0,0.2-0.1,0.4-0.1,0.6c-1.1,4.3-0.5,8.8-1.4,13.2
			c-0.7,3.6-0.4,7.4-1.1,11c-0.8,4.3-0.2,8.7-1.2,13.1c-0.7,2.8-0.1,5.9-0.1,8.9c0,0,0,0,0,0c-0.5,0.1-0.6,0.5-0.8,0.9
			c-1,2.1-0.4,4.4-0.6,6.6c-0.5,4.8-1,9.5-1.6,14.3c-0.5,3.7-0.1,7.5-0.8,11.3c-0.5,2.9-0.1,5.9-0.1,8.9l0,0
			c-1.2,1.2-1.5,2.9-1.5,4.4c-0.1,4.1-0.3,8.2-0.1,12.3c-0.3,3.4-0.6,6.8-0.9,10.2c-0.9,1.3-1.5,2.6-1.5,4.2c0,1.6,0.1,3.2,0,4.8
			c-0.1,1.6-0.6,3.3-2.5,3.6c-3,0.5-5.9,1.8-9,1.8c-1.2,0-2.9,0.4-3.3,0.9c-1.2,1.4-2.6,1.3-4.1,1.4c-1.1,0.1-2.2,0.4-2.7,1.6
			c0,0,0,0,0,0c-1.3,0-2.8-0.6-3.8,0.1c-2.3,1.6-5.1,1.2-7.5,2.2c-1,0.4-2.1,0.7-3.2,0.9c-1.9,0.4-3.7,1.4-5.6,2
			c-0.1,0,0,0.2-0.1,0.4c0,0,0,0,0,0c-1.6,0-3.2-0.2-4.9,0.5c-1.2,0.5-2.6,1.6-4.2,0.8c-0.2-0.1-0.6,0.2-0.9,0.3
			c-2.4,1.4-5.1,1.5-7.6,2.1c-1,0.2-2.3-0.7-2.8,1.2c-0.2,0.7-1.2,0.4-1.8,0.4c-2.1-0.1-4.1,0.7-6.1,1.2c-2.3,0.6-4.3,2-6.8,2
			c-0.8,0-2,0.3-2.4,1.5c0,0-0.1,0-0.1,0c-1.5,0-3-0.2-4.5,0.6c-0.8,0.4-1.7,0.9-2.6,0.9c-3.1,0.2-6.1,1.2-9.1,2.1
			c-1.2,0.4-2.4,0.8-3.6,0.9c-1.8,0.3-3.4,0.8-5.1,1.4c-1.1,0.4-2.5,0.1-2.9,1.7c-0.2,0-0.5,0.1-0.7,0.1c-2.1-0.1-4.1-0.1-6,0.8
			c-0.7,0.3-1.3,0.9-2.1,0.7c-1.6-0.2-3,0.5-4.5,0.9c-0.7,0.2-2,0.3-2.2,1.5c0,0,0,0,0,0c-1.7-0.5-3.2,0.6-4.8,0.8
			c-1.6,0.1-3.4-0.7-4.5,1.3c-0.1,0.2-0.7,0.1-1.1,0.2c-1.9,0.4-3.8,0.7-5.7,1.3c-2.1,0.6-4.3,0.7-6.4,1.7c-2.4,1.2-5.2-0.3-7.8-1
			c-3.1-0.9-6.1-2.4-9.5-2c0,0,0,0,0,0c0.2-1.2-0.4-1.8-1.5-1.6c-3.3,0.5-5.9-1.7-9-2.1c-1.2-0.1-2.7-1.5-2.8-1.4
			c-1.6,1.2-3.1,0.1-4.4-0.4c-1.6-0.6-3.5-0.2-4.8-1c-2-1.3-4-1.5-6.3-1.2c0,0-0.1,0-0.1,0c-0.1-0.3,1-0.7-0.1-0.8
			c-2.3-0.3-4.7-1-6.6-1.8c-2.5-1.1-4.8-1.3-7.4-1.2c0,0,0,0,0,0c-1.4-1.7-3.1-2.9-5.5-2.5c-0.7,0.1-1.3,0.1-1.8-0.3l0,0
			c-3-0.4-5.8-1.7-8.8-2.3c-2.4-0.5-4.8-1.8-7.4-1.2c-0.8-0.9-2.1,0.1-2.9-0.7c0-0.3-0.1-0.6-0.4-0.8c-1.6-0.9-3.3-1-5-0.8
			c0,0,0,0,0,0c0-0.4-0.2-0.6-0.6-0.9c-2.9-1.5-6.2-2.3-9.3-2.9c-2.5-0.5-5.2-1.5-7.9-1c-0.3,0-0.6-0.1-0.9-0.1
			c0.1-0.9-0.1-1.5-1.2-1.4c-2.7,0.3-4.9-1.5-7.5-1.8c-2.6-0.3-4.9-1.8-7.7-1.3c0,0,0,0,0,0c-0.1-0.3,1.1-0.6,0.1-0.9
			C585.7,444.6,583.7,444.1,581.7,444.4z M634.3,226.4c-2.4-0.5-4.4,0.8-6.3,1.6c-2.4,0.9-4.7,2.3-7.2,3.1c-0.7,0.2-1.2,0.8-1.3,1.5
			c-2.3,1-4.7,2.1-7,3.1c-1.3,0.5-2.6,1-4,1.5c-0.9,0.3-1.1,0.9-1,1.8c0.3,2.1,0.5,4.1,0.6,6.2c0.9,11.4,1.9,22.7,2.7,34.1
			c0.1,1.6,0.5,2,2.1,2c20.2,0,40.3,0.1,60.5,0.2c12.9,0.1,25.8,0.1,38.7,0.1c0.3,0.8,0.8,1.4,0.8,2.3c0,23.4,0,46.7,0,70.1
			c-4.5-0.7-8.9-2.1-13.3-3.2c0.1-0.8,0-1.4-1-1.6c-3.5-0.4-6.8-1.8-10.4-1.4c-8.1-2-16.2-4-24.2-6c-0.9-0.2-0.9-0.9-1-1.7
			c-0.9-11-1.8-21.9-2.7-32.9c-0.1-1.2-0.5-1.6-1.8-1.6c-14.4,0-28.8,0-43.2,0c-0.6,0-1.4-0.2-1.4,0.8c-1,0.1-0.8,0.9-0.8,1.5
			c-0.1,3,0.6,6,0.9,8.9c0.5,4.4,1.1,8.9,1.4,13.3c0.1,2.2,0.1,4.4,0.6,6.6c0.7,3.2,0.1,6.7,0.9,10.1c0.6,2.7,0.1,5.6,0.7,8.4
			c0.7,3.7,1.5,7.5,1,11.3c-0.3,2.6,1,5,0.8,7.5c0,0.1,0.2,0.3,0.3,0.4c0.4,0.9,1,1.2,1.9,1.2c0.2,0.9,0.8,1.4,1.7,1.5
			c0.7,0.1,1.6-0.2,2.1,0.1c2.2,1.5,4.6,1.6,7.1,1.5c14,4.2,28.1,8.3,42.1,12.5c0.8,0.6,1.5,1.3,2.6,1.8c1.3,0.6,2.7,0.2,4,1
			c1.6,0.9,3.5,1.7,5.3,1.7c3.7,0,6.6,2.5,10.3,2.8c2.7,0.2,5.1,2,7.9,2c0.9,0,2.1,0.6,2.2,0.9c0.7,1.8,2.1,1.4,3.4,1.4
			c0.8,0,1.7,0,2.5,0c0,14.3,0,28.7,0,43c0,2.3,0,2.3,2.3,1.7c10.6-2.8,21.2-5.6,31.8-8.5c8.7-2.3,17.4-4.8,26.1-7.1
			c10.4-2.8,20.8-5.6,31.3-8.4c8-2.1,15.9-4.4,24-6.4c2.7-0.7,4.7-1.2,4.6-5c0-5.4,0.9-10.8,1.3-16.2c0.3-3.6,0.6-7.2,0.9-10.8
			c0.5-4.9,1-9.9,1.4-14.8c0.3-3.8,0.5-7.6,0.9-11.4c0.8-6.9,1.3-13.9,1.9-20.8c0.3-3.3,0.5-6.7,0.8-10c0.5-5.4,1-10.8,1.5-16.2
			c0.4-5.1,0.7-10.2,1.2-15.3c0.8-7,1.3-14,1.9-21c0.3-3.4,0.5-6.8,0.8-10.2c0.5-5.4,1-10.8,1.5-16.2c0.4-5,0.8-9.9,1.2-14.9
			c0.6-6.9,1.3-13.8,1.9-20.6c0.3-3.7,0.6-7.3,0.9-11c0.5-5.3,1-10.5,1.5-15.8c0.3-3.7,0.6-7.5,0.9-11.2c0.5-5,1-10,1.4-15
			c0.4-4.9,0.8-9.8,1.2-14.7c0.5-5.5,1-11.1,1.5-16.6c0.3-3.6,0.5-7.2,0.9-10.8c0.5-5,0.9-10,1.5-15c0.2-1.8-0.4-2.2-2.1-2.2
			c-47.6,0-95.3,0-142.9,0c-1.7,0-2.2,0.5-2.2,2.2c0.1,14.1,0,28.2,0,42.2c-37.4,0-74.9,0-112.3,0c-0.7,0-1.6-0.3-2.2,0.4
			c-0.1,0.1-0.2,0.3-0.3,0.4l0,0c-0.4,1.6-1.1,3.2,0.4,4.6c0,0.2,0,0.4,0,0.6c0,1.5,0,2.9-0.1,4.4c0,0.6,0,1.2,0.8,1.2
			c0.1,0.1,0.1,0.2,0,0.2c0,2.4,0.4,4.7,0.6,7c0.4,4.5,1.5,8.9,1,13.5c-0.1,0.8,0,1.7,0,2.6c0.6-0.3,0.1-1,0.8-1.2
			c0,1.4,0,2.8,0,4.3c0.6-0.6,0.1-1.3,0.7-1.6c0.1,0.9,0.2,1.8,0.4,2.7c0.5,2,0,4.1,1.1,6c0.2,1.1,1.1,0.7,1.7,0.7
			c35.8,0,71.5,0,107.3,0c0,0.5,0,1.1,0,1.6l0,0.1c-11,4.6-21.9,9.2-32.9,13.6c-6,2.4-11.8,5.4-17.9,7.4c-2.7-0.8-4.7,1-6.7,2
			c-1.7,0.8-3,1.2-4.7,0.7c-0.6-0.2-0.6-0.2-0.9,0.3c-1.4,2.7-4.1,3.3-6.7,3.8c-0.5,0.1-1.2,0-1.6,0.3c-1.7,1.5-3.8,2.4-5.9,3
			C635.1,225.1,633.9,225.2,634.3,226.4L634.3,226.4z"/>
		<path class="st5" d="M885.8,164.1c-0.6-5.9,0.5-11.8,0.9-17.6c0.4-5.9,0.8-11.8,1.5-17.6c0.3-2.7,0.2-5.5,0.8-8
			c0.8-3.2,0-6.4,0.7-9.4c0.7-2.9,0.2-6,0.8-8.7c0.6-2.3,0.4-4.6,0.7-6.8c0.2-1.7,1.3-3.4,0.7-5c-0.9-2.3,1-4,0.9-6.2
			c-0.1-2.2-0.3-4.3,0.5-6.5c0.5-1.3,0.1-2.8,0.2-4.2c0-0.6-0.4-0.8-0.8-0.8c-0.8-0.1-1.5-0.1-2.3-0.1c-118.4,0-236.8,0-355.2,0
			c-1.7,0-2.4,0.3-2.2,2.1c0.2,1.5,0,3,0,4.5c0,3,0.6,5.9,1.5,8.7c0.1,0.2,0.1,0.4,0.1,0.6c0.4,5.9,0.5,11.8,1.1,17.7
			c0.3,2.5-0.1,5.2,0.6,7.5c0.7,2.4,0.1,4.7,0.7,6.9c0.9,3.7,0.4,7.4,0.9,11.1c0.2,1.3,0.5,2.7,0.8,4.1c0.3,1.2,1,2.4-0.1,3.6
			c-0.2,0.2-0.2,0.7,0,0.9c1.4,3.2,0.5,6.6,0.6,9.9c-0.7-3.4-0.8-6.8-1.1-10.2c-1-10.6-2-21.2-3-31.7c-0.8-9.2-1.7-18.3-2.5-27.5
			c-0.2-2.5-0.4-5-0.8-7.5c-0.2-1.3,0.2-1.8,1.6-1.8c4,0.1,8,0,12.1,0c115.2,0,230.3,0,345.5,0c3.7,0,3.5-0.8,3.1,3.6
			c-0.7,7.5-1.4,15.1-2.1,22.7c-1,10.7-2,21.4-3,32.1c-0.7,7.7-1.3,15.5-2.2,23.2C886.5,157,886.6,160.6,885.8,164.1z"/>
		<path class="st5" d="M867.8,358.7c0-3-0.5-6.1,0.1-8.9c1-4.3,0.4-8.7,1.2-13.1c0.7-3.6,0.4-7.4,1.1-11c0.9-4.4,0.3-8.8,1.4-13.2
			c0-0.2,0.1-0.4,0.1-0.6c-0.5-4.5,1.3-8.9,0.8-13.4c-0.1-1,0.9-1.6,0.8-2.4c-0.8-4.9,1-9.6,1.1-14.4c0.1-3.8,0-7.7,0.7-11.5
			c0.4-2.1,0-4.3,0.7-6.2c1.1-2.8-0.1-5.8,0.8-8.3c1-2.7-0.1-5.7,1.3-8.2c0.2-0.4,0.1-1,0.1-1.5c-0.4-4.2,0.8-8.4,0.8-12.6
			c0-0.5,0.2-0.9,0.8-1c-0.4,5.1-0.8,10.2-1.3,15.3c-1,10.8-2,21.6-2.9,32.3c-1,10.3-2,20.6-2.9,31c-0.9,9.4-1.7,18.7-2.6,28.1
			C869.2,345.7,868.5,352.2,867.8,358.7z"/>
		<path class="st5" d="M550.2,270c1.2,1,1.3,2.5,1.5,3.9c0.4,2.5-0.3,5.1,0.6,7.6c0.3,0.9,0.1,2.5,0.1,3.7
			c-0.2,3.5,0.6,6.8,1.1,10.1c0.6,3.7,0.1,7.4,0.7,10.9c0.5,2.7,0.2,5.5,0.8,8.1c0.8,3.2-0.1,6.4,0.7,9.3c1.2,4.6,0.3,9.1,0.7,13.7
			c-0.7-3.6-0.8-7.3-1.2-11c-0.8-7.9-1.5-15.8-2.2-23.8c-0.7-7.7-1.4-15.5-2.1-23.2C550.6,276.3,550,273.1,550.2,270z"/>
		<path class="st5" d="M556.4,338.5c1,0.8,1.5,1.8,1.5,3.1c0,1.3,0.1,2.6,0,3.9c-0.4,3.7,0.5,7.3,1,10.8c0.4,2.8,0.1,5.6,0.6,8.4
			c0.7,3.4,0.2,7,0.9,10.3c0.5,2.4,0.1,4.9,0.7,7.2c0.8,3.1,0.1,6.2,0.8,9.1c1.1,4.6,0.3,9.2,0.7,13.8c-0.5-5.2-1.1-10.3-1.6-15.5
			c-1.2-12.3-2.3-24.5-3.4-36.8C557.2,348,556.8,343.3,556.4,338.5z"/>
		<path class="st5" d="M543.9,203c1.3,0.8,1.5,2.4,1.4,3.5c-0.3,4.9,0.8,9.7,1.1,14.6c0.1,3.5,0,7.1,0.8,10.5c0.7,3-0.1,6,0.7,8.7
			c1.1,3.3-0.1,6.8,1.3,10c0.3,0.8,0.2,1.8,0.1,2.7c-0.2,5.5,1.3,11,0.8,16.6c-0.7-3.6-0.8-7.2-1.2-10.8c-1-10.5-1.9-20.9-2.9-31.4
			c-0.6-6.7-1.2-13.4-1.8-20.1C544.1,205.8,543.7,204.4,543.9,203z"/>
		<path class="st5" d="M880.3,223.6c0-3.4-0.6-7,0.2-10.3c0.9-4.1,0.1-8.2,1.2-12.2c1.2-4.1,0.4-8.6,1.1-12.7
			c0.7-3.8-0.1-7.8,1.3-11.5c0.4-1.2,0.1-2.6,0.1-3.9c0-1.9,0-3.9,0-6c0.6,0.5,0.2,1.1,0.5,1.6c0.1-0.1,0.2-0.2,0.2-0.3
			c0-1,0-2.1,0-3.1c0-0.6-0.1-1.2,0.8-1.3c-0.1,5.3-0.9,10.6-1.3,15.9c-0.9,10.6-1.9,21.3-2.9,31.9
			C881.1,215.8,880.7,219.7,880.3,223.6z"/>
		<path class="st5" d="M539.2,151.6c0.4,0.1,0.7,0.2,0.7,0.7c0.1,2.7,0.7,5.4,1,8.1c0.5,4.2,0.1,8.5,0.8,12.6
			c1,5.7,1.1,11.5,1.6,17.2c0.2,2.9,0.3,5.8,0.7,8.6c0.2,1.3,0.5,2.5-0.1,3.7c-0.5-5-1.1-10-1.5-15c-1-11.1-2-22.1-3.1-33.2
			C539.2,153.4,539.3,152.5,539.2,151.6z"/>
		<path class="st5" d="M562.7,407c0.2,0.1,0.6,0.3,0.6,0.4c-0.3,2.3,1.2,4.3,0.9,6.6c-0.5,3.6,0.6,7.1,1,10.6
			c0.3,2.7,0.2,5.5,0.6,8.2c0.3,1.8,0.6,3.6,0.8,5.4c0.3,1.6,2.1,2.1,3.5,2.2c2.6,0.1,4.7,1.4,7.1,2c0.7,0.2,1.4,0.5,2.2,0.5
			c1,0,1.7,0.4,1.9,1.5c-4.9-1.3-9.7-2.6-14.6-3.8c-0.8-0.2-1-0.7-1-1.4C564.7,428.4,563.7,417.7,562.7,407z"/>
		<path class="st5" d="M780.6,461.6c0.4-1.2,1.6-1.5,2.4-1.5c2.5-0.1,4.5-1.5,6.8-2c2-0.5,4-1.3,6.1-1.2c0.6,0,1.6,0.3,1.8-0.4
			c0.4-1.8,1.8-0.9,2.8-1.2c2.6-0.6,5.3-0.7,7.6-2.1c0.3-0.2,0.7-0.4,0.9-0.3c1.6,0.7,3-0.3,4.2-0.8c1.7-0.7,3.3-0.5,4.9-0.5
			c-4.7,1.8-9.6,2.7-14.5,4.1c-7.3,2.1-14.6,4-21.9,5.9C781.4,461.5,781,461.5,780.6,461.6z"/>
		<path class="st5" d="M697.3,475.5c3.4-0.5,6.4,1,9.5,2c2.5,0.7,5.3,2.2,7.8,1c2.1-1,4.3-1.1,6.4-1.7c1.9-0.5,3.8-0.9,5.7-1.3
			c0.4-0.1,1,0,1.1-0.2c1.1-2,2.9-1.2,4.5-1.3c1.6-0.1,3.1-1.3,4.8-0.8c-3.8,1.6-7.9,2.2-11.8,3.4c-2.5,0.7-5,1.2-7.5,2
			c-3.2,1.1-6.2,1.1-9.4,0C704.8,477.5,701,476.6,697.3,475.5z"/>
		<path class="st5" d="M863.9,400.8c0-3-0.4-6,0.1-8.9c0.7-3.8,0.3-7.6,0.8-11.3c0.6-4.8,1.1-9.5,1.6-14.3c0.2-2.2-0.4-4.5,0.6-6.6
			c0.2-0.4,0.2-0.9,0.8-0.9c-0.5,6-1,12.1-1.5,18.1c-0.7,7.4-1.3,14.8-2,22.2C864.2,399.6,864.1,400.2,863.9,400.8z"/>
		<path class="st5" d="M838.3,446c0.5-1.3,1.6-1.5,2.7-1.6c1.5-0.2,2.8-0.1,4.1-1.4c0.4-0.5,2.1-0.9,3.3-0.9c3.1,0,6-1.3,9-1.8
			c1.9-0.3,2.4-1.9,2.5-3.6c0.1-1.6,0.1-3.2,0-4.8c0-1.6,0.6-2.9,1.5-4.2c-0.3,3.9-0.7,7.7-1,11.6c-0.1,0.6-0.1,1.1-0.9,1.3
			C852.5,442.3,845.5,444.5,838.3,446z"/>
		<path class="st5" d="M668.7,467.8c2.2-0.3,4.2-0.1,6.3,1.2c1.3,0.8,3.2,0.4,4.8,1c1.3,0.5,2.7,1.6,4.4,0.4
			c0.1-0.1,1.5,1.3,2.8,1.4c3.1,0.3,5.7,2.6,9,2.1c1.1-0.2,1.7,0.5,1.5,1.6c-6.2-1.6-12.3-3.2-18.5-4.8
			C675.4,469.8,672,469.1,668.7,467.8z"/>
		<path class="st5" d="M752.6,469.2c0.4-1.6,1.8-1.3,2.9-1.7c1.7-0.6,3.3-1.1,5.1-1.4c1.2-0.2,2.4-0.6,3.6-0.9
			c3-0.9,5.9-1.9,9.1-2.1c1-0.1,1.9-0.6,2.6-0.9c1.5-0.7,3-0.6,4.5-0.6c-3.4,1.4-7,2.1-10.5,3C764.2,466.2,758.4,467.7,752.6,469.2z
			"/>
		<path class="st5" d="M630.9,457.6c2.6-0.6,5,0.7,7.4,1.2c3,0.6,5.8,1.9,8.8,2.3c-0.2,0.1-0.3,0.1-0.5,0.2c0,0,0.1,0.1,0.1,0.1
			c0.1-0.1,0.3-0.2,0.4-0.3c0.6,0.3,1.2,0.4,1.8,0.3c2.4-0.3,4,0.8,5.5,2.5c-5.8-1.1-11.5-3-17.2-4.5
			C635.1,458.9,632.9,458.6,630.9,457.6z"/>
		<path class="st5" d="M604.7,450.6c2.7-0.5,5.4,0.5,7.9,1c3.1,0.6,6.4,1.4,9.3,2.9c0.4,0.2,0.6,0.4,0.6,0.9
			c-5.4-1-10.5-2.7-15.8-4.1C606,451.1,605.3,451.2,604.7,450.6z"/>
		<path class="st5" d="M818.1,451.5c0-0.1,0-0.4,0.1-0.4c1.9-0.5,3.7-1.6,5.6-2c1.1-0.2,2.2-0.5,3.2-0.9c2.5-1,5.2-0.6,7.5-2.2
			c1-0.7,2.5-0.1,3.8-0.1c-4.4,1.7-9,2.5-13.5,3.8C822.6,450.4,820.4,451.3,818.1,451.5z"/>
		<path class="st5" d="M587.5,446c2.7-0.5,5.1,1,7.7,1.3c2.6,0.3,4.8,2.1,7.5,1.8c1.1-0.1,1.3,0.5,1.2,1.4
			C598.4,449,592.9,447.7,587.5,446z"/>
		<path class="st5" d="M862.4,417.5c-0.2-4.1,0-8.2,0.1-12.3c0-1.6,0.3-3.2,1.5-4.4C863.6,406.4,863.1,411.9,862.4,417.5z"/>
		<path class="st5" d="M654.4,463.9c2.5-0.1,4.8,0.2,7.4,1.2c1.9,0.8,4.3,1.5,6.6,1.8c1.1,0.2,0.1,0.6,0.1,0.8
			C663.8,466.7,659,465.5,654.4,463.9z"/>
		<path class="st5" d="M737.1,473.3c0.2-1.2,1.4-1.3,2.2-1.5c1.5-0.4,2.9-1.1,4.5-0.9c0.9,0.1,1.5-0.4,2.1-0.7c1.9-0.9,4-0.9,6-0.8
			C747,470.9,742.1,472.3,737.1,473.3z"/>
		<path class="st5" d="M581.7,444.4c2-0.3,4,0.2,5.9,0.7c1,0.3-0.1,0.6-0.1,0.9C585.5,445.6,583.5,445.2,581.7,444.4z"/>
		<path class="st5" d="M622.5,455.3c1.8-0.2,3.4-0.1,5,0.8c0.3,0.2,0.4,0.5,0.4,0.8C626.1,456.5,624.2,456.2,622.5,455.3z"/>
		<path class="st5" d="M879.9,227.7c-0.1-1.4-1.2-2.8,0.4-4.1C880.4,225,880.3,226.3,879.9,227.7z"/>
		<path class="st6" d="M712.9,146.1c0-14.1,0-28.2,0-42.2c0-1.7,0.5-2.2,2.2-2.2c47.6,0,95.3,0,142.9,0c1.7,0,2.3,0.4,2.1,2.2
			c-0.5,5-1,10-1.5,15c-0.3,3.6-0.6,7.2-0.9,10.8c-0.5,5.5-1,11.1-1.5,16.6c-0.4,4.9-0.8,9.8-1.2,14.7c-0.4,5-1,10-1.4,15
			c-0.3,3.7-0.6,7.5-0.9,11.2c-0.5,5.3-1,10.5-1.5,15.8c-0.3,3.7-0.6,7.3-0.9,11c-0.6,6.9-1.3,13.8-1.9,20.6
			c-0.4,5-0.8,9.9-1.2,14.9c-0.5,5.4-1,10.8-1.5,16.2c-0.3,3.4-0.6,6.8-0.8,10.2c-0.6,7-1.1,14-1.9,21c-0.6,5.1-0.8,10.2-1.2,15.3
			c-0.5,5.4-1,10.8-1.5,16.2c-0.3,3.3-0.6,6.7-0.8,10c-0.6,6.9-1.1,13.9-1.9,20.8c-0.4,3.8-0.6,7.6-0.9,11.4
			c-0.4,4.9-1,9.9-1.4,14.8c-0.3,3.6-0.6,7.2-0.9,10.8c-0.5,5.4-1.4,10.8-1.3,16.2c0,3.7-2,4.3-4.6,5c-8,2.1-16,4.3-24,6.4
			c-10.4,2.8-20.9,5.6-31.3,8.4c-8.7,2.3-17.4,4.8-26.1,7.1c-10.6,2.9-21.2,5.7-31.8,8.5c-2.3,0.6-2.3,0.6-2.3-1.7
			c0-14.3,0-28.7,0-43c0.1-0.1,0.2-0.3,0.3-0.4c1.6-0.6,3.3-0.7,4.8-1.6c3.7-1.3,7.4-2.4,11.1-3.4c5.2-1.4,10.4-2.8,15.6-4.3
			c14.9-4.4,29.9-8.8,44.8-13.1c4.9-1.4,9.8-2.9,14.7-4.3c1-0.3,1.3-0.7,1.4-1.7c0.2-3.1,0.5-6.2,0.8-9.3
			c0.9-10.1,1.8-20.1,2.6-30.2c0.6-6.5,1.1-13,1.7-19.5c0.7-8.3,1.5-16.5,2.2-24.8c0.6-6.8,1.2-13.7,1.8-20.5
			c0.6-7.3,1.2-14.6,1.8-21.9c0.6-1,0.3-2.1,0.3-3.2c0-0.3,0-0.5,0.1-0.8c0.7-1.3,0.3-2.7,0.5-4c0.5-2.5,0.4-2.6-2.2-2.6
			c-26.9,0-53.8,0-80.7,0c-7.1,0-14.1-0.1-21.2-0.1c9.7-4.2,19.3-8.4,29-12.6c12.2-5.2,24.4-10.4,36.6-15.6
			c12.6-5.4,25.2-10.8,37.9-16.1c3.3-1.4,4.9-2.9,5.2-6.9c0.9-12.2,2.4-24.4,3.6-36.7c0.3-2.8,0.2-2.9-2.5-2.9
			c-25.6,0-51.3,0-76.9,0c-11,0-22.1,0-33.1,0.1c-21.1,0-42.3,0-63.4,0c-17.3,0-34.5,0-51.8,0.1c0.1-0.1,0.2-0.3,0.3-0.4
			c0.1,0,0.3,0,0.4,0c37.5,0,75,0,112.5,0C711.9,146.5,712.5,146.7,712.9,146.1z"/>
		<path class="st7" d="M718,401.2c-1.5,0.9-3.2,1-4.8,1.6c-6.8-2-13.6-4.1-20.4-6.1c-6-1.8-12-3.5-18.1-5.2
			c-14-4.2-28.1-8.3-42.1-12.5c-3.6-1.2-7.2-2.4-10.9-3.1c-0.9,0-1.6-0.3-1.9-1.2c0.1-0.2,0.2-0.5,0.2-0.7c-0.4-4.5-0.8-9-1.2-13.5
			c-1.1-12.7-2.2-25.4-3.4-38.1c-0.5-5.3-1-10.6-1.5-15.8c0.1-1,0.8-0.8,1.4-0.8c14.4,0,28.8,0,43.2,0c1.3,0,1.7,0.4,1.8,1.6
			c0.9,11,1.8,21.9,2.7,32.9c0.1,0.7,0.1,1.4,1,1.7c8.1,2,16.2,4,24.2,6c3.7,1.3,7.6,2,11.4,3c4.4,1,8.8,2.5,13.3,3.2
			c0.1,0,0.3,0.1,0.4,0.1c0.5,1.5-0.4,2.9-0.4,4.3c0.1,13.6,0,27.2,0,40.8c0,0.5,0,0.9,0,1.4c0,0.8,0.6,1.2,1.1,0.9
			C715.3,400.6,716.6,401.3,718,401.2z"/>
		<path class="st7" d="M612.4,235.7c0,0.8-0.9,0.8-1.4,1.4c0.6,0.8,1.4,0.5,2.1,0.5c8.6,0,17.3,0,25.9,0c24.2,0,48.5,0,72.7,0
			c0.5,0,1,0,1.6-0.1c7.1,0,14.1,0.1,21.2,0.1c26.9,0,53.8,0,80.7,0c2.6,0,2.7,0.1,2.2,2.6c-0.3,1.3,0.2,2.7-0.5,4
			c-0.9-1.3-0.4-2.8-0.4-4.1c0-1.5-0.3-2.1-2-2.1c-31.4,0.1-62.8,0-94.2,0c-0.6,0-1.3-0.2-1.9,0.3c-0.7,0.6-1.3,0.5-2.1,0.1
			c-1.4-0.7-3.5,0.7-3.5,2.2c0,12.6,0,25.3,0,37.9c0,1.7,0.5,2.3,2.2,2.3c6.2-0.1,12.3,0,18.5,0c8.2,0,16.3,0,24.5,0
			c0.7,0,1.6-0.4,1.9,0.7c-0.8,0-1.6,0.1-2.3,0.1c-15.2,0-30.3,0-45.5,0c-12.9,0-25.8-0.1-38.7-0.1c-20.2-0.1-40.3-0.2-60.5-0.2
			c-1.6,0-2-0.4-2.1-2c-0.8-11.4-1.8-22.7-2.7-34.1c-0.2-2.1-0.4-4.1-0.6-6.2c-0.1-0.9,0.1-1.5,1-1.8
			C609.8,236.8,611.1,236.2,612.4,235.7z M609.9,237.6c0.1-0.1,0.2-0.1,0.3-0.2c-0.1-0.1-0.2-0.2-0.3-0.2c-0.1,0-0.2,0.1-0.3,0.1
			C609.7,237.5,609.8,237.5,609.9,237.6z"/>
		<path class="st6" d="M712.1,281.6c15.2,0,30.3,0,45.5,0c0.8,0,1.6,0,2.3-0.1c0.3,0,0.5,0,0.8,0c1.7,0,3.4,0,5.1,0
			c1.2,0,1.8,0.2,1.7,1.7c-0.4,5.9-0.6,11.9-1,17.8c-0.7,12.3-1.5,24.6-2.2,36.9c-0.1,1.2-0.5,1.9-1.7,2.1c-2.1,0.5-4.2,1.2-6.4,1.8
			c-10.8,3-21.7,6.1-32.5,9.1c-0.1,0.1-0.3,0.2-0.4,0.2c-0.3,0-0.5,0.1-0.8,0.1c-0.3-0.1-0.6,0-0.7,0.3l-0.1,0
			c-1.4,0.2-2.7,0.4-3.9,1.1c-0.3,0-0.5,0.1-0.8,0.1c-1.3,0.3-2.7,0.2-3.8,1.1l-0.1,0c-0.1,0-0.3-0.1-0.4-0.1
			c0-23.4,0-46.7,0.1-70.1C713,283,712.4,282.4,712.1,281.6z"/>
		<path class="st5" d="M603.9,191.3c9.4,0,18.8-0.1,28.2-0.1c26.3,0,52.5,0,78.8,0c0.6,0,1.3,0,1.9,0c0,0.3,0,0.5,0,0.8
			c-35.8,0-71.5,0-107.3,0C605,192.1,604.1,192.4,603.9,191.3z"/>
		<path class="st5" d="M614,306.6c0.5,5.3,1.1,10.5,1.5,15.8c1.1,12.7,2.2,25.4,3.4,38.1c0.4,4.5,0.8,9,1.2,13.5
			c0,0.2-0.1,0.5-0.2,0.7c-0.1-0.1-0.4-0.3-0.3-0.4c0.2-2.6-1.2-5-0.8-7.5c0.5-3.8-0.3-7.6-1-11.3c-0.5-2.9,0-5.7-0.7-8.4
			c-0.8-3.4-0.2-6.8-0.9-10.1c-0.5-2.3-0.4-4.4-0.6-6.6c-0.3-4.5-0.9-8.9-1.4-13.3c-0.3-3-1-5.9-0.9-8.9
			C613.2,307.5,613,306.7,614,306.6z"/>
		<path class="st5" d="M712.9,146.1c-0.4,0.6-1,0.4-1.6,0.4c-37.5,0-75,0-112.5,0c-0.1,0-0.3,0-0.4,0c0.7-0.6,1.5-0.4,2.2-0.4
			C638.1,146.1,675.5,146.1,712.9,146.1z"/>
		<path class="st5" d="M674.7,391.5c6,1.7,12,3.4,18.1,5.2c6.8,2,13.6,4.1,20.4,6.1c-0.1,0.1-0.2,0.3-0.3,0.4c-0.8,0-1.7,0-2.5,0
			c-1.3,0-2.7,0.4-3.4-1.4c-0.1-0.3-1.3-0.9-2.2-0.9c-2.8,0-5.2-1.8-7.9-2c-3.6-0.2-6.5-2.7-10.3-2.8c-1.8,0-3.8-0.8-5.3-1.7
			c-1.3-0.8-2.7-0.4-4-1C676.2,392.8,675.6,392.1,674.7,391.5z"/>
		<path class="st5" d="M662.1,214.8c-2.8,1.4-5.6,2.6-8.5,3.8c-6,2.4-11.9,4.9-17.8,7.4c-0.5,0.2-1,0.3-1.5,0.5
			c-0.4-1.2,0.8-1.3,1.3-1.5c2.2-0.6,4.2-1.5,5.9-3c0.4-0.4,1.1-0.2,1.6-0.3c2.6-0.5,5.3-1.1,6.7-3.8c0.3-0.6,0.4-0.5,0.9-0.3
			c1.6,0.5,3,0.2,4.7-0.7C657.4,215.8,659.4,213.9,662.1,214.8z"/>
		<path class="st5" d="M599.2,158.1c1,4.6,1.2,9.4,1.9,14c0.5,3.5,1.1,7,1.2,10.6c-0.6,0.3-0.2,1.1-0.7,1.6c0-1.5,0-2.9,0-4.3
			c-0.7,0.1-0.2,0.8-0.8,1.2c0-0.9-0.1-1.8,0-2.6c0.5-4.5-0.6-9-1-13.5C599.6,162.8,599.2,160.4,599.2,158.1z"/>
		<path class="st5" d="M634.3,226.4c-0.3,0.2-0.6,0.4-0.9,0.7c0,0,0,0,0,0c-0.2,0.1-0.5,0.1-0.7,0.2c-0.3,0.2-0.6,0.3-0.9,0.5
			c-0.8,0.1-1.6,0.4-2.2,0.9c-0.8,0.3-1.6,0.7-2.4,1c-0.6,0.2-1.3,0.5-1.9,0.7c-0.2,0.1-0.5,0.2-0.7,0.3c-0.1,0.1-0.3,0.2-0.4,0.2
			c-1.5,0.5-3.1,1.1-4.6,1.6c0.2-0.8,0.7-1.3,1.3-1.5c2.5-0.9,4.8-2.2,7.2-3.1C629.8,227.2,631.9,225.8,634.3,226.4z"/>
		<path class="st5" d="M699.6,350.9c-3.8-0.9-7.7-1.7-11.4-3c3.6-0.3,6.9,1,10.4,1.4C699.6,349.4,699.7,350.1,699.6,350.9z"/>
		<path class="st5" d="M621.8,375.8c3.7,0.8,7.3,1.9,10.9,3.1c-2.5,0.1-4.9,0-7.1-1.5c-0.5-0.3-1.4,0-2.1-0.1
			C622.6,377.3,622,376.7,621.8,375.8z"/>
		<path class="st6" d="M712.9,192.1c0-0.3,0-0.5,0-0.8c1.8,0,3.7,0,5.5,0c-1.8,0.8-3.3,2.3-5.4,2.3
			C712.9,193.1,712.9,192.6,712.9,192.1z"/>
		<path class="st5" d="M598.5,152.2c0.6,1.8,0.8,3.7,0.8,5.6c-0.8-0.1-0.8-0.6-0.8-1.2C598.4,155.1,598.5,153.7,598.5,152.2z"/>
		<path class="st5" d="M598,146.9c0.1,1.5,0.3,3.1,0.4,4.6C596.9,150.2,597.6,148.5,598,146.9z"/>
		<path class="st4" d="M647.1,461.1c-0.1,0.1-0.3,0.2-0.4,0.3c0,0-0.1-0.1-0.1-0.1C646.7,461.2,646.9,461.2,647.1,461.1
			C647.1,461.1,647.1,461.1,647.1,461.1z"/>
		<path class="st7" d="M816.5,248.2c0-1.1-0.4-2.2,0.3-3.2C816.8,246.1,817.1,247.2,816.5,248.2z"/>
		<path class="st7" d="M625.2,230.4c0.6-0.2,1.3-0.5,1.9-0.7c0.8,0.3,1.1,0.9,0.1,1.2C626.6,231.1,625.7,231.3,625.2,230.4z"/>
		<path class="st7" d="M624,231c0.1-0.1,0.3-0.2,0.4-0.2C624.3,230.8,624.2,230.9,624,231z"/>
		<path class="st7" d="M760.8,281.6c1.1-1.1,4-1.1,5.1,0C764.2,281.6,762.5,281.6,760.8,281.6z"/>
		<path class="st7" d="M721.8,351.8c-1.2,0.8-2.3,1.7-3.9,1.1C719.2,352.2,720.5,351.9,721.8,351.8z"/>
		<path class="st7" d="M717.2,353c-0.8,2-2.6,0.7-3.8,1.1C714.5,353.2,715.9,353.3,717.2,353z"/>
		<path class="st7" d="M722.6,351.4c-0.2,0.1-0.5,0.2-0.7,0.3C722,351.4,722.3,351.4,722.6,351.4z"/>
		<path class="st7" d="M723.8,351.1c-0.1,0.1-0.3,0.2-0.4,0.2C723.5,351.2,723.6,351.2,723.8,351.1z"/>
		<path class="st7" d="M633.4,227.1c-0.1,0.2-0.1,0.6-0.3,0.7c-0.3,0.1-0.4-0.2-0.5-0.4C632.9,227.2,633.1,227.1,633.4,227.1z"/>
	</g>
	<g>
		<path class="st8" d="M1129.5,73.1c58.6,0,117.3,0,175.9,0c2.5,0,2.5,0,2.3,2.6c-0.8,9.6-1.7,19.2-2.5,28.8
			c-0.9,10.2-1.8,20.3-2.7,30.5c-0.9,10.2-1.8,20.3-2.7,30.5c-0.9,10.3-1.8,20.6-2.8,30.9c-0.8,8.7-1.5,17.4-2.3,26
			c-1,10.8-2,21.6-3,32.4c-0.7,8.1-1.4,16.2-2.1,24.3c-0.8,9.4-1.7,18.8-2.6,28.2c-0.6,6.6-1.1,13.2-1.7,19.8
			c-0.7,8-1.5,15.9-2.2,23.9c-0.6,6.5-1.1,13.1-1.7,19.6c-0.7,8-1.5,15.9-2.2,23.9c-0.4,4.9-0.9,9.8-1.3,14.8
			c-0.6,6.7-1.2,13.5-1.8,20.2c-0.2,2.3-0.4,4.5-0.5,6.8c0,1.2-0.5,1.6-1.7,2c-16.3,4.5-32.6,9-48.9,13.5
			c-31.3,8.7-62.7,17.3-94,26.1c-1.5,0.4-2.9,0.3-4.3-0.1c-44.3-12.3-88.7-24.6-133-36.9c-3-0.8-6-1.7-9-2.5c-1.2-0.3-1.7-0.7-1.8-2
			c-0.2-3.6-0.7-7.3-1-10.9c-0.6-6.9-1.2-13.7-1.9-20.6c-0.4-5-0.9-10-1.3-15c-0.6-6.7-1.2-13.3-1.8-20c-0.4-4.9-0.9-9.7-1.3-14.6
			c-0.6-6.9-1.2-13.7-1.9-20.6c-0.4-4.8-0.8-9.6-1.3-14.4c-0.6-6.9-1.2-13.7-1.9-20.6c-0.4-4.9-0.8-9.7-1.3-14.6
			c-0.6-6.8-1.2-13.6-1.8-20.4c-0.4-4.9-0.8-9.7-1.3-14.6c-0.6-6.9-1.2-13.7-1.9-20.6c-0.4-5-0.9-10-1.3-15
			c-0.6-6.6-1.2-13.2-1.8-19.8c-0.4-4.9-0.9-9.8-1.3-14.8c-0.6-6.8-1.2-13.6-1.8-20.4c-0.4-4.8-0.8-9.6-1.3-14.4
			c-0.6-6.9-1.3-13.9-1.9-20.8c-0.4-5.1-0.9-10.1-1.3-15.2c-0.6-6.6-1.2-13.2-1.8-19.8c-0.4-5-0.9-10-1.3-15
			c-0.1-1.4-0.1-1.4,1.3-1.5c0.5,0,1,0,1.6,0C1012.2,73.1,1070.9,73.1,1129.5,73.1z M1128.8,353.9c-0.7,0.1-1.3-0.2-1.9-0.3
			c-8.4-2.3-16.8-4.5-25.2-6.8c-7.1-1.9-14.2-3.8-21.3-5.8c-0.8-0.2-1.5-0.4-1.6-1.5c-0.6-7.4-1.3-14.8-1.9-22.2
			c-0.3-3.5-0.6-7-1-10.5c-0.2-1.9-0.3-1.9-2.2-1.9c-13.5,0-27.1,0-40.6,0c-0.1,0-0.1,0-0.2,0c-2.1,0-2.1,0-1.8,2
			c0.1,0.5,0.1,1,0.2,1.6c0.6,6.5,1.1,13.1,1.7,19.6c0.7,8,1.5,15.9,2.2,23.9c0.6,7.1,1.3,14.2,1.9,21.4c0.2,2,0,1.7,2,2.3
			c27,7.5,54,15,81,22.5c3,0.8,6,1.7,9,2.5c0,14.4,0,28.9,0,43.3c0,0.5,0,0.9,0,1.4c0.1,1.3,0.2,1.5,1.5,1.2c1.3-0.3,2.5-0.7,3.7-1
			c6.4-1.8,12.7-3.5,19.1-5.3c7.5-2.1,15.1-4.3,22.6-6.3c7-1.9,14-3.8,21-5.7c8.5-2.4,16.9-4.8,25.4-7.2c7.9-2.2,15.7-4.3,23.6-6.4
			c1.7-0.5,1.7-0.6,1.7-2.3c0-2.5,0.3-4.9,0.6-7.4c0.2-2.1,0.4-4.2,0.6-6.4c0.2-2.1,0.4-4.1,0.6-6.2c0.1-1.5,0.1-3.1,0.4-4.6
			c0.5-2.2,0.4-4.5,0.6-6.8c0.2-2,0.4-4.1,0.6-6.2c0.1-1.5,0-3.1,0.4-4.6c0.5-2,0.4-4.1,0.6-6.2c0.2-2.2,0.4-4.4,0.6-6.6
			c0.1-1.6,0.1-3.3,0.4-4.8c0.4-2.1,0.4-4.2,0.6-6.4c0.2-2.2,0.3-4.4,0.6-6.6c0.4-3.5,0.7-6.9,1-10.4c0.3-3.7,0.8-7.5,0.9-11.2
			c0.1-1.5,0.1-3.1,0.4-4.6c0.4-2,0.4-4,0.6-6c0.2-2.1,0.5-4.2,0.6-6.4c0.1-1.7,0.1-3.5,0.4-5.2c0.4-2,0.4-4,0.6-6
			c0.2-2.1,0.5-4.2,0.6-6.4c0.1-1.6,0.1-3.3,0.4-4.8c0.5-2.2,0.3-4.4,0.6-6.6c0.3-2.1,0.5-4.2,0.6-6.4c0.1-1.6,0.1-3.2,0.4-4.8
			c0.4-2.1,0.5-4.2,0.6-6.4c0.1-2.2,0.4-4.4,0.6-6.6c0.1-1.5,0.1-3.1,0.4-4.6c0.4-2.1,0.5-4.2,0.6-6.4c0.2-2.2,0.4-4.4,0.6-6.6
			c0.1-1.5,0.1-3.1,0.4-4.6c0.4-2.2,0.5-4.5,0.7-6.7c0.2-2,0.3-4,0.5-6c0.2-2.6,0.3-5.2,0.7-7.7c0.3-1.9,0.2-3.9,0.5-5.8
			c0.3-2.2,0.5-4.4,0.6-6.6c0.2-2.1,0.3-4.3,0.5-6.4c0.4-3.5,0.7-6.9,1-10.4c0.3-3.7,0.8-7.5,0.9-11.2c0-1.4,0.1-2.9,0.4-4.2
			c0.5-2.2,0.4-4.4,0.6-6.6c0.2-2.1,0.4-4.3,0.6-6.4c0.1-1.7,0.1-3.5,0.4-5.2c0.3-2.4,0.6-4.7,0.7-7.1c0.1-1.9,0.3-3.8,0.5-5.6
			c0.5-4,0.6-8,1.1-12c0.2-1.9,0.2-3.9,0.5-5.8c0.3-2.4,0.6-4.7,0.7-7.1c0.1-2.8,0.3-2.6-2.6-2.6c-44.6,0-89.3,0-133.9,0
			c-2.5,0-4.9,0-7.4,0c-1.9,0-2.1,0.1-2.1,2.1c0,5.1,0,10.2,0,15.2c-0.8,0-1.7,0.1-2.5,0.1c-25.9,0-51.8,0-77.7,0
			c-0.5,0-0.9,0-1.4,0c-1.4,0-1.4,0.1-1.5,1.4c-0.4,4-0.8,8-1.2,12c-0.7,7.2-1.4,14.5-2.1,21.7c-0.6,6.9-1.3,13.9-1.9,20.8
			c-0.4,4.8-0.8,9.6-1.3,14.4c-0.6,6.8-1.2,13.6-1.8,20.4c-0.4,4.9-0.9,9.8-1.3,14.8c-0.6,6.6-1.2,13.2-1.8,19.8
			c-0.4,5-0.9,10-1.3,15c-0.6,6.6-1.3,13.2-1.8,19.8c-0.2,2.9-0.6,2.6,2.4,2.6c30.9,0,61.8,0,92.7,0c0.8,0,1.7-0.2,2.5,0.2
			c0,0.8,0,1.6,0,2.3C1128.8,308,1128.8,331,1128.8,353.9z"/>
		<path class="st9" d="M1128.8,119.7c0-5.1,0-10.2,0-15.2c0-2,0.1-2.1,2.1-2.1c2.5,0,4.9,0,7.4,0c44.6,0,89.3,0,133.9,0
			c2.9,0,2.7-0.2,2.6,2.6c-0.1,2.4-0.4,4.8-0.7,7.1c-0.2,1.9-0.2,3.9-0.5,5.8c-0.5,4-0.7,8-1.1,12c-0.2,1.9-0.4,3.7-0.5,5.6
			c-0.1,2.4-0.4,4.8-0.7,7.1c-0.2,1.7-0.2,3.5-0.4,5.2c-0.2,2.1-0.4,4.3-0.6,6.4c-0.2,2.2-0.1,4.4-0.6,6.6c-0.3,1.4-0.4,2.8-0.4,4.2
			c-0.1,3.8-0.6,7.5-0.9,11.2c-0.3,3.5-0.6,6.9-1,10.4c-0.3,2.1-0.4,4.3-0.5,6.4c-0.2,2.2-0.3,4.4-0.6,6.6c-0.3,1.9-0.2,3.9-0.5,5.8
			c-0.4,2.6-0.4,5.1-0.7,7.7c-0.2,2-0.4,4-0.5,6c-0.2,2.2-0.2,4.5-0.7,6.7c-0.3,1.5-0.3,3.1-0.4,4.6c-0.1,2.2-0.4,4.4-0.6,6.6
			c-0.2,2.1-0.2,4.3-0.6,6.4c-0.3,1.5-0.3,3.1-0.4,4.6c-0.1,2.2-0.4,4.4-0.6,6.6c-0.1,2.1-0.2,4.3-0.6,6.4c-0.3,1.6-0.3,3.2-0.4,4.8
			c-0.1,2.1-0.3,4.3-0.6,6.4c-0.3,2.2-0.1,4.4-0.6,6.6c-0.3,1.6-0.3,3.2-0.4,4.8c-0.1,2.1-0.3,4.3-0.6,6.4c-0.2,2-0.2,4-0.6,6
			c-0.4,1.7-0.3,3.5-0.4,5.2c-0.1,2.1-0.3,4.3-0.6,6.4c-0.2,2-0.1,4-0.6,6c-0.3,1.5-0.4,3.1-0.4,4.6c-0.1,3.8-0.6,7.5-0.9,11.2
			c-0.3,3.5-0.6,6.9-1,10.4c-0.2,2.2-0.3,4.4-0.6,6.6c-0.2,2.1-0.2,4.3-0.6,6.4c-0.3,1.6-0.3,3.2-0.4,4.8c-0.1,2.2-0.4,4.4-0.6,6.6
			c-0.2,2-0.1,4.1-0.6,6.2c-0.3,1.5-0.3,3.1-0.4,4.6c-0.2,2.1-0.4,4.1-0.6,6.2c-0.2,2.2-0.1,4.5-0.6,6.8c-0.3,1.5-0.3,3.1-0.4,4.6
			c-0.2,2.1-0.4,4.1-0.6,6.2c-0.2,2.1-0.4,4.2-0.6,6.4c-0.2,2.4-0.6,4.9-0.6,7.4c0,1.7-0.1,1.8-1.7,2.3c-7.9,2.2-15.7,4.3-23.6,6.4
			c-8.5,2.4-16.9,4.8-25.4,7.2c-7,1.9-14,3.8-21,5.7c-7.6,2.1-15.1,4.2-22.6,6.3c-6.4,1.8-12.7,3.5-19.1,5.3c-1.2,0.3-2.5,0.7-3.7,1
			c-1.2,0.3-1.4,0.1-1.5-1.2c0-0.5,0-0.9,0-1.4c0-14.4,0-28.9,0-43.3c0-0.1,0-0.2,0-0.3c0.6-0.1,1.1-0.2,1.7-0.4
			c25.3-7,50.6-14,75.9-21c4.3-1.2,8.5-2.4,12.8-3.5c0.8-0.2,1.3-0.5,1.4-1.5c0.3-4.4,0.8-8.8,1.1-13.2c0.4-4.9,0.8-9.7,1.3-14.6
			c0.6-6.9,1.2-13.7,1.9-20.6c0.4-4.8,0.8-9.6,1.3-14.4c0.6-6.6,1.2-13.2,1.8-19.8c0.5-5.1,0.9-10.1,1.3-15.2
			c0.6-6.9,1.2-13.9,1.9-20.8c0.5-5,0.9-10,1.4-14.9c0.3-2.8,0.3-2.8-2.5-2.8c-31,0-62.1,0-93.1,0c-2.7,0-5.5-0.1-8.2,0.1l0-0.2
			c0-0.8,0-1.6,0-2.3c0-23,0-45.9,0-68.9c0.4,0,0.8-0.1,1.2-0.1c0.8,0,1.7,0.1,2.5,0.1c2.3,0,4.6-0.1,6.8,0.1
			c7.3,0.4,14.5,0.9,21.8,1.4c7.1,0.4,14.2,0.8,21.2,1.2c1.4,0.1,1.4,0.1,1.5,1.4c0.3,3.5,0.6,7,0.9,10.5c0.8,8.5,1.5,17,2.3,25.4
			c0.2,2.6,0.5,5.2,0.7,7.8c0.1,0.9,0.5,1.3,1.3,1.2c0.3,0,0.7,0,1,0c13.5,0,27.1,0,40.6,0c2.1,0,2.1,0,2-2.2c0-0.1,0-0.3,0-0.4
			c-0.6-6.9-1.3-13.7-1.9-20.6c-0.4-4.7-0.8-9.5-1.3-14.2c-0.6-6.7-1.2-13.5-1.8-20.2c-0.4-4.9-0.8-9.8-1.3-14.8
			c-0.6-7-1.2-14-1.8-21c-0.2-2.6,0.3-2.4-2.7-2.4c-27.7,0-55.3,0-83,0c-1.4,0-2.7-0.1-4.1-0.1c-1.6-0.1-3.2-0.3-4.8,0.2
			C1129.6,119.8,1129.2,119.8,1128.8,119.7z"/>
		<path class="st10" d="M1130,166.4c-0.4,0-0.8,0.1-1.2,0.1c-1.6,0-3.1,0-4.7,0c-8.6,0.2-17.3,0.5-25.9,0.7c-3.5,0.1-7,0.2-10.5,0.3
			c-1.3,0-1.4,0.1-1.5,1.4c-0.4,4.6-0.8,9.2-1.3,13.8c-0.6,6.6-1.2,13.2-1.8,19.8c-0.4,4.7-0.8,9.4-1.3,14.2
			c-0.6,6.3-1.2,12.7-1.8,19c-0.2,2.4-0.1,2.1,2,2.1c15,0,29.9,0,44.9,0c0.6,0,1.3-0.1,1.9-0.1c0,0,0,0.2,0,0.2
			c0,14.8,0,29.7,0,44.5c0,0.1,0,0.2,0,0.3c-0.8-0.4-1.7-0.2-2.5-0.2c-30.9,0-61.8,0-92.7,0c-3,0-2.7,0.3-2.4-2.6
			c0.5-6.6,1.2-13.2,1.8-19.8c0.4-5,0.9-10,1.3-15c0.6-6.6,1.2-13.2,1.8-19.8c0.4-4.9,0.9-9.8,1.3-14.8c0.6-6.8,1.2-13.6,1.8-20.4
			c0.4-4.8,0.8-9.6,1.3-14.4c0.6-6.9,1.2-13.9,1.9-20.8c0.7-7.2,1.4-14.5,2.1-21.7c0.4-4,0.8-8,1.2-12c0.1-1.3,0.2-1.4,1.5-1.4
			c0.5,0,0.9,0,1.4,0c25.9,0,51.8,0,77.7,0c0.8,0,1.7-0.1,2.5-0.1c0.4,0,0.8,0.1,1.2,0.1C1130,135.4,1130,150.9,1130,166.4z"/>
		<path class="st10" d="M1128.8,400.5c0,0.1,0,0.2,0,0.3c-3-0.8-6-1.7-9-2.5c-27-7.5-54-15-81-22.5c-2-0.5-1.8-0.2-2-2.3
			c-0.6-7.1-1.3-14.2-1.9-21.4c-0.7-8-1.5-15.9-2.2-23.9c-0.6-6.5-1.1-13.1-1.7-19.6c0-0.5-0.1-1-0.2-1.6c-0.3-2-0.3-2,1.8-2
			c0.1,0,0.1,0,0.2,0c13.5,0,27.1,0,40.6,0c2,0,2,0,2.2,1.9c0.4,3.5,0.7,7,1,10.5c0.7,7.4,1.3,14.8,1.9,22.2
			c0.1,1.2,0.8,1.3,1.6,1.5c7.1,1.9,14.2,3.8,21.3,5.8c8.4,2.3,16.8,4.5,25.2,6.8c0.6,0.2,1.2,0.4,1.9,0.3c0,0.1,0,0.2,0,0.3
			c0,5.7,0,11.4,0,17.1C1128.8,381,1128.8,390.8,1128.8,400.5z"/>
		<path class="st9" d="M1128.8,353.9c0-23,0-45.9,0-68.9c0-0.8,0-1.6,0-2.3c0-0.1,0-0.2,0-0.3c0.8,0.2,1.6,0.1,2.3,0.1
			c16.7,0,33.5,0,50.2,0c0.5,0,0.9,0,1.4,0c1-0.1,1.2,0.4,1.1,1.3c0,0.3,0,0.5-0.1,0.8c-0.5,5-0.9,10-1.4,14.9
			c-0.5,5.1-0.9,10.2-1.3,15.4c-0.7,8-1.5,15.9-2.2,23.9c-0.2,1.8-0.1,1.8-1.9,2.3c-10,2.7-20.1,5.4-30.1,8.2c-6,1.6-12,3.3-18,5
			C1128.8,354.1,1128.8,354,1128.8,353.9z"/>
		<path class="st8" d="M1128.8,237.7c-0.6,0-1.3,0.1-1.9,0.1c-15,0-29.9,0-44.9,0c-2.1,0-2.2,0.3-2-2.1c0.6-6.3,1.2-12.7,1.8-19
			c0.4-4.7,0.8-9.4,1.3-14.2c0.6-6.6,1.2-13.2,1.8-19.8c0.4-4.6,0.8-9.2,1.3-13.8c0.1-1.4,0.1-1.4,1.5-1.4c3.5-0.1,7-0.2,10.5-0.3
			c8.6-0.2,17.3-0.5,25.9-0.7c1.6,0,3.1,0,4.7,0c0,23,0,45.9,0,68.9C1128.8,236.2,1128.8,237,1128.8,237.7z"/>
	</g>
</g>
<g>
	<g>
		<line class="st11" x1="401.8" y1="518" x2="1020.7" y2="518"/>
		<g>
			<path class="st12" d="M402.5,532.5c-8,0-14.5-6.5-14.5-14.5c0-8,6.5-14.5,14.5-14.5c8,0,14.5,6.5,14.5,14.5
				C416.9,526,410.5,532.5,402.5,532.5z"/>
		</g>
		<g>
			<path class="st12" d="M1019.9,532.5c8,0,14.5-6.5,14.5-14.5c0-8-6.5-14.5-14.5-14.5c-8,0-14.5,6.5-14.5,14.5
				C1005.5,526,1011.9,532.5,1019.9,532.5z"/>
		</g>
	</g>
</g>
<text transform="matrix(1 0 0 1 313.3713 583.4912)" class="st13"><tspan x="0" y="0" class="st14 st15 st16">Strong Foundation With </tspan><tspan x="409.6" y="0" class="st17 st18 st16">HTML5</tspan><tspan x="535.7" y="0" class="st17 st15 st16">,</tspan><tspan x="543.7" y="0" class="st14 st15 st16"> </tspan><tspan x="552.7" y="0" class="st19 st18 st16">CSS3</tspan><tspan x="642.2" y="0" class="st14 st18 st16"> </tspan><tspan x="651.2" y="0" class="st14 st15 st16">&amp; </tspan><tspan x="687.9" y="0" class="st20 st18 st16">JS ES6</tspan></text>
<g>
	<path d="M317.3,583.3l-1.5-0.2l0.2-1.4c3.8,0.5,6.6,0.7,8.5,0.7c4.8,0,7.2-2.4,7.2-7.1c0-1.3-0.2-2.3-0.5-3c-0.4-0.7-1-1.3-2-1.7
		c-1-0.4-2.5-0.8-4.6-1.1c-2.3-0.4-4.1-0.8-5.3-1.3s-2.1-1.3-2.7-2.3s-0.9-2.4-0.9-4.2c0-2.4,0.7-4.2,2.1-5.4
		c1.4-1.2,3.7-1.8,6.7-1.8c2.4,0,5.1,0.2,8.1,0.6l-0.2,1.5c-4.1-0.5-6.8-0.7-8-0.7c-4.8,0-7.2,1.9-7.2,5.7c0,1.6,0.2,2.7,0.5,3.4
		c0.3,0.7,1,1.3,2,1.7c1,0.4,2.8,0.9,5.2,1.3c2.1,0.4,3.7,0.8,4.9,1.3c1.2,0.5,2,1.2,2.6,2.2c0.5,0.9,0.8,2.2,0.8,3.8
		c0,2.9-0.7,5.1-2,6.5c-1.4,1.4-3.6,2.1-6.6,2.1C323.1,583.8,320.6,583.6,317.3,583.3z"/>
	<path d="M341.4,583.3c-0.7-0.4-1.2-1.2-1.5-2.2c-0.3-1-0.5-2.5-0.5-4.5v-12.3h-3.2v-1.3h3.2v-6.6h1.4v6.6h7.5v1.3h-7.5v10.7
		c0,2.1,0.1,3.6,0.2,4.6c0.1,1,0.5,1.7,1,2.2c0.5,0.5,1.4,0.7,2.5,0.7l4-0.4l0.2,1.3c-2.2,0.2-3.7,0.3-4.4,0.3
		C343.1,583.9,342.2,583.7,341.4,583.3z"/>
	<path d="M352.2,563.1h1.4v3.2c2.4-1.8,5.1-3,8.1-3.6v1.5c-1.1,0.2-2.4,0.6-3.9,1.2s-2.4,1.1-3,1.6l-1.2,0.7v15.9h-1.4V563.1z"/>
	<path d="M367.3,582.9c-1.2-0.6-2-1.7-2.5-3.1c-0.4-1.5-0.7-3.5-0.7-6.2c0-2.8,0.2-5,0.7-6.6c0.5-1.5,1.3-2.6,2.5-3.3
		c1.2-0.7,2.9-1,5.1-1c2.2,0,3.9,0.3,5.1,1c1.2,0.7,2,1.8,2.5,3.3c0.5,1.5,0.7,3.7,0.7,6.5c0,2.7-0.2,4.8-0.7,6.2
		c-0.4,1.4-1.2,2.5-2.4,3.1c-1.2,0.7-2.9,1-5.2,1C370.2,583.9,368.4,583.5,367.3,582.9z M376.8,581.7c0.9-0.6,1.6-1.5,1.9-2.7
		c0.3-1.2,0.5-3.1,0.5-5.5c0-2.6-0.2-4.5-0.5-5.9c-0.4-1.3-1-2.3-1.9-2.8c-0.9-0.5-2.3-0.8-4.2-0.8c-1.9,0-3.3,0.3-4.3,0.8
		c-1,0.5-1.6,1.5-2,2.8s-0.6,3.3-0.6,5.8c0,2.4,0.2,4.2,0.5,5.4c0.3,1.3,1,2.2,2,2.7c1,0.6,2.4,0.8,4.4,0.8
		C374.4,582.5,375.9,582.2,376.8,581.7z"/>
	<path d="M386.4,563.1h1.4v1.6c1.4-0.7,2.7-1.3,3.8-1.6c1.2-0.3,2.3-0.4,3.6-0.4c1.8,0,3.1,0.3,4,0.9c0.9,0.6,1.6,1.6,1.9,3.1
		s0.6,3.5,0.6,6.3v10.6h-1.4v-10.6c0-2.3-0.1-4.1-0.4-5.4c-0.3-1.3-0.7-2.2-1.4-2.7c-0.7-0.5-1.7-0.8-3-0.8c-1.2,0-2.5,0.2-3.7,0.5
		c-1.3,0.3-2.2,0.7-2.9,1l-1,0.5v17.4h-1.4V563.1z"/>
	<path d="M410,592.6c-1.1-0.4-1.9-1.1-2.3-2s-0.6-2.1-0.6-3.6c0-1,0.1-1.8,0.3-2.3c0.2-0.6,0.5-1,0.9-1.4c0.4-0.4,1.1-1,2.2-1.8
		c-0.3-0.2-0.5-0.5-0.7-1c-0.1-0.5-0.2-1-0.2-1.5c0-0.3,0.1-0.7,0.2-1.1c0.1-0.4,0.5-1.2,1-2.2c-2.3-0.7-3.5-2.8-3.5-6.2
		c0-2.3,0.6-4,1.7-5.1c1.1-1.1,2.9-1.7,5.5-1.7c1.3,0,2.7,0.2,4.2,0.5l5.7-0.1v1.4l-4.5,0c0.5,0.4,1,1,1.2,1.9
		c0.3,0.9,0.4,1.9,0.4,3.1c0,2.4-0.6,4.1-1.8,5.1c-1.2,1-3.1,1.5-5.6,1.5c-0.9,0-1.6-0.1-2.2-0.2l-0.3,0.8c-0.2,0.5-0.3,0.9-0.4,1.2
		c-0.1,0.4-0.2,0.7-0.2,1c0,0.8,0.3,1.4,0.9,1.6s1.5,0.4,2.6,0.4l2.8,0c1.5,0,2.7,0.2,3.6,0.4c0.9,0.3,1.6,0.9,2.1,1.7
		c0.5,0.8,0.8,2,0.8,3.5c0,1.5-0.3,2.8-0.8,3.7c-0.5,0.9-1.5,1.6-2.8,2.1s-3.1,0.7-5.3,0.7C412.7,593.2,411.1,593,410,592.6z
		 M419.4,591.4c1-0.3,1.8-0.9,2.2-1.7c0.4-0.8,0.7-1.8,0.7-3.2c0-1.1-0.1-2-0.4-2.6s-0.8-1-1.7-1.2c-0.8-0.2-2.1-0.4-3.8-0.3
		l-4.9-0.2c-0.9,0.6-1.6,1.1-2,1.5s-0.7,0.8-0.9,1.3c-0.2,0.5-0.2,1.1-0.2,1.9c0,1.3,0.2,2.3,0.6,3c0.4,0.7,1.1,1.2,2,1.5
		c0.9,0.3,2.3,0.4,4,0.4C416.9,592,418.4,591.8,419.4,591.4z M418.8,573.7c0.8-0.8,1.3-2.2,1.3-4.3c0-2-0.4-3.4-1.2-4.2
		c-0.8-0.8-2.3-1.2-4.3-1.2c-2.1,0-3.6,0.4-4.5,1.2c-0.9,0.8-1.3,2.3-1.3,4.3c0,2,0.4,3.4,1.3,4.2c0.9,0.8,2.3,1.2,4.4,1.2
		C416.5,574.9,418,574.5,418.8,573.7z"/>
	<path d="M439.4,556.2v13h12.8v1.3h-12.8v13h-1.5v-28.6h16.4v1.3H439.4z"/>
	<path d="M460.3,582.9c-1.2-0.6-2-1.7-2.5-3.1c-0.4-1.5-0.7-3.5-0.7-6.2c0-2.8,0.2-5,0.7-6.6c0.5-1.5,1.3-2.6,2.5-3.3
		c1.2-0.7,2.9-1,5.1-1c2.2,0,3.9,0.3,5.1,1c1.2,0.7,2,1.8,2.5,3.3c0.5,1.5,0.7,3.7,0.7,6.5c0,2.7-0.2,4.8-0.7,6.2
		c-0.4,1.4-1.2,2.5-2.4,3.1c-1.2,0.7-2.9,1-5.2,1C463.2,583.9,461.4,583.5,460.3,582.9z M469.8,581.7c0.9-0.6,1.6-1.5,1.9-2.7
		c0.3-1.2,0.5-3.1,0.5-5.5c0-2.6-0.2-4.5-0.5-5.9c-0.4-1.3-1-2.3-1.9-2.8c-0.9-0.5-2.3-0.8-4.2-0.8c-1.9,0-3.3,0.3-4.3,0.8
		c-1,0.5-1.6,1.5-2,2.8s-0.6,3.3-0.6,5.8c0,2.4,0.2,4.2,0.5,5.4c0.3,1.3,1,2.2,2,2.7c1,0.6,2.4,0.8,4.4,0.8
		C467.4,582.5,468.9,582.2,469.8,581.7z"/>
	<path d="M481.6,583c-0.9-0.6-1.5-1.6-1.9-3c-0.4-1.4-0.5-3.5-0.5-6.3v-10.6h1.4v10.5c0,2.4,0.1,4.3,0.4,5.5
		c0.3,1.3,0.7,2.1,1.5,2.7s1.8,0.8,3.1,0.8c1.3,0,2.6-0.2,3.7-0.6c1.2-0.4,2.3-0.9,3.2-1.5v-17.4h1.5v20.4h-1.5v-1.6
		c-1.1,0.7-2.1,1.2-3.2,1.5c-1.1,0.3-2.3,0.5-3.7,0.5C483.8,583.9,482.5,583.6,481.6,583z"/>
	<path d="M500.5,563.1h1.4v1.6c1.4-0.7,2.7-1.3,3.8-1.6c1.2-0.3,2.3-0.4,3.6-0.4c1.8,0,3.1,0.3,4,0.9c0.9,0.6,1.6,1.6,1.9,3.1
		s0.6,3.5,0.6,6.3v10.6h-1.4v-10.6c0-2.3-0.1-4.1-0.4-5.4c-0.3-1.3-0.7-2.2-1.4-2.7c-0.7-0.5-1.7-0.8-3-0.8c-1.2,0-2.5,0.2-3.7,0.5
		c-1.3,0.3-2.2,0.7-2.9,1l-1,0.5v17.4h-1.4V563.1z"/>
	<path d="M522.7,581.4c-1.1-1.6-1.6-4.2-1.6-7.7c0-2.6,0.3-4.8,0.9-6.4s1.5-2.8,2.8-3.5c1.3-0.7,3.1-1.1,5.3-1.1
		c0.8,0,1.7,0,2.6,0.1c0.9,0.1,1.7,0.2,2.4,0.4v-9.6h1.4v29.8h-1.4v-1.8c-2.2,1.4-4.5,2.1-7.1,2.1
		C525.6,583.9,523.8,583,522.7,581.4z M531.5,582c1.2-0.4,2.1-0.7,2.6-1.1l1-0.5v-15.9c-2-0.4-3.7-0.6-5.3-0.6c-1.8,0-3.3,0.3-4.3,1
		c-1,0.7-1.8,1.7-2.2,3c-0.4,1.3-0.7,3.1-0.7,5.4c0,3.1,0.4,5.3,1.2,6.9c0.8,1.5,2.2,2.3,4.3,2.3C529.2,582.6,530.3,582.4,531.5,582
		z"/>
	<path d="M543.2,582.3c-0.9-1-1.4-2.5-1.4-4.3s0.5-3.2,1.4-4.2c0.9-1,2.3-1.6,4.3-1.9l7.8-0.8v-2.1c0-1.7-0.4-2.9-1.1-3.8
		c-0.7-0.8-1.7-1.2-2.9-1.2c-1.2,0-2.3,0-3.2,0.1c-0.9,0.1-2.6,0.3-5.1,0.6l-0.1-1.3c2.8-0.5,5.4-0.7,7.7-0.7c2.1,0,3.6,0.5,4.6,1.6
		c1,1,1.5,2.7,1.5,4.8v11.8c0,0.4,0.3,0.8,0.9,1.1s1.3,0.5,2.2,0.6l-0.1,1.3c-0.9,0-1.7-0.2-2.5-0.5c-0.8-0.3-1.3-0.8-1.7-1.3
		c-2.7,1.2-5.5,1.8-8.3,1.8C545.4,583.9,544.1,583.3,543.2,582.3z M554.1,581.3l1.1-0.4v-8.3l-7.6,0.7c-1.5,0.1-2.6,0.5-3.2,1.2
		c-0.7,0.7-1,1.8-1,3.2c0,3.2,1.3,4.7,3.8,4.7C549.6,582.5,551.9,582.1,554.1,581.3z"/>
	<path d="M566.5,583.3c-0.7-0.4-1.2-1.2-1.5-2.2c-0.3-1-0.5-2.5-0.5-4.5v-12.3h-3.2v-1.3h3.2v-6.6h1.4v6.6h7.5v1.3h-7.5v10.7
		c0,2.1,0.1,3.6,0.2,4.6c0.1,1,0.5,1.7,1,2.2c0.5,0.5,1.4,0.7,2.5,0.7l4-0.4l0.2,1.3c-2.2,0.2-3.7,0.3-4.4,0.3
		C568.2,583.9,567.2,583.7,566.5,583.3z"/>
	<path d="M577.2,554.9h1.4v2.2h-1.4V554.9z M577.2,563.1h1.4v20.4h-1.4V563.1z"/>
	<path d="M587.1,582.9c-1.2-0.6-2-1.7-2.5-3.1c-0.4-1.5-0.7-3.5-0.7-6.2c0-2.8,0.2-5,0.7-6.6c0.5-1.5,1.3-2.6,2.5-3.3
		c1.2-0.7,2.9-1,5.1-1c2.2,0,3.9,0.3,5.1,1c1.2,0.7,2,1.8,2.5,3.3c0.5,1.5,0.7,3.7,0.7,6.5c0,2.7-0.2,4.8-0.7,6.2
		c-0.4,1.4-1.2,2.5-2.4,3.1c-1.2,0.7-2.9,1-5.2,1C590,583.9,588.2,583.5,587.1,582.9z M596.6,581.7c0.9-0.6,1.6-1.5,1.9-2.7
		c0.3-1.2,0.5-3.1,0.5-5.5c0-2.6-0.2-4.5-0.5-5.9c-0.4-1.3-1-2.3-1.9-2.8c-0.9-0.5-2.3-0.8-4.2-0.8c-1.9,0-3.3,0.3-4.3,0.8
		c-1,0.5-1.6,1.5-2,2.8s-0.6,3.3-0.6,5.8c0,2.4,0.2,4.2,0.5,5.4c0.3,1.3,1,2.2,2,2.7c1,0.6,2.4,0.8,4.4,0.8
		C594.2,582.5,595.7,582.2,596.6,581.7z"/>
	<path d="M606.2,563.1h1.4v1.6c1.4-0.7,2.7-1.3,3.8-1.6c1.2-0.3,2.3-0.4,3.6-0.4c1.8,0,3.1,0.3,4,0.9c0.9,0.6,1.6,1.6,1.9,3.1
		s0.6,3.5,0.6,6.3v10.6h-1.4v-10.6c0-2.3-0.1-4.1-0.4-5.4c-0.3-1.3-0.7-2.2-1.4-2.7c-0.7-0.5-1.7-0.8-3-0.8c-1.2,0-2.5,0.2-3.7,0.5
		c-1.3,0.3-2.2,0.7-2.9,1l-1,0.5v17.4h-1.4V563.1z"/>
	<path d="M635,554.9h1.5l5.8,27.2h1.6l6.3-26.8h1.8l6.3,26.8h1.6l5.8-27.2h1.4l-6,28.6H657l-6-26.2l-6,26.2h-3.9L635,554.9z"/>
	<path d="M671.7,554.9h1.4v2.2h-1.4V554.9z M671.7,563.1h1.4v20.4h-1.4V563.1z"/>
	<path d="M682,583.3c-0.7-0.4-1.2-1.2-1.5-2.2c-0.3-1-0.5-2.5-0.5-4.5v-12.3h-3.2v-1.3h3.2v-6.6h1.4v6.6h7.5v1.3h-7.5v10.7
		c0,2.1,0.1,3.6,0.2,4.6c0.1,1,0.5,1.7,1,2.2c0.5,0.5,1.4,0.7,2.5,0.7l4-0.4l0.2,1.3c-2.2,0.2-3.7,0.3-4.4,0.3
		C683.7,583.9,682.7,583.7,682,583.3z"/>
	<path d="M692.8,553.7h1.4v10.7c2.5-1.1,4.9-1.6,7.2-1.6c1.8,0,3.2,0.3,4.1,0.9c0.9,0.6,1.6,1.6,2,3c0.4,1.4,0.6,3.5,0.6,6.3v10.6
		h-1.5v-10.5c0-2.5-0.1-4.4-0.4-5.6c-0.3-1.2-0.8-2.1-1.5-2.6c-0.8-0.5-1.9-0.7-3.4-0.7c-1.1,0-2.2,0.1-3.1,0.3
		c-1,0.2-1.9,0.5-3,0.9l-0.9,0.4v17.9h-1.4V553.7z"/>
	<path class="st0" d="M744.3,555.4v28.1h-3.9v-12.4h-13.1v12.4h-3.9v-28.1h3.9v12.3h13.1v-12.3H744.3z"/>
	<path class="st0" d="M756.5,558.8h-8.3v-3.5h20.4v3.5h-8.2v24.6h-3.9V558.8z"/>
	<path class="st0" d="M800.3,555.4v28.1h-3.9v-23.9h-0.6l-7.3,22.8h-4.2l-7.4-22.8h-0.6v23.9h-3.9v-28.1h6.9l7.1,22.9l7-22.9H800.3z
		"/>
	<path class="st0" d="M822.7,580v3.5H807v-28.1h3.9V580H822.7z"/>
	<path class="st0" d="M827,582.9l-1.4-0.3l0.4-3c3.2,0.6,5.9,0.9,8,0.9c1.9,0,3.3-0.5,4.3-1.5c1-1,1.5-2.4,1.5-4.2
		c0-1.7-0.4-3-1.3-3.8c-0.8-0.8-2.1-1.2-3.8-1.2c-0.9,0-1.8,0.1-2.8,0.3c-1,0.2-1.8,0.4-2.5,0.7l-0.8,0.3l-2.5-0.5l0.7-14.2h16v3.5
		h-12.8l-0.7,7.9c2-1,4-1.5,5.9-1.5c5.7,0,8.6,2.7,8.6,8c0,3-0.8,5.4-2.4,7s-3.8,2.5-6.7,2.5C832.4,583.9,829.9,583.6,827,582.9z"/>
	<path class="st0" d="M849.6,579.9h1.6l-2.1,8.6h-1.3L849.6,579.9z"/>
	<path class="st4" d="M869.4,582.3c-1.6-1.1-2.6-2.6-3.2-4.7c-0.6-2.1-0.9-4.8-0.9-8.2c0-3.5,0.3-6.3,0.9-8.3
		c0.6-2.1,1.7-3.6,3.2-4.7c1.5-1,3.7-1.6,6.4-1.6c2.3,0,4.9,0.3,7.8,1l-0.1,3.2c-2.6-0.5-4.9-0.7-6.9-0.7s-3.6,0.4-4.6,1.1
		s-1.7,1.9-2.1,3.5c-0.4,1.6-0.5,3.9-0.5,7c0,2.6,0.2,4.7,0.5,6.1c0.3,1.4,1,2.5,2.1,3.2s2.6,1.1,4.8,1.1c1.8,0,4-0.2,6.7-0.7
		l0.1,3.3c-3,0.6-5.5,0.9-7.6,0.9C873.2,583.9,871,583.4,869.4,582.3z"/>
	<path class="st4" d="M888.9,583.1l-1.5-0.2l0.4-3.1c3.7,0.5,6.5,0.7,8.4,0.7c3.7,0,5.5-1.7,5.5-5c0-0.9-0.2-1.7-0.6-2.2
		c-0.4-0.6-1-1-1.8-1.3s-2-0.7-3.5-1c-2.2-0.5-3.9-1.1-5.1-1.7c-1.2-0.6-2.1-1.5-2.7-2.5s-0.9-2.3-0.9-4c0-2.6,0.8-4.5,2.3-5.8
		s3.8-2,6.9-2c1.1,0,2.3,0.1,3.6,0.2c1.3,0.1,3,0.4,5.1,0.7l-0.3,3.2c-3.7-0.4-6.4-0.7-8.1-0.7c-3.7,0-5.6,1.4-5.6,4.1
		c0,1,0.2,1.8,0.6,2.4c0.4,0.6,1.1,1,2,1.4c0.9,0.4,2.3,0.8,4.2,1.2c2,0.5,3.5,1,4.6,1.6c1.1,0.6,1.9,1.4,2.4,2.3
		c0.5,1,0.8,2.2,0.8,3.8c0,2.9-0.8,5.1-2.3,6.5c-1.6,1.5-3.8,2.2-6.8,2.2C894.6,583.9,892,583.6,888.9,583.1z"/>
	<path class="st4" d="M911,583.1l-1.5-0.2l0.4-3.1c3.7,0.5,6.5,0.7,8.4,0.7c3.7,0,5.5-1.7,5.5-5c0-0.9-0.2-1.7-0.6-2.2
		c-0.4-0.6-1-1-1.8-1.3s-2-0.7-3.5-1c-2.2-0.5-3.9-1.1-5.1-1.7c-1.2-0.6-2.1-1.5-2.7-2.5s-0.9-2.3-0.9-4c0-2.6,0.8-4.5,2.3-5.8
		s3.8-2,6.9-2c1.1,0,2.3,0.1,3.6,0.2c1.3,0.1,3,0.4,5.1,0.7l-0.3,3.2c-3.7-0.4-6.4-0.7-8.1-0.7c-3.7,0-5.6,1.4-5.6,4.1
		c0,1,0.2,1.8,0.6,2.4c0.4,0.6,1.1,1,2,1.4c0.9,0.4,2.3,0.8,4.2,1.2c2,0.5,3.5,1,4.6,1.6c1.1,0.6,1.9,1.4,2.4,2.3
		c0.5,1,0.8,2.2,0.8,3.8c0,2.9-0.8,5.1-2.3,6.5c-1.6,1.5-3.8,2.2-6.8,2.2C916.8,583.9,914.2,583.6,911,583.1z"/>
	<path class="st4" d="M933.4,583l-1.3-0.3l0.3-3.1c3,0.6,5.5,0.9,7.4,0.9c1.9,0,3.4-0.4,4.5-1.1c1.1-0.7,1.6-1.9,1.6-3.6
		c0-1.5-0.4-2.6-1.3-3.4c-0.9-0.8-2.1-1.2-3.8-1.2h-5.4v-3.3h5.4c0.7,0,1.4-0.2,2.1-0.6c0.7-0.4,1.3-0.9,1.7-1.7
		c0.4-0.7,0.7-1.5,0.7-2.4c0-1.3-0.4-2.3-1.2-2.9c-0.8-0.6-2.1-0.9-4-0.9c-1.8,0-3.9,0.2-6.2,0.6l-1.1,0.2l-0.3-3
		c2.5-0.8,5.3-1.2,8.3-1.2c3,0,5.1,0.6,6.5,1.7c1.3,1.1,2,2.9,2,5.4c0,1.4-0.3,2.6-1,3.7c-0.6,1.1-1.6,1.9-2.8,2.5
		c1.1,0.4,1.9,0.9,2.5,1.4c0.6,0.5,1.1,1.1,1.4,1.9s0.5,1.8,0.5,3.1c0,2.8-0.7,4.9-2.1,6.2c-1.4,1.3-3.7,2-6.8,2
		C938.7,583.9,936.2,583.6,933.4,583z"/>
	<path d="M965.7,581.7c-1.5-1.5-2.2-3.6-2.2-6.5c0-1.8,0.3-3.2,0.8-4.3c0.5-1.1,1.2-1.9,2.2-2.6c1-0.6,2.2-1.1,3.7-1.6
		c-0.7-0.7-1.2-1.5-1.5-2.3c-0.4-0.9-0.6-1.9-0.6-3.1c0-2.1,0.5-3.6,1.6-4.7c1.1-1,2.6-1.6,4.7-1.6c2,0,3.6,0.5,4.6,1.5
		c1,1,1.6,2.5,1.6,4.4c0,1.9-0.5,3.4-1.6,4.5c-1,1.1-2.8,2.1-5.2,2.9l7.7,7.5c0.4-1.2,0.7-2.4,0.9-3.4s0.4-2.4,0.5-4.1l1.4,0
		c-0.4,3.8-1,6.7-1.8,8.7l5.7,5.6l-1,1l-5.4-5.3c-1.1,2.1-2.3,3.5-3.8,4.3c-1.4,0.7-3.2,1.1-5.3,1.1
		C969.5,583.9,967.1,583.1,965.7,581.7z M977.8,581.3c1.2-0.8,2.3-2.1,3-3.8l-9.6-9.6c-1.5,0.4-2.7,0.9-3.6,1.4
		c-0.9,0.5-1.6,1.2-2,2.1c-0.4,0.9-0.7,2.1-0.7,3.6c0,2.6,0.6,4.5,1.9,5.7c1.3,1.2,3.2,1.8,5.9,1.8
		C974.9,582.5,976.6,582.1,977.8,581.3z M977.7,565c1-0.9,1.4-2.2,1.4-3.8c0-1.6-0.4-2.8-1.2-3.6c-0.8-0.8-2-1.1-3.7-1.1
		c-1.6,0-2.8,0.4-3.6,1.1c-0.8,0.8-1.2,1.9-1.2,3.5c0,2,0.6,3.7,1.8,5l1.5,1.4C975.2,566.7,976.8,565.9,977.7,565z"/>
	<path class="st8" d="M999,583c1.2,0,2.1-0.1,2.7-0.3c0.6-0.2,1-0.6,1.2-1.1c0.2-0.5,0.3-1.4,0.3-2.6v-23.6h3.9l0,24
		c0,2-0.3,3.6-0.9,4.6c-0.6,1-1.4,1.7-2.6,2c-1.1,0.3-2.7,0.5-4.7,0.5V583z"/>
	<path class="st8" d="M1013.8,583.1l-1.5-0.2l0.4-3.1c3.7,0.5,6.5,0.7,8.4,0.7c3.7,0,5.5-1.7,5.5-5c0-0.9-0.2-1.7-0.6-2.2
		c-0.4-0.6-1-1-1.8-1.3c-0.8-0.3-2-0.7-3.5-1c-2.2-0.5-3.9-1.1-5.1-1.7c-1.2-0.6-2.1-1.5-2.7-2.5s-0.9-2.3-0.9-4
		c0-2.6,0.8-4.5,2.3-5.8s3.8-2,6.9-2c1.1,0,2.3,0.1,3.6,0.2c1.3,0.1,3,0.4,5.1,0.7l-0.3,3.2c-3.7-0.4-6.4-0.7-8.1-0.7
		c-3.7,0-5.6,1.4-5.6,4.1c0,1,0.2,1.8,0.6,2.4c0.4,0.6,1.1,1,2,1.4c0.9,0.4,2.3,0.8,4.2,1.2c2,0.5,3.5,1,4.6,1.6
		c1.1,0.6,1.9,1.4,2.4,2.3c0.5,1,0.8,2.2,0.8,3.8c0,2.9-0.8,5.1-2.3,6.5c-1.6,1.5-3.8,2.2-6.8,2.2
		C1019.5,583.9,1017,583.6,1013.8,583.1z"/>
	<path class="st8" d="M1048.7,558.8v8.7h11v3.4h-11v9.1h13.5v3.4h-17.4v-28.1h17.4v3.4H1048.7z"/>
	<path class="st8" d="M1067.5,583.1l-1.5-0.2l0.4-3.1c3.7,0.5,6.5,0.7,8.4,0.7c3.7,0,5.5-1.7,5.5-5c0-0.9-0.2-1.7-0.6-2.2
		c-0.4-0.6-1-1-1.8-1.3s-2-0.7-3.5-1c-2.2-0.5-3.9-1.1-5.1-1.7c-1.2-0.6-2.1-1.5-2.7-2.5s-0.9-2.3-0.9-4c0-2.6,0.8-4.5,2.3-5.8
		s3.8-2,6.9-2c1.1,0,2.3,0.1,3.6,0.2c1.3,0.1,3,0.4,5.1,0.7l-0.3,3.2c-3.7-0.4-6.4-0.7-8.1-0.7c-3.7,0-5.6,1.4-5.6,4.1
		c0,1,0.2,1.8,0.6,2.4c0.4,0.6,1.1,1,2,1.4c0.9,0.4,2.3,0.8,4.2,1.2c2,0.5,3.5,1,4.6,1.6c1.1,0.6,1.9,1.4,2.4,2.3
		c0.5,1,0.8,2.2,0.8,3.8c0,2.9-0.8,5.1-2.3,6.5c-1.6,1.5-3.8,2.2-6.8,2.2C1073.2,583.9,1070.7,583.6,1067.5,583.1z"/>
	<path class="st8" d="M1090.4,580.4c-1.6-2.4-2.5-5.9-2.5-10.6c0-4.6,0.9-8.1,2.8-10.4c1.9-2.3,4.5-3.4,8-3.4c2.2,0,4.3,0.2,6.5,0.6
		l1.1,0.2l-0.4,3.1c-2.8-0.4-5.1-0.5-7.2-0.5c-2.2,0-3.9,0.7-5,2.1c-1.2,1.4-1.7,3.5-1.7,6.3l0.9-0.4c0.8-0.3,1.7-0.6,2.7-0.8
		c1-0.2,1.8-0.3,2.6-0.3c6.1,0,9.2,2.8,9.2,8.5c0,2.9-0.8,5.1-2.5,6.7s-4.1,2.3-7.2,2.3C1094.5,583.9,1092.1,582.8,1090.4,580.4z
		 M1102,579.1c1-0.9,1.4-2.3,1.4-4c0-1.7-0.5-3-1.4-3.8c-0.9-0.8-2.3-1.3-4-1.3c-0.8,0-1.6,0.1-2.6,0.3c-0.9,0.2-1.8,0.4-2.6,0.7
		l-0.9,0.4c0,2.9,0.5,5.2,1.5,6.8s2.4,2.4,4.3,2.4C1099.6,580.5,1101,580,1102,579.1z"/>
</g>
</svg>
