<?xml version="1.0" encoding="utf-8"?>
<!-- Generator: Adobe Illustrator 22.0.1, SVG Export Plug-In . SVG Version: 6.00 Build 0)  -->
<svg version="1.1" id="Layer_1" xmlns="http://www.w3.org/2000/svg" xmlns:xlink="http://www.w3.org/1999/xlink" x="0px" y="0px"
	 viewBox="0 0 4451 6106.1" style="enable-background:new 0 0 4451 6106.1;" xml:space="preserve">
<style type="text/css">
	.st0{display:none;}
	.st1{display:inline;opacity:0.6;}
	.st2{fill:none;stroke:#121212;stroke-width:30;stroke-linecap:round;stroke-miterlimit:10;}
	.st3{fill:#121212;}
	.st4{display:inline;}
	.st5{display:inline;fill:#007AFF;}
	.st6{display:inline;fill:#E23237;}
	.st7{display:inline;fill:#121212;}
	.st8{font-family:'Cairo-Light';}
	.st9{font-size:236.2701px;}
	.st10{font-size:276.8966px;}
	.st11{font-family:'Cairo-ExtraLight';}
	.st12{font-size:275.1063px;}
	.st13{fill:#3A6AAF;}
	.st14{fill:#4F6F99;}
	.st15{fill:#4C9FD4;}
	.st16{fill:#E4E2E2;}
	.st17{fill:#EDC622;}
	.st18{fill:#F9DD33;}
	.st19{fill:#EAEAEA;}
	.st20{fill:#FFFFFF;}
	.st21{fill:#E55026;}
	.st22{fill:#F0672A;}
	.st23{fill:#EBEAEA;}
	.st24{fill:#E58B74;}
	.st25{fill:none;stroke:#2D2D2D;stroke-width:50;stroke-miterlimit:10;}
	.st26{fill:#2D2D2D;}
	.st27{fill:#231F20;}
</style>
<g class="st0">
	<g class="st1">
		<line class="st2" x1="1788.6" y1="2266.9" x2="1788.6" y2="3839.2"/>
		<g>
			<path class="st3" d="M1721,2270.3c0-37.4,30.3-67.7,67.7-67.7s67.7,30.3,67.7,67.7c0,37.4-30.3,67.7-67.7,67.7
				S1721,2307.7,1721,2270.3z"/>
		</g>
		<g>
			<path class="st3" d="M1721,3835.8c0,37.4,30.3,67.7,67.7,67.7s67.7-30.3,67.7-67.7c0-37.4-30.3-67.7-67.7-67.7
				S1721,3798.4,1721,3835.8z"/>
		</g>
	</g>
</g>
<g class="st0">
	<path class="st4" d="M2382.7,2528.4h75.3c21.2,0,36.9,3.9,47.2,11.6c10.3,7.8,15.4,19.7,15.4,35.7c0,11.4-2.5,20.5-7.4,27.3
		c-4.9,6.8-12.2,11.9-21.9,15.5c12.6,3.7,21.9,9.3,27.9,16.7c6.1,7.4,9.1,17.4,9.1,30.1c0,17.3-5.5,29.9-16.5,37.7
		c-11,7.8-27.2,11.8-48.6,11.8h-80.6V2528.4z M2460.5,2613.4c15,0,26.1-3.1,33.3-9.2c7.2-6.2,10.8-15.5,10.8-27.9
		c0-12.7-3.7-21.7-11.1-27.3c-7.4-5.5-19.3-8.3-35.8-8.3h-59.6v72.7H2460.5z M2462.6,2702.5c16.1,0,28.4-3,37-9.1
		c8.6-6.1,13-15.7,13-28.9c0-14.4-4.8-24.5-14.4-30.2c-9.6-5.7-22.2-8.6-37.8-8.6h-62.4v76.7H2462.6z"/>
	<path class="st4" d="M2586.7,2711.3c-7-3.9-11.9-10.6-14.7-19.9s-4.2-22.9-4.2-40.5v-69.8h15.4v69c0,15,0.9,26.3,2.8,34.1
		c1.9,7.8,5.2,13.2,10.2,16.4c4.9,3.2,12.3,4.8,22.2,4.8c17.3,0,33.9-4,49.7-12v-112.3h15.1v133.7h-15.4v-10.2
		c-8.2,4.3-16.2,7.4-23.9,9.5c-7.7,2-16.7,3.1-27,3.1C2603.8,2717.2,2593.7,2715.2,2586.7,2711.3z"/>
	<path class="st4" d="M2730.3,2527.6h14.8v17.6h-14.8V2527.6z M2730.3,2581.1h14.8v133.7h-14.8V2581.1z"/>
	<path class="st4" d="M2794.2,2520.6h15.4v194.1h-15.4V2520.6z"/>
	<path class="st4" d="M2862.1,2701c-8.2-10.8-12.3-27.6-12.3-50.4c0-17.3,2.2-31.2,6.6-41.6c4.4-10.4,11.5-18.1,21.3-23
		c9.8-4.9,22.9-7.4,39.4-7.4c13,0,25.5,1.1,37.7,3.2v-61.2h14.8v194.1h-15.1v-10.7c-16.1,8.7-33.2,13.1-51.6,13.1
		C2883.9,2717.2,2870.3,2711.8,2862.1,2701z M2928.5,2702.3c8.2-2,14.6-4.1,19.1-6.3l7.1-2.9v-99.5c-13.6-2.3-26.3-3.5-38.3-3.5
		c-13,0-23.1,2.1-30.4,6.2c-7.3,4.1-12.5,10.3-15.6,18.7c-3.1,8.4-4.6,19.6-4.6,33.7c0,18.9,2.9,33.1,8.8,42.5
		c5.9,9.5,16,14.2,30.4,14.2C2912.4,2705.4,2920.2,2704.4,2928.5,2702.3z"/>
	<path class="st5" d="M3093.8,2712.2l-13-1.6l2.9-20.1c33,3.8,58,5.6,74.9,5.6c35.7,0,53.5-14.5,53.5-43.6c0-7.9-1.6-14.2-4.9-18.8
		c-3.3-4.6-8.8-8.4-16.6-11.3c-7.8-2.9-19.2-5.6-34.2-8.1c-19.8-3.6-35.2-7.6-46.1-12.2c-11-4.6-19-10.8-24.1-18.5
		c-5.1-7.7-7.6-18.1-7.6-31c0-38.9,26.9-58.3,80.7-58.3c18.6,0,43.8,2.1,75.6,6.3l-2.5,20.4c-34.7-3.6-58.5-5.3-71.3-5.3
		c-36.2,0-54.3,11.8-54.3,35.4c0,9,1.7,15.8,5.2,20.5c3.5,4.7,9.5,8.5,17.9,11.4c8.4,2.9,21.8,6.2,40.2,9.7
		c17.8,3.6,31.7,7.5,41.4,11.9c9.8,4.4,16.9,10.2,21.5,17.4c4.6,7.2,6.9,16.8,6.9,28.7c0,44.5-26.7,66.7-80,66.7
		C3143.1,2717.6,3121,2715.8,3093.8,2712.2z"/>
	<path class="st5" d="M3278.8,2563h19.5v151.8h-19.5V2563z"/>
	<path class="st5" d="M3469.3,2563v151.8h-35.7l-68.1-136.9h-4.8v136.9h-19.5V2563h36.5l67.4,136.9h5.1V2563H3469.3z"/>
	<path class="st5" d="M3533,2708.6c-9.9-5.6-17-14-21.3-25.3c-4.3-11.3-6.5-26.1-6.5-44.4c0-18.1,2.2-32.9,6.5-44.3
		c4.3-11.4,11.4-19.9,21.1-25.4c9.8-5.6,23-8.3,39.8-8.3c15.2,0,31.5,1.5,48.9,4.4l8.6,1.3l-0.8,14c-20.9-3.1-39.1-4.6-54.4-4.6
		c-12.8,0-22.8,2.1-30,6.3c-7.2,4.2-12.2,10.7-15.1,19.7c-2.9,9-4.3,21.3-4.3,37c0,15.6,1.4,28,4.3,37c2.9,9,7.9,15.6,14.9,19.9
		c7.1,4.2,17.1,6.4,29.9,6.4c11.3,0,23.4-1,36.2-3.1v-46.7h-29.1v-15.1h48.4v74.6c-21.3,3.5-40.3,5.3-57,5.3
		C3556.2,2716.9,3542.8,2714.2,3533,2708.6z"/>
	<path class="st5" d="M3764.8,2699.6v15.1h-96.5V2563h19.5v136.7H3764.8z"/>
	<path class="st5" d="M3809.1,2577.9v52.4h71.9v14.7h-71.9v54.8h87.1v14.9h-106.6V2563h106.6v14.9H3809.1z"/>
	<path class="st5" d="M4018.5,2497.9h91.5c27.3,0,47.4,5.7,60.4,17.1c13,11.4,19.5,29,19.5,52.8c0,49.3-26.7,74-80,74h-63.7v73
		h-27.9V2497.9z M4109.7,2620.4c34.5,0,51.7-17.5,51.7-52.6c0-16.9-4.1-29.2-12.3-37c-8.2-7.7-21.3-11.6-39.4-11.6h-63.3v101.2
		H4109.7z"/>
	<path class="st5" d="M4315.2,2675.7h-75l-12.7,39h-19.2l48.1-151.8h42.5l48.1,151.8h-19.2L4315.2,2675.7z M4244.6,2660.6h66.4
		l-26.6-83.1h-13.2L4244.6,2660.6z"/>
	<path class="st5" d="M4392.3,2708.6c-9.9-5.6-17-14-21.3-25.3c-4.3-11.3-6.5-26.1-6.5-44.4c0-18.1,2.2-32.9,6.5-44.3
		c4.3-11.4,11.4-19.9,21.1-25.4c9.8-5.6,23-8.3,39.8-8.3c15.2,0,31.5,1.5,48.9,4.4l8.6,1.3l-0.8,14c-20.9-3.1-39.1-4.6-54.5-4.6
		c-12.8,0-22.8,2.1-30,6.3c-7.2,4.2-12.2,10.7-15.1,19.7c-2.9,9-4.3,21.3-4.3,37c0,15.6,1.4,28,4.3,37c2.9,9,7.9,15.6,14.9,19.9
		c7.1,4.2,17.1,6.4,29.9,6.4c11.3,0,23.4-1,36.2-3.1v-46.7h-29.1v-15.1h48.4v74.6c-21.3,3.5-40.3,5.3-57,5.3
		C4415.6,2716.9,4402.2,2714.2,4392.3,2708.6z"/>
	<path class="st5" d="M4547.2,2577.9v52.4h71.9v14.7h-71.9v54.8h87.1v14.9h-106.6V2563h106.6v14.9H4547.2z"/>
	<path class="st4" d="M2365.7,2849.3h16.1l40.7,174.1h10.8l46.3-171.9h18.2l46.3,171.9h10.8l40.7-174.1h15.7l-44.8,186.4h-34.3
		l-43.8-166.6l-43.5,166.6h-34.3L2365.7,2849.3z"/>
	<path class="st4" d="M2647.4,3022.3c-9.4-10.5-14-27.2-14-50c0-24.8,5.1-43.1,15.3-54.9c10.2-11.9,26.2-17.8,48-17.8
		c20.2,0,35.1,5.1,44.8,15.4c9.7,10.3,14.5,26.3,14.5,48l-0.3,11.2h-106.8c-0.2,12.8,1.2,23,4.3,30.6c3.1,7.6,8.4,13.1,15.9,16.6
		c7.5,3.5,18,5.2,31.3,5.2c5.6,0,12.1-0.1,19.6-0.4c7.5-0.3,14.5-0.7,20.8-1.2l9.3-0.8l0.6,11c-21.4,2-39.6,2.9-54.6,2.9
		C2673,3038,2656.8,3032.8,2647.4,3022.3z M2740.5,2962.9c0-18.5-3.5-31.9-10.5-40c-7-8.1-18.1-12.2-33.3-12.2
		c-15.9,0-27.8,4.2-35.8,12.7c-8,8.5-12.1,21.6-12.3,39.4H2740.5z"/>
	<path class="st4" d="M2802.2,3036.2l-7.4-0.8v-193.9h14.8v68.2c16.9-6.8,34.1-10.2,51.6-10.2c13.4,0,23.9,2.2,31.5,6.7
		c7.6,4.5,13.1,11.6,16.4,21.4c3.3,9.8,4.9,23.2,4.9,40.1c0,18.7-2.2,33-6.5,42.9c-4.3,9.9-11.8,16.9-22.4,21
		c-10.6,4.1-26,6.2-46.2,6.2C2826.4,3037.8,2814.1,3037.2,2802.2,3036.2z M2877.8,3020.4c7.8-3.9,13.2-10.1,16.2-18.5
		c3-8.4,4.5-20.1,4.5-35c0-14.1-1.2-25.1-3.7-33.2c-2.5-8-6.6-13.8-12.3-17.2c-5.8-3.5-13.9-5.2-24.4-5.2c-13.2,0-29.3,3.2-48.5,9.6
		v104c16.9,0.9,28.2,1.3,34,1.3C2858.6,3026.3,2870,3024.3,2877.8,3020.4z"/>
	<path class="st4" d="M3140.2,2981.6h-99.1l-18.5,54h-15.1l63.6-186.4h39.2l63.6,186.4h-15.1L3140.2,2981.6z M3098.9,2861.3h-16.1
		l-37.7,107.8h91.1L3098.9,2861.3z"/>
	<path class="st4" d="M3205.7,2901.9h15.1v10.7c16.7-8.7,33.8-13.1,51.2-13.1c18.9,0,32.6,5.3,40.9,16c8.3,10.7,12.5,27.9,12.5,51.6
		c0,16.9-2.2,30.5-6.5,40.8c-4.3,10.3-11.4,17.8-21.3,22.7c-9.9,4.9-23.2,7.4-39.8,7.4c-12.6,0-24.8-1.1-36.7-3.2v61.5h-15.4V2901.9
		z M3298.6,3012.8c7.6-9.2,11.4-24,11.4-44.5c0-20.3-3.2-34.9-9.7-43.7c-6.5-8.8-16.1-13.2-28.9-13.2c-7,0-14.7,1-23,3.1
		c-8.3,2.1-15.2,4.2-20.5,6.6l-6.8,3.5v98.7c18.1,2.3,31.1,3.5,38.9,3.5C3278.1,3026.5,3291,3021.9,3298.6,3012.8z"/>
	<path class="st4" d="M3366.2,2901.9h15.1v10.7c16.7-8.7,33.8-13.1,51.2-13.1c18.9,0,32.6,5.3,40.9,16c8.3,10.7,12.5,27.9,12.5,51.6
		c0,16.9-2.2,30.5-6.5,40.8c-4.3,10.3-11.4,17.8-21.3,22.7c-9.9,4.9-23.2,7.4-39.8,7.4c-12.6,0-24.8-1.1-36.7-3.2v61.5h-15.4V2901.9
		z M3459.1,3012.8c7.6-9.2,11.4-24,11.4-44.5c0-20.3-3.2-34.9-9.7-43.7c-6.5-8.8-16.1-13.2-28.9-13.2c-7,0-14.7,1-23,3.1
		c-8.3,2.1-15.2,4.2-20.5,6.6l-6.8,3.5v98.7c18.1,2.3,31.1,3.5,38.9,3.5C3438.6,3026.5,3451.5,3021.9,3459.1,3012.8z"/>
	<path class="st4" d="M3528.6,2841.5h15.4v194.1h-15.4V2841.5z"/>
	<path class="st4" d="M3592.8,2848.4h14.8v17.6h-14.8V2848.4z M3592.8,2901.9h14.8v133.7h-14.8V2901.9z"/>
	<path class="st4" d="M3671.2,3031.1c-8.9-4.6-15.1-11.9-18.8-21.9c-3.7-10-5.6-23.4-5.6-40.4c0-12.8,1.1-24.1,3.4-33.8
		c2.3-9.7,7.6-18.1,16.1-25.3c8.4-7.1,21.2-10.7,38.3-10.7c6.4,0,12.7,0.2,18.8,0.7c6.2,0.4,14.8,1.5,25.9,3.1l-0.9,11
		c-16.3-1.6-28.8-2.4-37.7-2.4c-12.6,0-22.3,1.7-29.2,5.2c-6.9,3.5-11.8,9.4-14.7,17.6c-2.9,8.3-4.3,20.1-4.3,35.4
		c0,14.4,1.4,25.7,4.2,33.7c2.8,8,7.7,13.9,14.8,17.5c7.1,3.7,17.3,5.5,30.7,5.5l36.7-2.4l0.6,11.2c-18.7,2-32.5,2.9-41.4,2.9
		C3692.4,3038,3680.1,3035.7,3671.2,3031.1z"/>
	<path class="st4" d="M3787.1,3027.9c-7.1-6.8-10.7-16.3-10.7-28.6s3.5-21.6,10.5-27.9c7-6.3,18.2-10.3,33.6-11.9l55.3-4.8v-12.8
		c0-10.3-2.5-18-7.6-22.9c-5-4.9-12-7.4-20.8-7.4c-9.1,0-17.5,0.3-25.3,0.8c-7.8,0.5-20.1,1.6-36.7,3.2l-0.9-11
		c22.2-3.4,42-5.1,59.3-5.1c16.3,0,28.2,3.4,35.8,10.2c7.6,6.8,11.4,17.5,11.4,32.1v74.1c0.2,2.9,2.2,5.3,5.9,7.2
		c3.7,2,8.8,3.3,15.4,4l-0.6,11c-7.4,0-14-1-19.9-2.9c-5.9-2-10.4-4.7-13.7-8.3c-19.3,7.5-39.3,11.2-59.9,11.2
		C3804.6,3038,3794.2,3034.6,3787.1,3027.9z M3867.5,3019l8.3-2.4v-51.1l-53.4,4.5c-10.7,0.7-18.4,3.3-23,7.8
		c-4.6,4.5-6.9,11.1-6.9,19.8c0,19.3,9,28.9,26.9,28.9C3835.4,3026.5,3851.5,3024,3867.5,3019z"/>
	<path class="st4" d="M3964.2,3034.3c-5.6-2.8-9.6-7.7-12-14.6c-2.5-6.9-3.7-16.6-3.7-29.3v-76.7H3925v-11.8h23.5v-42.5h14.8v42.5
		h54v11.8h-54v67.7c0,12.3,0.5,21.4,1.5,27.4c1,6,3.3,10.5,6.9,13.5c3.6,3,9.5,4.5,17.8,4.5l29.3-2.1l1.2,11.2
		c-14.4,1.8-25.3,2.7-32.7,2.7C3977.4,3038.6,3969.7,3037.1,3964.2,3034.3z"/>
	<path class="st4" d="M4046,2848.4h14.8v17.6H4046V2848.4z M4046,2901.9h14.8v133.7H4046V2901.9z"/>
	<path class="st4" d="M4124.5,3031.5c-9.2-4.4-15.6-11.4-19.3-21.1c-3.7-9.7-5.6-23.1-5.6-40.2c0-18,2-32,5.9-42.1
		c3.9-10.1,10.4-17.3,19.6-21.8c9.2-4.5,22-6.7,38.4-6.7c16.7,0,29.6,2.3,38.7,6.8c9.2,4.5,15.6,11.9,19.4,21.9
		c3.8,10.1,5.7,24,5.7,41.8c0,17.1-1.8,30.5-5.4,40.2c-3.6,9.7-10,16.8-19.1,21.1c-9.2,4.4-22.3,6.6-39.4,6.6
		C4146.7,3038,4133.7,3035.8,4124.5,3031.5z M4194.3,3020.9c6.7-3.6,11.3-9.2,13.7-17c2.5-7.8,3.7-19,3.7-33.8c0-15.7-1.3-27.7-4-36
		c-2.7-8.3-7.4-14.2-14-17.6c-6.7-3.5-16.5-5.2-29.5-5.2c-13.2,0-23.2,1.7-30.1,5.2c-6.9,3.5-11.7,9.4-14.4,17.6
		c-2.7,8.3-4,20.3-4,36c0,14.6,1.2,25.8,3.7,33.7c2.5,7.8,7.1,13.5,14,17.1c6.9,3.6,17.1,5.3,30.7,5.3
		C4177.6,3026.3,4187.6,3024.5,4194.3,3020.9z"/>
	<path class="st4" d="M4268.2,2901.9h15.1v10.2c9.9-4.6,19-7.9,27.5-9.8c8.4-1.9,17.2-2.8,26.2-2.8c13.2,0,23.3,2,30.4,6
		c7.1,4,12,10.7,14.8,20.1c2.8,9.4,4.2,22.8,4.2,40.2v69.8h-14.8v-69.5c0-14.4-1-25.5-2.9-33.2c-2-7.7-5.4-13.2-10.3-16.6
		c-4.9-3.4-12.2-5.1-21.9-5.1c-8.4,0-17.1,1-25.9,2.9c-8.9,2-15.5,4-20.1,6.2l-6.8,2.9v112.3h-15.4V2901.9z"/>
	<path class="st4" d="M2399.5,3398.5c-11.6-8.7-17.4-22.7-17.4-42v-134.5h11.1v135c0,30.3,19.5,45.5,58.7,45.5
		c20.8,0,36.3-3.6,46.6-10.7c10.3-7.1,15.4-18.7,15.4-34.8v-135h10.5v134.5c0,19.3-6,33.2-17.9,42c-11.9,8.7-29.8,13.1-53.7,13.1
		C2428.9,3411.6,2411.1,3407.3,2399.5,3398.5z"/>
	<path class="st4" d="M2576.5,3408.4l-9-1.1l1.2-9.1c24.3,3.2,41.8,4.8,52.5,4.8c15.4,0,26.8-2.4,34-7.1
		c7.2-4.7,10.8-12.3,10.8-22.6c0-7.3-1.7-12.9-5.1-16.7c-3.4-3.8-7.7-6.5-13-8c-5.2-1.5-12.7-2.9-22.4-4.1c-3.7-0.4-6.5-0.7-8.3-1.1
		c-14-2-24.6-4.2-31.8-6.8c-7.2-2.6-12.3-5.9-15.3-10c-3-4.1-4.5-9.6-4.5-16.6c0-13.9,4.8-23.5,14.5-28.7c9.7-5.3,23.7-7.9,42-7.9
		c16.3,0,30.3,0.8,42,2.4l7.7,1.3l-0.6,8.6c-9.9-1.4-19.4-2.5-28.6-3.2c-9.2-0.7-16.4-1.1-21.8-1.1c-15.6,0-26.9,2.3-33.8,7
		c-6.9,4.6-10.3,11.3-10.3,20.1c0,6.6,1.8,11.5,5.4,14.8c3.6,3.3,8.1,5.6,13.4,6.8c5.3,1.2,14.7,2.9,28.1,5.1
		c14.2,2.1,24.9,4.4,32,6.7c7.1,2.3,12.4,5.8,16.1,10.4c3.6,4.6,5.4,11.2,5.4,19.8c0,13.9-4.8,24-14.4,30.2
		c-9.6,6.2-24.1,9.4-43.7,9.4C2608.7,3411.6,2594.5,3410.6,2576.5,3408.4z"/>
	<path class="st4" d="M2716.1,3222.1h10.5v14.7h-10.5V3222.1z M2716.4,3275.5h10.5v133.7h-10.5V3275.5z"/>
	<path class="st4" d="M2775.4,3275.5h10.5v10.7c10.5-4.8,20.1-8.2,28.9-10.2c8.7-2,17.8-2.9,27-2.9c13.4,0,23.5,2,30.4,5.9
		c6.9,3.9,11.7,10.6,14.5,20.1c2.8,9.5,4.2,23.1,4.2,40.9v69.3h-10.5V3340c0-15.3-1-27.1-2.9-35.3c-2-8.2-5.6-14.1-10.8-17.6
		c-5.2-3.6-12.9-5.3-23-5.3c-9.3,0-18.7,1.1-28.2,3.2c-9.6,2.1-16.8,4.4-21.8,6.7l-7.4,3.5v114.2h-10.8V3275.5z"/>
	<path class="st4" d="M2953.5,3468.6c-8.4-2.9-14.2-7.1-17.3-12.8c-3.1-5.7-4.6-13.5-4.6-23.5c0-6.4,0.8-11.5,2.3-15.1
		c1.5-3.7,3.8-6.7,6.8-9.1c3-2.4,8.5-6.3,16.5-11.6c-2.3-1.2-4-3.4-5.1-6.6c-1.1-3.1-1.7-6.4-1.7-9.8c0-2.1,0.6-4.5,1.7-7.2
		c1.1-2.7,3.8-7.6,7.9-14.7c-17.7-4.5-26.5-18-26.5-40.6c0-15.1,4.2-26.4,12.7-33.7c8.4-7.3,22.2-11,41.4-11
		c10.1,0,20.6,1.2,31.5,3.5l43.2-0.8v9.4l-33.6,0.3c4.1,2.5,7.3,6.6,9.4,12.2c2.2,5.6,3.2,12.4,3.2,20.5c0,15.7-4.4,26.9-13.3,33.6
		c-8.9,6.7-23.1,10-42.6,10c-6.6,0-12.2-0.4-17-1.1l-2.5,5.3c-1.4,3-2.6,5.7-3.4,8c-0.8,2.3-1.2,4.5-1.2,6.7c0,5.3,2.2,8.9,6.6,10.7
		c4.4,1.8,11,2.7,19.6,2.7l21.3-0.3c11.1,0,20.2,1,27.2,2.9c7,2,12.4,5.6,16.2,10.8c3.8,5.3,5.7,12.9,5.7,22.9c0,10-2.1,18-6.2,24.2
		c-4.1,6.2-11.1,10.8-20.8,13.9c-9.8,3.1-23.2,4.7-40.3,4.7C2974.3,3472.9,2961.9,3471.4,2953.5,3468.6z M3024.8,3461.2
		c7.8-2.2,13.4-5.9,16.8-11c3.4-5.1,5.1-12.1,5.1-21c0-7.5-1.1-13.1-3.2-16.8c-2.2-3.7-6.3-6.4-12.5-8c-6.2-1.6-15.6-2.3-28.4-2.1
		l-37-1.1c-6.8,3.9-11.7,7.2-14.8,9.8c-3.1,2.6-5.2,5.4-6.5,8.4c-1.2,3-1.9,7.1-1.9,12.3c0,8.6,1.5,15.2,4.5,19.9c3,4.7,8,8.1,15,10
		c7,2,17.1,2.9,30.3,2.9C3006.1,3464.6,3017,3463.5,3024.8,3461.2z M3020.2,3344.9c6.4-5.3,9.6-14.6,9.6-27.9
		c0-13.2-3.1-22.4-9.4-27.7c-6.3-5.3-17.1-7.9-32.6-7.9c-15.8,0-27.1,2.7-33.6,8.2c-6.6,5.4-9.9,14.8-9.9,27.9
		c0,13.2,3.2,22.4,9.7,27.5c6.5,5.2,17.5,7.8,33.2,7.8C3002.8,3352.8,3013.8,3350.2,3020.2,3344.9z"/>
	<path class="st6" d="M3293.4,3359.1h-99.9l-15.5,50.1h-34.1l64-214.2h71.2l64,214.2h-34.1L3293.4,3359.1z M3200.6,3332.6h85.5
		l-33.4-112.4H3234L3200.6,3332.6z"/>
	<path class="st6" d="M3375.7,3253.6h33.1v10.3c10.3-5,19.6-8.5,28-10.6c8.4-2.1,17.3-3.1,26.6-3.1c15.1,0,27,2.6,35.6,7.8
		c8.6,5.2,14.7,13.2,18.3,24.1c3.6,10.9,5.4,25.7,5.4,44.4v82.8h-33.4V3327c0-13.1-0.9-23.2-2.7-30.4c-1.8-7.2-5.2-12.3-10.1-15.6
		c-4.9-3.2-12-4.8-21.4-4.8c-12.7,0-26,2.4-39.9,7.2l-6.1,2.5v123.3h-33.4V3253.6z"/>
	<path class="st6" d="M3580.4,3471.7c-12.1-6.7-18.2-18-18.2-33.8c0-8.9,2-16,5.9-21.3c4-5.3,11.2-11.5,21.7-18.5
		c-3.8-2.3-6.7-5.3-8.4-9c-1.8-3.7-2.7-7.7-2.7-11.8c0-2.9,0.8-6,2.3-9.2c1.6-3.2,5.1-8.9,10.6-17c-18.2-8.3-27.3-23.8-27.3-46.4
		c0-36.1,23.4-54.2,70.1-54.2c11,0,23.2,1.4,36.7,4l54.6-1.2v24l-32-0.9c3.8,3.7,6.6,7.8,8.3,12.3c1.7,4.5,2.5,10.2,2.5,17.3
		c0,18.5-5.7,31.7-17.1,39.7c-11.4,8-29.2,12-53.4,12c-7.2,0-13.1-0.4-17.6-1.2c-3.8,7.9-5.8,13.6-5.8,17.1c0,5,2.3,8.2,7,9.7
		c4.7,1.5,11.9,2.2,21.7,2.2h12.6c16.8,0.2,30.2,1.4,40.3,3.4c10.1,2.1,17.8,6.3,23.4,12.6c5.5,6.3,8.3,15.5,8.3,27.6
		c0,18.3-6.8,31.6-20.3,40.2c-13.5,8.5-35.4,12.8-65.6,12.8C3611.7,3481.8,3592.5,3478.4,3580.4,3471.7z M3678.9,3451.7
		c7.3-4,11-11,11-20.7c0-5.8-1.4-10.1-4.1-12.9c-2.8-2.8-6.9-4.7-12.4-5.6c-5.5-0.9-13.7-1.5-24.4-1.7l-36.7-1.9
		c-6.5,4.4-10.9,8.3-13.3,11.8c-2.4,3.5-3.6,7.8-3.6,12.8c0,8.9,3.5,15.2,10.4,18.8c6.9,3.6,18.7,5.4,35.2,5.4
		C3658.9,3457.8,3671.6,3455.8,3678.9,3451.7z M3662.7,3327.7c5.6-4.8,8.4-12.7,8.4-23.7c0-10.8-2.9-18.6-8.6-23.4
		c-5.8-4.8-15-7.2-27.7-7.2c-12.9,0-22.3,2.4-28.2,7.3c-5.9,4.9-8.8,12.7-8.8,23.5c0,10.8,2.9,18.6,8.8,23.4
		c5.9,4.8,15.3,7.2,28.2,7.2C3647.8,3334.8,3657.1,3332.4,3662.7,3327.7z"/>
	<path class="st6" d="M3778.2,3405c-8.4-5.1-14.3-13.2-17.6-24.3c-3.4-11.1-5-26.4-5-45.9v-81.3h33.4v81.3c0,14.3,0.8,25.1,2.5,32.2
		c1.7,7.2,4.9,12.2,9.5,15.1c4.7,2.9,11.8,4.4,21.4,4.4c7.9,0,15.4-0.8,22.5-2.5c7.1-1.7,14.7-4,22.8-7.2v-123.3h33.4v155.7h-33.4
		V3399c-10.1,5-19.1,8.5-27.1,10.6c-8,2.1-16.8,3.1-26.4,3.1C3798.6,3412.7,3786.6,3410.1,3778.2,3405z"/>
	<path class="st6" d="M3952.9,3187.6h33.4v221.7h-33.4V3187.6z"/>
	<path class="st6" d="M4039.9,3400.2c-8.9-8.3-13.3-20.2-13.3-35.8c0-15.4,4.5-26.6,13.7-33.8c9.1-7.2,23.6-11.6,43.5-13.2l51-4
		v-12.1c0-9.1-2.3-15.7-6.8-19.8c-4.6-4-11.3-6.1-20.1-6.1c-20.1,0-43.4,1.2-69.7,3.7l-1.1-21.2c25.4-5.2,49-7.8,70.8-7.8
		c21.1,0,36.4,4.1,46,12.3c9.6,8.2,14.4,21.1,14.4,38.8v75c0.5,4.2,2.1,7.3,4.9,9.5c2.8,2.2,7.1,3.7,13.1,4.5l-1.1,22.4
		c-10.3,0-19.1-1-26.2-3s-13.5-5-19.1-9.2c-20.4,8.1-40.7,12.1-61.1,12.1C4061.7,3412.7,4048.8,3408.5,4039.9,3400.2z
		 M4127.3,3382.5l7.5-2.2v-45.8l-46.7,3.7c-9.3,0.8-16.2,3.3-20.7,7.3c-4.4,4-6.7,10-6.7,17.9c0,16.6,8,24.9,24.1,24.9
		C4099.5,3388.4,4113.6,3386.4,4127.3,3382.5z"/>
	<path class="st6" d="M4219.3,3253.6h33.1v19.6c21.3-11.8,42.4-19.5,63.3-23v29.3c-9.3,1.7-19.1,3.9-29.1,6.8
		c-10.1,2.9-18.5,5.7-25.2,8.4l-8.6,3.4v111.1h-33.4V3253.6z"/>
	<path class="st4" d="M2394.7,3551.8v84.8h96.6v8.8h-96.6v84.8h-11.4v-187.2h123.8v8.8H2394.7z"/>
	<path class="st4" d="M2533.3,3596.4h10.5v20.9c17.9-11.6,38.4-19.4,61.4-23.5v9.6c-8.6,1.4-18.4,4.1-29.2,8
		c-10.8,3.9-18.5,7.4-23,10.4l-9,4.5v103.7h-10.8V3596.4z"/>
	<path class="st4" d="M2635.7,3722.4c-7.1-6.8-10.7-16.1-10.7-28.1c0-11.9,3.4-21.1,10.3-27.4c6.9-6.3,17.8-10.4,32.6-12.2l58.7-5.1
		V3636c0-11.1-2.7-19.3-8-24.7c-5.4-5.4-12.7-8.2-21.9-8.2c-9.1,0-17,0.3-23.9,0.8c-6.9,0.5-19.8,1.8-38.7,3.7l-0.9-8.8
		c21.4-3.2,40.9-4.8,58.3-4.8c15.8,0,27.5,3.4,35,10.3c7.5,6.9,11.3,17.4,11.3,31.7v77c0.2,2.7,2.4,5,6.5,7.1
		c4.1,2.1,9.6,3.4,16.4,4.1l-0.6,8.3c-6.8,0-13.1-1.1-19-3.2c-5.9-2.1-10.1-5-12.8-8.6c-20.6,7.8-41.4,11.8-62.4,11.8
		C2652.8,3732.5,2642.8,3729.1,2635.7,3722.4z M2717.9,3715.7l8.6-2.9v-54.3l-57.4,4.8c-11.3,0.7-19.5,3.4-24.5,8.2
		c-5,4.7-7.6,11.8-7.6,21.3c0,20.7,9.7,31,29,31C2684,3723.7,2701.3,3721,2717.9,3715.7z"/>
	<path class="st4" d="M2787.4,3596.4h10.5v10.7c16.5-8.7,33.9-13.1,52.2-13.1c19.8,0,33,4.8,39.8,14.4c6-3.6,14.7-6.9,26.2-9.9
		c11.5-3,23.4-4.5,35.5-4.5c12.3,0,21.8,2.1,28.4,6.4c6.6,4.3,11.2,11.1,13.7,20.6c2.6,9.5,3.9,22.7,3.9,39.8v69.3h-10.8v-69.3
		c0-15.9-1-27.9-2.9-36c-2-8.1-5.6-13.9-10.8-17.2c-5.2-3.4-13.1-5.1-23.6-5.1c-9.9,0-19.6,1.1-29,3.2c-9.5,2.1-16.2,4.4-20.1,6.7
		l-6.8,3.2c3.9,0.7,5.9,15.6,5.9,44.7v69.8h-10.8v-69.3c0-15.3-1-27.1-2.9-35.3c-2-8.2-5.5-14.1-10.7-17.6
		c-5.1-3.6-12.8-5.3-22.8-5.3c-9.1,0-18.2,1-27.3,3.1c-9.2,2.1-15.9,4.3-20.2,6.8l-6.5,3.5v114.2h-10.8V3596.4z"/>
	<path class="st4" d="M3052.6,3716.6c-9.3-10.6-13.9-27.1-13.9-49.6c0-25,5-43.4,15-55.2c10-11.9,25.8-17.8,47.4-17.8
		c19.8,0,34.4,5.2,43.8,15.5c9.5,10.3,14.2,26.6,14.2,48.7v8.8h-109.3c-0.2,14.1,1.3,25.2,4.6,33.3c3.3,8.1,8.8,14.1,16.7,17.9
		c7.8,3.8,18.8,5.7,33,5.7c5.3,0,11.7-0.2,19-0.5c7.3-0.4,14.2-0.7,20.8-1.1l9.3-0.8l0.6,8.8c-25.1,1.4-42.8,2.1-53.1,2.1
		C3077.9,3732.5,3061.8,3727.2,3052.6,3716.6z M3147.7,3658.4c0-19.8-3.7-34-11.1-42.8c-7.4-8.7-19.1-13.1-35.2-13.1
		c-17.1,0-29.9,4.5-38.6,13.6c-8.6,9.1-13.1,23.2-13.3,42.2H3147.7z"/>
	<path class="st4" d="M3184.1,3596.4h11.4l39.2,125.1h3.4l45.7-122.5h11.7l45.4,122.5h4l38.9-125.1h11.4l-41.7,133.7h-21.3
		l-42.6-119.8l-42.9,119.8h-21L3184.1,3596.4z"/>
	<path class="st4" d="M3445.4,3726.2c-9-4.2-15.1-11.1-18.5-20.6c-3.4-9.5-5.1-23.1-5.1-40.8c0-18.5,1.9-32.8,5.6-42.9
		c3.7-10.1,10-17.2,19-21.5c9-4.3,21.8-6.4,38.4-6.4s29.5,2.2,38.4,6.6c9,4.4,15.2,11.6,18.8,21.7c3.6,10.1,5.4,24.3,5.4,42.6
		c0,17.6-1.6,31.2-4.9,40.6c-3.3,9.5-9.4,16.3-18.4,20.6c-9,4.3-22.1,6.4-39.4,6.4C3467.5,3732.5,3454.4,3730.4,3445.4,3726.2z
		 M3517.6,3718.2c7.1-3.7,11.9-9.5,14.4-17.6c2.5-8.1,3.7-20,3.7-35.7c0-16.9-1.3-29.7-4-38.4c-2.7-8.6-7.6-14.7-14.7-18.3
		c-7.1-3.6-17.8-5.3-32-5.3s-25,1.8-32.3,5.3c-7.3,3.6-12.3,9.7-15.1,18.4c-2.8,8.7-4.2,21.5-4.2,38.2c0,15.5,1.3,27.4,3.9,35.6
		c2.6,8.2,7.5,14.1,14.8,17.8c7.3,3.7,18.3,5.5,32.9,5.5C3499.7,3723.7,3510.5,3721.9,3517.6,3718.2z"/>
	<path class="st4" d="M3590,3596.4h10.5v20.9c17.9-11.6,38.4-19.4,61.4-23.5v9.6c-8.6,1.4-18.4,4.1-29.2,8
		c-10.8,3.9-18.5,7.4-23,10.4l-9,4.5v103.7H3590V3596.4z"/>
	<path class="st4" d="M3691.6,3534.9h10.8v117.9h29.6l53.4-56.4h12.7l-57.1,60.2l59.3,73.5h-12.7l-55.9-68.7l-29.3-0.3v69h-10.8
		V3534.9z"/>
</g>
<text transform="matrix(1.1545 0 0 1 211.007 4054.249)" class="st0"><tspan x="0" y="0" class="st7 st8 st9">Build </tspan><tspan x="542.2" y="0" class="st7 st8 st10">Single Page</tspan><tspan x="1875.2" y="0" class="st7 st8 st9"> Web Application</tspan><tspan x="402.1" y="330.1" class="st4 st11 st9"> Using </tspan><tspan x="1053" y="330.1" class="st6 st11 st12">Angular </tspan><tspan x="1983.6" y="330.1" class="st4 st11 st9">Framework</tspan></text>
<g class="st0">
	<g class="st4">
		<path class="st3" d="M5013,2725.9l2.7,124.5l2.5,124.5l4.6,249l0.2,9.6l-10,0.2L4749,3238l14.2-14.2c0.3,20.2,0.7,40.4,0.7,60.5
			c0.1,20.2-0.1,40.4-0.2,60.5c-0.3,40.4-0.1,80.7-0.2,121.1v242.2v14.5H4749h-689.9l14.5-14.5v733.4v14.5h-14.5H2274.7h-892.2
			h-55.8c-18.6,0-37.2,0-55.8,0.2c-18.6,0.1-37.2,0.3-55.8,0.2c-18.6-0.1-37.2-0.4-55.8-0.7l-223.1-3.7
			c-148.7-2.5-297.4-5.2-446.1-8.3v-4.1c148.7-3.1,297.4-5.8,446.1-8.3l223.1-3.7c18.6-0.3,37.2-0.7,55.8-0.7
			c18.6-0.1,37.2,0,55.8,0.2c18.6,0.1,37.2,0.2,55.8,0.2h55.8h892.2h1784.5l-14.5,14.5v-733.4v-14.5h14.5H4749l-14.5,14.5V3466
			c0-40.4,0.1-80.7-0.2-121.1c-0.1-20.2-0.3-40.4-0.2-60.5c0-20.2,0.3-40.4,0.7-60.5l0.2-14.4l14,0.2l263.9,4.4l-9.8,9.8l4.6-249
			l2.5-124.5L5013,2725.9z"/>
		<g>
			<path class="st3" d="M495.3,4340.2c-56,0-101.4,45.4-101.4,101.4c0,56,45.4,101.4,101.4,101.4c56,0,101.4-45.4,101.4-101.4
				C596.7,4385.6,551.3,4340.2,495.3,4340.2z"/>
		</g>
	</g>
</g>
<g>
	<g>
		<g>
			<path class="st13" d="M2177.3,2511.5c-2.1-7.5-5.1-14.8-7.8-22.1c-2.7-7.2-2.3-14.3-0.3-21.5c-4.3-15.9-8.6-31.9-12.9-47.8
				c-7.9-18.2-13.6-37.2-20.1-56c-2.5-7.2-4-15-0.5-22.6l0,0c-4.9-13.6-11.7-26.8-14.2-40.8c-3.2-18.3-11.3-34.8-15.2-52.6
				c-5-22.6-10.5-45.1-16.3-67.5c-2.6-10.3-9.1-19.7-8.2-31.1c0.2-2.3-0.4-4.3,1.9-5.5c0,0,0-0.1,0-0.1
				c-4.9-13.6-12.4-26.8-14.1-40.8c-2.6-21.4-12.7-40.3-16.3-61.3c-2.9-17.3-10.5-34-13.2-51.6c-3.3-21.2-13.3-40.7-15.4-62.1
				c-0.1-0.9-0.1-1.9-0.5-2.8c-9.6-19.8-9-42.6-18.7-62.3c-2.2-4.5,1.4-8.6-0.5-12.1c-11.7-20.9-11.2-45.1-18.9-67.3
				c-6-17.2-12.9-35.1-15.7-53.2c-1.6-10.3-7.3-19.6-7-29.3c0.5-14.6-10-26-10.1-39.2c-0.1-14-10-25.5-7.7-39.6
				c0.4-2.2-1.1-4.9-2.2-7.1c-8.9-18.5-10.3-39.2-17.1-58.4c-0.9-2.4-0.5-4.3,1.8-5.6c-0.5-8-7.6-14.2-6-22.8
				c-2.7-6.1-10.1-11-5-19.1c-5.6-15.6-14.2-30.8-16.2-46.8c-2.5-20-13.3-37.3-14.5-57.4c-1.3-20.8-12.6-39.5-16-59.5
				c-3.2-18.6-13.2-35.2-13.2-54.4c0-5.9-3.8-11.8-5.9-17.7c-3.2-8.8-6.4-17.6-9.9-27.1c3.6,1.1,2.7,4.9,5.1,6.3
				c0.2-0.7,0.5-1.2,0.4-1.5c-1.6-4.7-3.3-9.5-5-14.2c-0.9-2.7-2.2-5.4,1.4-7.1c-12.4-25.8-17.1-54.2-24.8-81.4
				c-7.7-27.4-15.9-54.7-22.4-82.4c-3-12.7-8.3-25.2-9.4-37.7c-0.5-5.3-1.8-10.3-3.4-15.1c-7.1,1.6-14.5,1.8-21.5,0.8
				c-7.4-0.3-14.3-2.5-20.7-6.6c-3.8-2.9-7.5-5.8-11.3-8.7c-5.3-6.7-10.4-13.2-14.8-20.2c-1.9,0.2-3.8,0.4-5.7,0.5
				c-12.2,0.5-24.4-4.7-33.8-12c-6.1-3.9-10.9-9.1-14.4-15.6c-1.9-4.4-3.7-8.9-5.6-13.3c-3.2-12.8-5.6-25.7-7.5-38.7
				c-5.2-2.8-10.6-5.4-16-7.9c-22.1-8.7-45.2-14.8-68.7-18.6c-7.5-0.8-15.1-1.4-22.6-1.7c-480.3,174.8-960.7,349.6-1441,524.3
				c-7.6,2.8-10.3,5.5-6.4,13.3c3.2,6.4,5,13.5,7.5,20.3c4.9,13.6,12.6,25.7,21.1,37.3c0.5,0.7,0.9,1.6,1.3,2.5
				c11.3,26.2,22,52.7,34.3,78.4c5.3,11.1,8,23.8,15.2,33.2c7.3,9.5,8.3,21.1,14.5,30.2c10.3,15.2,14.2,33,22.2,49
				c2.8,5.7,7,11.4,10.5,17.1c3.2,5.1,8.5,9.4,5.5,16.7c-0.5,1.1,0.4,3.3,1.4,4.3c11.7,12.4,13.2,29.2,19.4,44.1
				c0.7,1.5,1.4,3,2,4.5c2.1-0.5,3.7-0.1,4.6,2c5.1,12.1,11.9,23.5,17.7,35.2c9.1,18.4,14.5,38.5,24.4,56.1
				c13.8,24.4,24,50.2,35.6,75.5c5.8,12.6,11,25.7,17.6,37.9c3.1,5.7,6.3,10.4,5.6,17c0.3,0.6,0.5,1.3,0.8,1.9
				c7.3,1.7,10.7,8.5,12.3,13.8c6.9,22.7,19.9,42.7,28.9,64.4c6.4,15.6,11.9,32.2,20.9,46.3c7.9,12.4,9.4,27.5,17.8,38.4
				c10.3,13.3,10.7,31.1,22.4,43.3c2.8,2.9,3.7,7.9,5.1,12c8.3,25.5,24.2,47.8,30.9,74c0.3,0.6,0.5,1.2,0.8,1.8
				c7.3,2.6,10.1,9.4,13.3,15.4c5.8,10.8,6.9,23.5,15.3,33.8c2.9,3.5,4.7,11,6.4,16.5c4.9,16,13.9,29.9,21.7,44
				c8.7,15.7,12.4,33.3,21.4,48.3c6.9,11.5,9.9,24.9,17.2,35.4c9.1,13,10.1,29.1,18.6,41.3c13.1,18.8,16.7,41,25.7,61.1
				c0.7,1.7,1.4,3.5,2.2,5.2c5.6,2.1,9.8,5.7,11.9,11.5c2.1,5.9,4.9,11.6,6.3,17.7c4.1,17.5,14.5,32.2,22.6,47.5
				c6.4,12.1,9.7,25.5,16.8,36.9c9,14.4,12.4,31.3,21,45.3c6.3,10.3,8.6,22,15.1,31.5c8.6,12.6,10.7,28.1,18.8,40.1
				c12.7,19.2,16.6,41.4,25.8,61.7c1.2,3,2.5,5.9,3.8,8.9c1.1,0.3,3.1,0.4,3.3,1c2.5,10.8,12.5,17.6,14.9,28.5
				c3.7,17.2,14.4,31.5,22.1,46.7c6,11.9,10,24.5,16.4,36c4.3,7.8,8.5,15.5,12.8,23.3c3.8,6.9,13,6.2,19.3,4
				c11.7-3.9,23.7-1.5,35.4-2.8c3.6-0.4,7.2-0.3,10.7-1.5c4.7-1.6,8.6-1,11.2,3.7c0.6-0.2,1.3-0.3,1.9-0.5
				c8.7-4.6,18.3-5.7,27.9-6.6c5-0.5,0.4,2.7,1.1,4.1c11.5-7,24.8-4.1,37-6.8c12.3-2.7,25.1,1.5,36.9-4.2c4.8-2.3,6.9,0.2,8,4.5
				c1.4-0.3,2.7-0.6,4.1-0.9c11.5-6.8,25.2-6.7,37.5-8.5c15.2-2.2,31.2-4.2,47.1-2.2c2.1,0.3,3.4,0.9,4.1,2.7
				c7.6-3.8,15.5-6.1,24.1-4.7c1.9,0.3,2.6,1.4,3.2,2.9c5.2,2.4,9.3-4.2,14.5-1.7c10.9-7.1,23.6-5.2,35.5-7
				c14.4-2.2,29.3-1,43.7-3.9l0.2,0.1c3.2,0.6,5.9-0.2,8.8-1.8c10.1-5.4,19.8-2.9,29.1,2.4c0,0-0.1-0.1-0.1-0.1
				c11.4-4.4,22.2-7.3,35.4-6.7c10.2,0.5,22.2-0.4,33.1-2.7c5.3-1.1,1.1,2.4,1.9,3.5c0,0,0.7-0.2,0.7-0.2c9.6-4.8,19.1-7.4,30.4-4.9
				c7.3,1.7,15.1-3.5,23.4-3.3c6.6,0.1,15,2.7,20.6-5.2c0.4-0.6,9.1,3.2,14.9,1.7c14.4-3.6,30,2.4,44.1-5.4c4.5-2.5,8.5-0.7,9.5,5
				c14.7-7.7,30.7-5.8,46.4-6.8c12.8-0.8,27.8,1,36.9-8.3c7.9-8.1,17.6-12,26.2-18.3c7.6-5.5,15.9-10.2,23.8-15.2
				c1.6-1,4.5-1.6,4.7-2.7c1.5-10.8,11.2-10.3,18.1-13.5c7.2-3.3,11.9-11,20.7-11.5c0,0,0,0.1,0,0.1c-1.2-6,4.4-8.2,7.4-10.4
				c5.9-4.3,11.4-10,18.9-11.6c4.2-0.9,5.9-4.3,8.4-6.9c7.2-7.4,16.5-10.7,26-13.5c1.1-0.6,2.2-1.1,3.2-1.7
				c-0.9-7.8,6.2-9,10.5-12.5c6.6-5.3,13.3-10.5,20.8-14.6c5.3-2.9,10.1-6.6,15-10.3c12-9.1,23.8-18.5,37.6-24.8
				c4.3-2,7.5-5.7,10.4-8.7c5.7-5.8,12.6-7.7,19.6-10c0,0,0.6-0.2,0.6-0.2c-0.1-5.9,5-9.4,8.5-10.8c11.2-4.6,18.1-14.1,27.4-20.5
				c8.2-5.7,16-12.5,25.8-15.6c2.8-0.9,7.7-1.4,7.4-4.7c-1-9.1,6.4-7.2,10.7-10c10.6-7.1,22.8-11.9,31.2-22.1c1-1.2,2.3-3,3.4-2.9
				c8.5,0.6,13.2-6.3,17.9-10.8c6.4-6.1,13.9-7.6,21.3-10.5c-0.1-0.6-0.5-1.5-0.3-1.6c7.9-5.6,14.4-13.3,22.4-18.4
				c4.5-2.9,9.3-6.1,13.1-9.4c9.6-8.4,22.7-11.4,30.7-22.3c3.5-4.9,11.3-4.4,17.1-6.5c0,0,0.1,0.2,0.1,0.2c0.1-6.5,5-9.4,9.6-11.8
				c6.4-3.3,12.8-5.1,16.1-13.3c1.2-2.9,8.2-7.7,13.7-9.6c14.3-5.2,25.1-15.8,38.2-23C2180,2527.4,2179.4,2519.2,2177.3,2511.5z
				 M2001.7,2476.4c-32.9,22.7-65.5,45.9-98.2,68.8c-42.7,29.9-85.6,59.7-128.3,89.7c-35.7,25.1-71.3,50.4-107,75.5
				c-43.4,30.5-86.9,60.9-130.5,91.2c-9.3,6.5-9.5,6.4-13.3-4.1c-23.7-65.2-47.4-130.3-71.1-195.5c-3.8,1.4-7.7,2.8-11.5,4.1
				c-6,2-11.7,6.3-17.9-0.7c-1.1-1.2-7.3-2.2-11.5-0.6c-12.7,4.8-26.7,0.3-39.1,3.9c-17,4.9-34.3-1.6-51.2,4.3
				c-8.2,2.9-18.4,2.8-27.1,1.1c-7.2-1.4-13,2.5-19.9,2c-5.7-0.4-9.8-2.5-14.6-4c-70.6,4.3-141.2,8.6-211.8,12.9
				c-11.1,4.7-22.2,8-34.6,5c-2.8-0.7-6.4,2.1-9.7,2.9c-4.3,1.1-7.8-0.5-10.3-4.2c-4,1.7-7.7,1.2-10.8-2.1c-0.8-0.5-2.1-0.8-2.3-1.4
				c-3.4-12-13.5-20.6-16.3-32.8c-4.1-18.2-14-34.2-23.1-49.7c-7.2-12.1-9.5-25.8-16.9-37.2c-9.1-14-12.1-30.7-20.7-44.3
				c-6-9.4-9.3-19.4-13.6-29.2c-8.7-19.8-18.6-38.9-28.3-58.2c-6.5-12.9-14.5-25.2-19.1-39.1c-0.9-2.8-3.2-5.9,1-8.1
				c-1.4-4.7,2.4-5,5.2-6c65.3-23.8,130.7-47.6,196-71.6c5.7-2.1,8.2-1,10.7,4.5c22.1,48.4,44.4,96.7,66.6,145
				c1.5,3.3,2.8,6.4,7.2,6c40-4.3,80-8.6,120.1-12.9c15.7-7.5,33.2-6.9,49.7-10.8c4.6-1.1,6,1.9,6.9,5.5c21.8-2.6,43.9-3.2,65.5-7.6
				c-38.6-106.2-77.3-212.3-115.7-318.6c-1.5-4.3-4.9-6.1-7.5-9.1c-58.7,21.2-117.4,42.3-176.1,63.5c-91.8,33-183.6,65.8-275.3,99.1
				c-7.2,2.6-9.8,1.5-12.9-5.6c-22.5-50.3-45.6-100.3-68.6-150.4c-4.2-9.1-8.5-18.1-13.1-27c-2.1-4-1.9-6.9,1.6-9.8
				c5.3-4.4,10.4-8.9,15.6-13.4c8.8-8.6,17.7-17.2,26.5-25.8c-0.6-3.7,1-7,3.6-9.2c9.9-8,18.1-17.9,27.4-26.1
				c7.4-6.5,14.5-16.2,26.1-17.6c-3.6-4.6,1.6-7.3,3.4-8.6c8.9-6.5,16.7-13.7,22-23.5c1.3-2.4,4.6-2.9,6.9-4.3
				c11.1-6.7,22.2-13.8,24.2-28.3c0.4-3,0.8-2.9,3.7-3c8.2-0.4,13.8-4.2,20-10.7c7.5-7.8,13.6-19.6,27-20.2
				c24.6-19.3,46-42.2,69.2-63.1c42.7-38.5,84.8-77.6,127.1-116.4l-0.2-0.5c-0.9-2.4-1.7-4.8-2.6-7.2
				c-162.5,59.2-325.1,118.3-487.6,177.4c-2.8,1-6.3,4.2-8.9-0.5c-8.1-6.5-9.6-17-15-25.1c-2.4-3.6-4.3-7.5-6.4-11.3
				c-2.3,2.5,1,5.3-0.6,8.7c-2.5-7-4.8-13.3-7.2-19.7c-3.2,1.9,0.5,4.2-1.7,6.6c-1.5-4.2-3.3-8-4.3-12
				c-5.3-21.4-17.6-39.9-26.8-59.5c-4.7-10.2-10.2-20.2-14.1-30.9c0.1-0.5,0-0.8-0.4-1.1c-3.7,0.9-4.8-1.5-5.8-4.3
				c-2.3-6.7-4.6-13.3-6.9-20c-0.4-0.9-0.7-1.9-1.1-2.8c-9.4-3.9-9-12.4-9.6-20.4l0.2,0c0.2-0.9,0.5-1.7,0.7-2.6
				c1.9-4,6.1-4.1,9.5-5.3c170-62,340-123.9,510.1-185.8c-23.3-64-46.4-128-70-191.9c-2.9-7.8-1.5-10.6,6.3-13.4
				c216.5-78.5,432.9-157.3,649.2-236.3c7.8-2.8,11.2-2,13.3,6.2c5.8,23.6,12,47.2,18.2,70.7c4.5,16.9,9.4,33.7,13.9,50.6
				c7,25.9,13.7,51.9,20.6,77.8c6.1,22.9,12.6,45.8,18.7,68.7c6.2,23.5,12.1,47.1,18.4,70.7c4.6,17.5,9.7,34.9,14.4,52.4
				c6.6,24.7,12.9,49.5,19.5,74.2c4.6,17.2,9.6,34.3,14.2,51.5c8.6,32.3,17,64.6,25.6,96.8c6.2,23.2,12.8,46.4,19,69.6
				c6.8,25.3,13.3,50.7,20,76.1c4.3,16,8.7,31.9,13.1,47.9c9.1,32.8,18.2,65.6,26.2,98.6c5.8,24,13.1,47.6,19.6,71.4
				c6.8,25.3,13.3,50.7,20,76c4.2,15.7,8.5,31.3,12.8,47c8.7,32.5,18.2,64.9,26,97.7c4.3,17.9,10,35.5,14.8,53.3
				c6.2,23.2,11.9,46.5,18.1,69.8c4.5,16.9,9.3,33.7,13.8,50.6c6.8,25.3,11.5,51.4,20.7,75.8
				C2020.9,2463.1,2012.7,2468.8,2001.7,2476.4z"/>
			<path class="st14" d="M1830.9,1179.9c-8.9-36.5-19-72.8-28.5-109.1c-5.1-19.5-10.3-39-15.4-58.4c-1.2,0.4-2.4,0.7-3.6,0.9
				c1.6,4.8,2.9,9.8,3.4,15.1c1.1,12.5,6.4,25,9.4,37.7c6.5,27.7,14.7,55.1,22.4,82.4c7.7,27.2,12.4,55.6,24.8,81.5
				C1841.2,1212.8,1834.9,1196.6,1830.9,1179.9z"/>
			<path class="st14" d="M225.5,1693.5c3-7.3-2.4-11.6-5.5-16.7c-3.6-5.7-7.7-11.4-10.5-17.1c-8-16-11.9-33.8-22.2-49
				c-6.2-9.1-7.3-20.7-14.5-30.2c-7.1-9.3-9.9-22.1-15.2-33.2c-12.4-25.7-23-52.2-34.3-78.4c-0.4-0.9-0.7-1.8-1.3-2.5
				c-8.5-11.6-16.2-23.7-21.1-37.3c-2.5-6.8-4.3-13.8-7.5-20.3c-3.8-7.8-1.2-10.6,6.4-13.3c480.4-174.7,960.7-349.5,1441-524.3
				c-3.8-0.2-7.6-0.2-11.5-0.2c-1.1,0-2.2,0-3.2-0.1c-460.4,167.5-920.8,335.1-1381.1,502.6c-18.3,6.7-36.4,13.6-54.9,19.9
				c-6.6,2.2-7.4,5-4.4,10.8c5.6,10.9,10.7,22,15.9,33c19,40.3,37.9,80.5,56.9,120.8c21.9,46.5,43.8,93,65.9,139.3
				c7.1,14.9,13.2,30.4,21.9,44.5c-6.2-14.8-7.7-31.6-19.4-44.1C225.9,1696.8,225,1694.6,225.5,1693.5z"/>
			<path class="st14" d="M2083.7,2144c-4.9-13.6-12.4-26.8-14.1-40.8c-2.6-21.4-12.7-40.3-16.3-61.3c-2.9-17.3-10.5-34-13.2-51.6
				c-3.3-21.2-13.3-40.7-15.4-62.1c-0.1-0.9-0.1-1.9-0.5-2.8c-9.6-19.8-9-42.6-18.7-62.3c-2.2-4.5,1.4-8.6-0.5-12.1
				c-11.7-20.9-11.2-45.1-18.9-67.3c-6-17.2-12.9-35.1-15.7-53.2c-1.6-10.3-7.3-19.6-7-29.3c0.5-14.6-10-26-10.1-39.2
				c-0.1-14-10-25.5-7.7-39.6c0.4-2.2-1.1-4.9-2.2-7.1c-8.9-18.5-10.3-39.2-17.1-58.4c-0.9-2.4-0.5-4.3,1.8-5.6
				c6.5,23.9,13.1,47.7,19.4,71.6c13.4,50.6,26.8,101.1,40.1,151.7c12.7,48.5,25.3,97,38,145.5c11.5,43.9,23.3,87.8,34.8,131.7
				C2068.3,2082.7,2076,2113.4,2083.7,2144z"/>
			<path class="st14" d="M493.6,2266.1c7.3,2.6,10.1,9.4,13.3,15.4c5.8,10.8,6.9,23.5,15.3,33.8c2.9,3.5,4.7,11,6.4,16.5
				c4.9,16,13.9,29.9,21.7,44c8.7,15.7,12.4,33.3,21.4,48.3c6.9,11.5,9.9,24.9,17.2,35.4c9.1,13,10.1,29.1,18.6,41.3
				c13.1,18.8,16.7,41,25.7,61.1c-9.3-15.2-15.7-31.9-23.5-47.9c-16.8-34.6-32.9-69.5-49.3-104.3c-16-33.9-32.1-67.8-47.8-101.9
				C506.2,2294,498.3,2280.8,493.6,2266.1z"/>
			<path class="st14" d="M635.4,2567.1c5.6,2.1,9.8,5.7,11.9,11.5c2.1,5.9,4.9,11.6,6.3,17.7c4.1,17.5,14.5,32.2,22.6,47.5
				c6.4,12.1,9.7,25.5,16.8,36.9c9,14.4,12.4,31.3,21,45.3c6.3,10.3,8.6,22,15.1,31.5c8.6,12.6,10.7,28.1,18.8,40.1
				c12.7,19.2,16.6,41.4,25.8,61.7c-10.9-22.5-21.9-45-32.7-67.6c-25.5-53.8-51-107.6-76.3-161.4
				C654.7,2609.2,645.1,2588.2,635.4,2567.1z"/>
			<path class="st14" d="M354.7,1972.2c7.3,1.7,10.7,8.5,12.3,13.8c6.9,22.7,19.9,42.7,28.9,64.4c6.4,15.6,11.9,32.2,20.9,46.3
				c7.9,12.4,9.4,27.5,17.8,38.4c10.3,13.3,10.7,31.1,22.4,43.3c2.8,2.9,3.7,7.9,5.1,12c8.3,25.5,24.2,47.8,30.9,74
				c-9.2-15-15.6-31.4-23.2-47.2c-21.9-45.8-43.4-91.8-65-137.8c-13.9-29.5-27.7-59-41.7-88.5C360.1,1984.8,356,1979.1,354.7,1972.2
				z"/>
			<path class="st14" d="M1917,1509.7c-5.6-15.6-14.2-30.8-16.2-46.9c-2.5-20-13.3-37.3-14.5-57.4c-1.3-20.8-12.6-39.5-16-59.5
				c-3.2-18.6-13.2-35.2-13.2-54.4c0-5.9-3.8-11.8-5.9-17.7c-3.2-8.8-6.4-17.6-9.9-27.1c3.6,1.1,2.7,4.9,5.1,6.3
				c0.2-0.7,0.5-1.2,0.4-1.5c-1.6-4.7-3.3-9.5-5-14.2c-0.9-2.7-2.3-5.4,1.5-7.2c8.3,24.3,13.6,49.5,20.3,74.3
				c13.4,49.9,26.4,99.9,39.4,150C1907.8,1472.6,1912.4,1491.2,1917,1509.7z"/>
			<path class="st14" d="M248.3,1746.5c2.1-0.5,3.7-0.1,4.6,2c5.1,12.1,11.9,23.5,17.7,35.2c9.1,18.4,14.5,38.5,24.4,56.1
				c13.8,24.4,24,50.2,35.6,75.5c5.8,12.6,11,25.7,17.6,37.9c3.1,5.7,6.3,10.4,5.6,17c-10.6-21.9-21.4-43.7-31.9-65.7
				c-23-48.6-45.9-97.2-68.8-145.9C251.3,1754.7,249.9,1750.5,248.3,1746.5z"/>
			<path class="st14" d="M777.3,2868.1c1.1,0.3,3.1,0.4,3.3,1c2.5,10.8,12.5,17.6,14.9,28.5c3.7,17.2,14.4,31.5,22.1,46.7
				c6,11.9,10,24.5,16.4,36c4.3,7.8,8.5,15.5,12.8,23.3c3.8,6.9,13,6.2,19.3,4c11.7-3.9,23.7-1.5,35.4-2.8c3.6-0.4,7.2-0.3,10.7-1.5
				c4.7-1.6,8.6-1,11.2,3.7c-24.2,2.2-48.5,4.4-72.7,6.8c-4,0.4-5.5-1.4-6.9-4.6C821.7,2962.1,799.5,2915.1,777.3,2868.1z"/>
			<path class="st14" d="M1857.5,2755.6c-0.1-5.9,5-9.4,8.5-10.8c11.2-4.6,18.1-14.1,27.4-20.5c8.2-5.7,16-12.5,25.8-15.6
				c2.8-0.9,7.7-1.4,7.4-4.7c-1-9.1,6.4-7.2,10.7-10c10.6-7.1,22.8-11.9,31.2-22.1c1-1.2,2.3-3,3.4-2.9c8.5,0.6,13.2-6.3,17.9-10.8
				c6.4-6.1,14-7.6,21.3-10.6c-18.4,16-39.3,28.4-59,42.5c-29.6,21.3-59.6,42.1-89.5,63C1861,2754.3,1859.2,2754.8,1857.5,2755.6z"
				/>
			<path class="st14" d="M1502.1,2956.9c14.7-7.8,30.7-5.8,46.5-6.8c12.8-0.8,27.8,1,36.9-8.3c7.9-8.1,17.6-12,26.2-18.3
				c7.6-5.5,15.9-10.2,23.8-15.2c1.6-1,4.5-1.6,4.7-2.7c1.5-10.8,11.2-10.3,18.1-13.5c7.2-3.3,11.9-11,20.7-11.5
				c-14.7,13.4-32,23.2-47.9,35.1c-10,7.5-20.9,13.7-30.6,21.5c-12.6,10.2-26.2,15.5-42.6,15.7
				C1539.3,2953.3,1520.7,2955.5,1502.1,2956.9z"/>
			<path class="st14" d="M2135.6,2341.5c-4.9-13.6-11.7-26.8-14.2-40.8c-3.2-18.3-11.3-34.8-15.2-52.6c-5-22.6-10.5-45.1-16.3-67.5
				c-2.6-10.3-9.1-19.7-8.2-31.1c0.2-2.3-0.4-4.3,1.9-5.5c7.7,28.3,15.4,56.6,23,85c9.3,34.7,18.4,69.4,27.6,104.2
				C2135,2335.9,2135.2,2338.8,2135.6,2341.5z"/>
			<path class="st14" d="M2094.1,2589.6c0.1-6.5,5-9.4,9.6-11.8c6.4-3.3,12.8-5.1,16.1-13.3c1.2-2.9,8.2-7.7,13.7-9.6
				c14.3-5.2,25.1-15.8,38.2-23c8.3-4.6,7.7-12.8,5.6-20.4c-2.1-7.5-5.1-14.8-7.8-22.1c-2.7-7.2-2.3-14.3-0.3-21.5
				c4.8,18.1,9.6,36.2,14.5,54.2c0.8,2.9,1.1,5.1-2,7.2C2152.2,2549,2124.1,2570.8,2094.1,2589.6z"/>
			<path class="st14" d="M1359.3,2968.9c9.6-4.8,19.1-7.4,30.4-4.9c7.3,1.7,15.1-3.5,23.4-3.3c6.6,0.1,15,2.7,20.6-5.2
				c0.4-0.6,9.1,3.2,14.9,1.7c14.4-3.6,30,2.4,44.1-5.4c4.5-2.5,8.5-0.7,9.5,5c-30.6,2.9-61.3,5.9-91.9,8.5
				C1393.3,2966.9,1376.4,2969.3,1359.3,2968.9z"/>
			<path class="st14" d="M1743,2836.6c-0.9-7.8,6.2-9,10.5-12.5c6.6-5.3,13.3-10.5,20.8-14.6c5.3-2.9,10.1-6.6,15-10.3
				c12-9.1,23.8-18.5,37.6-24.8c4.3-2,7.5-5.7,10.4-8.7c5.7-5.8,12.6-7.7,19.6-10c-13.2,11.8-28.3,21-42.7,31.2
				C1790.6,2803.8,1766.8,2820.1,1743,2836.6z"/>
			<path class="st14" d="M1170.8,2985.3c10.9-7.1,23.6-5.2,35.5-7c14.4-2.2,29.3-1,43.7-3.9c-0.7,0.5-1.3,1-2,1.6
				c0.2,0.2,0.7,0.5,0.7,0.5c0.6-0.6,1.1-1.2,1.6-1.9c3.2,0.6,5.9-0.2,8.8-1.8c10.1-5.4,19.8-2.9,29.1,2.4
				c-28.4,4.6-57.2,5.3-85.8,8.2C1191.9,2984.3,1181.4,2986.4,1170.8,2985.3z"/>
			<path class="st14" d="M1040.2,2996.7c11.5-6.8,25.2-6.7,37.5-8.5c15.2-2.2,31.2-4.2,47.1-2.2c2.2,0.3,3.5,0.9,4.2,2.9
				c-26.1,4.2-52.5,5-78.7,7.6C1047,2996.8,1043.6,2998.3,1040.2,2996.7z"/>
			<path class="st14" d="M2011,2647.8c-0.1-0.6-0.5-1.6-0.3-1.8c7.9-5.6,14.4-13.3,22.4-18.4c4.5-2.9,9.3-6.1,13.1-9.4
				c9.6-8.4,22.7-11.4,30.7-22.3c3.5-4.9,11.3-4.4,17.1-6.5c-17.1,14.9-36.7,26.5-55.1,39.7
				C2029.9,2635.7,2021.3,2643.1,2011,2647.8z"/>
			<path class="st14" d="M954.3,3004.1c11.5-7,24.8-4.1,37-6.8c12.3-2.7,25.1,1.5,36.9-4.2c4.8-2.3,6.9,0.2,8,4.5
				C1008.9,2999.8,981.7,3003.2,954.3,3004.1z"/>
			<path class="st14" d="M2156.2,2420.1c-7.9-18.2-13.6-37.2-20.1-56c-2.5-7.2-4-15-0.5-22.6
				C2143.5,2367.5,2150.5,2393.6,2156.2,2420.1z"/>
			<path class="st14" d="M1288.1,2975c11.4-4.4,22.2-7.3,35.4-6.7c10.2,0.5,22.2-0.4,33.1-2.7c5.3-1.1,1.1,2.4,1.9,3.5
				C1335.2,2972.3,1311.7,2974.5,1288.1,2975z"/>
			<path class="st14" d="M1679,2880.8c-1.2-6,4.4-8.2,7.4-10.4c5.9-4.3,11.4-10,18.9-11.6c4.2-0.9,5.9-4.3,8.4-6.9
				c7.2-7.4,16.5-10.7,26-13.5C1720.3,2853.6,1700.2,2867.9,1679,2880.8z"/>
			<path class="st14" d="M925.4,3006.5c8.7-4.6,18.3-5.7,27.9-6.6c5-0.5,0.3,2.8,1.1,4.1C944.8,3005.9,935.1,3007.1,925.4,3006.5z"
				/>
			<path class="st14" d="M1128.9,2988.8c7.6-3.9,15.5-6.2,24.2-4.7c1.9,0.3,2.6,1.4,3.2,2.9
				C1147.2,2988.1,1138.1,2989.7,1128.9,2988.8z"/>
			<path class="st14" d="M1922.1,1528.7c-2.7-6.1-10.1-11-5-19.1C1919.7,1515.7,1921.3,1522.1,1922.1,1528.7z"/>
			<path class="st15" d="M1028.3,1434.3c-23.3-64-46.4-128-70-191.9c-2.9-7.8-1.5-10.6,6.3-13.4c216.5-78.5,432.9-157.3,649.2-236.3
				c7.8-2.8,11.2-2,13.3,6.2c5.8,23.6,12,47.2,18.2,70.7c4.5,16.9,9.4,33.7,13.9,50.6c7,25.9,13.7,51.9,20.6,77.8
				c6.1,22.9,12.6,45.8,18.7,68.7c6.2,23.5,12.1,47.1,18.4,70.7c4.6,17.5,9.7,34.9,14.4,52.4c6.6,24.7,12.9,49.5,19.5,74.2
				c4.6,17.2,9.6,34.3,14.2,51.5c8.6,32.3,17,64.6,25.6,96.8c6.2,23.2,12.8,46.4,19,69.6c6.8,25.3,13.3,50.7,20,76.1
				c4.3,16,8.7,31.9,13.1,47.9c9.1,32.8,18.2,65.6,26.2,98.6c5.8,24,13.1,47.6,19.6,71.4c6.8,25.3,13.3,50.7,20,76
				c4.2,15.7,8.5,31.3,12.8,47c8.7,32.5,18.2,64.9,26,97.7c4.3,17.9,10,35.5,14.8,53.3c6.2,23.2,11.9,46.5,18.1,69.8
				c4.5,16.9,9.3,33.7,13.8,50.6c6.8,25.3,11.5,51.4,20.7,75.8c6.3,16.9-1.9,22.6-12.9,30.2c-32.9,22.7-65.5,45.9-98.2,68.8
				c-42.7,29.9-85.6,59.7-128.3,89.7c-35.7,25.1-71.3,50.4-107,75.5c-43.4,30.5-86.9,60.9-130.5,91.2c-9.3,6.5-9.5,6.4-13.3-4.1
				c-23.7-65.2-47.4-130.3-71.1-195.5c0.2-0.7,0.4-1.4,0.6-2.1c6.2-5.3,13.9-8.6,19-15.2c14.6-11.9,29.8-23,45-33.8
				c21.3-15.1,42.7-30.1,63.7-45.6c60.7-44.6,121.3-89.2,182-133.8c19.9-14.6,39.8-29.3,59.9-43.7c4-2.9,4.8-5.4,3.4-10
				c-4.2-14.4-7.9-29-11.8-43.5c-12.6-47.1-25.3-94.3-38-141.4c-8.2-30.5-16.5-61-24.7-91.5c-10.4-38.7-20.6-77.4-30.9-116.1
				c-8.5-32-17-64.1-25.7-96.1c-9.3-34.1-18.7-68.2-28.1-102.3c1-5.6-2.3-10.1-3.9-15c-0.3-1.2-0.6-2.4-1-3.6
				c1.1-6.9-3.2-12.5-4.2-19c-1.8-12.4-2.6-12.6-14.2-8.4c-122.2,44.5-244.5,89.1-366.7,133.5c-32.1,11.7-64.3,23.1-96.5,34.6
				c37-35.1,73.9-70.3,111-105.2c46.8-44,93.7-87.8,140.6-131.7c48.5-45.3,96.7-91,145.6-135.7c12.7-11.6,17.6-21.4,12.3-40
				c-16.4-57.1-29.6-115-44.1-172.6c-3.3-13.2-3.6-13.4-16.2-8.8c-116.4,42.4-232.8,84.8-349.2,127.2
				c-50.1,18.3-100.1,36.7-150.2,55c-96.1,34.9-192.2,69.8-288.2,104.8c-78.4,28.5-156.7,57.2-235.1,85.8c0.2-0.9,0.5-1.7,0.7-2.6
				c0.6-0.2,1.2-0.3,1.8-0.5c170.4-62,340.8-124,511.2-186.1C1024.3,1437.9,1027.5,1437.8,1028.3,1434.3z"/>
			<path class="st16" d="M1473,2584.8c-5.1,6.6-12.8,9.9-19,15.2c-34.3,2-68.5,3.8-102.8,5.9c-30.2,1.9-60.4,4.2-90.6,6.3
				c-70.6,4.3-141.2,8.6-211.8,12.9c-18.2,0.4-36.5,1.1-54.6,3.7c-4,1.7-7.7,1.2-10.8-2.1c0-1.2,0.3-2.6-0.2-3.5
				c-9.2-19.9-18.5-39.7-27.8-59.5c-26.1-55.8-52.1-111.6-78.2-167.4c-10.9-23.2-22.1-46.3-33.1-69.4c-1.4-4.7,2.4-5,5.2-6
				c65.3-23.8,130.7-47.6,196-71.6c5.7-2.1,8.2-1,10.7,4.5c22.1,48.4,44.4,96.7,66.6,145c1.5,3.3,2.8,6.4,7.2,6
				c40-4.3,80-8.6,120.1-12.9c19-0.2,37.8-3.2,56.7-5.3c21.8-2.6,43.9-3.2,65.5-7.6c0.6,0,1.3-0.1,1.9-0.1c4.7,6,2.7,13.7,5.2,20.4
				c22.8,61.6,45.1,123.4,67.6,185.1c0.7,2.1,1.5,4.1,2.3,6.2c1.3,3.6,4.5,4.6,6.5,2.1C1460.2,2586.8,1467.2,2587.4,1473,2584.8z"/>
			<path class="st16" d="M720,2007.7c1.2,3.7-2.8,5.3-3.9,8.5c4,2.6,7.3-0.1,10.5-1.2c39.2-14.2,78.4-28.5,117.6-42.7
				c110.1-40.1,220.2-80.1,330.2-120.2c2.4-0.9,4.6-1.9,7-2.9c32.2-11.5,64.3-23,96.5-34.7c122.3-44.5,244.5-89,366.7-133.5
				c11.6-4.2,12.4-4,14.2,8.4c0.9,6.5,5.3,12.1,4.2,19c-6.2-4.5-6.3-12-8.5-18.2c-2.5-7-4.9-9.2-12.7-6.4
				c-142.5,52.1-285.1,104-427.7,155.9c-2.9,1-6.3,1.3-8.1,4.4c-2.1,3.8-4.9,4.5-9.3,4.1c-7.5-0.7-14.6,9.1-12.1,16
				c20.9,57.5,41.9,114.9,62.6,172.4c2.7,7.6,6,9.5,13.8,6.6c27.8-10.6,55.9-20.5,83.9-30.7c37.1-13.5,74.2-27.1,111.4-40.4
				c3.1-1.1,6.7-4.7,10,0c-3.5,1.4-6.9,2.9-10.5,4.2c-69,25-137.9,50.1-206.9,75.1c-58.7,21.2-117.4,42.3-176.1,63.5
				c-91.8,33-183.6,65.8-275.3,99.1c-7.2,2.6-9.8,1.5-12.9-5.6c-22.5-50.3-45.6-100.3-68.6-150.4c-4.2-9.1-8.5-18.1-13.1-27
				c-2.1-4-1.9-6.9,1.6-9.8C709.7,2016.7,714.9,2012.1,720,2007.7z M711.6,2020.4c0.4-0.4,0.7-0.8,1.1-1.2c-0.5-0.1-1.1-0.4-1.6-0.3
				c-0.5,0.1-0.8,0.7-1.2,1.1C710.5,2020.2,711,2020.3,711.6,2020.4z"/>
			<path class="st15" d="M1248.9,2051.2c69-25,137.9-50,206.9-75.1c3.5-1.3,7-2.8,10.5-4.2c1.2-0.4,2.3-0.9,3.5-1.3
				c7.7-2.8,15.4-5.6,23.1-8.3c5.3-2.1,8.3-2.2,10.3,5c7.8,27.7,16.8,55,25,82.6c17.1,57.2,33.8,114.4,51,171.5
				c1.7,5.8,1,9.2-4.1,12.5c-8.9,5.8-17.3,12.3-26,18.5c-44.2,31.7-88.3,63.4-132.5,95.2c-0.5,0.6-1,1.1-1.5,1.7
				c-1.1,0.6-2.2,1.2-3.2,1.8c-1.5,0.2-2.7,0.8-2.8,2.5l-0.2,0.2c-5.9,3-11.5,6.3-15.9,11.5c-1.1,0.6-2.1,1.2-3.2,1.8
				c-5.4,3.5-11.9,5.5-15.6,11.3l-0.3,0.3c-0.6,0-1.3,0.1-1.9,0.1c-38.6-106.2-77.3-212.3-115.7-318.6
				C1254.9,2056.1,1251.4,2054.2,1248.9,2051.2z"/>
			<path class="st14" d="M607.7,1820c42.7-15.6,85.4-31.4,128.1-46.9c119.4-43.5,238.7-86.9,358.1-130.3c2.9-1.1,5.9-2,8.9-3
				c0.5,1.1,1,2.3,1.5,3.4c-162.5,59.2-325.1,118.3-487.6,177.4C613.8,1821.6,610.4,1824.8,607.7,1820z"/>
			<path class="st14" d="M844.2,2326.9c11,23.1,22.2,46.2,33.1,69.4c26.2,55.8,52.2,111.6,78.2,167.4c9.3,19.8,18.6,39.6,27.8,59.5
				c0.5,1,0.1,2.4,0.2,3.5c-0.8-0.5-2.1-0.8-2.3-1.4c-3.4-12-13.5-20.6-16.3-32.8c-4.1-18.2-14-34.2-23.1-49.7
				c-7.2-12.1-9.5-25.8-16.9-37.2c-9.1-14-12.1-30.7-20.7-44.3c-6-9.4-9.3-19.4-13.6-29.2c-8.7-19.8-18.6-38.9-28.3-58.2
				c-6.5-12.9-14.5-25.2-19.1-39.1C842.3,2332.2,840,2329.1,844.2,2326.9z"/>
			<path class="st14" d="M1028.3,1434.3c-0.8,3.5-4.1,3.6-6.6,4.5c-170.4,62.1-340.8,124.1-511.2,186.1c-0.6,0.2-1.2,0.4-1.8,0.5
				c1.9-4,6.1-4.1,9.5-5.3C688.3,1558.2,858.3,1496.2,1028.3,1434.3z"/>
			<path class="st14" d="M1260.6,2612.1c30.2-2.1,60.4-4.4,90.6-6.3c34.2-2.1,68.5-4,102.8-5.9c-0.2,0.7-0.4,1.4-0.6,2.1
				c-3.8,1.4-7.7,2.8-11.5,4.1c-6,2-11.7,6.3-17.9-0.7c-1.1-1.2-7.3-2.2-11.5-0.6c-12.7,4.8-26.7,0.3-39.1,3.9
				c-17,4.9-34.3-1.6-51.2,4.3c-8.2,2.9-18.4,2.8-27.1,1.1c-7.2-1.4-13,2.5-19.9,2C1269.5,2615.8,1265.4,2613.7,1260.6,2612.1z"/>
			<path class="st14" d="M910.8,1830.3c-10.3,10.9-21.3,21.1-32.4,31.2c-23.1,20.8-45.8,42-68.7,63c-1.8,1.7-3.9,3-5.9,4.5
				c-3.8-4.7,1.5-7.4,3.3-8.7c8.9-6.5,16.7-13.7,22-23.5c1.3-2.4,4.6-2.9,6.9-4.3c11.1-6.7,22.2-13.8,24.2-28.3c0.4-3,0.8-2.9,3.7-3
				c8.2-0.4,13.8-4.2,20-10.7C891.3,1842.8,897.4,1831,910.8,1830.3z"/>
			<path class="st14" d="M531.6,1676.7c12.3,19.3,21.1,40.4,31.8,60.6c8,15.2,16.7,30.1,22.9,46.3c-2.3,2.5,1,5.3-0.6,8.7
				c-2.5-7-4.8-13.3-7.2-19.7c-3.2,1.9,0.5,4.2-1.7,6.6c-1.5-4.2-3.3-8-4.3-12c-5.3-21.4-17.6-39.9-26.8-59.5
				C541,1697.4,535.5,1687.4,531.6,1676.7z"/>
			<path class="st14" d="M803.7,1929c-0.9,1.5-1.9,3-2.8,4.5c0,0,0,0.1,0,0.1c-1,0.7-2,1.5-3,2.2c-1.1,1.2-2.2,2.3-3.3,3.5
				c-3.4,2-6.4,4.4-8.5,7.7c-3.1,2.9-6.3,5.7-9.4,8.6c-2.5,2.2-4.9,4.3-7.4,6.5c-0.9,0.9-1.9,1.9-2.8,2.8c-0.5,0.6-1.1,1.2-1.6,1.8
				c-6.1,5-12.2,10.1-18.2,15.1c-0.6-3.7,1-7,3.6-9.2c9.9-8,18.1-17.9,27.4-26.1C785,1940.1,792.1,1930.4,803.7,1929z"/>
			<path class="st14" d="M1306.5,2386.6c-18.9,2-37.6,5.1-56.7,5.3c15.7-7.5,33.2-6.9,49.7-10.8
				C1304.2,2380,1305.6,2383,1306.5,2386.6z"/>
			<path class="st14" d="M994.2,2628.8c18.1-2.6,36.3-3.3,54.6-3.7c-11.1,4.7-22.2,8-34.6,5c-2.8-0.7-6.4,2.1-9.7,2.9
				C1000.2,2634,996.7,2632.5,994.2,2628.8z"/>
			<path class="st15" d="M1104.3,1643.1c-0.5-1.1-1-2.3-1.5-3.4c8.3-3,16.6-6,25-9c-6.8,6.7-11.1,16-20.9,19.5
				C1106.1,1647.9,1105.2,1645.5,1104.3,1643.1z"/>
			<path class="st14" d="M518.5,1651.3c5.6,7.4,9.6,15.6,12.7,24.3c-3.7,0.9-4.8-1.5-5.8-4.3
				C523.1,1664.6,520.8,1657.9,518.5,1651.3z"/>
			<path class="st14" d="M507.8,1628.1c3.2,6.8,6.4,13.6,9.6,20.4C508,1644.6,508.4,1636.1,507.8,1628.1z"/>
			<path class="st13" d="M1250.3,2974.5c-0.5,0.6-1,1.3-1.6,1.9c0,0-0.5-0.3-0.7-0.5c0.7-0.5,1.3-1,2-1.6
				C1250,2974.4,1250.3,2974.5,1250.3,2974.5z"/>
			<path class="st16" d="M1667.9,1726.9c-1.6-4.9-5.4-9.2-3.9-15C1665.6,1716.9,1668.9,1721.3,1667.9,1726.9z"/>
			<path class="st16" d="M769.3,1962.2c2.5-2.2,4.9-4.4,7.4-6.5c4.4,0.2,6.5,2.1,2.7,5.5C776.8,1963.4,773,1965.8,769.3,1962.2z"/>
			<path class="st16" d="M764.8,1966.8c0.5-0.6,1.1-1.2,1.6-1.8C765.9,1965.6,765.4,1966.2,764.8,1966.8z"/>
			<path class="st16" d="M1469.8,1970.7c3.3-6.7,16.3-11.4,23.1-8.3C1485.2,1965.1,1477.5,1967.9,1469.8,1970.7z"/>
			<path class="st16" d="M1409,2353.9c-4.1,5.5-7.8,11.6-15.9,11.5C1397.4,2360.2,1403,2356.9,1409,2353.9z"/>
			<path class="st16" d="M1389.9,2367.2c-0.5,10.2-10.6,7.3-15.6,11.3C1378,2372.7,1384.5,2370.7,1389.9,2367.2z"/>
			<path class="st16" d="M1412,2351.1c-0.9,0.8-1.9,1.7-2.8,2.5C1409.3,2351.9,1410.4,2351.3,1412,2351.1z"/>
			<path class="st16" d="M1416.7,2347.7c-0.5,0.6-1,1.1-1.5,1.7C1415.7,2348.8,1416.2,2348.2,1416.7,2347.7z"/>
			<path class="st16" d="M800.9,1933.6c0,1.2,0.5,2.9-0.1,3.4c-1.1,1-2.2,0-3-1.1C798.9,1935.1,799.9,1934.4,800.9,1933.6z"/>
		</g>
		<g>
			<path class="st17" d="M4357.2,1391.5c-269.5-98.1-539-196.2-808.4-294.2c-224.8-81.8-449.6-163.7-674.5-245.5
				c-1.2,5.4-2.2,10.8-3.1,16.2c-1.1,10.4-1.7,20.8-1.7,31.3c0,15.1-6.3,28.5-16.3,39.4c-10.1,11-25,15.7-39.4,16.3
				c-1.2,0.1-2.3,0-3.5,0c-2.9,50.6-7.6,100.9-14.7,151.2c-2,14-14.3,26-25.6,33.3c-10.4,6.7-23.7,8.2-35.6,6.6
				c-12.4-1.7-22.8-6.9-32-15.3c-10.3-9.4-16.3-25.8-16.3-39.4c0-17.5,0.5-35,1.2-52.5c1.3-32.2,3.3-64.7,3.6-97
				c-0.5,0.1-1.1,0.2-1.6,0.2c-0.3,0.1-0.7,0.1-1,0.2c-2.4,9.3-4.9,18.5-7.3,27.8c-6.4,24-12.9,47.9-19.3,71.9
				c-8.8,32.9-17.4,65.8-26.2,98.7c-6,22.7-12.2,45.5-18.2,68.2c-8.6,32.3-17.1,64.6-25.7,96.8c-6.2,23.4-12.5,46.7-18.7,70
				c-8.3,31.4-16.5,62.7-24.9,94.1c-6.3,23.7-12.8,47.3-19.1,71c-8.7,32.6-17.3,65.2-25.9,97.7c-6.1,23.1-12.4,46.1-18.5,69.1
				c-8.6,32.3-17.1,64.6-25.7,96.8c-6.1,23.1-12.4,46.1-18.5,69.1c-8.7,32.6-17.3,65.2-25.9,97.7c-6,22.7-12.2,45.5-18.2,68.2
				c-8.7,32.6-17.3,65.2-25.9,97.7c-6.1,23.1-12.4,46.1-18.5,69.1c-8.4,31.7-16.7,63.3-25.1,95c-6.3,23.7-12.7,47.3-19,71
				c-8.7,32.6-17.3,65.2-25.9,97.7c-4.6,17.2-8.7,34.5-13.7,51.6c-1.8,6.1,0.1,9.1,4.9,12.4c12.6,8.6,24.9,17.7,37.3,26.5
				c183.2,130.7,366.4,261.4,549.5,392.2c6.1,4.4,12.2,7,19.9,7.6c158.5,12.3,316.9,24.9,475.3,37.3c82.4,6.5,164.8,12.9,247.2,19.5
				c5.7,0.5,8.7-0.8,10.9-6.2c4.2-10.3,9.1-20.3,13.8-30.4c14-29.9,28.1-59.9,42.2-89.8c10.3-21.9,20.4-43.8,30.6-65.7
				c16.6-35.4,33.4-70.7,50-106.2c13.6-29.1,27-58.3,40.7-87.4c16.6-35.4,33.4-70.7,50-106.1c13.8-29.4,27.3-58.9,41-88.2
				c19.6-41.7,39.4-83.4,58.9-125.1c16.9-36,33.5-72.1,50.3-108.1c22.5-48.1,45.3-96.1,67.9-144.1c18.1-38.6,36.2-77.2,54.3-115.8
				c21.4-45.8,42.9-91.6,64.3-137.4c21.2-45.2,42.4-90.4,63.6-135.6c21.2-45.2,42.4-90.4,63.5-135.6c19.9-42.6,39.7-85.3,59.6-128
				C4368.9,1395.8,4368.9,1395.8,4357.2,1391.5z M4163.4,1486.9c-4.3,10.8-9.7,21.3-15,31.7c-4.3,8.4-7.5,17.4-11.8,25.9
				c-8.9,17.4-16.4,35.6-25.1,53.1c-4.1,8.2-8,16.5-11.6,25c-4.5,10.8-9.7,21.2-15.2,31.6c-4,7.5-6.9,15.6-10.4,23.4
				c-4.3,9.5-8.8,19-13.4,28.3c-4.8,9.6-7.8,20-13.7,29.2c-3.7,5.7-6.4,12.4-8.9,18.8c-6.9,17.1-15.3,33.4-23,50
				c-7.2,15.4-14.2,31-22,46.2c-4.7,9.2-8.8,18.9-13.1,28.4c-4.5,9.7-8.8,19.6-13.8,29.1c-4.4,8.3-7.3,17.5-11.9,25.8
				c-6.2,11-10.6,22.9-16.1,34.3c-4.2,8.8-8.3,17.8-12.5,26.6c-4.7,10-8.6,20.3-14.3,29.9c-3.9,6.5-6.4,13.8-9.4,20.7
				c-4.3,9.9-9.1,19.5-13.6,29.3c-4.4,9.4-8,19.2-13.5,28.2c-4,6.4-6.4,13.8-9.4,20.7c-4.3,9.8-9.3,19.4-13.6,29.3
				c-4.2,9.5-8.1,19.2-13.5,28.2c-4,6.7-6.8,14.3-9.9,21.5c-4.1,9.6-8.7,19.1-13.4,28.3c-4.9,9.6-7.9,20-13.7,29.2
				c-4.1,6.6-7,14.2-9.9,21.5c-4,9.7-8.7,19.1-13.3,28.4c-4.3,8.7-7.4,18.1-12.6,26.5c-4.4,7.1-7.3,15.4-10.6,23.3
				c-4.1,9.6-8.7,19.1-13.3,28.3c-4.3,8.7-7.3,18.1-12.7,26.5c-4,6.3-6.8,13.6-9.6,20.6c-6.9,17-15.3,33.4-23.1,50
				c-7.2,15.4-14.4,30.9-22,46.2c-4.7,9.6-8.9,19.6-13.6,29.3c-4.6,9.4-7.9,19.3-13.5,28.2c-4.1,6.7-6.7,14.3-9.9,21.5
				c-4.3,9.8-9.2,19.5-13.6,29.3c-4.2,9.1-7.5,18.7-13.1,27.3c-4.1,6.4-6.4,13.8-9.5,20.7c-4.2,9.2-8.6,18.4-13,27.5
				c-4.9,9.9-8.2,20.5-14.1,30c-4,6.4-6.4,13.8-9.5,20.7c-4.2,9.2-8.6,18.4-13,27.5c-4.5,9.4-8.8,18.9-13.2,28.3
				c-5.1,10.9-10.8,21.5-14.9,32.9c-2.8,8-3.4,8.3-11.8,7.6c-39.8-3.3-79.5-6.7-119.3-9.9c-42.9-3.4-85.9-6.3-128.8-9.7
				c-35.3-2.8-70.7-6-106-8.8c-38.2-3-76.4-5.8-114.6-8.7c-32.2-2.5-64.4-5-96.6-7.5c-6.3-0.5-12.6-0.9-18.9-1.6
				c-6.3-0.7-6.8-1.8-4.8-8c0.7-2.1,1.5-4.2,2.3-6.3c24.2-66.4,48.3-132.8,72.5-199.2c-12.3-8.9-24.5-17.8-36.9-26.7
				c-111.5-79.6-223-159.1-334.5-238.8c-8.2-5.8-7.8-4-5.2-13.7c9.1-33.8,18-67.6,27-101.4c10-37.8,19.8-75.6,29.9-113.4
				c8.2-31,16.7-62,25-93c0.7-2.5,1.3-4.9,1.9-7.4c2.2-9.6,2.1-9.6,11.8-6.1c0.3,0.1,0.6,0.2,0.9,0.3
				c62.2,22.6,124.4,45.3,186.6,67.9c9.1,3.3,9.3,3.4,7.1,12.4c-4.2,16.7-8.6,33.2-13,49.8c-9.3,35-18.5,70.1-28.1,105
				c-1.5,5.6,1.5,7.3,5,9.8c29.4,20.6,58.7,41.4,88.1,62c34.8,24.5,69.7,48.9,104.6,73.4c2.6,1.8,4.9,4.1,8.2,4.6
				c38.4-105.5,76.8-211,115.3-316.4c1.3-3.6,2.7-7.1,4-10.7c-3.1-3-7.4-3.7-11.2-5.1c-142-51.7-284-103.4-426-155.1
				c-13.7-5-12.7-3.2-6.8-16.1c13.6-29.4,27.6-58.7,41.4-88c10.4-22.2,20.6-44.4,31-66.6c13.8-29.4,27.6-58.7,41.4-88
				c10.3-21.9,20.4-43.8,30.7-65.7c14.2-30.2,28.4-60.4,42.6-90.6c10-21.3,19.9-42.6,29.9-63.9c14.4-30.8,28.8-61.6,43.4-92.3
				c15.2-32.2,30.6-64.3,46-96.4c8.5-17.8,17-35.5,25.6-53.3c2.9-6,3.1-6,9.4-3.9c2.1,0.7,4.2,1.5,6.3,2.3
				c119,43.3,238,86.6,357,129.9c3.9,1.4,7.8,2.6,11.8,3.9c8.5-23.3,17-46.7,25.5-70c3.4-9.2,4.1-9.6,13.1-6.3
				c11.4,4.1,22.7,8.3,34.1,12.4c205.2,74.7,410.3,149.3,615.5,224C4169,1475.3,4168.5,1474,4163.4,1486.9z"/>
			<path class="st18" d="M3467.5,1310.4c8.5-23.3,17-46.7,25.5-70c3.4-9.2,4.1-9.6,13.1-6.3c11.4,4.1,22.7,8.3,34.1,12.4
				c205.2,74.7,410.3,149.3,615.5,224c13.2,4.8,12.8,3.5,7.6,16.4c-4.3,10.8-9.7,21.3-15,31.7c-4.3,8.4-7.5,17.4-11.8,25.9
				c-8.9,17.4-16.4,35.6-25.1,53.1c-4.1,8.2-8,16.5-11.6,25c-4.5,10.8-9.7,21.2-15.2,31.6c-4,7.5-6.9,15.6-10.4,23.4
				c-4.3,9.5-8.8,19-13.4,28.3c-4.8,9.6-7.8,20-13.7,29.2c-3.7,5.7-6.4,12.4-8.9,18.8c-6.9,17.1-15.3,33.4-23,50
				c-7.2,15.4-14.2,31-22,46.2c-4.7,9.2-8.8,18.9-13.1,28.4c-4.5,9.7-8.8,19.6-13.8,29.1c-4.4,8.3-7.3,17.5-11.9,25.8
				c-6.2,11-10.6,22.9-16.1,34.3c-4.2,8.8-8.3,17.8-12.5,26.6c-4.7,10-8.6,20.3-14.3,29.9c-3.9,6.5-6.4,13.8-9.4,20.7
				c-4.3,9.9-9.1,19.5-13.6,29.3c-4.4,9.4-8,19.2-13.5,28.2c-4,6.4-6.4,13.8-9.4,20.7c-4.3,9.8-9.3,19.4-13.6,29.3
				c-4.2,9.5-8.1,19.2-13.5,28.2c-4,6.7-6.8,14.3-9.9,21.5c-4.1,9.6-8.7,19.1-13.4,28.3c-4.9,9.6-7.9,20-13.7,29.2
				c-4.1,6.6-7,14.2-9.9,21.5c-4,9.7-8.7,19.1-13.3,28.4c-4.3,8.7-7.4,18.1-12.6,26.5c-4.4,7.1-7.3,15.4-10.6,23.3
				c-4.1,9.6-8.7,19.1-13.3,28.3c-4.3,8.7-7.3,18.1-12.7,26.5c-4,6.3-6.8,13.6-9.6,20.6c-6.9,17-15.3,33.4-23.1,50
				c-7.2,15.4-14.4,30.9-22,46.2c-4.7,9.6-8.9,19.6-13.6,29.3c-4.6,9.4-7.9,19.3-13.5,28.2c-4.1,6.7-6.7,14.3-9.9,21.5
				c-4.3,9.8-9.2,19.5-13.6,29.3c-4.2,9.1-7.5,18.7-13.1,27.3c-4.1,6.4-6.4,13.8-9.5,20.7c-4.2,9.2-8.6,18.4-13,27.5
				c-4.9,9.9-8.2,20.5-14.1,30c-4,6.4-6.4,13.8-9.5,20.7c-4.2,9.2-8.6,18.4-13,27.5c-4.5,9.4-8.8,18.9-13.2,28.3
				c-5.1,10.9-10.8,21.5-14.9,32.9c-2.8,8-3.4,8.3-11.8,7.6c-39.8-3.3-79.5-6.7-119.3-9.9c-42.9-3.4-85.9-6.3-128.8-9.7
				c-35.3-2.8-70.7-6-106-8.8c-38.2-3-76.4-5.8-114.6-8.7c-32.2-2.5-64.4-5-96.6-7.5c-6.3-0.5-12.6-0.9-18.9-1.6
				c-6.3-0.7-6.8-1.8-4.8-8c0.7-2.1,1.5-4.2,2.3-6.3c24.2-66.4,48.3-132.8,72.5-199.2c0.2-0.3,0.4-0.7,0.6-1.1
				c2.8,0.4,5.6,0.9,8.5,1.2c128,10.1,256,20.3,384,30.4c21.5,1.7,43.1,3.3,64.6,5.1c4.2,0.4,6.9-0.1,8.9-4.6
				c8.9-19.7,18.2-39.2,27.4-58.8c10.1-21.6,20.1-43.2,30.2-64.8c14.3-30.5,28.7-61,43-91.5c10-21.3,19.9-42.6,29.9-63.9
				c13.8-29.3,27.7-58.6,41.4-88c10.5-22.5,20.8-45,31.4-67.5c14.4-30.8,28.9-61.6,43.4-92.3c10.4-22.1,20.8-44.3,31.5-66.3
				c5.9-12.2,6.2-12.1-6.7-16.8c-142.6-51.9-285.3-103.8-427.9-155.7c-12.5-4.6-24.9-9.8-37.7-13.4l0.5-0.8
				c1.3-3.6,2.5-7.2,3.8-10.8c38.4-105.5,76.8-211,115.2-316.6c1.9,0.4,3.8,0.9,5.7,1.3c3.8,1.6,7.6,3.2,11.5,4.7
				c10.4,3.9,21.1,7.3,31.3,11.7c32.7,14.1,65.2,28.6,97.8,42.8c31.8,13.8,63.6,27.4,95.5,41.2c6.2,2.7,6.2,2.7,4.5,9.1
				c-4.5,16.6-9,33.1-13.4,49.7c-10.7,40.2-21.3,80.5-32,120.7c-3.2,12.3-6.3,24.6-9.7,36.9c-1.3,4.4,0.1,6.6,4.2,7.8
				c1.5,0.4,3,1.1,4.5,1.6c62.2,22.6,124.4,45.3,186.6,67.9c9.9,3.6,9.9,3.6,12.6-6.7c0.2-0.6,0.3-1.2,0.5-1.8
				c8.6-32.6,17.1-65.2,25.8-97.7c5.9-22.4,12-44.8,17.9-67.3c8.4-32,16.8-63.9,25.3-95.9c6.2-23.3,12.6-46.6,18.9-69.9
				c8.9-33.1,17.8-66.3,26.7-99.4c3.4-12.4,5.4-10.7-8.3-15.7c-127.1-46.3-254.1-92.5-381.2-138.8c-6.3-2.3-12.4-4.8-18.6-7.3
				c-7.3-2.9-14.4-6.6-22.5-7.3C3470.9,1312.1,3469.2,1311.3,3467.5,1310.4z"/>
			<path class="st19" d="M3395,1526.6c-1.9-0.4-3.8-0.9-5.7-1.3c-7.2-2.6-14.3-5.4-21.5-7.8c-40.1-13.4-80.2-26.7-120.3-40.1
				c-16.3-5.4-32.6-10.8-48.9-16.1c-6.3-2-6.3-2-9.2,4.1c-9.6,20.4-19.2,40.8-28.8,61.2c-13.8,29.3-27.7,58.5-41.6,87.8
				c-9.9,21-19.7,42-29.6,63c-13.3,28.1-26.8,56.2-40,84.4c-5,10.6-4.1,9.4,5.7,13c68.7,25,137.4,50,206.2,75c3,1.1,6.1,1.9,9.1,2.8
				c0,0-0.5,0.8-0.5,0.8c-24.8,68.2-49.6,136.4-74.3,204.6c-0.1,0.4-0.3,0.8-0.4,1.3c-3.1-3-7.4-3.7-11.2-5.1
				c-142-51.7-284-103.4-426-155.1c-13.7-5-12.7-3.2-6.8-16.1c13.6-29.4,27.6-58.7,41.4-88c10.4-22.2,20.6-44.4,31-66.6
				c13.8-29.4,27.6-58.7,41.4-88c10.3-21.9,20.4-43.8,30.7-65.7c14.2-30.2,28.4-60.4,42.6-90.6c10-21.3,19.9-42.6,29.9-63.9
				c14.4-30.8,28.8-61.6,43.4-92.3c15.2-32.2,30.6-64.3,46-96.4c8.5-17.8,17-35.5,25.6-53.3c2.9-6,3.1-6,9.4-3.9
				c2.1,0.7,4.2,1.5,6.3,2.3c119,43.3,238,86.6,357,129.9c3.9,1.4,7.8,2.6,11.8,3.9c1.7,0.9,3.4,1.7,5.1,2.6
				C3446.7,1384.2,3420.8,1455.4,3395,1526.6z"/>
			<path class="st19" d="M2998.2,2600.6c-0.2,0.4-0.4,0.7-0.6,1.1c-12.3-8.9-24.5-17.8-36.9-26.7c-111.5-79.6-223-159.1-334.5-238.8
				c-8.2-5.8-7.8-4-5.2-13.7c9.1-33.8,18-67.6,27-101.4c10-37.8,19.8-75.6,29.9-113.4c8.2-31,16.7-62,25-93c0.7-2.5,1.3-4.9,1.9-7.4
				c2.2-9.6,2.1-9.6,11.8-6.1c0.3,0.1,0.6,0.2,0.9,0.3c62.2,22.6,124.4,45.3,186.6,67.9c9.1,3.3,9.3,3.4,7.1,12.4
				c-4.2,16.7-8.6,33.2-13,49.8c-9.3,35-18.5,70.1-28.1,105c-1.5,5.6,1.5,7.3,5,9.8c29.4,20.6,58.7,41.4,88.1,62
				c34.8,24.5,69.7,48.9,104.6,73.4c2.6,1.8,4.9,4.1,8.2,4.6c-0.2,0.4-0.3,0.8-0.6,1.2c-9.5,26.3-19,52.5-28.5,78.8
				C3030.6,2511.1,3014.4,2555.9,2998.2,2600.6z"/>
			<path class="st18" d="M3075.9,2386.5c38.4-105.5,76.8-211,115.3-316.4c1.3-3.6,2.7-7.1,4-10.7c0.1-0.4,0.2-0.9,0.4-1.3
				c3.2,2.3,6.9,3.1,10.5,4.4c76.9,28,153.7,55.9,230.6,83.8c2.1,0.8,4.1,1.7,6.3,2.3c4.8,1.3,5,4.1,3,7.9c-0.6,1.1-1.1,2.3-1.6,3.5
				c-10.5,22.1-21,44.2-31.4,66.4c-10.7,22.7-21.1,45.6-31.7,68.3c-16.6,35.4-33.4,70.7-50,106.1c-3.7,7.9-3.6,8.1-12.7,7.3
				c-50.7-4.3-101.3-8.7-152-12.9c-30.4-2.5-60.8-4.9-91.2-7.4C3075.5,2387.3,3075.7,2386.9,3075.9,2386.5z"/>
			<path class="st17" d="M3270.3,1852.7c-3-0.9-6.1-1.7-9.1-2.8c-68.7-25-137.4-50-206.2-75c-9.8-3.6-10.7-2.4-5.7-13
				c13.2-28.2,26.7-56.2,40-84.4c9.9-21,19.7-42,29.6-63c13.8-29.3,27.7-58.6,41.6-87.8c9.6-20.4,19.2-40.8,28.8-61.2
				c2.9-6.1,2.9-6.1,9.2-4.1c16.3,5.3,32.6,10.7,48.9,16.1c40.1,13.3,80.2,26.7,120.3,40.1c7.2,2.4,14.3,5.2,21.5,7.8
				c-38.4,105.5-76.8,211-115.2,316.6C3272.8,1845.5,3271.6,1849.1,3270.3,1852.7z"/>
		</g>
		<path class="st20" d="M3036.4,1491.4c-0.6-27-3.1-54.2-6.6-81c-2.6-19.8-4.1-40.9-10.2-60.2c-4.4-13.9-10.5-27.6-16.8-40.7
			c-4.4-9.1-10.8-16.5-16.9-24.5c-4.2-5.5-8.5-11.7-13.5-16.7c-5-5-11.3-9.3-16.8-13.5c-5-3.9-10.8-9-16.6-12.4
			c-1.2-0.7-2.4-1.4-3.7-2c-10-5.2-22-10.1-32.7-13.8c-14.7-5.2-31-6-46.2-7.7c-6.7-0.7-13.3-0.9-20.1-0.6c-29.7,1-59.4,3.3-89.1,5
			c-59.5,3.4-119,6.8-178.4,10.2c-25.5,1.4-51,2.8-76.3,5.9c-20.9,2.5-41.9,5-62.7,9c-5.9-13.7-14.3-26.4-24.7-36.8
			c-10.8-11.6-23.5-19.8-38.3-24.6c-14.2-7.5-29.5-10.9-45.8-10.2c-30.8,1.4-62.7,11.5-84.1,34.9c-21.3,23.2-35.1,52-34.9,84.1
			c0.3,35.4,0.6,70.7,0.9,106.1c-8.2-0.5-16.4-0.9-24.6-1.4c-41.2-2.3-82.5,24.3-102.8,58.9c-10.8,18.6-16.2,38.6-16.2,60.1
			c0.1,21.5,5.5,41.5,16.2,60.1c29.4,59.1,57,119,83,179.7c0.7,1.6,1.3,3.2,2,4.7c0,0,0,0,0,0c-21.8,105.5-32.4,214.3-27.6,322
			c1.2,27.7,3.5,55.3,6.6,82.8c-0.6,16.4,2.8,31.7,10.2,45.8c4.8,14.8,13,27.5,24.6,38.3c8,6.2,16.1,12.4,24.1,18.6
			c13.7,8.7,28.4,13.4,44.2,14.1c10.5,2.8,21.1,2.8,31.6,0c15.8-0.7,30.6-5.4,44.2-14.1c0.4-0.3,0.8-0.6,1.2-1
			c9.9,34.4,19.3,69,28.2,103.7c0.1,0.5,0.3,1,0.4,1.5c-4.7,4.6-8.9,9.7-12.5,15.4c-10.5,11.5-17.6,25-21.3,40.5
			c-0.2,0.7-0.3,1.4-0.5,2.1c-57.2,29.2-110.4,65.9-158.9,108.6c-19.7,17.4-38.3,36.2-55.6,56c-6.2,8-12.4,16.1-18.6,24.1
			c-4,9.5-8,19-12,28.4c-1.4,10.5-2.8,21.1-4.3,31.6c-0.6,16.4,2.8,31.7,10.2,45.8c2.8,10.1,7.9,18.8,15.3,26.3
			c5.3,8.9,12.4,16.1,21.3,21.3c7.4,7.4,16.2,12.5,26.3,15.3c14.2,7.5,29.5,10.9,45.8,10.2c106.2-0.2,212.7-11.7,316.8-32
			c47.4-9.3,94.3-20.8,140.5-34.6c22.9-6.8,45.7-14.2,68.2-22.2c11-3.9,22.1-7.8,33-12.1c17.3-6.8,36.6-13.2,52.4-23.9
			c9.8-6.6,19.3-14.2,28.3-21.7c1.9-1.6,3.7-3.2,5.4-4.9c4.7-4.9,8.8-10.8,12.8-16c4.6-5.9,9.9-11.9,13.6-18.6
			c5.8-10.6,10.1-22.3,14.4-33.5c0.8-2.1,1.6-4.2,2.3-6.4c4.5-14.9,5.3-31,7.3-46.3c2.7-21.5,3.4-43.3,4.6-65
			c8.4-16.3,13.2-34.2,13.2-53.4c0.2-87.4,0.4-174.7,0.6-262.1c1.4-50.7,2.4-101.3,3-152c0.9-77.7,0.9-155.3,0-233
			c1.6-0.8,3.1-1.7,4.7-2.6c8.9-5.3,16.9-11.9,25.1-18.2c12.8-9.9,24.6-19.4,34.7-31.9c12.6-15.6,25.9-31.7,35.2-49.7
			c9.6-18.5,18.1-38.2,23.8-58.3c6.6-22.8,9.2-47,11.6-70.5C3036.3,1518.7,3036.7,1505,3036.4,1491.4z M2579.3,1675.1
			c15.6,18.2,32.3,35.5,51.1,50.4c4.9,3.9,9.9,7.8,14.9,11.7c-1.7,0.7-3.4,1.4-5.1,2.2c-12.3,6.5-22.9,16.1-31.6,27.2
			c0,0-0.1,0-0.1,0c-18.9-4.3-38.1-4.7-57.1-1.3c-5.3-20.5-10.8-41-16.6-61.4c-4-9.5-8-19-12-28.4c-4.9-6.3-9.7-12.6-14.6-18.8
			c19.4,1.1,38.9,2.2,58.3,3.3C2570.8,1665,2575,1670.1,2579.3,1675.1z"/>
		<g>
			<path class="st21" d="M2226.3,837.8c350.1,0,700.1,0.1,1050.2-0.2c12.9,0,16.8,1.7,15.4,16.5c-12,126.8-22.6,253.8-34,380.7
				c-13.2,148.4-26.9,296.7-40.1,445.1c-12.3,137.6-24.1,275.3-36.4,412.9c-13.2,148.4-26.8,296.7-40.1,445.1
				c-12.3,137.6-24.2,275.3-36.4,412.9c-1.5,17.1-4.3,34.1-4.7,51.2c-0.3,11.3-4.3,15.7-15.1,18.6c-94.4,25.7-188.6,52-282.8,78.1
				c-186.6,51.6-373.3,103.1-559.9,155.2c-13.3,3.7-25.1,3.2-38.3-0.4c-279.9-77.8-559.8-155.3-839.8-232.6c-9-2.5-12.1-6-12.9-15.5
				c-13-148.9-26.7-297.7-39.9-446.5c-11.3-126.9-22.2-253.8-33.5-380.7c-13.2-148.4-26.8-296.7-40.1-445.1
				c-12.3-137.6-24.1-275.3-36.4-412.9c-12.2-137.1-24.7-274.3-37.1-411.4c-1.8-20.5-3.2-41-5.5-61.5c-0.8-7.2,0.9-10.1,8.3-9.4
				c3.4,0.3,6.9,0.1,10.3,0.1C1527.2,837.8,1876.8,837.8,2226.3,837.8z M2225.9,2516.9c-2.9-0.3-5.8-0.3-8.6-1.1
				c-92.5-24.7-185-49.8-277.7-74c-10.9-2.8-13.4-7.6-14.2-17.8c-5-62-10.9-123.9-15.9-185.9c-0.9-10.5-4.2-13.6-15-13.5
				c-78.4,0.5-156.8,0.3-235.3,0.3c-20.3,0-20,0-18.2,19.6c11.7,129.3,23.4,258.5,34.7,387.8c0.8,9.4,4.2,13,13.3,15.6
				c93.8,25.7,187.5,52,281.1,78.3c84.2,23.6,168.4,47.3,252.7,71c3.9,5.7,2.9,12.2,2.9,18.5c0,74.5-0.1,149,0.1,223.5
				c0,10.7-4.8,25.2,2.2,31c7.3,5.9,19.9-3.1,30.1-5.9c87.4-24.2,174.7-48.7,262.1-73.1c88.3-24.7,176.6-49.3,264.9-73.9
				c44.2-12.3,88.3-24.6,132.4-37.1c6.2-1.8,13.6-2.2,14.3-11.9c1.5-20.9,3.7-41.7,5.8-62.5c2.5-25.2,4-50.5,6.6-75.7
				c4.2-40.7,7.5-81.4,11-122.1c2.1-24.3,4.1-48.5,6.4-72.8c3.7-39.2,7.7-78.4,11.2-117.7c2.4-26.2,4-52.4,6.3-78.6
				c3.7-41.7,7.6-83.3,11.4-125c2.2-24.2,4.1-48.5,6.4-72.8c3.7-38.7,7.7-77.4,11.2-116.2c2.4-26.7,4-53.4,6.3-80.1
				c3.6-41.7,7.6-83.3,11.4-125c2.2-24.2,4.1-48.5,6.3-72.8c3.7-38.7,7.7-77.4,11.3-116.2c2.4-26.7,4-53.4,6.3-80.1
				c3.6-41.7,7.7-83.3,11.4-125c2.2-24.2,4.1-48.5,6.3-72.8c3.7-41.2,7.6-82.4,11.3-123.5c2.2-24.7,4.2-49.5,6.4-74.2
				c3.7-40.7,7.3-81.4,11.4-122.1c1.3-12.7-2.6-16.7-16-16.7c-279.9,0.4-559.8,0.4-839.8,0c-12.5,0-15.5,3.9-15.4,15.8
				c0.5,82.8,0.3,165.7,0.3,248.5c-5.9,0.2-11.7,0.6-17.6,0.6c-211.7,0-423.5,0-635.2,0.2c-5.8,0-12.7-3.3-17.5,3.2
				c0.7,8.8,1.5,17.5,2.2,26.3c10.1,114.2,20.2,228.3,30.5,342.5c12.6,140,25.5,280,37.7,420c1.2,13.8,5.5,17.2,19.2,17.2
				c186.8-0.5,373.5-0.4,560.3-0.3c5.9,0,11.7,0.3,17.6,0.5c4,5.7,2.8,12.2,2.8,18.5C2225.9,2245.5,2225.9,2381.2,2225.9,2516.9z"/>
			<path class="st22" d="M2225.8,1281c0-82.8,0.2-165.7-0.3-248.5c-0.1-12,2.9-15.9,15.4-15.8c279.9,0.3,559.8,0.4,839.8,0
				c13.4,0,17.3,4,16,16.7c-4.1,40.7-7.7,81.4-11.4,122.1c-2.2,24.7-4.2,49.5-6.4,74.2c-3.7,41.2-7.6,82.4-11.3,123.5
				c-2.2,24.2-4.1,48.5-6.3,72.8c-3.8,41.7-7.8,83.3-11.4,125c-2.3,26.7-3.9,53.4-6.3,80.1c-3.5,38.8-7.6,77.5-11.3,116.2
				c-2.3,24.2-4.2,48.5-6.3,72.8c-3.8,41.7-7.8,83.3-11.4,125c-2.3,26.7-3.9,53.4-6.3,80.1c-3.5,38.8-7.6,77.5-11.2,116.2
				c-2.3,24.2-4.2,48.5-6.4,72.8c-3.8,41.7-7.7,83.3-11.4,125c-2.3,26.2-3.9,52.5-6.3,78.6c-3.6,39.2-7.6,78.4-11.2,117.7
				c-2.3,24.2-4.3,48.5-6.4,72.8c-3.5,40.7-6.8,81.4-11,122.1c-2.6,25.2-4.1,50.5-6.6,75.7c-2.1,20.8-4.3,41.6-5.8,62.5
				c-0.7,9.7-8.1,10.1-14.3,11.9c-44.1,12.5-88.3,24.8-132.4,37.1c-88.3,24.6-176.6,49.2-264.9,73.9
				c-87.4,24.4-174.7,48.9-262.1,73.1c-10.1,2.8-22.8,11.8-30.1,5.9c-7-5.7-2.2-20.3-2.2-31c-0.2-74.5-0.1-149-0.1-223.5
				c0-6.3,1-12.8-2.9-18.5c1.1-0.5,2.2-1,3.3-1.5c178.4-49.5,356.9-99,535.4-148.1c9.1-2.5,11.2-6.7,11.6-15.2
				c0.6-15.2,2.4-30.3,3.7-45.4c7.4-81.9,15-163.9,22.3-245.8c7.3-81.9,14.4-163.9,21.7-245.9c7.5-84.4,15.2-168.7,22.6-253.1
				c1.6-18.3,1.1-18.4-18.1-18.4c-195.1,0-390.2,0-585.2,0c-4.9,0-9.8,0.4-14.7,0.6l0.2-1.4c0-90.3-0.1-180.6-0.1-270.9
				c0.1-0.7,0.2-1.4,0.3-2.1c1.5,0.2,2.9,0.6,4.4,0.6c209.3,0,418.5,0,627.8,0.3c9.9,0,11.8-3.6,12.6-12.5
				c7.2-79.5,14.6-159,22.7-238.4c1.4-13.9-2.8-16.7-16.1-16.7c-212.2,0.4-424.4,0.3-636.6,0.3c-4.9,0-9.8,0.4-14.6,0.7l0.7-0.4
				l-0.3-0.7C2226.4,1282.2,2226.2,1281.6,2225.8,1281z"/>
			<path class="st23" d="M2226,1549.9c-0.1,0.7-0.2,1.4-0.3,2.1c-3.9-0.5-7.7-1.4-11.6-1.4c-117.6-0.1-235.1,0.2-352.7-0.4
				c-12.7-0.1-13.1,5.3-12.2,14.9c7.7,81.9,15.4,163.7,22.4,245.7c0.9,11.1,4.4,13.3,14.8,13.2c108.8-0.4,217.5-0.2,326.3-0.3
				c4.4,0,8.8-0.5,13.2-0.8c0,0-0.2,1.4-0.2,1.4c0.1,88.7,0.1,177.4,0.2,266.1c-1,0.3-1.9,0.6-2.9,0.8c-5.9-0.2-11.7-0.5-17.6-0.5
				c-186.8,0-373.5-0.2-560.3,0.3c-13.7,0-18-3.4-19.2-17.2c-12.1-140-25.1-280-37.7-420c-10.3-114.2-20.3-228.3-30.5-342.5
				c-0.8-8.8-1.5-17.5-2.2-26.3c6.4-0.1,12.7-0.4,19.1-0.4c211,0,422,0,633.1-0.1c6.3,0,12.8,1.1,18.9-1.6l0.3,0.7
				c0,0-0.7,0.4-0.7,0.4C2226.1,1372.7,2226,1461.3,2226,1549.9z"/>
			<path class="st23" d="M2226.3,2795.6c-1.1,0.5-2.2,1-3.3,1.5c-84.2-23.7-168.4-47.4-252.7-71c-93.7-26.2-187.3-52.5-281.1-78.3
				c-9.1-2.5-12.5-6.1-13.3-15.6c-11.3-129.3-23-258.5-34.7-387.8c-1.8-19.6-2-19.6,18.2-19.6c78.4,0,156.9,0.2,235.3-0.3
				c10.8-0.1,14.1,3,15,13.5c5,62,10.9,123.9,15.9,185.9c0.8,10.2,3.3,15,14.2,17.8c92.7,24.2,185.1,49.3,277.7,74
				c2.8,0.7,5.7,0.7,8.6,1.1c0,0-0.3,1.2-0.3,1.2C2225.9,2610.6,2226.1,2703.1,2226.3,2795.6z"/>
			<path class="st22" d="M2223,2091.2c1-0.3,1.9-0.6,2.9-0.8c5.4,0.2,10.7,0.7,16.1,0.7c99.4,0,198.9,0.2,298.3-0.2
				c10,0,14.4,2,12.6,12.9c-1.8,10.6-2.1,21.4-3.1,32.1c-8.7,96.5-17.6,193-25.8,289.6c-0.9,10-4,14-13.8,16.5
				c-94.9,25-189.7,50.6-284.5,76.1c0,0,0.3-1.2,0.3-1.2c0-135.7-0.1-271.4-0.1-407.1C2225.8,2103.5,2226.9,2096.9,2223,2091.2z"/>
			<path class="st24" d="M2226.5,1283c-6.1,2.7-12.6,1.6-18.9,1.6c-211,0.1-422,0-633.1,0.1c-6.4,0-12.7,0.3-19.1,0.4
				c4.8-6.5,11.7-3.2,17.5-3.2c211.7-0.2,423.5-0.2,635.2-0.2c5.9,0,11.7-0.4,17.6-0.6C2226.2,1281.6,2226.4,1282.2,2226.5,1283z"/>
			<path class="st21" d="M2225.9,1822.8c-4.4,0.3-8.8,0.8-13.2,0.8c-108.8,0-217.5-0.1-326.3,0.3c-10.4,0-13.9-2.1-14.8-13.2
				c-6.9-81.9-14.7-163.8-22.4-245.7c-0.9-9.6-0.6-14.9,12.2-14.9c117.6,0.5,235.1,0.3,352.7,0.4c3.9,0,7.7,0.9,11.6,1.4
				C2225.8,1642.2,2225.8,1732.5,2225.9,1822.8z"/>
		</g>
	</g>
	<g>
		<g>
			<line class="st25" x1="349.8" y1="3504.3" x2="4132.1" y2="3504.3"/>
			<g>
				<path class="st26" d="M354.9,3607.7c-57.1,0-103.4-46.3-103.4-103.4c0-57.1,46.3-103.4,103.4-103.4
					c57.1,0,103.4,46.3,103.4,103.4C458.3,3561.4,412,3607.7,354.9,3607.7z"/>
			</g>
			<g>
				<path class="st26" d="M4127,3607.7c57.1,0,103.4-46.3,103.4-103.4c0-57.1-46.3-103.4-103.4-103.4
					c-57.1,0-103.4,46.3-103.4,103.4C4023.6,3561.4,4069.9,3607.7,4127,3607.7z"/>
			</g>
		</g>
	</g>
	<g>
		<path class="st27" d="M776.8,4174.7l-13.6-1.5l1.5-13.2c34.8,4.5,61.1,6.8,78.7,6.8c44.4,0,66.6-21.8,66.6-65.5
			c0-12.1-1.6-21.4-4.9-28c-3.3-6.6-9.5-11.9-18.7-15.9c-9.2-4-23.4-7.6-42.6-10.6c-21.5-3.5-37.9-7.7-49.2-12.5
			c-11.4-4.8-19.7-11.8-25.2-21c-5.4-9.2-8.1-22.3-8.1-39.2c0-22.2,6.6-38.8,19.9-49.8c13.2-11,34-16.5,62.3-16.5
			c22.2,0,47.3,1.9,75.3,5.7l-1.5,13.6c-38.1-4.5-62.8-6.8-74.2-6.8c-44.7,0-67,17.7-67,53c0,14.4,1.4,24.9,4.4,31.4
			c2.9,6.6,9.1,11.8,18.7,15.7c9.6,3.9,25.7,8,48.5,12.3c19.2,3.3,34.2,7.3,45,11.9c10.8,4.7,18.8,11.4,23.8,20.1
			c5,8.7,7.6,20.4,7.6,35c0,27.3-6.3,47.3-18.9,60.2c-12.6,12.9-32.9,19.3-60.9,19.3C830.3,4179.2,807.9,4177.7,776.8,4174.7z"/>
		<path class="st27" d="M1000.5,4174.5c-6.6-3.9-11.3-10.7-14.2-20.3c-2.9-9.6-4.4-23.3-4.4-41.3v-113.6h-29.9v-12.1H982V3926h12.9
			v61.3h69.3v12.1h-69.3v99.2c0,19.2,0.7,33.4,2.1,42.6c1.4,9.2,4.5,16.1,9.3,20.6c4.8,4.5,12.6,6.8,23.5,6.8l36.7-3.4l1.9,12.1
			c-20.7,2-34.2,3-40.5,3C1016.2,4180.3,1007.1,4178.4,1000.5,4174.5z"/>
		<path class="st27" d="M1100.1,3987.3h12.9v29.5c22-16.4,47.1-27.5,75.3-33.3v13.6c-10.6,2-22.5,5.8-35.8,11.4
			c-13.2,5.6-22.7,10.5-28.2,14.8l-11,6.4v146.9h-13.2V3987.3z"/>
		<path class="st27" d="M1239.5,4171.1c-11-5.9-18.5-15.6-22.7-29.1c-4.2-13.5-6.2-32.7-6.2-57.7c0-26.2,2.3-46.5,6.8-60.8
			c4.5-14.3,12.3-24.4,23.3-30.5c11-6.1,26.7-9.1,47.1-9.1s36.1,3.1,47.1,9.3c11,6.2,18.7,16.4,23.1,30.7
			c4.4,14.3,6.6,34.4,6.6,60.4c0,25-2,44.2-6.1,57.5c-4,13.4-11.5,23.1-22.5,29.1c-11,6.1-27.1,9.1-48.3,9.1
			S1250.5,4177,1239.5,4171.1z M1328.1,4159.7c8.7-5.2,14.6-13.5,17.6-25c3-11.5,4.5-28.3,4.5-50.5c0-24-1.6-42.1-4.9-54.3
			c-3.3-12.2-9.3-20.9-18-25.9c-8.7-5-21.8-7.6-39.2-7.6c-17.4,0-30.6,2.5-39.6,7.6c-9,5.1-15.1,13.8-18.5,26.1
			c-3.4,12.4-5.1,30.4-5.1,54.1c0,22,1.6,38.7,4.7,50.3c3.2,11.6,9.2,20,18.2,25.2c9,5.2,22.4,7.8,40.3,7.8
			C1306.1,4167.5,1319.4,4164.9,1328.1,4159.7z"/>
		<path class="st27" d="M1416.9,3987.3h12.9v15.1c12.9-6.8,24.7-11.6,35.4-14.4c10.7-2.8,21.8-4.2,33.1-4.2
			c16.4,0,28.8,2.8,37.3,8.3c8.5,5.6,14.4,15,17.8,28.4c3.4,13.4,5.1,32.7,5.1,57.9v98h-12.9v-98c0-21.7-1.2-38.4-3.6-50
			c-2.4-11.6-6.8-19.9-13.2-25c-6.4-5-15.8-7.6-28.2-7.6c-11.4,0-22.9,1.5-34.6,4.5c-11.7,3-20.6,6.2-26.7,9.5l-9.1,4.9v161.6h-13.2
			V3987.3z"/>
		<path class="st27" d="M1635.3,4260.6c-10.4-4-17.4-10.1-21.2-18.2c-3.8-8.1-5.7-19.2-5.7-33.3c0-9.1,0.9-16.2,2.8-21.4
			c1.9-5.2,4.7-9.5,8.3-12.9c3.7-3.4,10.4-8.9,20.3-16.5c-2.8-1.8-4.9-4.9-6.2-9.3c-1.4-4.4-2.1-9-2.1-13.8c0-3,0.7-6.4,2.1-10.2
			c1.4-3.8,4.6-10.7,9.7-20.8c-21.7-6.3-32.6-25.5-32.6-57.5c0-21.4,5.2-37.3,15.5-47.7c10.3-10.3,27.3-15.5,50.7-15.5
			c12.4,0,25.2,1.6,38.6,4.9l53-1.1v13.2l-41.3,0.4c5,3.5,8.9,9.3,11.5,17.2c2.6,7.9,4,17.6,4,29c0,22.2-5.4,38-16.3,47.5
			c-10.9,9.5-28.3,14.2-52.2,14.2c-8.1,0-15-0.5-20.8-1.5l-3,7.6c-1.8,4.3-3.2,8.1-4.2,11.4c-1,3.3-1.5,6.4-1.5,9.5
			c0,7.6,2.7,12.6,8.1,15.1c5.4,2.5,13.4,3.8,24,3.8l26.1-0.4c13.6,0,24.7,1.4,33.3,4.2c8.6,2.8,15.2,7.9,19.9,15.3
			c4.7,7.4,7,18.2,7,32.4c0,14.1-2.5,25.5-7.6,34.3c-5.1,8.7-13.6,15.3-25.5,19.7c-12,4.4-28.5,6.6-49.4,6.6
			C1660.8,4266.6,1645.6,4264.6,1635.3,4260.6z M1722.7,4250.2c9.6-3.2,16.5-8.3,20.6-15.5c4.2-7.2,6.2-17.1,6.2-29.7
			c0-10.6-1.3-18.5-4-23.8c-2.6-5.3-7.8-9.1-15.3-11.4c-7.6-2.3-19.2-3.3-34.8-3l-45.4-1.5c-8.3,5.6-14.4,10.2-18.2,13.8
			c-3.8,3.7-6.4,7.6-7.9,11.9c-1.5,4.3-2.3,10.1-2.3,17.4c0,12.1,1.8,21.5,5.5,28.2c3.7,6.7,9.8,11.4,18.4,14.2
			c8.6,2.8,20.9,4.2,37.1,4.2C1699.8,4254.9,1713.1,4253.3,1722.7,4250.2z M1717,4085.5c7.8-7.4,11.7-20.6,11.7-39.6
			c0-18.7-3.9-31.7-11.5-39.2c-7.7-7.4-21-11.2-39.9-11.2c-19.4,0-33.2,3.9-41.3,11.5c-8.1,7.7-12.1,20.9-12.1,39.6
			c0,18.7,4,31.7,11.9,39c7.9,7.3,21.5,11,40.7,11C1695.7,4096.7,1709.2,4093,1717,4085.5z"/>
		<path class="st27" d="M1907.8,3924.1v120h118.5v12.5h-118.5v120h-14v-265h151.8v12.5H1907.8z"/>
		<path class="st27" d="M2101,4171.1c-11-5.9-18.5-15.6-22.7-29.1c-4.2-13.5-6.2-32.7-6.2-57.7c0-26.2,2.3-46.5,6.8-60.8
			c4.5-14.3,12.3-24.4,23.3-30.5c11-6.1,26.7-9.1,47.1-9.1c20.4,0,36.1,3.1,47.1,9.3c11,6.2,18.7,16.4,23.1,30.7
			c4.4,14.3,6.6,34.4,6.6,60.4c0,25-2,44.2-6.1,57.5c-4,13.4-11.5,23.1-22.5,29.1s-27.1,9.1-48.3,9.1
			C2128.1,4180,2112,4177,2101,4171.1z M2189.6,4159.7c8.7-5.2,14.6-13.5,17.6-25c3-11.5,4.5-28.3,4.5-50.5c0-24-1.6-42.1-4.9-54.3
			c-3.3-12.2-9.3-20.9-18-25.9c-8.7-5-21.8-7.6-39.2-7.6c-17.4,0-30.6,2.5-39.6,7.6c-9,5.1-15.1,13.8-18.5,26.1
			c-3.4,12.4-5.1,30.4-5.1,54.1c0,22,1.6,38.7,4.7,50.3c3.2,11.6,9.2,20,18.2,25.2c9,5.2,22.4,7.8,40.3,7.8
			C2167.6,4167.5,2180.9,4164.9,2189.6,4159.7z"/>
		<path class="st27" d="M2298.8,4171.8c-8.3-5.4-14.1-14.8-17.4-28c-3.3-13.2-4.9-32.6-4.9-58.1v-98.4h13.2v97.3
			c0,22.5,1.2,39.5,3.6,51.1c2.4,11.6,6.9,19.9,13.4,24.8c6.6,4.9,16.3,7.4,29.1,7.4c12.1,0,23.7-1.7,34.6-5.1
			c11-3.4,21-8,30.1-13.8v-161.6h13.6v189.3h-14v-15.1c-9.8,6.3-19.7,11-29.7,14c-10,3-21.5,4.5-34.6,4.5
			C2319.5,4180,2307.1,4177.2,2298.8,4171.8z"/>
		<path class="st27" d="M2473.7,3987.3h12.9v15.1c12.9-6.8,24.7-11.6,35.4-14.4c10.7-2.8,21.8-4.2,33.1-4.2
			c16.4,0,28.8,2.8,37.3,8.3c8.5,5.6,14.4,15,17.8,28.4c3.4,13.4,5.1,32.7,5.1,57.9v98h-12.9v-98c0-21.7-1.2-38.4-3.6-50
			c-2.4-11.6-6.8-19.9-13.2-25c-6.4-5-15.8-7.6-28.2-7.6c-11.4,0-22.9,1.5-34.6,4.5c-11.7,3-20.6,6.2-26.7,9.5l-9.1,4.9v161.6h-13.2
			V3987.3z"/>
		<path class="st27" d="M2679.6,4157.1c-9.8-15.3-14.8-39-14.8-71.4c0-24.5,2.7-44.1,8.1-58.9c5.4-14.8,14.2-25.6,26.3-32.6
			c12.1-6.9,28.4-10.4,48.8-10.4c7.6,0,15.6,0.4,24.2,1.3c8.6,0.9,16,2.1,22.3,3.6v-88.6h12.9v276.3h-12.9v-16.3
			c-19.9,13.1-41.8,19.7-65.5,19.7C2706,4180,2689.4,4172.3,2679.6,4157.1z M2761.2,4162.9c11-3.3,19.1-6.6,24.4-9.8l9.1-4.9v-147.2
			c-18.4-3.5-34.7-5.3-48.8-5.3c-16.9,0-30.2,3.1-39.9,9.3c-9.7,6.2-16.6,15.5-20.6,28c-4,12.5-6.1,29.1-6.1,49.8
			c0,28.3,3.8,49.5,11.4,63.8c7.6,14.3,20.7,21.4,39.4,21.4C2739.8,4167.8,2750.2,4166.2,2761.2,4162.9z"/>
		<path class="st27" d="M2869,4165.6c-8.7-9.6-13.1-22.8-13.1-39.7c0-16.9,4.2-29.8,12.7-38.8c8.5-9,21.8-14.7,39.9-17.2l71.9-7.2
			v-19.3c0-15.6-3.3-27.3-9.8-35c-6.6-7.7-15.5-11.5-26.9-11.5c-11.1,0-20.9,0.4-29.3,1.1c-8.5,0.8-24.3,2.5-47.5,5.3l-1.1-12.5
			c26.2-4.5,50.1-6.8,71.5-6.8c19.4,0,33.7,4.9,43,14.6c9.2,9.7,13.8,24.7,13.8,44.9v109c0.2,3.8,2.9,7.1,7.9,10
			c5,2.9,11.7,4.9,20.1,5.9l-0.8,11.7c-8.3,0-16.1-1.5-23.3-4.5c-7.2-3-12.4-7.1-15.7-12.1c-25.2,11.1-50.7,16.7-76.5,16.7
			C2890,4180,2877.7,4175.2,2869,4165.6z M2969.9,4156.1l10.6-4.2v-76.8l-70.4,6.8c-13.9,1-23.9,4.9-30.1,11.5
			c-6.2,6.7-9.3,16.7-9.3,30.1c0,29.3,11.9,43.9,35.6,43.9C2928.3,4167.5,2949.5,4163.7,2969.9,4156.1z"/>
		<path class="st27" d="M3085,4174.5c-6.6-3.9-11.3-10.7-14.2-20.3c-2.9-9.6-4.4-23.3-4.4-41.3v-113.6h-29.9v-12.1h29.9V3926h12.9
			v61.3h69.3v12.1h-69.3v99.2c0,19.2,0.7,33.4,2.1,42.6c1.4,9.2,4.5,16.1,9.3,20.6c4.8,4.5,12.6,6.8,23.5,6.8l36.7-3.4l1.9,12.1
			c-20.7,2-34.2,3-40.5,3C3100.6,4180.3,3091.5,4178.4,3085,4174.5z"/>
		<path class="st27" d="M3184.1,3911.6h12.9v20.8h-12.9V3911.6z M3184.5,3987.3h12.9v189.3h-12.9V3987.3z"/>
		<path class="st27" d="M3275.6,4171.1c-11-5.9-18.5-15.6-22.7-29.1c-4.2-13.5-6.2-32.7-6.2-57.7c0-26.2,2.3-46.5,6.8-60.8
			c4.5-14.3,12.3-24.4,23.3-30.5c11-6.1,26.7-9.1,47.1-9.1c20.4,0,36.1,3.1,47.1,9.3c11,6.2,18.7,16.4,23.1,30.7
			c4.4,14.3,6.6,34.4,6.6,60.4c0,25-2,44.2-6.1,57.5c-4,13.4-11.5,23.1-22.5,29.1s-27.1,9.1-48.3,9.1
			C3302.6,4180,3286.5,4177,3275.6,4171.1z M3364.1,4159.7c8.7-5.2,14.6-13.5,17.6-25c3-11.5,4.5-28.3,4.5-50.5
			c0-24-1.6-42.1-4.9-54.3c-3.3-12.2-9.3-20.9-18-25.9c-8.7-5-21.8-7.6-39.2-7.6s-30.6,2.5-39.6,7.6c-9,5.1-15.1,13.8-18.5,26.1
			c-3.4,12.4-5.1,30.4-5.1,54.1c0,22,1.6,38.7,4.7,50.3c3.2,11.6,9.2,20,18.2,25.2c9,5.2,22.4,7.8,40.3,7.8
			C3342.1,4167.5,3355.4,4164.9,3364.1,4159.7z"/>
		<path class="st27" d="M3452.9,3987.3h12.9v15.1c12.9-6.8,24.7-11.6,35.4-14.4c10.7-2.8,21.8-4.2,33.1-4.2
			c16.4,0,28.8,2.8,37.3,8.3c8.5,5.6,14.4,15,17.8,28.4c3.4,13.4,5.1,32.7,5.1,57.9v98h-12.9v-98c0-21.7-1.2-38.4-3.6-50
			c-2.4-11.6-6.8-19.9-13.2-25c-6.4-5-15.8-7.6-28.2-7.6c-11.4,0-22.9,1.5-34.6,4.5s-20.6,6.2-26.7,9.5l-9.1,4.9v161.6h-13.2V3987.3
			z"/>
		<path class="st27" d="M1877.7,4365.8h14l53.4,251.7h14.4l58.3-247.9h16.3l58.3,247.9h14.4l53.4-251.7h13.2l-55.6,265h-36.3
			l-55.6-242.3l-55.6,242.3h-36L1877.7,4365.8z"/>
		<path class="st27" d="M2217.6,4365.8h12.9v20.8h-12.9V4365.8z M2218,4441.5h12.9v189.3H2218V4441.5z"/>
		<path class="st27" d="M2313.4,4628.7c-6.6-3.9-11.3-10.7-14.2-20.3c-2.9-9.6-4.4-23.3-4.4-41.3v-113.6h-29.9v-12.1h29.9v-61.3
			h12.9v61.3h69.3v12.1h-69.3v99.2c0,19.2,0.7,33.4,2.1,42.6c1.4,9.2,4.5,16.1,9.3,20.6c4.8,4.5,12.6,6.8,23.5,6.8l36.7-3.4
			l1.9,12.1c-20.7,2-34.2,3-40.5,3C2329,4634.6,2319.9,4632.6,2313.4,4628.7z"/>
		<path class="st27" d="M2412.9,4354.5h13.2v98.8c23-10.1,45.2-15.1,66.6-15.1c16.9,0,29.7,2.8,38.4,8.3c8.7,5.6,14.8,15,18.2,28.2
			c3.4,13.2,5.1,32.6,5.1,58.1v98h-13.6v-97.7c0-23.2-1.3-40.6-3.8-52c-2.5-11.5-7.3-19.5-14.2-24c-6.9-4.5-17.5-6.8-31.6-6.8
			c-10.4,0-19.9,0.9-28.8,2.8c-8.8,1.9-18,4.7-27.6,8.5l-8.7,3.4v165.8h-13.2V4354.5z"/>
		<path class="st21" d="M687.7,4824.6V5085h-36v-114.7H530.2V5085h-36.3v-260.4h36.3v113.6h121.5v-113.6H687.7z"/>
		<path class="st21" d="M800.5,4856.7h-76.8v-32.2h189.3v32.2h-76.1V5085h-36.3V4856.7z"/>
		<path class="st21" d="M1207,4824.6V5085h-36.3v-221.1h-5.7l-67.8,210.8h-38.6l-68.1-210.8h-5.3V5085h-36.3v-260.4h63.6l65.5,212.3
			l65.1-212.3H1207z"/>
		<path class="st21" d="M1413.7,5052.8v32.2h-144.6v-260.4h36.3v228.2H1413.7z"/>
		<path class="st21" d="M1453.8,5079.7l-12.9-3l4.2-27.6c29.5,5.3,54.3,7.9,74.2,7.9c17.2,0,30.3-4.5,39.6-13.6
			c9.2-9.1,13.8-22,13.8-38.6c0-15.9-3.9-27.5-11.7-34.8c-7.8-7.3-19.4-11-34.8-11c-8.3,0-17.1,0.9-26.3,2.8
			c-9.2,1.9-16.8,4.1-22.9,6.6l-7.6,3l-23.5-4.9l6.8-131.3h148v32.2h-118.5l-6.8,73.1c18.9-9.1,37.1-13.6,54.5-13.6
			c53.2,0,79.9,24.9,79.9,74.6c0,28-7.3,49.6-22,64.7c-14.6,15.1-35.3,22.7-62.1,22.7C1504.2,5088.8,1480.3,5085.8,1453.8,5079.7z"
			/>
		<path class="st21" d="M1663.5,5052.1h14.8l-19.3,79.5h-12.1L1663.5,5052.1z"/>
		<path class="st13" d="M1846.7,5074.2c-14.4-10-24.3-24.5-29.7-43.5c-5.4-19-8.1-44.2-8.1-75.5c0-32.3,2.8-58,8.3-77.2
			c5.5-19.2,15.3-33.6,29.3-43.2c14-9.6,33.9-14.4,59.6-14.4c20.9,0,45.2,3,72.7,9.1l-1.1,29.9c-24-4.3-45.4-6.4-64.3-6.4
			c-18.9,0-33.2,3.3-42.8,10c-9.6,6.7-16,17.5-19.3,32.4c-3.3,14.9-4.8,36.5-4.5,64.7c0,24.5,1.6,43.3,4.7,56.6
			c3.2,13.2,9.6,23.2,19.3,29.9c9.7,6.7,24.5,10,44.5,10c16.7,0,37.5-2.1,62.5-6.4l1.1,30.7c-27.8,5.5-51.1,8.3-70,8.3
			C1881.7,5089.2,1861.1,5084.2,1846.7,5074.2z"/>
		<path class="st13" d="M2026.8,5081.6l-13.6-2.3l3.8-29.1c34.1,4.5,60.1,6.8,78,6.8c34.1,0,51.1-15.5,51.1-46.6
			c0-8.6-1.8-15.5-5.3-20.6c-3.5-5.2-9.1-9.3-16.8-12.5c-7.7-3.2-18.5-6.2-32.4-9.3c-20.4-4.8-36.3-10.2-47.7-16.1
			c-11.4-5.9-19.7-13.6-25-22.9c-5.3-9.3-7.9-21.6-7.9-36.7c0-24,7.2-42,21.6-54.1c14.4-12.1,35.6-18.2,63.6-18.2
			c10.3,0,21.5,0.6,33.5,1.9c12,1.3,27.8,3.5,47.5,6.8l-3,29.5c-34.6-4-59.6-6.1-74.9-6.1c-34.6,0-51.9,12.6-51.9,37.9
			c0,9.3,2,16.7,5.9,22c3.9,5.3,10.2,9.7,18.7,13.1c8.6,3.4,21.6,7.1,39,11.2c18.2,4.5,32.3,9.6,42.4,15.1
			c10.1,5.6,17.5,12.7,22.1,21.6c4.7,8.8,7,20.4,7,34.8c0,26.8-7.3,46.9-21.8,60.6c-14.5,13.6-35.6,20.4-63.4,20.4
			C2079.8,5088.8,2056.4,5086.4,2026.8,5081.6z"/>
		<path class="st13" d="M2232.4,5081.6l-13.6-2.3l3.8-29.1c34.1,4.5,60.1,6.8,78,6.8c34.1,0,51.1-15.5,51.1-46.6
			c0-8.6-1.8-15.5-5.3-20.6c-3.5-5.2-9.1-9.3-16.8-12.5c-7.7-3.2-18.5-6.2-32.4-9.3c-20.4-4.8-36.3-10.2-47.7-16.1
			c-11.4-5.9-19.7-13.6-25-22.9c-5.3-9.3-7.9-21.6-7.9-36.7c0-24,7.2-42,21.6-54.1s35.6-18.2,63.6-18.2c10.3,0,21.5,0.6,33.5,1.9
			c12,1.3,27.8,3.5,47.5,6.8l-3,29.5c-34.6-4-59.6-6.1-74.9-6.1c-34.6,0-51.9,12.6-51.9,37.9c0,9.3,2,16.7,5.9,22
			c3.9,5.3,10.2,9.7,18.7,13.1c8.6,3.4,21.6,7.1,39,11.2c18.2,4.5,32.3,9.6,42.4,15.1c10.1,5.6,17.5,12.7,22.1,21.6
			c4.7,8.8,7,20.4,7,34.8c0,26.8-7.3,46.9-21.8,60.6c-14.5,13.6-35.6,20.4-63.4,20.4C2285.4,5088.8,2261.9,5086.4,2232.4,5081.6z"/>
		<path class="st13" d="M2439.8,5080.8l-12.1-3l2.6-28.8c28,5.8,50.7,8.7,68.1,8.7c17.9,0,31.8-3.3,41.6-10
			c9.8-6.7,14.8-17.8,14.8-33.5c0-13.9-4-24.3-11.9-31.4c-7.9-7.1-19.6-10.8-35-11.4h-50.3v-30.7h50.3c6.6,0,13.1-1.8,19.5-5.5
			c6.4-3.7,11.7-8.8,15.7-15.3c4-6.6,6.1-13.9,6.1-22c0-12.4-3.7-21.3-11.2-26.9c-7.4-5.5-19.7-8.3-36.9-8.3
			c-16.7,0-35.7,1.9-57.2,5.7l-9.8,1.9l-3-28c23.5-7.6,49-11.4,76.5-11.4c27.5,0,47.5,5.2,60,15.7c12.5,10.5,18.7,27.1,18.7,49.8
			c0,12.9-3,24.2-8.9,34.1c-5.9,9.8-14.4,17.5-25.5,23.1c9.8,4,17.6,8.3,23.3,12.9s9.9,10.4,12.7,17.6c2.8,7.2,4.2,16.7,4.2,28.6
			c0,26-6.6,45.2-19.9,57.7s-34.1,18.7-62.6,18.7C2488.8,5089.2,2465.5,5086.4,2439.8,5080.8z"/>
		<path class="st27" d="M2738.3,5068c-13.5-13.6-20.3-33.6-20.3-59.8c0-16.4,2.3-29.6,7-39.7c4.7-10.1,11.4-18,20.3-23.7
			c8.8-5.7,20.3-10.5,34.4-14.6c-6.1-6.3-10.8-13.4-14.2-21.4c-3.4-7.9-5.1-17.5-5.1-28.6c0-19.2,5-33.6,15-43.3
			c10-9.7,24.5-14.6,43.7-14.6c18.9,0,33.2,4.7,42.8,14.2c9.6,9.5,14.4,23.2,14.4,41.1c0,17.7-4.9,31.7-14.6,42
			c-9.7,10.4-25.7,19.2-47.9,26.5l71.2,69.6c3.8-11.4,6.6-22,8.5-31.8c1.9-9.8,3.3-22.5,4.4-37.9l13.2-0.4
			c-3.5,35.3-9,62.1-16.3,80.2l53,52.2l-9.1,9.5l-49.6-49.2c-9.8,19.4-21.5,32.6-34.8,39.6c-13.4,6.9-29.7,10.4-48.8,10.4
			C2774.2,5088.4,2751.8,5081.6,2738.3,5068z M2851.1,5064.6c11.5-7.3,20.9-19.2,28.2-35.6l-89.3-89c-14.1,3.8-25.4,8.1-33.7,13.1
			s-14.5,11.5-18.5,19.9c-4,8.3-6.1,19.3-6.1,32.9c0,23.7,5.9,41.3,17.8,52.6c11.9,11.4,30,17,54.5,17
			C2823.9,5075.5,2839.6,5071.9,2851.1,5064.6z M2850.1,4913.5c8.8-8.3,13.2-20.1,13.2-35.2c0-14.9-3.7-25.9-11-32.9
			c-7.3-7.1-18.7-10.6-34.1-10.6c-15.1,0-26.4,3.5-33.7,10.6c-7.3,7.1-11,17.8-11,32.2c0,18.7,5.7,34.1,17,46.2l14,12.9
			C2826.1,4929.6,2841.3,4921.9,2850.1,4913.5z"/>
		<path class="st17" d="M3047.3,5080.1c11.1,0,19.3-0.9,24.6-2.6c5.3-1.8,9-5.2,11-10.2c2-5,3-13.1,3-24.2v-218.4h36l0.4,222.2
			c0,18.9-2.7,33.1-8.1,42.4c-5.4,9.3-13.3,15.5-23.7,18.4c-10.3,2.9-24.7,4.4-43.2,4.4V5080.1z"/>
		<path class="st17" d="M3184.3,5081.6l-13.6-2.3l3.8-29.1c34.1,4.5,60.1,6.8,78,6.8c34.1,0,51.1-15.5,51.1-46.6
			c0-8.6-1.8-15.5-5.3-20.6c-3.5-5.2-9.1-9.3-16.8-12.5c-7.7-3.2-18.5-6.2-32.4-9.3c-20.4-4.8-36.3-10.2-47.7-16.1
			c-11.4-5.9-19.7-13.6-25-22.9c-5.3-9.3-7.9-21.6-7.9-36.7c0-24,7.2-42,21.6-54.1s35.6-18.2,63.6-18.2c10.3,0,21.5,0.6,33.5,1.9
			c12,1.3,27.8,3.5,47.5,6.8l-3,29.5c-34.6-4-59.6-6.1-74.9-6.1c-34.6,0-51.9,12.6-51.9,37.9c0,9.3,2,16.7,5.9,22
			c3.9,5.3,10.2,9.7,18.7,13.1c8.6,3.4,21.6,7.1,39,11.2c18.2,4.5,32.3,9.6,42.4,15.1c10.1,5.6,17.5,12.7,22.1,21.6
			c4.7,8.8,7,20.4,7,34.8c0,26.8-7.3,46.9-21.8,60.6c-14.5,13.6-35.6,20.4-63.4,20.4C3237.3,5088.8,3213.9,5086.4,3184.3,5081.6z"/>
		<path class="st17" d="M3507.6,4856.4v81h102.2v31.4h-102.2v84.4h124.9v31.8h-161.2v-260.4h161.2v31.8H3507.6z"/>
		<path class="st17" d="M3681.7,5081.6l-13.6-2.3l3.8-29.1c34.1,4.5,60.1,6.8,78,6.8c34.1,0,51.1-15.5,51.1-46.6
			c0-8.6-1.8-15.5-5.3-20.6c-3.5-5.2-9.1-9.3-16.8-12.5c-7.7-3.2-18.5-6.2-32.4-9.3c-20.4-4.8-36.3-10.2-47.7-16.1
			c-11.4-5.9-19.7-13.6-25-22.9c-5.3-9.3-7.9-21.6-7.9-36.7c0-24,7.2-42,21.6-54.1c14.4-12.1,35.6-18.2,63.6-18.2
			c10.3,0,21.5,0.6,33.5,1.9c12,1.3,27.8,3.5,47.5,6.8l-3,29.5c-34.6-4-59.6-6.1-74.9-6.1c-34.6,0-51.9,12.6-51.9,37.9
			c0,9.3,2,16.7,5.9,22c3.9,5.3,10.2,9.7,18.7,13.1c8.6,3.4,21.6,7.1,39,11.2c18.2,4.5,32.3,9.6,42.4,15.1
			c10.1,5.6,17.5,12.7,22.1,21.6c4.7,8.8,7,20.4,7,34.8c0,26.8-7.3,46.9-21.8,60.6c-14.5,13.6-35.6,20.4-63.4,20.4
			C3734.7,5088.8,3711.2,5086.4,3681.7,5081.6z"/>
		<path class="st17" d="M3894,5056.4c-15.1-21.8-22.7-54.4-22.7-97.8c0-42.9,8.6-74.9,25.7-96c17.2-21.1,41.9-31.6,74.2-31.6
			c20.2,0,40.1,1.9,59.8,5.7l10.6,2.3l-3.4,28.8c-25.5-3.3-47.6-4.9-66.2-4.9c-20.4,0-36,6.6-46.7,19.9
			c-10.7,13.2-16.1,32.6-16.1,58.1l8.7-3.4c7.6-2.8,16-5.1,25.2-7c9.2-1.9,17.1-2.8,23.7-2.8c56.5,0,84.8,26.1,84.8,78.4
			c0,26.8-7.8,47.3-23.3,61.7s-37.7,21.6-66.4,21.6C3931.8,5089.2,3909.2,5078.2,3894,5056.4z M4000.8,5043.9
			c8.8-8.7,13.2-21.1,13.2-37.3c0-15.6-4.2-27.4-12.7-35.2c-8.5-7.8-20.9-11.7-37.3-11.7c-7.1,0-15,0.9-23.7,2.6
			c-8.7,1.8-16.6,3.9-23.7,6.4l-7.9,3.4c0,27,4.5,47.9,13.4,62.6c9,14.8,22.1,22.1,39.6,22.1C3979,5057,3991.9,5052.6,4000.8,5043.9
			z"/>
	</g>
</g>
</svg>
