<?xml version="1.0" encoding="utf-8"?>
<!-- Generator: Adobe Illustrator 22.0.1, SVG Export Plug-In . SVG Version: 6.00 Build 0)  -->
<svg version="1.1" id="Layer_1" xmlns="http://www.w3.org/2000/svg" xmlns:xlink="http://www.w3.org/1999/xlink" x="0px" y="0px"
	 viewBox="0 0 1422.4 609.4" style="enable-background:new 0 0 1422.4 609.4;" xml:space="preserve">
<style type="text/css">
	.st0{fill:#E44F26;}
	.st1{fill:#F1672A;}
	.st2{fill:#EBEAEA;}
	.st3{fill:#E68C75;}
	.st4{fill:#3A6AAF;}
	.st5{fill:#4F6F99;}
	.st6{fill:#4C9FD5;}
	.st7{fill:#E5E3E3;}
	.st8{fill:#EEC722;}
	.st9{fill:#FADE34;}
	.st10{fill:#EBEBEB;}
	.st11{fill:none;stroke:#2D2D2D;stroke-width:7;stroke-miterlimit:10;}
	.st12{fill:#2D2D2D;}
	.st13{display:none;}
	.st14{display:inline;}
	.st15{font-family:'Cairo-ExtraLight';}
	.st16{font-size:40.8648px;}
	.st17{display:inline;fill:#E44F26;}
	.st18{font-family:'Cairo-SemiBold';}
	.st19{display:inline;fill:#3A6AAF;}
	.st20{display:inline;fill:#EEC722;}
</style>
<g>
	<g>
		<g>
			<path class="st0" d="M449.6,105.6c37.8,0,75.6,0,113.4,0c1.4,0,1.8,0.2,1.7,1.8c-1.3,13.7-2.4,27.4-3.7,41.1
				c-1.4,16-2.9,32-4.3,48c-1.3,14.9-2.6,29.7-3.9,44.6c-1.4,16-2.9,32-4.3,48c-1.3,14.9-2.6,29.7-3.9,44.6
				c-0.2,1.8-0.5,3.7-0.5,5.5c0,1.2-0.5,1.7-1.6,2c-10.2,2.8-20.4,5.6-30.5,8.4c-20.1,5.6-40.3,11.1-60.4,16.8
				c-1.4,0.4-2.7,0.4-4.1,0c-30.2-8.4-60.4-16.8-90.7-25.1c-1-0.3-1.3-0.6-1.4-1.7c-1.4-16.1-2.9-32.1-4.3-48.2
				c-1.2-13.7-2.4-27.4-3.6-41.1c-1.4-16-2.9-32-4.3-48c-1.3-14.9-2.6-29.7-3.9-44.6c-1.3-14.8-2.7-29.6-4-44.4
				c-0.2-2.2-0.4-4.4-0.6-6.6c-0.1-0.8,0.1-1.1,0.9-1c0.4,0,0.7,0,1.1,0C374.1,105.6,411.8,105.6,449.6,105.6z M449.5,286.9
				c-0.3,0-0.6,0-0.9-0.1c-10-2.7-20-5.4-30-8c-1.2-0.3-1.4-0.8-1.5-1.9c-0.5-6.7-1.2-13.4-1.7-20.1c-0.1-1.1-0.5-1.5-1.6-1.5
				c-8.5,0.1-16.9,0-25.4,0c-2.2,0-2.2,0-2,2.1c1.3,14,2.5,27.9,3.7,41.9c0.1,1,0.5,1.4,1.4,1.7c10.1,2.8,20.2,5.6,30.3,8.5
				c9.1,2.5,18.2,5.1,27.3,7.7c0.4,0.6,0.3,1.3,0.3,2c0,8,0,16.1,0,24.1c0,1.2-0.5,2.7,0.2,3.3c0.8,0.6,2.2-0.3,3.2-0.6
				c9.4-2.6,18.9-5.3,28.3-7.9c9.5-2.7,19.1-5.3,28.6-8c4.8-1.3,9.5-2.7,14.3-4c0.7-0.2,1.5-0.2,1.5-1.3c0.2-2.3,0.4-4.5,0.6-6.7
				c0.3-2.7,0.4-5.5,0.7-8.2c0.5-4.4,0.8-8.8,1.2-13.2c0.2-2.6,0.4-5.2,0.7-7.9c0.4-4.2,0.8-8.5,1.2-12.7c0.3-2.8,0.4-5.7,0.7-8.5
				c0.4-4.5,0.8-9,1.2-13.5c0.2-2.6,0.4-5.2,0.7-7.9c0.4-4.2,0.8-8.4,1.2-12.5c0.3-2.9,0.4-5.8,0.7-8.6c0.4-4.5,0.8-9,1.2-13.5
				c0.2-2.6,0.4-5.2,0.7-7.9c0.4-4.2,0.8-8.4,1.2-12.5c0.3-2.9,0.4-5.8,0.7-8.6c0.4-4.5,0.8-9,1.2-13.5c0.2-2.6,0.4-5.2,0.7-7.9
				c0.4-4.4,0.8-8.9,1.2-13.3c0.2-2.7,0.5-5.3,0.7-8c0.4-4.4,0.8-8.8,1.2-13.2c0.1-1.4-0.3-1.8-1.7-1.8c-30.2,0-60.4,0-90.7,0
				c-1.4,0-1.7,0.4-1.7,1.7c0.1,8.9,0,17.9,0,26.8c-0.6,0-1.3,0.1-1.9,0.1c-22.9,0-45.7,0-68.6,0c-0.6,0-1.4-0.4-1.9,0.3
				c0.1,0.9,0.2,1.9,0.2,2.8c1.1,12.3,2.2,24.7,3.3,37c1.4,15.1,2.8,30.2,4.1,45.3c0.1,1.5,0.6,1.9,2.1,1.9c20.2-0.1,40.3,0,60.5,0
				c0.6,0,1.3,0,1.9,0.1c0.4,0.6,0.3,1.3,0.3,2C449.5,257.6,449.5,272.3,449.5,286.9z"/>
			<path class="st1" d="M449.5,153.5c0-8.9,0-17.9,0-26.8c0-1.3,0.3-1.7,1.7-1.7c30.2,0,60.4,0,90.7,0c1.4,0,1.9,0.4,1.7,1.8
				c-0.4,4.4-0.8,8.8-1.2,13.2c-0.2,2.7-0.5,5.3-0.7,8c-0.4,4.4-0.8,8.9-1.2,13.3c-0.2,2.6-0.4,5.2-0.7,7.9c-0.4,4.5-0.8,9-1.2,13.5
				c-0.3,2.9-0.4,5.8-0.7,8.6c-0.4,4.2-0.8,8.4-1.2,12.5c-0.2,2.6-0.4,5.2-0.7,7.9c-0.4,4.5-0.8,9-1.2,13.5
				c-0.3,2.9-0.4,5.8-0.7,8.6c-0.4,4.2-0.8,8.4-1.2,12.5c-0.2,2.6-0.5,5.2-0.7,7.9c-0.4,4.5-0.8,9-1.2,13.5
				c-0.2,2.8-0.4,5.7-0.7,8.5c-0.4,4.2-0.8,8.5-1.2,12.7c-0.2,2.6-0.5,5.2-0.7,7.9c-0.4,4.4-0.7,8.8-1.2,13.2
				c-0.3,2.7-0.4,5.4-0.7,8.2c-0.2,2.2-0.5,4.5-0.6,6.7c-0.1,1-0.9,1.1-1.5,1.3c-4.8,1.3-9.5,2.7-14.3,4c-9.5,2.7-19.1,5.3-28.6,8
				c-9.4,2.6-18.9,5.3-28.3,7.9c-1.1,0.3-2.5,1.3-3.2,0.6c-0.8-0.6-0.2-2.2-0.2-3.3c0-8,0-16.1,0-24.1c0-0.7,0.1-1.4-0.3-2
				c0.1-0.1,0.2-0.1,0.4-0.2c19.3-5.3,38.5-10.7,57.8-16c1-0.3,1.2-0.7,1.2-1.6c0.1-1.6,0.3-3.3,0.4-4.9c0.8-8.8,1.6-17.7,2.4-26.5
				c0.8-8.8,1.6-17.7,2.3-26.5c0.8-9.1,1.6-18.2,2.4-27.3c0.2-2,0.1-2-2-2c-21.1,0-42.1,0-63.2,0c-0.5,0-1.1,0-1.6,0.1l0-0.2
				c0-9.7,0-19.5,0-29.2c0-0.1,0-0.1,0-0.2c0.2,0,0.3,0.1,0.5,0.1c22.6,0,45.2,0,67.8,0c1.1,0,1.3-0.4,1.4-1.4
				c0.8-8.6,1.6-17.2,2.4-25.7c0.2-1.5-0.3-1.8-1.7-1.8c-22.9,0-45.8,0-68.7,0c-0.5,0-1.1,0-1.6,0.1l0.1,0l0-0.1
				C449.6,153.6,449.6,153.6,449.5,153.5z"/>
			<path class="st2" d="M449.5,182.5c0,0.1,0,0.1,0,0.2c-0.4-0.1-0.8-0.1-1.2-0.1c-12.7,0-25.4,0-38.1,0c-1.4,0-1.4,0.6-1.3,1.6
				c0.8,8.8,1.7,17.7,2.4,26.5c0.1,1.2,0.5,1.4,1.6,1.4c11.7,0,23.5,0,35.2,0c0.5,0,0.9-0.1,1.4-0.1c0,0,0,0.2,0,0.2
				c0,9.6,0,19.2,0,28.7c-0.1,0-0.2,0.1-0.3,0.1c-0.6,0-1.3-0.1-1.9-0.1c-20.2,0-40.3,0-60.5,0c-1.5,0-1.9-0.4-2.1-1.9
				c-1.3-15.1-2.7-30.2-4.1-45.3c-1.1-12.3-2.2-24.7-3.3-37c-0.1-0.9-0.2-1.9-0.2-2.8c0.7,0,1.4,0,2.1,0c22.8,0,45.6,0,68.3,0
				c0.7,0,1.4,0.1,2-0.2l0,0.1c0,0-0.1,0-0.1,0C449.5,163.4,449.5,173,449.5,182.5z"/>
			<path class="st2" d="M449.6,317c-0.1,0.1-0.2,0.1-0.4,0.2c-9.1-2.6-18.2-5.1-27.3-7.7c-10.1-2.8-20.2-5.7-30.3-8.5
				c-1-0.3-1.3-0.7-1.4-1.7c-1.2-14-2.5-27.9-3.7-41.9c-0.2-2.1-0.2-2.1,2-2.1c8.5,0,16.9,0,25.4,0c1.2,0,1.5,0.3,1.6,1.5
				c0.5,6.7,1.2,13.4,1.7,20.1c0.1,1.1,0.4,1.6,1.5,1.9c10,2.6,20,5.3,30,8c0.3,0.1,0.6,0.1,0.9,0.1c0,0,0,0.1,0,0.1
				C449.5,297,449.5,307,449.6,317z"/>
			<path class="st1" d="M449.2,241c0.1,0,0.2-0.1,0.3-0.1c0.6,0,1.2,0.1,1.7,0.1c10.7,0,21.5,0,32.2,0c1.1,0,1.6,0.2,1.4,1.4
				c-0.2,1.1-0.2,2.3-0.3,3.5c-0.9,10.4-1.9,20.8-2.8,31.3c-0.1,1.1-0.4,1.5-1.5,1.8c-10.2,2.7-20.5,5.5-30.7,8.2c0,0,0-0.1,0-0.1
				c0-14.7,0-29.3,0-44C449.5,242.3,449.6,241.6,449.2,241z"/>
			<path class="st3" d="M449.6,153.7c-0.7,0.3-1.4,0.2-2,0.2c-22.8,0-45.6,0-68.3,0c-0.7,0-1.4,0-2.1,0c0.5-0.7,1.3-0.3,1.9-0.3
				c22.9,0,45.7,0,68.6,0c0.6,0,1.3,0,1.9-0.1C449.6,153.6,449.6,153.6,449.6,153.7z"/>
			<path class="st0" d="M449.5,212c-0.5,0-0.9,0.1-1.4,0.1c-11.7,0-23.5,0-35.2,0c-1.1,0-1.5-0.2-1.6-1.4
				c-0.7-8.8-1.6-17.7-2.4-26.5c-0.1-1-0.1-1.6,1.3-1.6c12.7,0.1,25.4,0,38.1,0c0.4,0,0.8,0.1,1.2,0.1
				C449.5,192.5,449.5,202.2,449.5,212z"/>
		</g>
		<g>
			<path class="st4" d="M629.4,342.8c-0.1,0-0.2,0-0.3,0c-0.1-0.7-0.6-0.9-1.2-1c-0.5,0-0.9-0.2-1.4-0.3c-1.5-0.4-2.9-1.2-4.5-1.2
				c-0.9,0-2-0.3-2.2-1.4c-0.2-1.1-0.3-2.3-0.5-3.4c-0.3-1.7-0.2-3.4-0.4-5.2c-0.3-2.2-0.9-4.4-0.6-6.7c0.2-1.4-0.7-2.7-0.6-4.2
				c0-0.1-0.2-0.2-0.4-0.3c0-0.4,0-0.8-0.1-1.3c-0.2-2.9,0.3-5.8-0.4-8.7c-0.4-1.8,0-3.8-0.5-5.8c-0.4-1.5-0.1-3-0.4-4.5
				c-0.4-2.1-0.1-4.3-0.6-6.5c-0.4-1.7-0.2-3.5-0.4-5.3c-0.3-2.2-0.9-4.5-0.6-6.8c0.1-0.8,0-1.6,0-2.5c0-0.8-0.3-1.4-0.9-1.9
				c0-0.2,0-0.5,0-0.7c-0.2-2.9,0.3-5.8-0.4-8.6c-0.5-1.9,0.1-3.9-0.4-5.9c-0.4-1.6-0.2-3.4-0.5-5.1c-0.4-2.2-0.1-4.6-0.5-6.9
				c-0.3-2.1-0.8-4.2-0.7-6.4c0-0.8,0.1-1.8-0.1-2.3c-0.6-1.6-0.1-3.2-0.4-4.8c-0.1-0.9-0.2-1.8-0.9-2.5c0-0.1,0-0.2,0-0.2
				c0.3-3.5-0.6-7-0.5-10.5c0-0.6,0.1-1.2-0.1-1.7c-0.9-2-0.2-4.2-0.8-6.3c-0.5-1.7-0.1-3.6-0.5-5.5c-0.5-2.1-0.4-4.4-0.5-6.6
				c-0.1-3.1-0.8-6.1-0.7-9.2c0-0.7-0.1-1.7-0.9-2.2c0-0.1,0-0.2,0-0.3c0.4-0.8,0.2-1.5,0.1-2.3c-0.3-1.8-0.3-3.6-0.5-5.4
				c-0.3-3.6-0.4-7.2-1-10.9c-0.4-2.6-0.2-5.3-0.5-8c-0.2-1.7-0.5-3.4-0.6-5.1c0-0.3-0.2-0.4-0.5-0.5c0-0.2,0-0.4,0-0.6
				c-0.1-2.1,0.5-4.2-0.4-6.3c-0.1-0.2-0.1-0.5,0-0.6c0.7-0.8,0.2-1.5,0.1-2.3c-0.2-0.9-0.4-1.7-0.5-2.6c-0.3-2.3,0-4.7-0.5-7
				c-0.4-1.4,0-2.9-0.4-4.4c-0.5-1.5-0.2-3.2-0.4-4.8c-0.4-3.7-0.5-7.4-0.7-11.2c0-0.1,0-0.2,0-0.4c-0.5-1.8-0.9-3.6-0.9-5.5
				c0-0.9,0.1-1.9,0-2.8c-0.1-1.1,0.3-1.3,1.4-1.3c74.8,0,149.6,0,224.4,0c0.5,0,1,0.1,1.5,0.1c0.3,0,0.6,0.1,0.5,0.5
				c0,0.9,0.2,1.9-0.1,2.7c-0.5,1.4-0.4,2.8-0.3,4.1c0.1,1.4-1.1,2.4-0.6,3.9c0.4,1-0.3,2.1-0.4,3.2c-0.2,1.4-0.1,2.8-0.4,4.3
				c-0.4,1.8-0.1,3.7-0.5,5.5c-0.4,1.9,0.1,3.9-0.5,5.9c-0.4,1.6-0.3,3.4-0.5,5.1c-0.4,3.7-0.7,7.4-0.9,11.1
				c-0.3,3.7-1,7.4-0.6,11.1c0,0,0,0,0,0c-0.5,0-0.5,0.4-0.5,0.8c0,0.7,0,1.3,0,2c0,0-0.1,0.1-0.1,0.2c-0.2-0.3,0-0.7-0.3-1
				c0,1.3,0,2.5,0,3.8c0,0.8,0.2,1.7-0.1,2.4c-0.9,2.4-0.4,4.9-0.8,7.3c-0.5,2.6,0.1,5.4-0.7,8c-0.7,2.5-0.2,5.1-0.8,7.7
				c-0.5,2.1-0.1,4.3-0.1,6.5c0,0,0,0,0,0c-1,0.8-0.3,1.7-0.2,2.6c-0.6,1,0,2.1-0.3,3.1c-0.3,0.1-0.5,0.3-0.5,0.6
				c0,2.7-0.8,5.3-0.5,7.9c0,0.3,0.1,0.7,0,1c-0.9,1.6-0.2,3.5-0.8,5.2c-0.6,1.6,0.2,3.5-0.5,5.3c-0.5,1.2-0.2,2.6-0.4,3.9
				c-0.5,2.4-0.4,4.8-0.4,7.2c0,3.1-1.2,6-0.7,9.1c0.1,0.5-0.5,0.9-0.5,1.5c0.3,2.8-0.8,5.6-0.5,8.5c0,0.1,0,0.2-0.1,0.4
				c-0.7,2.7-0.3,5.6-0.9,8.3c-0.5,2.3-0.3,4.7-0.7,6.9c-0.5,2.7-0.1,5.5-0.7,8.3c-0.4,1.8-0.1,3.8-0.1,5.6c0,0,0,0,0,0
				c-0.3,0.1-0.4,0.3-0.5,0.6c-0.6,1.3-0.2,2.8-0.4,4.2c-0.3,3-0.6,6-1,9c-0.3,2.3-0.1,4.7-0.5,7.1c-0.3,1.8-0.1,3.8-0.1,5.6l0,0
				c-0.8,0.8-0.9,1.8-0.9,2.8c0,2.6-0.2,5.2,0,7.8c-0.2,2.1-0.4,4.3-0.5,6.4c-0.6,0.8-0.9,1.7-0.9,2.7c0,1,0.1,2,0,3.1
				c-0.1,1-0.4,2.1-1.6,2.3c-1.9,0.3-3.7,1.1-5.7,1.1c-0.8,0-1.8,0.3-2.1,0.6c-0.8,0.9-1.6,0.8-2.6,0.9c-0.7,0.1-1.4,0.2-1.7,1
				c0,0,0,0,0,0c-0.8,0-1.7-0.4-2.4,0c-1.5,1-3.2,0.8-4.8,1.4c-0.6,0.2-1.3,0.4-2,0.6c-1.2,0.3-2.3,0.9-3.6,1.3c0,0,0,0.2,0,0.2
				c0,0,0,0,0,0c-1,0-2-0.1-3.1,0.3c-0.8,0.3-1.7,1-2.7,0.5c-0.1-0.1-0.4,0.1-0.5,0.2c-1.5,0.9-3.2,0.9-4.8,1.3
				c-0.6,0.2-1.5-0.4-1.8,0.7c-0.1,0.4-0.7,0.3-1.1,0.2c-1.4-0.1-2.6,0.4-3.9,0.8c-1.4,0.4-2.7,1.2-4.3,1.3c-0.5,0-1.3,0.2-1.5,0.9
				c0,0-0.1,0-0.1,0c-1,0-1.9-0.1-2.8,0.4c-0.5,0.2-1,0.5-1.7,0.6c-2,0.1-3.8,0.8-5.7,1.4c-0.8,0.2-1.5,0.5-2.3,0.6
				c-1.1,0.2-2.2,0.5-3.2,0.9c-0.7,0.2-1.6,0.1-1.8,1.1c-0.2,0-0.3,0-0.5,0.1c-1.3-0.1-2.6-0.1-3.8,0.5c-0.4,0.2-0.8,0.6-1.3,0.5
				c-1-0.1-1.9,0.3-2.8,0.6c-0.5,0.1-1.3,0.2-1.4,0.9c0,0,0,0,0,0c-1.1-0.3-2,0.4-3.1,0.5c-1,0.1-2.2-0.4-2.8,0.8
				c-0.1,0.1-0.5,0.1-0.7,0.1c-1.2,0.3-2.4,0.5-3.6,0.8c-1.3,0.4-2.7,0.4-4,1.1c-1.5,0.7-3.3-0.2-4.9-0.6c-2-0.6-3.9-1.5-6-1.2
				c0,0,0,0,0,0c0.1-0.8-0.3-1.1-0.9-1c-2.1,0.3-3.7-1.1-5.7-1.3c-0.8-0.1-1.7-0.9-1.8-0.9c-1,0.7-2,0-2.8-0.3c-1-0.4-2.2-0.1-3-0.6
				c-1.3-0.8-2.6-0.9-3.9-0.8c0,0-0.1,0-0.1,0c0-0.2,0.6-0.4-0.1-0.5c-1.4-0.2-3-0.6-4.2-1.2c-1.6-0.7-3.1-0.8-4.6-0.8c0,0,0,0,0,0
				c-0.9-1.1-2-1.8-3.5-1.6c-0.4,0.1-0.8,0-1.2-0.2l0,0c-1.9-0.3-3.7-1.1-5.5-1.5c-1.5-0.3-3-1.1-4.7-0.7c-0.5-0.5-1.3,0.1-1.9-0.4
				c0-0.2-0.1-0.4-0.3-0.5c-1-0.6-2.1-0.6-3.2-0.5c0,0,0,0,0,0c0-0.3-0.1-0.4-0.4-0.5c-1.8-1-3.9-1.4-5.9-1.8c-1.6-0.3-3.3-1-5-0.6
				c-0.2,0-0.4,0-0.5-0.1c0.1-0.6-0.1-1-0.8-0.9c-1.7,0.2-3.1-0.9-4.7-1.1c-1.6-0.2-3.1-1.2-4.8-0.8c0,0,0,0,0,0
				c0-0.2,0.7-0.4,0-0.6C631.9,342.9,630.7,342.6,629.4,342.8z M662.6,205c-1.5-0.3-2.8,0.5-4,1c-1.5,0.6-3,1.4-4.5,2
				c-0.4,0.1-0.8,0.5-0.8,1c-1.5,0.7-2.9,1.3-4.4,2c-0.8,0.3-1.7,0.6-2.5,0.9c-0.6,0.2-0.7,0.5-0.6,1.1c0.2,1.3,0.3,2.6,0.4,3.9
				c0.6,7.2,1.2,14.3,1.7,21.5c0.1,1,0.3,1.3,1.3,1.3c12.7,0,25.5,0.1,38.2,0.1c8.2,0,16.3,0.1,24.5,0.1c0.2,0.5,0.5,0.9,0.5,1.5
				c0,14.8,0,29.5,0,44.3c-2.9-0.4-5.6-1.3-8.4-2c0.1-0.5,0-0.9-0.6-1c-2.2-0.3-4.3-1.1-6.6-0.9c-5.1-1.3-10.2-2.5-15.3-3.8
				c-0.6-0.1-0.6-0.6-0.6-1.1c-0.6-6.9-1.2-13.8-1.7-20.8c-0.1-0.8-0.3-1-1.1-1c-9.1,0-18.2,0-27.3,0c-0.4,0-0.9-0.1-0.9,0.5
				c-0.6,0.1-0.5,0.6-0.5,0.9c-0.1,1.9,0.4,3.8,0.6,5.7c0.3,2.8,0.7,5.6,0.9,8.4c0.1,1.4,0.1,2.8,0.4,4.2c0.4,2,0.1,4.2,0.6,6.4
				c0.4,1.7,0.1,3.5,0.4,5.3c0.4,2.3,0.9,4.7,0.6,7.1c-0.2,1.6,0.7,3.1,0.5,4.8c0,0.1,0.1,0.2,0.2,0.3c0.2,0.5,0.7,0.8,1.2,0.7
				c0.1,0.6,0.5,0.9,1.1,1c0.4,0,1-0.1,1.3,0.1c1.4,0.9,2.9,1,4.5,0.9c8.9,2.6,17.7,5.3,26.6,7.9c0.5,0.4,0.9,0.8,1.6,1.1
				c0.8,0.4,1.7,0.1,2.5,0.6c1,0.6,2.2,1.1,3.4,1.1c2.3,0,4.2,1.6,6.5,1.8c1.7,0.1,3.2,1.3,5,1.3c0.6,0,1.3,0.4,1.4,0.6
				c0.4,1.1,1.3,0.9,2.2,0.9c0.5,0,1.1,0,1.6,0c0,9.1,0,18.1,0,27.2c0,1.5,0,1.5,1.4,1.1c6.7-1.8,13.4-3.6,20.1-5.4
				c5.5-1.5,11-3,16.5-4.5c6.6-1.8,13.2-3.5,19.8-5.3c5-1.4,10.1-2.7,15.1-4.1c1.7-0.4,3-0.8,2.9-3.1c0-3.4,0.6-6.8,0.9-10.2
				c0.2-2.3,0.4-4.6,0.6-6.8c0.3-3.1,0.6-6.2,0.9-9.4c0.2-2.4,0.3-4.8,0.6-7.2c0.5-4.4,0.8-8.8,1.2-13.2c0.2-2.1,0.3-4.2,0.5-6.3
				c0.3-3.4,0.6-6.8,0.9-10.2c0.3-3.2,0.4-6.4,0.8-9.6c0.5-4.4,0.8-8.8,1.2-13.3c0.2-2.2,0.3-4.3,0.5-6.5c0.3-3.4,0.6-6.8,0.9-10.2
				c0.3-3.1,0.5-6.3,0.8-9.4c0.4-4.3,0.8-8.7,1.2-13c0.2-2.3,0.3-4.6,0.6-7c0.3-3.3,0.6-6.7,0.9-10c0.2-2.4,0.4-4.7,0.6-7.1
				c0.3-3.2,0.6-6.3,0.9-9.5c0.3-3.1,0.5-6.2,0.8-9.3c0.3-3.5,0.6-7,0.9-10.5c0.2-2.3,0.3-4.6,0.6-6.8c0.3-3.2,0.6-6.3,0.9-9.5
				c0.1-1.1-0.3-1.4-1.4-1.4c-30.1,0-60.2,0-90.3,0c-1.1,0-1.4,0.3-1.4,1.4c0,8.9,0,17.8,0,26.7c-23.6,0-47.3,0-70.9,0
				c-0.5,0-1-0.2-1.4,0.2c-0.1,0.1-0.1,0.2-0.2,0.3l0,0c-0.3,1-0.7,2,0.3,2.9c0,0.1,0,0.3,0,0.4c0,0.9,0,1.8,0,2.8
				c0,0.4,0,0.7,0.5,0.8c0,0,0,0.1,0,0.1c0,1.5,0.2,3,0.3,4.4c0.2,2.8,0.9,5.6,0.6,8.5c-0.1,0.5,0,1.1,0,1.7c0.4-0.2,0-0.6,0.5-0.7
				c0,0.9,0,1.8,0,2.7c0.4-0.3,0.1-0.8,0.5-1c0.1,0.6,0.1,1.1,0.3,1.7c0.3,1.2,0,2.6,0.7,3.8c0.1,0.7,0.7,0.5,1.1,0.5
				c22.6,0,45.2,0,67.8,0c0,0.3,0,0.7,0,1l0,0.1c-6.9,2.9-13.9,5.8-20.8,8.6c-3.8,1.5-7.4,3.4-11.3,4.7c-1.7-0.5-3,0.7-4.2,1.3
				c-1.1,0.5-1.9,0.7-2.9,0.4c-0.4-0.1-0.4-0.1-0.6,0.2c-0.9,1.7-2.6,2.1-4.2,2.4c-0.3,0.1-0.8,0-1,0.2c-1.1,1-2.4,1.5-3.7,1.9
				C663.1,204.2,662.4,204.3,662.6,205L662.6,205z"/>
			<path class="st5" d="M821.5,165.7c-0.4-3.7,0.3-7.4,0.6-11.1c0.3-3.7,0.5-7.4,0.9-11.1c0.2-1.7,0.1-3.5,0.5-5.1
				c0.5-2,0-4,0.5-5.9c0.4-1.9,0.1-3.8,0.5-5.5c0.4-1.5,0.2-2.9,0.4-4.3c0.1-1.1,0.8-2.1,0.4-3.2c-0.6-1.5,0.6-2.6,0.6-3.9
				c-0.1-1.4-0.2-2.7,0.3-4.1c0.3-0.8,0.1-1.8,0.1-2.7c0-0.4-0.2-0.5-0.5-0.5c-0.5,0-1-0.1-1.5-0.1c-74.8,0-149.6,0-224.4,0
				c-1.1,0-1.5,0.2-1.4,1.3c0.1,0.9,0,1.9,0,2.8c0,1.9,0.4,3.7,0.9,5.5c0,0.1,0,0.2,0,0.4c0.2,3.7,0.3,7.5,0.7,11.2
				c0.2,1.6-0.1,3.3,0.4,4.8c0.5,1.5,0.1,3,0.4,4.4c0.6,2.3,0.3,4.7,0.5,7c0.1,0.8,0.3,1.7,0.5,2.6c0.2,0.8,0.6,1.5-0.1,2.3
				c-0.1,0.1-0.1,0.4,0,0.6c0.9,2,0.3,4.2,0.4,6.3c-0.4-2.1-0.5-4.3-0.7-6.4c-0.6-6.7-1.3-13.4-1.9-20.1c-0.5-5.8-1.1-11.6-1.6-17.4
				c-0.1-1.6-0.3-3.2-0.5-4.8c-0.1-0.8,0.1-1.2,1-1.1c2.5,0.1,5.1,0,7.6,0c72.7,0,145.5,0,218.2,0c2.3,0,2.2-0.5,1.9,2.3
				c-0.5,4.8-0.9,9.5-1.3,14.3c-0.6,6.8-1.2,13.5-1.9,20.3c-0.4,4.9-0.8,9.8-1.4,14.7C821.9,161.2,822,163.5,821.5,165.7z"/>
			<path class="st5" d="M810.1,288.6c0-1.9-0.3-3.8,0.1-5.6c0.6-2.7,0.2-5.5,0.7-8.3c0.4-2.3,0.2-4.6,0.7-6.9
				c0.5-2.8,0.2-5.6,0.9-8.3c0-0.1,0.1-0.2,0.1-0.4c-0.3-2.9,0.8-5.6,0.5-8.5c-0.1-0.7,0.6-1,0.5-1.5c-0.5-3.1,0.6-6,0.7-9.1
				c0-2.4,0-4.9,0.4-7.2c0.3-1.3,0-2.7,0.4-3.9c0.7-1.8-0.1-3.6,0.5-5.3c0.6-1.7-0.1-3.6,0.8-5.2c0.1-0.3,0.1-0.6,0-1
				c-0.3-2.7,0.5-5.3,0.5-7.9c0-0.3,0.1-0.5,0.5-0.6c-0.3,3.2-0.5,6.4-0.8,9.7c-0.6,6.8-1.2,13.6-1.9,20.4c-0.6,6.5-1.2,13-1.8,19.6
				c-0.5,5.9-1.1,11.8-1.6,17.7C811,280.4,810.6,284.5,810.1,288.6z"/>
			<path class="st5" d="M609.5,232.6c0.8,0.6,0.8,1.6,0.9,2.5c0.2,1.6-0.2,3.2,0.4,4.8c0.2,0.6,0.1,1.6,0.1,2.3
				c-0.1,2.2,0.4,4.3,0.7,6.4c0.4,2.3,0,4.6,0.5,6.9c0.3,1.7,0.1,3.5,0.5,5.1c0.5,2-0.1,4,0.4,5.9c0.8,2.9,0.2,5.8,0.4,8.6
				c-0.5-2.3-0.5-4.6-0.7-6.9c-0.5-5-0.9-10-1.4-15c-0.4-4.9-0.9-9.8-1.3-14.6C609.8,236.6,609.4,234.6,609.5,232.6z"/>
			<path class="st5" d="M613.4,275.9c0.6,0.5,0.9,1.1,0.9,1.9c0,0.8,0.1,1.6,0,2.5c-0.3,2.3,0.3,4.6,0.6,6.8c0.2,1.8,0,3.6,0.4,5.3
				c0.5,2.2,0.1,4.4,0.6,6.5c0.3,1.5,0.1,3.1,0.4,4.5c0.5,1.9,0.1,3.9,0.5,5.8c0.7,2.9,0.2,5.8,0.4,8.7c-0.3-3.3-0.7-6.5-1-9.8
				c-0.7-7.7-1.4-15.5-2.2-23.2C613.9,281.9,613.7,278.9,613.4,275.9z"/>
			<path class="st5" d="M605.6,190.3c0.8,0.5,0.9,1.5,0.9,2.2c-0.2,3.1,0.5,6.1,0.7,9.2c0.1,2.2,0,4.5,0.5,6.6
				c0.4,1.9-0.1,3.8,0.5,5.5c0.7,2.1-0.1,4.3,0.8,6.3c0.2,0.5,0.1,1.1,0.1,1.7c-0.1,3.5,0.8,6.9,0.5,10.5c-0.5-2.3-0.5-4.5-0.7-6.8
				c-0.6-6.6-1.2-13.2-1.8-19.8c-0.4-4.2-0.8-8.5-1.2-12.7C605.7,192.1,605.4,191.2,605.6,190.3z"/>
			<path class="st5" d="M818,203.3c0-2.2-0.4-4.4,0.1-6.5c0.6-2.6,0-5.2,0.8-7.7c0.8-2.6,0.2-5.4,0.7-8c0.4-2.4-0.1-4.9,0.8-7.3
				c0.3-0.7,0.1-1.6,0.1-2.4c0-1.2,0-2.5,0-3.8c0.4,0.3,0.1,0.7,0.3,1c0.1-0.1,0.1-0.1,0.1-0.2c0-0.7,0-1.3,0-2c0-0.4,0-0.8,0.5-0.8
				c-0.1,3.4-0.5,6.7-0.8,10c-0.6,6.7-1.2,13.4-1.9,20.2C818.5,198.4,818.3,200.8,818,203.3z"/>
			<path class="st5" d="M602.6,157.8c0.3,0,0.5,0.2,0.5,0.5c0.1,1.7,0.4,3.4,0.6,5.1c0.3,2.7,0.1,5.4,0.5,8c0.6,3.6,0.7,7.2,1,10.9
				c0.1,1.8,0.2,3.7,0.5,5.4c0.1,0.8,0.3,1.6-0.1,2.3c-0.3-3.2-0.7-6.3-1-9.5c-0.7-7-1.3-14-1.9-21
				C602.6,159,602.6,158.4,602.6,157.8z"/>
			<path class="st5" d="M617.4,319.2c0.1,0.1,0.4,0.2,0.4,0.3c-0.2,1.4,0.8,2.7,0.6,4.2c-0.3,2.3,0.4,4.5,0.6,6.7
				c0.2,1.7,0.1,3.5,0.4,5.2c0.2,1.1,0.4,2.3,0.5,3.4c0.2,1,1.3,1.3,2.2,1.4c1.6,0,3,0.9,4.5,1.2c0.5,0.1,0.9,0.3,1.4,0.3
				c0.7,0,1.1,0.3,1.2,1c-3.1-0.8-6.2-1.6-9.2-2.4c-0.5-0.1-0.6-0.4-0.6-0.9C618.6,332.7,618,325.9,617.4,319.2z"/>
			<path class="st5" d="M755,353.6c0.2-0.7,1-0.9,1.5-0.9c1.6-0.1,2.8-0.9,4.3-1.3c1.3-0.3,2.5-0.8,3.9-0.8c0.4,0,1,0.2,1.1-0.2
				c0.3-1.2,1.1-0.6,1.8-0.7c1.6-0.4,3.3-0.4,4.8-1.3c0.2-0.1,0.4-0.3,0.5-0.2c1,0.5,1.9-0.2,2.7-0.5c1.1-0.5,2.1-0.3,3.1-0.3
				c-3,1.1-6.1,1.7-9.1,2.6c-4.6,1.3-9.2,2.5-13.8,3.7C755.5,353.6,755.3,353.6,755,353.6z"/>
			<path class="st5" d="M702.4,362.4c2.2-0.3,4,0.7,6,1.2c1.6,0.5,3.4,1.4,4.9,0.6c1.3-0.6,2.7-0.7,4-1.1c1.2-0.3,2.4-0.5,3.6-0.8
				c0.2-0.1,0.6,0,0.7-0.1c0.7-1.3,1.8-0.8,2.8-0.8c1-0.1,2-0.8,3.1-0.5c-2.4,1-5,1.4-7.4,2.2c-1.6,0.5-3.2,0.7-4.7,1.3
				c-2,0.7-3.9,0.7-5.9,0C707.1,363.7,704.8,363.1,702.4,362.4z"/>
			<path class="st5" d="M807.7,315.2c0-1.9-0.2-3.8,0.1-5.6c0.4-2.4,0.2-4.8,0.5-7.1c0.4-3,0.7-6,1-9c0.1-1.4-0.2-2.8,0.4-4.2
				c0.1-0.3,0.1-0.5,0.5-0.6c-0.3,3.8-0.6,7.6-1,11.5c-0.4,4.7-0.8,9.3-1.3,14C807.9,314.5,807.8,314.8,807.7,315.2z"/>
			<path class="st5" d="M791.5,343.8c0.3-0.8,1-0.9,1.7-1c0.9-0.1,1.8-0.1,2.6-0.9c0.3-0.3,1.4-0.6,2.1-0.6c2,0,3.8-0.8,5.7-1.1
				c1.2-0.2,1.5-1.2,1.6-2.3c0.1-1,0-2,0-3.1c0-1,0.4-1.9,0.9-2.7c-0.2,2.4-0.4,4.9-0.6,7.3c0,0.4-0.1,0.7-0.6,0.8
				C800.4,341.4,796,342.8,791.5,343.8z"/>
			<path class="st5" d="M684.3,357.5c1.4-0.2,2.7-0.1,3.9,0.8c0.8,0.5,2,0.2,3,0.6c0.8,0.3,1.7,1,2.8,0.3c0.1-0.1,1,0.8,1.8,0.9
				c1.9,0.2,3.6,1.6,5.7,1.3c0.7-0.1,1.1,0.3,0.9,1c-3.9-1-7.8-2-11.7-3.1C688.6,358.8,686.4,358.3,684.3,357.5z"/>
			<path class="st5" d="M737.4,358.4c0.2-1,1.2-0.8,1.8-1.1c1-0.4,2.1-0.7,3.2-0.9c0.8-0.1,1.5-0.4,2.3-0.6c1.9-0.6,3.7-1.2,5.7-1.4
				c0.6,0,1.2-0.4,1.7-0.6c1-0.5,1.9-0.4,2.8-0.4c-2.1,0.9-4.4,1.3-6.6,1.9C744.7,356.5,741,357.5,737.4,358.4z"/>
			<path class="st5" d="M660.5,351.1c1.6-0.4,3.1,0.4,4.7,0.7c1.9,0.4,3.6,1.2,5.5,1.5c-0.1,0-0.2,0.1-0.3,0.1c0,0,0.1,0.1,0.1,0.1
				c0.1,0,0.2-0.1,0.3-0.2c0.4,0.2,0.7,0.2,1.2,0.2c1.5-0.2,2.6,0.5,3.5,1.6c-3.7-0.7-7.3-1.9-10.9-2.8
				C663.1,351.9,661.7,351.7,660.5,351.1z"/>
			<path class="st5" d="M643.9,346.7c1.7-0.3,3.4,0.3,5,0.6c2,0.4,4,0.9,5.9,1.8c0.3,0.1,0.4,0.3,0.4,0.5c-3.4-0.7-6.7-1.7-10-2.6
				C644.8,347,644.3,347,643.9,346.7z"/>
			<path class="st5" d="M778.7,347.2c0-0.1,0-0.2,0-0.2c1.2-0.3,2.4-1,3.6-1.3c0.7-0.2,1.4-0.3,2-0.6c1.5-0.6,3.3-0.4,4.8-1.4
				c0.7-0.4,1.6,0,2.4,0c-2.8,1.1-5.7,1.6-8.5,2.4C781.6,346.6,780.2,347.1,778.7,347.2z"/>
			<path class="st5" d="M633.1,343.7c1.7-0.3,3.2,0.6,4.8,0.8c1.6,0.2,3,1.3,4.7,1.1c0.7-0.1,0.8,0.3,0.8,0.9
				C640,345.7,636.5,344.9,633.1,343.7z"/>
			<path class="st5" d="M806.7,325.8c-0.2-2.6,0-5.2,0-7.8c0-1,0.2-2,0.9-2.8C807.5,318.7,807.2,322.3,806.7,325.8z"/>
			<path class="st5" d="M675.3,355.1c1.6,0,3.1,0.1,4.6,0.8c1.2,0.5,2.7,0.9,4.2,1.2c0.7,0.1,0,0.3,0.1,0.5
				C681.2,356.9,678.3,356.1,675.3,355.1z"/>
			<path class="st5" d="M727.5,361c0.1-0.8,0.9-0.8,1.4-0.9c0.9-0.3,1.8-0.7,2.8-0.6c0.6,0.1,0.9-0.3,1.3-0.5
				c1.2-0.6,2.5-0.6,3.8-0.5C733.8,359.5,730.7,360.4,727.5,361z"/>
			<path class="st5" d="M629.4,342.8c1.3-0.2,2.5,0.1,3.7,0.4c0.6,0.2-0.1,0.4,0,0.6C631.8,343.6,630.6,343.3,629.4,342.8z"/>
			<path class="st5" d="M655.2,349.7c1.1-0.1,2.2-0.1,3.2,0.5c0.2,0.1,0.3,0.3,0.3,0.5C657.5,350.4,656.3,350.2,655.2,349.7z"/>
			<path class="st5" d="M817.8,205.9c-0.1-0.9-0.7-1.8,0.2-2.6C818.1,204.2,818,205,817.8,205.9z"/>
			<path class="st6" d="M712.3,154.4c0-8.9,0-17.8,0-26.7c0-1.1,0.3-1.4,1.4-1.4c30.1,0,60.2,0,90.3,0c1.1,0,1.5,0.3,1.4,1.4
				c-0.3,3.2-0.6,6.3-0.9,9.5c-0.2,2.3-0.4,4.6-0.6,6.8c-0.3,3.5-0.6,7-0.9,10.5c-0.3,3.1-0.5,6.2-0.8,9.3c-0.3,3.2-0.6,6.3-0.9,9.5
				c-0.2,2.4-0.4,4.7-0.6,7.1c-0.3,3.3-0.6,6.7-0.9,10c-0.2,2.3-0.3,4.6-0.6,7c-0.4,4.3-0.8,8.7-1.2,13c-0.3,3.1-0.5,6.3-0.8,9.4
				c-0.3,3.4-0.6,6.8-0.9,10.2c-0.2,2.2-0.4,4.3-0.5,6.5c-0.4,4.4-0.7,8.9-1.2,13.3c-0.4,3.2-0.5,6.4-0.8,9.6
				c-0.3,3.4-0.6,6.8-0.9,10.2c-0.2,2.1-0.4,4.2-0.5,6.3c-0.4,4.4-0.7,8.8-1.2,13.2c-0.3,2.4-0.4,4.8-0.6,7.2
				c-0.3,3.1-0.6,6.2-0.9,9.4c-0.2,2.3-0.4,4.6-0.6,6.8c-0.3,3.4-0.9,6.8-0.9,10.2c0,2.4-1.2,2.7-2.9,3.1
				c-5.1,1.3-10.1,2.7-15.1,4.1c-6.6,1.8-13.2,3.5-19.8,5.3c-5.5,1.5-11,3-16.5,4.5c-6.7,1.8-13.4,3.6-20.1,5.4
				c-1.4,0.4-1.4,0.4-1.4-1.1c0-9.1,0-18.1,0-27.2c0.1-0.1,0.1-0.2,0.2-0.2c1-0.4,2.1-0.4,3-1c2.3-0.8,4.7-1.5,7-2.1
				c3.3-0.9,6.6-1.8,9.9-2.7c9.4-2.8,18.9-5.5,28.3-8.3c3.1-0.9,6.2-1.8,9.3-2.7c0.6-0.2,0.8-0.4,0.9-1.1c0.1-2,0.3-3.9,0.5-5.9
				c0.6-6.4,1.1-12.7,1.7-19.1c0.4-4.1,0.7-8.2,1.1-12.3c0.5-5.2,0.9-10.4,1.4-15.6c0.4-4.3,0.8-8.6,1.1-12.9
				c0.4-4.6,0.7-9.2,1.1-13.8c0.4-0.6,0.2-1.3,0.2-2c0-0.2,0-0.3,0-0.5c0.4-0.8,0.2-1.7,0.3-2.5c0.3-1.6,0.3-1.7-1.4-1.7
				c-17,0-34,0-51,0c-4.5,0-8.9,0-13.4-0.1c6.1-2.7,12.2-5.3,18.3-8c7.7-3.3,15.4-6.6,23.1-9.9c8-3.4,15.9-6.8,23.9-10.2
				c2.1-0.9,3.1-1.8,3.3-4.4c0.5-7.7,1.5-15.4,2.3-23.2c0.2-1.8,0.2-1.8-1.6-1.8c-16.2,0-32.4,0-48.6,0c-7,0-13.9,0-20.9,0
				c-13.4,0-26.7,0-40.1,0c-10.9,0-21.8,0-32.7,0c0.1-0.1,0.1-0.2,0.2-0.3c0.1,0,0.2,0,0.2,0c23.7,0,47.4,0,71.1,0
				C711.6,154.6,712,154.7,712.3,154.4z"/>
			<path class="st7" d="M715.5,315.5c-0.9,0.6-2,0.6-3,1c-4.3-1.3-8.6-2.6-12.9-3.9c-3.8-1.1-7.6-2.2-11.4-3.3
				c-8.9-2.6-17.7-5.3-26.6-7.9c-2.3-0.8-4.5-1.5-6.9-2c-0.6,0-1-0.2-1.2-0.7c0-0.1,0.2-0.3,0.1-0.4c-0.2-2.8-0.5-5.7-0.8-8.5
				c-0.7-8-1.4-16-2.1-24c-0.3-3.3-0.6-6.7-1-10c0-0.6,0.5-0.5,0.9-0.5c9.1,0,18.2,0,27.3,0c0.8,0,1.1,0.2,1.1,1
				c0.5,6.9,1.1,13.9,1.7,20.8c0,0.5,0.1,0.9,0.6,1.1c5.1,1.3,10.2,2.5,15.3,3.8c2.3,0.8,4.8,1.3,7.2,1.9c2.8,0.7,5.5,1.6,8.4,2
				c0.1,0,0.2,0,0.2,0.1c0.3,0.9-0.3,1.8-0.3,2.7c0,8.6,0,17.2,0,25.7c0,0.3,0,0.6,0,0.9c0,0.5,0.4,0.8,0.7,0.5
				C713.8,315.1,714.6,315.5,715.5,315.5z"/>
			<path class="st7" d="M648.8,211c0,0.5-0.6,0.5-0.9,0.9c0.4,0.5,0.9,0.3,1.3,0.3c5.4,0,10.9,0,16.3,0c15.3,0,30.6,0,45.9,0
				c0.3,0,0.7,0,1,0c4.5,0,8.9,0.1,13.4,0.1c17,0,34,0,51,0c1.6,0,1.7,0.1,1.4,1.7c-0.2,0.8,0.1,1.7-0.3,2.5
				c-0.6-0.8-0.2-1.8-0.2-2.6c0-1-0.2-1.4-1.3-1.3c-19.8,0-39.6,0-59.5,0c-0.4,0-0.8-0.1-1.2,0.2c-0.4,0.4-0.8,0.3-1.3,0.1
				c-0.9-0.4-2.2,0.5-2.2,1.4c0,8,0,16,0,24c0,1.1,0.3,1.4,1.4,1.4c3.9-0.1,7.8,0,11.7,0c5.2,0,10.3,0,15.5,0c0.4,0,1-0.3,1.2,0.5
				c-0.5,0-1,0-1.5,0c-9.6,0-19.2,0-28.8,0c-8.2,0-16.3,0-24.5-0.1c-12.7-0.1-25.5-0.1-38.2-0.1c-1,0-1.3-0.3-1.3-1.3
				c-0.5-7.2-1.1-14.4-1.7-21.5c-0.1-1.3-0.2-2.6-0.4-3.9c-0.1-0.6,0.1-0.9,0.6-1.1C647.2,211.6,648,211.3,648.8,211z M647.2,212.1
				c0.1,0,0.1-0.1,0.2-0.1c-0.1,0-0.1-0.1-0.2-0.1c-0.1,0-0.1,0.1-0.2,0.1C647.1,212.1,647.1,212.1,647.2,212.1z"/>
			<path class="st6" d="M711.8,239.9c9.6,0,19.2,0,28.8,0c0.5,0,1,0,1.5,0c0.2,0,0.3,0,0.5,0c1.1,0,2.1,0,3.2,0c0.7,0,1.1,0.1,1,1.1
				c-0.3,3.7-0.4,7.5-0.6,11.3c-0.5,7.8-1,15.6-1.4,23.3c0,0.8-0.3,1.2-1.1,1.4c-1.3,0.3-2.7,0.7-4,1.1c-6.8,1.9-13.7,3.8-20.5,5.8
				c-0.1,0-0.2,0.1-0.3,0.1c-0.2,0-0.3,0-0.5,0.1c-0.2,0-0.4,0-0.5,0.2l0,0c-0.9,0.1-1.7,0.3-2.5,0.7c-0.2,0-0.3,0.1-0.5,0.1
				c-0.8,0.2-1.7,0.1-2.4,0.7l0,0c-0.1,0-0.2,0-0.2-0.1c0-14.8,0-29.5,0-44.3C712.3,240.8,712,240.4,711.8,239.9z"/>
			<path class="st5" d="M643.4,182.9c5.9,0,11.9,0,17.8,0c16.6,0,33.2,0,49.8,0c0.4,0,0.8,0,1.2,0c0,0.2,0,0.3,0,0.5
				c-22.6,0-45.2,0-67.8,0C644.1,183.4,643.5,183.6,643.4,182.9z"/>
			<path class="st5" d="M649.8,255.7c0.3,3.3,0.7,6.7,1,10c0.7,8,1.4,16,2.1,24c0.3,2.8,0.5,5.7,0.8,8.5c0,0.1-0.1,0.3-0.1,0.4
				c-0.1-0.1-0.2-0.2-0.2-0.3c0.1-1.6-0.7-3.1-0.5-4.8c0.3-2.4-0.2-4.8-0.6-7.1c-0.3-1.8,0-3.6-0.4-5.3c-0.5-2.1-0.1-4.3-0.6-6.4
				c-0.3-1.4-0.3-2.8-0.4-4.2c-0.2-2.8-0.6-5.6-0.9-8.4c-0.2-1.9-0.7-3.7-0.6-5.7C649.3,256.3,649.2,255.8,649.8,255.7z"/>
			<path class="st5" d="M712.3,154.4c-0.3,0.4-0.7,0.3-1,0.3c-23.7,0-47.4,0-71.1,0c-0.1,0-0.2,0-0.2,0c0.4-0.4,0.9-0.2,1.4-0.2
				C665,154.4,688.6,154.4,712.3,154.4z"/>
			<path class="st5" d="M688.2,309.3c3.8,1.1,7.6,2.2,11.4,3.3c4.3,1.3,8.6,2.6,12.9,3.9c-0.1,0.1-0.1,0.2-0.2,0.2
				c-0.5,0-1.1,0-1.6,0c-0.8,0-1.7,0.2-2.2-0.9c-0.1-0.2-0.8-0.6-1.4-0.6c-1.8,0-3.3-1.2-5-1.3c-2.3-0.2-4.1-1.7-6.5-1.8
				c-1.1,0-2.4-0.5-3.4-1.1c-0.8-0.5-1.7-0.3-2.5-0.6C689.1,310.2,688.7,309.7,688.2,309.3z"/>
			<path class="st5" d="M680.2,197.7c-1.8,0.9-3.6,1.6-5.4,2.4c-3.8,1.5-7.5,3.1-11.3,4.7c-0.3,0.1-0.6,0.2-0.9,0.3
				c-0.3-0.7,0.5-0.8,0.8-0.9c1.4-0.4,2.7-0.9,3.7-1.9c0.3-0.2,0.7-0.1,1-0.2c1.7-0.3,3.3-0.7,4.2-2.4c0.2-0.4,0.2-0.3,0.6-0.2
				c1,0.3,1.9,0.1,2.9-0.4C677.2,198.4,678.5,197.2,680.2,197.7z"/>
			<path class="st5" d="M640.5,161.9c0.7,2.9,0.8,5.9,1.2,8.9c0.3,2.2,0.7,4.4,0.7,6.7c-0.4,0.2-0.1,0.7-0.5,1c0-1,0-1.8,0-2.7
				c-0.5,0.1-0.1,0.5-0.5,0.7c0-0.6,0-1.1,0-1.7c0.3-2.9-0.4-5.7-0.6-8.5C640.7,164.9,640.5,163.4,640.5,161.9z"/>
			<path class="st5" d="M662.6,205c-0.2,0.1-0.4,0.3-0.5,0.4c0,0,0,0,0,0c-0.2,0-0.3,0.1-0.5,0.1c-0.2,0.1-0.4,0.2-0.6,0.3
				c-0.5,0.1-1,0.3-1.4,0.6c-0.5,0.2-1,0.4-1.5,0.6c-0.4,0.2-0.8,0.3-1.2,0.5c-0.2,0.1-0.3,0.1-0.5,0.2c-0.1,0-0.2,0.1-0.3,0.1
				c-1,0.3-1.9,0.7-2.9,1c0.1-0.5,0.4-0.8,0.8-1c1.6-0.5,3-1.4,4.5-2C659.8,205.6,661.1,204.7,662.6,205z"/>
			<path class="st5" d="M703.9,283.7c-2.4-0.6-4.8-1.1-7.2-1.9c2.3-0.2,4.4,0.6,6.6,0.9C703.9,282.8,703.9,283.2,703.9,283.7z"/>
			<path class="st5" d="M654.7,299.5c2.3,0.5,4.6,1.2,6.9,2c-1.6,0.1-3.1,0-4.5-0.9c-0.3-0.2-0.9,0-1.3-0.1
				C655.2,300.4,654.9,300,654.7,299.5z"/>
			<path class="st6" d="M712.3,183.4c0-0.2,0-0.3,0-0.5c1.2,0,2.3,0,3.5,0c-1.1,0.5-2.1,1.5-3.4,1.5
				C712.3,184,712.3,183.7,712.3,183.4z"/>
			<path class="st5" d="M640,158.2c0.4,1.2,0.5,2.3,0.5,3.6c-0.5,0-0.5-0.4-0.5-0.8C640,160,640,159.1,640,158.2z"/>
			<path class="st5" d="M639.7,154.9c0.1,1,0.2,2,0.3,2.9C639,156.9,639.4,155.9,639.7,154.9z"/>
			<path class="st4" d="M670.7,353.3c-0.1,0.1-0.2,0.1-0.3,0.2c0,0,0-0.1-0.1-0.1C670.5,353.4,670.6,353.4,670.7,353.3
				C670.7,353.3,670.7,353.3,670.7,353.3z"/>
			<path class="st7" d="M777.7,218.9c0-0.7-0.3-1.4,0.2-2C777.9,217.5,778.1,218.2,777.7,218.9z"/>
			<path class="st7" d="M656.9,207.6c0.4-0.2,0.8-0.3,1.2-0.5c0.5,0.2,0.7,0.5,0.1,0.8C657.8,208.1,657.2,208.2,656.9,207.6z"/>
			<path class="st7" d="M656.1,207.9c0.1,0,0.2-0.1,0.3-0.1C656.3,207.8,656.2,207.9,656.1,207.9z"/>
			<path class="st7" d="M742.5,239.9c0.7-0.7,2.5-0.7,3.2,0C744.7,239.9,743.6,239.9,742.5,239.9z"/>
			<path class="st7" d="M717.9,284.2c-0.7,0.5-1.5,1.1-2.5,0.7C716.2,284.5,717.1,284.3,717.9,284.2z"/>
			<path class="st7" d="M715,285c-0.5,1.2-1.6,0.4-2.4,0.7C713.3,285.2,714.2,285.2,715,285z"/>
			<path class="st7" d="M718.4,284c-0.2,0.1-0.3,0.1-0.5,0.2C718.1,284,718.2,284,718.4,284z"/>
			<path class="st7" d="M719.1,283.8c-0.1,0-0.2,0.1-0.3,0.1C719,283.9,719.1,283.9,719.1,283.8z"/>
			<path class="st7" d="M662.1,205.5c-0.1,0.1-0.1,0.4-0.2,0.4c-0.2,0.1-0.3-0.1-0.3-0.3C661.7,205.6,661.9,205.5,662.1,205.5z"/>
		</g>
		<g>
			<path class="st8" d="M975.4,108.2c37,0,74.1,0,111.1,0c1.6,0,1.6,0,1.5,1.6c-0.5,6.1-1,12.1-1.6,18.2c-0.6,6.4-1.1,12.8-1.7,19.3
				c-0.6,6.4-1.1,12.8-1.7,19.3c-0.6,6.5-1.2,13-1.7,19.5c-0.5,5.5-1,11-1.5,16.4c-0.6,6.8-1.3,13.7-1.9,20.5
				c-0.5,5.1-0.9,10.2-1.3,15.3c-0.5,5.9-1.1,11.9-1.6,17.8c-0.4,4.2-0.7,8.4-1.1,12.5c-0.5,5-0.9,10.1-1.4,15.1
				c-0.4,4.1-0.7,8.3-1.1,12.4c-0.4,5-0.9,10.1-1.4,15.1c-0.3,3.1-0.5,6.2-0.8,9.3c-0.4,4.3-0.8,8.5-1.2,12.8
				c-0.1,1.4-0.3,2.9-0.3,4.3c0,0.8-0.3,1-1,1.2c-10.3,2.8-20.6,5.7-30.9,8.6c-19.8,5.5-39.6,11-59.4,16.5c-1,0.3-1.8,0.2-2.7,0
				c-28-7.8-56-15.6-84-23.3c-1.9-0.5-3.8-1.1-5.7-1.6c-0.7-0.2-1.1-0.5-1.1-1.3c-0.2-2.3-0.4-4.6-0.6-6.9c-0.4-4.3-0.8-8.7-1.2-13
				c-0.3-3.2-0.5-6.3-0.8-9.5c-0.4-4.2-0.8-8.4-1.1-12.6c-0.3-3.1-0.5-6.1-0.8-9.2c-0.4-4.3-0.8-8.7-1.2-13c-0.3-3-0.5-6.1-0.8-9.1
				c-0.4-4.3-0.8-8.7-1.2-13c-0.3-3.1-0.5-6.1-0.8-9.2c-0.4-4.3-0.8-8.6-1.2-12.9c-0.3-3.1-0.5-6.1-0.8-9.2c-0.4-4.3-0.8-8.7-1.2-13
				c-0.3-3.2-0.5-6.3-0.8-9.5c-0.4-4.2-0.8-8.3-1.1-12.5c-0.3-3.1-0.5-6.2-0.8-9.3c-0.4-4.3-0.8-8.6-1.2-12.9
				c-0.3-3-0.5-6.1-0.8-9.1c-0.4-4.4-0.8-8.8-1.2-13.1c-0.3-3.2-0.5-6.4-0.8-9.6c-0.4-4.2-0.8-8.3-1.1-12.5
				c-0.3-3.2-0.6-6.3-0.8-9.5c-0.1-0.9,0-0.9,0.8-0.9c0.3,0,0.7,0,1,0C901.3,108.2,938.4,108.2,975.4,108.2z M975,285.6
				c-0.4,0.1-0.8-0.1-1.2-0.2c-5.3-1.4-10.6-2.9-15.9-4.3c-4.5-1.2-9-2.4-13.4-3.6c-0.5-0.1-1-0.2-1-1c-0.4-4.7-0.8-9.3-1.2-14
				c-0.2-2.2-0.4-4.4-0.6-6.6c-0.1-1.2-0.2-1.2-1.4-1.2c-8.6,0-17.1,0-25.7,0c0,0-0.1,0-0.1,0c-1.3,0-1.3,0-1.2,1.3
				c0,0.3,0.1,0.7,0.1,1c0.4,4.1,0.7,8.3,1.1,12.4c0.5,5,0.9,10.1,1.4,15.1c0.4,4.5,0.8,9,1.2,13.5c0.1,1.3,0,1.1,1.2,1.4
				c17,4.7,34.1,9.5,51.1,14.2c1.9,0.5,3.8,1.1,5.7,1.6c0,9.1,0,18.3,0,27.4c0,0.3,0,0.6,0,0.9c0,0.9,0.2,1,0.9,0.8
				c0.8-0.2,1.6-0.4,2.4-0.6c4-1.1,8-2.2,12.1-3.4c4.8-1.3,9.5-2.7,14.3-4c4.4-1.2,8.8-2.4,13.3-3.6c5.4-1.5,10.7-3,16.1-4.5
				c5-1.4,9.9-2.7,14.9-4.1c1-0.3,1.1-0.4,1.1-1.4c0-1.6,0.2-3.1,0.3-4.6c0.1-1.3,0.2-2.7,0.4-4c0.1-1.3,0.3-2.6,0.4-3.9
				c0.1-1,0-2,0.2-2.9c0.3-1.4,0.2-2.8,0.4-4.3c0.1-1.3,0.3-2.6,0.4-3.9c0.1-1,0-2,0.2-2.9c0.3-1.3,0.3-2.6,0.4-3.9
				c0.1-1.4,0.3-2.8,0.4-4.2c0.1-1,0-2.1,0.2-3c0.3-1.3,0.2-2.7,0.4-4c0.1-1.4,0.2-2.8,0.4-4.2c0.2-2.2,0.4-4.4,0.6-6.6
				c0.2-2.4,0.5-4.7,0.6-7.1c0-1,0-2,0.3-2.9c0.3-1.3,0.2-2.5,0.4-3.8c0.1-1.3,0.3-2.7,0.4-4c0.1-1.1,0-2.2,0.3-3.3
				c0.3-1.3,0.2-2.5,0.4-3.8c0.1-1.3,0.3-2.7,0.4-4c0-1,0-2.1,0.3-3c0.3-1.4,0.2-2.8,0.4-4.1c0.2-1.3,0.3-2.7,0.4-4
				c0.1-1,0.1-2.1,0.2-3c0.3-1.3,0.3-2.7,0.4-4c0.1-1.4,0.3-2.8,0.4-4.2c0.1-1,0-2,0.2-2.9c0.3-1.3,0.3-2.7,0.4-4
				c0.1-1.4,0.3-2.8,0.4-4.2c0.1-1,0-2,0.2-2.9c0.3-1.4,0.3-2.8,0.4-4.3c0.1-1.3,0.2-2.5,0.3-3.8c0.2-1.6,0.2-3.3,0.4-4.9
				c0.2-1.2,0.1-2.5,0.3-3.7c0.2-1.4,0.3-2.8,0.4-4.1c0.1-1.3,0.2-2.7,0.3-4c0.3-2.2,0.4-4.4,0.6-6.6c0.2-2.4,0.5-4.7,0.6-7.1
				c0-0.9,0.1-1.8,0.3-2.7c0.3-1.4,0.2-2.8,0.4-4.1c0.1-1.3,0.3-2.7,0.4-4c0.1-1.1,0.1-2.2,0.2-3.3c0.2-1.5,0.4-3,0.4-4.5
				c0.1-1.2,0.2-2.4,0.3-3.5c0.3-2.5,0.4-5,0.7-7.6c0.2-1.2,0.1-2.5,0.3-3.7c0.2-1.5,0.4-3,0.4-4.5c0.1-1.8,0.2-1.7-1.6-1.7
				c-28.2,0-56.4,0-84.6,0c-1.6,0-3.1,0-4.7,0c-1.2,0-1.3,0.1-1.3,1.4c0,3.2,0,6.4,0,9.6c-0.5,0-1.1,0.1-1.6,0.1
				c-16.4,0-32.7,0-49.1,0c-0.3,0-0.6,0-0.9,0c-0.9,0-0.9,0-1,0.9c-0.3,2.5-0.5,5.1-0.8,7.6c-0.4,4.6-0.9,9.2-1.3,13.7
				c-0.4,4.4-0.8,8.8-1.2,13.1c-0.3,3-0.5,6.1-0.8,9.1c-0.4,4.3-0.8,8.6-1.2,12.9c-0.3,3.1-0.5,6.2-0.8,9.3
				c-0.4,4.2-0.8,8.3-1.1,12.5c-0.3,3.1-0.5,6.3-0.8,9.4c-0.4,4.2-0.8,8.3-1.1,12.5c-0.2,1.8-0.4,1.7,1.5,1.7c19.5,0,39,0,58.6,0
				c0.5,0,1.1-0.1,1.6,0.1c0,0.5,0,1,0,1.5C975,256.6,975,271.1,975,285.6z"/>
			<path class="st9" d="M975,137.7c0-3.2,0-6.4,0-9.6c0-1.3,0.1-1.3,1.3-1.4c1.6,0,3.1,0,4.7,0c28.2,0,56.4,0,84.6,0
				c1.8,0,1.7-0.1,1.6,1.7c0,1.5-0.2,3-0.4,4.5c-0.1,1.2-0.1,2.4-0.3,3.7c-0.3,2.5-0.4,5-0.7,7.6c-0.1,1.2-0.2,2.4-0.3,3.5
				c-0.1,1.5-0.2,3-0.4,4.5c-0.2,1.1-0.1,2.2-0.2,3.3c-0.1,1.3-0.2,2.7-0.4,4c-0.2,1.4-0.1,2.8-0.4,4.1c-0.2,0.9-0.2,1.8-0.3,2.7
				c-0.1,2.4-0.4,4.7-0.6,7.1c-0.2,2.2-0.4,4.4-0.6,6.6c-0.2,1.3-0.2,2.7-0.3,4c-0.1,1.4-0.2,2.8-0.4,4.1c-0.2,1.2-0.1,2.4-0.3,3.7
				c-0.3,1.6-0.3,3.3-0.4,4.9c-0.1,1.3-0.2,2.5-0.3,3.8c-0.1,1.4-0.1,2.9-0.4,4.3c-0.2,1-0.2,2-0.2,2.9c-0.1,1.4-0.2,2.8-0.4,4.2
				c-0.1,1.3-0.1,2.7-0.4,4c-0.2,1-0.2,2-0.2,2.9c-0.1,1.4-0.3,2.8-0.4,4.2c-0.1,1.3-0.1,2.7-0.4,4c-0.2,1-0.2,2-0.2,3
				c-0.1,1.3-0.2,2.7-0.4,4c-0.2,1.4-0.1,2.8-0.4,4.1c-0.2,1-0.2,2-0.3,3c-0.1,1.4-0.2,2.7-0.4,4c-0.1,1.3-0.1,2.5-0.4,3.8
				c-0.2,1.1-0.2,2.2-0.3,3.3c-0.1,1.3-0.2,2.7-0.4,4c-0.1,1.3-0.1,2.5-0.4,3.8c-0.2,0.9-0.2,2-0.3,2.9c-0.1,2.4-0.4,4.7-0.6,7.1
				c-0.2,2.2-0.4,4.4-0.6,6.6c-0.2,1.4-0.2,2.8-0.4,4.2c-0.1,1.3-0.1,2.7-0.4,4c-0.2,1-0.2,2-0.2,3c-0.1,1.4-0.3,2.8-0.4,4.2
				c-0.1,1.3-0.1,2.6-0.4,3.9c-0.2,1-0.2,2-0.2,2.9c-0.1,1.3-0.2,2.6-0.4,3.9c-0.2,1.4-0.1,2.9-0.4,4.3c-0.2,1-0.2,2-0.2,2.9
				c-0.1,1.3-0.2,2.6-0.4,3.9c-0.1,1.3-0.2,2.7-0.4,4c-0.1,1.5-0.4,3.1-0.3,4.6c0,1.1,0,1.2-1.1,1.4c-5,1.4-9.9,2.7-14.9,4.1
				c-5.4,1.5-10.7,3-16.1,4.5c-4.4,1.2-8.8,2.4-13.3,3.6c-4.8,1.3-9.5,2.7-14.3,4c-4,1.1-8,2.2-12.1,3.4c-0.8,0.2-1.6,0.4-2.4,0.6
				c-0.8,0.2-0.9,0.1-0.9-0.8c0-0.3,0-0.6,0-0.9c0-9.1,0-18.3,0-27.4c0-0.1,0-0.1,0-0.2c0.4-0.1,0.7-0.1,1.1-0.2
				c16-4.4,32-8.8,48-13.3c2.7-0.7,5.4-1.5,8.1-2.2c0.5-0.1,0.8-0.3,0.9-1c0.2-2.8,0.5-5.6,0.7-8.3c0.3-3.1,0.5-6.1,0.8-9.2
				c0.4-4.3,0.8-8.7,1.2-13c0.3-3,0.5-6.1,0.8-9.1c0.4-4.2,0.8-8.3,1.1-12.5c0.3-3.2,0.5-6.4,0.8-9.6c0.4-4.4,0.8-8.8,1.2-13.1
				c0.3-3.1,0.6-6.3,0.9-9.4c0.2-1.7,0.2-1.7-1.6-1.7c-19.6,0-39.2,0-58.8,0c-1.7,0-3.5-0.1-5.2,0l0-0.1c0-0.5,0-1,0-1.5
				c0-14.5,0-29,0-43.5c0.2,0,0.5-0.1,0.7-0.1c0.5,0,1.1,0.1,1.6,0.1c1.4,0,2.9,0,4.3,0c4.6,0.3,9.2,0.6,13.8,0.9
				c4.5,0.3,8.9,0.5,13.4,0.8c0.9,0.1,0.9,0.1,0.9,0.9c0.2,2.2,0.4,4.4,0.6,6.6c0.5,5.4,1,10.7,1.5,16.1c0.1,1.6,0.3,3.3,0.4,4.9
				c0,0.6,0.3,0.8,0.9,0.8c0.2,0,0.4,0,0.6,0c8.5,0,17.1,0,25.6,0c1.4,0,1.4,0,1.2-1.4c0-0.1,0-0.2,0-0.2c-0.4-4.3-0.8-8.7-1.2-13
				c-0.3-3-0.5-6-0.8-9c-0.4-4.3-0.8-8.5-1.2-12.8c-0.3-3.1-0.5-6.2-0.8-9.3c-0.4-4.4-0.8-8.8-1.1-13.2c-0.1-1.7,0.2-1.5-1.7-1.5
				c-17.5,0-34.9,0-52.4,0c-0.9,0-1.7,0-2.6-0.1c-1,0-2-0.2-3.1,0.1C975.5,137.7,975.2,137.7,975,137.7z"/>
			<path class="st10" d="M975.7,167.1c-0.2,0-0.5,0.1-0.7,0.1c-1,0-2,0-3,0c-5.5,0.1-10.9,0.3-16.4,0.5c-2.2,0.1-4.4,0.1-6.6,0.2
				c-0.8,0-0.9,0-0.9,0.9c-0.3,2.9-0.5,5.8-0.8,8.7c-0.4,4.2-0.8,8.3-1.2,12.5c-0.3,3-0.5,6-0.8,8.9c-0.4,4-0.8,8-1.1,12
				c-0.1,1.5-0.1,1.3,1.3,1.3c9.4,0,18.9,0,28.3,0c0.4,0,0.8,0,1.2-0.1c0,0,0,0.1,0,0.1c0,9.4,0,18.7,0,28.1c0,0.1,0,0.1,0,0.2
				c-0.5-0.2-1.1-0.1-1.6-0.1c-19.5,0-39,0-58.6,0c-1.9,0-1.7,0.2-1.5-1.7c0.3-4.2,0.8-8.3,1.1-12.5c0.3-3.1,0.5-6.3,0.8-9.4
				c0.4-4.2,0.8-8.3,1.1-12.5c0.3-3.1,0.5-6.2,0.8-9.3c0.4-4.3,0.8-8.6,1.2-12.9c0.3-3,0.5-6.1,0.8-9.1c0.4-4.4,0.8-8.8,1.2-13.1
				c0.4-4.6,0.9-9.2,1.3-13.7c0.2-2.5,0.5-5.1,0.8-7.6c0.1-0.9,0.1-0.9,1-0.9c0.3,0,0.6,0,0.9,0c16.4,0,32.7,0,49.1,0
				c0.5,0,1.1,0,1.6-0.1c0.2,0,0.5,0.1,0.7,0.1C975.7,147.6,975.7,157.3,975.7,167.1z"/>
			<path class="st10" d="M975,315c0,0.1,0,0.1,0,0.2c-1.9-0.5-3.8-1.1-5.7-1.6c-17-4.7-34.1-9.5-51.1-14.2c-1.2-0.3-1.1-0.1-1.2-1.4
				c-0.4-4.5-0.8-9-1.2-13.5c-0.5-5-0.9-10.1-1.4-15.1c-0.4-4.1-0.7-8.3-1.1-12.4c0-0.3-0.1-0.7-0.1-1c-0.2-1.3-0.2-1.3,1.2-1.3
				c0,0,0.1,0,0.1,0c8.6,0,17.1,0,25.7,0c1.2,0,1.3,0,1.4,1.2c0.2,2.2,0.4,4.4,0.6,6.6c0.4,4.7,0.8,9.3,1.2,14c0.1,0.7,0.5,0.8,1,1
				c4.5,1.2,9,2.4,13.4,3.6c5.3,1.4,10.6,2.9,15.9,4.3c0.4,0.1,0.8,0.3,1.2,0.2c0,0.1,0,0.1,0,0.2c0,3.6,0,7.2,0,10.8
				C975,302.7,975,308.9,975,315z"/>
			<path class="st9" d="M975,285.6c0-14.5,0-29,0-43.5c0-0.5,0-1,0-1.5c0-0.1,0-0.1,0-0.2c0.5,0.1,1,0.1,1.5,0.1
				c10.6,0,21.1,0,31.7,0c0.3,0,0.6,0,0.9,0c0.6-0.1,0.8,0.3,0.7,0.8c0,0.2,0,0.3,0,0.5c-0.3,3.1-0.6,6.3-0.9,9.4
				c-0.3,3.2-0.5,6.5-0.8,9.7c-0.5,5-0.9,10.1-1.4,15.1c-0.1,1.1-0.1,1.1-1.2,1.4c-6.3,1.7-12.7,3.4-19,5.1c-3.8,1-7.6,2.1-11.4,3.1
				C975,285.7,975,285.7,975,285.6z"/>
			<path class="st8" d="M975,212.2c-0.4,0-0.8,0.1-1.2,0.1c-9.4,0-18.9,0-28.3,0c-1.3,0-1.4,0.2-1.3-1.3c0.4-4,0.8-8,1.1-12
				c0.3-3,0.5-6,0.8-8.9c0.4-4.2,0.8-8.3,1.2-12.5c0.3-2.9,0.5-5.8,0.8-8.7c0.1-0.9,0.1-0.9,0.9-0.9c2.2-0.1,4.4-0.1,6.6-0.2
				c5.5-0.2,10.9-0.3,16.4-0.5c1,0,2,0,3,0c0,14.5,0,29,0,43.5C975,211.2,975,211.7,975,212.2z"/>
		</g>
	</g>
	<g>
		<g>
			<line class="st11" x1="401.8" y1="418.5" x2="1020.7" y2="418.5"/>
			<g>
				<path class="st12" d="M402.5,433c-8,0-14.5-6.5-14.5-14.5s6.5-14.5,14.5-14.5c8,0,14.5,6.5,14.5,14.5S410.5,433,402.5,433z"/>
			</g>
			<g>
				<path class="st12" d="M1019.9,433c8,0,14.5-6.5,14.5-14.5s-6.5-14.5-14.5-14.5c-8,0-14.5,6.5-14.5,14.5S1011.9,433,1019.9,433z"
					/>
			</g>
		</g>
	</g>
	<text transform="matrix(1 0 0 1 313.3711 484.0182)" class="st13"><tspan x="0" y="0" class="st14 st15 st16">Strong Foundation With </tspan><tspan x="409.6" y="0" class="st17 st18 st16">HTML5</tspan><tspan x="535.7" y="0" class="st17 st15 st16">,</tspan><tspan x="543.7" y="0" class="st14 st15 st16"> </tspan><tspan x="552.7" y="0" class="st19 st18 st16">CSS3</tspan><tspan x="642.2" y="0" class="st14 st18 st16"> </tspan><tspan x="651.2" y="0" class="st14 st15 st16">&amp; </tspan><tspan x="687.9" y="0" class="st20 st18 st16">JS ES6</tspan></text>
	<g>
		<path d="M317.3,483.8l-1.5-0.2l0.2-1.4c3.8,0.5,6.6,0.7,8.5,0.7c4.8,0,7.2-2.4,7.2-7.1c0-1.3-0.2-2.3-0.5-3c-0.4-0.7-1-1.3-2-1.7
			c-1-0.4-2.5-0.8-4.6-1.1c-2.3-0.4-4.1-0.8-5.3-1.3s-2.1-1.3-2.7-2.3s-0.9-2.4-0.9-4.2c0-2.4,0.7-4.2,2.1-5.4
			c1.4-1.2,3.7-1.8,6.7-1.8c2.4,0,5.1,0.2,8.1,0.6l-0.2,1.5c-4.1-0.5-6.8-0.7-8-0.7c-4.8,0-7.2,1.9-7.2,5.7c0,1.6,0.2,2.7,0.5,3.4
			c0.3,0.7,1,1.3,2,1.7c1,0.4,2.8,0.9,5.2,1.3c2.1,0.4,3.7,0.8,4.9,1.3c1.2,0.5,2,1.2,2.6,2.2c0.5,0.9,0.8,2.2,0.8,3.8
			c0,2.9-0.7,5.1-2,6.5c-1.4,1.4-3.6,2.1-6.6,2.1C323.1,484.3,320.6,484.1,317.3,483.8z"/>
		<path d="M341.4,483.8c-0.7-0.4-1.2-1.2-1.5-2.2c-0.3-1-0.5-2.5-0.5-4.5v-12.3h-3.2v-1.3h3.2V457h1.4v6.6h7.5v1.3h-7.5v10.7
			c0,2.1,0.1,3.6,0.2,4.6c0.1,1,0.5,1.7,1,2.2c0.5,0.5,1.4,0.7,2.5,0.7l4-0.4l0.2,1.3c-2.2,0.2-3.7,0.3-4.4,0.3
			C343.1,484.4,342.2,484.2,341.4,483.8z"/>
		<path d="M352.2,463.6h1.4v3.2c2.4-1.8,5.1-3,8.1-3.6v1.5c-1.1,0.2-2.4,0.6-3.9,1.2s-2.4,1.1-3,1.6l-1.2,0.7V484h-1.4V463.6z"/>
		<path d="M367.3,483.4c-1.2-0.6-2-1.7-2.5-3.1c-0.4-1.5-0.7-3.5-0.7-6.2c0-2.8,0.2-5,0.7-6.6c0.5-1.5,1.3-2.6,2.5-3.3
			c1.2-0.7,2.9-1,5.1-1c2.2,0,3.9,0.3,5.1,1c1.2,0.7,2,1.8,2.5,3.3c0.5,1.5,0.7,3.7,0.7,6.5c0,2.7-0.2,4.8-0.7,6.2
			c-0.4,1.4-1.2,2.5-2.4,3.1c-1.2,0.7-2.9,1-5.2,1C370.2,484.4,368.4,484.1,367.3,483.4z M376.8,482.2c0.9-0.6,1.6-1.5,1.9-2.7
			c0.3-1.2,0.5-3.1,0.5-5.5c0-2.6-0.2-4.5-0.5-5.9c-0.4-1.3-1-2.3-1.9-2.8c-0.9-0.5-2.3-0.8-4.2-0.8c-1.9,0-3.3,0.3-4.3,0.8
			c-1,0.5-1.6,1.5-2,2.8s-0.6,3.3-0.6,5.8c0,2.4,0.2,4.2,0.5,5.4c0.3,1.3,1,2.2,2,2.7c1,0.6,2.4,0.8,4.4,0.8
			C374.4,483,375.9,482.8,376.8,482.2z"/>
		<path d="M386.4,463.6h1.4v1.6c1.4-0.7,2.7-1.3,3.8-1.6c1.2-0.3,2.3-0.4,3.6-0.4c1.8,0,3.1,0.3,4,0.9c0.9,0.6,1.6,1.6,1.9,3.1
			s0.6,3.5,0.6,6.3V484h-1.4v-10.6c0-2.3-0.1-4.1-0.4-5.4c-0.3-1.3-0.7-2.2-1.4-2.7c-0.7-0.5-1.7-0.8-3-0.8c-1.2,0-2.5,0.2-3.7,0.5
			c-1.3,0.3-2.2,0.7-2.9,1l-1,0.5V484h-1.4V463.6z"/>
		<path d="M410,493.1c-1.1-0.4-1.9-1.1-2.3-2s-0.6-2.1-0.6-3.6c0-1,0.1-1.8,0.3-2.3c0.2-0.6,0.5-1,0.9-1.4c0.4-0.4,1.1-1,2.2-1.8
			c-0.3-0.2-0.5-0.5-0.7-1c-0.1-0.5-0.2-1-0.2-1.5c0-0.3,0.1-0.7,0.2-1.1c0.1-0.4,0.5-1.2,1-2.2c-2.3-0.7-3.5-2.8-3.5-6.2
			c0-2.3,0.6-4,1.7-5.1c1.1-1.1,2.9-1.7,5.5-1.7c1.3,0,2.7,0.2,4.2,0.5l5.7-0.1v1.4l-4.5,0c0.5,0.4,1,1,1.2,1.9
			c0.3,0.9,0.4,1.9,0.4,3.1c0,2.4-0.6,4.1-1.8,5.1c-1.2,1-3.1,1.5-5.6,1.5c-0.9,0-1.6-0.1-2.2-0.2l-0.3,0.8
			c-0.2,0.5-0.3,0.9-0.4,1.2c-0.1,0.4-0.2,0.7-0.2,1c0,0.8,0.3,1.4,0.9,1.6s1.5,0.4,2.6,0.4l2.8,0c1.5,0,2.7,0.2,3.6,0.4
			c0.9,0.3,1.6,0.9,2.1,1.7c0.5,0.8,0.8,2,0.8,3.5c0,1.5-0.3,2.8-0.8,3.7c-0.5,0.9-1.5,1.6-2.8,2.1s-3.1,0.7-5.3,0.7
			C412.7,493.7,411.1,493.5,410,493.1z M419.4,492c1-0.3,1.8-0.9,2.2-1.7c0.4-0.8,0.7-1.8,0.7-3.2c0-1.1-0.1-2-0.4-2.6
			s-0.8-1-1.7-1.2s-2.1-0.4-3.8-0.3l-4.9-0.2c-0.9,0.6-1.6,1.1-2,1.5s-0.7,0.8-0.9,1.3c-0.2,0.5-0.2,1.1-0.2,1.9
			c0,1.3,0.2,2.3,0.6,3c0.4,0.7,1.1,1.2,2,1.5c0.9,0.3,2.3,0.4,4,0.4C416.9,492.5,418.4,492.3,419.4,492z M418.8,474.2
			c0.8-0.8,1.3-2.2,1.3-4.3c0-2-0.4-3.4-1.2-4.2c-0.8-0.8-2.3-1.2-4.3-1.2c-2.1,0-3.6,0.4-4.5,1.2c-0.9,0.8-1.3,2.3-1.3,4.3
			c0,2,0.4,3.4,1.3,4.2c0.9,0.8,2.3,1.2,4.4,1.2C416.5,475.4,418,475,418.8,474.2z"/>
		<path d="M439.4,456.8v13h12.8v1.3h-12.8v13h-1.5v-28.6h16.4v1.3H439.4z"/>
		<path d="M460.3,483.4c-1.2-0.6-2-1.7-2.5-3.1c-0.4-1.5-0.7-3.5-0.7-6.2c0-2.8,0.2-5,0.7-6.6c0.5-1.5,1.3-2.6,2.5-3.3
			c1.2-0.7,2.9-1,5.1-1c2.2,0,3.9,0.3,5.1,1c1.2,0.7,2,1.8,2.5,3.3c0.5,1.5,0.7,3.7,0.7,6.5c0,2.7-0.2,4.8-0.7,6.2
			c-0.4,1.4-1.2,2.5-2.4,3.1c-1.2,0.7-2.9,1-5.2,1C463.2,484.4,461.4,484.1,460.3,483.4z M469.8,482.2c0.9-0.6,1.6-1.5,1.9-2.7
			c0.3-1.2,0.5-3.1,0.5-5.5c0-2.6-0.2-4.5-0.5-5.9c-0.4-1.3-1-2.3-1.9-2.8c-0.9-0.5-2.3-0.8-4.2-0.8c-1.9,0-3.3,0.3-4.3,0.8
			c-1,0.5-1.6,1.5-2,2.8s-0.6,3.3-0.6,5.8c0,2.4,0.2,4.2,0.5,5.4c0.3,1.3,1,2.2,2,2.7c1,0.6,2.4,0.8,4.4,0.8
			C467.4,483,468.9,482.8,469.8,482.2z"/>
		<path d="M481.6,483.5c-0.9-0.6-1.5-1.6-1.9-3c-0.4-1.4-0.5-3.5-0.5-6.3v-10.6h1.4v10.5c0,2.4,0.1,4.3,0.4,5.5
			c0.3,1.3,0.7,2.1,1.5,2.7s1.8,0.8,3.1,0.8c1.3,0,2.6-0.2,3.7-0.6c1.2-0.4,2.3-0.9,3.2-1.5v-17.4h1.5V484h-1.5v-1.6
			c-1.1,0.7-2.1,1.2-3.2,1.5c-1.1,0.3-2.3,0.5-3.7,0.5C483.8,484.4,482.5,484.1,481.6,483.5z"/>
		<path d="M500.5,463.6h1.4v1.6c1.4-0.7,2.7-1.3,3.8-1.6c1.2-0.3,2.3-0.4,3.6-0.4c1.8,0,3.1,0.3,4,0.9c0.9,0.6,1.6,1.6,1.9,3.1
			s0.6,3.5,0.6,6.3V484h-1.4v-10.6c0-2.3-0.1-4.1-0.4-5.4c-0.3-1.3-0.7-2.2-1.4-2.7c-0.7-0.5-1.7-0.8-3-0.8c-1.2,0-2.5,0.2-3.7,0.5
			c-1.3,0.3-2.2,0.7-2.9,1l-1,0.5V484h-1.4V463.6z"/>
		<path d="M522.7,481.9c-1.1-1.6-1.6-4.2-1.6-7.7c0-2.6,0.3-4.8,0.9-6.4s1.5-2.8,2.8-3.5c1.3-0.7,3.1-1.1,5.3-1.1
			c0.8,0,1.7,0,2.6,0.1c0.9,0.1,1.7,0.2,2.4,0.4v-9.6h1.4V484h-1.4v-1.8c-2.2,1.4-4.5,2.1-7.1,2.1
			C525.6,484.4,523.8,483.6,522.7,481.9z M531.5,482.5c1.2-0.4,2.1-0.7,2.6-1.1l1-0.5v-15.9c-2-0.4-3.7-0.6-5.3-0.6
			c-1.8,0-3.3,0.3-4.3,1c-1,0.7-1.8,1.7-2.2,3c-0.4,1.3-0.7,3.1-0.7,5.4c0,3.1,0.4,5.3,1.2,6.9c0.8,1.5,2.2,2.3,4.3,2.3
			C529.2,483.1,530.3,482.9,531.5,482.5z"/>
		<path d="M543.2,482.8c-0.9-1-1.4-2.5-1.4-4.3s0.5-3.2,1.4-4.2c0.9-1,2.3-1.6,4.3-1.9l7.8-0.8v-2.1c0-1.7-0.4-2.9-1.1-3.8
			c-0.7-0.8-1.7-1.2-2.9-1.2c-1.2,0-2.3,0-3.2,0.1c-0.9,0.1-2.6,0.3-5.1,0.6l-0.1-1.3c2.8-0.5,5.4-0.7,7.7-0.7
			c2.1,0,3.6,0.5,4.6,1.6c1,1,1.5,2.7,1.5,4.8v11.8c0,0.4,0.3,0.8,0.9,1.1s1.3,0.5,2.2,0.6l-0.1,1.3c-0.9,0-1.7-0.2-2.5-0.5
			c-0.8-0.3-1.3-0.8-1.7-1.3c-2.7,1.2-5.5,1.8-8.3,1.8C545.4,484.4,544.1,483.9,543.2,482.8z M554.1,481.8l1.1-0.4v-8.3l-7.6,0.7
			c-1.5,0.1-2.6,0.5-3.2,1.2c-0.7,0.7-1,1.8-1,3.2c0,3.2,1.3,4.7,3.8,4.7C549.6,483,551.9,482.6,554.1,481.8z"/>
		<path d="M566.5,483.8c-0.7-0.4-1.2-1.2-1.5-2.2c-0.3-1-0.5-2.5-0.5-4.5v-12.3h-3.2v-1.3h3.2V457h1.4v6.6h7.5v1.3h-7.5v10.7
			c0,2.1,0.1,3.6,0.2,4.6c0.1,1,0.5,1.7,1,2.2c0.5,0.5,1.4,0.7,2.5,0.7l4-0.4l0.2,1.3c-2.2,0.2-3.7,0.3-4.4,0.3
			C568.2,484.4,567.2,484.2,566.5,483.8z"/>
		<path d="M577.2,455.4h1.4v2.2h-1.4V455.4z M577.2,463.6h1.4V484h-1.4V463.6z"/>
		<path d="M587.1,483.4c-1.2-0.6-2-1.7-2.5-3.1c-0.4-1.5-0.7-3.5-0.7-6.2c0-2.8,0.2-5,0.7-6.6c0.5-1.5,1.3-2.6,2.5-3.3
			c1.2-0.7,2.9-1,5.1-1c2.2,0,3.9,0.3,5.1,1c1.2,0.7,2,1.8,2.5,3.3c0.5,1.5,0.7,3.7,0.7,6.5c0,2.7-0.2,4.8-0.7,6.2
			c-0.4,1.4-1.2,2.5-2.4,3.1c-1.2,0.7-2.9,1-5.2,1C590,484.4,588.2,484.1,587.1,483.4z M596.6,482.2c0.9-0.6,1.6-1.5,1.9-2.7
			c0.3-1.2,0.5-3.1,0.5-5.5c0-2.6-0.2-4.5-0.5-5.9c-0.4-1.3-1-2.3-1.9-2.8c-0.9-0.5-2.3-0.8-4.2-0.8c-1.9,0-3.3,0.3-4.3,0.8
			c-1,0.5-1.6,1.5-2,2.8s-0.6,3.3-0.6,5.8c0,2.4,0.2,4.2,0.5,5.4c0.3,1.3,1,2.2,2,2.7c1,0.6,2.4,0.8,4.4,0.8
			C594.2,483,595.7,482.8,596.6,482.2z"/>
		<path d="M606.2,463.6h1.4v1.6c1.4-0.7,2.7-1.3,3.8-1.6c1.2-0.3,2.3-0.4,3.6-0.4c1.8,0,3.1,0.3,4,0.9c0.9,0.6,1.6,1.6,1.9,3.1
			s0.6,3.5,0.6,6.3V484h-1.4v-10.6c0-2.3-0.1-4.1-0.4-5.4c-0.3-1.3-0.7-2.2-1.4-2.7c-0.7-0.5-1.7-0.8-3-0.8c-1.2,0-2.5,0.2-3.7,0.5
			c-1.3,0.3-2.2,0.7-2.9,1l-1,0.5V484h-1.4V463.6z"/>
		<path d="M635,455.4h1.5l5.8,27.2h1.6l6.3-26.8h1.8l6.3,26.8h1.6l5.8-27.2h1.4l-6,28.6H657l-6-26.2l-6,26.2h-3.9L635,455.4z"/>
		<path d="M671.7,455.4h1.4v2.2h-1.4V455.4z M671.7,463.6h1.4V484h-1.4V463.6z"/>
		<path d="M682,483.8c-0.7-0.4-1.2-1.2-1.5-2.2c-0.3-1-0.5-2.5-0.5-4.5v-12.3h-3.2v-1.3h3.2V457h1.4v6.6h7.5v1.3h-7.5v10.7
			c0,2.1,0.1,3.6,0.2,4.6c0.1,1,0.5,1.7,1,2.2c0.5,0.5,1.4,0.7,2.5,0.7l4-0.4l0.2,1.3c-2.2,0.2-3.7,0.3-4.4,0.3
			C683.7,484.4,682.7,484.2,682,483.8z"/>
		<path d="M692.8,454.2h1.4v10.7c2.5-1.1,4.9-1.6,7.2-1.6c1.8,0,3.2,0.3,4.1,0.9c0.9,0.6,1.6,1.6,2,3c0.4,1.4,0.6,3.5,0.6,6.3V484
			h-1.5v-10.5c0-2.5-0.1-4.4-0.4-5.6c-0.3-1.2-0.8-2.1-1.5-2.6c-0.8-0.5-1.9-0.7-3.4-0.7c-1.1,0-2.2,0.1-3.1,0.3
			c-1,0.2-1.9,0.5-3,0.9l-0.9,0.4V484h-1.4V454.2z"/>
		<path class="st0" d="M744.3,455.9V484h-3.9v-12.4h-13.1V484h-3.9v-28.1h3.9v12.3h13.1v-12.3H744.3z"/>
		<path class="st0" d="M756.5,459.4h-8.3v-3.5h20.4v3.5h-8.2V484h-3.9V459.4z"/>
		<path class="st0" d="M800.3,455.9V484h-3.9v-23.9h-0.6l-7.3,22.8h-4.2l-7.4-22.8h-0.6V484h-3.9v-28.1h6.9l7.1,22.9l7-22.9H800.3z"
			/>
		<path class="st0" d="M822.7,480.5v3.5H807v-28.1h3.9v24.6H822.7z"/>
		<path class="st0" d="M827,483.4l-1.4-0.3l0.4-3c3.2,0.6,5.9,0.9,8,0.9c1.9,0,3.3-0.5,4.3-1.5c1-1,1.5-2.4,1.5-4.2
			c0-1.7-0.4-3-1.3-3.8c-0.8-0.8-2.1-1.2-3.8-1.2c-0.9,0-1.8,0.1-2.8,0.3c-1,0.2-1.8,0.4-2.5,0.7l-0.8,0.3l-2.5-0.5l0.7-14.2h16v3.5
			h-12.8l-0.7,7.9c2-1,4-1.5,5.9-1.5c5.7,0,8.6,2.7,8.6,8c0,3-0.8,5.4-2.4,7s-3.8,2.5-6.7,2.5C832.4,484.4,829.9,484.1,827,483.4z"
			/>
		<path class="st0" d="M849.6,480.5h1.6l-2.1,8.6h-1.3L849.6,480.5z"/>
		<path class="st4" d="M869.4,482.9c-1.6-1.1-2.6-2.6-3.2-4.7c-0.6-2.1-0.9-4.8-0.9-8.2c0-3.5,0.3-6.3,0.9-8.3
			c0.6-2.1,1.7-3.6,3.2-4.7c1.5-1,3.7-1.6,6.4-1.6c2.3,0,4.9,0.3,7.8,1l-0.1,3.2c-2.6-0.5-4.9-0.7-6.9-0.7s-3.6,0.4-4.6,1.1
			s-1.7,1.9-2.1,3.5c-0.4,1.6-0.5,3.9-0.5,7c0,2.6,0.2,4.7,0.5,6.1c0.3,1.4,1,2.5,2.1,3.2s2.6,1.1,4.8,1.1c1.8,0,4-0.2,6.7-0.7
			l0.1,3.3c-3,0.6-5.5,0.9-7.6,0.9C873.2,484.5,871,483.9,869.4,482.9z"/>
		<path class="st4" d="M888.9,483.7l-1.5-0.2l0.4-3.1c3.7,0.5,6.5,0.7,8.4,0.7c3.7,0,5.5-1.7,5.5-5c0-0.9-0.2-1.7-0.6-2.2
			c-0.4-0.6-1-1-1.8-1.3s-2-0.7-3.5-1c-2.2-0.5-3.9-1.1-5.1-1.7c-1.2-0.6-2.1-1.5-2.7-2.5s-0.9-2.3-0.9-4c0-2.6,0.8-4.5,2.3-5.8
			s3.8-2,6.9-2c1.1,0,2.3,0.1,3.6,0.2c1.3,0.1,3,0.4,5.1,0.7l-0.3,3.2c-3.7-0.4-6.4-0.7-8.1-0.7c-3.7,0-5.6,1.4-5.6,4.1
			c0,1,0.2,1.8,0.6,2.4c0.4,0.6,1.1,1,2,1.4c0.9,0.4,2.3,0.8,4.2,1.2c2,0.5,3.5,1,4.6,1.6c1.1,0.6,1.9,1.4,2.4,2.3
			c0.5,1,0.8,2.2,0.8,3.8c0,2.9-0.8,5.1-2.3,6.5c-1.6,1.5-3.8,2.2-6.8,2.2C894.6,484.4,892,484.2,888.9,483.7z"/>
		<path class="st4" d="M911,483.7l-1.5-0.2l0.4-3.1c3.7,0.5,6.5,0.7,8.4,0.7c3.7,0,5.5-1.7,5.5-5c0-0.9-0.2-1.7-0.6-2.2
			c-0.4-0.6-1-1-1.8-1.3s-2-0.7-3.5-1c-2.2-0.5-3.9-1.1-5.1-1.7c-1.2-0.6-2.1-1.5-2.7-2.5s-0.9-2.3-0.9-4c0-2.6,0.8-4.5,2.3-5.8
			s3.8-2,6.9-2c1.1,0,2.3,0.1,3.6,0.2c1.3,0.1,3,0.4,5.1,0.7l-0.3,3.2c-3.7-0.4-6.4-0.7-8.1-0.7c-3.7,0-5.6,1.4-5.6,4.1
			c0,1,0.2,1.8,0.6,2.4c0.4,0.6,1.1,1,2,1.4c0.9,0.4,2.3,0.8,4.2,1.2c2,0.5,3.5,1,4.6,1.6c1.1,0.6,1.9,1.4,2.4,2.3
			c0.5,1,0.8,2.2,0.8,3.8c0,2.9-0.8,5.1-2.3,6.5c-1.6,1.5-3.8,2.2-6.8,2.2C916.8,484.4,914.2,484.2,911,483.7z"/>
		<path class="st4" d="M933.4,483.6l-1.3-0.3l0.3-3.1c3,0.6,5.5,0.9,7.4,0.9c1.9,0,3.4-0.4,4.5-1.1c1.1-0.7,1.6-1.9,1.6-3.6
			c0-1.5-0.4-2.6-1.3-3.4c-0.9-0.8-2.1-1.2-3.8-1.2h-5.4v-3.3h5.4c0.7,0,1.4-0.2,2.1-0.6c0.7-0.4,1.3-0.9,1.7-1.7
			c0.4-0.7,0.7-1.5,0.7-2.4c0-1.3-0.4-2.3-1.2-2.9c-0.8-0.6-2.1-0.9-4-0.9c-1.8,0-3.9,0.2-6.2,0.6l-1.1,0.2l-0.3-3
			c2.5-0.8,5.3-1.2,8.3-1.2c3,0,5.1,0.6,6.5,1.7c1.3,1.1,2,2.9,2,5.4c0,1.4-0.3,2.6-1,3.7c-0.6,1.1-1.6,1.9-2.8,2.5
			c1.1,0.4,1.9,0.9,2.5,1.4c0.6,0.5,1.1,1.1,1.4,1.9s0.5,1.8,0.5,3.1c0,2.8-0.7,4.9-2.1,6.2c-1.4,1.3-3.7,2-6.8,2
			C938.7,484.5,936.2,484.2,933.4,483.6z"/>
		<path d="M965.7,482.2c-1.5-1.5-2.2-3.6-2.2-6.5c0-1.8,0.3-3.2,0.8-4.3c0.5-1.1,1.2-1.9,2.2-2.6c1-0.6,2.2-1.1,3.7-1.6
			c-0.7-0.7-1.2-1.5-1.5-2.3c-0.4-0.9-0.6-1.9-0.6-3.1c0-2.1,0.5-3.6,1.6-4.7c1.1-1,2.6-1.6,4.7-1.6c2,0,3.6,0.5,4.6,1.5
			c1,1,1.6,2.5,1.6,4.4c0,1.9-0.5,3.4-1.6,4.5c-1,1.1-2.8,2.1-5.2,2.9l7.7,7.5c0.4-1.2,0.7-2.4,0.9-3.4s0.4-2.4,0.5-4.1l1.4,0
			c-0.4,3.8-1,6.7-1.8,8.7l5.7,5.6l-1,1l-5.4-5.3c-1.1,2.1-2.3,3.5-3.8,4.3c-1.4,0.7-3.2,1.1-5.3,1.1
			C969.5,484.4,967.1,483.7,965.7,482.2z M977.8,481.8c1.2-0.8,2.3-2.1,3-3.8l-9.6-9.6c-1.5,0.4-2.7,0.9-3.6,1.4
			c-0.9,0.5-1.6,1.2-2,2.1c-0.4,0.9-0.7,2.1-0.7,3.6c0,2.6,0.6,4.5,1.9,5.7c1.3,1.2,3.2,1.8,5.9,1.8
			C974.9,483,976.6,482.6,977.8,481.8z M977.7,465.5c1-0.9,1.4-2.2,1.4-3.8c0-1.6-0.4-2.8-1.2-3.6c-0.8-0.8-2-1.1-3.7-1.1
			c-1.6,0-2.8,0.4-3.6,1.1c-0.8,0.8-1.2,1.9-1.2,3.5c0,2,0.6,3.7,1.8,5l1.5,1.4C975.2,467.2,976.8,466.4,977.7,465.5z"/>
		<path class="st8" d="M999,483.5c1.2,0,2.1-0.1,2.7-0.3c0.6-0.2,1-0.6,1.2-1.1c0.2-0.5,0.3-1.4,0.3-2.6v-23.6h3.9l0,24
			c0,2-0.3,3.6-0.9,4.6c-0.6,1-1.4,1.7-2.6,2c-1.1,0.3-2.7,0.5-4.7,0.5V483.5z"/>
		<path class="st8" d="M1013.8,483.7l-1.5-0.2l0.4-3.1c3.7,0.5,6.5,0.7,8.4,0.7c3.7,0,5.5-1.7,5.5-5c0-0.9-0.2-1.7-0.6-2.2
			c-0.4-0.6-1-1-1.8-1.3c-0.8-0.3-2-0.7-3.5-1c-2.2-0.5-3.9-1.1-5.1-1.7c-1.2-0.6-2.1-1.5-2.7-2.5s-0.9-2.3-0.9-4
			c0-2.6,0.8-4.5,2.3-5.8s3.8-2,6.9-2c1.1,0,2.3,0.1,3.6,0.2c1.3,0.1,3,0.4,5.1,0.7l-0.3,3.2c-3.7-0.4-6.4-0.7-8.1-0.7
			c-3.7,0-5.6,1.4-5.6,4.1c0,1,0.2,1.8,0.6,2.4c0.4,0.6,1.1,1,2,1.4c0.9,0.4,2.3,0.8,4.2,1.2c2,0.5,3.5,1,4.6,1.6
			c1.1,0.6,1.9,1.4,2.4,2.3c0.5,1,0.8,2.2,0.8,3.8c0,2.9-0.8,5.1-2.3,6.5c-1.6,1.5-3.8,2.2-6.8,2.2
			C1019.5,484.4,1017,484.2,1013.8,483.7z"/>
		<path class="st8" d="M1048.7,459.3v8.7h11v3.4h-11v9.1h13.5v3.4h-17.4v-28.1h17.4v3.4H1048.7z"/>
		<path class="st8" d="M1067.5,483.7l-1.5-0.2l0.4-3.1c3.7,0.5,6.5,0.7,8.4,0.7c3.7,0,5.5-1.7,5.5-5c0-0.9-0.2-1.7-0.6-2.2
			c-0.4-0.6-1-1-1.8-1.3s-2-0.7-3.5-1c-2.2-0.5-3.9-1.1-5.1-1.7c-1.2-0.6-2.1-1.5-2.7-2.5s-0.9-2.3-0.9-4c0-2.6,0.8-4.5,2.3-5.8
			s3.8-2,6.9-2c1.1,0,2.3,0.1,3.6,0.2c1.3,0.1,3,0.4,5.1,0.7l-0.3,3.2c-3.7-0.4-6.4-0.7-8.1-0.7c-3.7,0-5.6,1.4-5.6,4.1
			c0,1,0.2,1.8,0.6,2.4c0.4,0.6,1.1,1,2,1.4c0.9,0.4,2.3,0.8,4.2,1.2c2,0.5,3.5,1,4.6,1.6c1.1,0.6,1.9,1.4,2.4,2.3
			c0.5,1,0.8,2.2,0.8,3.8c0,2.9-0.8,5.1-2.3,6.5c-1.6,1.5-3.8,2.2-6.8,2.2C1073.2,484.4,1070.7,484.2,1067.5,483.7z"/>
		<path class="st8" d="M1090.4,480.9c-1.6-2.4-2.5-5.9-2.5-10.6c0-4.6,0.9-8.1,2.8-10.4c1.9-2.3,4.5-3.4,8-3.4
			c2.2,0,4.3,0.2,6.5,0.6l1.1,0.2l-0.4,3.1c-2.8-0.4-5.1-0.5-7.2-0.5c-2.2,0-3.9,0.7-5,2.1c-1.2,1.4-1.7,3.5-1.7,6.3l0.9-0.4
			c0.8-0.3,1.7-0.6,2.7-0.8c1-0.2,1.8-0.3,2.6-0.3c6.1,0,9.2,2.8,9.2,8.5c0,2.9-0.8,5.1-2.5,6.7s-4.1,2.3-7.2,2.3
			C1094.5,484.5,1092.1,483.3,1090.4,480.9z M1102,479.6c1-0.9,1.4-2.3,1.4-4c0-1.7-0.5-3-1.4-3.8c-0.9-0.8-2.3-1.3-4-1.3
			c-0.8,0-1.6,0.1-2.6,0.3c-0.9,0.2-1.8,0.4-2.6,0.7l-0.9,0.4c0,2.9,0.5,5.2,1.5,6.8s2.4,2.4,4.3,2.4
			C1099.6,481,1101,480.5,1102,479.6z"/>
	</g>
</g>
</svg>
