<?xml version="1.0" encoding="utf-8"?>
<!-- Generator: Adobe Illustrator 22.0.1, SVG Export Plug-In . SVG Version: 6.00 Build 0)  -->
<svg version="1.1" id="Layer_1" xmlns="http://www.w3.org/2000/svg" xmlns:xlink="http://www.w3.org/1999/xlink" x="0px" y="0px"
	 viewBox="0 0 1405.4 609.4" style="enable-background:new 0 0 1405.4 609.4;" xml:space="preserve">
<style type="text/css">
	.st0{fill:#0B6AAD;}
	.st1{fill:#151D2A;}
	.st2{fill:#3A291A;}
	.st3{fill:#EF4826;}
	.st4{fill:#303131;}
	.st5{fill:#F5DE1B;}
	.st6{fill:#FDFDFC;}
	.st7{fill:#F8981E;}
	.st8{fill:none;}
	.st9{display:none;}
	.st10{display:inline;fill:#131313;}
	.st11{font-family:'Cairo-ExtraLight';}
	.st12{font-size:109px;}
	.st13{font-size:47px;}
	.st14{font-family:'Cairo-Black';}
	.st15{font-size:91px;}
	.st16{fill:#131313;}
	.st17{opacity:0.8;}
</style>
<g>
	<g>
		<path class="st0" d="M193.1,44.9c-2.5,13.2,0.6,24.7,10.4,34.2c5.3,5.2,11.5,9,18.6,11.2c9.2,2.8,18.2,1.7,26.8-2.4
			c0.3-0.1,0.6-0.3,0.9-0.4c0,0,0.1,0,0.3,0.1c-1.1,2-2.5,3.6-4.1,5.1c-5,4.8-11.1,7-17.9,7.3c-8.7,0.4-17-1.2-24.3-6.2
			c-9.4-6.4-15.3-15.3-17.4-26.5c-1.5-7.9,1.1-14.9,5.7-21.3c0.3-0.4,0.7-0.6,0.7-1.2C192.9,44.9,193,44.9,193.1,44.9z"/>
		<path class="st0" d="M119.2,67.8c-1.5,6.5-2.4,13-2.7,19.6c-0.9,21.8,6,40.8,21.4,56.4c10,10.2,21.7,18,34.9,23.6
			c10.2,4.3,21.1,5.8,32.1,5.6c10.7-0.3,20.9-2.5,30.5-7.1c6.3-3,11.9-7.1,16.9-12c0.2-0.2,0.3-0.3,0.6-0.4
			c-0.9,2.5-2.2,4.8-3.7,6.9c-10.6,15.8-25.1,26.1-43.7,29.8c-28.7,5.7-54.2-1.3-75.9-21.2c-12.3-11.3-21-25-25.2-41.2
			c-3.6-13.7-3.7-27.3,1.5-40.6c2.7-6.9,6.7-13.1,11.8-18.5C118.1,68.2,118.5,67.9,119.2,67.8z"/>
		<path class="st0" d="M159.2,53.9c-0.9,5.1-1.5,10.2-1.6,15.4c-0.1,20.5,8.8,36.2,25.6,47.6c7.5,5.1,15.5,9.4,24.5,11.3
			c18.9,4,35.4-0.6,48.9-14.6c0.2-0.2,0.4-0.4,0.6-0.6c-1.2,3.4-2.9,6.5-5,9.4c-7.2,10.2-17.2,16-29.1,18.8
			c-14.1,3.4-27.9,2.3-40.8-4.3c-16.8-8.6-28.8-21.6-33.5-40.3c-2.7-10.7-2.3-21.5,2.6-31.7C153.6,60.9,156.1,57.2,159.2,53.9z"/>
		<path class="st1" d="M127.9,256.9c-5.1,0.1-10.2,0.2-15.3-0.2c-6.6-0.6-11.4-5.2-12.1-11.8c-1-9.4,1.1-18,6.8-25.6
			c5.1-6.8,12.3-9.4,20.6-9c6.2,0.3,11.5,2.7,14.7,8.3c2.7,4.6,2.8,9.6,1.4,14.6c-1.2,4.5-2.7,8.9-4.4,13.3
			c-0.3,0.9-0.3,1.3,0.8,1.2c0.9,0,1.9,0.1,2.8,0.1c0.8,0,1.1,0.2,0.9,1c-0.6,2.4-1.2,4.8-1.8,7.3c-0.2,0.7-0.6,0.8-1.2,0.8
			C136.8,256.9,132.4,256.9,127.9,256.9z M122.9,247.5c2,0,3.6,0,5.3,0c0.7,0,1-0.2,1.2-0.8c1.5-5.7,3.3-11.4,4.5-17.2
			c0.6-3.1-0.6-6.4-3.1-8.1c-4.2-2.7-12.6-2.1-15.4,4.3c-2.1,4.7-3.2,9.6-3.7,14.6c-0.3,3.6,1.6,6.1,5.1,6.9
			C118.9,247.7,121.1,247.5,122.9,247.5z"/>
		<path class="st1" d="M207,242.2c-3.5,0-7,0-10.5,0c-1,0-1.4,0.3-1.6,1.3c-0.5,2.5,0.8,4.2,3.5,4.4c2.1,0.2,4.2,0.3,6.4,0.3
			c3.7,0.1,7.4,0.1,11,0.1c0.9,0,1,0.3,0.8,1.1c-0.5,2.3-1,4.5-1.5,6.8c-0.1,0.6-0.4,0.8-1,0.8c-6.6,0-13.1,0.5-19.7,0
			c-0.9-0.1-1.9-0.1-2.8-0.4c-5.1-1.2-7.8-4.9-7.3-10.2c0.5-5,1.5-9.8,3.1-14.6c1.7-5.1,5.2-8.5,10.1-10.4
			c5.2-2.1,10.5-2.7,15.9-0.8c5,1.8,7.3,5.6,7,10.8c-0.2,3.4-1,6.7-1.5,10.1c-0.1,0.9-0.7,0.7-1.2,0.7
			C214.1,242.2,210.5,242.2,207,242.2z M196.8,234.2c3.7,0,7.4,0,11,0c2.2,0,2.6-0.5,2-2.7c-0.4-1.5-1.5-2.3-2.9-2.7
			C202.2,227.5,198.6,229.3,196.8,234.2z"/>
		<path class="st1" d="M184.8,220.5c-1.8,8.3-3.5,16.6-5.2,24.8c-0.7,3.5-1.5,6.9-2.2,10.4c-0.1,0.7-0.3,1.2-1.2,1.1
			c-6.2-0.1-12.5,0-18.7-0.1c-4.9-0.1-8-2.4-9-6.5c-0.6-2.4-0.3-4.7,0-7c1.1-7.3,2.5-14.5,4.1-21.7c0.2-1,0.6-1.2,1.5-1.2
			c2.3,0.1,4.6,0.1,6.9,0c0.9,0,1.3,0.1,1.2,1.2c-0.4,5-1.9,9.8-2.9,14.7c-0.7,3.4-1,6.7-0.6,10.1c0.1,0.9,0.4,1.2,1.3,1.2
			c2.6-0.1,5.3-0.1,7.9,0c1,0,1.2-0.3,1.4-1.2c1.7-8.2,3.6-16.4,5.4-24.6c0.2-1,0.6-1.4,1.8-1.4
			C179.4,220.6,182.1,220.5,184.8,220.5z"/>
		<path class="st1" d="M261.1,237.5c2.1-3.1,4.1-5.9,6.1-8.8c2.9-4.3,5.9-8.5,8.8-12.8c0.3-0.4,0.5-0.9,1.1-0.9c3.7,0,7.4,0,11.3,0
			c-1.8,3.3-3.9,6.2-6,9.1c-4,5.4-8.5,10.5-12.4,16c-3.5,4.9-6.5,10.1-8.3,15.8c-0.1,0.5-0.3,0.8-0.9,0.8c-3.3,0-6.7,0-10.2,0
			c0.9-2,1.6-3.8,1.8-5.7c0.4-3.4-0.4-6.6-1.3-9.7c-0.8-2.7-1.7-5.4-2.3-8.1c-0.2-1.1,0-1.4,1.1-1.4c2.8,0.1,5.6,0.1,8.4,0
			c0.8,0,1.2,0.2,1.4,1C260,234.3,260.5,235.7,261.1,237.5z"/>
		<path class="st1" d="M241.7,220.3c2.6,0.2,6.7-0.2,10.7,0.2c3.2,0.4,4.6,1.5,5.5,4.6c0.2,0.9,0.3,1.9,0.6,2.8
			c0.5,1.4-0.1,1.5-1.3,1.5c-6.4-0.1-12.8,0-19.2-0.1c-1.2,0-1.6,0.4-1.8,1.5c-1.7,8.3-3.6,16.6-5.3,24.9c-0.2,1-0.6,1.2-1.5,1.2
			c-2.6-0.1-5.1,0-7.7,0c-0.7,0-1-0.1-0.8-0.9c2.5-11.5,4.9-23,7.3-34.6c0.2-0.9,0.6-1.1,1.4-1.1
			C233.2,220.3,236.7,220.3,241.7,220.3z"/>
		<path class="st1" d="M75.9,271.9c-1.4,0.1-3-0.1-4.7-0.2c-0.7,0-0.8-0.2-0.7-0.9c0.6-2.3,1.1-4.7,1.7-7c0.2-0.7,0.5-1,1.2-1.1
			c1.1-0.1,2.2-0.4,3.2-0.3c1,0,1.5-0.5,2-1.3c2.4-4.2,3.5-8.9,4.3-13.7c0.9-4.9,1.6-9.9,3.4-14.7c0.3-0.8,0.7-1.1,1.5-1
			c2.7,0.1,5.5,0,8.2,0c0.7,0,0.9,0.1,0.8,0.9c-2.3,10-4.2,20.1-7,30c-2,7.1-5.3,9.5-12.6,9.5C76.8,271.9,76.5,271.9,75.9,271.9z"/>
		<path class="st1" d="M92.2,228.8c-1.5,0-2.9,0-4.4,0c-0.7,0-0.8-0.2-0.7-0.9c0.6-2.2,1-4.5,1.5-6.8c0.1-0.6,0.5-0.8,1.1-0.8
			c2.8,0,5.7,0,8.5,0c0.8,0,1,0.3,0.8,1c-0.5,2.2-1,4.4-1.4,6.6c-0.1,0.6-0.5,0.8-1.1,0.8C95.1,228.8,93.7,228.8,92.2,228.8z"/>
	</g>
	<g>
		<path class="st2" d="M719.2,229.1c-5.4-3.8-7.3-7.7-6.1-12.3c1.4-5.5,5.4-8.8,11.3-9.4c13.6-1.3,22.8,6.4,24.6,19.8
			c3.5,25.4-12.9,36-30.4,39c-18.7,3.1-36-1.8-52.8-9.6c-11.5-5.4-23-10.9-35-15.3c-19-6.9-37.6-6.1-56.3,1.1
			c-14.7,5.7-28.5,13.4-43.3,18.9c-16.8,6.2-33.8,8.5-51.1,2.2c-18.8-6.9-26.9-27.5-17.9-45.1c4.5-8.8,14.5-13.4,24-10.7
			c4.4,1.2,8.1,3.7,9.2,8.4c1.3,5.5-1.2,9.6-5.7,12.7c-0.8-0.7-0.3-1.3,0-1.9c1.2-3,0.1-5.2-2.5-6.4c-2.8-1.3-5.3-0.4-7.1,2.2
			c-4.3,6.3,0.9,14.6,9.7,15.5c5.2,0.5,9.4-1.6,13.3-4.5c8-5.7,14.6-13,22.1-19.3c10.1-8.5,21-15.7,34.5-17.3
			c17.3-2,31.8,2.8,42.5,17.1c1,1.3,1.5,3.9,3.6,0.8c14-21,42.4-23,62.9-11.1c10.3,5.9,18.7,14.1,27.3,22.1c4.5,4.2,9.1,8.4,14.8,11
			c5.7,2.6,12.8,1.2,16.6-3.2c1.8-2.1,3-4.5,2.3-7.5c-1-4.3-4.3-7-7.5-6.2C718.9,221,718,223.5,719.2,229.1z"/>
		<path class="st3" d="M581.2,108.8c0-3.3-0.1-6.1,0-9c0.1-2.4,1.1-4,3.8-4.1c2.8-0.1,4.5,1.4,4.5,3.9c0.1,10.8,0.2,21.6-0.1,32.5
			c-0.1,3.5-3.4,5-6.2,3.2c-1.6-1.1-2.5-1.2-4.2-0.2c-3.1,1.7-6.4,1.2-9.5-0.3c-6.4-3.2-9.1-12.6-5.9-20.2
			C566.5,107.8,572.9,105.6,581.2,108.8z M581.2,121.5c-0.3-3.2-1.2-6-5-6.3c-3-0.3-5.5,2.6-5.5,6.3c0.1,3.3,1.2,5.9,4.9,6.3
			C578.9,128.1,581.2,125.3,581.2,121.5z"/>
		<path class="st3" d="M643.6,108.3c8-2.6,13.4-1.1,16.8,4.4c3.5,5.7,2.6,15.3-2,19.8c-2.5,2.4-5.5,3.9-9,3.4
			c-3.3-0.5-6.3-2.5-10.1-0.6c-2.4,1.2-4-1.6-4-4.1c-0.1-10.4-0.1-20.8,0-31.2c0-2.7,1.3-4.7,4.3-4.7c3.1,0,4,2.2,4,4.9
			C643.6,102.8,643.6,105.5,643.6,108.3z M654,121.4c0-3.9-2.2-6.7-5.2-6.7c-2.9,0-5.4,3.1-5.2,6.7c0.2,3.3,0.9,6.4,5.2,6.5
			C652,128,654,125.4,654,121.4z"/>
		<path class="st3" d="M483.1,108.9c2.8-1.4,5.6-2.4,8.7-1.8c4.3,0.9,7.4,4.4,7.5,8.9c0.2,5.4,0,10.8,0,16.3c0,2.8-1.5,4.4-4,4.5
			c-2.6,0-4.1-1.6-4.2-4.3c-0.1-3.8,0-7.5,0-11.3c0-2.9-0.4-5.8-4-5.8c-3.8,0-4.5,2.9-4.6,6c-0.1,3.5-0.1,6.9,0,10.4
			c0.1,3-1.2,5.2-4.3,5.1c-2.8-0.1-4-2.2-4-5c0-10.2,0-20.5,0-30.7c0-2.9,1-5.2,4.3-5.1c3.4,0,3.9,2.5,4,5.3
			C482.6,103.6,482,106.2,483.1,108.9z"/>
		<path class="st3" d="M529.9,121.1c0,3.2,0.2,6.3,0,9.5c-0.3,3.6-3,5.7-5.8,4.1c-2.1-1.1-3.3-0.9-5,0.3c-1.2,0.8-2.8,1-4.3,1
			c-4.8-0.2-9-3.4-10.9-8.2c-2.4-6.2-1.1-13.9,3.2-17.6c4-3.4,8.5-4.6,13.2-1.6c1.2,0.7,1.5,0.5,2.5-0.2c3.7-2.6,6.6-1.2,7.1,3.3
			c0,0.3,0,0.6,0,0.9C529.9,115.4,529.9,118.2,529.9,121.1C529.9,121.1,529.9,121.1,529.9,121.1z M515.8,127.8
			c3.9-0.1,6-2.7,5.7-6.6c-0.2-3.3-1.5-5.9-5.3-6c-3.1,0-5.3,2.9-5.1,6.6C511.2,125.2,512.8,127.5,515.8,127.8z"/>
		<path class="st3" d="M692.8,121.1c0,3.2,0.2,6.3,0,9.5c-0.2,3.3-2.4,5.5-5.4,4.1c-2.5-1.1-3.9-0.7-5.9,0.4c-1.9,1.1-4,1-6.1,0.4
			c-6.1-1.6-9.8-7.1-9.8-14.5c0.1-7.3,3.7-12.4,9.9-13.8c1.3-0.3,2.7-0.5,4-0.2c2.9,0.6,5.2,2.4,8.7,0.2c2.6-1.6,4.5,1.5,4.6,4.4
			C692.9,114.8,692.8,118,692.8,121.1C692.8,121.1,692.8,121.1,692.8,121.1z M684.4,121.4c0-3.6-2.1-6.2-5.1-6.2
			c-3.1-0.1-5.4,2.7-5.3,6.5c0.1,3.4,1.4,5.9,5.1,6.1C682.4,128,684.4,125.3,684.4,121.4z"/>
		<path class="st3" d="M613.8,124.2c3.2,4.7,6.8,4,10.4,2.5c2.5-1.1,5.2-3.1,6.8,0.6c1.5,3.4-1.1,5.2-3.7,6.7
			c-5.6,3.2-13.6,2.5-18.2-1.5c-4.2-3.7-5.5-11.3-3-17.1c2.3-5.5,7.7-8.8,13.7-8.3c6.5,0.5,12.2,6.5,12.2,12.9c0,2.9-1,4.5-4.3,4.3
			C623.4,124.1,619,124.2,613.8,124.2z M618.8,118.7c1.2-1.3,4,1.1,4.2-1.6c0.1-2-2.2-2.9-4.3-2.9c-2.2,0-4.4,1.1-4.3,2.9
			C614.5,119.7,617.3,117.6,618.8,118.7z"/>
		<path class="st3" d="M534,122.1c0-3.3-0.2-6.6,0-9.9c0.3-5,2.9-6.4,7.1-3.9c1.5,0.9,2.1,0.1,3.1-0.3c8.4-3.2,14.8,1.1,14.9,10.1
			c0.1,4.4,0,8.7,0,13.1c0,2.8-0.5,5.2-4.1,5.2c-3.4,0-4.3-2.1-4.3-5c0.1-3.8,0.1-7.5,0-11.3c-0.1-2.7-1.1-4.9-4.2-4.8
			c-2.9,0.1-4.2,2-4.3,4.8c-0.1,3.8-0.1,7.5-0.1,11.3c0,2.8-0.5,5.2-4.1,5.1c-3.6-0.1-4-2.5-4.1-5.2
			C533.9,128.1,534,125.1,534,122.1C534,122.1,534,122.1,534,122.1z"/>
		<path class="st3" d="M726.6,136c-3.9-0.1-7-1.1-9.4-3.6c-1.3-1.3-2.1-3-1.1-4.9c1.1-2.1,3.1-2.3,5.1-1.6c1.4,0.4,2.7,1.3,4.1,1.7
			c1.1,0.3,2.6,0.7,3.1-0.8c0.6-1.6-0.8-2-1.9-2.5c-1.8-0.7-3.7-1.2-5.5-2.1c-5.6-2.8-6.2-9.4-1.2-13.1c3.7-2.7,9.9-2.9,13.6-0.3
			c2.1,1.5,3.7,3.3,2.4,6.1c-1.4,3-3.7,2.4-6.1,1.3c-0.5-0.3-1.1-0.5-1.7-0.7c-1.1-0.3-2.6-0.9-3.1,0.6c-0.5,1.5,1.2,1.8,2.2,2.3
			c1.2,0.6,2.5,0.9,3.8,1.5c3.5,1.6,6.4,3.7,5.9,8.1c-0.5,4.6-3.6,6.7-7.7,7.7C728.2,135.8,727.2,135.9,726.6,136z"/>
		<path class="st3" d="M602,115.6c0,5,0,9.9,0,14.9c0,2.7-0.7,4.8-3.9,5c-3.4,0.1-4.5-2-4.5-4.9c0-10.1,0-20.2,0-30.2
			c0-2.9,1.2-5.1,4.4-5c3.1,0.1,4,2.3,4,5C602,105.4,601.9,110.5,602,115.6z"/>
		<path class="st3" d="M696.7,121c0-3.2-0.2-6.3,0.1-9.4c0.3-4.4,3.8-6,7.1-3.1c1.7,1.4,2.1,0.3,3.1-0.3c2.7-1.6,5.5-2.3,7.2,1.2
			c1.6,3.4-0.7,5.1-3.6,5.8c-4.6,1-5.9,3.9-5.5,8.2c0.2,2.5,0.1,5.1,0,7.6c0,2.8-1.2,4.8-4.2,4.8c-2.9-0.1-4.2-2.1-4.2-4.8
			C696.6,127.6,696.7,124.3,696.7,121z"/>
	</g>
	<g>
		<path class="st4" d="M279.3,338.3c1.9-0.9,2.8,0.4,3.7,1.7c5,6.8,10,13.5,14.9,20.2c2.3,3.2,2.3,3.2,4.6,0.2
			c5.2-6.9,10.4-13.7,15.6-20.6c0.9-1.2,1.7-2.4,3.6-1.3c-6.1,8-12,16.1-18.2,23.9c-1.6,2-1.5,3.3,0,5.2c6.8,8.5,13.3,17.2,20,25.8
			c-2,1-2.9-0.2-3.9-1.5c-5.8-7.5-11.6-15-17.3-22.5c-0.6-0.8-1.3-1.6-2.2-2.7c-6.1,8-12.3,15.8-18.1,23.7c-1.9,2.6-3.9,3.4-7,3.4
			c-15.4-0.2-30.7-0.1-46.1,0c-2.5,0-3-0.6-3-3c0.1-23.9,0.1-47.7,0-71.6c0-2.3,0.5-2.9,2.8-2.9c15.2,0.1,30.5,0,45.7,0.1
			c0.9,0,2.6-0.8,2.6,0.9c0.1,2-1.8,1.1-2.7,1.1c-14.5,0.1-29,0.1-43.5,0c-2.3,0-2.9,0.6-2.9,2.9c0.1,9.5,0.1,19,0,28.4
			c0,2.3,0.7,2.7,2.8,2.7c13.4-0.1,26.8,0,40.2,0c0.8,0,1.5,0,2.3,0c0.6,0,1,0.3,1.1,1c0.1,0.8-0.4,1.2-1.2,1.2c-0.8,0-1.5,0-2.3,0
			c-13.2,0-26.4,0.1-39.5,0c-2.4,0-3.4,0.4-3.3,3.1c0.2,10.5,0.1,20.9,0,31.4c0,2.2,0.6,2.7,2.7,2.7c15.4-0.1,30.7-0.1,46.1,0.1
			c1.4,0,1.9-0.6,2.6-1.5c6-7.9,12-15.8,18.1-23.6c1.1-1.4,1.1-2.2,0-3.6c-5.6-7.3-11.1-14.8-16.7-22.2
			C280.4,340.2,279.4,339.5,279.3,338.3z"/>
		<path class="st4" d="M330.8,351.9c0.7,0.1,0.7-0.5,0.8-0.8c4.8-10,12.8-14.9,23.1-14.2c9.6,0.7,17.1,6.9,20.2,17.3
			c2.9,9.6,2.5,19.2-2,28.3c-4.4,8.8-11.6,13.1-21.4,12.6c-9.6-0.4-16.5-5-20-14.1c-0.1-0.3-0.3-0.5-0.5-0.9c-1,0.5-0.6,1.3-0.6,2
			c0,9.4,0,18.7,0,28.1c0,1,0.9,2.8-1.1,2.7c-1.9-0.1-1-1.9-1-2.9c-0.1-22.9,0-45.8,0-68.6c0-0.5,0-1.1,0-1.6c0-0.8,0-1.6,1.1-1.5
			c1.1,0,1.1,0.9,1.1,1.6c0,3.3,0,6.5,0,9.8C330.5,350.3,330.1,351.2,330.8,351.9z M330.5,366.8c0.1,4.3,0.6,8.5,2.1,12.5
			c3.3,8.4,10.3,13.5,19.5,13.7c9,0.2,15.5-4.1,19.1-12.1c4.4-9.8,4.5-19.9,0.1-29.7c-6.6-14.8-26.4-16.5-35.7-3.2
			C331.8,353.5,330.5,360,330.5,366.8z"/>
		<path class="st4" d="M436.8,366.4c-7,0-13.9,0.1-20.9,0c-2,0-2.8,0.5-2.5,2.6c0.5,2.9,0.7,5.8,1.5,8.7
			c3.1,10.2,10.1,15.5,20.7,15.4c11-0.1,18.2-5.6,20.9-16c0.3-1,0.1-2.9,1.9-2.4c1.4,0.4,0.5,1.9,0.2,2.8
			c-2.8,12.3-13.9,19.3-27.4,17.4c-8.9-1.2-14.8-6-17.7-14.3c-3.4-9.7-3.7-19.4,0.5-28.9c4.5-10.2,13.6-15.7,23.8-14.7
			c10.7,1,18.3,7.9,20.9,19c0.7,2.8,0.9,5.6,1,8.4c0.1,1.7-0.5,2.2-2.2,2.2C450.7,366.3,443.8,366.4,436.8,366.4z M435.4,364.2
			c5.3,0,10.7,0,16,0c7,0,7,0,5.6-6.8c-2.8-14.3-15.8-22.1-28.9-17c-8.9,3.5-12.7,11-14.4,19.9c-0.6,3-0.1,4.2,3.3,4
			C423.2,364,429.3,364.2,435.4,364.2z"/>
		<path class="st4" d="M538.1,395.1c-3.2,0-6.3-0.4-9.3-1.2c-8.2-2.3-12.9-8.6-12.8-17.2c0-0.8-0.3-1.9,1.1-1.9
			c1.1,0,1.1,0.8,1.2,1.6c0.1,0.9,0.1,1.7,0.2,2.6c0.8,5.6,3.6,9.8,8.9,12c7,2.8,14,2.9,21,0.1c4.9-2,8-5.5,8.1-11.2
			c0-5.6-3.4-8.7-8.1-10.7c-4.7-2-9.9-2.6-14.8-4.1c-2.4-0.7-4.8-1.4-7.2-2.2c-4.4-1.5-7.4-4.3-8-9.3c-0.7-5.6,0.8-10.1,5.6-13.4
			c7-4.8,20.1-4.6,27,0.3c4.3,3,5.7,7.5,6.1,12.4c0.1,0.8,0.1,1.6-1,1.6c-0.9,0-1.1-0.6-1.1-1.3c-0.1-0.8-0.2-1.5-0.3-2.3
			c-0.3-2-0.9-3.8-2-5.5c-5.5-8.3-24-9-30-1.1c-4.5,5.8-2.4,13.9,4.6,16.3c6.3,2.2,12.8,3.6,19.1,5.5c1.8,0.5,3.5,1.2,5.2,2
			c10,4.7,8.6,18.2,1.3,23C549,393.6,544.1,395,538.1,395.1z"/>
		<path class="st4" d="M488.7,395.1c-3.6,0-6.6-0.3-9.6-1.2c-8.6-2.4-13.1-8.3-13.2-17.2c0-0.8-0.4-1.9,1-2c1.3-0.1,1.2,1,1.2,1.9
			c0.4,10.6,7.3,15.1,15.9,16.1c5.4,0.6,10.7,0.2,15.6-2.4c4.3-2.2,6.7-5.7,6.6-10.7c-0.1-5-2.9-8-7.1-10c-5-2.3-10.5-2.9-15.7-4.5
			c-2.5-0.8-5-1.5-7.5-2.3c-4.3-1.5-7.2-4.4-7.8-9.1c-0.7-5.2,0.7-9.7,5-13c7.1-5.3,21-5.2,28.1,0.2c3.9,3,5.4,7.2,5.5,12
			c0,0.8,0.2,1.6-1,1.6c-1.2,0.1-1-0.8-1.2-1.5c-1.4-9.1-5.3-12.8-14.5-13.8c-4.9-0.5-9.8-0.3-14.3,2.3c-4.2,2.4-6.1,6.1-5.7,10.9
			c0.4,4.6,3.2,7.3,7.3,8.6c6.5,2,13,3.6,19.5,5.5c5.1,1.5,9.6,3.9,11,9.6c2.1,8.8-3.1,16.2-12.8,18.2
			C492.9,394.8,490.6,395.2,488.7,395.1z"/>
		<path class="st4" d="M388.5,350.5c3.3-8.2,9.4-12.4,17.9-13.5c1-0.1,2-0.1,2.9-0.2c0.7,0,1.3,0.2,1.3,1.1c0,0.9-0.6,1.1-1.3,1
			c-0.3,0-0.7,0-1,0c-10.8,0.9-17.8,7.5-19.3,18.3c-1.1,7.8-0.3,15.7-0.5,23.5c-0.1,3.7,0,7.4,0,11.1c0,0.7,0.5,1.9-0.9,2
			c-1.4,0.1-1.1-1-1.1-1.8c0-17.3,0-34.6,0-51.9c0-0.8-0.4-1.9,1-1.9c1.4,0,1,1.1,1,1.9C388.5,343.5,388.5,347,388.5,350.5z"/>
		<g>
			<path class="st5" d="M445.6,438.6c0-2.5-0.8-3-3.1-3c-37.4,0.1-74.7,0.1-112.1,0c-2.6,0-3.2,0.7-3.2,3.3
				c0.1,35.8,0.1,71.7,0,107.5c0,2.7,0.8,3.2,3.3,3.2c16.6-0.1,33.2-0.1,49.8-0.1c0.1,0,0.2,0,0.2,0.1c1.9,0.7,3.7,0.6,5-0.1
				c0.3,0,0.5,0,0.8,0c18.6,0,37.2,0,55.9,0c2.3,0,3.4-0.3,3.4-3.1C445.5,510.5,445.5,474.6,445.6,438.6z"/>
			<g>
				<path class="st4" d="M406.6,520.4c-7.7-0.2-14.3-2.7-18.9-9.2c-1.1-1.5-1.5-2.6,0.7-3.5c0.8-0.3,1.6-0.8,2.2-1.3
					c3-2.5,5.3-2.7,8.1,0.8c2.9,3.6,7.4,3.8,11.7,2.3c2-0.7,3.3-2.2,3.5-4.3c0.2-2.2-1-3.8-2.7-4.9c-3.4-2.2-7.3-3.4-10.9-5.2
					c-5.9-3-10.2-7-10.6-14.1c-0.4-7.7,3.3-13.2,10.7-15.5c7.6-2.3,15.7,0.1,20,5.9c1.1,1.4,1.8,2.7-0.6,3.7c-1,0.4-1.9,1.1-2.7,1.8
					c-2.3,1.8-4.3,3-6.4-0.5c-0.7-1.2-2.3-1.7-3.7-1.8c-2.6-0.2-4.9,0.4-5.9,3.1c-1,2.6-0.1,4.8,2.3,6.1c3.4,1.8,6.9,3.3,10.3,4.9
					c6.2,3,10.9,7.2,11.4,14.6c0.6,9.7-6,16.3-16.6,16.9C407.9,520.4,407.3,520.4,406.6,520.4z"/>
				<path class="st4" d="M380.6,486.3c0,5.9,0.1,11.8,0,17.6c-0.1,8.2-4.1,13.9-10.8,15.7c-9.1,2.4-17.7-0.7-21.7-7.6
					c-0.9-1.5-0.7-2.3,0.8-3c1.1-0.5,2.1-1.2,3-1.9c2.5-1.7,4.6-3.4,6.7,0.8c1.4,2.7,4.6,2.7,7.3,1.9c3-0.9,3.3-3.6,3.3-6.1
					c0.1-11.6,0.1-23.3,0-34.9c0-2.7,0.6-3.5,3.4-3.5c8,0.2,8,0,8,7.9C380.6,477.6,380.6,482,380.6,486.3
					C380.6,486.3,380.6,486.3,380.6,486.3z"/>
			</g>
		</g>
		<path class="st6" d="M330.5,366.8c-0.1-6.8,1.2-13.2,5.2-18.9c9.3-13.3,29-11.5,35.7,3.2c4.4,9.8,4.3,19.9-0.1,29.7
			c-3.6,8.1-10.1,12.4-19.1,12.1c-9.2-0.2-16.3-5.3-19.5-13.7C331.1,375.2,330.6,371,330.5,366.8z"/>
		<path class="st6" d="M435.4,364.2c-6.1,0-12.2-0.2-18.3,0.1c-3.5,0.2-3.9-1-3.3-4c1.7-8.9,5.5-16.4,14.4-19.9
			c13.1-5.1,26,2.7,28.9,17c1.3,6.8,1.3,6.8-5.6,6.8C446.1,364.2,440.7,364.2,435.4,364.2z"/>
	</g>
</g>
<g>
	<path class="st7" d="M813.7,346.8c35.4,0,70.8,0,106.3,0c11.6,0,18.1,6.5,18.1,18.1c0,28.2,0,56.4,0,84.7
		c0,56.2-41.4,104.8-97.1,112c-26.9,3.5-54.4,4.3-80.2-6.9c-40.7-17.6-64.4-48.4-70.5-92.5c-1.4-10-0.7-20.1-0.7-30.1
		c-0.1-22.4,0-44.7,0-67.1c0-11.7,6.4-18.2,18-18.2C742.8,346.8,778.2,346.8,813.7,346.8z M771.4,424.8c0-9.2-0.1-16.7,0.1-24.2
		c0.1-2.8-0.8-3.5-3.5-3.5c-12,0.1-24,0.2-36,0c-3.4-0.1-3.8,1.2-3.8,4.1c0.1,13.8,0.1,27.6,0,41.4c0,6.6,0.7,13.2,2.3,19.6
		c10.3,42.6,50.2,69.7,93.7,63.9c40.8-5.4,70.1-35.8,74.1-76.5c0.3-2.8-0.2-3.9-3.4-3.9c-12.2,0.2-24.3,0.2-36.5,0
		c-2.5,0-3.2,0.8-3.7,3.1c-5.1,23.3-20.3,35.2-44.1,34.8c-18.1-0.3-34.8-14.4-38.2-32.2C770.5,442,771.9,432.6,771.4,424.8z
		 M908.2,392.1c1.1-2.1-1-2.2-2.3-2.6c-12.2-3.1-24.3-6.1-36.5-9.2c-1.8-0.4-2.8-0.1-3.3,1.8c-3,12.3-6.1,24.7-9.1,37
		c-0.4,1.7-0.2,2.8,1.8,3.3c12.3,3,24.7,6,37,9.1c1.9,0.5,2.6,0.1,3.1-1.8C901.8,417.3,904.9,404.8,908.2,392.1z"/>
</g>
<rect x="1064" y="93.7" class="st8" width="322" height="422.1"/>
<text transform="matrix(1 0 0 1 1106.9551 173.2259)" class="st9"><tspan x="0" y="0" class="st10 st11 st12">Work</tspan><tspan x="75.4" y="56.4" class="st10 st11 st13">with </tspan><tspan x="-27.8" y="146.4" class="st10 st14 st15">Variety </tspan><tspan x="98.3" y="202.8" class="st10 st11 st13">of </tspan><tspan x="-5.3" y="259.2" class="st10 st11 st13">Libraries and </tspan><tspan x="-4.3" y="315.6" class="st10 st11 st13">Frameworks</tspan></text>
<g>
	<path class="st16" d="M1112.1,96.9h4l15.4,72.5h4.1l16.8-71.4h4.7l16.8,71.4h4.1l15.4-72.5h3.8l-16,76.3h-10.5l-16-69.8l-16,69.8
		h-10.4L1112.1,96.9z"/>
	<path class="st16" d="M1214,171.6c-3.2-1.7-5.3-4.5-6.5-8.4c-1.2-3.9-1.8-9.4-1.8-16.6c0-7.6,0.7-13.4,2-17.5
		c1.3-4.1,3.5-7,6.7-8.8c3.2-1.7,7.7-2.6,13.6-2.6s10.4,0.9,13.6,2.7c3.2,1.8,5.4,4.7,6.6,8.8c1.3,4.1,1.9,9.9,1.9,17.4
		c0,7.2-0.6,12.7-1.7,16.6c-1.2,3.9-3.3,6.6-6.5,8.4c-3.2,1.7-7.8,2.6-13.9,2.6C1221.8,174.2,1217.2,173.4,1214,171.6z
		 M1239.6,168.4c2.5-1.5,4.2-3.9,5.1-7.2c0.9-3.3,1.3-8.2,1.3-14.6c0-6.9-0.5-12.1-1.4-15.6c-0.9-3.5-2.7-6-5.2-7.5
		c-2.5-1.5-6.3-2.2-11.3-2.2c-5,0-8.8,0.7-11.4,2.2c-2.6,1.5-4.4,4-5.3,7.5c-1,3.6-1.5,8.8-1.5,15.6c0,6.3,0.5,11.2,1.4,14.5
		c0.9,3.3,2.7,5.8,5.2,7.2c2.6,1.5,6.4,2.2,11.6,2.2C1233.2,170.6,1237,169.9,1239.6,168.4z"/>
	<path class="st16" d="M1265.1,118.7h3.7v8.5c6.3-4.7,13.6-7.9,21.7-9.6v3.9c-3.1,0.6-6.5,1.7-10.3,3.3c-3.8,1.6-6.5,3-8.1,4.3
		l-3.2,1.9v42.3h-3.8V118.7z"/>
	<path class="st16" d="M1301,93.7h3.8v48.1h10.5l18.9-23h4.5l-20.2,24.5l20.9,30h-4.5l-19.7-28l-10.4-0.1v28.1h-3.8V93.7z"/>
	<path class="st16" d="M1184.5,206.1h1.7l6,22h0.5l7-21.5h1.8l6.9,21.5h0.6l5.9-22h1.7l-6.3,23.5h-3.2l-6.5-21.1l-6.5,21.1h-3.2
		L1184.5,206.1z"/>
	<path class="st16" d="M1221.9,196.7h1.6v2.6h-1.6V196.7z M1222,206.1h1.6v23.5h-1.6V206.1z"/>
	<path class="st16" d="M1233.8,229.4c-0.8-0.5-1.4-1.3-1.8-2.5c-0.4-1.2-0.5-2.9-0.5-5.1v-14.1h-3.7v-1.5h3.7v-7.6h1.6v7.6h8.6v1.5
		h-8.6v12.3c0,2.4,0.1,4.1,0.3,5.3c0.2,1.1,0.6,2,1.2,2.6c0.6,0.6,1.6,0.8,2.9,0.8l4.6-0.4l0.2,1.5c-2.6,0.3-4.2,0.4-5,0.4
		C1235.8,230.1,1234.7,229.9,1233.8,229.4z"/>
	<path class="st16" d="M1246.2,195.3h1.6v12.3c2.9-1.3,5.6-1.9,8.3-1.9c2.1,0,3.7,0.3,4.8,1c1.1,0.7,1.8,1.9,2.3,3.5
		s0.6,4.1,0.6,7.2v12.2h-1.7v-12.1c0-2.9-0.2-5-0.5-6.5c-0.3-1.4-0.9-2.4-1.8-3c-0.9-0.6-2.2-0.8-3.9-0.8c-1.3,0-2.5,0.1-3.6,0.4
		c-1.1,0.2-2.2,0.6-3.4,1.1l-1.1,0.4v20.6h-1.6V195.3z"/>
	<path class="st16" d="M1081.1,258.5h17.1l8.3,47h3.4l8.3-47h17.1l-12.9,61.2h-28.3L1081.1,258.5z"/>
	<path class="st16" d="M1140.1,316.9c-2.5-2.6-3.7-6.5-3.7-11.8c0-5,1.3-8.6,4-10.6c2.7-2,7.1-3.2,13.1-3.5l6.7-0.4v-2.1
		c0-1-0.3-1.7-0.8-2c-0.5-0.3-1.6-0.4-3.2-0.4l-8.2,0.2c-5.2,0.2-8,0.3-8.4,0.2l-0.4-10.6c6.6-2,12.9-3,19.1-3
		c6.2,0,10.7,1.2,13.5,3.7s4.1,6.4,4.1,12v16c0.1,0.7,0.1,1.4,0.2,2.2c0.1,0.8,0.2,1.4,0.4,1.6c0.2,0.3,0.5,0.5,1,0.6l-0.5,11.7
		c-3.8,0-6.6-0.2-8.4-0.5c-1.9-0.3-3.9-1.1-6.1-2.3c-3.8,1.9-7.6,2.8-11.4,2.8C1146.3,320.8,1142.6,319.5,1140.1,316.9z
		 M1159.5,307.7l0.9-0.1v-6.3l-4.8,0.4c-1,0.1-1.9,0.5-2.5,1.1c-0.6,0.6-0.9,1.5-0.9,2.5c0,1.9,0.9,2.8,2.8,2.8
		C1156,308.2,1157.5,308,1159.5,307.7z"/>
	<path class="st16" d="M1186.6,274.1h15.7v3.9c5.3-2.7,9.6-4.4,13.1-5.1v15.9c-1.9,0.4-4.2,0.8-7,1.2c-0.5,0.1-2,0.3-4.5,0.7
		l-1.5,0.3v28.6h-15.8V274.1z"/>
	<path class="st16" d="M1222,274.1h15.8v45.5H1222V274.1z M1222.1,256h15.8v15.2h-15.8V256z"/>
	<path class="st16" d="M1250.1,315.4c-3.3-3.6-5-9.4-5-17.6c0-8.3,1.7-14.5,5.2-18.7c3.5-4.2,8.8-6.2,16-6.2
		c6.6,0,11.7,1.7,15.2,5.1c3.5,3.4,5.3,8.4,5.3,14.9l-1.3,10.6H1261c0.2,1.1,0.5,1.9,1,2.4c0.5,0.5,1.2,0.8,2.1,0.9s2.5,0.1,4.6,0.1
		c2.2,0,4.8-0.1,7.8-0.2c3-0.1,5.1-0.2,6.1-0.4l2.5-0.3l0.2,11.4c-6.7,2.2-13.2,3.3-19.5,3.3C1258.7,320.8,1253.4,319,1250.1,315.4z
		 M1271.4,291.8c0-2.4-0.4-4-1.1-4.8c-0.7-0.8-2.1-1.2-4.2-1.2c-2.1,0-3.4,0.4-4.1,1.2c-0.7,0.8-1,2.4-1.1,4.8H1271.4z"/>
	<path class="st16" d="M1301.8,319c-2.1-1.2-3.6-3-4.5-5.6s-1.4-6-1.4-10.4v-15.6h-4.6v-13.4h4.6v-11.8h15.8v11.8h9v13.4h-9v16.6
		c0,1.8,0.7,2.7,2,2.5l6.2,0.1l0.5,12.5c-2.6,0.7-4.5,1.1-5.8,1.3c-1.2,0.2-2.6,0.3-4,0.3C1306.9,320.8,1303.9,320.2,1301.8,319z"/>
	<path class="st16" d="M1344.1,319.6h-9.8l-10-45.5h15.5l6.2,32.1h1.5l6.1-32.1h15.5l-14,63.9h-15.4L1344.1,319.6z"/>
	<path class="st16" d="M1211.7,375.3c-1.4-0.7-2.3-1.9-2.8-3.6c-0.5-1.7-0.8-4.1-0.8-7.2c0-3.3,0.3-5.8,0.8-7.5
		c0.6-1.8,1.5-3,2.9-3.8c1.4-0.8,3.3-1.1,5.9-1.1s4.5,0.4,5.9,1.2c1.4,0.8,2.3,2,2.9,3.8c0.5,1.8,0.8,4.3,0.8,7.5
		c0,3.1-0.3,5.5-0.8,7.1c-0.5,1.7-1.4,2.9-2.8,3.6s-3.4,1.1-6,1.1C1215,376.4,1213,376.1,1211.7,375.3z M1222.7,373.9
		c1.1-0.6,1.8-1.7,2.2-3.1s0.6-3.5,0.6-6.3c0-3-0.2-5.2-0.6-6.7c-0.4-1.5-1.2-2.6-2.2-3.2c-1.1-0.6-2.7-0.9-4.9-0.9
		s-3.8,0.3-4.9,0.9c-1.1,0.6-1.9,1.7-2.3,3.2c-0.4,1.5-0.6,3.8-0.6,6.7c0,2.7,0.2,4.8,0.6,6.3c0.4,1.4,1.1,2.5,2.3,3.1
		c1.1,0.6,2.8,1,5,1C1219.9,374.9,1221.6,374.6,1222.7,373.9z"/>
	<path class="st16" d="M1234.6,354h-3.2v-1.5h3.2v-2.8c0-2.2,0.2-3.9,0.6-5.1c0.4-1.2,1-2.1,1.9-2.6c0.9-0.5,2-0.8,3.5-0.8l4.4,0.3
		l0,1.3c-2.4,0-3.8-0.1-4.2-0.1c-0.4,0-0.6,0-0.7,0c-1.5,0-2.5,0.6-3,1.7c-0.5,1.1-0.8,2.9-0.8,5.3v2.8h7.6v1.5h-7.6v22h-1.6V354z"
		/>
	<path class="st16" d="M1123.8,430.8v1.6h-17.7v-32.9h1.7v31.3H1123.8z"/>
	<path class="st16" d="M1128.2,399.5h1.6v2.6h-1.6V399.5z M1128.3,408.9h1.6v23.5h-1.6V408.9z"/>
	<path class="st16" d="M1138.2,432.5l-1-0.1v-34.3h1.6v12.3c2.6-1.3,5.4-1.9,8.2-1.9c2,0,3.6,0.4,4.7,1.2s1.9,2.1,2.4,3.8
		c0.5,1.7,0.7,4.1,0.7,7c0,3.3-0.3,5.8-1,7.6c-0.6,1.7-1.8,2.9-3.4,3.6c-1.6,0.7-4,1.1-7.1,1.1
		C1141.5,432.8,1139.7,432.7,1138.2,432.5z M1149.9,430.2c1.3-0.7,2.1-1.9,2.6-3.4c0.5-1.6,0.7-3.7,0.7-6.5c0-2.7-0.2-4.7-0.6-6.2
		s-1-2.5-1.9-3.1c-0.9-0.6-2.2-1-3.9-1c-2.3,0-4.9,0.6-7.9,1.9v19.2c0.9,0.1,1.5,0.1,1.8,0.1c2,0.1,3.2,0.2,3.7,0.2
		C1146.8,431.3,1148.6,431,1149.9,430.2z"/>
	<path class="st16" d="M1161.4,408.9h1.6v3.7c2.7-2,5.8-3.4,9.4-4.1v1.7c-1.3,0.3-2.8,0.7-4.4,1.4c-1.6,0.7-2.8,1.3-3.5,1.8
		l-1.4,0.8v18.2h-1.6V408.9z"/>
	<path class="st16" d="M1177,431.1c-1.1-1.2-1.6-2.8-1.6-4.9c0-2.1,0.5-3.7,1.6-4.8s2.7-1.8,5-2.1l8.9-0.9v-2.4
		c0-1.9-0.4-3.4-1.2-4.3c-0.8-1-1.9-1.4-3.3-1.4c-1.4,0-2.6,0-3.6,0.1c-1.1,0.1-3,0.3-5.9,0.7l-0.1-1.6c3.3-0.6,6.2-0.8,8.9-0.8
		c2.4,0,4.2,0.6,5.3,1.8c1.1,1.2,1.7,3.1,1.7,5.6v13.5c0,0.5,0.4,0.9,1,1.2c0.6,0.4,1.5,0.6,2.5,0.7l-0.1,1.5c-1,0-2-0.2-2.9-0.6
		c-0.9-0.4-1.5-0.9-2-1.5c-3.1,1.4-6.3,2.1-9.5,2.1C1179.6,432.8,1178,432.3,1177,431.1z M1189.5,429.9l1.3-0.5v-9.5l-8.7,0.8
		c-1.7,0.1-3,0.6-3.7,1.4s-1.2,2.1-1.2,3.7c0,3.6,1.5,5.5,4.4,5.5C1184.3,431.3,1187,430.8,1189.5,429.9z"/>
	<path class="st16" d="M1200.1,408.9h1.6v3.7c2.7-2,5.8-3.4,9.4-4.1v1.7c-1.3,0.3-2.8,0.7-4.4,1.4c-1.6,0.7-2.8,1.3-3.5,1.8
		l-1.4,0.8v18.2h-1.6V408.9z"/>
	<path class="st16" d="M1215.5,399.5h1.6v2.6h-1.6V399.5z M1215.5,408.9h1.6v23.5h-1.6V408.9z"/>
	<path class="st16" d="M1225.4,430.1c-1.4-1.9-2.1-4.8-2.1-8.7c0-4.4,0.8-7.6,2.3-9.7c1.5-2.1,3.9-3.1,7.2-3.1c3,0,5.2,0.9,6.7,2.7
		c1.4,1.8,2.2,4.7,2.2,8.6v1.6h-16.6c0,2.5,0.2,4.4,0.7,5.9c0.5,1.4,1.3,2.5,2.5,3.1c1.2,0.7,2.9,1,5,1c0.8,0,1.8,0,2.9-0.1
		c1.1-0.1,2.2-0.1,3.2-0.2l1.4-0.1l0.1,1.6c-3.8,0.3-6.5,0.4-8.1,0.4C1229.2,432.8,1226.8,431.9,1225.4,430.1z M1239.8,419.8
		c0-3.5-0.6-6-1.7-7.5c-1.1-1.5-2.9-2.3-5.4-2.3c-2.6,0-4.6,0.8-5.9,2.4c-1.3,1.6-2,4.1-2,7.4H1239.8z"/>
	<path class="st16" d="M1248.1,432.3l-1.4-0.2l0.2-1.6c3.7,0.6,6.4,0.8,8,0.8c2.3,0,4.1-0.4,5.2-1.2c1.1-0.8,1.6-2.2,1.6-4
		c0-1.3-0.3-2.3-0.8-2.9s-1.2-1.1-2-1.4c-0.8-0.3-1.9-0.5-3.4-0.7c-0.6-0.1-1-0.1-1.3-0.2c-2.1-0.3-3.7-0.7-4.8-1.2
		c-1.1-0.5-1.9-1-2.3-1.8c-0.5-0.7-0.7-1.7-0.7-2.9c0-2.4,0.7-4.1,2.2-5.1c1.5-0.9,3.6-1.4,6.4-1.4c2.5,0,4.6,0.1,6.4,0.4l1.2,0.2
		l-0.1,1.5c-1.5-0.3-3-0.4-4.3-0.6c-1.4-0.1-2.5-0.2-3.3-0.2c-2.4,0-4.1,0.4-5.1,1.2c-1,0.8-1.6,2-1.6,3.5c0,1.2,0.3,2,0.8,2.6
		c0.5,0.6,1.2,1,2,1.2c0.8,0.2,2.2,0.5,4.3,0.9c2.2,0.4,3.8,0.8,4.9,1.2s1.9,1,2.4,1.8s0.8,2,0.8,3.5c0,2.4-0.7,4.2-2.2,5.3
		s-3.7,1.6-6.7,1.6C1253,432.8,1250.8,432.7,1248.1,432.3z"/>
	<path class="st16" d="M1279.8,431.1c-1.1-1.2-1.6-2.8-1.6-4.9c0-2.1,0.5-3.7,1.6-4.8s2.7-1.8,5-2.1l8.9-0.9v-2.4
		c0-1.9-0.4-3.4-1.2-4.3c-0.8-1-1.9-1.4-3.3-1.4c-1.4,0-2.6,0-3.6,0.1c-1.1,0.1-3,0.3-5.9,0.7l-0.1-1.6c3.3-0.6,6.2-0.8,8.9-0.8
		c2.4,0,4.2,0.6,5.3,1.8c1.1,1.2,1.7,3.1,1.7,5.6v13.5c0,0.5,0.4,0.9,1,1.2c0.6,0.4,1.5,0.6,2.5,0.7l-0.1,1.5c-1,0-2-0.2-2.9-0.6
		c-0.9-0.4-1.5-0.9-2-1.5c-3.1,1.4-6.3,2.1-9.5,2.1C1282.5,432.8,1280.9,432.3,1279.8,431.1z M1292.4,429.9l1.3-0.5v-9.5l-8.7,0.8
		c-1.7,0.1-3,0.6-3.7,1.4s-1.2,2.1-1.2,3.7c0,3.6,1.5,5.5,4.4,5.5C1287.2,431.3,1289.8,430.8,1292.4,429.9z"/>
	<path class="st16" d="M1302.9,408.9h1.6v1.9c1.6-0.8,3.1-1.4,4.4-1.8c1.3-0.3,2.7-0.5,4.1-0.5c2,0,3.6,0.3,4.6,1s1.8,1.9,2.2,3.5
		c0.4,1.7,0.6,4.1,0.6,7.2v12.2h-1.6v-12.2c0-2.7-0.1-4.8-0.4-6.2c-0.3-1.4-0.8-2.5-1.6-3.1s-2-0.9-3.5-0.9c-1.4,0-2.8,0.2-4.3,0.6
		c-1.5,0.4-2.6,0.8-3.3,1.2l-1.1,0.6v20.1h-1.6V408.9z"/>
	<path class="st16" d="M1328.5,430c-1.2-1.9-1.8-4.8-1.8-8.9c0-3,0.3-5.5,1-7.3s1.8-3.2,3.3-4c1.5-0.9,3.5-1.3,6.1-1.3
		c0.9,0,1.9,0.1,3,0.2c1.1,0.1,2,0.3,2.8,0.4v-11h1.6v34.3h-1.6v-2c-2.5,1.6-5.2,2.4-8.1,2.4C1331.8,432.8,1329.7,431.9,1328.5,430z
		 M1338.6,430.7c1.4-0.4,2.4-0.8,3-1.2l1.1-0.6v-18.3c-2.3-0.4-4.3-0.7-6.1-0.7c-2.1,0-3.8,0.4-5,1.2c-1.2,0.8-2.1,1.9-2.6,3.5
		c-0.5,1.6-0.8,3.6-0.8,6.2c0,3.5,0.5,6.2,1.4,7.9c0.9,1.8,2.6,2.7,4.9,2.7C1336,431.3,1337.3,431.1,1338.6,430.7z"/>
	<path class="st16" d="M1109.7,457.5v14.9h14.7v1.6h-14.7v14.9h-1.7v-32.9h18.8v1.6H1109.7z"/>
	<path class="st16" d="M1130.8,465.3h1.6v3.7c2.7-2,5.8-3.4,9.4-4.1v1.7c-1.3,0.3-2.8,0.7-4.4,1.4c-1.6,0.7-2.8,1.3-3.5,1.8
		l-1.4,0.8v18.2h-1.6V465.3z"/>
	<path class="st16" d="M1146.3,487.5c-1.1-1.2-1.6-2.8-1.6-4.9c0-2.1,0.5-3.7,1.6-4.8s2.7-1.8,5-2.1l8.9-0.9v-2.4
		c0-1.9-0.4-3.4-1.2-4.3c-0.8-1-1.9-1.4-3.3-1.4c-1.4,0-2.6,0-3.6,0.1c-1.1,0.1-3,0.3-5.9,0.7l-0.1-1.6c3.3-0.6,6.2-0.8,8.9-0.8
		c2.4,0,4.2,0.6,5.3,1.8c1.1,1.2,1.7,3.1,1.7,5.6v13.5c0,0.5,0.4,0.9,1,1.2c0.6,0.4,1.5,0.6,2.5,0.7l-0.1,1.5c-1,0-2-0.2-2.9-0.6
		c-0.9-0.4-1.5-0.9-2-1.5c-3.1,1.4-6.3,2.1-9.5,2.1C1149,489.2,1147.4,488.7,1146.3,487.5z M1158.9,486.3l1.3-0.5v-9.5l-8.7,0.8
		c-1.7,0.1-3,0.6-3.7,1.4s-1.2,2.1-1.2,3.7c0,3.6,1.5,5.5,4.4,5.5C1153.7,487.7,1156.3,487.2,1158.9,486.3z"/>
	<path class="st16" d="M1169.4,465.3h1.6v1.9c2.5-1.5,5.2-2.3,7.9-2.3c3,0,5,0.8,6.1,2.5c0.9-0.6,2.2-1.2,4-1.7
		c1.8-0.5,3.6-0.8,5.4-0.8c1.9,0,3.3,0.4,4.3,1.1c1,0.8,1.7,2,2.1,3.6c0.4,1.7,0.6,4,0.6,7v12.2h-1.6v-12.2c0-2.8-0.1-4.9-0.4-6.3
		c-0.3-1.4-0.8-2.4-1.6-3c-0.8-0.6-2-0.9-3.6-0.9c-1.5,0-3,0.2-4.4,0.6c-1.4,0.4-2.5,0.8-3.1,1.2l-1,0.6c0.6,0.1,0.9,2.7,0.9,7.8
		v12.3h-1.6v-12.2c0-2.7-0.1-4.8-0.4-6.2c-0.3-1.4-0.8-2.5-1.6-3.1s-1.9-0.9-3.5-0.9c-1.4,0-2.8,0.2-4.2,0.5
		c-1.4,0.4-2.4,0.8-3.1,1.2l-1,0.6v20.1h-1.6V465.3z"/>
	<path class="st16" d="M1209.8,486.5c-1.4-1.9-2.1-4.8-2.1-8.7c0-4.4,0.8-7.6,2.3-9.7c1.5-2.1,3.9-3.1,7.2-3.1c3,0,5.2,0.9,6.7,2.7
		c1.4,1.8,2.2,4.7,2.2,8.6v1.6h-16.6c0,2.5,0.2,4.4,0.7,5.9c0.5,1.4,1.3,2.5,2.5,3.1c1.2,0.7,2.9,1,5,1c0.8,0,1.8,0,2.9-0.1
		c1.1-0.1,2.2-0.1,3.2-0.2l1.4-0.1l0.1,1.6c-3.8,0.3-6.5,0.4-8.1,0.4C1213.7,489.2,1211.2,488.3,1209.8,486.5z M1224.3,476.2
		c0-3.5-0.6-6-1.7-7.5c-1.1-1.5-2.9-2.3-5.4-2.3c-2.6,0-4.6,0.8-5.9,2.4c-1.3,1.6-2,4.1-2,7.4H1224.3z"/>
	<path class="st16" d="M1229.8,465.3h1.7l6,22h0.5l7-21.5h1.8l6.9,21.5h0.6l5.9-22h1.7l-6.3,23.5h-3.2l-6.5-21.1l-6.5,21.1h-3.2
		L1229.8,465.3z"/>
	<path class="st16" d="M1269.6,488.1c-1.4-0.7-2.3-1.9-2.8-3.6c-0.5-1.7-0.8-4.1-0.8-7.2c0-3.3,0.3-5.8,0.8-7.5
		c0.6-1.8,1.5-3,2.9-3.8c1.4-0.8,3.3-1.1,5.9-1.1s4.5,0.4,5.9,1.2c1.4,0.8,2.3,2,2.9,3.8c0.5,1.8,0.8,4.3,0.8,7.5
		c0,3.1-0.3,5.5-0.8,7.1c-0.5,1.7-1.4,2.9-2.8,3.6s-3.4,1.1-6,1.1C1273,489.2,1271,488.9,1269.6,488.1z M1280.6,486.7
		c1.1-0.6,1.8-1.7,2.2-3.1s0.6-3.5,0.6-6.3c0-3-0.2-5.2-0.6-6.7c-0.4-1.5-1.2-2.6-2.2-3.2s-2.7-0.9-4.9-0.9s-3.8,0.3-4.9,0.9
		s-1.9,1.7-2.3,3.2c-0.4,1.5-0.6,3.8-0.6,6.7c0,2.7,0.2,4.8,0.6,6.3c0.4,1.4,1.1,2.5,2.3,3.1c1.1,0.6,2.8,1,5,1
		C1277.9,487.7,1279.5,487.4,1280.6,486.7z"/>
	<path class="st16" d="M1291.6,465.3h1.6v3.7c2.7-2,5.8-3.4,9.4-4.1v1.7c-1.3,0.3-2.8,0.7-4.4,1.4c-1.6,0.7-2.8,1.3-3.5,1.8
		l-1.4,0.8v18.2h-1.6V465.3z"/>
	<path class="st16" d="M1307.1,454.5h1.6v20.7h4.5l8.1-9.9h1.9l-8.7,10.6l9,12.9h-1.9l-8.5-12.1l-4.5,0v12.1h-1.6V454.5z"/>
	<path class="st16" d="M1328.8,488.7l-1.4-0.2l0.2-1.6c3.7,0.6,6.4,0.8,8,0.8c2.3,0,4.1-0.4,5.2-1.2c1.1-0.8,1.6-2.2,1.6-4
		c0-1.3-0.3-2.3-0.8-2.9s-1.2-1.1-2-1.4c-0.8-0.3-1.9-0.5-3.4-0.7c-0.6-0.1-1-0.1-1.3-0.2c-2.1-0.3-3.7-0.7-4.8-1.2
		c-1.1-0.5-1.9-1-2.3-1.8c-0.5-0.7-0.7-1.7-0.7-2.9c0-2.4,0.7-4.1,2.2-5.1c1.5-0.9,3.6-1.4,6.4-1.4c2.5,0,4.6,0.1,6.4,0.4l1.2,0.2
		l-0.1,1.5c-1.5-0.3-3-0.4-4.3-0.6c-1.4-0.1-2.5-0.2-3.3-0.2c-2.4,0-4.1,0.4-5.1,1.2c-1,0.8-1.6,2-1.6,3.5c0,1.2,0.3,2,0.8,2.6
		c0.5,0.6,1.2,1,2,1.2c0.8,0.2,2.2,0.5,4.3,0.9c2.2,0.4,3.8,0.8,4.9,1.2s1.9,1,2.4,1.8s0.8,2,0.8,3.5c0,2.4-0.7,4.2-2.2,5.3
		s-3.7,1.6-6.7,1.6C1333.7,489.2,1331.5,489.1,1328.8,488.7z"/>
</g>
<g>
	<g class="st17">
		<path class="st16" d="M999,71.8c0.4,9.7,0.9,19.4,1.2,29.1l0.5,14.6l0.4,14.6c0.3,9.7,0.6,19.4,0.8,29.1l0.6,29.1
			c0.7,38.8,1,77.6,1,116.5c0,38.8-0.3,77.6-1,116.5c-0.7,38.8-1.8,77.6-3.5,116.5h-2c-1.7-38.8-2.8-77.6-3.5-116.5
			c-0.7-38.8-1-77.6-1-116.5c0-38.8,0.3-77.6,1-116.5l0.6-29.1c0.2-9.7,0.5-19.4,0.8-29.1l0.4-14.6l0.5-14.6
			c0.3-9.7,0.7-19.4,1.2-29.1H999z"/>
		<g>
			<path class="st16" d="M977.3,72.8c0-11.4,9.3-20.7,20.7-20.7s20.7,9.3,20.7,20.7c0,11.4-9.3,20.7-20.7,20.7
				S977.3,84.2,977.3,72.8z"/>
		</g>
		<g>
			<path class="st16" d="M977.3,536.6c0,11.4,9.3,20.7,20.7,20.7s20.7-9.3,20.7-20.7c0-11.4-9.3-20.7-20.7-20.7
				S977.3,525.2,977.3,536.6z"/>
		</g>
	</g>
</g>
</svg>
