<?xml version="1.0" encoding="utf-8"?>
<!-- Generator: Adobe Illustrator 22.0.1, SVG Export Plug-In . SVG Version: 6.00 Build 0)  -->
<svg version="1.1" id="Layer_1" xmlns="http://www.w3.org/2000/svg" xmlns:xlink="http://www.w3.org/1999/xlink" x="0px" y="0px"
	 viewBox="0 0 4451 6106.1" style="enable-background:new 0 0 4451 6106.1;" xml:space="preserve">
<style type="text/css">
	.st0{display:none;}
	.st1{display:inline;opacity:0.6;}
	.st2{fill:none;stroke:#121212;stroke-width:30;stroke-linecap:round;stroke-miterlimit:10;}
	.st3{fill:#121212;}
	.st4{display:inline;}
	.st5{display:inline;fill:#007AFF;}
	.st6{display:inline;fill:#E23237;}
	.st7{display:inline;fill:#121212;}
	.st8{font-family:'Cairo-Light';}
	.st9{font-size:236.2701px;}
	.st10{font-size:276.8966px;}
	.st11{font-family:'Cairo-ExtraLight';}
	.st12{font-size:275.1063px;}
	.st13{fill:#096AAC;}
	.st14{fill:#151D2A;}
	.st15{fill:#39291A;}
	.st16{fill:#EE4826;}
	.st17{fill:#303030;}
	.st18{fill:#F5DE19;}
	.st19{fill:#FCFDFC;}
	.st20{fill:#F7971E;}
	.st21{fill:#131313;}
	.st22{opacity:0.8;}
</style>
<g class="st0">
	<g class="st1">
		<line class="st2" x1="1788.6" y1="2266.9" x2="1788.6" y2="3839.2"/>
		<g>
			<path class="st3" d="M1721,2270.3c0-37.4,30.3-67.7,67.7-67.7s67.7,30.3,67.7,67.7c0,37.4-30.3,67.7-67.7,67.7
				S1721,2307.7,1721,2270.3z"/>
		</g>
		<g>
			<path class="st3" d="M1721,3835.8c0,37.4,30.3,67.7,67.7,67.7s67.7-30.3,67.7-67.7c0-37.4-30.3-67.7-67.7-67.7
				S1721,3798.4,1721,3835.8z"/>
		</g>
	</g>
</g>
<g class="st0">
	<path class="st4" d="M2382.7,2528.4h75.3c21.2,0,36.9,3.9,47.2,11.6c10.3,7.8,15.4,19.7,15.4,35.7c0,11.4-2.5,20.5-7.4,27.3
		c-4.9,6.8-12.2,11.9-21.9,15.5c12.6,3.7,21.9,9.3,27.9,16.7c6.1,7.4,9.1,17.4,9.1,30.1c0,17.3-5.5,29.9-16.5,37.7
		c-11,7.8-27.2,11.8-48.6,11.8h-80.6V2528.4z M2460.5,2613.4c15,0,26.1-3.1,33.3-9.2c7.2-6.2,10.8-15.5,10.8-27.9
		c0-12.7-3.7-21.7-11.1-27.3c-7.4-5.5-19.3-8.3-35.8-8.3h-59.6v72.7H2460.5z M2462.6,2702.5c16.1,0,28.4-3,37-9.1
		c8.6-6.1,13-15.7,13-28.9c0-14.4-4.8-24.5-14.4-30.2c-9.6-5.7-22.2-8.6-37.8-8.6h-62.4v76.7H2462.6z"/>
	<path class="st4" d="M2586.7,2711.3c-7-3.9-11.9-10.6-14.7-19.9s-4.2-22.9-4.2-40.5v-69.8h15.4v69c0,15,0.9,26.3,2.8,34.1
		c1.9,7.8,5.2,13.2,10.2,16.4c4.9,3.2,12.3,4.8,22.2,4.8c17.3,0,33.9-4,49.7-12v-112.3h15.1v133.7h-15.4v-10.2
		c-8.2,4.3-16.2,7.4-23.9,9.5c-7.7,2-16.7,3.1-27,3.1C2603.8,2717.2,2593.7,2715.2,2586.7,2711.3z"/>
	<path class="st4" d="M2730.3,2527.6h14.8v17.6h-14.8V2527.6z M2730.3,2581.1h14.8v133.7h-14.8V2581.1z"/>
	<path class="st4" d="M2794.2,2520.6h15.4v194.1h-15.4V2520.6z"/>
	<path class="st4" d="M2862.1,2701c-8.2-10.8-12.3-27.6-12.3-50.4c0-17.3,2.2-31.2,6.6-41.6c4.4-10.4,11.5-18.1,21.3-23
		c9.8-4.9,22.9-7.4,39.4-7.4c13,0,25.5,1.1,37.7,3.2v-61.2h14.8v194.1h-15.1v-10.7c-16.1,8.7-33.2,13.1-51.6,13.1
		C2883.9,2717.2,2870.3,2711.8,2862.1,2701z M2928.5,2702.3c8.2-2,14.6-4.1,19.1-6.3l7.1-2.9v-99.5c-13.6-2.3-26.3-3.5-38.3-3.5
		c-13,0-23.1,2.1-30.4,6.2c-7.3,4.1-12.5,10.3-15.6,18.7c-3.1,8.4-4.6,19.6-4.6,33.7c0,18.9,2.9,33.1,8.8,42.5
		c5.9,9.5,16,14.2,30.4,14.2C2912.4,2705.4,2920.2,2704.4,2928.5,2702.3z"/>
	<path class="st5" d="M3093.8,2712.2l-13-1.6l2.9-20.1c33,3.8,58,5.6,74.9,5.6c35.7,0,53.5-14.5,53.5-43.6c0-7.9-1.6-14.2-4.9-18.8
		c-3.3-4.6-8.8-8.4-16.6-11.3c-7.8-2.9-19.2-5.6-34.2-8.1c-19.8-3.6-35.2-7.6-46.1-12.2c-11-4.6-19-10.8-24.1-18.5
		c-5.1-7.7-7.6-18.1-7.6-31c0-38.9,26.9-58.3,80.7-58.3c18.6,0,43.8,2.1,75.6,6.3l-2.5,20.4c-34.7-3.6-58.5-5.3-71.3-5.3
		c-36.2,0-54.3,11.8-54.3,35.4c0,9,1.7,15.8,5.2,20.5c3.5,4.7,9.5,8.5,17.9,11.4c8.4,2.9,21.8,6.2,40.2,9.7
		c17.8,3.6,31.7,7.5,41.4,11.9c9.8,4.4,16.9,10.2,21.5,17.4c4.6,7.2,6.9,16.8,6.9,28.7c0,44.5-26.7,66.7-80,66.7
		C3143.1,2717.6,3121,2715.8,3093.8,2712.2z"/>
	<path class="st5" d="M3278.8,2563h19.5v151.8h-19.5V2563z"/>
	<path class="st5" d="M3469.3,2563v151.8h-35.7l-68.1-136.9h-4.8v136.9h-19.5V2563h36.5l67.4,136.9h5.1V2563H3469.3z"/>
	<path class="st5" d="M3533,2708.6c-9.9-5.6-17-14-21.3-25.3c-4.3-11.3-6.5-26.1-6.5-44.4c0-18.1,2.2-32.9,6.5-44.3
		c4.3-11.4,11.4-19.9,21.1-25.4c9.8-5.6,23-8.3,39.8-8.3c15.2,0,31.5,1.5,48.9,4.4l8.6,1.3l-0.8,14c-20.9-3.1-39.1-4.6-54.4-4.6
		c-12.8,0-22.8,2.1-30,6.3c-7.2,4.2-12.2,10.7-15.1,19.7c-2.9,9-4.3,21.3-4.3,37c0,15.6,1.4,28,4.3,37c2.9,9,7.9,15.6,14.9,19.9
		c7.1,4.2,17.1,6.4,29.9,6.4c11.3,0,23.4-1,36.2-3.1v-46.7h-29.1v-15.1h48.4v74.6c-21.3,3.5-40.3,5.3-57,5.3
		C3556.2,2716.9,3542.8,2714.2,3533,2708.6z"/>
	<path class="st5" d="M3764.8,2699.6v15.1h-96.5V2563h19.5v136.7H3764.8z"/>
	<path class="st5" d="M3809.1,2577.9v52.4h71.9v14.7h-71.9v54.8h87.1v14.9h-106.6V2563h106.6v14.9H3809.1z"/>
	<path class="st5" d="M4018.5,2497.9h91.5c27.3,0,47.4,5.7,60.4,17.1c13,11.4,19.5,29,19.5,52.8c0,49.3-26.7,74-80,74h-63.7v73
		h-27.9V2497.9z M4109.7,2620.4c34.5,0,51.7-17.5,51.7-52.6c0-16.9-4.1-29.2-12.3-37c-8.2-7.7-21.3-11.6-39.4-11.6h-63.3v101.2
		H4109.7z"/>
	<path class="st5" d="M4315.2,2675.7h-75l-12.7,39h-19.2l48.1-151.8h42.5l48.1,151.8h-19.2L4315.2,2675.7z M4244.6,2660.6h66.4
		l-26.6-83.1h-13.2L4244.6,2660.6z"/>
	<path class="st5" d="M4392.3,2708.6c-9.9-5.6-17-14-21.3-25.3c-4.3-11.3-6.5-26.1-6.5-44.4c0-18.1,2.2-32.9,6.5-44.3
		c4.3-11.4,11.4-19.9,21.1-25.4c9.8-5.6,23-8.3,39.8-8.3c15.2,0,31.5,1.5,48.9,4.4l8.6,1.3l-0.8,14c-20.9-3.1-39.1-4.6-54.5-4.6
		c-12.8,0-22.8,2.1-30,6.3c-7.2,4.2-12.2,10.7-15.1,19.7c-2.9,9-4.3,21.3-4.3,37c0,15.6,1.4,28,4.3,37c2.9,9,7.9,15.6,14.9,19.9
		c7.1,4.2,17.1,6.4,29.9,6.4c11.3,0,23.4-1,36.2-3.1v-46.7h-29.1v-15.1h48.4v74.6c-21.3,3.5-40.3,5.3-57,5.3
		C4415.6,2716.9,4402.2,2714.2,4392.3,2708.6z"/>
	<path class="st5" d="M4547.2,2577.9v52.4h71.9v14.7h-71.9v54.8h87.1v14.9h-106.6V2563h106.6v14.9H4547.2z"/>
	<path class="st4" d="M2365.7,2849.3h16.1l40.7,174.1h10.8l46.3-171.9h18.2l46.3,171.9h10.8l40.7-174.1h15.7l-44.8,186.4h-34.3
		l-43.8-166.6l-43.5,166.6h-34.3L2365.7,2849.3z"/>
	<path class="st4" d="M2647.4,3022.3c-9.4-10.5-14-27.2-14-50c0-24.8,5.1-43.1,15.3-54.9c10.2-11.9,26.2-17.8,48-17.8
		c20.2,0,35.1,5.1,44.8,15.4c9.7,10.3,14.5,26.3,14.5,48l-0.3,11.2h-106.8c-0.2,12.8,1.2,23,4.3,30.6c3.1,7.6,8.4,13.1,15.9,16.6
		c7.5,3.5,18,5.2,31.3,5.2c5.6,0,12.1-0.1,19.6-0.4c7.5-0.3,14.5-0.7,20.8-1.2l9.3-0.8l0.6,11c-21.4,2-39.6,2.9-54.6,2.9
		C2673,3038,2656.8,3032.8,2647.4,3022.3z M2740.5,2962.9c0-18.5-3.5-31.9-10.5-40c-7-8.1-18.1-12.2-33.3-12.2
		c-15.9,0-27.8,4.2-35.8,12.7c-8,8.5-12.1,21.6-12.3,39.4H2740.5z"/>
	<path class="st4" d="M2802.2,3036.2l-7.4-0.8v-193.9h14.8v68.2c16.9-6.8,34.1-10.2,51.6-10.2c13.4,0,23.9,2.2,31.5,6.7
		c7.6,4.5,13.1,11.6,16.4,21.4c3.3,9.8,4.9,23.2,4.9,40.1c0,18.7-2.2,33-6.5,42.9c-4.3,9.9-11.8,16.9-22.4,21
		c-10.6,4.1-26,6.2-46.2,6.2C2826.4,3037.8,2814.1,3037.2,2802.2,3036.2z M2877.8,3020.4c7.8-3.9,13.2-10.1,16.2-18.5
		c3-8.4,4.5-20.1,4.5-35c0-14.1-1.2-25.1-3.7-33.2c-2.5-8-6.6-13.8-12.3-17.2c-5.8-3.5-13.9-5.2-24.4-5.2c-13.2,0-29.3,3.2-48.5,9.6
		v104c16.9,0.9,28.2,1.3,34,1.3C2858.6,3026.3,2870,3024.3,2877.8,3020.4z"/>
	<path class="st4" d="M3140.2,2981.6h-99.1l-18.5,54h-15.1l63.6-186.4h39.2l63.6,186.4h-15.1L3140.2,2981.6z M3098.9,2861.3h-16.1
		l-37.7,107.8h91.1L3098.9,2861.3z"/>
	<path class="st4" d="M3205.7,2901.9h15.1v10.7c16.7-8.7,33.8-13.1,51.2-13.1c18.9,0,32.6,5.3,40.9,16c8.3,10.7,12.5,27.9,12.5,51.6
		c0,16.9-2.2,30.5-6.5,40.8c-4.3,10.3-11.4,17.8-21.3,22.7c-9.9,4.9-23.2,7.4-39.8,7.4c-12.6,0-24.8-1.1-36.7-3.2v61.5h-15.4V2901.9
		z M3298.6,3012.8c7.6-9.2,11.4-24,11.4-44.5c0-20.3-3.2-34.9-9.7-43.7c-6.5-8.8-16.1-13.2-28.9-13.2c-7,0-14.7,1-23,3.1
		c-8.3,2.1-15.2,4.2-20.5,6.6l-6.8,3.5v98.7c18.1,2.3,31.1,3.5,38.9,3.5C3278.1,3026.5,3291,3021.9,3298.6,3012.8z"/>
	<path class="st4" d="M3366.2,2901.9h15.1v10.7c16.7-8.7,33.8-13.1,51.2-13.1c18.9,0,32.6,5.3,40.9,16c8.3,10.7,12.5,27.9,12.5,51.6
		c0,16.9-2.2,30.5-6.5,40.8c-4.3,10.3-11.4,17.8-21.3,22.7c-9.9,4.9-23.2,7.4-39.8,7.4c-12.6,0-24.8-1.1-36.7-3.2v61.5h-15.4V2901.9
		z M3459.1,3012.8c7.6-9.2,11.4-24,11.4-44.5c0-20.3-3.2-34.9-9.7-43.7c-6.5-8.8-16.1-13.2-28.9-13.2c-7,0-14.7,1-23,3.1
		c-8.3,2.1-15.2,4.2-20.5,6.6l-6.8,3.5v98.7c18.1,2.3,31.1,3.5,38.9,3.5C3438.6,3026.5,3451.5,3021.9,3459.1,3012.8z"/>
	<path class="st4" d="M3528.6,2841.5h15.4v194.1h-15.4V2841.5z"/>
	<path class="st4" d="M3592.8,2848.4h14.8v17.6h-14.8V2848.4z M3592.8,2901.9h14.8v133.7h-14.8V2901.9z"/>
	<path class="st4" d="M3671.2,3031.1c-8.9-4.6-15.1-11.9-18.8-21.9c-3.7-10-5.6-23.4-5.6-40.4c0-12.8,1.1-24.1,3.4-33.8
		c2.3-9.7,7.6-18.1,16.1-25.3c8.4-7.1,21.2-10.7,38.3-10.7c6.4,0,12.7,0.2,18.8,0.7c6.2,0.4,14.8,1.5,25.9,3.1l-0.9,11
		c-16.3-1.6-28.8-2.4-37.7-2.4c-12.6,0-22.3,1.7-29.2,5.2c-6.9,3.5-11.8,9.4-14.7,17.6c-2.9,8.3-4.3,20.1-4.3,35.4
		c0,14.4,1.4,25.7,4.2,33.7c2.8,8,7.7,13.9,14.8,17.5c7.1,3.7,17.3,5.5,30.7,5.5l36.7-2.4l0.6,11.2c-18.7,2-32.5,2.9-41.4,2.9
		C3692.4,3038,3680.1,3035.7,3671.2,3031.1z"/>
	<path class="st4" d="M3787.1,3027.9c-7.1-6.8-10.7-16.3-10.7-28.6s3.5-21.6,10.5-27.9c7-6.3,18.2-10.3,33.6-11.9l55.3-4.8v-12.8
		c0-10.3-2.5-18-7.6-22.9c-5-4.9-12-7.4-20.8-7.4c-9.1,0-17.5,0.3-25.3,0.8c-7.8,0.5-20.1,1.6-36.7,3.2l-0.9-11
		c22.2-3.4,42-5.1,59.3-5.1c16.3,0,28.2,3.4,35.8,10.2c7.6,6.8,11.4,17.5,11.4,32.1v74.1c0.2,2.9,2.2,5.3,5.9,7.2
		c3.7,2,8.8,3.3,15.4,4l-0.6,11c-7.4,0-14-1-19.9-2.9c-5.9-2-10.4-4.7-13.7-8.3c-19.3,7.5-39.3,11.2-59.9,11.2
		C3804.6,3038,3794.2,3034.6,3787.1,3027.9z M3867.5,3019l8.3-2.4v-51.1l-53.4,4.5c-10.7,0.7-18.4,3.3-23,7.8
		c-4.6,4.5-6.9,11.1-6.9,19.8c0,19.3,9,28.9,26.9,28.9C3835.4,3026.5,3851.5,3024,3867.5,3019z"/>
	<path class="st4" d="M3964.2,3034.3c-5.6-2.8-9.6-7.7-12-14.6c-2.5-6.9-3.7-16.6-3.7-29.3v-76.7H3925v-11.8h23.5v-42.5h14.8v42.5
		h54v11.8h-54v67.7c0,12.3,0.5,21.4,1.5,27.4c1,6,3.3,10.5,6.9,13.5c3.6,3,9.5,4.5,17.8,4.5l29.3-2.1l1.2,11.2
		c-14.4,1.8-25.3,2.7-32.7,2.7C3977.4,3038.6,3969.7,3037.1,3964.2,3034.3z"/>
	<path class="st4" d="M4046,2848.4h14.8v17.6H4046V2848.4z M4046,2901.9h14.8v133.7H4046V2901.9z"/>
	<path class="st4" d="M4124.5,3031.5c-9.2-4.4-15.6-11.4-19.3-21.1c-3.7-9.7-5.6-23.1-5.6-40.2c0-18,2-32,5.9-42.1
		c3.9-10.1,10.4-17.3,19.6-21.8c9.2-4.5,22-6.7,38.4-6.7c16.7,0,29.6,2.3,38.7,6.8c9.2,4.5,15.6,11.9,19.4,21.9
		c3.8,10.1,5.7,24,5.7,41.8c0,17.1-1.8,30.5-5.4,40.2c-3.6,9.7-10,16.8-19.1,21.1c-9.2,4.4-22.3,6.6-39.4,6.6
		C4146.7,3038,4133.7,3035.8,4124.5,3031.5z M4194.3,3020.9c6.7-3.6,11.3-9.2,13.7-17c2.5-7.8,3.7-19,3.7-33.8c0-15.7-1.3-27.7-4-36
		c-2.7-8.3-7.4-14.2-14-17.6c-6.7-3.5-16.5-5.2-29.5-5.2c-13.2,0-23.2,1.7-30.1,5.2c-6.9,3.5-11.7,9.4-14.4,17.6
		c-2.7,8.3-4,20.3-4,36c0,14.6,1.2,25.8,3.7,33.7c2.5,7.8,7.1,13.5,14,17.1c6.9,3.6,17.1,5.3,30.7,5.3
		C4177.6,3026.3,4187.6,3024.5,4194.3,3020.9z"/>
	<path class="st4" d="M4268.2,2901.9h15.1v10.2c9.9-4.6,19-7.9,27.5-9.8c8.4-1.9,17.2-2.8,26.2-2.8c13.2,0,23.3,2,30.4,6
		c7.1,4,12,10.7,14.8,20.1c2.8,9.4,4.2,22.8,4.2,40.2v69.8h-14.8v-69.5c0-14.4-1-25.5-2.9-33.2c-2-7.7-5.4-13.2-10.3-16.6
		c-4.9-3.4-12.2-5.1-21.9-5.1c-8.4,0-17.1,1-25.9,2.9c-8.9,2-15.5,4-20.1,6.2l-6.8,2.9v112.3h-15.4V2901.9z"/>
	<path class="st4" d="M2399.5,3398.5c-11.6-8.7-17.4-22.7-17.4-42v-134.5h11.1v135c0,30.3,19.5,45.5,58.7,45.5
		c20.8,0,36.3-3.6,46.6-10.7c10.3-7.1,15.4-18.7,15.4-34.8v-135h10.5v134.5c0,19.3-6,33.2-17.9,42c-11.9,8.7-29.8,13.1-53.7,13.1
		C2428.9,3411.6,2411.1,3407.3,2399.5,3398.5z"/>
	<path class="st4" d="M2576.5,3408.4l-9-1.1l1.2-9.1c24.3,3.2,41.8,4.8,52.5,4.8c15.4,0,26.8-2.4,34-7.1
		c7.2-4.7,10.8-12.3,10.8-22.6c0-7.3-1.7-12.9-5.1-16.7c-3.4-3.8-7.7-6.5-13-8c-5.2-1.5-12.7-2.9-22.4-4.1c-3.7-0.4-6.5-0.7-8.3-1.1
		c-14-2-24.6-4.2-31.8-6.8c-7.2-2.6-12.3-5.9-15.3-10c-3-4.1-4.5-9.6-4.5-16.6c0-13.9,4.8-23.5,14.5-28.7c9.7-5.3,23.7-7.9,42-7.9
		c16.3,0,30.3,0.8,42,2.4l7.7,1.3l-0.6,8.6c-9.9-1.4-19.4-2.5-28.6-3.2c-9.2-0.7-16.4-1.1-21.8-1.1c-15.6,0-26.9,2.3-33.8,7
		c-6.9,4.6-10.3,11.3-10.3,20.1c0,6.6,1.8,11.5,5.4,14.8c3.6,3.3,8.1,5.6,13.4,6.8c5.3,1.2,14.7,2.9,28.1,5.1
		c14.2,2.1,24.9,4.4,32,6.7c7.1,2.3,12.4,5.8,16.1,10.4c3.6,4.6,5.4,11.2,5.4,19.8c0,13.9-4.8,24-14.4,30.2
		c-9.6,6.2-24.1,9.4-43.7,9.4C2608.7,3411.6,2594.5,3410.6,2576.5,3408.4z"/>
	<path class="st4" d="M2716.1,3222.1h10.5v14.7h-10.5V3222.1z M2716.4,3275.5h10.5v133.7h-10.5V3275.5z"/>
	<path class="st4" d="M2775.4,3275.5h10.5v10.7c10.5-4.8,20.1-8.2,28.9-10.2c8.7-2,17.8-2.9,27-2.9c13.4,0,23.5,2,30.4,5.9
		c6.9,3.9,11.7,10.6,14.5,20.1c2.8,9.5,4.2,23.1,4.2,40.9v69.3h-10.5V3340c0-15.3-1-27.1-2.9-35.3c-2-8.2-5.6-14.1-10.8-17.6
		c-5.2-3.6-12.9-5.3-23-5.3c-9.3,0-18.7,1.1-28.2,3.2c-9.6,2.1-16.8,4.4-21.8,6.7l-7.4,3.5v114.2h-10.8V3275.5z"/>
	<path class="st4" d="M2953.5,3468.6c-8.4-2.9-14.2-7.1-17.3-12.8c-3.1-5.7-4.6-13.5-4.6-23.5c0-6.4,0.8-11.5,2.3-15.1
		c1.5-3.7,3.8-6.7,6.8-9.1c3-2.4,8.5-6.3,16.5-11.6c-2.3-1.2-4-3.4-5.1-6.6c-1.1-3.1-1.7-6.4-1.7-9.8c0-2.1,0.6-4.5,1.7-7.2
		c1.1-2.7,3.8-7.6,7.9-14.7c-17.7-4.5-26.5-18-26.5-40.6c0-15.1,4.2-26.4,12.7-33.7c8.4-7.3,22.2-11,41.4-11
		c10.1,0,20.6,1.2,31.5,3.5l43.2-0.8v9.4l-33.6,0.3c4.1,2.5,7.3,6.6,9.4,12.2c2.2,5.6,3.2,12.4,3.2,20.5c0,15.7-4.4,26.9-13.3,33.6
		c-8.9,6.7-23.1,10-42.6,10c-6.6,0-12.2-0.4-17-1.1l-2.5,5.3c-1.4,3-2.6,5.7-3.4,8c-0.8,2.3-1.2,4.5-1.2,6.7c0,5.3,2.2,8.9,6.6,10.7
		c4.4,1.8,11,2.7,19.6,2.7l21.3-0.3c11.1,0,20.2,1,27.2,2.9c7,2,12.4,5.6,16.2,10.8c3.8,5.3,5.7,12.9,5.7,22.9c0,10-2.1,18-6.2,24.2
		c-4.1,6.2-11.1,10.8-20.8,13.9c-9.8,3.1-23.2,4.7-40.3,4.7C2974.3,3472.9,2961.9,3471.4,2953.5,3468.6z M3024.8,3461.2
		c7.8-2.2,13.4-5.9,16.8-11c3.4-5.1,5.1-12.1,5.1-21c0-7.5-1.1-13.1-3.2-16.8c-2.2-3.7-6.3-6.4-12.5-8c-6.2-1.6-15.6-2.3-28.4-2.1
		l-37-1.1c-6.8,3.9-11.7,7.2-14.8,9.8c-3.1,2.6-5.2,5.4-6.5,8.4c-1.2,3-1.9,7.1-1.9,12.3c0,8.6,1.5,15.2,4.5,19.9c3,4.7,8,8.1,15,10
		c7,2,17.1,2.9,30.3,2.9C3006.1,3464.6,3017,3463.5,3024.8,3461.2z M3020.2,3344.9c6.4-5.3,9.6-14.6,9.6-27.9
		c0-13.2-3.1-22.4-9.4-27.7c-6.3-5.3-17.1-7.9-32.6-7.9c-15.8,0-27.1,2.7-33.6,8.2c-6.6,5.4-9.9,14.8-9.9,27.9
		c0,13.2,3.2,22.4,9.7,27.5c6.5,5.2,17.5,7.8,33.2,7.8C3002.8,3352.8,3013.8,3350.2,3020.2,3344.9z"/>
	<path class="st6" d="M3293.4,3359.1h-99.9l-15.5,50.1h-34.1l64-214.2h71.2l64,214.2h-34.1L3293.4,3359.1z M3200.6,3332.6h85.5
		l-33.4-112.4H3234L3200.6,3332.6z"/>
	<path class="st6" d="M3375.7,3253.6h33.1v10.3c10.3-5,19.6-8.5,28-10.6c8.4-2.1,17.3-3.1,26.6-3.1c15.1,0,27,2.6,35.6,7.8
		c8.6,5.2,14.7,13.2,18.3,24.1c3.6,10.9,5.4,25.7,5.4,44.4v82.8h-33.4V3327c0-13.1-0.9-23.2-2.7-30.4c-1.8-7.2-5.2-12.3-10.1-15.6
		c-4.9-3.2-12-4.8-21.4-4.8c-12.7,0-26,2.4-39.9,7.2l-6.1,2.5v123.3h-33.4V3253.6z"/>
	<path class="st6" d="M3580.4,3471.7c-12.1-6.7-18.2-18-18.2-33.8c0-8.9,2-16,5.9-21.3c4-5.3,11.2-11.5,21.7-18.5
		c-3.8-2.3-6.7-5.3-8.4-9c-1.8-3.7-2.7-7.7-2.7-11.8c0-2.9,0.8-6,2.3-9.2c1.6-3.2,5.1-8.9,10.6-17c-18.2-8.3-27.3-23.8-27.3-46.4
		c0-36.1,23.4-54.2,70.1-54.2c11,0,23.2,1.4,36.7,4l54.6-1.2v24l-32-0.9c3.8,3.7,6.6,7.8,8.3,12.3c1.7,4.5,2.5,10.2,2.5,17.3
		c0,18.5-5.7,31.7-17.1,39.7c-11.4,8-29.2,12-53.4,12c-7.2,0-13.1-0.4-17.6-1.2c-3.8,7.9-5.8,13.6-5.8,17.1c0,5,2.3,8.2,7,9.7
		c4.7,1.5,11.9,2.2,21.7,2.2h12.6c16.8,0.2,30.2,1.4,40.3,3.4c10.1,2.1,17.8,6.3,23.4,12.6c5.5,6.3,8.3,15.5,8.3,27.6
		c0,18.3-6.8,31.6-20.3,40.2c-13.5,8.5-35.4,12.8-65.6,12.8C3611.7,3481.8,3592.5,3478.4,3580.4,3471.7z M3678.9,3451.7
		c7.3-4,11-11,11-20.7c0-5.8-1.4-10.1-4.1-12.9c-2.8-2.8-6.9-4.7-12.4-5.6c-5.5-0.9-13.7-1.5-24.4-1.7l-36.7-1.9
		c-6.5,4.4-10.9,8.3-13.3,11.8c-2.4,3.5-3.6,7.8-3.6,12.8c0,8.9,3.5,15.2,10.4,18.8c6.9,3.6,18.7,5.4,35.2,5.4
		C3658.9,3457.8,3671.6,3455.8,3678.9,3451.7z M3662.7,3327.7c5.6-4.8,8.4-12.7,8.4-23.7c0-10.8-2.9-18.6-8.6-23.4
		c-5.8-4.8-15-7.2-27.7-7.2c-12.9,0-22.3,2.4-28.2,7.3c-5.9,4.9-8.8,12.7-8.8,23.5c0,10.8,2.9,18.6,8.8,23.4
		c5.9,4.8,15.3,7.2,28.2,7.2C3647.8,3334.8,3657.1,3332.4,3662.7,3327.7z"/>
	<path class="st6" d="M3778.2,3405c-8.4-5.1-14.3-13.2-17.6-24.3c-3.4-11.1-5-26.4-5-45.9v-81.3h33.4v81.3c0,14.3,0.8,25.1,2.5,32.2
		c1.7,7.2,4.9,12.2,9.5,15.1c4.7,2.9,11.8,4.4,21.4,4.4c7.9,0,15.4-0.8,22.5-2.5c7.1-1.7,14.7-4,22.8-7.2v-123.3h33.4v155.7h-33.4
		V3399c-10.1,5-19.1,8.5-27.1,10.6c-8,2.1-16.8,3.1-26.4,3.1C3798.6,3412.7,3786.6,3410.1,3778.2,3405z"/>
	<path class="st6" d="M3952.9,3187.6h33.4v221.7h-33.4V3187.6z"/>
	<path class="st6" d="M4039.9,3400.2c-8.9-8.3-13.3-20.2-13.3-35.8c0-15.4,4.5-26.6,13.7-33.8c9.1-7.2,23.6-11.6,43.5-13.2l51-4
		v-12.1c0-9.1-2.3-15.7-6.8-19.8c-4.6-4-11.3-6.1-20.1-6.1c-20.1,0-43.4,1.2-69.7,3.7l-1.1-21.2c25.4-5.2,49-7.8,70.8-7.8
		c21.1,0,36.4,4.1,46,12.3c9.6,8.2,14.4,21.1,14.4,38.8v75c0.5,4.2,2.1,7.3,4.9,9.5c2.8,2.2,7.1,3.7,13.1,4.5l-1.1,22.4
		c-10.3,0-19.1-1-26.2-3s-13.5-5-19.1-9.2c-20.4,8.1-40.7,12.1-61.1,12.1C4061.7,3412.7,4048.8,3408.5,4039.9,3400.2z
		 M4127.3,3382.5l7.5-2.2v-45.8l-46.7,3.7c-9.3,0.8-16.2,3.3-20.7,7.3c-4.4,4-6.7,10-6.7,17.9c0,16.6,8,24.9,24.1,24.9
		C4099.5,3388.4,4113.6,3386.4,4127.3,3382.5z"/>
	<path class="st6" d="M4219.3,3253.6h33.1v19.6c21.3-11.8,42.4-19.5,63.3-23v29.3c-9.3,1.7-19.1,3.9-29.1,6.8
		c-10.1,2.9-18.5,5.7-25.2,8.4l-8.6,3.4v111.1h-33.4V3253.6z"/>
	<path class="st4" d="M2394.7,3551.8v84.8h96.6v8.8h-96.6v84.8h-11.4v-187.2h123.8v8.8H2394.7z"/>
	<path class="st4" d="M2533.3,3596.4h10.5v20.9c17.9-11.6,38.4-19.4,61.4-23.5v9.6c-8.6,1.4-18.4,4.1-29.2,8
		c-10.8,3.9-18.5,7.4-23,10.4l-9,4.5v103.7h-10.8V3596.4z"/>
	<path class="st4" d="M2635.7,3722.4c-7.1-6.8-10.7-16.1-10.7-28.1c0-11.9,3.4-21.1,10.3-27.4c6.9-6.3,17.8-10.4,32.6-12.2l58.7-5.1
		V3636c0-11.1-2.7-19.3-8-24.7c-5.4-5.4-12.7-8.2-21.9-8.2c-9.1,0-17,0.3-23.9,0.8c-6.9,0.5-19.8,1.8-38.7,3.7l-0.9-8.8
		c21.4-3.2,40.9-4.8,58.3-4.8c15.8,0,27.5,3.4,35,10.3c7.5,6.9,11.3,17.4,11.3,31.7v77c0.2,2.7,2.4,5,6.5,7.1
		c4.1,2.1,9.6,3.4,16.4,4.1l-0.6,8.3c-6.8,0-13.1-1.1-19-3.2c-5.9-2.1-10.1-5-12.8-8.6c-20.6,7.8-41.4,11.8-62.4,11.8
		C2652.8,3732.5,2642.8,3729.1,2635.7,3722.4z M2717.9,3715.7l8.6-2.9v-54.3l-57.4,4.8c-11.3,0.7-19.5,3.4-24.5,8.2
		c-5,4.7-7.6,11.8-7.6,21.3c0,20.7,9.7,31,29,31C2684,3723.7,2701.3,3721,2717.9,3715.7z"/>
	<path class="st4" d="M2787.4,3596.4h10.5v10.7c16.5-8.7,33.9-13.1,52.2-13.1c19.8,0,33,4.8,39.8,14.4c6-3.6,14.7-6.9,26.2-9.9
		c11.5-3,23.4-4.5,35.5-4.5c12.3,0,21.8,2.1,28.4,6.4c6.6,4.3,11.2,11.1,13.7,20.6c2.6,9.5,3.9,22.7,3.9,39.8v69.3h-10.8v-69.3
		c0-15.9-1-27.9-2.9-36c-2-8.1-5.6-13.9-10.8-17.2c-5.2-3.4-13.1-5.1-23.6-5.1c-9.9,0-19.6,1.1-29,3.2c-9.5,2.1-16.2,4.4-20.1,6.7
		l-6.8,3.2c3.9,0.7,5.9,15.6,5.9,44.7v69.8h-10.8v-69.3c0-15.3-1-27.1-2.9-35.3c-2-8.2-5.5-14.1-10.7-17.6
		c-5.1-3.6-12.8-5.3-22.8-5.3c-9.1,0-18.2,1-27.3,3.1c-9.2,2.1-15.9,4.3-20.2,6.8l-6.5,3.5v114.2h-10.8V3596.4z"/>
	<path class="st4" d="M3052.6,3716.6c-9.3-10.6-13.9-27.1-13.9-49.6c0-25,5-43.4,15-55.2c10-11.9,25.8-17.8,47.4-17.8
		c19.8,0,34.4,5.2,43.8,15.5c9.5,10.3,14.2,26.6,14.2,48.7v8.8h-109.3c-0.2,14.1,1.3,25.2,4.6,33.3c3.3,8.1,8.8,14.1,16.7,17.9
		c7.8,3.8,18.8,5.7,33,5.7c5.3,0,11.7-0.2,19-0.5c7.3-0.4,14.2-0.7,20.8-1.1l9.3-0.8l0.6,8.8c-25.1,1.4-42.8,2.1-53.1,2.1
		C3077.9,3732.5,3061.8,3727.2,3052.6,3716.6z M3147.7,3658.4c0-19.8-3.7-34-11.1-42.8c-7.4-8.7-19.1-13.1-35.2-13.1
		c-17.1,0-29.9,4.5-38.6,13.6c-8.6,9.1-13.1,23.2-13.3,42.2H3147.7z"/>
	<path class="st4" d="M3184.1,3596.4h11.4l39.2,125.1h3.4l45.7-122.5h11.7l45.4,122.5h4l38.9-125.1h11.4l-41.7,133.7h-21.3
		l-42.6-119.8l-42.9,119.8h-21L3184.1,3596.4z"/>
	<path class="st4" d="M3445.4,3726.2c-9-4.2-15.1-11.1-18.5-20.6c-3.4-9.5-5.1-23.1-5.1-40.8c0-18.5,1.9-32.8,5.6-42.9
		c3.7-10.1,10-17.2,19-21.5c9-4.3,21.8-6.4,38.4-6.4s29.5,2.2,38.4,6.6c9,4.4,15.2,11.6,18.8,21.7c3.6,10.1,5.4,24.3,5.4,42.6
		c0,17.6-1.6,31.2-4.9,40.6c-3.3,9.5-9.4,16.3-18.4,20.6c-9,4.3-22.1,6.4-39.4,6.4C3467.5,3732.5,3454.4,3730.4,3445.4,3726.2z
		 M3517.6,3718.2c7.1-3.7,11.9-9.5,14.4-17.6c2.5-8.1,3.7-20,3.7-35.7c0-16.9-1.3-29.7-4-38.4c-2.7-8.6-7.6-14.7-14.7-18.3
		c-7.1-3.6-17.8-5.3-32-5.3s-25,1.8-32.3,5.3c-7.3,3.6-12.3,9.7-15.1,18.4c-2.8,8.7-4.2,21.5-4.2,38.2c0,15.5,1.3,27.4,3.9,35.6
		c2.6,8.2,7.5,14.1,14.8,17.8c7.3,3.7,18.3,5.5,32.9,5.5C3499.7,3723.7,3510.5,3721.9,3517.6,3718.2z"/>
	<path class="st4" d="M3590,3596.4h10.5v20.9c17.9-11.6,38.4-19.4,61.4-23.5v9.6c-8.6,1.4-18.4,4.1-29.2,8
		c-10.8,3.9-18.5,7.4-23,10.4l-9,4.5v103.7H3590V3596.4z"/>
	<path class="st4" d="M3691.6,3534.9h10.8v117.9h29.6l53.4-56.4h12.7l-57.1,60.2l59.3,73.5h-12.7l-55.9-68.7l-29.3-0.3v69h-10.8
		V3534.9z"/>
</g>
<text transform="matrix(1.1545 0 0 1 211.007 4054.249)" class="st0"><tspan x="0" y="0" class="st7 st8 st9">Build </tspan><tspan x="542.2" y="0" class="st7 st8 st10">Single Page</tspan><tspan x="1875.2" y="0" class="st7 st8 st9"> Web Application</tspan><tspan x="402.1" y="330.1" class="st4 st11 st9"> Using </tspan><tspan x="1053" y="330.1" class="st6 st11 st12">Angular </tspan><tspan x="1983.6" y="330.1" class="st4 st11 st9">Framework</tspan></text>
<g class="st0">
	<g class="st4">
		<path class="st3" d="M5013,2725.9l2.7,124.5l2.5,124.5l4.6,249l0.2,9.6l-10,0.2L4749,3238l14.2-14.2c0.3,20.2,0.7,40.4,0.7,60.5
			c0.1,20.2-0.1,40.4-0.2,60.5c-0.3,40.4-0.1,80.7-0.2,121.1v242.2v14.5H4749h-689.9l14.5-14.5v733.4v14.5h-14.5H2274.7h-892.2
			h-55.8c-18.6,0-37.2,0-55.8,0.2c-18.6,0.1-37.2,0.3-55.8,0.2c-18.6-0.1-37.2-0.4-55.8-0.7l-223.1-3.7
			c-148.7-2.5-297.4-5.2-446.1-8.3v-4.1c148.7-3.1,297.4-5.8,446.1-8.3l223.1-3.7c18.6-0.3,37.2-0.7,55.8-0.7
			c18.6-0.1,37.2,0,55.8,0.2c18.6,0.1,37.2,0.2,55.8,0.2h55.8h892.2h1784.5l-14.5,14.5v-733.4v-14.5h14.5H4749l-14.5,14.5V3466
			c0-40.4,0.1-80.7-0.2-121.1c-0.1-20.2-0.3-40.4-0.2-60.5c0-20.2,0.3-40.4,0.7-60.5l0.2-14.4l14,0.2l263.9,4.4l-9.8,9.8l4.6-249
			l2.5-124.5L5013,2725.9z"/>
		<g>
			<path class="st3" d="M495.3,4340.2c-56,0-101.4,45.4-101.4,101.4c0,56,45.4,101.4,101.4,101.4c56,0,101.4-45.4,101.4-101.4
				C596.7,4385.6,551.3,4340.2,495.3,4340.2z"/>
		</g>
	</g>
</g>
<g>
	<path class="st13" d="M1290.4,170.9c-16.3,85.3,4.2,159.6,67.1,220.6c34.4,33.3,74.3,58.3,120.3,72.3
		c59.7,18.2,117.4,11.1,173.3-15.3c1.9-0.9,3.9-1.7,5.8-2.6c0.2-0.1,0.5,0.1,1.8,0.5c-7,12.7-16.2,23.3-26.4,33.1
		c-32.3,31-71.7,45.3-115.8,47.1c-56.1,2.3-109.6-7.8-156.8-39.7c-60.8-41.2-99.1-98.7-112.4-170.9c-9.4-50.8,6.8-96.3,36.5-137.5
		c1.7-2.4,4.5-4.1,4.7-7.5C1289.2,170.9,1289.8,170.9,1290.4,170.9z"/>
	<path class="st13" d="M813.8,318.7c-9.6,42.1-15.8,84-17.5,126.4c-5.7,141,38.5,263.2,138,364.3c64.8,65.8,140.2,116.5,225.2,152.2
		c66.1,27.8,136,37.7,207.5,35.9c68.8-1.7,134.7-16.1,196.9-46.1c40.7-19.7,77-45.7,109.1-77.6c1-1,2.1-1.9,3.7-2.5
		c-6,16-14.4,30.7-23.8,44.7c-68.2,101.8-162,168.5-281.8,192.4c-185.3,36.9-350.1-8.1-490.1-136.5
		c-79.6-73-135.3-161.4-162.8-266.2c-23.2-88.2-24-176,9.7-262.3c17.5-44.8,43.5-84.4,76.4-119.4
		C806.6,321.3,809.1,319.3,813.8,318.7z"/>
	<path class="st13" d="M1071.9,229.4c-5.8,33.1-10,66.1-10.2,99.3c-0.6,132.3,56.9,233.8,165.2,307.6
		c48.6,33.1,100.2,60.8,158.3,73.1c122.2,25.7,228.2-3.8,315.9-94.4c1.3-1.3,2.4-2.8,4.1-3.8c-7.8,21.8-18.8,41.8-32,60.6
		c-46.2,65.7-111.2,103.1-187.6,121.7c-90.9,22.1-180.2,15-263.6-27.7c-108.5-55.5-186-139.6-216-260.5
		C989,436,991.4,366.7,1023,300.7C1035.5,274.5,1051.9,250.8,1071.9,229.4z"/>
	<path class="st14" d="M870,1539.6c-32.9,0.7-65.9,1.3-98.8-1.5c-42.7-3.6-73.5-33.6-78-76c-6.4-60.6,7.3-116.4,44-165.3
		c33.1-44,79.4-60.9,133.1-58.1c40.2,2.1,74,17.4,95.2,53.6c17.5,29.9,18.1,61.8,9,94.5c-8,29-17.5,57.6-28.3,85.7
		c-2.1,5.6-2,8.2,4.9,8c6.1-0.2,12.2,0.7,18.3,0.5c5-0.1,7.2,1,5.7,6.5c-4,15.6-7.8,31.3-11.4,47c-1.1,4.7-3.8,5.1-7.9,5.1
		C927.3,1539.5,898.6,1539.6,870,1539.6z M837.7,1479.4c12.8,0,23.5-0.2,34.2,0.1c4.3,0.1,6.6-1.1,7.7-5.4
		c9.6-37.1,21.3-73.6,28.9-111.2c4.1-20.1-4-41.6-20.3-52.2c-26.8-17.5-81.4-13.3-99.5,27.8c-13.3,30.1-20.8,61.7-23.7,94.3
		c-2.1,23.2,10.2,39.1,33,44.6C811.7,1480.6,825.8,1478.8,837.7,1479.4z"/>
	<path class="st14" d="M1380.4,1444.5c-22.6,0-45.2,0.3-67.7-0.2c-6.4-0.1-9.1,1.6-10.3,8.1c-3,16.2,4.9,26.8,22.4,28.2
		c13.7,1.1,27.4,1.7,41.1,2c23.8,0.6,47.6,1,71.3,0.9c6,0,6.4,2.2,5.3,7c-3.3,14.5-6.4,29.1-9.4,43.7c-0.8,3.9-2.5,5.4-6.7,5.4
		c-42.3-0.2-84.7,3.1-127-0.3c-6.1-0.5-12.2-1-18.1-2.3c-32.7-7.5-50.4-31.8-47.2-65.8c3-32.2,10-63.5,20.3-94.3
		c11.1-33,33.3-54.6,64.9-67.2c33.5-13.4,67.8-17.3,102.5-4.9c32.1,11.5,47.2,36,45.3,70c-1.3,22-6.7,43.3-9.9,64.9
		c-0.8,5.5-4.4,4.8-8.1,4.8C1426.1,1444.5,1403.3,1444.5,1380.4,1444.5z M1314.2,1393c24.2,0,47.7,0,71.1,0c14.4,0,17-3.4,13.1-17.6
		c-2.6-9.5-9.5-14.6-18.5-17.1C1349.2,1349.8,1326.4,1361.5,1314.2,1393z"/>
	<path class="st14" d="M1237.3,1305c-11.3,53.9-22.5,107.1-33.7,160.3c-4.7,22.3-9.4,44.7-14,67c-0.9,4.3-1.7,7.5-7.8,7.4
		c-40.3-0.4-80.6,0.1-120.8-0.6c-31.7-0.5-51.8-15.7-57.9-41.8c-3.6-15.2-2.1-30.4,0.1-45.4c7-46.9,16.3-93.5,26.6-139.8
		c1.4-6.3,3.9-7.6,9.7-7.5c14.9,0.3,29.9,0.3,44.9,0c6-0.1,8.1,0.5,7.6,7.8c-2.4,32.4-12.4,63.3-18.7,94.9
		c-4.3,21.7-6.2,43.4-3.6,65.5c0.7,5.6,2.7,7.6,8.6,7.4c17.1-0.4,34.2-0.4,51.3,0c6.2,0.1,8-1.9,9.3-8
		c11.3-52.9,23.1-105.7,34.5-158.7c1.4-6.7,4-9.1,11.4-8.8C1202,1305.5,1219.4,1305,1237.3,1305z"/>
	<path class="st14" d="M1729.6,1414.8c13.7-19.9,26.4-38.3,39.1-56.8c19-27.6,37.9-55.2,57-82.7c1.8-2.6,3.2-5.9,7.4-5.9
		c24,0.1,48,0,73.2,0c-11.7,21.4-25,40.1-38.8,58.5c-26.1,34.8-54.8,67.7-80,103.3c-22.4,31.6-41.8,64.9-53.7,102
		c-1,3-1.9,5.4-6,5.3c-21.6-0.2-43.1-0.1-65.7-0.1c5.6-12.6,10.2-24.3,11.5-37.1c2.4-21.7-2.4-42.3-8.4-62.8
		c-5.1-17.5-10.8-34.8-14.9-52.5c-1.6-6.9-0.2-9,7.2-8.8c18,0.5,36,0.4,54,0c5.1-0.1,7.6,1.3,8.9,6.4
		C1722.8,1393.5,1726,1403,1729.6,1414.8z"/>
	<path class="st14" d="M1604.5,1303.5c16.7,1,43-1.6,69.2,1.3c20.7,2.3,29.8,9.7,35.3,29.8c1.6,5.8,1.7,12.1,3.6,17.9
		c2.9,8.9-0.8,9.7-8.5,9.6c-41.2-0.3-82.4,0.2-123.6-0.4c-8.1-0.1-10,2.9-11.5,9.7c-11.3,53.6-23,107-34.1,160.7
		c-1.3,6.3-3.7,7.7-9.6,7.6c-16.5-0.3-33-0.3-49.5,0c-4.8,0.1-6.3-0.8-5.2-6.1c16-74.3,31.8-148.7,47.4-223.1
		c1.2-5.7,3.8-6.9,9.2-6.8C1549.8,1303.6,1572.4,1303.5,1604.5,1303.5z"/>
	<path class="st14" d="M534,1636.7c-8.9,0.5-19.5-1-30.1-1.6c-4.7-0.3-5.4-1.6-4.3-6c3.8-15,7.3-30.1,10.7-45.2c1-4.4,3-6.7,7.7-7
		c7-0.5,13.9-2.3,20.9-2.2c6.6,0.1,9.8-3.1,12.7-8.2c15.6-27.4,22.3-57.6,27.9-88.2c5.9-31.9,10.4-64.2,21.7-94.9
		c1.9-5.2,4.3-6.8,9.7-6.7c17.7,0.4,35.4,0.2,53.1,0.1c4.3,0,6,0.8,4.9,5.6c-15,64.5-27.2,129.6-45.3,193.4
		c-13,45.6-33.9,61-81.2,61C540.1,1636.7,537.9,1636.7,534,1636.7z"/>
	<path class="st14" d="M639.3,1358.4c-9.5,0-18.9-0.2-28.4,0.1c-4.7,0.2-5.4-1-4.3-5.6c3.6-14.4,6.7-29,9.9-43.6
		c0.9-4,2.9-5.2,7-5.1c18.3,0.2,36.6,0.3,54.9,0c5.1-0.1,6.4,1.6,5.3,6.4c-3.2,14.2-6.2,28.5-9.1,42.8c-0.8,4.1-3,5.3-7,5.2
		C658.2,1358.2,648.7,1358.4,639.3,1358.4z"/>
</g>
<g>
	<path class="st15" d="M3948.2,1464.5c-34.8-24.2-46.9-49.6-39.3-79.5c9-35.5,34.8-56.8,73-60.5c87.9-8.4,147.2,41.3,159,127.8
		c22.5,163.8-83.4,232.7-196.3,251.5c-120.7,20.1-232.5-11.5-340.9-62.1c-74.5-34.8-148.6-70.6-226.2-98.7
		c-122.4-44.4-242.8-39.6-363.5,7.2c-94.9,36.8-184,86.7-279.4,122c-108.2,40-218.5,54.6-329.8,14
		c-121.5-44.3-173.4-177.4-115.7-290.9c28.9-56.9,93.6-86.5,155-69.3c28.2,7.9,52.3,23.8,59.5,54.4c8.3,35.5-7.8,62-36.5,82.3
		c-5.4-4.4-1.8-8.5-0.2-12.3c8-19.1,0.3-33.4-16.3-41.1c-17.8-8.2-34.2-2.8-45.7,14c-27.8,40.8,5.9,94.3,62.3,100.3
		c33.4,3.5,60.5-10.6,86.1-29c51.5-36.9,94.4-83.9,142.7-124.5c65.4-55,135.3-101.1,222.9-111.5c111.4-13.2,205.2,18.1,274.5,110.2
		c6.2,8.2,9.8,25,23,5.2c90.4-135.8,273.5-148.6,406.1-71.8c66.3,38.4,120.8,91.1,176.5,142.5c29.3,27,58.6,54.2,95.4,71
		c37.1,16.9,82.7,8,107-20.3c11.8-13.7,19.4-29.3,15-48.1c-6.6-27.9-27.6-45.1-48.4-40.1C3946.2,1412.4,3939.9,1428.6,3948.2,1464.5
		z"/>
	<path class="st16" d="M3057.3,687.7c0-21.3-0.3-39.6,0.1-57.9c0.4-15.5,7-25.7,24.3-26.4c18.2-0.8,28.8,8.7,29,25.3
		c0.8,69.8,1.3,139.7-0.5,209.5c-0.6,22.3-21.7,32.5-39.8,20.5c-10.6-7.1-16.3-7.5-27.2-1.5c-20,11-41.5,8-61.4-2.1
		c-41.4-21-58.9-81.6-38-130.2C2962.4,681.7,3003.2,667.1,3057.3,687.7z M3057.3,769.9c-1.9-20.5-7.5-38.6-32.1-40.8
		c-19.5-1.8-35.7,16.9-35.2,40.5c0.5,21.1,8,38.3,31.9,40.6C3042.2,812.3,3057.1,794.5,3057.3,769.9z"/>
	<path class="st16" d="M3459.7,684.9c51.8-16.8,86.5-6.9,108.2,28.3c22.6,36.8,16.5,98.9-13.2,127.8c-16,15.6-35.6,25-58,21.7
		c-21.6-3.2-40.4-15.9-65.1-4.1c-15.7,7.5-25.8-10.5-26-26.4c-0.7-67.1-0.6-134.2-0.1-201.3c0.1-17.4,8.3-30.5,28-30.4
		c20.2,0.2,25.9,14,26.1,31.5C3459.8,649.3,3459.7,666.5,3459.7,684.9z M3527,769.1c-0.1-25.2-14-43.3-33.5-43.4
		c-18.7-0.1-35,19.7-33.7,43.5c1.2,21.3,6.1,41.5,33.8,42.1C3514.3,811.8,3527.1,795.3,3527,769.1z"/>
	<path class="st16" d="M2423.6,688.6c18.1-9.1,36.3-15.8,56.2-11.5c28,6,47.9,28.4,48.7,57.4c1,34.9,0,69.9,0.3,104.9
		c0.1,18-9.7,28.5-26,28.8c-16.6,0.3-26.7-10.6-26.9-28.1c-0.3-24.3-0.1-48.6-0.2-72.9c-0.1-18.6-2.6-37.4-26.1-37.7
		c-24.4-0.3-29.1,18.6-29.4,38.5c-0.4,22.3-0.4,44.7,0,67c0.4,19.5-7.5,33.7-27.7,32.9c-18.2-0.7-25.8-14.5-25.7-32.6
		c0.2-66.1,0-132.1,0.1-198.2c0-18.7,6.3-33.5,27.7-33.2c22.2,0.3,25.5,16.2,25.8,34.5C2420.6,654.6,2417,671.1,2423.6,688.6z"/>
	<path class="st16" d="M2726,767.5c0,20.4,1.2,40.9-0.3,61.3c-1.7,23-19.4,36.7-37.5,26.8c-13.4-7.4-21.2-5.9-32.2,1.6
		c-7.9,5.4-17.8,6.7-27.9,6.3c-30.7-1.3-58.3-21.6-70.3-52.7c-15.5-40.1-7.2-89.7,20.7-113.8c25.7-22.1,54.6-29.6,85.5-10.6
		c7.4,4.6,9.7,2.9,16.1-1.6c24-17,42.8-7.7,46,21.4c0.2,1.9,0.1,3.9,0.1,5.8c0,18.5,0,37,0,55.4C2726.1,767.5,2726,767.5,2726,767.5
		z M2634.8,810.6c25.2-0.7,38.6-17.4,36.9-42.8c-1.4-21.2-9.4-38.3-34.2-38.6c-19.9-0.3-34.2,18.7-33.1,42.9
		C2605.4,794.1,2615.4,808.4,2634.8,810.6z"/>
	<path class="st16" d="M3777.4,767.7c0,20.4,1.1,40.9-0.3,61.3c-1.4,21.1-15.3,35.5-34.8,26.7c-15.8-7.2-25.2-4.6-37.8,2.6
		c-12.3,7.1-25.9,6.4-39.5,2.9c-39.5-10.1-63.5-45.6-63-93.5c0.5-47.2,23.9-80.4,63.7-89.4c8.4-1.9,17.7-3.2,25.9-1.5
		c18.5,3.7,33.5,15.3,55.9,1.3c16.5-10.3,28.8,9.8,29.8,28.3c1.1,20.4,0.2,40.8,0.2,61.3C3777.4,767.7,3777.4,767.7,3777.4,767.7z
		 M3723.2,769.2c-0.3-23.4-13.8-39.9-33-40.2c-20.2-0.3-35.2,17.4-34.4,41.7c0.6,21.7,9.2,38,33.1,39.6
		C3710.1,811.8,3723.5,794.8,3723.2,769.2z"/>
	<path class="st16" d="M3267.6,787.4c20.9,30.1,43.9,26,66.9,15.9c16.1-7,33.3-20.1,44.2,3.7c10,21.9-7,33.9-23.6,43.4
		c-36,20.7-88,16.2-117.5-9.7c-27-23.7-35.7-73-19.7-110.7c15.1-35.5,49.7-56.5,88.3-53.7c41.7,3,78.4,41.9,78.8,83.3
		c0.2,18.6-6.6,28.9-27.6,28.1C3329.2,786.5,3301,787.4,3267.6,787.4z M3300,751.7c7.8-8.1,25.9,7,26.9-10.1
		c0.8-12.9-13.9-18.8-27.8-18.6c-14,0.1-28.7,7.1-27.9,19C3272.2,758.6,3289.9,745,3300,751.7z"/>
	<path class="st16" d="M2752.5,774c0-21.4-1.2-42.9,0.3-64.2c2.2-32.1,18.5-41.4,45.8-25c9.8,5.9,13.8,0.3,20.2-2.2
		c54-20.9,95.4,7.1,96.1,65.3c0.3,28.2,0,56.4,0.1,84.6c0,18.1-2.9,33.6-26.3,33.3c-22-0.2-27.9-13.3-27.5-32.6
		c0.4-24.3,0.4-48.6-0.2-72.9c-0.4-17.2-6.9-31.5-26.8-31.1c-18.8,0.4-27.4,13.1-27.9,30.8c-0.7,24.3-0.4,48.6-0.6,72.9
		c-0.2,18-3,33.4-26.6,33c-23.3-0.4-26.1-16.2-26.5-33.7c-0.5-19.4-0.1-38.9-0.1-58.4C2752.3,774,2752.4,774,2752.5,774z"/>
	<path class="st16" d="M3995.5,863.6c-25.1-0.7-45.1-7.3-61-23.2c-8.7-8.7-13.7-19.4-7.1-31.6c7.4-13.5,19.8-14.7,32.8-10.6
		c9.2,2.9,17.5,8.5,26.7,11.1c7,2,16.5,4.8,20.1-5.1c3.9-10.3-5.4-13.1-12.4-16c-11.6-4.8-24-8-35.2-13.5
		c-36.3-17.8-40-60.6-7.7-84.7c23.7-17.6,64.1-19,88-2.2c13.4,9.4,23.7,21.3,15.5,39.2c-9,19.6-23.9,15.5-39.1,8.4
		c-3.5-1.6-7.1-3.2-10.8-4.3c-7.4-2.1-17-5.9-20.2,3.6c-3.3,10,8,11.4,14.4,14.6c7.8,3.9,16.3,6.1,24.2,9.7
		c22.4,10.2,41.2,23.8,38.4,52.1c-3,29.4-22.9,43.4-49.6,49.9C4006.1,862.5,3999.3,863.1,3995.5,863.6z"/>
	<path class="st16" d="M3191,731.8c0,32.1,0.1,64.1,0,96.2c0,17.2-4.6,31.2-25.3,32c-21.8,0.9-29-12.9-29.1-31.6
		c-0.3-65.1-0.3-130.2,0-195.2c0.1-18.6,7.4-33.1,28.7-32.5c19.9,0.5,25.5,14.6,25.6,32C3191,665.7,3191,698.8,3191,731.8z"/>
	<path class="st16" d="M3802.5,766.7c0-20.3-1.2-40.8,0.3-61c2.2-28.4,24.2-38.8,45.9-20.2c10.9,9.4,13.6,1.8,20.2-2.1
		c17.5-10.3,35.8-14.9,46.6,7.7c10.6,22.1-4.7,33.1-23.2,37.3c-29.8,6.7-38.3,25.1-35.8,53.2c1.5,16.3,0.3,32.9,0.2,49.4
		c-0.2,17.9-7.7,31.1-26.9,30.7c-18.5-0.4-27-13.3-27.4-31C3802.1,809.3,3802.5,788,3802.5,766.7z"/>
</g>
<g>
	<path class="st17" d="M503.1,2372.4c12.4-5.8,17.8,2.5,23.9,10.7c32,43.6,64.3,87,96.4,130.6c15.1,20.5,15.1,20.5,29.8,1.1
		c33.5-44.3,67-88.5,100.4-132.9c5.6-7.4,10.7-15.3,23.3-8.6c-39.1,51.8-77.5,103.6-117.2,154.5c-10.1,12.9-9.8,21,0.3,33.7
		c43.6,54.9,86.1,110.8,129.2,166.6c-13.2,6.7-18.8-1.4-24.9-9.4c-37.2-48.5-74.6-96.9-111.9-145.3c-4.2-5.4-8.6-10.6-14.2-17.5
		c-39.7,51.7-79.4,101.7-116.9,153.2c-12.2,16.7-25,22.1-45.1,21.9c-99.1-1.1-198.3-0.9-297.4-0.1c-15.9,0.1-19.5-3.9-19.4-19.6
		c0.6-154,0.6-308,0-461.9c-0.1-14.6,3.3-18.6,18.3-18.5c98.4,0.7,196.9,0.3,295.3,0.6c5.8,0,16.5-5.3,16.8,5.7
		c0.4,13.1-11.5,7.1-17.6,7.1c-93.5,0.4-187,0.6-280.5-0.1c-14.7-0.1-18.9,3.6-18.7,18.6c0.9,61.2,0.9,122.3,0,183.5
		c-0.2,14.6,4.7,17.2,17.8,17.2c86.5-0.5,173-0.3,259.5-0.3c4.9,0,9.8-0.1,14.8,0.1c4,0.1,6.6,2,6.9,6.2c0.4,5.4-2.8,7.5-7.6,7.7
		c-4.9,0.2-9.8,0.1-14.8,0.1c-85.1,0-170.2,0.3-255.2-0.3c-15.5-0.1-21.8,2.3-21.5,20.2c1.3,67.5,0.9,135,0.2,202.5
		c-0.2,14,3.9,17.7,17.7,17.6c99.1-0.5,198.3-0.4,297.4,0.4c9,0.1,12.5-4,16.7-9.5c38.9-50.7,77.6-101.7,117-152
		c7-8.9,6.8-14.2,0-23c-36.3-47.4-72-95.4-107.7-143.2C509.9,2384.4,503.9,2379.9,503.1,2372.4z"/>
	<path class="st17" d="M835.6,2459.9c4.4,0.4,4.4-3.2,5.4-5.4c31.2-64.8,82.4-96.2,149.3-91.6c62.3,4.3,110.2,44.4,130.3,111.6
		c18.6,62.1,16.1,123.7-13,182.4c-28.1,56.7-75,84.3-138.1,81.4c-61.9-2.8-106.2-32.5-129.3-91.3c-0.7-1.8-1.7-3.4-2.9-5.9
		c-6.3,3.3-3.9,8.5-3.9,12.6c-0.1,60.5,0.2,121-0.3,181.5c0,6.3,5.7,18.2-7.3,17.7c-12.4-0.5-6.4-12.1-6.4-18.5
		c-0.4-147.7-0.3-295.4-0.3-443.1c0-3.5,0-7,0-10.6c0-5.1,0.2-10.1,7.4-10c7.4,0.2,6.8,5.7,6.9,10.5c0.1,21.1-0.2,42.2,0.2,63.3
		C833.6,2449.7,830.8,2455.5,835.6,2459.9z M833.7,2555.9c0.6,27.5,3.8,54.6,13.8,80.5c21,54.5,66.6,87.2,126.1,88.6
		c58.3,1.4,99.8-26.2,123.3-78.3c28.5-63.2,29.4-128.2,0.8-191.6c-42.9-95.4-170.1-106.5-230.4-20.9
		C841.7,2470.7,833.3,2512.2,833.7,2555.9z"/>
	<path class="st17" d="M1519.7,2553.7c-45,0-90,0.4-135-0.2c-12.8-0.2-18.2,3.1-15.9,16.7c3.2,18.6,4.4,37.5,9.8,55.8
		c19.7,66,65.2,100.2,133.7,99.4c71.2-0.8,117.6-36.4,135.1-103.5c1.7-6.7,0.7-18.8,12.2-15.2c8.8,2.7,3,12.1,1.6,18.3
		c-18.1,79.4-89.9,124.4-176.6,112.4c-57.1-7.9-95.7-38.5-114.4-92.4c-21.7-62.4-23.8-125.3,3.2-186.9
		c28.8-65.7,87.5-101.2,153.9-95c68.9,6.4,118,50.9,135,122.5c4.2,17.8,5.9,35.9,6.5,54.3c0.3,11.1-3,14.1-14.1,13.9
		C1609.7,2553.3,1564.7,2553.7,1519.7,2553.7z M1510.8,2539.8c34.5,0,68.9,0,103.4,0c45,0,45,0,36.3-44.1
		c-18.3-92.6-102.1-142.7-186.4-109.7c-57.7,22.6-81.8,70.9-92.9,128.5c-3.8,19.6-0.8,27,21.5,25.9
		C1431.9,2538.3,1471.4,2539.8,1510.8,2539.8z"/>
	<path class="st17" d="M2173.9,2738.6c-20.5,0.1-40.6-2.4-60.3-8c-52.9-15.1-83-55.5-82.9-110.8c0-5.4-1.7-12.1,7.2-12.1
		c6.9,0,7.1,5.4,7.5,10.4c0.5,5.6,0.6,11.3,1.4,16.8c5.2,36.1,23,63.5,57.4,77.2c44.9,17.9,90.7,18.6,135.6,0.4
		c31.6-12.8,51.8-35.7,52.1-72.1c0.3-36.4-21.8-56.4-52.4-69c-30.7-12.6-63.8-16.9-95.4-26.2c-15.5-4.6-31.1-8.9-46.3-14.2
		c-28.7-10-47.8-28.1-51.7-60.1c-4.3-35.9,5.5-65.4,36-86.3c45-30.7,129.6-29.5,174.5,1.9c28.1,19.6,36.8,48.4,39.4,80.2
		c0.4,5,0.7,10.2-6.8,10.3c-5.6,0-6.9-3.6-7.3-8.2c-0.5-4.9-1.2-9.8-1.8-14.6c-1.6-12.8-6-24.5-13.1-35.2
		c-35.2-53.7-154.7-58.1-193.9-7.2c-28.9,37.6-15.3,89.7,29.9,105.2c40.5,13.9,82.4,23.5,123.6,35.5c11.4,3.3,22.7,7.6,33.4,12.7
		c64.5,30.6,55.7,117.2,8.1,148.3C2244.2,2729.4,2212.2,2738.5,2173.9,2738.6z"/>
	<path class="st17" d="M1854.6,2738.7c-23.1,0-42.6-2.2-61.7-7.5c-55.5-15.6-84.5-53.3-85.1-110.7c-0.1-5.3-2.4-12.3,6.5-12.6
		c8.5-0.3,7.6,6.5,7.8,12c2.5,68.7,46.9,97.3,102.9,103.8c34.9,4.1,68.9,1.3,100.4-15.3c27.5-14.5,43.2-36.9,42.8-69.4
		c-0.4-32.5-18.8-51.8-46-64.5c-32.1-15-67.5-18.9-101.1-29.1c-16.1-4.9-32.4-9.4-48.3-15c-28-9.8-46.5-28.2-50.3-58.9
		c-4.2-33.8,4.2-62.8,32.5-83.9c45.8-34.2,135.9-33.5,181.3,1.4c25.4,19.5,34.5,46.7,35.7,77.5c0.2,5,1,10.2-6.4,10.6
		c-7.5,0.4-6.7-4.9-7.4-9.8c-9.1-58.7-34.2-82.8-93.5-89.2c-31.9-3.4-63.4-2-92.1,14.7c-26.9,15.6-39.4,39.3-36.9,70.3
		c2.4,29.7,20.5,47.3,47.4,55.4c41.7,12.6,84,23,125.7,35.6c32.6,9.9,61.9,25.5,70.8,62.1c13.8,56.7-19.7,104.4-82.4,117.5
		C1882.1,2736.9,1866.8,2739.9,1854.6,2738.7z"/>
	<path class="st17" d="M1208.1,2450.8c21.4-53,60.9-79.9,115.5-87.2c6.2-0.8,12.6-0.8,18.9-1c4.6-0.1,8.4,1.1,8.2,6.9
		c-0.2,5.6-3.7,6.9-8.4,6.8c-2.1,0-4.2-0.1-6.3,0.1c-69.8,5.7-114.9,48.4-124.4,117.8c-6.9,50.4-2.1,101.1-3.3,151.6
		c-0.5,23.9,0.1,47.8-0.2,71.7c-0.1,4.8,3,12.2-6.1,12.8c-9.3,0.7-7.3-6.5-7.3-11.7c-0.1-111.8-0.1-223.5,0-335.3
		c0-5.1-2.3-12.4,6.7-12.5c9.2-0.1,6.6,7.4,6.7,12.4C1208.3,2405.8,1208.1,2428.3,1208.1,2450.8z"/>
	<g>
		<path class="st18" d="M1576.5,3019.8c0-16.3-4.9-19.4-20.1-19.4c-241.1,0.5-482.3,0.5-723.4-0.1c-16.9,0-20.7,4.8-20.7,21.1
			c0.5,231.3,0.6,462.6-0.1,693.9c0,17.3,5.4,20.6,21.3,20.5c107.3-0.5,214.5-0.4,321.8-0.4c0.5,0.2,1,0.3,1.5,0.5
			c12.6,4.4,23.6,3.8,32.3-0.5c1.7,0,3.4,0,5,0c120.2,0,240.4-0.2,360.7,0.3c15.1,0.1,21.8-1.9,21.7-19.9
			C1575.9,3483.9,1575.9,3251.8,1576.5,3019.8z"/>
		<g>
			<path class="st17" d="M1324.8,3547.8c-49.5-1.5-92-17.1-122-59.2c-6.9-9.7-9.6-17,4.3-22.3c5.2-2,10.2-5,14.5-8.5
				c19.4-16,33.9-17.6,52.4,5.3c18.7,23.1,47.6,24.7,75.7,15c13-4.5,21.3-14.3,22.7-27.9c1.5-13.9-6.2-24.3-17.4-31.6
				c-21.9-14.3-47.1-21.9-70.2-33.6c-37.8-19.1-65.9-45.1-68.3-91c-2.7-49.9,21.3-85.1,69.4-99.9c48.9-15.1,101.1,0.4,128.9,38.3
				c6.9,9.3,11.9,17.5-3.7,23.6c-6.4,2.5-12.2,7-17.7,11.3c-14.7,11.7-28.1,19.3-41.1-3c-4.5-7.6-14.8-10.7-24.1-11.5
				c-16.7-1.5-31.6,2.7-38,19.7c-6.2,16.6-0.5,31.3,15,39.6c21.6,11.5,44.3,21.2,66.4,31.8c40.2,19.3,70.5,46.5,73.4,94.5
				c3.7,62.4-38.4,105-107.5,109.3C1333.3,3548,1329.1,3547.8,1324.8,3547.8z"/>
			<path class="st17" d="M1157,3327.8c0,37.9,0.4,75.9-0.1,113.8c-0.7,53-26.3,89.7-69.5,101.1c-58.8,15.4-114.1-4.3-140.3-49.1
				c-5.8-9.9-4.6-14.6,5.3-19.2c6.9-3.2,13.3-7.8,19.7-12.2c15.9-11,29.4-21.7,43.2,5c9,17.4,29.4,17.7,47.2,12.2
				c19.1-5.9,21.3-22.9,21.4-39.4c0.4-75.2,0.8-150.4-0.1-225.5c-0.2-17.2,3.9-22.7,21.8-22.3c51.5,1.1,51.6,0.3,51.6,51.3
				C1157.1,3271.6,1157.1,3299.7,1157,3327.8C1157.1,3327.8,1157,3327.8,1157,3327.8z"/>
		</g>
	</g>
	<path class="st19" d="M833.7,2555.9c-0.4-43.8,8-85.2,33.7-121.7c60.3-85.6,187.5-74.4,230.4,20.9c28.5,63.4,27.7,128.4-0.8,191.6
		c-23.5,52.1-65,79.8-123.3,78.3c-59.5-1.5-105.1-34.2-126.1-88.6C837.5,2610.5,834.3,2583.5,833.7,2555.9z"/>
	<path class="st19" d="M1510.8,2539.8c-39.4,0-78.8-1.5-118.1,0.6c-22.3,1.1-25.3-6.3-21.5-25.9c11.1-57.6,35.2-105.9,92.9-128.5
		c84.3-33,168.1,17.1,186.4,109.7c8.7,44.1,8.7,44.1-36.3,44.1C1579.7,2539.8,1545.2,2539.8,1510.8,2539.8z"/>
</g>
<g>
	<path class="st20" d="M3204.8,3019.7c228.7,0,457.3,0,686,0c74.9,0,116.6,41.8,116.6,116.8c0,182.2,0.1,364.3,0,546.5
		c-0.3,362.6-267,676.7-626.9,723.3c-173.5,22.5-351.1,27.7-517.8-44.3c-262.6-113.4-415.7-312.6-455-597.4
		c-8.9-64.7-4.4-129.6-4.7-194.5c-0.8-144.4-0.3-288.7-0.2-433.1c0-75.3,41.5-117.3,116-117.3
		C2747.5,3019.6,2976.2,3019.7,3204.8,3019.7z M2931.8,3523.5c0-59.3-0.9-107.8,0.4-156.2c0.5-18.3-5.1-22.7-22.8-22.4
		c-77.5,1-155,1.3-232.5-0.1c-21.7-0.4-24.8,7.4-24.6,26.5c0.9,89.1,0.7,178.3,0.3,267.4c-0.2,42.8,4.7,85,14.8,126.5
		c66.7,274.7,324.1,450.3,604.7,412.8c263.2-35.1,452.6-231,478.3-494.1c1.8-18.1-1.1-25.5-21.8-25.2c-78.5,1.2-157,1-235.4,0.1
		c-15.9-0.2-20.7,5.1-24,19.9c-33.1,150.6-131,227.4-285,224.6c-117.1-2.1-224.9-93.1-246.8-208.1
		C2926,3634.6,2935.1,3573.4,2931.8,3523.5z M3814.8,3312c6.8-13.3-6.2-14.3-14.9-16.5c-78.5-20-157.1-39.5-235.7-59.3
		c-11.4-2.9-18.3-0.7-21.4,11.8c-19.4,79.6-39.1,159.2-58.9,238.7c-2.7,11-1.4,17.9,11.6,21.1c79.6,19.2,159.2,38.8,238.6,59
		c11.9,3,16.7,0.9,19.7-11.4C3773.7,3474.9,3794.1,3394.6,3814.8,3312z"/>
</g>
<g>
	<path class="st21" d="M398.8,4956.4h23.1l88.1,415.4h23.7l96.2-409.1h26.9l96.2,409.1h23.7l88.1-415.4h21.9l-91.8,437.2h-60
		l-91.8-399.8l-91.8,399.8h-59.3L398.8,4956.4z"/>
	<path class="st21" d="M983.2,5384.6c-18.1-9.8-30.6-25.8-37.5-48.1c-6.9-22.3-10.3-54-10.3-95.3c0-43.3,3.7-76.7,11.2-100.3
		c7.5-23.5,20.3-40.3,38.4-50.3c18.1-10,44-15,77.8-15c33.7,0,59.7,5.1,77.8,15.3c18.1,10.2,30.8,27.1,38.1,50.6
		c7.3,23.5,10.9,56.7,10.9,99.6c0,41.2-3.3,72.9-10,94.9c-6.7,22.1-19.1,38.1-37.2,48.1c-18.1,10-44.7,15-79.6,15
		C1027.8,5399.3,1001.3,5394.4,983.2,5384.6z M1129.3,5365.9c14.4-8.5,24-22.3,29-41.2c5-18.9,7.5-46.7,7.5-83.4
		c0-39.6-2.7-69.4-8.1-89.6c-5.4-20.2-15.3-34.5-29.7-42.8c-14.4-8.3-35.9-12.5-64.6-12.5c-28.7,0-50.5,4.2-65.3,12.5
		c-14.8,8.3-25,22.7-30.6,43.1c-5.6,20.4-8.4,50.2-8.4,89.3c0,36.2,2.6,63.9,7.8,83.1c5.2,19.2,15.2,33,30,41.5
		c14.8,8.5,37,12.8,66.5,12.8C1093,5378.7,1115,5374.4,1129.3,5365.9z"/>
	<path class="st21" d="M1275.8,5081.3h21.2v48.7c36.2-27.1,77.7-45.4,124.3-55v22.5c-17.5,3.3-37.2,9.6-59,18.7
		c-21.9,9.2-37.4,17.3-46.5,24.4l-18.1,10.6v242.4h-21.9V5081.3z"/>
	<path class="st21" d="M1481.3,4937.7h21.9v275.5h60l108.1-131.8h25.6l-115.6,140.5l119.9,171.8h-25.6l-113.1-160.5l-59.3-0.6v161.2
		h-21.9V4937.7z"/>
	<path class="st21" d="M1863.2,5259h10l34.2,126h3l39.9-123.4h10.2l39.6,123.4h3.5l33.9-126h10l-36.4,134.7h-18.6l-37.2-120.7
		l-37.4,120.7h-18.3L1863.2,5259z"/>
	<path class="st21" d="M2077.9,5205.1h9.2v14.8h-9.2V5205.1z M2078.2,5259h9.2v134.7h-9.2V5259z"/>
	<path class="st21" d="M2146,5392.2c-4.7-2.8-8-7.6-10.1-14.4c-2.1-6.8-3.1-16.6-3.1-29.4v-80.8h-21.3v-8.6h21.3v-43.6h9.2v43.6
		h49.3v8.6H2142v70.6c0,13.6,0.5,23.7,1.5,30.3c1,6.6,3.2,11.4,6.6,14.7c3.4,3.2,9,4.8,16.7,4.8l26.1-2.4l1.3,8.6
		c-14.7,1.4-24.3,2.2-28.8,2.2C2157.2,5396.3,2150.7,5395,2146,5392.2z"/>
	<path class="st21" d="M2216.9,5197h9.4v70.3c16.3-7.2,32.1-10.8,47.4-10.8c12,0,21.1,2,27.3,5.9c6.2,4,10.5,10.6,12.9,20.1
		c2.4,9.4,3.6,23.2,3.6,41.3v69.8h-9.7v-69.5c0-16.5-0.9-28.9-2.7-37c-1.8-8.2-5.2-13.9-10.1-17.1c-4.9-3.2-12.4-4.8-22.5-4.8
		c-7.4,0-14.2,0.7-20.5,2c-6.3,1.3-12.8,3.4-19.7,6.1l-6.2,2.4v118h-9.4V5197z"/>
	<path class="st21" d="M2402.2,5043.2h98l47.5,269.6h19.3l47.5-269.6h98l-74,350.4h-162.2L2402.2,5043.2z"/>
	<path class="st21" d="M2740.4,5378.3c-14.1-14.8-21.1-37.3-21.1-67.5c0-28.9,7.7-49.1,23.2-60.8c15.5-11.6,40.6-18.3,75.4-20.1
		l38.6-2.1v-12c0-5.9-1.5-9.6-4.4-11.2c-3-1.6-9.1-2.3-18.5-2.3l-46.9,1c-29.9,1.4-45.9,1.7-48,1l-2.1-61
		c37.5-11.5,74-17.2,109.5-17.2c35.8,0,61.5,7,77.2,21.1c15.6,14.1,23.5,36.9,23.5,68.6v91.8c0.3,3.8,0.7,8.1,1,12.8
		c0.3,4.7,1,7.8,2.1,9.4c1,1.6,2.9,2.7,5.7,3.4l-2.6,67.3c-21.6,0-37.6-1-48.2-2.9c-10.6-1.9-22.2-6.3-34.7-13.3
		c-21.6,10.8-43.3,16.2-65.2,16.2C2776,5400.4,2754.5,5393,2740.4,5378.3z M2851.2,5325.3l5.2-0.5v-36l-27.6,2.1
		c-5.9,0.7-10.6,2.8-14.1,6.3c-3.5,3.5-5.2,8.3-5.2,14.6c0,10.8,5.4,16.2,16.2,16.2C2831.2,5327.9,2839.8,5327.1,2851.2,5325.3z"/>
	<path class="st21" d="M3006.6,5132.9h90.2v22.4c30.2-15.6,55.3-25.4,75.1-29.2v91.3c-10.8,2.4-24.2,4.7-40.2,6.8
		c-2.8,0.4-11.5,1.7-26.1,4.2l-8.3,1.6v163.7h-90.7V5132.9z"/>
	<path class="st21" d="M3209.5,5132.9h90.7v260.7h-90.7V5132.9z M3210,5029.1h90.7v87.1H3210V5029.1z"/>
	<path class="st21" d="M3370.3,5369.7c-19-20.5-28.4-54.1-28.4-100.6c0-47.6,10-83.3,30-107.2c20-23.8,50.5-35.7,91.5-35.7
		c37.9,0,67,9.7,87.3,29.2c20.3,19.5,30.5,48,30.5,85.5l-7.3,61h-140.8c1,6.3,3,10.8,6,13.6c2.9,2.8,7,4.4,12.3,5
		c5.2,0.5,14.1,0.8,26.6,0.8c12.5,0,27.4-0.3,44.6-1c17.2-0.7,28.9-1.4,35.2-2.1l14.1-1.6l1,65.2c-38.6,12.5-75.8,18.8-111.6,18.8
		C3419.6,5400.4,3389.3,5390.2,3370.3,5369.7z M3492.6,5234.1c0-13.6-2.1-22.7-6.3-27.4c-4.2-4.7-12.2-7-24-7
		c-11.8,0-19.6,2.3-23.5,7c-3.8,4.7-5.9,13.8-6.3,27.4H3492.6z"/>
	<path class="st21" d="M3666.8,5390.3c-12.2-6.8-20.9-17.5-26.1-32.1c-5.2-14.6-7.8-34.4-7.8-59.4v-89.2h-26.6v-76.7h26.6v-67.8
		h90.7v67.8h51.6v76.7h-51.6v94.9c0,10.4,3.8,15.3,11.5,14.6l35.5,0.5l3.1,71.4c-15,3.8-26,6.3-33.1,7.6c-7.1,1.2-14.9,1.8-23.2,1.8
		C3695.8,5400.4,3679,5397,3666.8,5390.3z"/>
	<path class="st21" d="M3909.3,5393.7h-56.3l-57.4-260.7h88.6l35.5,184.1h8.9l34.9-184.1h88.7l-80.3,366.1h-88.1L3909.3,5393.7z"/>
	<path class="st21" d="M678.8,5712.9c-7.8-4.2-13.2-11.1-16.2-20.7c-3-9.6-4.4-23.3-4.4-41.1c0-18.7,1.6-33.1,4.8-43.2
		c3.2-10.1,8.8-17.4,16.6-21.7s19-6.5,33.5-6.5s25.7,2.2,33.5,6.6c7.8,4.4,13.3,11.7,16.4,21.8c3.1,10.1,4.7,24.5,4.7,43
		c0,17.8-1.4,31.4-4.3,40.9c-2.9,9.5-8.2,16.4-16,20.7c-7.8,4.3-19.3,6.5-34.3,6.5S686.6,5717.2,678.8,5712.9z M741.8,5704.9
		c6.2-3.7,10.4-9.6,12.5-17.8c2.2-8.2,3.2-20.2,3.2-36c0-17.1-1.2-29.9-3.5-38.6c-2.3-8.7-6.6-14.9-12.8-18.4
		c-6.2-3.6-15.5-5.4-27.9-5.4c-12.4,0-21.8,1.8-28.1,5.4c-6.4,3.6-10.8,9.8-13.2,18.6c-2.4,8.8-3.6,21.6-3.6,38.5
		c0,15.6,1.1,27.6,3.4,35.8c2.2,8.3,6.6,14.2,12.9,17.9c6.4,3.7,15.9,5.5,28.7,5.5C726.2,5710.4,735.7,5708.5,741.8,5704.9z"/>
	<path class="st21" d="M810.1,5590.8h-18.6v-8.6h18.6V5566c0-12.6,1.1-22.3,3.2-29.2c2.2-6.9,5.7-11.8,10.6-14.7
		c4.9-2.9,11.7-4.3,20.3-4.3l25,1.6l-0.3,7.5c-13.6-0.2-21.6-0.3-23.8-0.4c-2.2-0.1-3.6-0.1-4.2-0.1c-8.6,0-14.4,3.2-17.2,9.6
		c-2.9,6.4-4.3,16.5-4.3,30.3v15.9h43.4v8.6h-43.4v126h-9.4V5590.8z"/>
	<path class="st21" d="M1053.9,5707.7v9.2H952.3v-188.5h10v179.4H1053.9z"/>
	<path class="st21" d="M1078.9,5528.3h9.2v14.8h-9.2V5528.3z M1079.2,5582.2h9.2v134.7h-9.2V5582.2z"/>
	<path class="st21" d="M1136.3,5717.4l-5.7-0.5v-196.6h9.2v70.6c15.1-7.4,30.7-11,46.9-11c11.7,0,20.7,2.3,27.2,6.9
		c6.5,4.6,11,11.8,13.7,21.5c2.7,9.8,4,23.2,4,40.3c0,19-1.8,33.5-5.5,43.4c-3.7,9.9-10.1,16.8-19.4,20.9c-9.2,4-22.8,6.1-40.5,6.1
		C1154.9,5718.7,1144.9,5718.3,1136.3,5717.4z M1203.1,5704.3c7.2-4.2,12.1-10.8,14.8-19.7c2.7-8.9,4-21.3,4-37.3
		c0-15.3-1.1-27.1-3.2-35.4c-2.2-8.3-5.8-14.4-11-18c-5.2-3.7-12.7-5.5-22.4-5.5c-12.9,0-28.1,3.6-45.5,10.8V5709
		c5,0.4,8.4,0.5,10.2,0.5c11.5,0.7,18.6,1.1,21.3,1.1C1185.3,5710.7,1195.9,5708.5,1203.1,5704.3z"/>
	<path class="st21" d="M1269.1,5582.2h9.2v21c15.6-11.7,33.5-19.6,53.6-23.7v9.7c-7.5,1.4-16,4.1-25.5,8.1
		c-9.4,4-16.1,7.5-20.1,10.5l-7.8,4.6v104.5h-9.4V5582.2z"/>
	<path class="st21" d="M1358.3,5709c-6.2-6.8-9.3-16.2-9.3-28.3c0-12,3-21.2,9-27.6c6-6.4,15.5-10.5,28.4-12.3l51.2-5.1V5622
		c0-11.1-2.3-19.4-7-24.9c-4.7-5.5-11-8.2-19.1-8.2c-7.9,0-14.9,0.3-20.9,0.8c-6,0.5-17.3,1.8-33.8,3.8l-0.8-8.9
		c18.7-3.2,35.6-4.8,50.9-4.8c13.8,0,24,3.5,30.6,10.4c6.6,6.9,9.8,17.6,9.8,31.9v77.6c0.2,2.7,2.1,5.1,5.7,7.1
		c3.6,2.1,8.3,3.5,14.3,4.2l-0.5,8.3c-5.9,0-11.4-1.1-16.6-3.2c-5.1-2.2-8.8-5-11.2-8.6c-18,7.9-36.1,11.9-54.4,11.9
		C1373.3,5719.3,1364.5,5715.9,1358.3,5709z M1430.1,5702.3l7.5-3v-54.7l-50.1,4.8c-9.9,0.7-17,3.5-21.4,8.2
		c-4.4,4.8-6.6,11.9-6.6,21.4c0,20.8,8.4,31.2,25.3,31.2C1400.5,5710.4,1415.6,5707.7,1430.1,5702.3z"/>
	<path class="st21" d="M1490.7,5582.2h9.2v21c15.6-11.7,33.5-19.6,53.6-23.7v9.7c-7.5,1.4-16,4.1-25.5,8.1
		c-9.4,4-16.1,7.5-20.1,10.5l-7.8,4.6v104.5h-9.4V5582.2z"/>
	<path class="st21" d="M1579,5528.3h9.2v14.8h-9.2V5528.3z M1579.3,5582.2h9.2v134.7h-9.2V5582.2z"/>
	<path class="st21" d="M1635.6,5703.2c-8.1-10.7-12.1-27.3-12.1-50c0-25.1,4.4-43.7,13.1-55.6c8.7-11.9,22.5-17.9,41.3-17.9
		c17.2,0,30,5.2,38.2,15.6c8.3,10.4,12.4,26.8,12.4,49v8.9h-95.3c-0.2,14.2,1.2,25.4,4,33.5c2.9,8.2,7.7,14.2,14.5,18
		c6.8,3.9,16.4,5.8,28.8,5.8c4.7,0,10.2-0.2,16.6-0.5c6.4-0.4,12.4-0.7,18.2-1.1l8.1-0.8l0.5,8.9c-21.9,1.4-37.3,2.2-46.3,2.2
		C1657.7,5719.3,1643.7,5713.9,1635.6,5703.2z M1718.6,5644.7c0-19.9-3.2-34.3-9.7-43.1c-6.5-8.8-16.7-13.2-30.7-13.2
		c-14.9,0-26.1,4.6-33.7,13.7c-7.5,9.2-11.4,23.3-11.6,42.6H1718.6z"/>
	<path class="st21" d="M1766,5716l-7.8-1.1l1.1-9.2c21.2,3.2,36.4,4.8,45.8,4.8c13.5,0,23.3-2.4,29.6-7.1c6.3-4.8,9.4-12.3,9.4-22.8
		c0-7.4-1.5-13-4.4-16.8c-3-3.9-6.7-6.6-11.3-8.1c-4.6-1.5-11.1-2.9-19.5-4.2c-3.2-0.4-5.7-0.7-7.3-1.1c-12.2-2-21.5-4.3-27.7-6.9
		c-6.3-2.6-10.7-6-13.3-10.1c-2.6-4.1-3.9-9.7-3.9-16.7c0-14,4.2-23.7,12.7-29c8.4-5.3,20.6-7.9,36.6-7.9c14.2,0,26.4,0.8,36.6,2.4
		l6.7,1.3l-0.5,8.6c-8.6-1.4-16.9-2.5-24.9-3.2c-8-0.7-14.3-1.1-19-1.1c-13.6,0-23.5,2.3-29.5,7c-6,4.7-9,11.4-9,20.2
		c0,6.6,1.6,11.6,4.7,14.9c3.1,3.3,7,5.6,11.7,6.9c4.7,1.3,12.8,3,24.5,5.1c12.4,2.2,21.7,4.4,27.9,6.7c6.2,2.3,10.9,5.8,14,10.5
		c3.1,4.7,4.7,11.3,4.7,19.9c0,14-4.2,24.2-12.5,30.4c-8.3,6.3-21.1,9.4-38.1,9.4C1794,5719.3,1781.6,5718.2,1766,5716z"/>
	<path class="st21" d="M1947.9,5709c-6.2-6.8-9.3-16.2-9.3-28.3c0-12,3-21.2,9-27.6c6-6.4,15.5-10.5,28.4-12.3l51.2-5.1V5622
		c0-11.1-2.3-19.4-7-24.9c-4.7-5.5-11-8.2-19.1-8.2c-7.9,0-14.9,0.3-20.9,0.8c-6,0.5-17.3,1.8-33.8,3.8l-0.8-8.9
		c18.7-3.2,35.6-4.8,50.9-4.8c13.8,0,24,3.5,30.6,10.4c6.6,6.9,9.8,17.6,9.8,31.9v77.6c0.2,2.7,2.1,5.1,5.7,7.1
		c3.6,2.1,8.3,3.5,14.3,4.2l-0.5,8.3c-5.9,0-11.4-1.1-16.6-3.2c-5.1-2.2-8.8-5-11.2-8.6c-18,7.9-36.1,11.9-54.4,11.9
		C1962.8,5719.3,1954.1,5715.9,1947.9,5709z M2019.7,5702.3l7.5-3v-54.7l-50.1,4.8c-9.9,0.7-17,3.5-21.4,8.2
		c-4.4,4.8-6.6,11.9-6.6,21.4c0,20.8,8.4,31.2,25.3,31.2C1990,5710.4,2005.1,5707.7,2019.7,5702.3z"/>
	<path class="st21" d="M2080.3,5582.2h9.2v10.8c9.2-4.8,17.5-8.3,25.2-10.2c7.6-2,15.5-3,23.6-3c11.7,0,20.5,2,26.5,5.9
		c6,4,10.2,10.7,12.7,20.2c2.4,9.5,3.6,23.3,3.6,41.2v69.8h-9.2v-69.8c0-15.4-0.9-27.3-2.6-35.6c-1.7-8.3-4.8-14.2-9.4-17.8
		c-4.6-3.6-11.3-5.4-20.1-5.4c-8.1,0-16.3,1.1-24.6,3.2c-8.3,2.2-14.7,4.4-19,6.7l-6.5,3.5v115h-9.4V5582.2z"/>
	<path class="st21" d="M2226.8,5703c-7-10.9-10.5-27.8-10.5-50.8c0-17.4,1.9-31.4,5.8-41.9c3.9-10.5,10.1-18.2,18.7-23.2
		c8.6-4.9,20.2-7.4,34.7-7.4c5.4,0,11.1,0.3,17.2,0.9c6.1,0.6,11.4,1.5,15.9,2.6v-63h9.2v196.6h-9.2v-11.6
		c-14.2,9.3-29.7,14-46.6,14C2245.5,5719.3,2233.8,5713.8,2226.8,5703z M2284.8,5707.2c7.8-2.3,13.6-4.7,17.4-7l6.5-3.5v-104.8
		c-13.1-2.5-24.7-3.8-34.7-3.8c-12,0-21.5,2.2-28.4,6.6c-6.9,4.4-11.8,11-14.7,19.9c-2.9,8.9-4.3,20.7-4.3,35.4
		c0,20.1,2.7,35.2,8.1,45.4c5.4,10.1,14.7,15.2,28,15.2C2269.6,5710.7,2277,5709.5,2284.8,5707.2z"/>
	<path class="st21" d="M2433.6,5537.2v85.4h84.3v8.9h-84.3v85.4h-10v-188.5h108v8.9H2433.6z"/>
	<path class="st21" d="M2554.5,5582.2h9.2v21c15.6-11.7,33.5-19.6,53.6-23.7v9.7c-7.5,1.4-16,4.1-25.5,8.1
		c-9.4,4-16.1,7.5-20.1,10.5l-7.8,4.6v104.5h-9.4V5582.2z"/>
	<path class="st21" d="M2643.8,5709c-6.2-6.8-9.3-16.2-9.3-28.3c0-12,3-21.2,9-27.6c6-6.4,15.5-10.5,28.4-12.3l51.2-5.1V5622
		c0-11.1-2.3-19.4-7-24.9c-4.7-5.5-11-8.2-19.1-8.2c-7.9,0-14.9,0.3-20.9,0.8c-6,0.5-17.3,1.8-33.8,3.8l-0.8-8.9
		c18.7-3.2,35.6-4.8,50.9-4.8c13.8,0,24,3.5,30.6,10.4c6.6,6.9,9.8,17.6,9.8,31.9v77.6c0.2,2.7,2.1,5.1,5.7,7.1
		c3.6,2.1,8.3,3.5,14.3,4.2l-0.5,8.3c-5.9,0-11.4-1.1-16.6-3.2c-5.1-2.2-8.8-5-11.2-8.6c-18,7.9-36.1,11.9-54.4,11.9
		C2658.8,5719.3,2650,5715.9,2643.8,5709z M2715.6,5702.3l7.5-3v-54.7l-50.1,4.8c-9.9,0.7-17,3.5-21.4,8.2
		c-4.4,4.8-6.6,11.9-6.6,21.4c0,20.8,8.4,31.2,25.3,31.2C2686,5710.4,2701.1,5707.7,2715.6,5702.3z"/>
	<path class="st21" d="M2776.2,5582.2h9.2v10.8c14.4-8.8,29.5-13.2,45.5-13.2c17.2,0,28.8,4.8,34.7,14.5c5.2-3.6,12.8-6.9,22.9-10
		c10.1-3.1,20.4-4.6,31-4.6c10.8,0,19,2.2,24.8,6.5c5.7,4.3,9.7,11.2,12,20.7c2.2,9.5,3.4,22.9,3.4,40.1v69.8h-9.4v-69.8
		c0-16-0.9-28.1-2.6-36.2c-1.7-8.2-4.8-14-9.4-17.4c-4.6-3.4-11.4-5.1-20.6-5.1c-8.6,0-17.1,1.1-25.3,3.2
		c-8.3,2.2-14.1,4.4-17.5,6.7l-5.9,3.2c3.4,0.7,5.1,15.7,5.1,45v70.3h-9.4v-69.8c0-15.4-0.9-27.3-2.6-35.6
		c-1.7-8.3-4.8-14.2-9.3-17.8c-4.5-3.6-11.1-5.4-19.9-5.4c-7.9,0-15.8,1-23.8,3.1c-8,2.1-13.9,4.4-17.6,6.9l-5.7,3.5v115h-9.4
		V5582.2z"/>
	<path class="st21" d="M3007.6,5703.2c-8.1-10.7-12.1-27.3-12.1-50c0-25.1,4.4-43.7,13.1-55.6c8.7-11.9,22.5-17.9,41.3-17.9
		c17.2,0,30,5.2,38.2,15.6c8.3,10.4,12.4,26.8,12.4,49v8.9h-95.3c-0.2,14.2,1.2,25.4,4,33.5c2.9,8.2,7.7,14.2,14.5,18
		c6.8,3.9,16.4,5.8,28.8,5.8c4.7,0,10.2-0.2,16.6-0.5c6.4-0.4,12.4-0.7,18.2-1.1l8.1-0.8l0.5,8.9c-21.9,1.4-37.3,2.2-46.3,2.2
		C3029.6,5719.3,3015.6,5713.9,3007.6,5703.2z M3090.5,5644.7c0-19.9-3.2-34.3-9.7-43.1c-6.5-8.8-16.7-13.2-30.7-13.2
		c-14.9,0-26.1,4.6-33.7,13.7c-7.5,9.2-11.4,23.3-11.6,42.6H3090.5z"/>
	<path class="st21" d="M3122.3,5582.2h10l34.2,126h3l39.9-123.4h10.2l39.6,123.4h3.5l33.9-126h10l-36.4,134.7h-18.6l-37.2-120.7
		l-37.4,120.7h-18.3L3122.3,5582.2z"/>
	<path class="st21" d="M3350.3,5712.9c-7.8-4.2-13.2-11.1-16.2-20.7c-3-9.6-4.4-23.3-4.4-41.1c0-18.7,1.6-33.1,4.8-43.2
		c3.2-10.1,8.8-17.4,16.6-21.7s19-6.5,33.5-6.5c14.5,0,25.7,2.2,33.5,6.6c7.8,4.4,13.3,11.7,16.4,21.8c3.1,10.1,4.7,24.5,4.7,43
		c0,17.8-1.4,31.4-4.3,40.9c-2.9,9.5-8.2,16.4-16,20.7s-19.3,6.5-34.3,6.5S3358.1,5717.2,3350.3,5712.9z M3413.3,5704.9
		c6.2-3.7,10.4-9.6,12.5-17.8c2.2-8.2,3.2-20.2,3.2-36c0-17.1-1.2-29.9-3.5-38.6c-2.3-8.7-6.6-14.9-12.8-18.4
		c-6.2-3.6-15.5-5.4-27.9-5.4c-12.4,0-21.8,1.8-28.1,5.4c-6.4,3.6-10.8,9.8-13.2,18.6c-2.4,8.8-3.6,21.6-3.6,38.5
		c0,15.6,1.1,27.6,3.4,35.8c2.2,8.3,6.6,14.2,12.9,17.9c6.4,3.7,15.9,5.5,28.7,5.5C3397.6,5710.4,3407.1,5708.5,3413.3,5704.9z"/>
	<path class="st21" d="M3476.5,5582.2h9.2v21c15.6-11.7,33.5-19.6,53.6-23.7v9.7c-7.5,1.4-16,4.1-25.5,8.1
		c-9.4,4-16.1,7.5-20.1,10.5l-7.8,4.6v104.5h-9.4V5582.2z"/>
	<path class="st21" d="M3565.1,5520.2h9.4V5639h25.9l46.6-56.8h11l-49.8,60.6l51.7,74.1h-11l-48.7-69.2l-25.6-0.3v69.5h-9.4V5520.2z
		"/>
	<path class="st21" d="M3689.5,5716l-7.8-1.1l1.1-9.2c21.2,3.2,36.4,4.8,45.8,4.8c13.5,0,23.3-2.4,29.6-7.1
		c6.3-4.8,9.4-12.3,9.4-22.8c0-7.4-1.5-13-4.4-16.8c-3-3.9-6.7-6.6-11.3-8.1c-4.6-1.5-11.1-2.9-19.5-4.2c-3.2-0.4-5.7-0.7-7.3-1.1
		c-12.2-2-21.5-4.3-27.7-6.9c-6.3-2.6-10.7-6-13.3-10.1c-2.6-4.1-3.9-9.7-3.9-16.7c0-14,4.2-23.7,12.7-29c8.4-5.3,20.6-7.9,36.6-7.9
		c14.2,0,26.4,0.8,36.6,2.4l6.7,1.3l-0.5,8.6c-8.6-1.4-16.9-2.5-24.9-3.2c-8-0.7-14.3-1.1-19-1.1c-13.6,0-23.5,2.3-29.5,7
		c-6,4.7-9,11.4-9,20.2c0,6.6,1.6,11.6,4.7,14.9c3.1,3.3,7,5.6,11.7,6.9c4.7,1.3,12.8,3,24.5,5.1c12.4,2.2,21.7,4.4,27.9,6.7
		c6.2,2.3,10.9,5.8,14,10.5c3.1,4.7,4.7,11.3,4.7,19.9c0,14-4.2,24.2-12.5,30.4c-8.3,6.3-21.1,9.4-38.1,9.4
		C3717.5,5719.3,3705.1,5718.2,3689.5,5716z"/>
</g>
<g>
	<g class="st22">
		<path class="st21" d="M284.9,4715.5c323.4-10.4,646.9-16.3,970.3-20.4c323.4-3.9,646.9-5.7,970.3-5.8c323.4,0,646.9,1.7,970.3,5.7
			c323.4,4.1,646.9,10,970.3,20.5v7.7c-323.4,10.4-646.9,16.4-970.3,20.5c-323.4,3.9-646.9,5.7-970.3,5.7
			c-323.4,0-646.9-1.8-970.3-5.8c-323.4-4.1-646.9-10-970.3-20.4V4715.5z"/>
		<g>
			<path class="st21" d="M290.5,4832.1c-62.3,0-112.8-50.5-112.8-112.8s50.5-112.8,112.8-112.8c62.3,0,112.8,50.5,112.8,112.8
				S352.8,4832.1,290.5,4832.1z"/>
		</g>
		<g>
			<path class="st21" d="M4160.5,4832.1c62.3,0,112.8-50.5,112.8-112.8s-50.5-112.8-112.8-112.8c-62.3,0-112.8,50.5-112.8,112.8
				S4098.2,4832.1,4160.5,4832.1z"/>
		</g>
	</g>
</g>
</svg>
