<?xml version="1.0" encoding="utf-8"?>
<!-- Generator: Adobe Illustrator 25.0.0, SVG Export Plug-In . SVG Version: 6.00 Build 0)  -->
<svg version="1.1" id="Layer_1" xmlns="http://www.w3.org/2000/svg" xmlns:xlink="http://www.w3.org/1999/xlink" x="0px" y="0px"
	 viewBox="0 0 60 60" style="enable-background:new 0 0 60 60;" xml:space="preserve">
<style type="text/css">
	.st0{fill:#FFFFFF;}
	.st1{fill:#F1F1F1;}
	.st2{fill:#B52E31;}
</style>
<g>
	<g>
		<polygon class="st0" points="24.7,31.5 35.4,31.5 29.7,19.6 29.7,19.6 		"/>
		<path class="st0" d="M29.6,1l-27,9.6l4.1,35.7L29.6,59l23.2-12.9l4.5-35.7L29.6,1z M41.3,45l-3.7-8.5H22.5l-3.4,8.4L12.9,45
			L29.7,7.6v0v0l0,0l17.6,37.5L41.3,45z"/>
	</g>
	<g>
		<polygon class="st1" points="29.7,19.6 29.7,19.6 29.6,19.8 29.6,31.5 35.4,31.5 		"/>
		<polygon class="st2" points="57.3,10.4 57.3,10.4 57.3,10.4 		"/>
		<polygon class="st1" points="29.6,7.7 29.7,7.6 29.7,7.6 29.7,7.6 29.7,7.6 47.3,45.1 41.3,45 37.6,36.5 29.6,36.5 29.6,59 
			52.9,46.2 57.3,10.4 29.6,1 		"/>
	</g>
</g>
</svg>
