<?xml version="1.0" encoding="utf-8"?>
<!-- Generator: Adobe Illustrator 25.0.0, SVG Export Plug-In . SVG Version: 6.00 Build 0)  -->
<svg version="1.1" id="Layer_1" xmlns="http://www.w3.org/2000/svg" xmlns:xlink="http://www.w3.org/1999/xlink" x="0px" y="0px"
	 viewBox="0 0 60 60" style="enable-background:new 0 0 60 60;" xml:space="preserve">
<style type="text/css">
	.st0{fill:#FFFFFF;}
</style>
<g>
	<path class="st0" d="M27.7,1.1c-0.1,0-0.6,0.1-1,0.1c-5.6,0.6-11,2.9-15.5,6.7c-0.8,0.7-2.7,2.6-3.4,3.4C4.2,15.7,2,20.6,1.2,26.5
		c-0.2,1.3-0.2,5.7,0,7c0.8,5.9,3,10.8,6.7,15.2c0.7,0.8,2.6,2.7,3.4,3.4c4.4,3.7,9.4,5.9,15.2,6.7c1.3,0.2,5.7,0.2,7,0
		c5.9-0.8,10.8-3,15.2-6.7c0.8-0.7,2.7-2.6,3.4-3.4c3.7-4.4,5.9-9.4,6.7-15.2c0.2-1.3,0.2-5.7,0-7c-0.8-5.9-3-10.8-6.7-15.2
		c-0.7-0.8-2.6-2.7-3.4-3.4C44.3,4.2,39.3,2,33.5,1.2c-0.6-0.1-1.5-0.1-3.2-0.1C29,1.1,27.9,1.1,27.7,1.1L27.7,1.1z M28.1,4.2
		c0,0.8,0.1,2.6,0.1,4.4c0,0.8,0.1,2,0.1,2.7c0.1,2.2,0.3,8,0.3,8.6l0,0.5l-0.3,0c-0.2,0-0.3-0.1-0.4-0.1c0,0-0.1-0.5-0.1-1.1
		c-0.1-2.5-0.5-12.3-0.6-13.8l0-1.6l0.2,0c0.1,0,0.3,0,0.4,0l0.2,0V4.2z M34.9,4c0,0,0,2.2,0,4.8c0,2.6,0.1,5,0.1,5.2
		c0,0.3,0,0.5,0,0.5c0,0-0.2,0-0.4,0l-0.3,0l0-2.1c0-1.1-0.1-2.4-0.1-2.8c-0.1-1.3-0.1-5.5-0.1-5.6c0-0.1,0.1-0.1,0.4,0
		C34.7,4,34.9,4,34.9,4L34.9,4z M18.4,6.4c0,0.1,0.4,4,0.8,9.1c0.1,1.7,0.3,3.3,0.3,3.5c0,0.4,0,0.4-0.2,0.5
		c-0.1,0.1-0.3,0.1-0.3,0.1c0,0-0.1-0.2-0.1-0.4c-0.1-0.9-0.5-5.4-0.8-8.6c-0.2-1.9-0.3-3.6-0.3-3.8c0-0.3,0-0.3,0.2-0.4
		C18.3,6.3,18.4,6.3,18.4,6.4L18.4,6.4z M38,7.8c0.2,0.1,0.2,0.1,0.3,0.5c0.1,0.7,0,4.1,0,4.1c-0.2,0-0.6-0.2-0.7-0.4
		c0-0.1,0-1.1,0-2.2C37.5,7.5,37.5,7.7,38,7.8z M24.9,8.2c0,0.2,0,1.3,0.1,2.4s0.1,2.5,0.1,3.1c0,1.2,0.1,1.2-0.4,1.2
		c-0.2,0-0.2,0-0.2-0.3c0-0.2,0-0.8-0.1-1.4c0-0.6-0.1-1.8-0.2-2.7s-0.1-1.9-0.1-2.1C24,8,24,8,24.2,7.9c0.1,0,0.3-0.1,0.4-0.1
		C24.9,7.8,24.9,7.8,24.9,8.2L24.9,8.2z M44.6,9.1l0.2,0.1l0,1c0,0.5,0,1.6,0,2.5l0,1.5l-0.3-0.1l-0.3-0.1l0-2.4c0-1.3,0-2.4,0-2.5
		C44.3,9,44.3,9,44.6,9.1L44.6,9.1z M31.6,10.1c0,0,0.1,3.5,0.1,5.2l0,1.1l-0.3,0c-0.2,0-0.3,0-0.4,0c0,0-0.2-5.3-0.2-5.8V9.9l0.4,0
		C31.4,10,31.6,10,31.6,10.1L31.6,10.1z M48,10.6c0.1,0.1,0.1,1.7,0.1,10.2c0,9.9,0,10.1-0.1,10.1c-0.1,0-0.2,0-0.2-0.1
		c-0.1-0.1-0.1-0.9-0.2-9.4c0-5.1-0.1-9.7-0.1-10.3l0-1l0.2,0.1C47.8,10.4,47.9,10.5,48,10.6L48,10.6z M41.6,12c0,0,0.1,0.4,0.1,0.9
		c0,1.6,0,11.2,0,11.2c0,0-0.1,0-0.3-0.1L41.2,24V11.9l0.2,0C41.5,11.9,41.6,12,41.6,12L41.6,12z M22,12.4c0,0.2,0.1,0.6,0.1,1
		c0,0.3,0.1,1.1,0.1,1.8c0.1,1.3,0.1,1.3-0.3,1.3c-0.2,0-0.2,0-0.3-0.2c-0.1-0.4-0.3-3.9-0.3-4c0,0,0.4-0.2,0.6-0.2
		C21.9,12.1,22,12.2,22,12.4L22,12.4z M10.2,14.2c0.1,0.8,0.2,2.3,0.3,3.5c0.1,1.2,0.2,2.2,0.2,2.2c0,0.1-0.5,0.4-0.6,0.3
		c0,0-0.7-6.3-0.7-6.6c0-0.2,0.5-0.9,0.6-0.8C10.1,12.8,10.2,13.5,10.2,14.2z M38.1,15l0.2,0.1l0,1.5c0,0.8,0,1.8,0,2.1
		c0,0.6-0.1,0.7-0.4,0.6l-0.2-0.1v-0.6c0-0.3,0-1.3,0-2.2l0-1.6h0.2C37.8,14.9,38,14.9,38.1,15z M13.4,17.7c0.1,1.4,0.3,3.7,0.5,5.1
		l0.2,2.6l-0.3,0.3L13.5,26l0-0.6c0-0.3-0.2-1.8-0.3-3.2c-0.1-1.5-0.4-3.6-0.5-4.7l-0.2-2l0.3-0.3C13,15,13,15,13.1,15.1
		C13.1,15.2,13.2,16.4,13.4,17.7z M8,18.6C8.2,20,8.6,23.7,9,26.9c0.4,3.1,0.7,6.2,0.8,6.8c0.1,0.6,0.2,1.4,0.2,1.9
		c0.1,0.8,0.1,0.9,0,1c-0.2,0.1-0.2,0.1-0.2,0c0-0.1-0.1-0.6-0.1-1.2c-0.1-1-0.3-2.6-0.8-6.3c-0.1-0.7-0.3-2.2-0.4-3.3
		c-0.1-1.1-0.3-2.7-0.5-3.6c-0.1-0.9-0.3-2.4-0.4-3.4c-0.1-1-0.2-1.8-0.2-1.9c0-0.2,0.5-0.9,0.5-0.8C7.7,16,7.9,17.2,8,18.6L8,18.6z
		 M5.9,21.7c0.1,0.9,0.3,2.4,0.4,3.5c0.1,1.1,0.3,2.4,0.4,2.9l0.1,1l-0.1,0.1c-0.1,0.1-0.2,0.1-0.2,0.1s-0.1-0.3-0.1-0.6
		c0-0.3-0.3-2.1-0.6-4.1l-0.5-3.5l0.2-0.5c0.1-0.3,0.2-0.5,0.2-0.5C5.6,20.1,5.7,20.8,5.9,21.7L5.9,21.7z M44.9,20.7
		c0.1,0.1,0.1,0.5,0.1,3.8v3.7h-0.2c-0.4,0-0.4,0.1-0.5-3.9l0-3.7h0.2C44.7,20.6,44.8,20.7,44.9,20.7z M29.3,22
		c1.6,0.2,3,0.7,4.4,1.4c0.9,0.5,1.3,0.8,2.3,1.7c1.5,1.4,2.4,2.7,3.2,4.4c1.2,2.5,1.7,4.8,2.3,10.8c0.3,2.7,0.6,7.6,0.7,9.6
		c0,0.6,0.1,1.5,0.1,2.1c0.1,1.3,0.2,1.1-0.9,1.6c-1.5,0.7-3,1.3-4.9,1.7c-2.4,0.6-3.9,0.8-6.3,0.8l-1.7,0l0-0.8
		c0-0.4,0-1.5,0.1-2.3c0.2-4,0.2-9-0.1-11.7c-0.2-1.6-0.5-3.5-0.6-4c0-0.1,0.1-0.2,0.8-0.4c1.3-0.4,2.4-1,2.6-1.3
		c0.3-0.5-0.2-1.3-0.9-1.3c-0.1,0-0.5,0.1-0.8,0.3c-1.6,0.7-4.8,1.6-6.6,1.8c-1.3,0.1-3.2,0.1-4.6-0.2c-0.7-0.1-2.1-0.6-3.2-1.2
		c-1.3-0.7-2.1-1.6-2.3-2.6c-0.1-0.6-0.1-1.7,0.1-2.3c0.2-0.7,0.7-1.7,1.1-2.3c2-2.7,6.2-5,10.5-5.8C25.9,21.8,27.9,21.8,29.3,22
		L29.3,22z M51.3,22.2c0.3,0.1,0.3,0.1,0.3,0.4c0,1.9,0,6.4-0.1,6.6c0,0.1-0.4,0.1-0.5,0c-0.1,0-0.1-0.4-0.1-3.6
		c0-2.2,0-3.5,0.1-3.5C50.9,22.1,51.1,22.2,51.3,22.2z M54.4,26.1l0.3,0.1l0,5.9c-0.1,7.5-0.1,7.7-0.3,8.4c-0.4,1.1-0.4,1.3-0.4-3.4
		c0-2.3,0-4.7,0.1-5.2s0-2.1,0-3.4c0-1.6,0-2.4,0.1-2.4C54.1,26,54.2,26.1,54.4,26.1L54.4,26.1z M11.6,27.9c0,0.6,0,0.6-0.2,1.1
		l-0.2,0.5l-0.1-0.7c-0.1-1.1-0.1-1.2,0.1-1.4c0.1-0.1,0.2-0.1,0.3-0.1S11.6,27.6,11.6,27.9L11.6,27.9z M7.2,32.2
		c0.1,0.6,0.6,4.4,0.8,6.3c0.4,2.9,0.4,3.4,0.2,3.2c0,0-0.2-1-0.4-2.2c-1.1-7.7-1.1-7.6-1-7.7C7.1,31.7,7.2,31.8,7.2,32.2L7.2,32.2z
		 M12.3,35.4c0,0.2,0.2,2.1,0.2,2.3c0,0.2-0.3,0.4-0.4,0.3c0,0-0.1-0.6-0.2-1.3c-0.1-0.7-0.2-1.4-0.2-1.6l0-0.4L12,35
		C12.2,35.2,12.3,35.4,12.3,35.4L12.3,35.4z M18.1,38.1c0.1,0.1,0.1,0.4,0.2,1.1c0.1,1.4,0.1,1.3-0.2,1.3c-0.3,0-0.3,0-0.4-1.2
		C17.6,38,17.6,38,17.8,38C17.9,38,18,38.1,18.1,38.1z M23.7,38.2c0,0.1,0,0.5,0.1,0.9c0,0.4,0.1,1.5,0.1,2.2
		c0.2,2.9,0.2,3.2,0.1,3.2c-0.1,0-0.1-0.1-0.3-2.1c-0.1-0.8-0.2-2.2-0.2-2.9c-0.1-0.8-0.1-1.4-0.1-1.4
		C23.5,38.1,23.7,38.1,23.7,38.2L23.7,38.2z M10.3,39.6c0,0.1,0.3,2.3,0.6,5.4c0.1,0.9,0.2,1.8,0.2,2l0,0.3l-0.2-0.1
		c-0.1-0.1-0.2-0.2-0.2-0.3c0-0.4-0.3-3.4-0.5-5.2c-0.1-1-0.2-1.9-0.2-2C10.1,39.5,10.3,39.5,10.3,39.6L10.3,39.6z M51.4,42.6l0,3
		l-0.2,0.3c-0.4,0.6-0.4,0.7-0.4-2.6l0-3l0.3-0.3c0.1-0.1,0.3-0.3,0.3-0.3C51.4,39.6,51.4,40.9,51.4,42.6L51.4,42.6z M44.8,47.3
		c0,4.1,0,4.4-0.1,4.6c-0.1,0.1-0.1,0.1-0.2,0.1c0-0.1-0.1-9.1-0.1-9.1c0,0,0.1,0,0.2,0C44.7,42.8,44.8,43.3,44.8,47.3L44.8,47.3z
		 M21.6,44.4c0,0.4,0.2,2.6,0.3,3.5c0,0.7,0,0.7-0.1,0.7c-0.1,0-0.2,0-0.2,0c0,0-0.2-1.6-0.4-4.1l0-0.6h0.2
		C21.5,44.1,21.5,44.1,21.6,44.4L21.6,44.4z M16,46.9c0,0,0.1,0.2,0.1,0.4c0,0.2,0.1,1.1,0.2,2.1c0.3,2.7,0.3,3.1,0.2,3
		c-0.2-0.1-0.3-0.3-0.3-0.3c0,0,0-0.4-0.1-0.8c0-0.4-0.1-1.1-0.1-1.5s-0.1-1.2-0.1-1.7c-0.1-1.2-0.1-1.4,0-1.4
		C15.8,46.8,15.9,46.9,16,46.9z M19.3,51.7c0,0.2,0.1,0.7,0.1,1.3c0,1.1,0,1.1-0.3,0.9c-0.1-0.1-0.1-0.3-0.2-1.1
		c-0.1-1.5-0.2-1.4,0.1-1.4C19.3,51.4,19.3,51.5,19.3,51.7L19.3,51.7z"/>
	<path class="st0" d="M16.8,25.4c-0.7,0.3-0.8,1.3-0.1,1.7c0.5,0.3,1,0.1,1.3-0.3C18.5,26,17.7,25,16.8,25.4L16.8,25.4z M21.6,26.1
		c-0.7,0.4-0.7,1.4,0,1.8c0.7,0.4,1.5-0.1,1.5-0.9C23.2,26.2,22.3,25.7,21.6,26.1z"/>
</g>
</svg>
