<?xml version="1.0" encoding="utf-8"?>
<!-- Generator: Adobe Illustrator 25.0.0, SVG Export Plug-In . SVG Version: 6.00 Build 0)  -->
<svg version="1.1" id="Layer_1" xmlns="http://www.w3.org/2000/svg" xmlns:xlink="http://www.w3.org/1999/xlink" x="0px" y="0px"
	 viewBox="0 0 60 60" style="enable-background:new 0 0 60 60;" xml:space="preserve">
<style type="text/css">
	.st0{fill:#FFFFFF;}
</style>
<g>
	<path class="st0" d="M27.8,2.3h9.1v41.5c-4.6,0.9-8.1,1.2-11.8,1.2c-11.1,0-16.8-5-16.8-14.5c0-9.2,6.1-15.1,15.6-15.1
		c1.5,0,2.6,0.1,3.9,0.5L27.8,2.3L27.8,2.3z M28.1,23.5c-1.1-0.3-1.9-0.5-3.1-0.5c-4.6,0-7.2,2.8-7.2,7.7c0,4.8,2.5,7.4,7.2,7.4
		c1,0,1.8-0.1,3.1-0.2V23.5L28.1,23.5z"/>
	<path class="st0" d="M51.7,16.7v20.8c0,7.2-0.5,10.6-2.1,13.6c-1.5,2.9-3.4,4.7-7.4,6.6l-8.4-4c4-1.9,5.9-3.5,7.2-6
		c1.3-2.6,1.7-5.5,1.7-13.3V16.7L51.7,16.7L51.7,16.7z M41.7,2.3h9.1v9.2h-9.1V2.3z"/>
</g>
</svg>
