<?xml version="1.0" encoding="utf-8"?>
<!-- Generator: Adobe Illustrator 25.0.0, SVG Export Plug-In . SVG Version: 6.00 Build 0)  -->
<svg version="1.1" id="Layer_1" xmlns="http://www.w3.org/2000/svg" xmlns:xlink="http://www.w3.org/1999/xlink" x="0px" y="0px"
	 viewBox="0 0 2256.6 2169.8" style="enable-background:new 0 0 2256.6 2169.8;" xml:space="preserve">
<style type="text/css">
	.st0{fill:#666666;}
	.st1{fill:#727272;}
	.st2{fill:#202020;}
	.st3{fill:#DADADA;}
	.st4{fill:#494949;}
	.st5{fill:#6C6C6C;}
	.st6{fill:#E7E7E7;}
	.st7{fill:#686868;}
	.st8{fill:#FFFFFF;}
	.st9{stroke:#666666;stroke-width:11.9904;stroke-miterlimit:23.9808;}
	.st10{fill:#A4A4A4;}
	.st11{fill:#1A1A1A;}
</style>
<g>
	<path class="st0" d="M1866,1046.8c0,416.4-330.2,754.3-737.6,754.3s-737.6-337.9-737.6-754.3c0-416.4,330.2-754.3,737.6-754.3
		C1535.8,292.5,1866,630.4,1866,1046.8"/>
	<path class="st1" d="M421,1233.6c0,0-53.5-786.4,671.6-809l-50.6-84.5L648.9,472.1L536.4,601.2l-98.2,188l-55.9,218.9l16.7,146.3"
		/>
	<path class="st2" d="M623.3,532.2c-129.1,132.7-209.4,315.3-209.4,517.5s80.3,384.9,209.4,517.5c129.7,132.7,307.6,214.2,505,214.2
		c197.5,0,375.4-81.5,505-214.1c129.1-132.7,209.4-315.3,209.4-517.5c0-202.3-80.3-384.9-209.4-517.5
		c-129.7-132.1-307.5-214.1-505-214.1C931.4,318.1,753,399.6,623.3,532.2L623.3,532.2z M590.6,1598.8
		c-137.4-140.4-222.5-334.9-222.5-549.1s85.1-408.7,222.5-549.7C728,359.7,918.3,272.3,1128.3,272.3c210,0,400.3,87.4,537.8,227.8
		c137.4,140.4,222.5,334.9,222.5,549.7c0,214.1-85.1,408.7-222.5,549.1c-137.4,141-327.8,227.8-537.8,227.8
		C918.3,1826.7,728,1739.8,590.6,1598.8L590.6,1598.8z"/>
	<path class="st3" d="M1438.8,1050.9l-112.4,16.7l-151.7,17.3l-98.2,2.4l-95.8-3l-73.2-22.6l-64.8-70.2l-50.6-143.4l-11.3-30.9
		l-67.2-22.6l-39.3-64.8l-28-92.8l30.9-81.5l73.2-25.6l58.9,28l28,61.9l33.9-5.4l11.3-14.3l-11.3-64.8l-3-81.5L885,341.3l-0.6-64.2
		l51.2-82.1l89.8-64.8l157.1-67.2l174.3,25.6l151.7,109.5l70.2,112.4l45.2,81.5l11.3,202.3l-33.9,174.3l-61.9,154.7l-58.3,82.7"/>
	<path class="st4" d="M1343.7,1537l-401.5,16.7v67.2L976,1857l-16.7,19.6l-280.8-95.8l-19.6-33.9l-28-317.7l-66-190.4l-14.3-45.2
		l224.9-154.7l70.2-28l61.9,76.1l53.5,47.6l61.9,19.6l28,8.3l33.9,146.3l25.6,30.9l64.8-22.6l-45.2,87.4l243.9,115.4L1343.7,1537"/>
	<path class="st5" d="M677.4,556.6l73.2-25.6l58.9,28l28,61.9l33.9-5.4l8.3-33.9L863,516.8l16.7-154.7l-14.3-84.5l50.6-58.9
		l109.5-86.9l-30.9-42.2l-154.7,76.1L775,216.3l-36.3,78.5L682.8,371l-16.7,89.8L677.4,556.6"/>
	<path class="st3" d="M792.8,292.5c0,0,42.2-104.1,210.6-154.7c168.3-50.6,8.3-36.3,8.3-36.3l-182.6,70.2l-70.2,70.2L728,297.8
		L792.8,292.5 M708.3,537c0,0-58.9-196.9,166-224.9l-8.3-33.9l-154.7,36.3l-45.2,146.3l11.3,95.8L708.3,537"/>
	<path class="st6" d="M798.2,798.1l36.9-35.7c0,0,16.7,1.8,19.6,21.4c3,19.6,11.3,196.9,132.1,292.1c11.3,8.9-89.8-14.3-89.8-14.3
		l-89.8-140.4 M1315.1,744.6c0,0,6.5-85.1,29.7-78.5c23.2,6.5,23.2,29.7,23.2,29.7S1312.1,731.5,1315.1,744.6 M1548.3,432.9
		c0,0-46.4,9.5-50.6,50.6c-4.2,41,50.6,8.3,58.9,5.4 M1208.6,435.9c0,0-61.9,8.3-61.9,47.6c0,39.3,70.2,36.3,89.8,19.6 M826.7,618.5
		c0,0-106.5-64.8-117.8-3c-11.3,61.9-36.3,106.5,16.7,171.3l-36.3-11.3l-33.9-86.9l-11.3-84.5l64.8-67.2l73.2,5.4l42.2,33.9
		L826.7,618.5 M877.3,441.2c0,0,47.6-247.5,289.1-295.1c198.7-39.3,303.4,8.3,342.6,53.5c0,0-177.3-210.6-345.6-146.3
		C995.1,118.2,871.3,236,874.3,311.5C879.1,441.2,877.3,441.2,877.3,441.2 M1528.7,227.6c0,0-81.5-3-84.5,70.2c0,0,0,11.3,5.4,22.6
		c0,0,64.8-73.2,104.1-33.9"/>
	<path class="st6" d="M1172.3,328.2c0,0-14.3-111.8-109.5-47c-61.9,42.2-55.9,101.1-45.2,112.4c11.3,11.3,8.3,33.9,16.7,18.4
		c8.3-15.5,5.9-66,36.9-80.3C1101.5,317.5,1152.7,302,1172.3,328.2"/>
	<path class="st7" d="M908.2,1087.2L644.1,1205c0,0,109.5,435.4,53.5,570.5l-39.3-14.3l-3-166l-73.2-314.1l-30.9-86.9l275.4-185.6
		L908.2,1087.2 M935,1328.2l37.5,45.8v168.3h-44.6c0,0-5.4-117.8-5.4-132.1c0-14.3,5.4-64.8,5.4-64.8 M936.2,1567.9l-126.7,5.4
		l36.3,25.6l89.8,14.3"/>
	<path class="st4" d="M1368.7,1539.9l104.1-3l25.6,258.2l-106.5,14.3L1368.7,1539.9"/>
	<path class="st4" d="M1396.6,1539.9l157-8.3c0,0,64.8-163,64.8-171.3c0-8.3,55.9-236.2,55.9-236.2l-126.7-132.1l-25.6-22.6
		l-67.2,67.2v261.2L1396.6,1539.9"/>
	<path class="st7" d="M1466.8,1520.3l-98.2,19.6l14.3,78.5c36.3,16.7,98.2-28,98.2-28 M1469.8,1028.3l196.9,146.3l5.4-67.2
		L1523.3,970L1469.8,1028.3"/>
	<path class="st8" d="M1033.7,2093.2L975.4,1857l-29.1-174.3l-4.8-129.1l263.5-14.3h163.6l-14.9,295.1l25.6,227.8l-3,42.2
		l-213.6,16.7L1033.7,2093.2"/>
	<path class="st3" d="M1332.4,1537c0,0-14.3,292.1,28,500.3c0,0-84.5,53.5-207.6,67.2l236.2-8.3l28-16.7l-33.9-460.4l-8.9-98.8"/>
	<path class="st8" d="M1502.5,1773.1l109.5-30.9l207.6-11.3l30.9-95.8l-55.9-166l-64.8-8.3l-89.8,28l-85.7,42.2l-45.8-8.3
		l-35.7,14.3"/>
	<path class="st3" d="M1500.7,1716.6c0,0,73.2-33.9,84.5-30.9l-30.9-154.7l36.3-14.3c0,0,25.6,146.3,25.6,163c0,0,157,8.3,171.3,8.3
		c0,0,33.9-64.8,25.6-132.1l30.9,89.8l3,50.6l-45.2,67.2l-50.6,11.3l-84.5-3l-28-36.3l-98.2,14.3l-30.9,11.3"/>
	<path class="st8" d="M1390.1,1517.3l-61.9-157l-64.8-92.8c0,0,14.3-39.3,33.9-39.3h64.8l61.9,22.6l-5.4,104.1L1390.1,1517.3"/>
	<path class="st3" d="M1402.6,1463.8c0,0-78.5-151.7-78.5-174.3c0,0,14.3-33.9,33.9-25.6c19.6,8.3,61.9,30.9,61.9,30.9v-53.5
		l-95.8-19.6l-64.8,8.3l109.5,259.4l22.6,3"/>
	<path class="st8" d="M1058.7,1093.2l-77.9-8.3l-73.2-22.6v25.6l35.7,39.3l112.4,50.6"/>
	<path class="st3" d="M933.2,1101.5c0,0,86.8,36.3,115.4,28l3,33.9l-78.5-16.7l-47.6-33.9L933.2,1101.5"/>
	<path class="st0" d="M1502.5,1237.7c-47.6-1.2-91-7.1-128.5-17.8c2.4-15.5-2.4-30.3,1.8-41.6c10.7-7.7,28-7.7,44-9.5
		c-13.7-6.5-33.3-9.5-48.8-5.4c-0.6-10.7-5.4-17.3-8.3-25.6c26.8-9.5,89.8-72,125.5-51.8c17.3,10.1,24.4,66,25.6,94
		C1515,1202.6,1511.4,1225.2,1502.5,1237.7"/>
	<path class="st9" d="M1502.5,1237.7c-47.6-1.2-91-7.1-128.5-17.8c2.4-15.5-2.4-30.3,1.8-41.6c10.7-7.7,28-7.7,44-9.5
		c-13.7-6.5-33.3-9.5-48.8-5.4c-0.6-10.7-5.4-17.3-8.3-25.6c26.8-9.5,89.8-72,125.5-51.8c17.3,10.1,24.4,66,25.6,94
		C1515,1202.6,1511.4,1225.2,1502.5,1237.7L1502.5,1237.7z"/>
	<path class="st0" d="M1274.7,1159.8c0,3.6,0,7.1-0.6,10.7c-14.9,9.5-38.7,9.5-55.3,17.8c23.8,1.2,42.8,7.1,59.5,14.9
		c-0.6,8.9-0.6,18.4-1.2,27.4c-27.4,18.4-52.4,46.4-84.5,64.2c-15.5,8.3-68.4,29.7-84.5,25.6c-8.9-2.4-10.1-13.7-13.7-24.4
		c-7.7-22.6-25.6-59.5-27.4-94c-1.8-43.4-6.5-116.6,40.4-107.7c38.1,7.1,82.1,24.4,111.2,40.5
		C1237.2,1145.5,1247.3,1157.4,1274.7,1159.8"/>
	<path class="st9" d="M1274.7,1159.8c0,3.6,0,7.1-0.6,10.7c-14.9,9.5-38.7,9.5-55.3,17.8c23.8,1.2,42.8,7.1,59.5,14.9
		c-0.6,8.9-0.6,18.4-1.2,27.4c-27.4,18.4-52.4,46.4-84.5,64.2c-15.5,8.3-68.4,29.7-84.5,25.6c-8.9-2.4-10.1-13.7-13.7-24.4
		c-7.7-22.6-25.6-59.5-27.4-94c-1.8-43.4-6.5-116.6,40.4-107.7c38.1,7.1,82.1,24.4,111.2,40.5
		C1237.2,1145.5,1247.3,1157.4,1274.7,1159.8L1274.7,1159.8z"/>
	<path class="st0" d="M1301.4,1211.6c-4.2-23.8-8.9-30.3-7.1-51.2C1357.9,1118.2,1369.2,1233,1301.4,1211.6"/>
	<path class="st9" d="M1301.4,1211.6c-4.2-23.8-8.9-30.3-7.1-51.2C1357.9,1118.2,1369.2,1233,1301.4,1211.6L1301.4,1211.6z"/>
	<path class="st1" d="M1393,1230.6c0,0-19.6-28-5.4-36.3c14.3-8.3,28,0,36.3-14.3c8.3-14.3,0-22.6,3-39.3
		c3-16.7,16.7-19.6,30.9-22.6c14.3-3,53.5-8.3,58.9,5.4l-16.7-50.6l-33.9-11.3l-106.5,61.9l-5.4,30.9v61.9 M1098,1323.4
		c-3.6-44-7.1-87.4-10.7-131.5c-5.9-65.4,15.5-54.1,72.6-54.1c8.9,0,53.5,10.1,56.5,16.7c15.5,31.5-25.6,24.4,17.8,48.2
		c36.3,19.6,101.1-11.9,86.3-56.5c-8.3-10.1-42.8-3-55.3-9.5l-66-33.9c-28-14.3-92.2-35.7-121.9-15.5
		c-75.6,51.2,4.8,179.7,31.5,233.2"/>
	<path class="st2" d="M1172.3,328.2c-76.7-17.8-114.8,32.1-138,83.9c-20.8-4.8-12.5-33.3-7.1-47.6c13.7-37.5,69-88,114.2-80.9
		C1160.4,285.9,1186.6,303.8,1172.3,328.2 M1545.3,415h3.6c17.3,35.7,32.1,73.8,54.1,105.9c-14.9,34.5-110.6,64.2-109.5,3.6
		c20.8-8.9,56.5-1.8,75-13.7C1557.8,481.7,1542.9,456.7,1545.3,415 M1211,416.2c16.7,30.3,22,61.9,45.2,84.5
		c10.7,10.1,30.9,22.6,20.8,51.2c-2.4,6.5-19.6,21.4-29.7,24.4c-36.3,10.7-121.4,2.4-92.8-43.4c30.3,1.2,70.8,19.6,93.4-2.4
		C1230.6,503.1,1199.7,448.3,1211,416.2 M1531.6,722c-54.7,35.1-116,73.8-206.4,64.8c-19-16.7-26.8-54.1-7.7-78.5
		c9.5,16.7,3.6,47.6,30.9,52.3c51.2,8.9,110.6-31.5,147.5-45.2c22.6-38.7-1.8-52.4-22.6-77.3c-42.2-50.6-98.2-113.6-96.4-189.2
		c17.3-12.5,18.4,19,20.8,24.4c22,51.2,77.3,117.2,117.2,161.2c10.1,10.7,26.2,21.4,28,28.6C1548.3,683.3,1529.3,708.3,1531.6,722
		 M807.1,685.1c-17.2-10.1-21.4-52.9-41.6-54.1c-29.1-1.8-23.8,55.9-23.8,89.8c-19.6-17.8-23.2-73.8-8.9-102.3
		c-16.7-8.3-23.8,8.9-33.3,14.9C711.9,547.1,826.1,593.5,807.1,685.1 M1566.1,758.3c-25.6,48.8-61.9,102.3-136.8,104.1
		c-1.8-15.5-3-39.9,0-49.4C1487,807,1522.7,777.9,1566.1,758.3 M1206.8,789.8c47.6,25,135.6,28,201.1,26.2
		c3.6,14.3,3.6,32.1,3.6,49.4C1327.6,868.9,1228.9,848.1,1206.8,789.8 M1197.9,836.2c33.3,83.3,146.9,73.8,242.7,71.4
		c-4.2,10.7-13.1,23.8-25,28c-30.9,12.5-115.4,22-158.2-0.6c-26.8-14.3-44.6-47-59.5-66C1191.4,860,1155.7,836.8,1197.9,836.2"/>
	<path class="st10" d="M1527.5,1294.8c-38.7,66.6-76.1,135-121.9,193.3c19-56.5,27.4-151.7,30.3-224.3
		C1476.3,1244.9,1510.8,1268.1,1527.5,1294.8"/>
	<path class="st2" d="M1736.3,1534c-43.4,8.9-73.8,51.2-116.6,48.2C1643.5,1549.4,1683.9,1535.2,1736.3,1534 M1755.3,1601.8
		c-35.7,3.6-77.3,9.5-113,6.5C1659.5,1582.2,1725,1591.7,1755.3,1601.8 M1767.8,1660.7c-39.9,0.6-89.2,0-127.3-3
		C1663.1,1633.3,1742.2,1648.8,1767.8,1660.7"/>
	<path class="st3" d="M1452.5,1821.3c5.9,50,25.6,100.5,23.2,155.3c-22,7.1-34.5,13.7-64.3,13.7c-1.8-46.4-8.3-117.8-6.5-162.4
		C1419.2,1829,1440.6,1817.7,1452.5,1821.3"/>
	<path class="st3" d="M1388.3,1083.7c-20.2,13.1-36.9,29.1-56.5,43.4c-42.8,2.4-66-3-97-27.4c0.6-1.8,3.6-1.2,3.6-3.6
		C1284.2,1116.4,1342.5,1087.8,1388.3,1083.7"/>
	<path class="st10" d="M1149.1,1394.8c12.5-54.1,61.9-82.7,106.5-112.4c45.8,58.3,73.8,133.2,104.7,205.8
		C1287.1,1466.2,1212.8,1431.1,1149.1,1394.8"/>
	<path class="st2" d="M1404.9,1828.4c-1.8,44.6,4.2,115.4,6.5,162.4c29.7,0,42.2-6.5,64.3-13.7c2.4-54.7-17.3-105.3-23.2-155.3
		C1440.6,1817.7,1419.2,1829,1404.9,1828.4z M945.7,1576.2c19.6,179.1,47.6,329,99.3,487.8c114.8,35.1,252.8,38.1,354.6,6.5
		c-18.4-89.2-10.7-198.1-21.4-293.9c-8.3-72-4.2-144-15.5-217.1C1239.6,1534,1065.9,1553.6,945.7,1576.2L945.7,1576.2z
		 M1391.8,1560.8c-1.2,76.7,3.6,152.9,9.5,229.6c29.7-4.2,49.4-7.1,76.7-13.7c-8.9-73.8-7.7-157.6-26.2-223.1
		C1431.1,1554.2,1412.7,1553.6,1391.8,1560.8L1391.8,1560.8z M1541.2,1548.3c-14.3-3-30.3,0-43.4,0c6.5,62.5,21.4,131.5,26.8,197.5
		c20.8,0.6,32.1-9.5,49.4-12.5C1575.1,1675.6,1569.1,1595.9,1541.2,1548.3L1541.2,1548.3z M1767.8,1755.3
		c44-10.7,71.4-64.2,58.9-119.6c-8.3-36.9-22.6-107.1-38.7-130.9c-11.3-17.2-42.8-40.4-68.4-24.4c-41,26.2-113,33.9-142.8,65.4
		c14.9,50,19.6,117.8,25.6,180.8c51.2,3,113.6-14.3,156.5,4.2c-29.7,9.5-67.8,9.5-93.4,23.8
		C1686.9,1764.8,1735.7,1763,1767.8,1755.3L1767.8,1755.3z M1359.7,1488.2c-30.9-72.6-58.9-147.5-104.7-205.8
		c-44.6,29.7-93.4,58.3-106.5,112.4C1212.8,1431.1,1287.2,1466.2,1359.7,1488.2L1359.7,1488.2z M1435.9,1263.9
		c-3,72.6-11.3,167.8-30.3,224.3c45.8-58.9,83.3-126.7,121.9-193.3C1510.8,1268.1,1476.3,1244.9,1435.9,1263.9L1435.9,1263.9z
		 M1349.6,1233.6c-17.3-1.8-32.1,20.2-54.7,10.7c-5.4,5.9-10.1,11.9-15.5,17.8c50,60.7,73.2,146.3,111.8,217.1
		c20.8-68.4,18.4-142.8,23.2-217.1C1385.9,1263.3,1369.8,1235.4,1349.6,1233.6L1349.6,1233.6z M1294.3,1160.4
		c-1.8,20.8,3,27.4,7.1,51.2C1369.2,1233,1357.9,1118.2,1294.3,1160.4z M1218.7,1135.4c-29.1-16.1-73.2-33.3-111.2-40.4
		c-47-8.9-42.2,64.2-40.4,107.7c1.8,34.5,19.6,70.8,27.4,94c3.6,10.7,4.8,22,13.7,24.4c16.1,3.6,69.6-17.2,84.5-25.6
		c32.1-17.2,57.1-45.2,84.5-64.2c0.6-8.9,0.6-18.4,1.2-27.4c-16.7-8.3-35.1-13.7-59.5-14.9c16.1-8.3,40.5-8.3,55.3-17.8
		c0-3.6,0-7.1,0.6-10.7C1247.3,1157.4,1237.2,1145.5,1218.7,1135.4L1218.7,1135.4z M939.2,1084.9c-24.4,25,68.4,58.3,97.6,60.1
		c0-15.5,8.9-30.3,7.1-41.6C1008.7,1097.3,962.9,1101.5,939.2,1084.9L939.2,1084.9z M1239,1096.2c0,2.4-3,1.8-3.6,3.6
		c31.5,24.4,54.7,29.7,97,27.4c19-13.7,36.3-30.3,56.5-43.4C1342.5,1087.8,1284.2,1116.4,1239,1096.2L1239,1096.2z M1513.8,1179.4
		c-1.2-27.4-8.3-83.9-25.6-94c-35.7-20.8-98.7,42.2-125.5,51.8c3,8.3,7.7,14.9,8.3,25.6c16.1-4.2,35.1-1.2,48.8,5.4
		c-16.1,1.8-33.3,1.8-44,9.5c-3.6,11.3,1.2,26.2-1.8,41.6c37.5,10.7,80.9,16.1,128.5,17.8C1511.4,1225.2,1515,1202.6,1513.8,1179.4
		L1513.8,1179.4z M898.1,1108.7c-7.7-5.4-59.5-72.6-66.6-69.6c-93.4,36.9-180.8,100.5-258.8,161.2c74.4,160,104.7,355.7,110.1,544.3
		c85.1,39.9,160,97.6,276,103.5c-13.7-94.6-25.6-179.7-33.3-268.9c-29.1-12.5-70.8,0.6-98.2-3.6c0-32.7,41.6-14.3,45.2-36.3
		c2.4-16.7-23.2-17.8-14.9-44c21.4,7.7,32.7,25,55.3,31.5c20.8-45.2,0-125.5,3-163.6c0.6-7.1,3.6-39.3,19.6-33.9
		c14.3,4.8-0.6,86.3,0.6,121.9c1.2,33.3-4.2,64.8,9.5,85.7c111.8-15.5,225.5-25,346.8-28.6c-26.8-11.3-58.3-22-92.8-41.6
		c-19-10.7-77.9-32.7-83.3-50.6c-8.9-28.6,22.6-43.4,28-67.8c-56.5,30.9-67.2-29.7-80.9-72c-11.9-38.7-19-67.8-22-89.8
		C992.1,1161.6,939.7,1138.4,898.1,1108.7L898.1,1108.7z M1464.4,1046.8c77.9-37.5,92.2,141,61.3,198.7
		c4.8,17.2,20.8,23.8,27.4,39.3c-43.4,77.9-91.6,150.5-136.2,227.2c32.7-20.8,80.3-3.6,119-19c14.3-5.4,24.4-38.1,35.1-64.2
		c29.7-71.4,60.7-161.8,74.4-229.6c3-15.5,11.9-49.4,9.5-63.1c-3.6-25-36.9-43.4-54.1-58.3c-31.5-28.6-51.2-52.9-84.5-79.7
		C1503.7,1017.6,1475.1,1030.7,1464.4,1046.8L1464.4,1046.8z M720.2,356.1c-36.9,41-29.1,117.2-25,171.9
		c67.2-42.2,155.9,3.6,155.3,75c32.1-0.6,11.9-39.9,6-65.4c-19-82.7,32.1-171.9,2.4-247.5C801.1,294.9,754.1,318.1,720.2,356.1
		L720.2,356.1z M985.5,118.8c-83.9,23.8-191.5,85.1-226,160.6c26.8-4.2,45.2-17.2,71.4-19c10.1-0.6,23.2,4.2,34.5,1.2
		c22.6-5.9,42.2-57.1,59.5-76.1c16.7-18.4,36.9-26.8,50.6-43.4c8.9-4.2,22-4.2,22.6-17.3C994.5,120.6,990.3,117.6,985.5,118.8
		L985.5,118.8z M1422.8,141.4c-87.4-49.4-235-86.3-327.8-39.9c-75,37.5-176.1,99.3-210.6,177.3c32.1,75.5-9.5,144.5-12.5,221.3
		c-1.2,41,19,76.2,20.8,120.8c-11.3,18.4-44.6,20.2-67.8,19c-7.7-39.3-21.4-83.3-61.9-88c-57.1-6.5-99.3,41-101.7,90.4
		c-3,58.3,44.6,154.7,112.4,148.1c26.2-2.4,32.7-28.6,61.3-28.6c15.5,30.9-23.8,40.4-28,62.5c-1.2,6,3,28,5.9,38.7
		c12.5,50.6,39.9,116.6,66.6,155.3c34.5,49.4,101.7,56.5,174.3,61.3c13.1-28,60.7-25.6,91.6-18.4c-37.5-14.9-72-50.6-100.5-82.1
		c-32.7-36.3-66-75-67.8-122.5c62.5,86.3,113.6,161.8,226.6,199.9c85.7,28.5,185.6-13.1,251.6-59.5c27.4-19,43.4-50,63.1-77.3
		c72.6-104.7,106.5-253.4,99.3-398c-3-59.5-3-119-23.2-158.8c-20.8-41.6-91.6-79.7-133.2-41.6c-7.7-41,34.5-66,83.9-51.2
		C1510.2,224.1,1473.3,169.9,1422.8,141.4L1422.8,141.4z M1585.8,1486.4c68.4-33.9,195.7-91,237.9,0c16.1,33.9,34.5,90.4,42.2,125.5
		c11.3,48.8-12.5,152.3-63.1,168.3c-44.6,14.3-96.4,13.7-149.9,3c-6.5-5.4-13.1-14.3-18.4-23.8c-38.1-1.2-74.4,1.8-104.1,17.9
		c3,28.5-16.1,32.7-34.5,38.7c-13.1,52.9,26.8,121.9,17.3,169.5c-6.5,34.5-48.8,39.9-79.7,45.8c-1.2,19,1.2,35.1,3.6,51.2
		c-7.1,26.2-38.7,41-69,44.6c-99.3,11.9-249.8,17.2-345-17.3c-26.8-65.4-47.6-144.6-69.6-218.9c-92.8,10.1-168.3-39.9-239.1-73.2
		c-24.4-11.3-58.3-17.8-67.8-37.5c-8.9-19-5.4-55.3-7.7-89.2c-5.4-87.4-10.7-171.9-33.3-261.2c-10.1-40.4-28.6-75.5-41-114.2
		c-11.9-35.7-32.1-80.3-37.5-116c-7.7-52.9,42.2-55.9,73.8-79.1c49.4-35.7,88-55.3,141.6-87.4c16.1-9.5,63.7-33.3,69-44.6
		c10.7-22-18.4-52.9-26.2-70.2c-12.5-27.4-19-50.6-20.8-77.3c-44.6-7.1-79.1-33.9-99.3-63.6c-33.9-50-57.7-142.2-28-211.8
		c2.4-5.4,13.7-16.7,15.5-25c3.6-16.7-6.5-38.7-7.1-56.5c-3-91,15.5-169.5,76.7-196.9c25-99.3,114.2-132.1,198.1-181.4
		c31.5-18.4,66-30.3,101.7-43.4c127.9-47,324.8-38.1,431.3,42.2c45.2,33.9,117.2,105.9,142.8,158.2
		c68.4,137.4,63.1,367.6,15.5,535.4c-6.5,22.6-15.5,55.3-28.6,82.7c-8.9,19-36.9,56.5-33.9,73.2c3.6,17.3,64.3,63.1,77.3,75.6
		c23.2,22.6,67.8,52.4,71.4,80.9c4.2,30.3-13.1,72-22,101.1C1647,1309.1,1618.5,1399,1585.8,1486.4L1585.8,1486.4z"/>
	<path class="st6" d="M1130.7,810.6c3.6-4.8,23.8-12.5,52.3,1.2c0,0-33.9,5.4-30.9,61.9l-14.3-3
		C1138.4,871.3,1123.6,820.1,1130.7,810.6"/>
	<path class="st11" d="M1377,1293.7c0,8.3-7.1,15.5-15.5,15.5c-8.3,0-15.5-7.1-15.5-15.5c0-8.3,7.1-15.5,15.5-15.5
		C1370.4,1278.2,1377,1285.3,1377,1293.7 M1392.4,1365.6c0,8.3-7.1,15.5-15.5,15.5c-8.3,0-15.5-7.1-15.5-15.5s7.1-15.5,15.5-15.5
		C1385.9,1350.2,1392.4,1356.7,1392.4,1365.6"/>
</g>
</svg>
