<?xml version="1.0" encoding="utf-8"?>
<!-- Generator: Adobe Illustrator 25.0.0, SVG Export Plug-In . SVG Version: 6.00 Build 0)  -->
<svg version="1.1" id="Layer_1" xmlns="http://www.w3.org/2000/svg" xmlns:xlink="http://www.w3.org/1999/xlink" x="0px" y="0px"
	 viewBox="0 0 60 60" style="enable-background:new 0 0 60 60;" xml:space="preserve">
<style type="text/css">
	.st0{fill-rule:evenodd;clip-rule:evenodd;fill:#FFFFFF;}
</style>
<path class="st0" d="M35.1,1.5c-0.4,0-0.8,0.1-1.2,0.2c0.8,0.5,1.2,1.2,1.4,1.9c0,0.1,0,0.2,0.1,0.3c0,0.1,0,0.2,0,0.3
	c0.1,1.3-0.3,1.5-0.6,2.2c-0.4,1-0.3,2.1,0.2,2.9c0,0.1,0.1,0.2,0.2,0.3c-0.6-3.7,2.6-4.3,3.1-5.5c0-1-0.8-1.7-1.5-2.2
	C36.2,1.6,35.6,1.5,35.1,1.5L35.1,1.5z M39.8,2.4c-0.1,0.3,0,0.3,0,0.4c0,0.1,0,0.3,0,0.4c0,0.1-0.1,0.2-0.1,0.4
	c0,0.1-0.1,0.2-0.1,0.4c-0.1,0.1-0.1,0.2-0.2,0.3c0,0.1-0.1,0.1-0.1,0.2l-0.1,0.1c-0.1,0.1-0.1,0.2-0.2,0.3
	c-0.1,0.1-0.2,0.2-0.3,0.3v0c-0.1,0.1-0.2,0.2-0.3,0.2c-0.3,0.2-0.7,0.4-1,0.6c-0.1,0.1-0.2,0.1-0.3,0.2c-0.1,0.1-0.2,0.1-0.3,0.2
	c-0.1,0.1-0.2,0.2-0.3,0.3c-0.1,0.1-0.2,0.2-0.2,0.3c-0.1,0.1-0.1,0.2-0.2,0.3C36,7.4,36,7.5,35.9,7.7c0,0.1-0.1,0.2-0.1,0.3
	c0,0.1-0.1,0.2-0.1,0.4c0,0.1,0,0.1,0,0.2c0,0.1,0,0.1,0,0.2c0,0.1,0,0.3,0,0.4c0,0.1,0,0.2,0,0.3c0,0.1,0,0.2,0,0.4
	c0,0.1,0,0.2,0.1,0.4c0,0.1,0.1,0.2,0.1,0.4c0,0.1,0.1,0.1,0.1,0.2l-3.4-1.3C32,9.2,31.5,9,30.9,8.9L30,8.7
	c-0.9-0.2-1.8-0.3-2.7-0.4c0,0,0,0-0.1,0c-0.9-0.1-1.8-0.1-2.6-0.1c-0.7,0-1.3,0-1.9,0.1c-0.9,0.1-1.8,0.2-2.7,0.3
	c-0.2,0-0.4,0.1-0.7,0.1c-0.5,0.1-0.9,0.2-1.3,0.3l-0.7,0.2c-0.2,0.1-0.4,0.2-0.6,0.3l-0.5,0.2c0,0-0.1,0-0.1,0
	c-0.1,0.1-0.3,0.1-0.4,0.2c0,0-0.1,0-0.1,0c-0.2,0.1-0.3,0.2-0.5,0.2c-0.1,0-0.2,0.1-0.3,0.1c0,0-0.1,0.1-0.1,0.1
	c-0.1,0.1-0.3,0.1-0.4,0.2c-0.1,0.1-0.3,0.1-0.4,0.2s-0.2,0.1-0.3,0.2c0,0,0,0,0,0c-0.1,0.1-0.2,0.1-0.3,0.2l0,0L13,11.5
	c0,0-0.1,0-0.1,0.1c-0.1,0.1-0.1,0.1-0.2,0.2c0,0,0,0-0.1,0.1c-0.1,0.1-0.2,0.2-0.3,0.3c0,0,0,0,0,0c-0.1,0.1-0.2,0.2-0.3,0.3
	c0,0,0,0,0,0c-0.1,0.1-0.2,0.2-0.2,0.2c0,0-0.1,0.1-0.1,0.1c-0.1,0.1-0.2,0.2-0.3,0.3c0,0,0,0-0.1,0.1c-0.1,0.1-0.2,0.2-0.3,0.4l0,0
	c-0.2,0.3-0.5,0.5-0.8,0.7c-0.3,0.2-0.5,0.5-0.8,0.7c-0.3,0.2-0.6,0.4-0.9,0.6c-0.3,0.2-0.6,0.3-0.9,0.4c-0.3,0.1-0.6,0.3-1,0.4
	c-0.6,0.1-1.3,0.4-1.8,0.4c-0.1,0-0.3,0-0.4,0c-0.1,0-0.3,0.1-0.4,0.1l-0.4,0.1c-0.1,0-0.2,0.1-0.4,0.2c-0.1,0.1-0.2,0.1-0.3,0.2
	c-0.1,0.1-0.2,0.2-0.3,0.3c-0.1,0.1-0.2,0.2-0.3,0.3c-0.1,0.1-0.2,0.2-0.3,0.3c-0.1,0.1-0.2,0.2-0.2,0.3c-0.1,0.1-0.1,0.2-0.2,0.3
	c-0.1,0.1-0.1,0.3-0.2,0.4c0,0.1-0.1,0.3-0.1,0.4c0,0.1-0.1,0.2-0.1,0.4c0,0,0,0,0,0c0,0.1,0,0.3,0,0.4c0,0.1,0,0.2,0,0.3
	c0,0.1,0,0.1,0,0.2c0,0.1,0,0.2,0.1,0.3c0,0.1,0.1,0.2,0.1,0.3v0c0,0.1,0.1,0.2,0.2,0.3c0.1,0.1,0.1,0.2,0.2,0.3
	C2,21.9,2.1,22,2.2,22.1c0.1,0.1,0.2,0.2,0.3,0.2c0.4,0.3,0.4,0.4,0.9,0.7c0.1,0,0.1,0.1,0.2,0.1c0,0,0,0,0,0c0,0,0,0,0,0.1
	c0,0.1,0,0.2,0.1,0.4c0,0.1,0.1,0.2,0.1,0.4c0,0.1,0.1,0.2,0.1,0.3c0,0,0,0.1,0,0.1c0.1,0.1,0.1,0.2,0.2,0.3l0.2,0.3
	c0.1,0.1,0.2,0.2,0.3,0.3c0.1,0.1,0.2,0.2,0.3,0.3c0,0,0,0,0,0c0.1,0.1,0.2,0.1,0.3,0.2c0.1,0.1,0.2,0.1,0.3,0.2
	c0.1,0.1,0.2,0.1,0.3,0.2C6,26,6.1,26,6.2,26c0,0,0,0,0.1,0c0.1,0,0.1,0,0.2,0c0,0.8-0.1,1.6,0.1,1.8c0.1,0.3,0.8-0.6,1.4-1.6
	c-0.1,1-0.1,2.2,0,2.6c0.2,0.4,1-0.8,1.8-2.1c10.5-2.4,20,4.8,21,15c-0.2-1.6-2.2-2.5-3.1-2.3c-0.4,1.1-1.2,2.5-2.4,3.4
	c0.1-1,0.1-2-0.1-3c-0.3,1.4-1,2.6-1.8,3.7c-1.4,0.1-2.8-0.6-3.5-1.6c-0.1,0-0.1-0.1-0.1-0.2c0-0.1-0.1-0.2-0.1-0.3
	c0-0.1-0.1-0.2-0.1-0.3c0-0.1,0-0.2,0-0.3v-0.2c0-0.1,0-0.2,0.1-0.3c0-0.1,0.1-0.2,0.1-0.3c0.1-0.1,0.1-0.2,0.2-0.3
	c0.3-0.7,0.3-1.3-0.2-1.6c-0.1-0.1-0.2-0.1-0.3-0.1c-0.1,0-0.1,0-0.2-0.1c0,0-0.1,0-0.1,0c-0.1,0-0.2-0.1-0.3-0.1
	c-0.1,0-0.2,0-0.3,0c-0.1,0-0.2,0-0.3,0c-0.1,0-0.1,0-0.2,0c-0.1,0-0.2,0-0.3,0c-0.1,0-0.2,0-0.3,0.1C17.1,38,17,38,16.9,38
	c-0.1,0-0.2,0.1-0.3,0.1c-0.1,0-0.2,0.1-0.3,0.1c-3.4,2.2-1.4,7.5,1,9c-0.9,0.2-1.8,0.4-2,0.5l0,0c0.6,0.4,1.3,0.7,2,1
	c0.9,0.3,2,0.6,2.4,0.7v0c1.2,0.3,2.5,0.3,3.7,0.3c6.5-0.5,11.9-5.4,12.9-12c0,0.1,0.1,0.3,0.1,0.4c0,0.3,0.1,0.5,0.1,0.8v0
	c0,0.1,0,0.3,0.1,0.4v0.1c0,0.1,0,0.3,0,0.4c0,0.2,0,0.3,0,0.5v0.2c0,0.1,0,0.2,0,0.2c0,0.1,0,0.2,0,0.3v0.2c0,0.1,0,0.2,0,0.3
	c0,0.1,0,0.1,0,0.2c0,0.1,0,0.2,0,0.3c0,0,0,0.1,0,0.1c0,0.1,0,0.2,0,0.3c0,0,0,0.1,0,0.1c0,0.1,0,0.3-0.1,0.4v0
	c0,0.1-0.1,0.3-0.1,0.4v0l-0.1,0.4c0,0,0,0,0,0.1c0,0.1-0.1,0.3-0.1,0.4v0c0,0.1-0.1,0.3-0.1,0.4c0,0,0,0,0,0l-0.1,0.4
	c-0.1,0.1-0.1,0.3-0.2,0.4c-0.1,0.1-0.1,0.3-0.2,0.4c-0.1,0.1-0.1,0.3-0.2,0.4h0c-0.1,0.1-0.1,0.3-0.2,0.4c0,0,0,0.1,0,0.1
	c0,0,0,0,0,0c-1,1.9-2.4,3.6-4.2,5c-0.1,0.1-0.2,0.2-0.4,0.3c0,0-0.1,0-0.1,0.1c-0.1,0.1-0.2,0.1-0.3,0.2l0,0.1h0l0.6-0.1h0
	c0.4-0.1,0.8-0.1,1.2-0.2c0.1,0,0.2,0,0.3-0.1c0.1,0,0.1,0,0.2,0c0.1,0,0.2,0,0.3-0.1c0.1,0,0.2,0,0.3-0.1c1.5-0.4,2.9-0.8,4.3-1.4
	c-2.3,3.2-5.5,5.8-9.2,7.5c1.7-0.1,3.4-0.4,5-0.9c6-1.8,11-5.8,14-11.2c-0.6,3.4-2,6.7-4,9.5c1.4-0.9,2.8-2,3.9-3.3
	c3.3-3.5,5.5-7.8,6.2-12.6c0.5,2.3,0.6,4.7,0.4,7.1c10.7-14.9,0.9-30.3-3.2-34.4c0,0,0,0,0-0.1c0,0,0,0,0,0c0,0,0,0,0,0
	c0,0.2,0,0.4,0,0.5c0,0.3-0.1,0.7-0.1,1c-0.1,0.3-0.2,0.7-0.3,1c-0.1,0.3-0.2,0.6-0.4,0.9c-0.1,0.3-0.3,0.6-0.4,0.9
	c-0.2,0.3-0.3,0.6-0.5,0.8c-0.2,0.3-0.4,0.5-0.6,0.8c-0.2,0.3-0.5,0.5-0.7,0.7c-0.1,0.1-0.3,0.3-0.4,0.4c-0.1,0.1-0.2,0.2-0.3,0.3
	c-0.3,0.2-0.5,0.4-0.8,0.6c-0.3,0.2-0.6,0.4-0.9,0.5c-0.3,0.1-0.6,0.3-0.9,0.4c-0.3,0.1-0.6,0.2-1,0.3c-0.3,0.1-0.7,0.2-1,0.2
	c-0.3,0.1-0.7,0.1-1,0.1c-0.2,0-0.5,0-0.7,0c-0.3,0-0.7,0-1-0.1c-0.3,0-0.7-0.1-1-0.1c-0.3-0.1-0.7-0.1-1-0.3h0c0.3,0,0.7-0.1,1-0.1
	c0.3-0.1,0.7-0.1,1-0.2c0.3-0.1,0.6-0.2,1-0.3c0.3-0.1,0.6-0.3,0.9-0.4c0.3-0.1,0.6-0.3,0.9-0.5c0.3-0.2,0.6-0.4,0.8-0.6
	c0.3-0.2,0.5-0.4,0.8-0.7c0.3-0.2,0.5-0.5,0.7-0.7c0.2-0.3,0.4-0.5,0.6-0.8c0,0,0.1-0.1,0.1-0.1c0.1-0.2,0.3-0.5,0.4-0.7
	c0.2-0.3,0.3-0.6,0.4-0.9c0.1-0.3,0.3-0.6,0.4-0.9c0.1-0.3,0.2-0.6,0.3-1c0.1-0.3,0.1-0.7,0.1-1c0-0.3,0.1-0.7,0.1-1
	c0-0.2,0-0.5,0-0.7c0-0.3-0.1-0.7-0.1-1c-0.1-0.3-0.1-0.7-0.2-1c-0.1-0.3-0.2-0.6-0.3-0.9C46,8,45.8,7.7,45.7,7.4
	c-0.2-0.3-0.3-0.6-0.5-0.9C45,6.2,44.8,6,44.6,5.7c-0.2-0.3-0.4-0.5-0.7-0.8c-0.1-0.1-0.3-0.2-0.4-0.4c-0.7-0.5-1.3-1-2.1-1.4
	C41.4,3.1,41.3,3,41.2,3C40.7,2.7,40.2,2.5,39.8,2.4L39.8,2.4z"/>
</svg>
