<?xml version="1.0" encoding="utf-8"?>
<!-- Generator: Adobe Illustrator 25.0.0, SVG Export Plug-In . SVG Version: 6.00 Build 0)  -->
<svg version="1.1" id="Layer_1" xmlns="http://www.w3.org/2000/svg" xmlns:xlink="http://www.w3.org/1999/xlink" x="0px" y="0px"
	 viewBox="0 0 60 60" style="enable-background:new 0 0 60 60;" xml:space="preserve">
<style type="text/css">
	.st0{fill:#FFFFFF;}
</style>
<g>
	<path class="st0" d="M59,30c0-3.8-4.8-7.5-12.2-9.7c1.7-7.5,0.9-13.5-2.4-15.4c-0.8-0.4-1.7-0.7-2.6-0.7v2.6c0.5,0,1,0.1,1.3,0.3
		c1.6,0.9,2.3,4.4,1.8,8.9c-0.1,1.1-0.3,2.3-0.6,3.5c-2.3-0.6-4.8-1-7.5-1.3c-1.6-2.2-3.3-4.2-4.9-5.9c3.9-3.6,7.5-5.5,9.9-5.5V4.2
		c-3.3,0-7.5,2.3-11.8,6.3c-4.3-4-8.6-6.3-11.8-6.3v2.6c2.4,0,6.1,2,9.9,5.5c-1.7,1.7-3.3,3.7-4.9,5.9c-2.7,0.3-5.2,0.7-7.5,1.3
		c-0.3-1.2-0.5-2.3-0.6-3.4c-0.6-4.5,0.1-8,1.7-9c0.4-0.2,0.8-0.3,1.4-0.3V4.2c-1,0-1.9,0.2-2.7,0.7c-3.3,1.9-4.1,7.9-2.4,15.4
		C5.8,22.5,1,26.2,1,30c0,3.8,4.8,7.5,12.2,9.7c-1.7,7.5-0.9,13.5,2.4,15.4c0.8,0.4,1.7,0.7,2.7,0.7c3.3,0,7.5-2.3,11.8-6.3
		c4.3,4,8.6,6.3,11.8,6.3c1,0,1.9-0.2,2.7-0.7c3.3-1.9,4.1-7.9,2.4-15.4C54.2,37.5,59,33.8,59,30L59,30z M43.6,22.1
		c-0.4,1.5-1,3.1-1.6,4.7c-0.5-0.9-1-1.9-1.5-2.8c-0.5-0.9-1.1-1.9-1.7-2.8C40.4,21.4,42.1,21.7,43.6,22.1L43.6,22.1z M38.2,34.7
		c-0.9,1.6-1.9,3.1-2.8,4.5c-1.8,0.2-3.5,0.2-5.3,0.2c-1.8,0-3.6-0.1-5.3-0.2c-1-1.4-1.9-2.9-2.9-4.5c-0.9-1.5-1.7-3.1-2.5-4.7
		c0.7-1.6,1.6-3.2,2.4-4.7c0.9-1.6,1.9-3.1,2.8-4.5c1.8-0.2,3.5-0.2,5.3-0.2c1.8,0,3.6,0.1,5.3,0.2c1,1.4,1.9,2.9,2.9,4.5
		c0.9,1.5,1.7,3.1,2.5,4.7C39.9,31.6,39.1,33.2,38.2,34.7L38.2,34.7z M42,33.2c0.6,1.6,1.2,3.2,1.6,4.7c-1.5,0.4-3.2,0.7-4.9,0.9
		c0.6-0.9,1.2-1.8,1.7-2.8C41,35.1,41.5,34.1,42,33.2L42,33.2z M30,45.8c-1.1-1.1-2.2-2.4-3.3-3.8c1.1,0,2.2,0.1,3.3,0.1
		c1.1,0,2.2,0,3.3-0.1C32.2,43.4,31.1,44.7,30,45.8z M21.2,38.8c-1.7-0.2-3.3-0.6-4.8-0.9c0.4-1.5,1-3.1,1.6-4.7
		c0.5,0.9,1,1.9,1.5,2.8S20.6,37.9,21.2,38.8z M30,14.2c1.1,1.1,2.2,2.4,3.3,3.8c-1.1,0-2.2-0.1-3.3-0.1c-1.1,0-2.2,0-3.3,0.1
		C27.8,16.6,28.9,15.4,30,14.2z M21.2,21.2c-0.6,0.9-1.2,1.8-1.7,2.8c-0.5,0.9-1.1,1.9-1.5,2.8c-0.6-1.6-1.2-3.2-1.6-4.7
		C17.9,21.8,19.5,21.4,21.2,21.2L21.2,21.2z M10.5,36c-4.2-1.8-6.9-4.1-6.9-6s2.7-4.2,6.9-6c1-0.4,2.1-0.8,3.3-1.2
		c0.7,2.3,1.6,4.7,2.7,7.2c-1.1,2.5-2,4.9-2.6,7.2C12.7,36.8,11.5,36.4,10.5,36L10.5,36z M16.9,52.9c-1.6-0.9-2.3-4.4-1.8-8.9
		c0.1-1.1,0.3-2.3,0.6-3.5c2.3,0.6,4.8,1,7.5,1.3c1.6,2.2,3.3,4.2,4.9,5.9c-3.9,3.6-7.5,5.5-9.9,5.5C17.7,53.2,17.2,53.1,16.9,52.9
		L16.9,52.9z M44.9,43.9c0.6,4.5-0.1,8-1.7,9c-0.4,0.2-0.8,0.3-1.4,0.3c-2.4,0-6.1-2-9.9-5.5c1.7-1.7,3.3-3.7,4.9-5.9
		c2.7-0.3,5.2-0.7,7.5-1.3C44.6,41.6,44.8,42.8,44.9,43.9z M49.5,36c-1,0.4-2.1,0.8-3.3,1.2c-0.7-2.3-1.6-4.7-2.7-7.2
		c1.1-2.5,2-4.9,2.6-7.2c1.2,0.4,2.3,0.8,3.3,1.2c4.2,1.8,6.9,4.1,6.9,6C56.4,31.9,53.7,34.2,49.5,36L49.5,36z"/>
	<circle class="st0" cx="30" cy="30" r="5.4"/>
</g>
</svg>
