<?xml version="1.0" encoding="utf-8"?>
<!-- Generator: Adobe Illustrator 25.0.0, SVG Export Plug-In . SVG Version: 6.00 Build 0)  -->
<svg version="1.1" id="Layer_1" xmlns="http://www.w3.org/2000/svg" xmlns:xlink="http://www.w3.org/1999/xlink" x="0px" y="0px"
	 viewBox="0 0 60 60" style="enable-background:new 0 0 60 60;" xml:space="preserve">
<style type="text/css">
	.st0{fill:#FFFFFF;}
</style>
<path class="st0" d="M50.9,33.2c-2,0-3.8,0.5-5.3,1.2c-0.5-1.1-1.1-2-1.2-2.7c-0.1-0.8-0.2-1.3-0.1-2.3c0.1-1,0.7-2.4,0.7-2.5
	c0-0.1-0.1-0.6-1.3-0.6c-1.2,0-2.2,0.2-2.3,0.5c-0.1,0.3-0.3,1-0.5,1.7c-0.2,1.1-2.3,4.8-3.5,6.8c-0.4-0.8-0.7-1.5-0.8-2
	c-0.1-0.8-0.2-1.3-0.1-2.3c0.1-1,0.7-2.4,0.7-2.5c0-0.1-0.1-0.6-1.3-0.6c-1.2,0-2.2,0.2-2.3,0.5c-0.1,0.3-0.2,1-0.5,1.7
	c-0.2,0.7-3.1,7-3.8,8.6c-0.4,0.8-0.7,1.5-0.9,2c-0.2,0.5,0,0,0,0.1c-0.2,0.4-0.3,0.6-0.3,0.6v0c-0.2,0.3-0.3,0.6-0.4,0.6
	c-0.1,0-0.2-0.8,0-1.8c0.4-2.2,1.4-5.6,1.4-5.7c0-0.1,0.2-0.7-0.7-1c-0.8-0.3-1.1,0.2-1.2,0.2c-0.1,0-0.1,0.2-0.1,0.2
	s0.9-3.8-1.8-3.8c-1.7,0-4,1.8-5.1,3.5c-0.7,0.4-2.3,1.2-3.9,2.1c-0.6,0.3-1.3,0.7-1.9,1l-0.1-0.1c-3.2-3.5-9.2-5.9-9-10.5
	c0.1-1.7,0.7-6.1,11.5-11.5c8.9-4.4,16-3.2,17.2-0.5c1.8,3.9-3.8,11-13,12c-3.5,0.4-5.4-1-5.8-1.5c-0.5-0.5-0.6-0.6-0.7-0.5
	c-0.3,0.2-0.1,0.6,0,0.9c0.3,0.7,1.4,2,3.3,2.6c1.7,0.6,5.8,0.9,10.8-1.1c5.6-2.2,9.9-8.2,8.7-13.2C36,8.5,27.5,6.8,19.5,9.6
	c-4.8,1.7-9.9,4.4-13.7,7.8c-4.4,4.1-5.1,7.7-4.8,9.2c1,5.3,8.4,8.8,11.3,11.4c-0.1,0.1-0.3,0.2-0.4,0.2C10.5,39,4.9,42,3.5,45.1
	c-1.6,3.5,0.2,6,1.5,6.4c3.8,1.1,7.7-0.8,9.8-4c2.1-3.1,1.8-7.2,0.9-9l0-0.1l1.2-0.7c0.7-0.4,1.5-0.8,2.1-1.2
	c-0.4,1-0.6,2.2-0.8,3.9c-0.2,2,0.7,4.6,1.7,5.6c0.5,0.4,1,0.5,1.4,0.5c1.2,0,1.8-1,2.4-2.3c0.8-1.5,1.5-3.3,1.5-3.3
	s-0.8,4.7,1.5,4.7c0.8,0,1.7-1.1,2.1-1.7v0c0,0,0,0,0.1-0.1c0-0.1,0.1-0.1,0.1-0.2v0c0.3-0.6,1.1-1.9,2.2-4.2C32.6,36.6,34,33,34,33
	s0.1,0.9,0.6,2.3c0.2,0.9,0.8,1.8,1.2,2.7c-0.3,0.5-0.5,0.7-0.5,0.7l0,0c-0.3,0.4-0.6,0.7-0.9,1.1c-1.2,1.4-2.5,3-2.7,3.4
	c-0.2,0.5-0.2,0.9,0.2,1.2c0.3,0.2,0.8,0.3,1.4,0.2c1-0.1,1.8-0.3,2.1-0.5c0.6-0.2,1.2-0.5,1.8-1c1.1-0.8,1.8-2,1.8-3.6
	c0-0.9-0.3-1.7-0.7-2.5c0.1-0.1,0.2-0.3,0.3-0.5c1.8-2.6,3.2-5.5,3.2-5.5s0.1,0.9,0.6,2.3c0.2,0.7,0.6,1.5,1,2.3
	c-1.7,1.4-2.7,3-3.1,4c-0.7,1.9-0.1,2.8,0.8,3c0.4,0.1,1.1-0.1,1.6-0.3c0.6-0.2,1.3-0.5,2-1c1.1-0.8,2.2-2,2.2-3.6
	c0-0.7-0.2-1.4-0.5-2.1c1.4-0.6,3.3-0.9,5.6-0.6c5,0.6,6,3.7,5.8,5.1c-0.2,1.3-1.2,2-1.6,2.3c-0.4,0.2-0.5,0.3-0.4,0.5
	c0,0.2,0.2,0.2,0.5,0.2c0.4-0.1,2.7-1.1,2.7-3.5C59.1,36.6,56.2,33.2,50.9,33.2L50.9,33.2z M12,46.3c-1.7,1.8-4,2.5-5,1.9
	C6,47.6,6.4,45,8.4,43c1.2-1.2,2.9-2.3,3.9-2.9c0.2-0.1,0.6-0.4,1-0.6c0.1,0,0.1-0.1,0.1-0.1c0.1,0,0.2-0.1,0.3-0.2
	C14.5,42,13.8,44.4,12,46.3L12,46.3z M24.2,38.1c-0.6,1.4-1.8,5.1-2.5,4.8c-0.6-0.2-1-2.9-0.1-5.6c0.5-1.4,1.4-3,2-3.6
	c0.9-1,1.9-1.4,2.2-0.9C26,33.2,24.6,37.2,24.2,38.1z M34.3,42.9C34,43,33.8,43.1,33.7,43c-0.1,0,0.1-0.2,0.1-0.2s1.3-1.3,1.8-2
	c0.3-0.4,0.6-0.8,1-1.3v0.1C36.5,41.3,35,42.4,34.3,42.9L34.3,42.9z M42,41.1c-0.2-0.1-0.2-0.6,0.5-1.9c0.2-0.5,0.8-1.4,1.7-2.2
	c0.1,0.3,0.2,0.7,0.2,1C44.4,40,42.9,40.8,42,41.1z"/>
</svg>
