<?xml version="1.0" encoding="utf-8"?>
<!-- Generator: Adobe Illustrator 25.0.0, SVG Export Plug-In . SVG Version: 6.00 Build 0)  -->
<svg version="1.1" id="Layer_1" xmlns="http://www.w3.org/2000/svg" xmlns:xlink="http://www.w3.org/1999/xlink" x="0px" y="0px"
	 viewBox="0 0 60 60" style="enable-background:new 0 0 60 60;" xml:space="preserve">
<style type="text/css">
	.st0{clip-path:url(#SVGID_2_);}
	.st1{fill:#FFFFFF;}
</style>
<g>
	<g>
		<defs>
			<rect id="SVGID_1_" x="1.5" y="1.5" width="57.1" height="57.1"/>
		</defs>
		<clipPath id="SVGID_2_">
			<use xlink:href="#SVGID_1_"  style="overflow:visible;"/>
		</clipPath>
		<g class="st0">
			<path class="st1" d="M147.3,23.9h-9.9V25c3.1,0,3.6,0.7,3.6,4.6v7.1c0,3.9-0.5,4.6-3.6,4.6c-2.4-0.3-4-1.6-6.2-4l-2.5-2.8
				c3.4-0.6,5.3-2.8,5.3-5.2c0-3-2.6-5.4-7.5-5.4h-9.7V25c3.1,0,3.6,0.7,3.6,4.6v7.1c0,3.9-0.5,4.6-3.6,4.6v1.1h11v-1.1
				c-3.1,0-3.6-0.7-3.6-4.6v-2h0.9l6.1,7.7h16.1c7.9,0,11.3-4.2,11.3-9.2C158.7,28.1,155.2,23.9,147.3,23.9L147.3,23.9z M124.1,32.9
				v-7.4h2.3c2.5,0,3.6,1.7,3.6,3.7c0,1.9-1.1,3.6-3.6,3.6L124.1,32.9z M147.5,40.6h-0.4c-2,0-2.3-0.5-2.3-3v-12h2.7
				c5.8,0,6.8,4.2,6.8,7.5C154.3,36.4,153.2,40.6,147.5,40.6z M85.9,35l3.8-11.3c1.1-3.3,0.6-4.2-2.9-4.2v-1.1h10.4v1.1
				c-3.5,0-4.3,0.8-5.7,4.9l-6.3,18.9h-0.7L78.9,26l-5.8,17.3h-0.7l-6.1-18.9c-1.3-4-2.2-4.9-5.4-4.9v-1.1h12.3v1.1
				c-3.3,0-4.1,0.8-3,4.2L73.8,35l5.6-16.6h1.1L85.9,35L85.9,35z M104.7,43.1c-6.1,0-11.1-4.5-11.1-10c0-5.4,5-9.9,11.1-9.9
				s11.1,4.5,11.1,9.9C115.8,38.6,110.8,43.1,104.7,43.1z M104.7,24.9c-5.1,0-6.9,4.6-6.9,8.2c0,3.7,1.8,8.2,6.9,8.2
				s6.9-4.5,6.9-8.2C111.7,29.5,109.9,24.9,104.7,24.9L104.7,24.9z"/>
			<path class="st1" d="M172.3,41.2v1.1h-12.7v-1.1c3.7,0,4.4-0.9,4.4-6.5v-8.8c0-5.5-0.7-6.4-4.4-6.4v-1.1H171
				c5.7,0,8.8,2.9,8.8,6.9c0,3.8-3.2,6.8-8.8,6.8h-3.2v2.7C167.9,40.3,168.6,41.2,172.3,41.2L172.3,41.2z M171.1,20.4h-3.2V30h3.2
				c3.1,0,4.5-2.2,4.5-4.8S174.2,20.4,171.1,20.4z M217.9,37.1l-0.3,1c-0.5,1.8-1.1,2.5-5,2.5h-0.8c-2.9,0-3.4-0.7-3.4-4.6v-2.5
				c4.3,0,4.6,0.4,4.6,3.3h1.1v-8.2H213c0,2.9-0.3,3.3-4.6,3.3v-6.2h3c3.9,0,4.5,0.7,5,2.5l0.3,1.1h0.9l-0.4-5.2h-16.3V25
				c3.1,0,3.6,0.7,3.6,4.6v7.1c0,3.6-0.4,4.5-2.9,4.6c-2.3-0.4-3.9-1.6-6.1-4l-2.5-2.8c3.4-0.6,5.3-2.8,5.3-5.2c0-3-2.6-5.4-7.5-5.4
				h-9.7V25c3.1,0,3.6,0.7,3.6,4.6v7.1c0,3.9-0.5,4.6-3.6,4.6v1.1h11v-1.1c-3.1,0-3.6-0.7-3.6-4.6v-2h0.9l6.1,7.7h22.7l0.3-5.2
				L217.9,37.1L217.9,37.1z M188.6,32.9v-7.4h2.3c2.5,0,3.6,1.7,3.6,3.7c0,1.9-1.1,3.6-3.6,3.6L188.6,32.9z M229.2,43.1
				c-2.2,0-4.1-1.2-5-1.9c-0.3,0.3-0.8,1.1-0.9,1.9h-1.1v-7.6h1.1c0.4,3.7,3,5.8,6.2,5.8c1.8,0,3.2-1,3.2-2.7c0-1.4-1.3-2.5-3.5-3.6
				l-3.2-1.5c-2.2-1.1-3.9-2.9-3.9-5.3c0-2.7,2.5-4.9,5.9-4.9c1.8,0,3.4,0.7,4.3,1.4c0.3-0.2,0.6-0.8,0.7-1.5h1.1v6.5h-1.2
				c-0.4-2.6-1.8-4.8-4.8-4.8c-1.5,0-3,0.9-3,2.3s1.2,2.2,3.8,3.4l3,1.5c2.7,1.3,3.7,3.3,3.7,5C235.9,40.6,232.9,43.1,229.2,43.1
				L229.2,43.1z M246.2,43.1c-2.2,0-4.1-1.2-5-1.9c-0.3,0.3-0.8,1.1-0.9,1.9h-1.1v-7.6h1.1c0.4,3.7,3,5.8,6.2,5.8
				c1.8,0,3.2-1,3.2-2.7c0-1.4-1.3-2.5-3.5-3.6l-3.2-1.5c-2.2-1.1-3.9-2.9-3.9-5.3c0-2.7,2.5-4.9,5.9-4.9c1.8,0,3.4,0.7,4.3,1.4
				c0.3-0.2,0.6-0.8,0.7-1.5h1.1v6.5h-1.2c-0.4-2.6-1.8-4.8-4.8-4.8c-1.5,0-3,0.9-3,2.3s1.2,2.2,3.8,3.4l3,1.5
				c2.7,1.3,3.7,3.3,3.7,5C252.9,40.6,249.9,43.1,246.2,43.1L246.2,43.1z"/>
			<g>
				<path class="st1" d="M5.5,30c0,9.7,5.6,18.1,13.8,22L7.6,20C6.2,23.2,5.5,26.6,5.5,30L5.5,30z M46.5,28.8c0-3-1.1-5.1-2-6.7
					c-1.2-2-2.4-3.7-2.4-5.7c0-2.2,1.7-4.3,4.1-4.3c0.1,0,0.2,0,0.3,0C42.2,8,36.4,5.5,30,5.5c-8.6,0-16.1,4.4-20.4,11
					c0.6,0,1.1,0,1.6,0c2.6,0,6.5-0.3,6.5-0.3c1.3-0.1,1.5,1.9,0.2,2c0,0-1.3,0.2-2.8,0.2L23.9,45l5.4-16l-3.8-10.4
					c-1.3-0.1-2.6-0.2-2.6-0.2c-1.3-0.1-1.2-2.1,0.2-2c0,0,4,0.3,6.4,0.3c2.6,0,6.5-0.3,6.5-0.3c1.3-0.1,1.5,1.9,0.2,2
					c0,0-1.3,0.2-2.8,0.2l8.8,26.3l2.4-8.2C45.7,33.3,46.5,30.9,46.5,28.8L46.5,28.8z"/>
				<path class="st1" d="M30.4,32.1l-7.3,21.3c2.2,0.7,4.6,1,6.9,1c2.9,0,5.6-0.5,8.1-1.4c0,0-0.1-0.1-0.1-0.2L30.4,32.1z
					 M51.5,18.3c0.1,0.8,0.2,1.6,0.2,2.5c0,2.5-0.5,5.3-1.9,8.8l-7.5,21.6C49.6,46.9,54.5,39,54.5,30C54.5,25.9,53.4,21.9,51.5,18.3
					L51.5,18.3z"/>
				<path class="st1" d="M30,1.5C14.3,1.5,1.5,14.3,1.5,30S14.3,58.5,30,58.5S58.5,45.7,58.5,30S45.7,1.5,30,1.5z M30,57.2
					C15,57.2,2.8,45,2.8,30S15,2.8,30,2.8S57.2,15,57.2,30S45,57.2,30,57.2L30,57.2z"/>
			</g>
		</g>
	</g>
</g>
</svg>
