<?xml version="1.0" encoding="utf-8"?>
<!-- Generator: Adobe Illustrator 25.0.0, SVG Export Plug-In . SVG Version: 6.00 Build 0)  -->
<svg version="1.1" id="OBJECT" xmlns="http://www.w3.org/2000/svg" xmlns:xlink="http://www.w3.org/1999/xlink" x="0px" y="0px"
	 viewBox="0 0 140.6 648.5" style="enable-background:new 0 0 140.6 648.5;" xml:space="preserve">
<style type="text/css">
	.st0{fill:#FFFFFF;}
</style>
<g>
	<polygon class="st0" points="61.3,81.8 70.3,96.5 79.4,81.8 70.3,67.1 	"/>
	<polyline class="st0" points="45.3,22 59.8,-1.4 30.9,-1.4 	"/>
	<polygon class="st0" points="109.8,-1.4 80.8,-1.4 95.3,22 	"/>
	<polygon class="st0" points="61.3,244.2 70.3,258.9 79.4,244.2 70.3,229.6 	"/>
	<polygon class="st0" points="45.3,137.6 30.9,161 45.3,184.5 59.8,161 	"/>
	<polygon class="st0" points="95.3,184.5 109.8,161 95.3,137.6 80.8,161 	"/>
	<polygon class="st0" points="61.3,406.7 70.3,421.4 79.4,406.7 70.3,392 	"/>
	<polygon class="st0" points="45.3,300.1 30.9,323.5 45.3,347 59.8,323.5 	"/>
	<polygon class="st0" points="95.3,347 109.8,323.5 95.3,300.1 80.8,323.5 	"/>
	<polygon class="st0" points="61.3,569.2 70.3,583.9 79.4,569.2 70.3,554.5 	"/>
	<polygon class="st0" points="45.3,462.5 30.9,486 45.3,509.4 59.8,486 	"/>
	<polygon class="st0" points="95.3,509.4 109.8,486 95.3,462.5 80.8,486 	"/>
	<path class="st0" d="M42.5,81.3l-11.7,18.9l38.5,62.4l-38.5,62.4l11.7,18.9l-11.7,18.9L69.4,325l-38.5,62.4l11.7,18.9l-11.7,18.9
		l38.5,62.4l-38.5,62.4l11.7,18.9l-11.7,18.9l38.5,62.3h2l38.5-62.3l-11.7-18.9l11.7-18.9l-38.5-62.4l38.5-62.4l-11.7-18.9
		l11.7-18.9L71.3,325l38.5-62.4l-11.7-18.9l11.7-18.9l-38.5-62.4l38.5-62.4L98.1,81.3l11.7-18.9L70.3-1.4L30.9,62.4L42.5,81.3z
		 M100.8,587.6L70.3,637l-30.5-49.4L47,576l23.3,37.7L93.6,576L100.8,587.6z M70.3,599.2l-18.8-30.5l18.8-30.5l18.8,30.5L70.3,599.2
		z M100.8,549.8l-7.2,11.6l-23.3-37.7L47,561.5l-7.2-11.6l30.5-49.4L100.8,549.8z M100.8,425.1l-30.5,49.4l-30.5-49.4l7.2-11.6
		l23.3,37.7l23.3-37.7L100.8,425.1z M70.3,436.7l-18.8-30.5l18.8-30.5l18.8,30.5L70.3,436.7z M100.8,387.4L93.6,399l-23.3-37.7
		L47,399l-7.2-11.6L70.3,338L100.8,387.4z M100.8,262.7L70.3,312l-30.5-49.4L47,251l23.3,37.7L93.6,251L100.8,262.7z M70.3,274.3
		l-18.8-30.5l18.8-30.5l18.8,30.5L70.3,274.3z M100.8,224.9l-7.2,11.6l-23.3-37.7L47,236.5l-7.2-11.6l30.5-49.4L100.8,224.9z
		 M100.8,100.2l-30.5,49.4l-30.5-49.4L47,88.6l23.3,37.7l23.3-37.7L100.8,100.2z M89.2,81.3l-18.8,30.5L51.5,81.3l18.8-30.5
		L89.2,81.3z M100.8,62.4l-7.2,11.6L70.3,36.3L47,74.1l-7.2-11.6l30.5-49.4L100.8,62.4z"/>
	<polygon class="st0" points="45.3,625 30.9,648.4 31.8,649.9 58.9,649.9 59.8,648.4 	"/>
	<polygon class="st0" points="95.3,625 80.8,648.4 81.7,649.9 108.9,649.9 109.8,648.4 	"/>
</g>
</svg>
