<?xml version="1.0" encoding="utf-8"?>
<!-- Generator: Adobe Illustrator 22.0.1, SVG Export Plug-In . SVG Version: 6.00 Build 0)  -->
<svg version="1.1" id="Layer_1" xmlns="http://www.w3.org/2000/svg" xmlns:xlink="http://www.w3.org/1999/xlink" x="0px" y="0px"
	 viewBox="0 0 609.4 316.8" style="enable-background:new 0 0 609.4 316.8;" xml:space="preserve">
<style type="text/css">
	.st0{display:none;}
	.st1{display:inline;fill:#131313;}
	.st2{font-family:'Cairo-SemiBold';}
	.st3{font-size:63.4448px;}
	.st4{font-family:'Cairo-ExtraLight';}
	.st5{font-size:30.5894px;}
	.st6{fill:#1C2E4B;}
	.st7{fill:#CA9D3D;}
	.st8{fill:#1F304C;}
	.st9{fill:#0D1530;}
	.st10{fill:#131313;}
	.st11{fill-rule:evenodd;clip-rule:evenodd;fill:#F3911F;}
	.st12{fill-rule:evenodd;clip-rule:evenodd;fill:#E1AF25;}
	.st13{fill-rule:evenodd;clip-rule:evenodd;fill:#F1F1F5;}
	.st14{fill-rule:evenodd;clip-rule:evenodd;fill:#EBEBF0;}
	.st15{fill-rule:evenodd;clip-rule:evenodd;fill:#A7DCE5;}
	.st16{fill-rule:evenodd;clip-rule:evenodd;fill:#FFCD05;}
	.st17{fill-rule:evenodd;clip-rule:evenodd;fill:#19B0BF;}
	.st18{fill-rule:evenodd;clip-rule:evenodd;fill:#FED620;}
	.st19{fill-rule:evenodd;clip-rule:evenodd;fill:#E4BE21;}
	.st20{fill-rule:evenodd;clip-rule:evenodd;fill:#FEE265;}
	.st21{fill-rule:evenodd;clip-rule:evenodd;fill:#C5282C;}
	.st22{fill-rule:evenodd;clip-rule:evenodd;fill:#E74137;}
	.st23{fill-rule:evenodd;clip-rule:evenodd;fill:#FED309;}
	.st24{fill-rule:evenodd;clip-rule:evenodd;fill:#FFFFFF;}
	.st25{fill-rule:evenodd;clip-rule:evenodd;fill:#F6F6F7;}
	.st26{fill-rule:evenodd;clip-rule:evenodd;fill:#8D8288;}
	.st27{fill-rule:evenodd;clip-rule:evenodd;fill:#F5F5F7;}
	.st28{fill-rule:evenodd;clip-rule:evenodd;fill:#0D8B9E;}
	.st29{fill-rule:evenodd;clip-rule:evenodd;fill:#EEC64A;}
	.st30{fill-rule:evenodd;clip-rule:evenodd;fill:#C3C3C9;}
	.st31{fill-rule:evenodd;clip-rule:evenodd;fill:#EBB688;}
	.st32{fill-rule:evenodd;clip-rule:evenodd;fill:#E0AD7E;}
	.st33{fill-rule:evenodd;clip-rule:evenodd;fill:#5F3C2A;}
	.st34{fill-rule:evenodd;clip-rule:evenodd;fill:#F1F9FB;}
	.st35{fill-rule:evenodd;clip-rule:evenodd;fill:#0A436A;}
	.st36{fill-rule:evenodd;clip-rule:evenodd;fill:#5B3546;}
	.st37{fill-rule:evenodd;clip-rule:evenodd;fill:#394247;}
	.st38{fill-rule:evenodd;clip-rule:evenodd;fill:#2E96B3;}
	.st39{fill-rule:evenodd;clip-rule:evenodd;fill:#DDDEE6;}
	.st40{fill-rule:evenodd;clip-rule:evenodd;fill:#795C69;}
</style>
<text transform="matrix(1 0 0 1 278.7246 109.8345)" class="st0"><tspan x="0" y="0" class="st1 st2 st3">Algorithms</tspan><tspan x="70.2" y="36.7" class="st1 st4 st5">Specilization</tspan></text>
<g class="st0">
	<path class="st1" d="M280.8,66.2H297c4.5,0,7.8,0.9,9.9,2.7c2.1,1.8,3.2,4.7,3.2,8.7c0,2.5-0.4,4.5-1.3,6c-0.8,1.5-2.2,2.7-4.1,3.7
		c2.2,0.8,3.8,2.1,4.9,3.7c1.1,1.6,1.6,3.8,1.6,6.6c0,8.1-4.6,12.2-13.7,12.2h-16.9V66.2z M297,85.1c2.4,0,4.1-0.6,5.3-1.7
		c1.1-1.1,1.7-2.9,1.7-5.2c0-2.3-0.6-4-1.8-5.1c-1.2-1.1-3-1.6-5.5-1.6h-9.8v13.6H297z M297.4,104.5c2.6,0,4.5-0.5,5.8-1.6
		c1.3-1.1,2-2.8,2-5.3c0-4.8-2.7-7.2-8.1-7.2h-10.3v14.1H297.4z"/>
	<path class="st1" d="M319.3,64.7h5.9v45.2h-5.9V64.7z"/>
	<path class="st1" d="M335.7,106.6c-2.2-2.6-3.2-6.8-3.2-12.5c0-5.8,1.1-10,3.3-12.7c2.2-2.7,5.7-4,10.6-4c4.9,0,8.4,1.3,10.6,4
		c2.2,2.7,3.3,6.9,3.3,12.7c0,5.6-1.1,9.8-3.2,12.4c-2.2,2.7-5.7,4-10.7,4C341.4,110.5,337.9,109.2,335.7,106.6z M351.1,104.3
		c1.1-0.7,1.9-1.9,2.4-3.5c0.5-1.6,0.7-3.8,0.7-6.7c0-3-0.2-5.3-0.7-7c-0.5-1.6-1.3-2.8-2.4-3.5s-2.7-1-4.7-1s-3.6,0.3-4.7,1
		c-1.1,0.7-2,1.9-2.4,3.6c-0.5,1.7-0.7,4-0.7,6.9c0,2.8,0.2,5.1,0.7,6.7c0.5,1.6,1.3,2.8,2.4,3.5c1.1,0.7,2.7,1.1,4.8,1.1
		S350,105,351.1,104.3z"/>
	<path class="st1" d="M371.4,108.8c-1.9-1.1-3.2-2.9-4.1-5.3c-0.8-2.4-1.2-5.6-1.2-9.5c0-5.2,0.9-9.3,2.8-12.2
		c1.8-2.9,5.2-4.3,10-4.3c1.2,0,2.5,0.1,3.9,0.2c1.4,0.1,3.3,0.5,5.6,0.9l-0.2,4.7c-3.6-0.3-6.1-0.5-7.6-0.5c-2.2,0-4,0.3-5.2,1
		c-1.2,0.7-2.1,1.8-2.6,3.4c-0.5,1.6-0.7,3.9-0.7,6.9c0,2.9,0.2,5.1,0.7,6.7c0.5,1.6,1.3,2.7,2.6,3.4c1.2,0.7,3,1.1,5.4,1.1l7.5-0.6
		l0.2,4.8c-4.2,0.7-7.4,1.1-9.6,1.1C375.8,110.5,373.3,110,371.4,108.8z"/>
	<path class="st1" d="M395.4,64.7h5.9v26.4l4.4-0.4l8.2-12.6h6.7l-9.6,14.7l10.1,17h-6.7l-8.5-14l-4.6,0.3v13.7h-5.9V64.7z"/>
	<path class="st1" d="M429.6,108.8c-1.9-1.1-3.2-2.9-4.1-5.3c-0.8-2.4-1.2-5.6-1.2-9.5c0-5.2,0.9-9.3,2.8-12.2
		c1.8-2.9,5.2-4.3,10-4.3c1.2,0,2.5,0.1,3.9,0.2c1.4,0.1,3.3,0.5,5.6,0.9l-0.2,4.7c-3.6-0.3-6.1-0.5-7.6-0.5c-2.2,0-4,0.3-5.2,1
		c-1.2,0.7-2.1,1.8-2.6,3.4c-0.5,1.6-0.7,3.9-0.7,6.9c0,2.9,0.2,5.1,0.7,6.7c0.5,1.6,1.3,2.7,2.6,3.4c1.2,0.7,3,1.1,5.4,1.1l7.5-0.6
		l0.2,4.8c-4.2,0.7-7.4,1.1-9.6,1.1C434,110.5,431.5,110,429.6,108.8z"/>
	<path class="st1" d="M453.5,64.7h5.9v15.2c1.8-0.8,3.5-1.5,4.9-1.8c1.5-0.4,3-0.6,4.6-0.6c2.7,0,4.8,0.5,6.3,1.6
		c1.5,1,2.6,2.7,3.2,4.9c0.6,2.2,1,5.3,1,9.1v16.9h-5.9V93.1c0-2.7-0.2-4.8-0.5-6.3c-0.3-1.4-1-2.5-1.9-3.1c-0.9-0.6-2.2-1-4-1
		c-2.2,0-4.4,0.4-6.7,1.2l-1.1,0.4v25.5h-5.9V64.7z"/>
	<path class="st1" d="M488.2,108c-1.6-1.7-2.3-4.1-2.3-7.3c0-3.1,0.8-5.4,2.4-6.9c1.6-1.5,4.2-2.4,7.7-2.7l9-0.8v-2.5
		c0-1.9-0.4-3.2-1.2-4c-0.8-0.8-2-1.2-3.6-1.2c-3.6,0-7.7,0.3-12.3,0.8l-0.2-4.3c4.5-1.1,8.6-1.6,12.5-1.6c3.7,0,6.4,0.8,8.1,2.5
		c1.7,1.7,2.5,4.3,2.5,7.9v15.3c0.1,0.8,0.4,1.5,0.9,1.9c0.5,0.4,1.3,0.8,2.3,0.9l-0.2,4.6c-1.8,0-3.4-0.2-4.6-0.6
		c-1.3-0.4-2.4-1-3.4-1.9c-3.6,1.6-7.2,2.5-10.8,2.5C492.1,110.5,489.8,109.7,488.2,108z M503.7,104.4l1.3-0.4v-9.3l-8.2,0.8
		c-1.6,0.2-2.9,0.7-3.6,1.5c-0.8,0.8-1.2,2-1.2,3.6c0,3.4,1.4,5.1,4.3,5.1C498.8,105.6,501.3,105.2,503.7,104.4z"/>
	<path class="st1" d="M519.9,65.5h5.8v6.4h-5.8V65.5z M519.9,78.1h5.9v31.7h-5.9V78.1z"/>
	<path class="st1" d="M534.5,78.1h5.8v2.1c1.8-1,3.5-1.7,4.9-2.2c1.5-0.4,3-0.6,4.7-0.6c2.7,0,4.8,0.5,6.3,1.6
		c1.5,1.1,2.6,2.7,3.2,4.9c0.6,2.2,1,5.2,1,9v16.9h-5.9V93.1c0-2.7-0.2-4.7-0.5-6.2c-0.3-1.5-0.9-2.5-1.8-3.2c-0.9-0.7-2.1-1-3.8-1
		c-2.2,0-4.6,0.5-7,1.5l-1.1,0.5v25.1h-5.9V78.1z"/>
	<path class="st1" d="M351.9,146.4l-1.1-0.1l0.1-1.1c2.8,0.4,4.9,0.6,6.4,0.6c3.6,0,5.4-1.8,5.4-5.3c0-1-0.1-1.7-0.4-2.3
		c-0.3-0.5-0.8-1-1.5-1.3c-0.7-0.3-1.9-0.6-3.4-0.9c-1.7-0.3-3.1-0.6-4-1c-0.9-0.4-1.6-1-2-1.7c-0.4-0.7-0.7-1.8-0.7-3.2
		c0-1.8,0.5-3.1,1.6-4c1.1-0.9,2.7-1.3,5-1.3c1.8,0,3.8,0.2,6.1,0.5l-0.1,1.1c-3.1-0.4-5.1-0.6-6-0.6c-3.6,0-5.4,1.4-5.4,4.3
		c0,1.2,0.1,2,0.4,2.5c0.2,0.5,0.7,1,1.5,1.3c0.8,0.3,2.1,0.6,3.9,1c1.5,0.3,2.8,0.6,3.6,1c0.9,0.4,1.5,0.9,1.9,1.6s0.6,1.6,0.6,2.8
		c0,2.2-0.5,3.8-1.5,4.9c-1,1-2.7,1.6-4.9,1.6C356.3,146.8,354.4,146.6,351.9,146.4z"/>
	<path class="st1" d="M368,131.2h1v1.3c1.7-1,3.5-1.6,5.3-1.6c1.9,0,3.2,0.6,4,1.8c0.8,1.2,1.2,3.2,1.2,5.8c0,1.9-0.2,3.5-0.6,4.7
		c-0.4,1.2-1.1,2.1-2.1,2.6s-2.3,0.9-3.9,0.9c-1.3,0-2.5-0.1-3.8-0.4v7.2H368V131.2z M377.2,144.2c0.8-1.1,1.2-2.9,1.2-5.4
		c0-2.4-0.3-4.2-1-5.3c-0.7-1.1-1.7-1.6-3-1.6c-0.8,0-1.6,0.1-2.5,0.4s-1.6,0.5-2.1,0.8l-0.7,0.4v11.8c0.8,0.1,1.6,0.2,2.3,0.3
		s1.3,0.1,1.8,0.1C375.1,145.9,376.4,145.3,377.2,144.2z"/>
	<path class="st1" d="M384.5,145c-0.9-1.2-1.4-3.1-1.4-5.7c0-2.9,0.5-5,1.5-6.3c1-1.4,2.6-2,4.7-2c2,0,3.4,0.6,4.3,1.8
		c0.9,1.2,1.4,3,1.4,5.6v1h-10.8c0,1.6,0.1,2.9,0.5,3.8c0.3,0.9,0.9,1.6,1.7,2c0.8,0.4,1.9,0.7,3.3,0.7c0.5,0,1.2,0,1.9-0.1
		c0.7,0,1.4-0.1,2.1-0.1l0.9-0.1l0.1,1c-2.5,0.2-4.2,0.2-5.3,0.2C387,146.8,385.4,146.2,384.5,145z M393.9,138.3
		c0-2.3-0.4-3.9-1.1-4.9c-0.7-1-1.9-1.5-3.5-1.5c-1.7,0-3,0.5-3.8,1.6s-1.3,2.7-1.3,4.8H393.9z"/>
	<path class="st1" d="M400.9,146c-0.9-0.5-1.5-1.4-1.8-2.5c-0.4-1.1-0.5-2.7-0.5-4.7c0-1.4,0.1-2.7,0.3-3.7c0.2-1.1,0.7-2,1.5-2.9
		c0.8-0.8,2.1-1.3,3.8-1.3c0.7,0,1.3,0,1.9,0.1c0.6,0,1.4,0.1,2.5,0.3l-0.1,0.9c-1.5-0.2-2.8-0.3-3.8-0.3c-1.3,0-2.3,0.2-3,0.6
		s-1.2,1.1-1.5,2.2c-0.3,1-0.5,2.4-0.5,4.3c0,1.7,0.1,3.1,0.4,4c0.3,1,0.8,1.7,1.5,2.1c0.7,0.4,1.8,0.7,3.2,0.7l3.6-0.3l0.1,1
		c-1.9,0.2-3.2,0.3-3.9,0.3C403,146.8,401.8,146.5,400.9,146z"/>
	<path class="st1" d="M412.2,125.1h1v1.7h-1V125.1z M412.2,131.2h1v15.3h-1V131.2z"/>
	<path class="st1" d="M418.2,124.2h1.1v22.3h-1.1V124.2z"/>
	<path class="st1" d="M424.3,125.1h1v1.7h-1V125.1z M424.3,131.2h1v15.3h-1V131.2z"/>
	<path class="st1" d="M429.1,145.6l10-13.3h-10v-1h11.3v1l-10,13.3h10v1h-11.3V145.6z"/>
	<path class="st1" d="M444.2,145.7c-0.7-0.8-1.1-1.8-1.1-3.2c0-1.4,0.3-2.4,1-3.1c0.7-0.7,1.8-1.2,3.2-1.4l5.8-0.6v-1.6
		c0-1.3-0.3-2.2-0.8-2.8c-0.5-0.6-1.3-0.9-2.2-0.9c-0.9,0-1.7,0-2.4,0.1c-0.7,0.1-2,0.2-3.8,0.4l-0.1-1c2.1-0.4,4-0.6,5.8-0.6
		c1.6,0,2.7,0.4,3.5,1.2c0.7,0.8,1.1,2,1.1,3.6v8.8c0,0.3,0.2,0.6,0.6,0.8s0.9,0.4,1.6,0.5l-0.1,0.9c-0.7,0-1.3-0.1-1.9-0.4
		s-1-0.6-1.3-1c-2,0.9-4.1,1.3-6.2,1.3C445.9,146.8,444.9,146.4,444.2,145.7z M452.4,144.9l0.9-0.3v-6.2l-5.7,0.6
		c-1.1,0.1-1.9,0.4-2.4,0.9c-0.5,0.5-0.7,1.4-0.7,2.4c0,2.4,1,3.5,2.9,3.5C449,145.8,450.7,145.5,452.4,144.9z"/>
	<path class="st1" d="M461.7,146.4c-0.5-0.3-0.9-0.9-1.1-1.6c-0.2-0.8-0.4-1.9-0.4-3.3v-9.2h-2.4v-1h2.4v-5h1v5h5.6v1h-5.6v8
		c0,1.5,0.1,2.7,0.2,3.4c0.1,0.7,0.4,1.3,0.7,1.7c0.4,0.4,1,0.6,1.9,0.6l3-0.3l0.2,1c-1.7,0.2-2.8,0.2-3.3,0.2
		C462.9,146.8,462.2,146.7,461.7,146.4z"/>
	<path class="st1" d="M469.7,125.1h1v1.7h-1V125.1z M469.7,131.2h1v15.3h-1V131.2z"/>
	<path class="st1" d="M477.1,146.1c-0.9-0.5-1.5-1.3-1.8-2.4c-0.3-1.1-0.5-2.6-0.5-4.7c0-2.1,0.2-3.8,0.6-4.9c0.4-1.2,1-2,1.9-2.5
		c0.9-0.5,2.2-0.7,3.8-0.7c1.7,0,2.9,0.3,3.8,0.7c0.9,0.5,1.5,1.3,1.9,2.5c0.4,1.2,0.5,2.8,0.5,4.9c0,2-0.2,3.6-0.5,4.6
		c-0.3,1.1-0.9,1.9-1.8,2.4c-0.9,0.5-2.2,0.7-3.9,0.7S477.9,146.6,477.1,146.1z M484.2,145.2c0.7-0.4,1.2-1.1,1.4-2
		c0.2-0.9,0.4-2.3,0.4-4.1c0-1.9-0.1-3.4-0.4-4.4c-0.3-1-0.7-1.7-1.5-2.1c-0.7-0.4-1.8-0.6-3.2-0.6c-1.4,0-2.5,0.2-3.2,0.6
		c-0.7,0.4-1.2,1.1-1.5,2.1s-0.4,2.5-0.4,4.4c0,1.8,0.1,3.1,0.4,4.1c0.3,0.9,0.7,1.6,1.5,2c0.7,0.4,1.8,0.6,3.3,0.6
		S483.5,145.6,484.2,145.2z"/>
	<path class="st1" d="M491.4,131.2h1v1.2c1-0.6,2-0.9,2.9-1.2c0.9-0.2,1.8-0.3,2.7-0.3c1.3,0,2.3,0.2,3,0.7c0.7,0.4,1.2,1.2,1.4,2.3
		c0.3,1.1,0.4,2.6,0.4,4.7v7.9h-1v-7.9c0-1.8-0.1-3.1-0.3-4c-0.2-0.9-0.6-1.6-1.1-2c-0.5-0.4-1.3-0.6-2.3-0.6
		c-0.9,0-1.9,0.1-2.8,0.4s-1.7,0.5-2.2,0.8l-0.7,0.4v13.1h-1.1V131.2z"/>
</g>
<g>
	<path class="st6" d="M91.7,287.3c1.2,0.1,2.7-0.1,4.1,0.1c3.5,0.4,5.6,2.2,6.3,5.6c0.4,2.1,0.4,4.1-0.1,6.2c-0.7,3-2.8,4.9-5.9,5.3
		c-1.8,0.3-3.7,0.1-5.5,0.2c-1,0-2,0-3,0c-0.2,0-0.4,0-0.4-0.3c0-0.3,0.2-0.3,0.4-0.3c0.1,0,0.3,0,0.4,0c0.8,0,1.2-0.3,1.4-1.1
		c0.1-0.3,0.1-0.6,0.1-0.9c0-4.1,0-8.1,0-12.2c0-0.3,0-0.6-0.1-0.9c-0.2-0.8-0.6-1.1-1.4-1.2c-0.1,0-0.2,0-0.3,0
		c-0.2,0-0.5,0.2-0.5-0.3c0-0.4,0.3-0.2,0.5-0.2C89,287.3,90.3,287.3,91.7,287.3z M92,295.9c0,2.1,0,4.3,0,6.4c0,1,0.2,1.2,1.2,1.2
		c0.4,0,0.8,0,1.1,0c2.6,0,4.4-1.4,5.1-3.9c0.6-2.4,0.6-4.8,0.1-7.2c-0.4-1.9-1.5-3.3-3.4-3.9c-1-0.3-2-0.4-3-0.3
		c-0.8,0.1-1,0.3-1,1.2C92,291.6,92,293.8,92,295.9z"/>
	<path class="st7" d="M117.8,309.5c-0.3,0-0.5,0-0.7,0c-33.1,0-66.2,0-99.3,0c-0.3,0-0.8,0.2-0.8-0.5c0-0.3,0.1-0.4,0.4-0.4
		c0.1,0,0.3,0,0.4,0c32.9,0,65.7,0,98.6,0C117,308.6,117.5,308.8,117.8,309.5z"/>
	<path class="st8" d="M29.9,294.8c0-1.7,0-3.4,0-5c0-1.5-0.4-1.8-1.8-1.9c-0.3,0-0.5,0-0.5-0.4c0-0.4,0.3-0.3,0.5-0.3
		c1.7,0,3.5,0,5.2,0c0.3,0,0.5,0,0.5,0.4c0,0.3-0.2,0.3-0.4,0.3c-1.5,0.1-1.9,0.5-1.9,2c0,3,0,5.9,0,8.9c0,0.9-0.1,1.7-0.2,2.6
		c-0.3,1.8-1.4,3-3.2,3.4c-1.8,0.4-3.5,0.4-5.3,0c-1.9-0.4-3-1.7-3.4-3.6c-0.2-0.8-0.2-1.6-0.2-2.5c0-2.9,0-5.8,0-8.7
		c0-0.2,0-0.5-0.1-0.7c-0.2-1.1-0.5-1.4-1.6-1.4c-0.2,0-0.6,0.2-0.6-0.4c0-0.5,0.4-0.4,0.6-0.4c1.9,0,3.9,0,5.8,0
		c0.3,0,0.5-0.1,0.5,0.4c0,0.4-0.3,0.4-0.5,0.3c-1.2-0.1-1.8,0.5-1.8,1.8c0,3.2,0,6.4,0,9.6c0,0.4,0.1,0.8,0.1,1.3
		c0.3,2.2,1.7,3.4,3.9,3.4c0.5,0,1-0.1,1.5-0.1c1.4-0.3,2.3-1.2,2.6-2.5c0.2-0.6,0.2-1.2,0.2-1.9C29.9,297.9,29.9,296.3,29.9,294.8
		C29.9,294.8,29.9,294.8,29.9,294.8z M30.1,289.1C30.1,289.1,30.1,289.1,30.1,289.1c-0.1,3.7-0.1,7.4-0.1,11.1c0,0,0,0,0.1,0
		C30.1,296.5,30.1,292.8,30.1,289.1z"/>
	<path class="st8" d="M56.8,287c1.1,0,2.2,0.2,3.3,0.3c0.4,0.1,0.6,0.2,0.5,0.6c0,0.9,0,1.8,0,2.7c0,0.2,0.1,0.4-0.2,0.4
		c-0.3,0-0.4-0.1-0.4-0.4c0-0.6-0.4-1.1-0.8-1.5c-1.3-1.5-4.3-1.6-5.7-0.3c-1.2,1.1-1.2,2.7,0,3.8c0.8,0.8,1.9,1.2,2.9,1.7
		c1.2,0.6,2.3,1.2,3.4,2c1.4,1.1,2,2.6,1.8,4.4c-0.3,1.8-1.3,3-3,3.6c-2,0.8-4.1,0.6-6.2,0.4c-1.7-0.2-1.7-0.3-1.8-2
		c0-0.5-0.1-1-0.1-1.5c0-0.2-0.1-0.5,0.3-0.5c0.3,0,0.4,0.1,0.4,0.4c0.1,0.6,0.5,1.1,0.9,1.5c1.6,1.6,5,1.5,6.4-0.3
		c0.9-1.2,0.9-2.8-0.2-3.8c-0.9-1-2.2-1.5-3.3-2.1c-1-0.5-2-1-2.8-1.7c-1.3-1.1-1.7-2.5-1.4-4.2c0.3-1.6,1.3-2.6,2.8-3.2
		C54.5,287,55.6,287,56.8,287z"/>
	<path class="st8" d="M123.7,302.9c0.7,0,1.4,0,2.2,0c1.2,0.1,2.3,0.3,2.8,1.6c0.5,1.3,0.1,2.5-0.8,3.5c-1,1-2.3,1.4-3.6,1.6
		c-1.6,0.2-3.1,0.1-4.5-0.8c-1.7-1.1-1.7-3.2,0-4.2c0.4-0.2,0.5-0.3,0.1-0.7c-0.8-0.7-0.7-1.8,0.1-2.9c0.1-0.2,0.4-0.3,0.1-0.6
		c-1.3-1.3-1.4-2.9-0.8-4.6c0.6-1.5,2-1.8,3.4-2c0.9-0.1,1.9,0,2.8,0.4c0.3,0.1,0.4,0.1,0.5-0.2c0.2-0.4,0.4-0.8,0.7-1.2
		c0.3-0.5,0.7-0.8,1.2-0.9c0.5-0.1,1,0,1.3,0.5c0.3,0.5,0.2,0.9-0.1,1.3c-0.4,0.4-0.9,0.4-1.4,0.2c-0.7-0.3-0.9-0.2-1.2,0.4
		c-0.2,0.3,0,0.5,0.2,0.8c0.7,1,0.9,2.1,0.7,3.3c-0.3,1.6-1.5,2.6-3.2,2.7c-0.9,0.1-1.9,0.1-2.8-0.2c-0.3-0.1-0.4,0-0.5,0.2
		c-0.5,0.9-0.1,1.6,0.9,1.7C122.3,302.9,123,302.9,123.7,302.9C123.7,302.9,123.7,302.9,123.7,302.9z M123.6,304.6
		C123.6,304.6,123.6,304.6,123.6,304.6c-0.7,0-1.3,0-2,0c-1,0-1.6,0.6-1.6,1.6c0,1,0.6,2,1.7,2.4c1.6,0.5,3.1,0.3,4.4-0.5
		c0.7-0.4,1.1-1,1.2-1.8c0.1-0.9-0.5-1.6-1.4-1.7C125.2,304.6,124.4,304.6,123.6,304.6z M125.4,297.7c-0.1-0.4-0.1-0.9-0.2-1.3
		c-0.2-1.1-1-1.8-2-1.8c-1.2-0.1-1.9,0.4-2.2,1.4c-0.3,1.1-0.2,2.2,0.2,3.3c0.4,0.9,1.1,1.3,2.1,1.2c1-0.1,1.6-0.6,1.9-1.5
		C125.3,298.5,125.4,298.1,125.4,297.7z"/>
	<path class="st8" d="M45.9,290c0,0.4,0.1,1,0.1,1.5c0,0.2,0.1,0.4-0.2,0.4c-0.2,0-0.4,0-0.5-0.3c0-0.3-0.2-0.6-0.3-0.8
		c-0.9-2-2.5-3-4.8-2.8c-1.8,0.1-3.2,1.3-3.7,3.4c-0.7,2.8-0.7,5.6,0.2,8.3c0.9,2.8,3,4.2,6,4.1c0.9,0,1.9-0.1,2.8-0.5
		c0.2-0.1,0.5-0.4,0.6,0c0,0.3,0.3,0.8-0.3,1c-0.8,0.2-1.6,0.4-2.4,0.5c-1.8,0.2-3.6,0.3-5.3-0.5c-2.4-1.1-3.6-3-4.2-5.4
		c-0.6-2.3-0.6-4.7,0-7c0.7-2.9,2.6-4.6,5.6-4.9c2-0.2,4,0.1,5.9,0.5c0.4,0.1,0.5,0.3,0.5,0.7C45.8,288.8,45.9,289.3,45.9,290z"/>
	<path class="st8" d="M76.5,296.6c0.6-1,1-1.8,1.9-2.3c1-0.6,2-0.6,3.1-0.3c0.8,0.2,1.1,0.9,1.2,1.6c0.2,1.2,0.1,2.4,0.1,3.6
		c0,1.2,0,2.3,0,3.5c0,1.1,0.4,1.4,1.4,1.5c0.2,0,0.4,0,0.4,0.3c0,0.3-0.2,0.3-0.4,0.3c-1.5,0-3.1,0-4.6,0c-0.2,0-0.4,0-0.4-0.3
		c0-0.3,0.2-0.3,0.4-0.3c1.1-0.1,1.4-0.4,1.4-1.5c0-2.1,0-4.1,0-6.2c0-0.6-0.1-1.2-0.7-1.5c-0.7-0.3-1.3-0.2-1.9,0.3
		c-1.2,1.1-1.9,2.4-1.9,4.1c0,1.2,0,2.4,0,3.6c0,0.8,0.3,1.2,1.1,1.3c0.2,0,0.5-0.2,0.5,0.3c0,0.4-0.3,0.3-0.5,0.3
		c-1.5,0-2.9,0-4.4,0c-0.2,0-0.5,0.1-0.5-0.3c0-0.4,0.3-0.3,0.5-0.3c0.9-0.1,1.2-0.4,1.2-1.3c0-2.2,0-4.5,0-6.7
		c0-0.9-0.3-1.3-1.2-1.5c-0.2,0-0.5,0.1-0.5-0.2c0-0.3,0.3-0.2,0.5-0.2c0.9-0.1,1.8-0.3,2.7-0.4c0.4-0.1,0.6,0.1,0.5,0.5
		C76.5,295,76.5,295.7,76.5,296.6z"/>
	<path class="st8" d="M134.2,304.9c-2.8,0-4.5-1.3-5.1-3.6c-0.4-1.5-0.4-3.1,0.1-4.6c0.6-1.8,2-2.9,3.9-3c2-0.2,3.7,0.4,4.7,2.3
		c1.1,2.1,1.1,4.2,0.1,6.4C137.2,304.2,135.6,304.9,134.2,304.9z M130.9,298.7C130.9,298.7,130.9,298.7,130.9,298.7
		c-0.1,0-0.1,0-0.1,0c0,0.5,0,1,0,1.4c0,0,0,0,0.1,0c0-0.1,0-0.2,0.1-0.3c0.2,0.8,0.2,1.7,0.5,2.5c0.4,1.1,1.2,1.7,2.3,1.8
		c1,0,1.9-0.6,2.3-1.7c0.8-2.1,0.8-4.3,0-6.4c-0.5-1.2-1.5-1.8-2.7-1.5c-1,0.2-1.5,0.9-1.8,1.7C131.1,297.1,131.1,297.9,130.9,298.7
		z"/>
	<path class="st8" d="M68.8,303.3c-1,1.2-2.1,1.7-3.5,1.7c-1.3-0.1-2.3-0.9-2.6-2c-0.3-1.1,0.3-2.5,1.3-3.1c1.2-0.7,2.6-0.9,4-1
		c0.6,0,0.8-0.2,0.7-0.8c-0.1-0.6,0-1.2,0-1.7c0-0.7-0.3-1.3-0.9-1.6c-0.7-0.3-1.5-0.3-2.1,0.1c-0.4,0.2-0.5,0.6-0.4,1.1
		c0,0.5-0.2,1-0.7,1.2c-0.5,0.2-0.9,0.1-1.2-0.3c-0.4-0.4-0.3-0.9-0.1-1.3c0.3-0.6,0.9-1,1.5-1.2c1.1-0.4,2.3-0.5,3.5-0.3
		c1.6,0.3,2.4,1.3,2.4,2.9c0,2.2,0,4.3,0,6.5c0,1,0.2,1.2,1.2,1.2c0.2,0,0.4-0.2,0.4,0.1c0.1,0.3-0.1,0.3-0.3,0.4
		c-0.6,0.1-1.2,0.2-1.9,0.1C69.2,304.8,68.9,304.2,68.8,303.3z M68.9,299.7c-1.3-0.2-2.5,0-3.5,0.9c-0.9,0.8-0.8,2.3,0.1,3.1
		c0.7,0.7,2,0.4,2.7-0.5c0.4-0.5,0.5-1,0.7-1.6c0,0,0,0.1,0.1,0.1c0,0,0,0,0,0C69,301,69.1,300.3,68.9,299.7z"/>
	<path class="st8" d="M117.3,303.9c0.2,0.5,0,0.7-0.5,0.8c-1.5,0.3-3,0.4-4.5,0c-2.3-0.7-3.2-2.4-3.4-4.6c-0.2-1.6-0.1-3.1,0.8-4.6
		c0.3-0.5,0.8-0.9,1.3-1.2c1.8-1,4.4-0.7,5.6,0.6c0.8,0.8,1,1.9,0.9,3c0,0.4-0.3,0.3-0.5,0.3c-1.8,0-3.6,0-5.4,0
		c-0.8,0-0.9,0.1-0.8,0.8C111.3,302.4,113.3,304.9,117.3,303.9z M113,297.3C113,297.3,113,297.3,113,297.3c0.7,0,1.3,0,2,0
		c0.2,0,0.4,0,0.4-0.3c0.2-1.2-0.8-2.4-2-2.5c-1.3-0.1-2.6,1.1-2.7,2.4c0,0.3,0.2,0.3,0.4,0.3C111.7,297.3,112.4,297.3,113,297.3z"
		/>
	<path class="st6" d="M107,298.5c0,1.3,0,2.7,0,4c0,1.2,0.3,1.5,1.5,1.7c0.2,0,0.3,0,0.3,0.3c0,0.3-0.2,0.3-0.4,0.3
		c-1.6,0-3.1,0-4.7,0c-0.2,0-0.4,0.1-0.4-0.3c0-0.4,0.2-0.3,0.4-0.3c1-0.1,1.4-0.4,1.4-1.5c0-2.2,0-4.3,0-6.5c0-1.1-0.3-1.4-1.3-1.5
		c-0.2,0-0.5,0.1-0.5-0.3c0-0.4,0.3-0.2,0.5-0.3c0.9-0.1,1.8-0.2,2.7-0.4c0.4-0.1,0.5,0,0.5,0.4C107,295.7,107,297.1,107,298.5
		C107,298.5,107,298.5,107,298.5z"/>
	<path class="st7" d="M128.6,309.4c0.4-0.6,0.8-0.7,1.4-0.7c2.7,0,5.3,0,8,0c0.3,0,0.5,0,0.5,0.4c0,0.3-0.1,0.4-0.4,0.4
		c-3.1,0-6.2,0-9.3,0C128.8,309.5,128.7,309.4,128.6,309.4z"/>
	<path class="st8" d="M106,291.6c-0.7,0-1.3-0.7-1.3-1.4c0-0.7,0.6-1.3,1.4-1.3c0.7,0,1.3,0.6,1.3,1.3
		C107.3,291,106.7,291.6,106,291.6z"/>
	<path class="st9" d="M30.1,289.1c0,3.7,0,7.4,0,11.1c0,0,0,0-0.1,0C30.1,296.5,30.1,292.8,30.1,289.1
		C30.1,289.1,30.1,289.1,30.1,289.1z"/>
	<path class="st9" d="M130.9,298.7c0,0.4,0,0.8,0,1.2c0,0.1,0,0.2-0.1,0.3c0,0,0,0-0.1,0c0-0.5,0-1,0-1.4
		C130.8,298.7,130.8,298.7,130.9,298.7C130.9,298.7,130.9,298.7,130.9,298.7z"/>
	<path class="st9" d="M68.9,301.5c0-0.6,0-1.2,0-1.9c0.3,0.7,0.1,1.3,0.1,2c0,0,0,0,0,0C68.9,301.6,68.9,301.6,68.9,301.5z"/>
</g>
<g>
	<g>
		<path class="st10" d="M307.2,134h-17.6l-2.7,10.2h-6l11.3-43.6h12.6l11.3,43.6h-6L307.2,134z M290.8,128.6h15.1l-5.9-22.9h-3.3
			L290.8,128.6z"/>
		<path class="st10" d="M322.1,99.1h5.9v45.2h-5.9V99.1z"/>
		<path class="st10" d="M338.4,157c-2.1-1.4-3.2-3.7-3.2-6.9c0-1.8,0.3-3.3,1-4.3c0.7-1.1,2-2.3,3.8-3.8c-0.7-0.5-1.2-1.1-1.5-1.8
			s-0.5-1.6-0.5-2.4c0-0.6,0.1-1.2,0.4-1.9c0.3-0.7,0.9-1.8,1.9-3.5c-3.2-1.7-4.8-4.8-4.8-9.5c0-7.4,4.1-11,12.4-11
			c1.9,0,4.1,0.3,6.5,0.8l9.6-0.3v4.9l-5.6-0.2c0.7,0.8,1.2,1.6,1.5,2.5c0.3,0.9,0.4,2.1,0.4,3.5c0,3.8-1,6.5-3,8.1
			c-2,1.6-5.2,2.4-9.4,2.4c-1.3,0-2.3-0.1-3.1-0.3c-0.7,1.6-1,2.8-1,3.5c0,1,0.4,1.7,1.2,2c0.8,0.3,2.1,0.4,3.8,0.4h2.2
			c3,0,5.3,0.3,7.1,0.7c1.8,0.4,3.2,1.3,4.1,2.6c1,1.3,1.5,3.2,1.5,5.6c0,3.7-1.2,6.4-3.6,8.2c-2.4,1.7-6.2,2.6-11.6,2.6
			C343.9,159,340.5,158.3,338.4,157z M355.7,152.9c1.3-0.8,1.9-2.2,1.9-4.2c0-1.2-0.2-2.1-0.7-2.6c-0.5-0.6-1.2-1-2.2-1.1
			c-1-0.2-2.4-0.3-4.3-0.3l-6.5-0.4c-1.1,0.9-1.9,1.7-2.3,2.4c-0.4,0.7-0.6,1.6-0.6,2.6c0,1.8,0.6,3.1,1.8,3.8
			c1.2,0.7,3.3,1.1,6.2,1.1C352.2,154.1,354.5,153.7,355.7,152.9z M352.9,127.6c1-1,1.5-2.6,1.5-4.8c0-2.2-0.5-3.8-1.5-4.8
			c-1-1-2.6-1.5-4.9-1.5c-2.3,0-3.9,0.5-5,1.5c-1,1-1.6,2.6-1.6,4.8c0,2.2,0.5,3.8,1.6,4.8c1,1,2.7,1.5,5,1.5
			S351.9,128.6,352.9,127.6z"/>
		<path class="st10" d="M371.4,141c-2.2-2.6-3.2-6.8-3.2-12.5c0-5.8,1.1-10,3.3-12.7c2.2-2.7,5.7-4,10.6-4c4.9,0,8.4,1.3,10.6,4
			c2.2,2.7,3.3,6.9,3.3,12.7c0,5.6-1.1,9.8-3.2,12.4c-2.2,2.7-5.7,4-10.7,4C377.1,144.9,373.5,143.6,371.4,141z M386.8,138.7
			c1.1-0.7,1.9-1.9,2.4-3.5c0.5-1.6,0.7-3.8,0.7-6.7c0-3-0.2-5.3-0.7-7c-0.5-1.6-1.3-2.8-2.4-3.5s-2.7-1-4.7-1s-3.6,0.3-4.7,1
			c-1.1,0.7-2,1.9-2.4,3.6c-0.5,1.7-0.7,4-0.7,6.9c0,2.8,0.2,5.1,0.7,6.7c0.5,1.6,1.3,2.8,2.4,3.5c1.1,0.7,2.7,1.1,4.8,1.1
			S385.6,139.4,386.8,138.7z"/>
		<path class="st10" d="M403.2,112.5h5.8v4c3.8-2.4,7.5-4,11.2-4.7v6c-1.6,0.3-3.4,0.8-5.1,1.4c-1.8,0.6-3.3,1.2-4.4,1.7l-1.5,0.7
			v22.6h-5.9V112.5z"/>
		<path class="st10" d="M425.6,99.9h5.8v6.4h-5.8V99.9z M425.6,112.5h5.9v31.7h-5.9V112.5z"/>
		<path class="st10" d="M444.4,143.9c-1.2-0.7-2.1-1.9-2.7-3.6c-0.6-1.7-0.8-4-0.8-7v-15.6h-4.3v-5.1h4.3v-9.5h5.9v9.5h9.3v5.1h-9.3
			v14.5c0,2,0.1,3.5,0.2,4.5c0.1,1,0.5,1.8,1,2.3c0.5,0.5,1.4,0.8,2.7,0.8l5.4-0.3l0.4,4.8c-3,0.5-5.2,0.8-6.9,0.8
			C447.4,144.9,445.7,144.6,444.4,143.9z"/>
		<path class="st10" d="M461.9,99.1h5.9v15.2c1.8-0.8,3.5-1.5,4.9-1.8c1.5-0.4,3-0.6,4.6-0.6c2.7,0,4.8,0.5,6.3,1.6
			c1.5,1,2.6,2.7,3.2,4.9c0.6,2.2,1,5.3,1,9.1v16.9H482v-16.7c0-2.7-0.2-4.8-0.5-6.3c-0.3-1.4-1-2.5-1.9-3.1c-0.9-0.6-2.2-1-4-1
			c-2.2,0-4.4,0.4-6.7,1.2l-1.1,0.4v25.5h-5.9V99.1z"/>
		<path class="st10" d="M496.3,112.5h5.8v2.1c1.6-0.9,3.1-1.6,4.6-2.1c1.4-0.5,2.9-0.7,4.4-0.7c1.6,0,3.2,0.3,4.6,0.8
			c1.4,0.5,2.5,1.3,3.3,2.4c1.7-0.9,3.5-1.7,5.6-2.3c2-0.6,4-0.9,6.1-0.9c2.6,0,4.7,0.5,6.2,1.6c1.5,1.1,2.5,2.7,3.2,4.9
			c0.6,2.2,1,5.2,1,9v16.9h-5.9v-16.7c0-2.7-0.2-4.7-0.5-6.2c-0.3-1.5-0.9-2.5-1.7-3.2c-0.8-0.7-2-1-3.6-1c-1.2,0-2.4,0.1-3.7,0.4
			c-1.3,0.3-2.4,0.6-3.4,1l-1.1,0.5c0.5,1.8,0.7,4.7,0.7,8.6v16.5h-6v-16.4c0-2.8-0.1-5-0.4-6.5c-0.3-1.5-0.9-2.6-1.7-3.2
			c-0.8-0.7-2-1-3.6-1c-1.2,0-2.4,0.1-3.6,0.4c-1.2,0.3-2.3,0.6-3.1,1l-1,0.5v25.1h-5.9V112.5z"/>
		<path class="st10" d="M550.1,143.9l-1.9-0.3l0.3-5.1c5.1,0.7,8.8,1.1,11,1.1c2.2,0,3.9-0.3,5.1-1c1.1-0.7,1.7-1.8,1.7-3.3
			c0-1.1-0.3-1.9-0.9-2.5c-0.6-0.6-1.3-1-2.2-1.3c-0.9-0.3-2.2-0.5-3.8-0.8l-1.5-0.3c-2.4-0.4-4.3-0.9-5.7-1.5
			c-1.4-0.6-2.5-1.5-3.3-2.6s-1.1-2.7-1.1-4.7c0-6.6,4-9.8,12.1-9.8c2.5,0,5.7,0.3,9.5,1l1.8,0.4l-0.1,4.9c-4.7-0.7-8.4-1-10.9-1
			c-4.3,0-6.5,1.3-6.5,3.9c0,1,0.3,1.7,0.8,2.3c0.5,0.5,1.3,0.9,2.1,1.2c0.9,0.3,2.1,0.5,3.7,0.8c0.3,0,0.9,0.1,1.8,0.3
			c2.5,0.5,4.5,1,5.9,1.6c1.4,0.6,2.5,1.5,3.2,2.7c0.7,1.2,1,2.8,1,4.8c0,3.5-1,6.1-3,7.7c-2,1.6-5.2,2.4-9.4,2.4
			C557.2,144.9,554,144.6,550.1,143.9z"/>
		<path class="st10" d="M351.9,180.8l-1.1-0.1l0.1-1.1c2.8,0.4,4.9,0.6,6.4,0.6c3.6,0,5.4-1.8,5.4-5.3c0-1-0.1-1.7-0.4-2.3
			c-0.3-0.5-0.8-1-1.5-1.3c-0.7-0.3-1.9-0.6-3.4-0.9c-1.7-0.3-3.1-0.6-4-1c-0.9-0.4-1.6-1-2-1.7c-0.4-0.7-0.7-1.8-0.7-3.2
			c0-1.8,0.5-3.1,1.6-4c1.1-0.9,2.7-1.3,5-1.3c1.8,0,3.8,0.2,6.1,0.5l-0.1,1.1c-3.1-0.4-5.1-0.6-6-0.6c-3.6,0-5.4,1.4-5.4,4.3
			c0,1.2,0.1,2,0.4,2.5c0.2,0.5,0.7,1,1.5,1.3c0.8,0.3,2.1,0.6,3.9,1c1.5,0.3,2.8,0.6,3.6,1c0.9,0.4,1.5,0.9,1.9,1.6
			s0.6,1.6,0.6,2.8c0,2.2-0.5,3.8-1.5,4.9c-1,1-2.7,1.6-4.9,1.6C356.3,181.2,354.4,181,351.9,180.8z"/>
		<path class="st10" d="M368,165.7h1v1.3c1.7-1,3.5-1.6,5.3-1.6c1.9,0,3.2,0.6,4,1.8c0.8,1.2,1.2,3.2,1.2,5.8c0,1.9-0.2,3.5-0.6,4.7
			c-0.4,1.2-1.1,2.1-2.1,2.6s-2.3,0.9-3.9,0.9c-1.3,0-2.5-0.1-3.8-0.4v7.2H368V165.7z M377.2,178.6c0.8-1.1,1.2-2.9,1.2-5.4
			c0-2.4-0.3-4.2-1-5.3c-0.7-1.1-1.7-1.6-3-1.6c-0.8,0-1.6,0.1-2.5,0.4s-1.6,0.5-2.1,0.8L369,168v11.8c0.8,0.1,1.6,0.2,2.3,0.3
			s1.3,0.1,1.8,0.1C375.1,180.3,376.4,179.7,377.2,178.6z"/>
		<path class="st10" d="M384.5,179.4c-0.9-1.2-1.4-3.1-1.4-5.7c0-2.9,0.5-5,1.5-6.3c1-1.4,2.6-2,4.7-2c2,0,3.4,0.6,4.3,1.8
			c0.9,1.2,1.4,3,1.4,5.6v1h-10.8c0,1.6,0.1,2.9,0.5,3.8c0.3,0.9,0.9,1.6,1.7,2c0.8,0.4,1.9,0.7,3.3,0.7c0.5,0,1.2,0,1.9-0.1
			c0.7,0,1.4-0.1,2.1-0.1l0.9-0.1l0.1,1c-2.5,0.2-4.2,0.2-5.3,0.2C387,181.2,385.4,180.6,384.5,179.4z M393.9,172.8
			c0-2.3-0.4-3.9-1.1-4.9c-0.7-1-1.9-1.5-3.5-1.5c-1.7,0-3,0.5-3.8,1.6s-1.3,2.7-1.3,4.8H393.9z"/>
		<path class="st10" d="M400.9,180.4c-0.9-0.5-1.5-1.4-1.8-2.5c-0.4-1.1-0.5-2.7-0.5-4.7c0-1.4,0.1-2.7,0.3-3.7
			c0.2-1.1,0.7-2,1.5-2.9c0.8-0.8,2.1-1.3,3.8-1.3c0.7,0,1.3,0,1.9,0.1c0.6,0,1.4,0.1,2.5,0.3l-0.1,0.9c-1.5-0.2-2.8-0.3-3.8-0.3
			c-1.3,0-2.3,0.2-3,0.6s-1.2,1.1-1.5,2.2c-0.3,1-0.5,2.4-0.5,4.3c0,1.7,0.1,3.1,0.4,4c0.3,1,0.8,1.7,1.5,2.1
			c0.7,0.4,1.8,0.7,3.2,0.7l3.6-0.3l0.1,1c-1.9,0.2-3.2,0.3-3.9,0.3C403,181.2,401.8,181,400.9,180.4z"/>
		<path class="st10" d="M412.2,159.5h1v1.7h-1V159.5z M412.2,165.7h1v15.3h-1V165.7z"/>
		<path class="st10" d="M418.2,158.6h1.1v22.3h-1.1V158.6z"/>
		<path class="st10" d="M424.3,159.5h1v1.7h-1V159.5z M424.3,165.7h1v15.3h-1V165.7z"/>
		<path class="st10" d="M429.1,180l10-13.3h-10v-1h11.3v1l-10,13.3h10v1h-11.3V180z"/>
		<path class="st10" d="M444.2,180.1c-0.7-0.8-1.1-1.8-1.1-3.2c0-1.4,0.3-2.4,1-3.1c0.7-0.7,1.8-1.2,3.2-1.4l5.8-0.6v-1.6
			c0-1.3-0.3-2.2-0.8-2.8c-0.5-0.6-1.3-0.9-2.2-0.9c-0.9,0-1.7,0-2.4,0.1c-0.7,0.1-2,0.2-3.8,0.4l-0.1-1c2.1-0.4,4-0.6,5.8-0.6
			c1.6,0,2.7,0.4,3.5,1.2c0.7,0.8,1.1,2,1.1,3.6v8.8c0,0.3,0.2,0.6,0.6,0.8s0.9,0.4,1.6,0.5l-0.1,0.9c-0.7,0-1.3-0.1-1.9-0.4
			s-1-0.6-1.3-1c-2,0.9-4.1,1.3-6.2,1.3C445.9,181.2,444.9,180.8,444.2,180.1z M452.4,179.3l0.9-0.3v-6.2l-5.7,0.6
			c-1.1,0.1-1.9,0.4-2.4,0.9c-0.5,0.5-0.7,1.4-0.7,2.4c0,2.4,1,3.5,2.9,3.5C449,180.2,450.7,179.9,452.4,179.3z"/>
		<path class="st10" d="M461.7,180.8c-0.5-0.3-0.9-0.9-1.1-1.6c-0.2-0.8-0.4-1.9-0.4-3.3v-9.2h-2.4v-1h2.4v-5h1v5h5.6v1h-5.6v8
			c0,1.5,0.1,2.7,0.2,3.4c0.1,0.7,0.4,1.3,0.7,1.7c0.4,0.4,1,0.6,1.9,0.6l3-0.3l0.2,1c-1.7,0.2-2.8,0.2-3.3,0.2
			C462.9,181.3,462.2,181.1,461.7,180.8z"/>
		<path class="st10" d="M469.7,159.5h1v1.7h-1V159.5z M469.7,165.7h1v15.3h-1V165.7z"/>
		<path class="st10" d="M477.1,180.5c-0.9-0.5-1.5-1.3-1.8-2.4c-0.3-1.1-0.5-2.6-0.5-4.7c0-2.1,0.2-3.8,0.6-4.9c0.4-1.2,1-2,1.9-2.5
			c0.9-0.5,2.2-0.7,3.8-0.7c1.7,0,2.9,0.3,3.8,0.7c0.9,0.5,1.5,1.3,1.9,2.5c0.4,1.2,0.5,2.8,0.5,4.9c0,2-0.2,3.6-0.5,4.6
			c-0.3,1.1-0.9,1.9-1.8,2.4c-0.9,0.5-2.2,0.7-3.9,0.7S477.9,181,477.1,180.5z M484.2,179.6c0.7-0.4,1.2-1.1,1.4-2
			c0.2-0.9,0.4-2.3,0.4-4.1c0-1.9-0.1-3.4-0.4-4.4c-0.3-1-0.7-1.7-1.5-2.1c-0.7-0.4-1.8-0.6-3.2-0.6c-1.4,0-2.5,0.2-3.2,0.6
			c-0.7,0.4-1.2,1.1-1.5,2.1s-0.4,2.5-0.4,4.4c0,1.8,0.1,3.1,0.4,4.1c0.3,0.9,0.7,1.6,1.5,2c0.7,0.4,1.8,0.6,3.3,0.6
			S483.5,180,484.2,179.6z"/>
		<path class="st10" d="M491.4,165.7h1v1.2c1-0.6,2-0.9,2.9-1.2c0.9-0.2,1.8-0.3,2.7-0.3c1.3,0,2.3,0.2,3,0.7
			c0.7,0.4,1.2,1.2,1.4,2.3c0.3,1.1,0.4,2.6,0.4,4.7v7.9h-1V173c0-1.8-0.1-3.1-0.3-4c-0.2-0.9-0.6-1.6-1.1-2
			c-0.5-0.4-1.3-0.6-2.3-0.6c-0.9,0-1.9,0.1-2.8,0.4s-1.7,0.5-2.2,0.8l-0.7,0.4v13.1h-1.1V165.7z"/>
	</g>
	<g>
		<path class="st11" d="M148.7,71.4c46.6,0,84.4,37.8,84.4,84.4c0,46.6-37.8,84.4-84.4,84.4c-46.6,0-84.4-37.8-84.4-84.4
			C64.3,109.2,102.1,71.4,148.7,71.4z"/>
		<g>
			<path class="st12" d="M97.3,101.3V59.4c0-1.3-1.3-2.4-2.8-2.4h-31c-1.5,0-2.8,1.1-2.8,2.4v41.9c0,1.3,1.3,2.4,2.8,2.4h31
				C96,103.7,97.3,102.6,97.3,101.3z"/>
			<g>
				<g>
					<polygon class="st13" points="79,63.7 99.1,63.7 104.3,68.9 104.3,96.6 79,96.6 					"/>
					<polygon class="st14" points="99.1,68.9 104.3,74 104.3,68.9 101.7,66.3 					"/>
					<polygon class="st15" points="99.1,63.7 104.3,68.9 99.1,68.9 					"/>
				</g>
				<rect x="82.7" y="71.6" class="st16" width="17.8" height="10"/>
			</g>
			<g>
				<path class="st15" d="M96.2,101.3V59.4c0-1.3-1.3-2.4-2.8-2.4H63.5c-1.5,0-2.8,1.1-2.8,2.4v41.9c0,1.3,1.3,2.4,2.8,2.4h29.9
					C95,103.7,96.2,102.6,96.2,101.3z"/>
				<path class="st17" d="M96.2,101.2V59.4c0-1.3-1.3-2.4-2.8-2.4h-6.1c-4.5,4.4-7.5,13.1-7.5,23.1c0,10.3,3.2,19.2,7.9,23.5h5.7
					C95,103.7,96.2,102.6,96.2,101.2z"/>
			</g>
			<g>
				<polygon class="st18" points="66,80.7 67.1,83.5 71.1,82.5 69.8,79.2 65.9,74.9 65.9,74.9 				"/>
				<polygon class="st19" points="66,80.7 65.9,76.8 65.9,74.9 66.9,80.3 67.5,81.7 66.5,82 				"/>
				<polygon class="st20" points="69.8,79.2 67.1,76.3 65.9,74.9 68.8,79.5 69.4,80.9 70.3,80.5 				"/>
				<path class="st21" d="M66,80.7c0.3,0.5,1.1,0.2,1-0.4L81.8,118l-1,0.4L66,80.7z"/>
				<path class="st22" d="M66.9,80.3L66.9,80.3c0.4,0.6,2,0.2,1.9-0.8l14.9,37.7l-1,0.4l-1,0.4L66.9,80.3z"/>
				<path class="st21" d="M68.8,79.5c0.3,0.5,1.1,0.2,1-0.4l14.9,37.7l-1,0.4L68.8,79.5z"/>
				<polygon class="st21" points="67.1,76.3 65.9,74.9 65.9,74.9 65.9,76.8 				"/>
				
					<rect x="80" y="115.3" transform="matrix(0.9299 -0.3679 0.3679 0.9299 -36.9552 37.9271)" class="st19" width="2.1" height="1.2"/>
				
					<rect x="80.9" y="114.9" transform="matrix(0.93 -0.3677 0.3677 0.93 -36.7275 38.2245)" class="st23" width="2.1" height="1.2"/>
				
					<rect x="82.9" y="114.3" transform="matrix(0.9299 -0.3678 0.3678 0.9299 -36.4257 38.7311)" class="st20" width="1" height="1.2"/>
			</g>
		</g>
		<g>
			<g>
				<path class="st24" d="M101.3,102.7c0.4,0.2,0.1,0.8-0.4,0.7c0,0,0,0-0.1,0l-0.1,0l-0.2-0.1l-0.2-0.1l-0.2-0.1l-0.2-0.1L100,103
					l-0.2-0.1l-0.2-0.1l-0.2-0.1l-0.2-0.1l-0.2-0.1l-0.2-0.1l-0.2-0.1l-0.2-0.1l-0.2-0.1l-0.2-0.1l-0.2-0.1l-0.2-0.1l-0.2-0.1
					l-0.2-0.1l-0.1,0c-0.4-0.1-0.2-0.7,0.3-0.7c0,0,0.1,0,0.1,0l0.1,0l0.2,0.1l0.2,0.1l0.2,0.1l0.2,0.1l0.2,0.1l0.2,0.1l0.2,0.1
					l0.2,0.1l0.2,0.1l0.2,0.1l0.2,0.1l0.2,0.1l0.2,0.1l0.2,0.1l0.2,0.1l0.2,0.1l0.2,0.1l0.2,0.1L101.3,102.7L101.3,102.7z"/>
				<path class="st24" d="M106.1,105.5c0.3,0.2-0.1,0.8-0.5,0.7c0,0,0,0-0.1,0l0,0l-0.1-0.1l-0.1-0.1l-0.1-0.1l-0.1-0.1l-0.1-0.1
					l-0.1-0.1l-0.1-0.1l-0.1-0.1l-0.1-0.1l-0.1-0.1l-0.1-0.1l-0.1-0.1l-0.1-0.1l-0.1-0.1l-0.1-0.1l-0.1-0.1l-0.1-0.1l-0.1-0.1
					l-0.1-0.1l-0.1-0.1l0,0c-0.3-0.2-0.1-0.8,0.4-0.7c0,0,0.1,0,0.1,0l0,0l0.1,0.1l0.1,0.1l0.1,0.1l0.1,0.1l0.1,0.1l0.1,0.1l0.1,0.1
					l0.1,0.1l0.1,0.1l0.1,0.1l0.1,0.1l0.1,0.1l0.1,0.1l0.1,0.1l0.1,0.1l0.1,0.1l0.1,0.1l0.1,0.1l0.1,0.1L106.1,105.5L106.1,105.5z"
					/>
				<path class="st24" d="M110.3,108.9c0.3,0.3-0.3,0.9-0.6,0.6l-0.1-0.1l-0.1-0.1l-0.1-0.1l-0.1-0.1l-0.1-0.1l-0.1-0.1l-0.1-0.1
					l-0.1-0.1l-0.1-0.1l-0.1-0.1l-0.1-0.1l-0.1-0.1l-0.1-0.1l-0.1-0.1l-0.1-0.1l-0.1-0.1l-0.1-0.1l-0.1-0.1l-0.1-0.1l-0.1-0.1
					l-0.1-0.1l0,0c-0.1-0.1-0.1-0.2-0.1-0.3c0.1-0.3,0.4-0.4,0.6-0.3l0,0l0.1,0.1l0.1,0.1l0.1,0.1l0.1,0.1l0.1,0.1l0.1,0.1l0.1,0.1
					l0.1,0.1l0.1,0.1l0.1,0.1l0.1,0.1l0.1,0.1l0.1,0.1l0.1,0.1l0.1,0.1l0.1,0.1l0.1,0.1l0.1,0.1l0.1,0.1L110.3,108.9L110.3,108.9z"
					/>
				<path class="st24" d="M113.9,113c0.2,0.3-0.3,0.8-0.6,0.6c0,0,0,0-0.1-0.1l-0.1-0.1l-0.1-0.1l-0.1-0.1l-0.1-0.1l-0.1-0.1
					l-0.1-0.1l-0.1-0.1l-0.1-0.1l-0.1-0.1l-0.1-0.1l-0.1-0.1l-0.1-0.1L112,112l-0.1-0.1l-0.1-0.1l-0.1-0.1l-0.1-0.1l-0.1-0.1
					l-0.1-0.1l-0.1-0.1l-0.1-0.1l-0.1-0.1c-0.3-0.3,0.2-0.8,0.6-0.6c0,0,0,0,0,0l0.1,0.1l0.1,0.1l0.1,0.1l0.1,0.1l0.1,0.1l0.1,0.1
					l0.1,0.1l0.1,0.1l0.1,0.1l0.1,0.1l0.1,0.1l0.1,0.1l0.1,0.1l0.1,0.1l0.1,0.1l0.1,0.1l0.1,0.1l0.1,0.1l0.1,0.1l0.1,0.1l0.1,0.1
					L113.9,113z"/>
				<path class="st24" d="M116.5,117.8c0.2,0.4-0.5,0.8-0.7,0.4l0,0l0-0.1l-0.1-0.1l-0.1-0.1l-0.1-0.1l-0.1-0.1l-0.1-0.1l-0.1-0.1
					l-0.1-0.1l-0.1-0.1l-0.1-0.1l-0.1-0.1l-0.1-0.1l-0.1-0.1l-0.1-0.1l-0.1-0.1l-0.1-0.1l-0.1-0.1l-0.1-0.1l-0.1-0.1l-0.1-0.1
					l-0.1-0.1l-0.1-0.1l-0.1-0.1c0-0.1-0.1-0.2,0-0.2c0.1-0.3,0.6-0.5,0.7-0.2l0.1,0.1l0.1,0.1l0.1,0.1l0.1,0.1l0.1,0.1l0.1,0.1
					l0.1,0.1l0.1,0.1l0.1,0.1l0.1,0.1l0.1,0.1l0.1,0.1l0.1,0.1l0.1,0.1l0.1,0.1l0.1,0.1l0.1,0.1l0.1,0.1l0.1,0.1l0.1,0.1l0.1,0.1
					L116.5,117.8L116.5,117.8z"/>
				<path class="st24" d="M118,123.3c0,0.1-0.1,0.3-0.2,0.4c-0.2,0.2-0.5,0.1-0.6-0.2l0-0.1l0-0.1l0-0.1l0-0.1l0-0.1l0-0.1l0-0.1
					l0-0.1l0-0.1l0-0.1l0-0.1l0-0.1l0-0.1l0-0.1l0-0.1l0-0.1l0-0.1l0-0.1l0-0.1l0-0.1l0-0.1l0-0.1l0-0.1l0-0.1c0-0.1,0-0.3,0.2-0.4
					c0.2-0.2,0.5-0.1,0.6,0.1l0,0.1l0,0.1l0,0.1l0,0.1l0,0.1l0,0.1l0,0.1l0,0.1l0,0.1l0,0.1l0,0.1l0,0.2l0,0.2l0,0.2l0,0.2l0,0.2
					l0,0.2l0,0.2l0,0.2l0,0.2l0,0.2l0,0.2L118,123.3L118,123.3z"/>
				<path class="st24" d="M118.1,128.1c0,0.4-0.7,0.6-0.8,0.2c0,0,0-0.1,0-0.1l0-0.2l0-0.2l0-0.2l0-0.2l0-0.2l0-0.2l0-0.2l0-0.2
					l0-0.2l0-0.2l0-0.2l0-0.2l0-0.2l0-0.2l0-0.2l0-0.2l0-0.1c0-0.1,0-0.2,0.1-0.3c0.2-0.3,0.7-0.2,0.7,0.1l0,0.1l0,0.2l0,0.2l0,0.2
					l0,0.2l0,0.2l0,0.2l0,0.2l0,0.2l0,0.2l0,0.2l0,0.2l0,0.2l0,0.2l0,0.2l0,0.2L118.1,128.1z"/>
				<path class="st24" d="M92.3,100.3c-0.4-0.1-0.2-0.7,0.2-0.7c0,0,0.1,0,0.1,0l0.2,0l0.2,0l0.2,0l0.2,0l0.2,0l0.2,0l0.2,0l0.2,0
					l0.2,0l0.2,0l0.2,0l0.2,0l0.2,0l0.2,0l0.2,0.1l0.2,0.1l0.2,0.1l0.2,0.1l0.2,0.1l0.2,0.1l0,0c0.1,0,0.2,0.2,0.2,0.4
					c-0.1,0.3-0.3,0.4-0.6,0.3l0,0l-0.2-0.1l-0.2-0.1l-0.2-0.1l-0.2-0.1l-0.2-0.1l-0.2,0l-0.2,0l-0.2,0l-0.2,0l-0.2,0l-0.2,0l-0.2,0
					l-0.2,0l-0.2,0l-0.2,0l-0.2,0l-0.2,0l-0.2,0l-0.2,0L92.3,100.3z"/>
			</g>
			<path class="st24" d="M90.4,99.9c-0.1-0.8,0.6-1.6,1.4-1.7c0.8-0.1,1.6,0.5,1.6,1.3c0.1,0.8-0.6,1.6-1.4,1.7
				C91.2,101.4,90.5,100.8,90.4,99.9z"/>
		</g>
		<path class="st11" d="M156.5,225.4c7.5,5.3,9.2,15.7,3.9,23.2c-5.3,7.5-15.7,9.2-23.2,3.9c-7.5-5.3-9.2-15.7-3.9-23.2
			C138.6,221.8,149,220.1,156.5,225.4z"/>
		<g>
			<path class="st25" d="M130.6,238.1c-4-6.9-1.6-15.7,5.3-19.7c6.9-4,15.7-1.6,19.7,5.3c4,6.9,1.6,15.7-5.3,19.7
				C143.4,247.4,134.6,245,130.6,238.1L130.6,238.1z M132.3,237.1c3.4,5.9,11,8,17,4.5c5.9-3.4,8-11,4.5-17c-3.4-5.9-11-8-17-4.5
				C130.9,223.6,128.9,231.2,132.3,237.1z"/>
			<path class="st25" d="M134.5,231c-0.6-0.7-0.6-1.8,0.1-2.4c0.7-0.6,1.8-0.6,2.4,0.1l5.2,3.8l7.4-6.3c0.6-0.7,1.7-0.8,2.4-0.1
				c0.7,0.6,0.8,1.7,0.1,2.4c-2.9,3.3-5.8,6.5-8.7,9.8c-0.3,0.4-0.8,0.6-1.2,0.6h0l0,0h0h0h0l0,0h0c-0.5,0-0.9-0.2-1.2-0.6
				L134.5,231z"/>
		</g>
		<path class="st11" d="M195.1,67.9c4.5,3.2,5.5,9.4,2.3,13.8c-3.2,4.5-9.4,5.5-13.8,2.3c-4.5-3.2-5.5-9.4-2.3-13.8
			C184.5,65.8,190.7,64.7,195.1,67.9z"/>
		<g>
			<g>
				<path class="st26" d="M101.9,115.4h77.7c1.6,0,3,1.3,3,3v54.8c0,1.6-1.3,3-3,3h-77.7c-1.6,0-3-1.3-3-3v-54.8
					C99,116.8,100.3,115.4,101.9,115.4z"/>
				<path class="st27" d="M101.9,116.5h77.7c1,0,1.9,0.8,1.9,1.9v51.3h-81.4v-51.3C100.1,117.4,100.9,116.5,101.9,116.5z"/>
				<rect x="103.2" y="120.3" class="st15" width="75.1" height="45.9"/>
				<rect x="103.2" y="120.3" class="st17" width="75.1" height="8.1"/>
				<rect x="106.1" y="131" class="st27" width="69.2" height="31"/>
				<path class="st26" d="M100.1,169.7h81.4v3.5c0,1-0.8,1.9-1.9,1.9h-77.7c-1,0-1.9-0.8-1.9-1.9V169.7z"/>
				<rect x="124.5" y="133.7" class="st28" width="15.2" height="10.6"/>
				<rect x="124.5" y="145.6" class="st28" width="15.2" height="2.1"/>
				<rect x="158.7" y="133.7" class="st22" width="14.5" height="10.6"/>
				<rect x="158.7" y="145.6" class="st22" width="14.5" height="2.1"/>
				<g>
					<rect x="108.2" y="133.7" class="st29" width="14.5" height="10.6"/>
					<rect x="108.2" y="145.6" class="st29" width="14.5" height="2.1"/>
					<polygon class="st27" points="119.1,134.9 119.1,136.9 113.7,139.1 119.1,141.4 119.1,143.3 111.3,140 111.3,138.3 					"/>
				</g>
				<polygon class="st27" points="165,138.2 161.8,138.2 161.8,139.9 165,139.9 165,143.1 166.7,143.1 166.7,139.9 169.8,139.9 
					169.8,138.2 166.7,138.2 166.7,135.1 165,135.1 				"/>
				<rect x="141.6" y="133.7" class="st28" width="15.4" height="10.6"/>
				<rect x="141.6" y="145.6" class="st28" width="15.4" height="2.1"/>
				<g>
					<rect x="108.2" y="149.5" class="st15" width="14.3" height="1.5"/>
					<rect x="108.2" y="152.2" class="st15" width="4.8" height="1.5"/>
					<rect x="108.2" y="154.9" class="st15" width="14.3" height="1.5"/>
					<rect x="108.2" y="157.7" class="st15" width="14.3" height="1.5"/>
					<rect x="117.8" y="152.2" class="st15" width="4.8" height="1.5"/>
					<rect x="113.5" y="152.2" class="st30" width="3.8" height="1.5"/>
				</g>
				<g>
					<rect x="124.5" y="149.5" class="st15" width="15.2" height="1.5"/>
					<rect x="124.5" y="152.2" class="st15" width="15.2" height="1.5"/>
					<rect x="124.5" y="157.7" class="st15" width="15.2" height="1.5"/>
					<rect x="124.5" y="154.9" class="st15" width="4.1" height="1.5"/>
					<rect x="132.7" y="154.9" class="st15" width="7" height="1.5"/>
					<rect x="129" y="154.9" class="st30" width="3.3" height="1.5"/>
				</g>
				<g>
					<rect x="141.6" y="149.5" class="st15" width="15.2" height="1.5"/>
					<rect x="141.6" y="152.2" class="st15" width="15.2" height="1.5"/>
					<rect x="141.6" y="157.7" class="st15" width="15.2" height="1.5"/>
					<rect x="141.6" y="154.9" class="st15" width="4.1" height="1.5"/>
					<rect x="149.8" y="154.9" class="st15" width="7" height="1.5"/>
					<rect x="146.1" y="154.9" class="st30" width="3.3" height="1.5"/>
				</g>
				<g>
					<rect x="158.7" y="149.5" class="st15" width="14.3" height="1.5"/>
					<rect x="158.7" y="152.2" class="st15" width="4.8" height="1.5"/>
					<rect x="158.7" y="154.9" class="st15" width="14.3" height="1.5"/>
					<rect x="158.7" y="157.7" class="st15" width="14.3" height="1.5"/>
					<rect x="168.2" y="152.2" class="st15" width="4.8" height="1.5"/>
					<rect x="163.9" y="152.2" class="st30" width="3.8" height="1.5"/>
				</g>
			</g>
			<g>
				<path class="st28" d="M155.4,163c13.3,5.7,21.8,10.1,23.3,26.9c-6,10.8-20.4,19.6-38,19.5c-17.5,0-31.9-8.8-38-19.5
					c1.5-16.8,10-21.2,23.3-26.9l0.4-0.2l1.6-0.7c3.5-1.5,7.9-3.3,12.7-4c4.8,0.6,9.1,2.4,12.7,4l1.6,0.7L155.4,163z"/>
				<path class="st31" d="M156.5,137.9L156.5,137.9C156.5,137.9,156.5,137.9,156.5,137.9l-1.3,9.4c2.2,0.9,3.8-4.6,3.9-6.5
					c0.1-2.5-1.8-3-2.4-3H156.5z"/>
				<path class="st31" d="M125.1,137.1L125.1,137.1C125.1,137.2,125.1,137.2,125.1,137.1l1.3,9.4c-2.2,0.9-3.8-4.6-3.9-6.5
					c-0.1-2.5,1.8-3,2.4-3L125.1,137.1z"/>
				<path class="st32" d="M130.6,149.7h20.4V162c-6.8,5.4-13.6,5.6-20.4,0V149.7z"/>
				<path class="st33" d="M124.8,137.9L124.8,137.9L124.8,137.9l1.7,9.4c3.1,8.4,7.3,13.1,14.2,14.8c7.1-1.6,11.4-6.3,14.5-14.8
					l2.3-8.9c0-0.1,0.1-0.2,0.1-0.4c1.1-5.1,1.8-9.4,0.6-14.1c-3.9-9-22.1-13.2-30.8-11.6c-4.6,7.8-3.7,15.9-2.7,24.9l0,0
					L124.8,137.9z"/>
				<path class="st34" d="M127.3,162.5l3.3-2.3c7.5,4.9,13.7,4.3,20.4-0.2l3.3,2.5C147.4,171.5,132.7,170.2,127.3,162.5z"/>
				<path class="st35" d="M114.8,202.2c0.5,0.4,1.1,0.7,1.7,1l0-7L114.8,202.2z"/>
				<path class="st35" d="M166.7,202.2c-0.5,0.4-1.1,0.7-1.7,1l0-7L166.7,202.2z"/>
			</g>
		</g>
		<g>
			<path class="st24" d="M53.8,231c5.2,0,9.3-4.2,9.3-9.3c0-5.2-4.2-9.3-9.3-9.3c-5.2,0-9.3,4.2-9.3,9.3
				C44.4,226.8,48.6,231,53.8,231z"/>
			<path class="st24" d="M85,231c5.2,0,9.3-4.2,9.3-9.3c0-5.2-4.2-9.3-9.3-9.3c-5.2,0-9.3,4.2-9.3,9.3C75.7,226.8,79.9,231,85,231z"
				/>
			<path class="st22" d="M88.8,197.7c-0.2,1-0.5,2.1-0.8,3c-1.6-0.8-3.6-0.2-4.5,1.4c-0.9,1.6-0.5,3.6,1,4.6
				c-0.7,0.8-1.4,1.5-2.2,2.2c-1-1.5-3-1.9-4.6-1c-1.6,0.9-2.2,2.9-1.4,4.5c-1,0.3-2,0.6-3,0.8c-0.2-1.8-1.7-3.2-3.5-3.2
				c-1.8,0-3.3,1.4-3.5,3.2c-1-0.2-2.1-0.5-3-0.8c0.8-1.6,0.2-3.6-1.4-4.5c-1.6-0.9-3.6-0.5-4.6,1c-0.8-0.7-1.5-1.4-2.2-2.2
				c1.5-1,1.9-3,1-4.6c-0.9-1.6-2.9-2.2-4.5-1.4c-0.3-1-0.6-2-0.8-3c1.8-0.2,3.2-1.7,3.2-3.5c0-1.8-1.4-3.3-3.2-3.5
				c0.2-1,0.5-2.1,0.8-3c1.6,0.8,3.6,0.2,4.5-1.4c0.9-1.6,0.5-3.6-1-4.6c0.7-0.8,1.4-1.5,2.2-2.2c1,1.5,3,1.9,4.6,1
				c1.6-0.9,2.2-2.9,1.4-4.5c1-0.3,2-0.6,3-0.8c0.2,1.8,1.7,3.2,3.5,3.2c1.8,0,3.3-1.4,3.5-3.2c1,0.2,2.1,0.5,3,0.8
				c-0.8,1.6-0.2,3.6,1.4,4.5c1.6,0.9,3.6,0.5,4.6-1c0.8,0.7,1.5,1.4,2.2,2.2c-1.5,1-1.9,3-1,4.6c0.9,1.6,2.9,2.2,4.5,1.4
				c0.3,1,0.6,2,0.8,3c-1.8,0.2-3.2,1.7-3.2,3.5C85.6,196,87,197.5,88.8,197.7L88.8,197.7z M55.9,194.2c0,7.6,6.2,13.7,13.7,13.7
				c7.6,0,13.7-6.2,13.7-13.7c0-7.6-6.2-13.7-13.7-13.7C62,180.4,55.9,186.6,55.9,194.2z"/>
			<path class="st21" d="M96.9,221.1c0,0.6,0,1.3-0.1,1.9c-1.1-0.2-2.2,0.4-2.5,1.5c-0.3,1.1,0.2,2.2,1.2,2.6
				c-0.3,0.6-0.6,1.1-1,1.6c-0.8-0.7-2.1-0.7-2.9,0c-0.8,0.8-0.9,2-0.2,2.9c-0.5,0.3-1.1,0.6-1.7,0.9c-0.3-1-1.4-1.7-2.5-1.4
				c-1.1,0.3-1.8,1.3-1.7,2.4c-0.6,0-1.3,0-1.9-0.1c0.2-1.1-0.4-2.2-1.5-2.5c-1.1-0.3-2.2,0.2-2.6,1.2c-0.6-0.3-1.1-0.6-1.6-1
				c0.7-0.8,0.7-2.1,0-2.9c-0.8-0.8-2-0.9-2.9-0.2c-0.3-0.5-0.6-1.1-0.9-1.7c1-0.3,1.7-1.4,1.4-2.5c-0.3-1.1-1.3-1.8-2.4-1.7
				c0-0.6,0-1.3,0.1-1.9c1.1,0.2,2.2-0.4,2.5-1.5c0.3-1.1-0.2-2.2-1.2-2.6c0.3-0.6,0.6-1.1,1-1.6c0.8,0.7,2.1,0.7,2.9,0
				c0.8-0.8,0.9-2,0.2-2.9c0.5-0.3,1.1-0.6,1.7-0.9c0.3,1,1.4,1.7,2.5,1.4c1.1-0.3,1.8-1.3,1.7-2.4c0.6,0,1.3,0,1.9,0.1
				c-0.2,1.1,0.4,2.2,1.5,2.5c1.1,0.3,2.2-0.2,2.6-1.2c0.6,0.3,1.1,0.6,1.6,1c-0.7,0.8-0.7,2.1,0,2.9c0.8,0.8,2,0.9,2.9,0.2
				c0.3,0.5,0.6,1.1,0.9,1.7c-1,0.3-1.7,1.4-1.4,2.5C94.8,220.6,95.8,221.3,96.9,221.1L96.9,221.1z M76.8,223.5
				c1,4.5,5.5,7.4,10.1,6.3c4.5-1,7.4-5.5,6.3-10.1c-1-4.5-5.5-7.4-10.1-6.3C78.6,214.5,75.8,219,76.8,223.5z"/>
			<path class="st21" d="M65.7,221.1c0,0.6,0,1.3-0.1,1.9c-1.1-0.2-2.2,0.4-2.5,1.5c-0.3,1.1,0.2,2.2,1.2,2.6
				c-0.3,0.6-0.6,1.1-1,1.6c-0.8-0.7-2.1-0.7-2.9,0c-0.8,0.8-0.9,2-0.2,2.9c-0.5,0.3-1.1,0.6-1.7,0.9c-0.3-1-1.4-1.7-2.5-1.4
				c-1.1,0.3-1.8,1.3-1.7,2.4c-0.6,0-1.3,0-1.9-0.1c0.2-1.1-0.4-2.2-1.5-2.5c-1.1-0.3-2.2,0.2-2.6,1.2c-0.6-0.3-1.1-0.6-1.6-1
				c0.7-0.8,0.7-2.1,0-2.9c-0.8-0.8-2-0.9-2.9-0.2c-0.3-0.5-0.6-1.1-0.9-1.7c1-0.3,1.7-1.4,1.4-2.5c-0.3-1.1-1.3-1.8-2.4-1.7
				c0-0.6,0-1.3,0.1-1.9c1.1,0.2,2.2-0.4,2.5-1.5c0.3-1.1-0.2-2.2-1.2-2.6c0.3-0.6,0.6-1.1,1-1.6c0.8,0.7,2.1,0.7,2.9,0
				c0.8-0.8,0.9-2,0.2-2.9c0.5-0.3,1.1-0.6,1.7-0.9c0.3,1,1.4,1.7,2.5,1.4c1.1-0.3,1.8-1.3,1.7-2.4c0.6,0,1.3,0,1.9,0.1
				c-0.2,1.1,0.4,2.2,1.5,2.5c1.1,0.3,2.2-0.2,2.6-1.2c0.6,0.3,1.1,0.6,1.6,1c-0.7,0.8-0.7,2.1,0,2.9c0.8,0.8,2,0.9,2.9,0.2
				c0.3,0.5,0.6,1.1,0.9,1.7c-1,0.3-1.7,1.4-1.4,2.5C63.5,220.6,64.6,221.3,65.7,221.1L65.7,221.1z M45.6,223.5
				c1,4.5,5.5,7.4,10.1,6.3c4.5-1,7.4-5.5,6.3-10.1c-1-4.5-5.5-7.4-10.1-6.3C47.4,214.5,44.5,219,45.6,223.5z"/>
			<path class="st36" d="M50.4,218.9c0.4,0,0.7,0.1,1,0.4c0.2,0.2,0.3,0.6,0.3,0.9v0.8c0,0.4-0.1,0.7-0.4,0.9
				c-0.3,0.3-0.6,0.4-0.9,0.4h-0.5v2.1h-0.8v-5.5H50.4L50.4,218.9z M50.9,220.2c0-0.1,0-0.3-0.1-0.3c-0.1-0.1-0.2-0.1-0.3-0.1h-0.5
				v1.8h0.5c0.1,0,0.2,0,0.3-0.1c0.1-0.1,0.1-0.2,0.1-0.3V220.2L50.9,220.2z M53.2,222.1v2.3h-0.8v-5.5h0.8v2.3h1v-2.3h0.8v5.5h-0.8
				v-2.3H53.2L53.2,222.1z M57.1,218.9c0.4,0,0.7,0.1,1,0.4c0.2,0.2,0.3,0.6,0.3,0.9v0.8c0,0.4-0.1,0.7-0.4,0.9
				c-0.3,0.3-0.6,0.4-0.9,0.4h-0.5v2.1h-0.8v-5.5H57.1L57.1,218.9z M57.6,220.2c0-0.1,0-0.3-0.1-0.3c-0.1-0.1-0.2-0.1-0.3-0.1h-0.5
				v1.8h0.5c0.1,0,0.2,0,0.3-0.1c0.1-0.1,0.1-0.2,0.1-0.3V220.2z"/>
			<path class="st36" d="M81.6,224.5c-0.4,0-0.7-0.1-0.9-0.4c-0.3-0.3-0.4-0.6-0.4-0.9v-3c0-0.4,0.1-0.7,0.4-0.9
				c0.3-0.3,0.6-0.4,0.9-0.4c0.4,0,0.7,0.1,0.9,0.4c0.3,0.3,0.4,0.6,0.4,0.9v0.6h-0.9v-0.6c0-0.1,0-0.2-0.1-0.3
				c-0.1-0.1-0.2-0.1-0.3-0.1c-0.1,0-0.2,0-0.3,0.1c-0.1,0.1-0.1,0.2-0.1,0.3v3c0,0.1,0,0.2,0.1,0.3c0.1,0.1,0.2,0.1,0.3,0.1
				c0.1,0,0.2,0,0.3-0.1c0.1-0.1,0.1-0.2,0.1-0.3v-0.8h0.9v0.8c0,0.4-0.1,0.7-0.4,0.9C82.3,224.3,82,224.5,81.6,224.5L81.6,224.5z
				 M85.2,221.4h1.1v0.6h-1.1v1.1h-0.6V222h-1.1v-0.6h1.1v-1.1h0.6V221.4L85.2,221.4z M88.7,221.4h1.1v0.6h-1.1v1.1H88V222h-1.1
				v-0.6H88v-1.1h0.6V221.4z"/>
			<path class="st24" d="M69.6,207.9c7.6,0,13.7-6.2,13.7-13.7c0-7.6-6.2-13.7-13.7-13.7c-7.6,0-13.7,6.2-13.7,13.7
				C55.9,201.8,62,207.9,69.6,207.9z"/>
			<path class="st36" d="M62.8,198.1c-0.5,0-0.9-0.2-1.3-0.5c-0.4-0.4-0.5-0.8-0.5-1.3v-4.2c0-0.5,0.2-0.9,0.5-1.3
				c0.4-0.4,0.8-0.5,1.3-0.5c0.5,0,0.9,0.2,1.3,0.5c0.4,0.4,0.5,0.8,0.5,1.3v0.9h-1.2v-0.9c0-0.2-0.1-0.3-0.2-0.5
				c-0.1-0.1-0.3-0.2-0.5-0.2c-0.2,0-0.3,0.1-0.5,0.2c-0.1,0.1-0.2,0.3-0.2,0.5v4.2c0,0.2,0.1,0.3,0.2,0.5c0.1,0.1,0.3,0.2,0.5,0.2
				c0.2,0,0.3-0.1,0.5-0.2c0.1-0.1,0.2-0.3,0.2-0.5v-1h1.2v1.1c0,0.5-0.2,0.9-0.5,1.3C63.7,197.9,63.3,198.1,62.8,198.1L62.8,198.1z
				 M69.2,196.1c0,0.5-0.1,1-0.4,1.4c-0.2,0.3-0.4,0.4-0.8,0.5c-0.2,0.1-0.4,0.1-0.6,0.1c-0.5,0-0.8-0.1-1.1-0.3
				c-0.2-0.2-0.4-0.4-0.6-0.7c-0.1-0.3-0.2-0.7-0.3-1.1l1.1-0.1c0.1,0.4,0.2,0.8,0.4,1c0.1,0.2,0.3,0.2,0.5,0.2
				c0.3,0,0.5-0.1,0.6-0.4c0.1-0.1,0.1-0.3,0.1-0.5c0-0.3-0.1-0.6-0.4-0.9c-0.2-0.2-0.6-0.5-1-1c-0.4-0.4-0.6-0.7-0.8-1
				c-0.2-0.3-0.3-0.7-0.3-1.1c0-0.7,0.2-1.2,0.7-1.6c0.3-0.2,0.6-0.3,1.1-0.3c0.4,0,0.8,0.1,1.1,0.3c0.2,0.1,0.4,0.3,0.5,0.6
				c0.1,0.3,0.2,0.5,0.3,0.9l-1.1,0.2c0-0.3-0.1-0.6-0.3-0.7c-0.1-0.1-0.3-0.2-0.5-0.2c-0.2,0-0.4,0.1-0.5,0.3
				c-0.1,0.1-0.1,0.3-0.1,0.6c0,0.3,0.1,0.7,0.5,1.1c0.1,0.1,0.3,0.3,0.5,0.5c0.3,0.2,0.4,0.4,0.5,0.5c0.3,0.3,0.5,0.6,0.7,0.8
				c0.1,0.1,0.1,0.2,0.2,0.4C69.1,195.6,69.2,195.9,69.2,196.1L69.2,196.1z M73.8,196.1c0,0.5-0.1,1-0.4,1.4
				c-0.2,0.3-0.4,0.4-0.8,0.5c-0.2,0.1-0.4,0.1-0.6,0.1c-0.5,0-0.8-0.1-1.1-0.3c-0.2-0.2-0.4-0.4-0.6-0.7c-0.1-0.3-0.2-0.7-0.3-1.1
				l1.1-0.1c0,0.4,0.2,0.8,0.4,1c0.1,0.2,0.3,0.2,0.5,0.2c0.3,0,0.4-0.1,0.6-0.4c0.1-0.1,0.1-0.3,0.1-0.5c0-0.3-0.1-0.6-0.4-0.9
				c-0.2-0.2-0.6-0.5-1-1c-0.4-0.4-0.6-0.7-0.8-1c-0.2-0.3-0.3-0.7-0.3-1.1c0-0.7,0.2-1.2,0.7-1.6c0.3-0.2,0.6-0.3,1.1-0.3
				c0.4,0,0.8,0.1,1.1,0.3c0.2,0.1,0.4,0.3,0.6,0.6c0.1,0.3,0.2,0.5,0.3,0.9l-1.1,0.2c0-0.3-0.1-0.6-0.3-0.7
				c-0.1-0.1-0.3-0.2-0.5-0.2c-0.2,0-0.4,0.1-0.5,0.3c-0.1,0.1-0.1,0.3-0.1,0.6c0,0.3,0.1,0.7,0.4,1.1c0.1,0.1,0.3,0.3,0.5,0.5
				c0.3,0.2,0.4,0.4,0.5,0.5c0.3,0.3,0.5,0.6,0.7,0.8c0.1,0.1,0.1,0.2,0.2,0.4C73.7,195.6,73.8,195.9,73.8,196.1L73.8,196.1z
				 M76.4,196.9c0.5,0,0.8-0.2,0.8-0.7v-0.5c0-0.8-0.4-1.2-1.2-1.2v-1c0.4,0,0.8-0.1,1-0.4c0.2-0.2,0.3-0.5,0.3-0.9v-0.2
				c0-0.5-0.2-0.7-0.7-0.7c-0.2,0-0.4,0.1-0.5,0.3c-0.1,0.1-0.1,0.3-0.1,0.6v0.2h-1.1v-0.2c0-0.5,0.1-1,0.4-1.3
				c0.3-0.4,0.7-0.6,1.3-0.6c0.5,0,1,0.2,1.3,0.5c0.3,0.3,0.4,0.7,0.4,1.2v0.3c0,0.5-0.1,0.9-0.4,1.2c-0.1,0.1-0.3,0.3-0.4,0.4
				c0.3,0.2,0.6,0.5,0.8,0.9c0.1,0.2,0.1,0.4,0.1,0.7v0.6c0,0.6-0.2,1-0.6,1.4c-0.4,0.3-0.8,0.5-1.3,0.5c-0.5,0-0.9-0.2-1.3-0.5
				c-0.4-0.4-0.5-0.8-0.5-1.3v-0.2l1.1-0.1l0,0.3c0,0.2,0.1,0.3,0.2,0.5C76,196.8,76.2,196.9,76.4,196.9z"/>
		</g>
		<g>
			<g>
				<path class="st24" d="M99.4,180.9c-0.2,0.3-0.8-0.1-0.6-0.5c0,0,0,0,0-0.1l0.1-0.1l0.1-0.1L99,180l0.1-0.1l0.1-0.1l0.1-0.1
					l0.1-0.1l0.1-0.1l0.1-0.1l0.1-0.1l0.1-0.1l0.1-0.1l0.1-0.1l0.1-0.1l0.1-0.1l0.1-0.1l0.1-0.1l0.1-0.1l0.1-0.1l0.1-0.1l0.1-0.1
					c0.2-0.3,0.7,0,0.7,0.4c0,0,0,0.1,0,0.1l-0.1,0.1l-0.1,0.1l-0.1,0.1l-0.1,0.1l-0.1,0.1l-0.1,0.1l-0.1,0.1l-0.1,0.1l-0.1,0.1
					l-0.1,0.1l-0.1,0.1l-0.1,0.1l-0.1,0.1L100,180l-0.1,0.1l-0.1,0.1l-0.1,0.1l-0.1,0.1l-0.1,0.1L99.4,180.9L99.4,180.9z"/>
				<path class="st24" d="M95.7,185.1c-0.3,0.3-0.8-0.2-0.6-0.6c0,0,0,0,0-0.1l0,0l0.1-0.1l0.1-0.1l0.1-0.1l0.1-0.1l0.1-0.1l0.1-0.1
					l0.1-0.1l0.1-0.1l0.1-0.1l0.1-0.1l0.1-0.1l0.1-0.1l0.1-0.1l0.1-0.1l0.1-0.1l0.1-0.1l0.1-0.1l0.1-0.1l0.1-0.1l0.1-0.1l0,0
					c0.2-0.3,0.8,0.1,0.6,0.5c0,0,0,0.1-0.1,0.1l0,0l-0.1,0.1l-0.1,0.1l-0.1,0.1l-0.1,0.1l-0.1,0.1l-0.1,0.1l-0.1,0.1l-0.1,0.1
					l-0.1,0.1l-0.1,0.1l-0.1,0.1l-0.1,0.1l-0.1,0.1l-0.1,0.1l-0.1,0.1l-0.1,0.1l-0.1,0.1l-0.1,0.1l-0.1,0.1L95.7,185.1L95.7,185.1z"
					/>
				<path class="st24" d="M91.5,188.6c-0.4,0.2-0.8-0.4-0.5-0.7l0.1-0.1l0.1-0.1l0.1-0.1l0.1-0.1l0.1-0.1l0.1-0.1l0.1-0.1l0.1-0.1
					l0.1-0.1l0.1-0.1l0.1-0.1l0.1-0.1l0.1-0.1l0.1-0.1l0.1-0.1l0.1-0.1l0.1-0.1l0.1-0.1l0.1-0.1l0.1-0.1l0.1-0.1l0,0
					c0.1-0.1,0.2-0.1,0.3,0c0.3,0.1,0.4,0.5,0.2,0.7l0,0l-0.1,0.1l-0.1,0.1l-0.1,0.1l-0.1,0.1l-0.1,0.1l-0.1,0.1l-0.1,0.1l-0.1,0.1
					l-0.1,0.1l-0.1,0.1l-0.1,0.1l-0.1,0.1l-0.1,0.1l-0.1,0.1l-0.1,0.1l-0.1,0.1l-0.1,0.1l-0.1,0.1l-0.1,0.1L91.5,188.6L91.5,188.6z"
					/>
				<path class="st24" d="M86.8,191.3c-0.4,0.2-0.7-0.4-0.4-0.7c0,0,0,0,0.1,0l0.1-0.1l0.1-0.1l0.1-0.1l0.1-0.1l0.1-0.1l0.1-0.1
					l0.1-0.1l0.1-0.1l0.1-0.1l0.1-0.1l0.1-0.1l0.1-0.1l0.1-0.1l0.1-0.1l0.1-0.1l0.1-0.1l0.1-0.1l0.1-0.1l0.1-0.1l0.1-0.1l0.1-0.1
					l0.1-0.1c0.4-0.2,0.8,0.4,0.5,0.7c0,0,0,0,0,0l-0.1,0.1l-0.1,0.1l-0.1,0.1l-0.1,0.1l-0.1,0.1l-0.1,0.1l-0.1,0.1l-0.1,0.1
					l-0.1,0.1l-0.1,0.1l-0.1,0.1l-0.1,0.1l-0.1,0.1l-0.1,0.1l-0.1,0.1l-0.1,0.1l-0.1,0.1l-0.1,0.1l-0.1,0.1l-0.1,0.1l-0.1,0.1
					L86.8,191.3z"/>
				<path class="st24" d="M81.5,193c-0.4,0.1-0.7-0.6-0.3-0.8l0,0l0.1,0l0.1,0l0.1,0l0.1,0l0.1,0l0.1,0l0.1,0l0.1,0l0.1,0l0.1,0
					l0.1,0l0.1,0l0.1,0l0.1,0l0.1,0l0.1,0l0.1,0l0.1,0l0.1,0l0.1,0l0.1,0l0.1,0l0.1,0c0.1,0,0.2,0,0.2,0c0.3,0.1,0.4,0.6,0.1,0.7
					l-0.1,0l-0.1,0.1l-0.1,0l-0.1,0l-0.1,0l-0.1,0l-0.1,0l-0.1,0l-0.1,0l-0.1,0l-0.1,0l-0.1,0l-0.1,0l-0.1,0l-0.1,0l-0.1,0l-0.1,0
					l-0.1,0l-0.1,0l-0.2,0l-0.1,0L81.5,193L81.5,193z"/>
				<path class="st24" d="M103.4,172.6c0.2-0.4,0.8-0.1,0.7,0.4c0,0,0,0,0,0.1l-0.1,0.2l-0.1,0.2l-0.1,0.2l-0.1,0.2l-0.1,0.2
					l-0.1,0.2l-0.1,0.2l-0.1,0.2l-0.1,0.2l-0.1,0.2l-0.1,0.2l-0.1,0.2l-0.1,0.2l-0.1,0.2l-0.1,0.2l-0.1,0.2l-0.1,0.2l-0.1,0.2
					l-0.1,0.2l-0.1,0.2l0,0c-0.1,0.1-0.2,0.2-0.4,0.1c-0.2-0.1-0.3-0.4-0.2-0.6l0,0l0.1-0.2l0.1-0.2l0.1-0.2l0.1-0.2l0.1-0.2
					l0.1-0.2l0.1-0.2l0.1-0.2l0.1-0.2l0.1-0.2l0.1-0.2l0.1-0.2l0.1-0.2l0.1-0.2l0.1-0.2l0.1-0.2l0.1-0.2l0.1-0.2l0.1-0.2
					L103.4,172.6z"/>
			</g>
			<path class="st24" d="M104.1,170.8c0.8,0.1,1.4,0.9,1.4,1.7c-0.1,0.8-0.8,1.4-1.6,1.3c-0.8-0.1-1.4-0.9-1.4-1.7
				C102.6,171.3,103.3,170.7,104.1,170.8z"/>
		</g>
		<g>
			<rect x="182.2" y="206.2" class="st27" width="44.1" height="28.6"/>
			<path class="st22" d="M181.8,205h44.5c0.6,0,1,0.5,1,1v27.7c0,0.6-0.5,1-1,1h-44.5c-0.6,0-1-0.5-1-1v-27.7
				C180.7,205.5,181.2,205,181.8,205L181.8,205z M183,207.3v25.2H225v-25.2H183z"/>
			<polygon class="st37" points="188,227.5 192.7,220.9 192.9,220.8 193.1,220.9 199.6,224.1 208.2,220.9 208.3,220.9 208.4,221 
				214.4,226.1 218.5,218.3 219,218.5 214.7,226.6 214.5,226.9 214.3,226.7 208.2,221.5 199.7,224.7 199.6,224.7 199.5,224.7 
				193,221.4 188.5,227.8 			"/>
			<path class="st38" d="M188.2,225.9c1,0,1.8,0.8,1.8,1.7c0,1-0.8,1.7-1.8,1.7c-1,0-1.7-0.8-1.7-1.7
				C186.5,226.7,187.3,225.9,188.2,225.9z"/>
			<path class="st24" d="M188.2,226.9c0.4,0,0.7,0.3,0.7,0.7c0,0.4-0.3,0.7-0.7,0.7c-0.4,0-0.7-0.3-0.7-0.7
				C187.5,227.2,187.8,226.9,188.2,226.9z"/>
			<path class="st38" d="M192.9,219.3c1,0,1.7,0.8,1.7,1.7c0,1-0.8,1.7-1.7,1.7c-1,0-1.7-0.8-1.7-1.7
				C191.2,220.1,192,219.3,192.9,219.3z"/>
			<path class="st24" d="M192.9,220.4c0.4,0,0.7,0.3,0.7,0.7c0,0.4-0.3,0.7-0.7,0.7c-0.4,0-0.7-0.3-0.7-0.7
				C192.2,220.7,192.5,220.4,192.9,220.4z"/>
			<path class="st38" d="M199.6,222.7c1,0,1.7,0.8,1.7,1.7c0,1-0.8,1.7-1.7,1.7c-1,0-1.7-0.8-1.7-1.7
				C197.9,223.5,198.7,222.7,199.6,222.7z"/>
			<path class="st24" d="M199.6,223.7c0.4,0,0.7,0.3,0.7,0.7c0,0.4-0.3,0.7-0.7,0.7c-0.4,0-0.7-0.3-0.7-0.7
				C198.9,224,199.2,223.7,199.6,223.7z"/>
			<path class="st38" d="M208.3,219.4c1,0,1.7,0.8,1.7,1.7c0,1-0.8,1.8-1.7,1.8c-1,0-1.7-0.8-1.7-1.8
				C206.5,220.2,207.3,219.4,208.3,219.4z"/>
			<path class="st24" d="M208.3,220.5c0.4,0,0.7,0.3,0.7,0.7c0,0.4-0.3,0.7-0.7,0.7c-0.4,0-0.7-0.3-0.7-0.7
				C207.5,220.8,207.9,220.5,208.3,220.5z"/>
			<path class="st38" d="M214.4,224.8c1,0,1.7,0.8,1.7,1.8c0,1-0.8,1.7-1.7,1.7c-1,0-1.7-0.8-1.7-1.7
				C212.7,225.5,213.5,224.8,214.4,224.8z"/>
			<path class="st24" d="M214.4,225.8c0.4,0,0.7,0.3,0.7,0.7c0,0.4-0.3,0.7-0.7,0.7c-0.4,0-0.7-0.3-0.7-0.7
				C213.7,226.1,214,225.8,214.4,225.8z"/>
			<path class="st38" d="M218.8,217.1c1,0,1.7,0.8,1.7,1.7c0,1-0.8,1.7-1.7,1.7c-1,0-1.8-0.8-1.8-1.7
				C217.1,217.9,217.8,217.1,218.8,217.1z"/>
			<path class="st24" d="M218.8,218.1c0.4,0,0.7,0.3,0.7,0.7c0,0.4-0.3,0.7-0.7,0.7c-0.4,0-0.7-0.3-0.7-0.7
				C218.1,218.4,218.4,218.1,218.8,218.1z"/>
			<rect x="185.6" y="209.5" class="st15" width="10" height="0.9"/>
			<rect x="185.6" y="211.2" class="st15" width="3.3" height="0.9"/>
			<rect x="185.6" y="212.9" class="st15" width="10" height="0.9"/>
			<rect x="185.6" y="214.5" class="st15" width="10" height="0.9"/>
			<rect x="196.6" y="209.5" class="st15" width="12.2" height="0.9"/>
			<rect x="196.6" y="211.2" class="st15" width="12.2" height="0.9"/>
			<rect x="196.6" y="214.5" class="st15" width="12.2" height="0.9"/>
			<rect x="210.1" y="209.5" class="st15" width="12.2" height="0.9"/>
			<rect x="210.1" y="211.2" class="st15" width="12.2" height="0.9"/>
			<rect x="210.1" y="212.9" class="st15" width="12.2" height="0.9"/>
			<rect x="210.1" y="214.5" class="st15" width="12.2" height="0.9"/>
			<path class="st15" d="M217.2,203.3c-3.2,2.8-3.5,7.8-0.7,11c2.8,3.2,7.8,3.5,11,0.7c3.2-2.8,3.5-7.8,0.7-11
				C225.3,200.7,220.4,200.4,217.2,203.3z"/>
			<path class="st36" d="M232.2,207.1c1.1,5.4-2.4,10.7-7.8,11.8c-5.4,1.1-10.7-2.4-11.8-7.8c-1.1-5.4,2.4-10.7,7.8-11.8
				C225.8,198.2,231.1,201.7,232.2,207.1L232.2,207.1z M229.6,207.6c-0.8-4-4.7-6.6-8.8-5.8c-4,0.8-6.6,4.7-5.8,8.8
				c0.8,4,4.7,6.6,8.8,5.8C227.9,215.6,230.5,211.6,229.6,207.6z"/>
			
				<rect x="228.2" y="214.6" transform="matrix(0.7487 -0.6629 0.6629 0.7487 -86.2811 206.6641)" class="st36" width="2.4" height="5.2"/>
			<path class="st12" d="M230.2,217.9L230.2,217.9c-1.2,1-1.3,2.8-0.2,4l10.5,11.9c1,1.2,2.8,1.3,4,0.2l0,0c1.2-1,1.3-2.8,0.2-4
				l-10.5-11.9C233.1,217,231.3,216.9,230.2,217.9z"/>
			<path class="st36" d="M230.2,217.9L230.2,217.9c-1.2,1-1.3,2.8-0.2,4l4.2-3.8C233.1,217,231.3,216.9,230.2,217.9L230.2,217.9z
				 M230.7,222.9l4.2-3.8l8.9,10l-4.2,3.8L230.7,222.9L230.7,222.9z M240.4,233.8c1,1.2,2.8,1.3,4,0.2l0,0c1.2-1,1.3-2.8,0.2-4
				L240.4,233.8z"/>
			<path class="st24" d="M225.7,206.5c0.3,0.4,0.8,0.5,1.2,0.2c0.4-0.3,0.5-0.8,0.2-1.2c-0.2-0.2-0.4-0.5-0.6-0.7
				c-1-1.1-2.4-1.7-3.7-1.8c-1.4-0.1-2.8,0.2-3.9,1.1c-0.2,0.2-0.4,0.3-0.6,0.5c-0.3,0.3-0.3,0.9,0,1.2c0.3,0.3,0.9,0.3,1.2,0
				c0.1-0.1,0.3-0.2,0.4-0.4c0.8-0.6,1.8-0.8,2.8-0.7c1,0.1,1.9,0.5,2.7,1.3C225.4,206.1,225.5,206.3,225.7,206.5z"/>
			<rect x="192.2" y="211.2" class="st15" width="3.3" height="0.9"/>
			<rect x="189.2" y="211.2" class="st30" width="2.6" height="0.9"/>
			<rect x="196.6" y="212.9" class="st15" width="3.3" height="0.9"/>
			<rect x="203.2" y="212.9" class="st15" width="5.6" height="0.9"/>
			<rect x="200.2" y="212.9" class="st30" width="2.6" height="0.9"/>
		</g>
		<g>
			<polygon class="st39" points="207.4,105.5 225.9,105.5 230.7,110.3 230.7,136 207.4,136 			"/>
			<polygon class="st30" points="225.9,110.3 230.7,115.1 230.7,110.3 228.3,107.9 			"/>
			<polygon class="st15" points="225.9,105.5 230.7,110.3 225.9,110.3 			"/>
			<path class="st36" d="M214.3,122.7l-0.3,1.6h-1.1l1.2-7.1h1.5l1.2,7.1h-1.1l-0.3-1.6H214.3L214.3,122.7z M214.9,118.8l-0.4,2.8
				h0.8L214.9,118.8L214.9,118.8z M220.9,122.5c0,0.5-0.1,0.9-0.4,1.3c-0.2,0.2-0.4,0.4-0.7,0.5c-0.2,0.1-0.4,0.1-0.6,0.1
				c-0.4,0-0.8-0.1-1-0.3c-0.2-0.2-0.4-0.4-0.5-0.7c-0.1-0.3-0.2-0.6-0.2-1l1-0.1c0,0.4,0.2,0.7,0.3,0.9c0.1,0.1,0.3,0.2,0.4,0.2
				c0.2,0,0.4-0.1,0.6-0.3c0.1-0.1,0.1-0.3,0.1-0.5c0-0.3-0.1-0.6-0.4-0.9c-0.2-0.2-0.5-0.5-1-0.9c-0.4-0.3-0.6-0.7-0.8-0.9
				c-0.2-0.3-0.2-0.6-0.2-1c0-0.6,0.2-1.1,0.7-1.5c0.3-0.2,0.6-0.3,1-0.3c0.4,0,0.7,0.1,1,0.3c0.2,0.1,0.4,0.3,0.5,0.6
				c0.1,0.2,0.2,0.5,0.2,0.8l-1,0.2c0-0.3-0.1-0.5-0.3-0.7c-0.1-0.1-0.2-0.2-0.4-0.2c-0.2,0-0.3,0.1-0.4,0.3
				c-0.1,0.1-0.1,0.3-0.1,0.5c0,0.3,0.1,0.7,0.4,1c0.1,0.1,0.3,0.3,0.5,0.5c0.2,0.2,0.4,0.4,0.5,0.4c0.3,0.3,0.5,0.5,0.6,0.8
				c0.1,0.1,0.1,0.2,0.2,0.3C220.9,122.1,220.9,122.3,220.9,122.5L220.9,122.5z M223.5,117.2c0.5,0,0.9,0.2,1.2,0.5
				c0.3,0.3,0.4,0.7,0.4,1.2v1c0,0.5-0.2,0.9-0.5,1.2c-0.3,0.3-0.7,0.5-1.2,0.5h-0.6v2.7h-1.1v-7.1H223.5L223.5,117.2z M224.1,118.9
				c0-0.2-0.1-0.3-0.2-0.4c-0.1-0.1-0.3-0.2-0.4-0.2h-0.6v2.3h0.6c0.2,0,0.3-0.1,0.4-0.2c0.1-0.1,0.2-0.3,0.2-0.4V118.9z"/>
			<polygon class="st39" points="233.2,105.5 251.8,105.5 256.6,110.3 256.6,136 233.2,136 			"/>
			<polygon class="st30" points="251.8,110.3 256.6,115.1 256.6,110.3 254.2,107.9 			"/>
			<polygon class="st15" points="251.8,105.5 256.6,110.3 251.8,110.3 			"/>
			<path class="st36" d="M240,122.7c0,0.5-0.2,0.9-0.5,1.2c-0.3,0.3-0.7,0.5-1.2,0.5c-0.3,0-0.5,0-0.7-0.1l0.2-1c0.1,0,0.2,0,0.3,0
				c0.1,0,0.1,0,0.2,0c0.2,0,0.3-0.1,0.4-0.2c0.1-0.1,0.2-0.3,0.2-0.4v-5.5h1V122.7L240,122.7z M242.1,122.7l-0.3,1.6h-1.1l1.2-7.1
				h1.5l1.2,7.1h-1.1l-0.3-1.6H242.1L242.1,122.7z M242.7,118.8l-0.4,2.8h0.8L242.7,118.8L242.7,118.8z M245.7,124.3h1.5l1.3-7.1
				h-1.1l-0.9,5.6l-0.9-5.6h-1.1L245.7,124.3L245.7,124.3z M249.6,122.7l-0.3,1.6h-1.1l1.2-7.1h1.5l1.2,7.1H251l-0.3-1.6H249.6
				L249.6,122.7z M250.1,118.8l-0.4,2.8h0.8L250.1,118.8z"/>
			<g>
				<polygon class="st13" points="220.9,129.6 239.4,129.6 244.2,134.4 244.2,160 220.9,160 				"/>
				<polygon class="st30" points="239.4,134.4 244.2,139.1 244.2,134.4 241.8,132 				"/>
				<polygon class="st15" points="239.4,129.6 244.2,134.4 239.4,134.4 				"/>
				<path class="st36" d="M225.3,147.3h1.1v1.1h-1.1V147.3L225.3,147.3z M228.8,148.4c-0.5,0-0.9-0.2-1.2-0.5
					c-0.3-0.3-0.5-0.7-0.5-1.2v-3.9c0-0.5,0.2-0.9,0.5-1.2c0.3-0.3,0.7-0.5,1.2-0.5c0.5,0,0.9,0.2,1.2,0.5c0.3,0.3,0.5,0.7,0.5,1.2
					v0.8h-1.1v-0.8c0-0.2-0.1-0.3-0.2-0.4c-0.1-0.1-0.3-0.2-0.4-0.2c-0.2,0-0.3,0.1-0.4,0.2c-0.1,0.1-0.2,0.3-0.2,0.4v3.9
					c0,0.2,0.1,0.3,0.2,0.4c0.1,0.1,0.3,0.2,0.4,0.2c0.2,0,0.3-0.1,0.4-0.2c0.1-0.1,0.2-0.3,0.2-0.4v-1h1.1v1c0,0.5-0.2,0.9-0.5,1.2
					C229.7,148.3,229.3,148.4,228.8,148.4L228.8,148.4z M233.1,141.2c0.5,0,0.9,0.2,1.2,0.5c0.3,0.3,0.5,0.7,0.5,1.2v3.9
					c0,0.5-0.2,0.9-0.5,1.2c-0.3,0.3-0.7,0.5-1.2,0.5c-0.5,0-0.9-0.2-1.2-0.5c-0.3-0.3-0.5-0.7-0.5-1.2v-3.9c0-0.5,0.2-0.9,0.5-1.2
					C232.2,141.3,232.6,141.2,233.1,141.2L233.1,141.2z M233.7,142.8c0-0.2-0.1-0.3-0.2-0.4c-0.1-0.1-0.3-0.2-0.4-0.2
					c-0.2,0-0.3,0.1-0.4,0.2c-0.1,0.1-0.2,0.3-0.2,0.4v3.9c0,0.2,0.1,0.3,0.2,0.4c0.1,0.1,0.3,0.2,0.4,0.2c0.2,0,0.3-0.1,0.4-0.2
					c0.1-0.1,0.2-0.3,0.2-0.4V142.8L233.7,142.8z M236.8,148.4h-1.1v-7.1h1.5l1,5.1l1-5.1h1.5v7.1h-1.1v-4.5l-0.9,4.5h-0.9l-1-4.4
					V148.4z"/>
			</g>
		</g>
		<g>
			<g>
				<polygon class="st24" points="186.4,146.4 186.4,146.4 186.2,146.3 186,146.3 185.8,146.3 185.6,146.2 185.5,146.2 185.3,146.1 
					185.1,146.1 184.9,146.1 184.8,146 184.6,146 184.4,145.9 184.2,145.9 184.1,145.8 183.9,145.8 183.7,145.7 183.6,145.7 
					183.4,145.6 183.3,145.6 183.1,146.2 183.2,146.2 183.4,146.3 183.6,146.3 183.7,146.4 183.9,146.4 184.1,146.5 184.2,146.5 
					184.4,146.5 184.6,146.6 184.8,146.6 185,146.7 185.1,146.7 185.3,146.8 185.5,146.8 185.7,146.9 185.9,146.9 186,146.9 
					186.2,147 186.3,147 				"/>
				<polygon class="st24" points="191.5,147.2 191.4,147.2 191.2,147.2 191,147.2 190.8,147.2 190.6,147.1 190.4,147.1 190.3,147.1 
					190.1,147.1 189.9,147 189.7,147 189.5,147 189.3,146.9 189.1,146.9 188.9,146.9 188.7,146.8 188.6,146.8 188.4,146.8 
					188.3,146.8 188.2,147.4 188.3,147.4 188.4,147.4 188.6,147.4 188.8,147.5 189,147.5 189.2,147.5 189.4,147.6 189.6,147.6 
					189.8,147.6 190,147.7 190.2,147.7 190.4,147.7 190.6,147.7 190.8,147.8 190.9,147.8 191.1,147.8 191.3,147.8 191.4,147.8 				
					"/>
				<polygon class="st24" points="196.6,147.5 196.5,147.5 196.3,147.5 196.1,147.5 195.9,147.5 195.7,147.5 195.5,147.5 
					195.3,147.5 195.1,147.5 194.9,147.5 194.7,147.5 194.5,147.5 194.3,147.5 194.1,147.5 193.9,147.4 193.7,147.4 193.5,147.4 
					193.4,147.4 193.3,148 193.5,148 193.7,148 193.9,148.1 194.1,148.1 194.3,148.1 194.5,148.1 194.7,148.1 194.9,148.1 
					195.1,148.1 195.3,148.1 195.5,148.1 195.7,148.1 195.9,148.1 196.1,148.1 196.3,148.1 196.5,148.1 196.6,148.1 				"/>
				<polygon class="st24" points="201.7,147.2 201.7,147.2 201.5,147.3 201.3,147.3 201.1,147.3 200.9,147.3 200.7,147.4 
					200.5,147.4 200.3,147.4 200.1,147.4 200,147.4 199.8,147.4 199.6,147.4 199.4,147.5 199.2,147.5 199,147.5 198.8,147.5 
					198.6,147.5 198.5,147.5 198.5,148.1 198.6,148.1 198.8,148.1 199,148.1 199.2,148.1 199.4,148.1 199.6,148.1 199.8,148 
					200,148 200.2,148 200.4,148 200.6,148 200.8,148 201,147.9 201.2,147.9 201.4,147.9 201.6,147.9 201.7,147.9 201.8,147.8 				
					"/>
				<polygon class="st24" points="206.6,146.2 206.5,146.2 206.3,146.3 206.2,146.3 206,146.4 205.8,146.4 205.6,146.5 205.5,146.5 
					205.3,146.6 205.1,146.6 204.9,146.6 204.8,146.7 204.6,146.7 204.4,146.8 204.2,146.8 204,146.8 203.9,146.9 203.7,146.9 
					203.6,146.9 203.7,147.5 203.8,147.5 204,147.5 204.2,147.4 204.4,147.4 204.6,147.4 204.7,147.3 204.9,147.3 205.1,147.2 
					205.3,147.2 205.5,147.1 205.6,147.1 205.8,147.1 206,147 206.2,147 206.3,146.9 206.5,146.8 206.7,146.8 206.8,146.8 				"/>
				<polygon class="st24" points="211.1,144.1 211.1,144.1 211,144.2 210.9,144.3 210.7,144.3 210.6,144.4 210.4,144.5 210.3,144.6 
					210.1,144.7 210,144.8 209.8,144.8 209.7,144.9 209.5,145 209.4,145.1 209.2,145.1 209.1,145.2 208.9,145.3 208.8,145.4 
					208.6,145.4 208.5,145.5 208.4,145.5 208.7,146.1 208.7,146.1 208.9,146 209.1,145.9 209.2,145.8 209.4,145.8 209.5,145.7 
					209.7,145.6 209.8,145.5 210,145.5 210.2,145.4 210.3,145.3 210.5,145.2 210.6,145.1 210.8,145 210.9,145 211.1,144.9 
					211.2,144.8 211.4,144.7 211.5,144.6 211.5,144.6 				"/>
				<polygon class="st24" points="214.7,140.7 214.6,140.7 214.6,140.8 214.6,140.9 214.5,140.9 214.5,141 214.5,141 214.4,141.1 
					214.4,141.1 214.3,141.2 214.2,141.3 214.1,141.4 214,141.5 213.9,141.7 213.8,141.8 213.7,141.9 213.6,142 213.5,142.1 
					213.4,142.3 213.3,142.4 213.2,142.5 213,142.6 212.9,142.7 212.8,142.8 212.7,142.9 212.6,143 213,143.4 213.1,143.4 
					213.2,143.2 213.4,143.1 213.5,143 213.6,142.9 213.7,142.8 213.9,142.7 214,142.5 214.1,142.4 214.2,142.3 214.3,142.2 
					214.4,142.1 214.5,141.9 214.7,141.8 214.8,141.7 214.9,141.5 214.9,141.5 214.9,141.4 215,141.4 215,141.3 215.1,141.2 
					215.1,141.2 215.2,141.1 215.2,141.1 215.2,141.1 				"/>
				<polygon class="st24" points="216.4,131.5 216.5,131.6 216.5,131.6 216.5,131.7 216.5,131.8 216.5,131.9 216.5,131.9 216.5,132 
					216.5,132.1 216.5,132.2 216.5,132.2 216.5,132.3 216.5,132.4 216.5,132.5 216.6,132.6 216.6,132.6 216.6,132.7 216.6,132.8 
					216.6,132.9 216.6,132.9 216.6,133 216.6,133.1 216.6,133.2 216.6,133.3 216.6,133.4 216.6,133.4 216.6,133.5 216.6,133.6 
					216.6,133.7 216.6,133.8 216.6,133.8 216.6,133.9 216.6,134 216.6,134.1 216.6,134.2 216.5,134.3 216.5,134.3 216.5,134.4 
					216.5,134.5 217.2,134.5 217.2,134.5 217.2,134.4 217.2,134.3 217.2,134.2 217.2,134.1 217.2,134 217.2,133.9 217.2,133.9 
					217.2,133.8 217.2,133.7 217.2,133.6 217.2,133.5 217.2,133.4 217.2,133.4 217.2,133.3 217.2,133.2 217.2,133.1 217.2,133 
					217.2,132.9 217.2,132.9 217.2,132.8 217.2,132.7 217.2,132.6 217.2,132.5 217.2,132.4 217.2,132.4 217.2,132.3 217.2,132.2 
					217.2,132.1 217.2,132 217.2,132 217.1,131.9 217.1,131.8 217.1,131.7 217.1,131.6 217.1,131.6 217.1,131.5 217.1,131.4 				"/>
				<path class="st24" d="M214.3,127.6c0.9,0.4,1.4,1.3,1.8,2.2l0.6-0.2c-0.4-1-1-2-2.1-2.5L214.3,127.6z"/>
				<polygon class="st24" points="209.9,128.7 210,128.6 210,128.6 210.1,128.6 210.1,128.5 210.2,128.5 210.2,128.4 210.3,128.4 
					210.4,128.3 210.4,128.3 210.5,128.2 210.6,128.2 210.6,128.1 210.7,128.1 210.8,128.1 210.9,128 210.9,128 211,127.9 
					211.1,127.9 211.2,127.9 211.3,127.8 211.3,127.8 211.4,127.8 211.5,127.7 211.6,127.7 211.6,127.7 211.7,127.6 211.8,127.6 
					211.9,127.6 211.9,127.6 212,127.6 212.1,127.5 212.2,127.5 212.2,127.5 212.3,127.5 212.4,127.5 212.4,127.5 212.5,127.4 
					212.6,127.4 212.6,127.4 212.5,126.8 212.4,126.8 212.4,126.8 212.3,126.9 212.2,126.9 212.1,126.9 212.1,126.9 212,126.9 
					211.9,126.9 211.8,127 211.7,127 211.7,127 211.6,127 211.5,127.1 211.4,127.1 211.3,127.1 211.2,127.2 211.2,127.2 
					211.1,127.2 211,127.3 210.9,127.3 210.8,127.4 210.7,127.4 210.6,127.4 210.5,127.5 210.5,127.5 210.4,127.6 210.3,127.6 
					210.2,127.7 210.1,127.7 210.1,127.8 210,127.8 209.9,127.9 209.8,127.9 209.8,128 209.7,128 209.6,128.1 209.6,128.2 
					209.5,128.2 209.5,128.3 				"/>
				<polygon class="st24" points="209.7,132.9 209.7,132.8 209.6,132.8 209.6,132.7 209.6,132.6 209.5,132.5 209.5,132.5 
					209.5,132.4 209.4,132.3 209.4,132.3 209.4,132.2 209.3,132.1 209.3,132.1 209.3,132 209.3,131.9 209.2,131.9 209.2,131.8 
					209.2,131.7 209.2,131.6 209.2,131.6 209.2,131.5 209.1,131.4 209.1,131.4 209.1,131.3 209.1,131.2 209.1,131.2 209.1,131.1 
					209.1,131 209.1,131 209.1,130.9 209.1,130.9 209.1,130.8 209.1,130.7 209.1,130.7 209.1,130.6 209.1,130.5 209.1,130.5 
					209.1,130.4 209.1,130.3 209.1,130.3 209.1,130.2 209.1,130.2 209.1,130.1 208.5,130 208.5,130.1 208.5,130.1 208.4,130.2 
					208.4,130.3 208.4,130.4 208.4,130.4 208.4,130.5 208.4,130.6 208.4,130.7 208.4,130.7 208.4,130.8 208.4,130.9 208.4,131 
					208.4,131 208.4,131.1 208.4,131.2 208.5,131.3 208.5,131.3 208.5,131.4 208.5,131.5 208.5,131.6 208.5,131.6 208.5,131.7 
					208.6,131.8 208.6,131.9 208.6,131.9 208.6,132 208.7,132.1 208.7,132.2 208.7,132.3 208.7,132.3 208.8,132.4 208.8,132.5 
					208.8,132.6 208.9,132.6 208.9,132.7 208.9,132.8 209,132.9 209,132.9 209,133 209.1,133.1 209.1,133.1 				"/>
				<polygon class="st24" points="213,136.4 212.9,136.3 212.9,136.3 212.8,136.2 212.7,136.1 212.6,136.1 212.5,136 212.4,136 
					212.4,135.9 212.3,135.8 212.2,135.8 212.1,135.7 212.1,135.6 212,135.6 211.9,135.5 211.8,135.4 211.8,135.4 211.7,135.3 
					211.6,135.3 211.5,135.2 211.5,135.1 211.4,135.1 211.3,135 211.3,134.9 211.2,134.9 211.1,134.8 211.1,134.7 211,134.6 
					210.9,134.6 210.9,134.5 210.8,134.4 210.8,134.4 210.7,134.3 210.2,134.7 210.3,134.8 210.3,134.8 210.4,134.9 210.5,135 
					210.5,135 210.6,135.1 210.7,135.2 210.7,135.3 210.8,135.3 210.9,135.4 210.9,135.5 211,135.5 211.1,135.6 211.2,135.7 
					211.2,135.8 211.3,135.8 211.4,135.9 211.5,136 211.6,136 211.6,136.1 211.7,136.2 211.8,136.2 211.9,136.3 212,136.4 
					212,136.4 212.1,136.5 212.2,136.6 212.3,136.6 212.4,136.7 212.5,136.7 212.6,136.8 212.6,136.9 				"/>
				<polygon class="st24" points="217.5,138.5 217.5,138.5 217.4,138.4 217.3,138.4 217.2,138.4 217,138.3 216.9,138.3 216.8,138.3 
					216.7,138.2 216.6,138.2 216.5,138.2 216.5,138.2 216.5,138.1 216.5,138.1 216.6,138 216.6,137.9 216.6,137.8 216.6,137.7 
					216.6,137.7 216.7,137.6 216.7,137.5 216.7,137.4 216.7,137.3 216.8,137.3 216.8,137.2 216.8,137.1 216.8,137 216.8,136.9 
					216.8,136.8 216.9,136.8 216.9,136.7 216.9,136.6 216.9,136.5 216.9,136.4 216.9,136.4 216.3,136.3 216.3,136.3 216.3,136.4 
					216.3,136.5 216.2,136.6 216.2,136.6 216.2,136.7 216.2,136.8 216.2,136.9 216.2,137 216.1,137 216.1,137.1 216.1,137.2 
					216.1,137.3 216.1,137.4 216,137.4 216,137.5 216,137.6 216,137.7 216,137.7 215.9,137.8 215.9,137.9 215.9,137.9 215.8,137.9 
					215.7,137.9 215.6,137.8 215.5,137.8 215.4,137.7 215.3,137.7 215.2,137.6 215.1,137.6 215,137.6 214.9,137.5 214.8,137.5 
					214.7,137.4 214.6,137.4 214.6,137.3 214.3,137.9 214.3,137.9 214.4,137.9 214.5,138 214.6,138 214.7,138.1 214.8,138.1 
					214.9,138.2 215.1,138.2 215.2,138.3 215.3,138.3 215.4,138.4 215.5,138.4 215.6,138.5 215.7,138.5 215.7,138.5 215.7,138.6 
					215.7,138.7 215.6,138.7 215.6,138.8 215.6,138.9 215.6,138.9 215.5,139 215.5,139.1 215.5,139.2 216.1,139.4 216.1,139.3 
					216.1,139.2 216.2,139.2 216.2,139.1 216.2,139 216.2,138.9 216.3,138.9 216.3,138.8 216.3,138.7 216.4,138.8 216.5,138.8 
					216.6,138.8 216.7,138.9 216.9,138.9 217,138.9 217.1,139 217.2,139 217.3,139 217.3,139 				"/>
				<polygon class="st24" points="222.4,138.6 222.4,138.6 222.3,138.7 222.2,138.7 222.1,138.7 222,138.7 221.9,138.7 221.8,138.8 
					221.7,138.8 221.5,138.8 221.4,138.8 221.3,138.8 221.2,138.8 221.1,138.8 221,138.8 220.9,138.8 220.8,138.8 220.7,138.8 
					220.6,138.8 220.5,138.8 220.4,138.8 220.3,138.8 220.1,138.8 220,138.8 219.9,138.8 219.8,138.8 219.7,138.8 219.6,138.8 
					219.5,138.8 219.4,138.8 219.3,138.8 219.3,139.4 219.3,139.4 219.4,139.4 219.6,139.4 219.7,139.4 219.8,139.4 219.9,139.4 
					220,139.4 220.1,139.5 220.2,139.5 220.4,139.5 220.5,139.5 220.6,139.5 220.7,139.5 220.8,139.4 220.9,139.4 221.1,139.4 
					221.2,139.4 221.3,139.4 221.4,139.4 221.5,139.4 221.6,139.4 221.7,139.4 221.9,139.4 222,139.3 222.1,139.3 222.2,139.3 
					222.3,139.3 222.4,139.3 222.5,139.2 222.6,139.2 				"/>
				<polygon class="st24" points="225,137.7 224.9,137.7 224.8,137.8 224.7,137.8 224.6,137.9 224.5,137.9 224.4,138 224.3,138 
					224.2,138.1 224.5,138.6 224.6,138.6 224.7,138.5 224.8,138.5 224.9,138.4 225,138.4 225.1,138.3 225.2,138.3 225.3,138.2 				
					"/>
			</g>
			<path class="st24" d="M225.6,135.9c1,0.3,1.6,1.3,1.3,2.3c-0.3,1-1.4,1.5-2.4,1.2c-1-0.3-1.6-1.3-1.3-2.3
				C223.4,136.2,224.5,135.6,225.6,135.9z"/>
		</g>
		<path class="st28" d="M159.9,82.5c2.4-1.3,3.9-4.4,2.5-9.6c-4.2-5.5-7.5-13.1-4.8-19c4.3-10.4,20.5-12.3,28.7-3
			c3,4.9,1.7,6.8,2.6,10.2c1.9,2.6,5.6,3.3,6.1,5.7c0.2,2.2-2.5,2-4.1,3.6c0.1,0.9,0.4,1.9,1.1,2.7c0,0.5-0.4,0.8-1.1,1.1
			c0.8,0.1,1.4,0.5,1.5,1c0.1,0.6-1.2,1-1.1,1.9c0.1,1.1,0.3,1.2,0.8,2.3c0.5,1.2-0.1,2.2-1.4,2.4c-3.5,0.8-6.6,1-9.4,0.8
			c-2.7,1.4-5,6-5.2,8.7l-3.2,0C167.3,89.8,162.8,86.2,159.9,82.5z"/>
		<path class="st17" d="M156.7,82.5c2.4-1.3,3.9-4.4,2.5-9.6c-4.2-5.5-7.5-13.1-4.8-19c4.3-10.4,20.5-12.3,28.7-3
			c3,4.9,1.7,6.8,2.6,10.2c1.9,2.6,5.6,3.3,6.1,5.7c0.2,2.2-2.5,2-4.1,3.6c0.1,0.9,0.4,1.9,1.1,2.7c0,0.5-0.4,0.8-1.1,1.1
			c0.8,0.1,1.4,0.5,1.5,1c0.1,0.6-1.2,1-1.1,1.9c0.1,1.1,0.3,1.2,0.8,2.3c0.5,1.2-0.1,2.2-1.4,2.4c-3.5,0.8-6.6,1-9.4,0.8
			c-2.7,1.4-5,6-5.2,8.7C165.4,90,160.2,86.9,156.7,82.5z"/>
		<g>
			<path class="st13" d="M164.7,41.1c5.6,0,10.1,4.5,10.1,10.1c0,2.6-0.9,4.9-2.5,6.7l0,0l0,0c-0.1,0.1-0.2,0.2-0.3,0.3
				c-1.7,1.9-2.7,4.3-2.7,6.8c0,0.5-0.4,0.9-0.9,0.9H161c-0.5,0-0.9-0.4-0.9-0.9c0-2.6-1-4.9-2.7-6.8c-0.1-0.1-0.2-0.2-0.3-0.3l0,0
				h0c-1.6-1.8-2.5-4.1-2.5-6.7C154.6,45.6,159.1,41.1,164.7,41.1z"/>
			<path class="st24" d="M158.8,57.7L158.8,57.7L158.8,57.7c0.1,0.1,0.2,0.2,0.2,0.3l0,0l0,0c1.8,2.2,2.9,4.9,3.2,7.8h4.8
				c0.3-2.9,1.4-5.6,3.2-7.8l0,0l0,0c0.1-0.1,0.1-0.2,0.2-0.3l0,0c1.3-1.6,1.9-3.6,1.9-5.8c0-4.8-3.5-8.8-7.8-8.8
				c-4.3,0-7.8,3.9-7.8,8.8C156.9,54.1,157.6,56.1,158.8,57.7z"/>
			<rect x="161" y="65.9" class="st40" width="7.5" height="4"/>
			<path class="st29" d="M163.8,65.9c0.1-2.5,0.2-5.6,0-8.5c-0.1-1.4-0.3-2.8-0.6-4.1c-0.4,0.2-0.9,0.3-1.3,0.3
				c-2.2,0.2-3.4-2.1-2.5-4c0.8-1.7,2.1-0.7,2.9,0.5c0.5,0.8,0.8,1.7,1.1,2.8c0.3-0.1,0.7-0.3,1-0.5c0.1,0,0.1-0.1,0.1-0.1l0.3,0.2
				c-0.1,0-0.2,0.2-0.2,0.2c-0.3,0.2-0.7,0.4-1.1,0.6c0.3,1.3,0.5,2.7,0.6,4.1c0.2,2.9,0.1,5.9,0,8.5L163.8,65.9L163.8,65.9z
				 M163.2,53.1c-0.3-1.1-0.6-2-1.1-2.7c-0.6-1-1.7-2-2.4-0.5c-0.8,1.7,0.3,3.7,2.2,3.6C162.3,53.4,162.7,53.3,163.2,53.1z"/>
			<path class="st29" d="M165.3,65.9c-0.1-2.5-0.2-5.6,0-8.5c0.1-1.4,0.3-2.8,0.6-4.1c0.4,0.2,0.9,0.3,1.3,0.3
				c2.2,0.2,3.4-2.1,2.5-4c-0.8-1.7-2.1-0.7-2.9,0.5c-0.5,0.8-0.8,1.7-1.1,2.8c-0.3-0.1-0.7-0.3-1-0.5c-0.1,0-0.1-0.1-0.1-0.1
				l-0.2,0.2c0.1,0,0.1,0.1,0.2,0.1c0.3,0.2,0.7,0.4,1.1,0.6c-0.3,1.3-0.5,2.7-0.6,4.1c-0.2,2.9-0.1,5.9,0,8.5L165.3,65.9
				L165.3,65.9z M166,53.1c0.3-1.1,0.6-2,1.1-2.7c0.6-1,1.7-2,2.4-0.5c0.8,1.7-0.3,3.7-2.2,3.6C166.8,53.4,166.4,53.3,166,53.1z"/>
			<path class="st36" d="M168.5,69.9c0,1.9-1.6,3.5-3.5,3.5h-0.5c-1.9,0-3.5-1.6-3.5-3.5H168.5z"/>
			<rect x="160.8" y="65.8" class="st40" width="8" height="0.8"/>
			<rect x="160.8" y="67.5" class="st40" width="8" height="0.8"/>
			<rect x="160.8" y="69.1" class="st40" width="8" height="0.8"/>
			<polygon class="st36" points="161,66.6 168.5,66.6 168.5,67.5 161.8,67.5 			"/>
			<polygon class="st36" points="161,68.3 168.5,68.3 168.5,69.1 161.8,69.1 			"/>
		</g>
		<g>
			<g>
				<polygon class="st24" points="152.1,117.9 152.1,118 152.1,118.2 152.1,118.3 152.2,118.5 152.2,118.7 152.2,118.9 152.3,119.1 
					152.3,119.2 152.3,119.4 152.4,119.6 152.4,119.8 152.4,119.9 152.5,120.1 152.5,120.3 152.6,120.5 152.6,120.6 152.6,120.8 
					152.7,121 152.7,121 152.1,121.2 152.1,121.1 152,121 152,120.8 152,120.6 151.9,120.4 151.9,120.3 151.8,120.1 151.8,119.9 
					151.8,119.7 151.7,119.5 151.7,119.4 151.7,119.2 151.6,119 151.6,118.8 151.6,118.6 151.5,118.5 151.5,118.3 151.5,118.1 
					151.5,118 				"/>
				<polygon class="st24" points="151.5,112.8 151.5,112.9 151.5,113.1 151.5,113.3 151.5,113.5 151.5,113.7 151.6,113.9 151.6,114 
					151.6,114.2 151.6,114.4 151.6,114.6 151.6,114.8 151.7,115 151.7,115.2 151.7,115.4 151.7,115.6 151.7,115.8 151.8,115.9 
					151.8,116 151.2,116.1 151.2,116 151.1,115.8 151.1,115.7 151.1,115.5 151.1,115.3 151.1,115.1 151,114.9 151,114.7 151,114.5 
					151,114.3 151,114.1 150.9,113.9 150.9,113.7 150.9,113.5 150.9,113.3 150.9,113.1 150.9,112.9 150.9,112.9 				"/>
				<polygon class="st24" points="151.4,107.7 151.4,107.8 151.4,108 151.4,108.2 151.4,108.4 151.4,108.6 151.4,108.8 151.4,109 
					151.4,109.2 151.4,109.4 151.4,109.6 151.4,109.8 151.4,110 151.4,110.2 151.4,110.4 151.4,110.6 151.4,110.8 151.4,110.9 
					150.8,110.9 150.8,110.8 150.8,110.6 150.8,110.4 150.8,110.2 150.8,110 150.8,109.8 150.8,109.6 150.8,109.4 150.8,109.2 
					150.8,109 150.8,108.8 150.8,108.6 150.8,108.4 150.8,108.2 150.8,108 150.8,107.8 150.8,107.7 				"/>
				<polygon class="st24" points="152,102.6 152,102.7 151.9,102.8 151.9,103 151.9,103.2 151.8,103.4 151.8,103.6 151.8,103.8 
					151.7,104 151.7,104.2 151.7,104.4 151.7,104.5 151.7,104.7 151.6,104.9 151.6,105.1 151.6,105.3 151.6,105.5 151.6,105.7 
					151.5,105.8 150.9,105.7 150.9,105.6 151,105.4 151,105.2 151,105 151,104.8 151,104.7 151.1,104.5 151.1,104.3 151.1,104.1 
					151.1,103.9 151.2,103.7 151.2,103.5 151.2,103.3 151.3,103.1 151.3,102.9 151.3,102.7 151.4,102.5 151.4,102.5 				"/>
				<polygon class="st24" points="153.3,97.8 153.2,97.9 153.2,98 153.1,98.2 153,98.4 153,98.5 152.9,98.7 152.9,98.9 152.8,99.1 
					152.8,99.2 152.7,99.4 152.7,99.6 152.6,99.8 152.6,99.9 152.5,100.1 152.5,100.3 152.4,100.5 152.4,100.6 152.3,100.8 
					151.8,100.6 151.8,100.5 151.8,100.3 151.9,100.1 151.9,99.9 152,99.8 152,99.6 152.1,99.4 152.1,99.2 152.2,99 152.2,98.9 
					152.3,98.7 152.3,98.5 152.4,98.3 152.5,98.2 152.5,98 152.6,97.8 152.7,97.6 152.7,97.5 				"/>
				<polygon class="st24" points="155.6,93.3 155.6,93.4 155.5,93.5 155.4,93.6 155.3,93.8 155.2,93.9 155.1,94 155,94.2 
					154.9,94.3 154.8,94.5 154.8,94.6 154.7,94.7 154.6,94.9 154.5,95 154.4,95.2 154.3,95.3 154.3,95.5 154.2,95.6 154.1,95.8 
					154,95.9 154,96 153.5,95.7 153.5,95.7 153.6,95.5 153.6,95.3 153.7,95.2 153.8,95 153.9,94.9 154,94.7 154.1,94.6 154.2,94.4 
					154.2,94.3 154.3,94.1 154.4,94 154.5,93.8 154.6,93.7 154.7,93.5 154.8,93.4 154.9,93.2 155,93.1 155.1,93 155.1,92.9 				"/>
				<polygon class="st24" points="159.1,90 159.1,90 159,90 159,90.1 158.9,90.1 158.9,90.1 158.8,90.2 158.7,90.2 158.7,90.2 
					158.6,90.3 158.5,90.4 158.4,90.5 158.3,90.6 158.1,90.7 158,90.8 157.9,90.9 157.8,91 157.6,91.1 157.5,91.2 157.4,91.3 
					157.3,91.4 157.2,91.5 157,91.6 156.9,91.7 156.8,91.9 156.8,91.9 156.3,91.5 156.4,91.4 156.5,91.3 156.6,91.2 156.8,91 
					156.9,90.9 157,90.8 157.1,90.7 157.2,90.6 157.4,90.5 157.5,90.4 157.6,90.3 157.8,90.2 157.9,90 158,89.9 158.2,89.8 
					158.3,89.7 158.4,89.7 158.4,89.7 158.5,89.6 158.5,89.6 158.6,89.6 158.7,89.5 158.7,89.5 158.8,89.4 158.8,89.4 				"/>
				<polygon class="st24" points="168.4,88.6 168.3,88.6 168.3,88.6 168.2,88.6 168.1,88.6 168.1,88.6 168,88.6 167.9,88.6 
					167.8,88.6 167.7,88.5 167.7,88.5 167.6,88.5 167.5,88.5 167.4,88.5 167.4,88.5 167.3,88.5 167.2,88.5 167.1,88.5 167,88.5 
					167,88.5 166.9,88.5 166.8,88.4 166.7,88.4 166.6,88.4 166.6,88.4 166.5,88.4 166.4,88.4 166.3,88.4 166.2,88.4 166.2,88.4 
					166.1,88.4 166,88.4 165.9,88.4 165.8,88.4 165.7,88.4 165.7,88.4 165.6,88.4 165.5,88.4 165.4,88.4 165.4,87.8 165.5,87.8 
					165.6,87.8 165.7,87.8 165.7,87.8 165.8,87.8 165.9,87.8 166,87.8 166.1,87.8 166.2,87.8 166.3,87.8 166.3,87.8 166.4,87.8 
					166.5,87.8 166.6,87.8 166.7,87.8 166.8,87.8 166.8,87.8 166.9,87.8 167,87.8 167.1,87.8 167.2,87.8 167.3,87.8 167.3,87.8 
					167.4,87.9 167.5,87.9 167.6,87.9 167.7,87.9 167.7,87.9 167.8,87.9 167.9,87.9 168,87.9 168.1,87.9 168.1,88 168.2,88 
					168.3,88 168.4,88 168.5,88 168.5,88 				"/>
				<path class="st24" d="M172.2,91c-0.4-0.9-1.2-1.5-2.1-1.9l0.2-0.6c1,0.4,2,1.1,2.4,2.2L172.2,91z"/>
				<polygon class="st24" points="170.9,95.3 170.9,95.3 171,95.2 171,95.2 171.1,95.1 171.1,95.1 171.2,95 171.2,94.9 171.3,94.9 
					171.3,94.8 171.4,94.8 171.4,94.7 171.5,94.6 171.5,94.5 171.6,94.5 171.6,94.4 171.7,94.3 171.7,94.2 171.7,94.2 171.8,94.1 
					171.8,94 171.9,93.9 171.9,93.9 171.9,93.8 172,93.7 172,93.6 172,93.6 172.1,93.5 172.1,93.4 172.1,93.3 172.1,93.3 
					172.2,93.2 172.2,93.1 172.2,93.1 172.2,93 172.2,92.9 172.3,92.9 172.3,92.8 172.3,92.7 172.3,92.7 172.9,92.8 172.9,92.9 
					172.9,93 172.8,93 172.8,93.1 172.8,93.2 172.8,93.3 172.8,93.3 172.7,93.4 172.7,93.5 172.7,93.6 172.6,93.7 172.6,93.7 
					172.6,93.8 172.5,93.9 172.5,94 172.5,94.1 172.4,94.1 172.4,94.2 172.4,94.3 172.3,94.4 172.3,94.5 172.2,94.6 172.2,94.7 
					172.1,94.7 172.1,94.8 172,94.9 172,95 171.9,95.1 171.9,95.1 171.8,95.2 171.8,95.3 171.7,95.4 171.6,95.4 171.6,95.5 
					171.5,95.6 171.5,95.6 171.4,95.7 171.4,95.7 171.3,95.8 				"/>
				<polygon class="st24" points="166.7,95.3 166.7,95.4 166.8,95.4 166.9,95.4 167,95.5 167,95.5 167.1,95.6 167.2,95.6 
					167.2,95.6 167.3,95.7 167.4,95.7 167.4,95.7 167.5,95.7 167.6,95.8 167.6,95.8 167.7,95.8 167.8,95.9 167.8,95.9 167.9,95.9 
					168,95.9 168,95.9 168.1,96 168.2,96 168.2,96 168.3,96 168.4,96 168.4,96 168.5,96 168.6,96 168.6,96.1 168.7,96.1 168.8,96.1 
					168.8,96.1 168.9,96.1 168.9,96.1 169,96.1 169.1,96.1 169.1,96.1 169.2,96.1 169.3,96.1 169.3,96.1 169.4,96.1 169.4,96 
					169.5,96.7 169.5,96.7 169.4,96.7 169.3,96.7 169.2,96.7 169.2,96.7 169.1,96.7 169,96.7 168.9,96.7 168.9,96.7 168.8,96.7 
					168.7,96.7 168.6,96.7 168.6,96.7 168.5,96.7 168.4,96.7 168.3,96.7 168.3,96.7 168.2,96.6 168.1,96.6 168,96.6 168,96.6 
					167.9,96.6 167.8,96.5 167.7,96.5 167.7,96.5 167.6,96.5 167.5,96.4 167.4,96.4 167.3,96.4 167.3,96.3 167.2,96.3 167.1,96.3 
					167,96.2 167,96.2 166.9,96.2 166.8,96.1 166.7,96.1 166.7,96.1 166.6,96 166.5,96 166.4,95.9 166.4,95.9 				"/>
				<polygon class="st24" points="163.4,91.9 163.4,91.9 163.5,92 163.5,92.1 163.6,92.2 163.6,92.3 163.7,92.3 163.8,92.4 
					163.8,92.5 163.9,92.6 163.9,92.7 164,92.8 164.1,92.8 164.1,92.9 164.2,93 164.2,93.1 164.3,93.1 164.4,93.2 164.4,93.3 
					164.5,93.4 164.5,93.4 164.6,93.5 164.7,93.6 164.7,93.7 164.8,93.7 164.9,93.8 164.9,93.9 165,93.9 165.1,94 165.1,94.1 
					165.2,94.1 165.3,94.2 165.3,94.2 164.9,94.7 164.8,94.7 164.8,94.6 164.7,94.5 164.6,94.5 164.6,94.4 164.5,94.3 164.4,94.3 
					164.4,94.2 164.3,94.1 164.2,94 164.2,94 164.1,93.9 164,93.8 164,93.7 163.9,93.6 163.8,93.6 163.8,93.5 163.7,93.4 
					163.6,93.3 163.6,93.2 163.5,93.2 163.4,93.1 163.4,93 163.3,92.9 163.3,92.8 163.2,92.7 163.1,92.6 163.1,92.5 163,92.5 
					163,92.4 162.9,92.3 162.9,92.2 				"/>
				<polygon class="st24" points="161.5,87.3 161.5,87.3 161.5,87.4 161.6,87.5 161.6,87.6 161.6,87.7 161.6,87.8 161.7,87.9 
					161.7,88 161.7,88.1 161.7,88.2 161.8,88.3 161.8,88.3 161.8,88.2 161.9,88.2 162,88.2 162.1,88.2 162.2,88.2 162.3,88.2 
					162.3,88.1 162.4,88.1 162.5,88.1 162.6,88.1 162.7,88.1 162.8,88.1 162.8,88 162.9,88 163,88 163.1,88 163.2,88 163.3,88 
					163.3,88 163.4,87.9 163.5,87.9 163.5,87.9 163.6,88.6 163.6,88.6 163.5,88.6 163.4,88.6 163.3,88.6 163.3,88.6 163.2,88.6 
					163.1,88.6 163,88.7 162.9,88.7 162.9,88.7 162.8,88.7 162.7,88.7 162.6,88.7 162.5,88.7 162.5,88.8 162.4,88.8 162.3,88.8 
					162.2,88.8 162.1,88.8 162.1,88.9 162,88.9 161.9,88.9 162,89 162,89.1 162,89.2 162.1,89.3 162.1,89.4 162.2,89.5 162.2,89.6 
					162.2,89.7 162.3,89.8 162.3,89.9 162.4,90 162.4,90.1 162.5,90.2 162.5,90.2 161.9,90.5 161.9,90.4 161.9,90.3 161.8,90.2 
					161.8,90.1 161.7,90 161.7,89.9 161.6,89.8 161.6,89.7 161.6,89.6 161.5,89.5 161.5,89.4 161.4,89.3 161.4,89.2 161.4,89.1 
					161.4,89 161.3,89.1 161.2,89.1 161.1,89.1 161.1,89.1 161,89.2 160.9,89.2 160.9,89.2 160.8,89.2 160.7,89.3 160.5,88.6 
					160.6,88.6 160.7,88.6 160.7,88.6 160.8,88.5 160.9,88.5 161,88.5 161,88.5 161.1,88.4 161.2,88.4 161.1,88.3 161.1,88.2 
					161.1,88.1 161,88 161,87.9 161,87.8 161,87.7 160.9,87.5 160.9,87.4 160.9,87.4 				"/>
				<polygon class="st24" points="161.6,82.3 161.6,82.4 161.5,82.5 161.5,82.6 161.5,82.7 161.5,82.8 161.4,82.9 161.4,83 
					161.4,83.1 161.4,83.2 161.4,83.3 161.3,83.4 161.3,83.5 161.3,83.6 161.3,83.7 161.3,83.8 161.3,84 161.3,84.1 161.3,84.2 
					161.3,84.3 161.3,84.4 161.3,84.5 161.2,84.6 161.2,84.7 161.2,84.8 161.2,84.9 161.2,85 161.2,85.1 161.3,85.3 161.3,85.4 
					161.3,85.4 160.6,85.4 160.6,85.4 160.6,85.3 160.6,85.2 160.6,85 160.6,84.9 160.6,84.8 160.6,84.7 160.6,84.6 160.6,84.5 
					160.6,84.4 160.7,84.2 160.7,84.1 160.7,84 160.7,83.9 160.7,83.8 160.7,83.7 160.7,83.6 160.7,83.4 160.7,83.3 160.8,83.2 
					160.8,83.1 160.8,83 160.8,82.9 160.8,82.8 160.9,82.6 160.9,82.5 160.9,82.4 160.9,82.3 161,82.2 161,82.1 				"/>
				<polygon class="st24" points="162.7,79.8 162.6,79.9 162.5,80 162.5,80.1 162.4,80.2 162.4,80.3 162.3,80.4 162.3,80.5 
					162.2,80.6 161.7,80.3 161.7,80.2 161.8,80.1 161.8,80 161.9,79.9 162,79.8 162,79.7 162.1,79.6 162.2,79.4 				"/>
			</g>
			<path class="st24" d="M164.4,79.3c-0.2-1-1.2-1.7-2.2-1.4c-1,0.3-1.6,1.3-1.3,2.4c0.2,1,1.2,1.7,2.2,1.4
				C164.1,81.4,164.7,80.4,164.4,79.3z"/>
		</g>
		<g>
			<path class="st24" d="M182.8,170c1.2-0.4,1.8-1.7,1.3-2.9c-0.5-1.2-1.9-1.9-3.1-1.4c-1.2,0.4-1.8,1.7-1.3,2.9
				C180.2,169.7,181.6,170.4,182.8,170z"/>
			<g>
				<path class="st24" d="M200.6,193.2c0-0.7-1.1-0.9-1.2-0.1l0,0.1v0l0,0.2l0,0.2l0,0.2l0,0.2l0,0.2l0,0.2l0,0.2l0,0.2l0,0.2l0,0.2
					l0,0.2l0,0.2l0,0.2l0,0.2l0,0.2l0,0.2l0,0.2l0,0.2l0,0.2l0,0.2l0,0.2l0,0.2l0,0.2l0,0.2l0,0.2l0,0.2l0,0.2l0,0.2l0,0.2l0,0.2
					l0,0.2l0,0.2l0,0.2l0,0.2l0,0.1c-0.2,0.7,0.9,1.1,1.2,0.5c0,0,0-0.1,0-0.1l0-0.2l0-0.2l0-0.2l0-0.2l0-0.2l0-0.2l0-0.2l0-0.2
					l0-0.2l0-0.2l0-0.2l0-0.2l0-0.2l0-0.2l0-0.2l0-0.2l0-0.2l0-0.2l0-0.2l0-0.2l0-0.2l0-0.2l0-0.2l0-0.2l0-0.2l0-0.2l0-0.2l0-0.2
					l0-0.2l0-0.2l0-0.2l0-0.2l0-0.2l0-0.2L200.6,193.2L200.6,193.2z"/>
				<path class="st24" d="M198.5,183.3c-0.1-0.3-0.4-0.4-0.7-0.4c-0.4,0.1-0.6,0.5-0.4,0.8l0.1,0.1l0.1,0.2l0.1,0.2l0.1,0.2l0.1,0.2
					l0.1,0.2l0.1,0.2l0.1,0.2l0.1,0.2l0.1,0.2l0.1,0.2l0.1,0.2l0.1,0.2l0.1,0.2l0.1,0.2l0.1,0.2l0.1,0.2l0,0.2l0,0.2l0,0.2l0,0.2
					l0,0.2l0,0.2l0,0.2l0,0.2l0,0.2l0,0.2l0,0.2l0,0.2l0,0.2l0,0.2l0,0.2l0,0.2l0,0.2l0,0.2l0,0.1c0,0.2,0.2,0.4,0.4,0.5
					c0.4,0.2,0.9-0.2,0.8-0.6l0-0.1l0-0.2l0-0.2l0-0.2l0-0.2l0-0.2l0-0.2l0-0.2l0-0.2l0-0.2l0-0.2l0-0.2l0-0.2l0-0.2l0-0.2l0-0.2
					l0-0.2l-0.1-0.2l-0.1-0.2l-0.1-0.2l-0.1-0.2l-0.1-0.2l-0.1-0.2l-0.1-0.2l-0.1-0.2l-0.1-0.2l-0.1-0.2l-0.1-0.2l-0.1-0.2l-0.1-0.2
					l-0.1-0.2l-0.1-0.2l-0.1-0.2l-0.1-0.2l-0.1-0.2L198.5,183.3z"/>
				<path class="st24" d="M192.6,174.9c-0.2-0.2-0.4-0.2-0.6-0.2c-0.5,0.1-0.6,0.7-0.3,1l0.1,0.1l0.1,0.1l0.1,0.1l0.1,0.1l0.1,0.1
					l0.1,0.1l0.1,0.1l0.1,0.1l0.1,0.1l0.1,0.1l0.1,0.1l0.1,0.1l0.1,0.1l0.1,0.1l0.1,0.1l0.1,0.1l0.1,0.1l0.1,0.1l0.1,0.1l0.1,0.1
					l0.1,0.1l0.1,0.1l0.1,0.1l0.1,0.1l0.1,0.1l0.1,0.1l0.1,0.1l0.1,0.1l0.1,0.1l0.1,0.1l0.1,0.2l0.1,0.2l0.1,0.2l0.1,0.1
					c0.2,0.3,0.5,0.4,0.8,0.3c0.3-0.1,0.4-0.5,0.2-0.9l-0.1-0.1l-0.1-0.2l-0.1-0.2l-0.1-0.2l-0.1-0.2l-0.1-0.2l-0.1-0.2l-0.1-0.2
					l-0.1-0.2l-0.1-0.2l-0.1-0.2l-0.1-0.2l-0.1-0.2l-0.1-0.2l-0.1-0.2l-0.1-0.2l-0.1-0.2l-0.1-0.2l-0.1-0.1l-0.1-0.1l-0.1-0.1
					l-0.1-0.1l-0.1-0.1l-0.1-0.1l-0.1-0.1l-0.1-0.1l-0.1-0.1l-0.1-0.1l-0.1-0.1l-0.1-0.1l-0.1-0.1l-0.1-0.1L192.6,174.9L192.6,174.9
					z"/>
				<path class="st24" d="M184.1,169c-0.6-0.3-1.2,0.4-0.7,1c0.1,0.1,0.1,0.1,0.2,0.1l0.2,0.1l0.2,0.1l0.2,0.1l0.2,0.1l0.2,0.1
					l0.2,0.1l0.2,0.1l0.2,0.1l0.2,0.1l0.2,0.1l0.2,0.1l0.2,0.1l0.2,0.1l0.2,0.1l0.2,0.1l0.2,0.1l0.2,0.1l0.2,0.1l0.2,0.1l0.2,0.1
					l0.2,0.1l0.2,0.1l0.2,0.1l0.2,0.1l0.2,0.1l0.2,0.1l0.2,0.1l0.2,0.1l0.2,0.1l0.1,0.1c0.6,0.4,1.3-0.2,0.9-0.8
					c0-0.1-0.1-0.1-0.1-0.1l-0.1-0.1l-0.2-0.1l-0.2-0.1l-0.2-0.1l-0.2-0.1l-0.2-0.1l-0.2-0.1l-0.2-0.1l-0.2-0.1l-0.2-0.1l-0.2-0.1
					l-0.2-0.1l-0.2-0.1l-0.2-0.1l-0.2-0.1l-0.2-0.1l-0.2-0.1l-0.2-0.1l-0.2-0.1l-0.2-0.1l-0.2-0.1l-0.2-0.1l-0.2-0.1l-0.2-0.1
					l-0.2-0.1l-0.2-0.1l-0.2-0.1l-0.2-0.1l-0.2-0.1L184.1,169z"/>
				<path class="st24" d="M194.4,207.3c-0.4,0.6,0.4,1.3,1,0.8c0,0,0,0,0.1-0.1l0.1-0.2l0.1-0.2l0.1-0.2l0.1-0.2l0.1-0.2l0.1-0.2
					l0.1-0.2l0.1-0.2l0.1-0.2l0.1-0.2l0.1-0.2l0.1-0.2l0.1-0.2l0.1-0.2l0.1-0.2l0.1-0.2l0.1-0.2l0.1-0.2l0.1-0.2l0.1-0.2l0.1-0.2
					l0.1-0.2l0.1-0.2l0.1-0.2l0.1-0.2l0.1-0.2l0.1-0.2l0.1-0.2l0.1-0.2l0.1-0.2l0.1-0.2l0.1-0.2l0-0.1c0.3-0.7-0.7-1.3-1.1-0.6l0,0
					l0,0.1l-0.1,0.2l-0.1,0.2l-0.1,0.2L197,203l-0.1,0.2l-0.1,0.2l-0.1,0.2l-0.1,0.2l-0.1,0.2l-0.1,0.2l-0.1,0.2l-0.1,0.2l-0.1,0.2
					l-0.1,0.2l-0.1,0.2l-0.1,0.2l-0.1,0.2l-0.1,0.2l-0.1,0.2l-0.1,0.2l-0.1,0.2l-0.1,0.2l-0.1,0.2l-0.1,0.2l-0.1,0.2l-0.1,0.1
					l-0.1,0.1l-0.1,0.2l-0.1,0.1l-0.1,0.1l-0.1,0.1L194.4,207.3z"/>
			</g>
		</g>
	</g>
</g>
</svg>
