<?xml version="1.0" encoding="utf-8"?>
<!-- Generator: Adobe Illustrator 22.0.1, SVG Export Plug-In . SVG Version: 6.00 Build 0)  -->
<svg version="1.1" id="Layer_1" xmlns="http://www.w3.org/2000/svg" xmlns:xlink="http://www.w3.org/1999/xlink" x="0px" y="0px"
	 viewBox="0 0 609.4 609.4" style="enable-background:new 0 0 609.4 609.4;" xml:space="preserve">
<style type="text/css">
	.st0{display:none;}
	.st1{display:inline;fill:#131313;}
	.st2{font-family:'Cairo-SemiBold';}
	.st3{font-size:92.8375px;}
	.st4{font-family:'Cairo-ExtraLight';}
	.st5{font-size:44.761px;}
	.st6{fill:#1C2E4B;}
	.st7{fill:#CA9D3D;}
	.st8{fill:#1F304C;}
	.st9{fill:#0D1530;}
	.st10{fill:#131313;}
	.st11{opacity:0.82;}
	.st12{fill-rule:evenodd;clip-rule:evenodd;fill:#F3911F;}
	.st13{fill-rule:evenodd;clip-rule:evenodd;fill:#E1AF25;}
	.st14{fill-rule:evenodd;clip-rule:evenodd;fill:#F1F1F5;}
	.st15{fill-rule:evenodd;clip-rule:evenodd;fill:#EBEBF0;}
	.st16{fill-rule:evenodd;clip-rule:evenodd;fill:#A7DCE5;}
	.st17{fill-rule:evenodd;clip-rule:evenodd;fill:#FFCD05;}
	.st18{fill-rule:evenodd;clip-rule:evenodd;fill:#19B0BF;}
	.st19{fill-rule:evenodd;clip-rule:evenodd;fill:#FED620;}
	.st20{fill-rule:evenodd;clip-rule:evenodd;fill:#E4BE21;}
	.st21{fill-rule:evenodd;clip-rule:evenodd;fill:#FEE265;}
	.st22{fill-rule:evenodd;clip-rule:evenodd;fill:#C5282C;}
	.st23{fill-rule:evenodd;clip-rule:evenodd;fill:#E74137;}
	.st24{fill-rule:evenodd;clip-rule:evenodd;fill:#FED309;}
	.st25{fill-rule:evenodd;clip-rule:evenodd;fill:#FFFFFF;}
	.st26{fill-rule:evenodd;clip-rule:evenodd;fill:#F6F6F7;}
	.st27{fill-rule:evenodd;clip-rule:evenodd;fill:#8D8288;}
	.st28{fill-rule:evenodd;clip-rule:evenodd;fill:#F5F5F7;}
	.st29{fill-rule:evenodd;clip-rule:evenodd;fill:#0D8B9E;}
	.st30{fill-rule:evenodd;clip-rule:evenodd;fill:#EEC64A;}
	.st31{fill-rule:evenodd;clip-rule:evenodd;fill:#C3C3C9;}
	.st32{fill-rule:evenodd;clip-rule:evenodd;fill:#EBB688;}
	.st33{fill-rule:evenodd;clip-rule:evenodd;fill:#E0AD7E;}
	.st34{fill-rule:evenodd;clip-rule:evenodd;fill:#5F3C2A;}
	.st35{fill-rule:evenodd;clip-rule:evenodd;fill:#F1F9FB;}
	.st36{fill-rule:evenodd;clip-rule:evenodd;fill:#0A436A;}
	.st37{fill-rule:evenodd;clip-rule:evenodd;fill:#5B3546;}
	.st38{fill-rule:evenodd;clip-rule:evenodd;fill:#394247;}
	.st39{fill-rule:evenodd;clip-rule:evenodd;fill:#2E96B3;}
	.st40{fill-rule:evenodd;clip-rule:evenodd;fill:#DDDEE6;}
	.st41{fill-rule:evenodd;clip-rule:evenodd;fill:#795C69;}
</style>
<text transform="matrix(1 0 0 1 82.2887 169.6055)" class="st0"><tspan x="0" y="0" class="st1 st2 st3">Blockchain </tspan><tspan x="108.1" y="53.7" class="st1 st4 st5">Specilization</tspan></text>
<g>
	<path class="st6" d="M355.3,511.2c4.5,0.2,9.8-0.3,15.1,0.3c12.6,1.3,20.3,8.1,22.8,20.5c1.6,7.5,1.5,15.1-0.2,22.5
		c-2.5,10.9-10,17.6-21.3,19.3c-6.7,1-13.3,0.5-20,0.6c-3.7,0.1-7.3,0-11,0c-0.7,0-1.5,0.1-1.5-1.1c0-1.1,0.7-1.1,1.4-1.1
		c0.5,0,1,0,1.5,0c3-0.1,4.3-1.2,5.2-4.2c0.3-1,0.3-2.1,0.3-3.1c0-14.7,0-29.5,0-44.2c0-1.1,0-2.3-0.3-3.4c-0.7-3-2.1-4.1-5.1-4.2
		c-0.3,0-0.7,0.1-1,0c-0.7-0.2-2,0.6-1.9-1c0.1-1.4,1.2-0.9,1.8-0.9C345.6,511.2,350.1,511.2,355.3,511.2z M356.4,542.6
		c0,7.8,0,15.6,0,23.4c0,3.7,0.6,4.3,4.4,4.3c1.4,0,2.8,0,4.2,0c9.4,0,16.1-5.2,18.4-14.3c2.2-8.7,2.2-17.5,0.2-26.1
		c-1.5-6.8-5.5-11.9-12.5-14c-3.5-1.1-7.2-1.4-10.9-1.2c-3,0.2-3.8,1.1-3.8,4.2C356.4,526.8,356.4,534.7,356.4,542.6z"/>
	<path class="st7" d="M450.2,591.8c-1.1,0-1.8,0-2.5,0c-120.4,0-240.8,0-361.1,0c-1.2,0-3,0.7-2.9-1.7c0-1,0.3-1.6,1.4-1.5
		c0.5,0,1,0,1.5,0c119.5,0,239,0,358.4-0.1C447.3,588.5,448.9,589.3,450.2,591.8z"/>
	<path class="st8" d="M130.6,538.3c0-6.1,0-12.2,0-18.3c0-5.3-1.4-6.7-6.6-6.8c-1,0-1.9,0.1-1.9-1.4c0-1.5,1-1.2,1.9-1.2
		c6.4,0,12.7,0,19.1,0c1,0,1.7,0.1,1.6,1.4c0,1.3-0.7,1.2-1.5,1.2c-5.6,0.3-6.9,1.7-6.9,7.3c0,10.8,0,21.5,0,32.3
		c0,3.2-0.3,6.3-0.8,9.5c-1.2,6.6-5.1,10.8-11.7,12.2c-6.4,1.4-12.8,1.4-19.1-0.1c-6.9-1.6-10.9-6.1-12.3-13c-0.6-3-0.7-6-0.7-9
		c0-10.5,0-21,0-31.5c0-0.9-0.1-1.8-0.2-2.7c-0.7-3.9-2-4.9-5.9-5.1c-0.9,0-2.2,0.7-2.2-1.3c0-1.9,1.3-1.3,2.2-1.3c7,0,14,0,21,0
		c1,0,1.9-0.3,1.9,1.4c0,1.5-0.9,1.3-1.8,1.2c-4.5-0.5-6.6,2-6.6,6.7c0,11.7,0,23.3,0,35c0,1.5,0.2,3.1,0.4,4.6
		c1.1,8.1,6.1,12.4,14.3,12.4c1.8,0,3.6-0.2,5.3-0.5c5.2-1,8.3-4.2,9.6-9.2c0.6-2.2,0.7-4.5,0.7-6.8
		C130.6,549.6,130.6,544,130.6,538.3C130.6,538.3,130.6,538.3,130.6,538.3z M131.3,517.7c-0.1,0-0.1-0.1-0.2-0.1
		c0,13.5,0,26.9,0,40.4c0.1,0,0.1,0,0.2,0C131.3,544.6,131.3,531.1,131.3,517.7z"/>
	<path class="st8" d="M228.3,510c4.1,0,8.1,0.5,12.1,1.2c1.4,0.2,2.1,0.7,2,2.3c-0.2,3.3,0,6.5-0.1,9.8c0,0.6,0.4,1.5-0.9,1.6
		c-1,0-1.4-0.2-1.5-1.3c-0.1-2.2-1.5-3.9-2.9-5.5c-4.6-5.4-15.5-5.9-20.7-1.1c-4.2,4-4.2,9.8,0,13.8c3,2.8,6.8,4.5,10.4,6.3
		c4.3,2.1,8.4,4.2,12.2,7.1c5.3,4.1,7.3,9.4,6.4,15.9c-0.9,6.6-4.9,10.8-11,13.2c-7.4,2.9-15,2.4-22.6,1.3c-6.3-0.9-6.3-0.9-6.6-7.4
		c-0.1-1.8-0.3-3.6-0.3-5.4c0-0.8-0.3-1.8,1.2-1.8c1.1,0,1.5,0.3,1.6,1.5c0.2,2.3,1.7,4,3.3,5.6c5.8,6,18.3,5.4,23.3-0.9
		c3.4-4.3,3.1-10.1-0.7-14c-3.4-3.5-7.9-5.5-12.1-7.7c-3.5-1.8-7.1-3.6-10.2-6.1c-4.9-3.9-6.2-9.2-5.3-15.1c0.9-5.9,4.6-9.5,10-11.5
		C220,510.3,224.2,510,228.3,510z"/>
	<path class="st8" d="M471.7,567.9c2.6,0,5.2-0.1,7.8,0c4.3,0.2,8.5,1.1,10.1,5.8c1.7,4.8,0.4,9.2-3.1,12.8
		c-3.6,3.7-8.2,5.2-13.2,5.7c-5.7,0.6-11.3,0.3-16.3-2.8c-6.2-3.9-6.2-11.5,0-15.4c1.4-0.9,1.8-1.2,0.3-2.6
		c-2.8-2.6-2.5-6.5,0.5-10.6c0.5-0.7,1.4-1.2,0.3-2.4c-4.8-4.8-5-10.7-2.8-16.5c2-5.5,7.1-6.7,12.3-7.1c3.4-0.3,6.9-0.1,10,1.4
		c1,0.5,1.4,0.3,1.8-0.7c0.7-1.6,1.5-3.1,2.4-4.5c1-1.6,2.5-2.8,4.5-3.1c1.8-0.3,3.6-0.1,4.7,1.7c1,1.7,0.9,3.4-0.4,4.7
		c-1.4,1.4-3.1,1.5-5,0.8c-2.5-1-3.4-0.6-4.4,1.6c-0.6,1.2-0.1,1.9,0.6,2.9c2.6,3.6,3.3,7.8,2.5,12.1c-1.2,5.9-5.3,9.4-11.7,9.9
		c-3.4,0.3-6.8,0.4-10.2-0.7c-1-0.3-1.5,0-1.9,0.9c-1.7,3.1-0.2,5.9,3.3,6.1c2.6,0.1,5.2,0,7.8,0
		C471.7,567.8,471.7,567.9,471.7,567.9z M471.4,574.2C471.4,574.2,471.4,574.2,471.4,574.2c-2.4,0-4.9,0-7.3,0c-3.7,0-5.9,2.1-6,5.8
		c-0.1,3.7,2.2,7.3,6.3,8.7c5.6,1.9,11.1,1.2,16.2-1.9c2.4-1.5,4-3.6,4.3-6.5c0.4-3.3-1.8-5.9-5.1-6
		C476.9,574.2,474.1,574.2,471.4,574.2z M477.8,548.8c-0.2-1.6-0.3-3.2-0.6-4.8c-0.9-4.1-3.5-6.4-7.4-6.6c-4.3-0.2-6.8,1.4-7.9,5.3
		c-1.2,4-0.8,8.1,0.8,11.9c1.4,3.2,4.1,4.7,7.7,4.4c3.7-0.3,5.8-2,6.8-5.6C477.5,551.9,477.8,550.4,477.8,548.8z"/>
	<path class="st8" d="M188.6,520.9c0.1,1.5,0.2,3.6,0.3,5.6c0,0.6,0.4,1.4-0.7,1.5c-0.8,0.1-1.6,0.1-1.7-1.1c-0.2-1-0.6-2-1-3
		c-3.2-7.3-9.2-10.7-17.5-10.1c-6.6,0.5-11.5,4.7-13.4,12.3c-2.5,10.1-2.5,20.2,0.8,30.1c3.4,10.3,10.9,15.3,21.7,15
		c3.4-0.1,6.8-0.5,10.1-1.7c0.6-0.2,1.8-1.6,2,0.1c0.1,1.1,1.1,3-1.2,3.6c-2.8,0.8-5.7,1.5-8.6,1.8c-6.5,0.6-13.1,0.9-19.2-1.8
		c-8.6-3.8-13-11-15.1-19.8c-2-8.4-2-17-0.1-25.4c2.4-10.5,9.5-16.8,20.2-17.8c7.3-0.7,14.5,0.3,21.6,2c1.4,0.3,2,1,1.8,2.5
		C188.5,516.6,188.6,518.5,188.6,520.9z"/>
	<path class="st8" d="M300,544.9c2.1-3.6,3.8-6.6,6.9-8.5c3.6-2.2,7.4-2.3,11.3-1c2.8,0.9,4,3.2,4.4,5.9c0.8,4.4,0.4,8.8,0.4,13.2
		c0.1,4.2,0,8.5,0,12.7c0,3.9,1.3,5.2,5.2,5.5c0.8,0.1,1.4,0.1,1.4,1.2c0,1.2-0.8,1-1.5,1c-5.6,0-11.2,0-16.9,0
		c-0.8,0-1.4,0.1-1.4-1.1c0-1.1,0.6-1,1.4-1.1c4-0.3,5-1.4,5-5.5c0-7.5,0-15,0-22.5c0-2.3-0.2-4.5-2.7-5.5c-2.5-1-4.9-0.6-6.8,1.2
		c-4.2,4-6.9,8.8-6.8,14.8c0,4.3,0,8.6,0,13c0,3,1.2,4.3,4.2,4.5c0.7,0.1,1.9-0.6,1.9,1c0,1.6-1.1,1.1-1.9,1.1c-5.3,0-10.6,0-15.9,0
		c-0.8,0-1.7,0.3-1.7-1.1c0-1.3,1-1,1.7-1.1c3.3-0.2,4.5-1.4,4.5-4.7c0-8.2,0-16.3,0-24.5c0-3.4-1-4.6-4.4-5.3
		c-0.6-0.1-1.7,0.3-1.6-0.9c0-1.1,1.1-0.8,1.7-0.9c3.2-0.5,6.4-0.9,9.7-1.4c1.5-0.2,2,0.2,1.9,1.8C299.9,539.3,300,541.7,300,544.9z
		"/>
	<path class="st8" d="M509.8,575.3c-10.3-0.1-16.3-4.7-18.5-12.9c-1.5-5.6-1.4-11.2,0.5-16.6c2.3-6.6,7.1-10.4,14.1-11
		c7.3-0.6,13.6,1.5,17.1,8.3c3.9,7.5,3.8,15.4,0.4,23.1C520.6,572.7,515,575.3,509.8,575.3z M497.8,552.8c-0.1,0-0.1-0.1-0.2-0.1
		c-0.1,0-0.2,0-0.2,0.1c0,1.7,0,3.5,0,5.2c0.1,0,0.1,0,0.2,0c0.1-0.3,0.1-0.6,0.2-0.9c0.6,3,0.8,6.1,1.9,9c1.6,4.1,4.5,6.4,8.3,6.4
		c3.8,0.1,7-2.1,8.5-6.2c2.8-7.7,2.8-15.5-0.2-23.2c-1.7-4.4-5.4-6.4-9.9-5.6c-3.5,0.6-5.4,3.1-6.6,6.2
		C498.5,546.7,498.4,549.8,497.8,552.8z"/>
	<path class="st8" d="M272,569.3c-3.5,4.4-7.7,6.3-12.9,6c-4.6-0.3-8.3-3.2-9.3-7.4c-1-4.1,1.1-9.1,4.8-11.2
		c4.5-2.6,9.5-3.3,14.6-3.5c2.2-0.1,2.8-0.8,2.6-2.9c-0.2-2.1,0-4.2-0.1-6.4c0-2.5-1-4.7-3.3-5.8c-2.6-1.2-5.3-1.1-7.8,0.2
		c-1.4,0.7-1.6,2.3-1.6,3.9c0,2-0.7,3.6-2.7,4.2c-1.6,0.6-3.2,0.3-4.5-1.1c-1.3-1.5-1.1-3.2-0.3-4.8c1.2-2.3,3.3-3.6,5.6-4.4
		c4.1-1.5,8.4-1.9,12.7-1c5.6,1.1,8.6,4.6,8.7,10.4c0.1,7.8,0,15.7,0,23.5c0,3.6,0.8,4.4,4.4,4.2c0.6,0,1.3-0.7,1.6,0.4
		c0.2,1-0.5,1.2-1.3,1.3c-2.3,0.5-4.5,0.6-6.8,0.3C273.5,574.8,272.4,572.6,272,569.3z M272.2,556.2c-4.7-0.8-9.1,0-12.8,3.1
		c-3.2,2.8-3,8.2,0.2,11.1c2.7,2.4,7.2,1.6,9.9-1.8c1.3-1.7,1.9-3.7,2.7-5.7c0.1,0.2,0.1,0.3,0.2,0.4c0,0,0.1,0.1,0.2,0.1
		C272.7,561,273.2,558.6,272.2,556.2z"/>
	<path class="st8" d="M448.2,571.4c0.6,1.8,0,2.6-1.8,3c-5.4,1.2-10.8,1.4-16.2-0.1c-8.2-2.4-11.7-8.7-12.5-16.6
		c-0.6-5.7-0.4-11.4,2.8-16.6c1.2-1.9,2.8-3.4,4.8-4.4c6.6-3.5,16-2.5,20.5,2.2c2.9,3.1,3.5,6.8,3.3,10.9c-0.1,1.6-1.1,1.1-1.9,1.1
		c-6.6,0-13.2,0-19.8,0c-2.8,0-3.2,0.3-2.8,3C426.4,566,433.8,575.2,448.2,571.4z M432.7,547.4C432.7,547.4,432.7,547.4,432.7,547.4
		c2.4,0,4.9,0,7.3,0c0.7,0,1.3,0.2,1.5-1c0.6-4.4-2.9-8.8-7.3-9c-4.7-0.2-9.4,4.1-9.7,8.9c-0.1,1.2,0.6,1.1,1.3,1.1
		C428.1,547.4,430.4,547.4,432.7,547.4z"/>
	<path class="st6" d="M410.8,552c0,4.9,0,9.8,0,14.7c0,4.3,1.1,5.6,5.4,6c0.7,0.1,1.2,0.1,1.2,1c0,1.1-0.6,1.1-1.4,1.1
		c-5.7,0-11.4,0-17.1,0c-0.7,0-1.5,0.2-1.5-1c0-1.4,0.9-1.1,1.6-1.1c3.7-0.2,5-1.6,5-5.3c0-7.8,0-15.6,0-23.5c0-3.8-1-5.1-4.8-5.6
		c-0.7-0.1-1.8,0.5-1.8-1c0.1-1.4,1.2-0.8,1.8-0.9c3.2-0.5,6.5-0.9,9.6-1.5c1.5-0.3,1.8,0.1,1.8,1.5
		C410.8,541.6,410.8,546.8,410.8,552C410.8,552,410.8,552,410.8,552z"/>
	<path class="st7" d="M489.4,591.5c1.4-2,3-2.6,5.2-2.6c9.7,0.1,19.4,0.1,29.1,0c1,0,1.8-0.1,1.8,1.3c0,1.2-0.4,1.6-1.5,1.6
		c-11.2,0-22.5,0-33.7,0C490,591.8,489.8,591.7,489.4,591.5z"/>
	<path class="st8" d="M407.2,526.8c-2.6-0.1-4.8-2.4-4.7-4.9c0.1-2.6,2.4-4.8,5-4.7c2.7,0.1,4.8,2.3,4.7,4.9
		C412.1,524.6,409.8,526.8,407.2,526.8z"/>
	<path class="st9" d="M131.3,517.7c0,13.4,0,26.8,0,40.3c-0.1,0-0.1,0-0.2,0c0-13.5,0-26.9,0-40.4
		C131.2,517.6,131.3,517.7,131.3,517.7z"/>
	<path class="st9" d="M497.8,552.8c0,1.4,0,2.8,0,4.3c-0.1,0.3-0.1,0.6-0.2,0.9c-0.1,0-0.1,0-0.2,0c0-1.7,0-3.5,0-5.2
		c0,0,0.1-0.1,0.2-0.1C497.6,552.7,497.7,552.8,497.8,552.8z"/>
	<path class="st9" d="M272.2,562.9c0-2.2,0-4.5,0-6.7c1,2.4,0.5,4.8,0.3,7.3c-0.1,0-0.2,0-0.2-0.1
		C272.3,563.2,272.3,563.1,272.2,562.9z"/>
</g>
<g>
	<path class="st10" d="M126.9,88.3h-26.3l-4.1,15.2h-9l16.8-65.1h18.7l16.8,65.1h-9L126.9,88.3z M102.5,80.3H125l-8.8-34.1h-4.9
		L102.5,80.3z"/>
	<path class="st10" d="M149.1,36.2h8.8v67.3h-8.8V36.2z"/>
	<path class="st10" d="M173.4,122.5c-3.2-2.1-4.8-5.5-4.8-10.3c0-2.7,0.5-4.9,1.6-6.5c1-1.6,2.9-3.5,5.7-5.6c-1-0.7-1.8-1.6-2.2-2.7
		s-0.7-2.3-0.7-3.6c0-0.9,0.2-1.8,0.6-2.8c0.4-1,1.3-2.7,2.8-5.2c-4.8-2.5-7.2-7.2-7.2-14.1c0-11,6.1-16.5,18.4-16.5
		c2.9,0,6.1,0.4,9.6,1.2l14.4-0.4v7.3l-8.4-0.3c1,1.1,1.7,2.4,2.2,3.7c0.4,1.4,0.7,3.1,0.7,5.3c0,5.6-1.5,9.6-4.5,12.1
		c-3,2.4-7.7,3.6-14,3.6c-1.9,0-3.4-0.1-4.6-0.4c-1,2.4-1.5,4.1-1.5,5.2c0,1.5,0.6,2.5,1.8,2.9c1.2,0.4,3.1,0.7,5.7,0.7h3.3
		c4.4,0.1,7.9,0.4,10.6,1c2.6,0.6,4.7,1.9,6.1,3.8c1.4,1.9,2.2,4.7,2.2,8.4c0,5.5-1.8,9.6-5.3,12.2c-3.6,2.6-9.3,3.9-17.3,3.9
		C181.6,125.6,176.6,124.6,173.4,122.5z M199.3,116.5c1.9-1.2,2.9-3.3,2.9-6.3c0-1.8-0.4-3.1-1.1-3.9c-0.7-0.9-1.8-1.4-3.3-1.7
		c-1.5-0.3-3.6-0.5-6.4-0.5l-9.6-0.6c-1.7,1.3-2.9,2.5-3.5,3.6c-0.6,1.1-0.9,2.4-0.9,3.9c0,2.7,0.9,4.6,2.7,5.7
		c1.8,1.1,4.9,1.7,9.3,1.7C194.1,118.3,197.4,117.7,199.3,116.5z M195,78.8c1.5-1.5,2.2-3.8,2.2-7.2c0-3.3-0.8-5.6-2.3-7.1
		c-1.5-1.5-3.9-2.2-7.3-2.2c-3.4,0-5.9,0.7-7.4,2.2c-1.5,1.5-2.3,3.9-2.3,7.1c0,3.3,0.8,5.6,2.3,7.1c1.5,1.5,4,2.2,7.4,2.2
		C191.1,81,193.6,80.2,195,78.8z"/>
	<path class="st10" d="M222.6,98.7c-3.2-3.9-4.8-10.1-4.8-18.6c0-8.6,1.6-14.9,4.9-18.9c3.3-4,8.5-6,15.8-6c7.3,0,12.6,2,15.8,6
		c3.2,4,4.9,10.3,4.9,18.9c0,8.4-1.6,14.6-4.8,18.5c-3.2,4-8.5,6-15.9,6C231.1,104.6,225.8,102.6,222.6,98.7z M245.6,95.3
		c1.7-1.1,2.9-2.8,3.5-5.2c0.7-2.4,1-5.7,1-10c0-4.5-0.4-7.9-1.1-10.4c-0.7-2.5-1.9-4.2-3.6-5.2c-1.7-1-4-1.6-7-1.6
		c-3,0-5.3,0.5-7,1.6c-1.7,1-2.9,2.8-3.6,5.3c-0.7,2.5-1.1,5.9-1.1,10.4c0,4.2,0.3,7.6,1,10c0.7,2.4,1.9,4.2,3.6,5.3
		c1.7,1.1,4.1,1.6,7.1,1.6C241.5,96.9,243.9,96.4,245.6,95.3z"/>
	<path class="st10" d="M270,56.3h8.7v6c5.6-3.6,11.2-5.9,16.6-7v8.9c-2.5,0.5-5,1.2-7.7,2.1c-2.6,0.9-4.9,1.7-6.6,2.6l-2.3,1v33.8
		H270V56.3z"/>
	<path class="st10" d="M303.5,37.4h8.7V47h-8.7V37.4z M303.5,56.3h8.8v47.3h-8.8V56.3z"/>
	<path class="st10" d="M331.5,103c-1.9-1.1-3.2-2.9-4-5.4c-0.8-2.5-1.2-6-1.2-10.5V63.8H320v-7.6h6.3V42.2h8.8v14.1H349v7.6h-13.9
		v21.7c0,3,0.1,5.2,0.3,6.7c0.2,1.5,0.7,2.6,1.6,3.4c0.8,0.8,2.1,1.2,4,1.2l8-0.5l0.6,7.2c-4.4,0.8-7.8,1.1-10.2,1.1
		C336,104.6,333.4,104.1,331.5,103z"/>
	<path class="st10" d="M357.6,36.2h8.8v22.6c2.7-1.3,5.2-2.2,7.4-2.7c2.2-0.6,4.5-0.9,6.8-0.9c4,0,7.2,0.8,9.5,2.3
		c2.3,1.5,3.9,4,4.8,7.3c0.9,3.3,1.4,7.9,1.4,13.5v25.2h-8.8v-25c0-4.1-0.3-7.2-0.8-9.4c-0.5-2.1-1.4-3.7-2.8-4.6
		c-1.4-0.9-3.3-1.4-5.9-1.4c-3.2,0-6.6,0.6-10,1.8l-1.6,0.6v38h-8.8V36.2z"/>
	<path class="st10" d="M408.9,56.3h8.7v3.1c2.4-1.4,4.7-2.4,6.8-3.1c2.1-0.7,4.4-1,6.6-1c2.5,0,4.7,0.4,6.8,1.2
		c2.1,0.8,3.7,2,4.9,3.5c2.5-1.4,5.3-2.5,8.3-3.4c3-0.9,6-1.3,9.1-1.3c3.9,0,7,0.8,9.2,2.4c2.2,1.6,3.8,4,4.7,7.4
		c0.9,3.3,1.4,7.8,1.4,13.4v25.2h-8.8v-25c0-4-0.2-7-0.7-9.2c-0.5-2.2-1.3-3.8-2.6-4.7c-1.2-1-3-1.5-5.4-1.5c-1.8,0-3.6,0.2-5.5,0.6
		c-1.9,0.4-3.6,0.9-5,1.6l-1.7,0.8c0.7,2.7,1,7,1,12.9v24.6h-8.9V79.2c0-4.2-0.2-7.5-0.7-9.7c-0.4-2.2-1.3-3.8-2.5-4.8
		c-1.2-1-3-1.5-5.4-1.5c-1.8,0-3.6,0.2-5.4,0.7c-1.9,0.4-3.4,0.9-4.7,1.5l-1.5,0.8v37.5h-8.8V56.3z"/>
	<path class="st10" d="M489.1,103.1l-2.8-0.5l0.4-7.6c7.6,1.1,13.1,1.6,16.4,1.6c3.3,0,5.9-0.5,7.6-1.5c1.7-1,2.6-2.6,2.6-4.9
		c0-1.6-0.4-2.9-1.3-3.7c-0.9-0.9-1.9-1.5-3.3-1.9c-1.3-0.4-3.2-0.8-5.7-1.2l-2.3-0.4c-3.6-0.6-6.4-1.3-8.6-2.2
		c-2.1-0.9-3.7-2.2-4.9-3.9c-1.1-1.7-1.7-4-1.7-7c0-9.8,6-14.7,18-14.7c3.8,0,8.5,0.5,14.2,1.4l2.7,0.6l-0.2,7.4
		c-7.1-1-12.5-1.5-16.3-1.5c-6.4,0-9.6,2-9.6,5.9c0,1.5,0.4,2.6,1.2,3.4c0.8,0.8,1.9,1.4,3.2,1.8c1.3,0.4,3.1,0.8,5.5,1.2
		c0.4,0.1,1.3,0.2,2.6,0.5c3.7,0.7,6.6,1.5,8.8,2.4c2.1,0.9,3.7,2.3,4.7,4c1,1.8,1.6,4.2,1.6,7.2c0,5.2-1.5,9.1-4.5,11.5
		c-3,2.4-7.7,3.6-14,3.6C499.7,104.6,494.9,104.1,489.1,103.1z"/>
	<path class="st10" d="M193.6,158.1l-1.6-0.2l0.2-1.6c4.2,0.5,7.4,0.8,9.5,0.8c5.4,0,8-2.6,8-7.9c0-1.5-0.2-2.6-0.6-3.4
		c-0.4-0.8-1.1-1.4-2.3-1.9c-1.1-0.5-2.8-0.9-5.1-1.3c-2.6-0.4-4.6-0.9-5.9-1.5c-1.4-0.6-2.4-1.4-3-2.5c-0.7-1.1-1-2.7-1-4.7
		c0-2.7,0.8-4.7,2.4-6c1.6-1.3,4.1-2,7.5-2c2.7,0,5.7,0.2,9.1,0.7l-0.2,1.6c-4.6-0.5-7.6-0.8-8.9-0.8c-5.4,0-8.1,2.1-8.1,6.4
		c0,1.7,0.2,3,0.5,3.8c0.3,0.8,1.1,1.4,2.3,1.9c1.2,0.5,3.1,1,5.8,1.5c2.3,0.4,4.1,0.9,5.4,1.4c1.3,0.6,2.3,1.4,2.9,2.4
		s0.9,2.5,0.9,4.2c0,3.3-0.8,5.7-2.3,7.3c-1.5,1.6-4,2.3-7.3,2.3C200.1,158.6,197.4,158.4,193.6,158.1z"/>
	<path class="st10" d="M217.5,135.5h1.6v1.9c2.6-1.6,5.2-2.3,7.9-2.3c2.8,0,4.8,0.9,6,2.7c1.2,1.8,1.8,4.7,1.8,8.7
		c0,2.9-0.3,5.2-1,7c-0.6,1.8-1.7,3.1-3.1,3.9c-1.5,0.9-3.4,1.3-5.9,1.3c-1.9,0-3.8-0.2-5.7-0.6v10.7h-1.6V135.5z M231.4,154.8
		c1.2-1.7,1.8-4.3,1.8-8c0-3.6-0.5-6.3-1.5-7.8c-1-1.6-2.5-2.4-4.5-2.4c-1.2,0-2.4,0.2-3.7,0.6s-2.4,0.8-3.2,1.2l-1.1,0.6v17.6
		c1.2,0.2,2.4,0.3,3.5,0.5c1.1,0.1,2,0.2,2.7,0.2C228.1,157.3,230.2,156.5,231.4,154.8z"/>
	<path class="st10" d="M242.2,156c-1.4-1.8-2.1-4.6-2.1-8.5c0-4.3,0.7-7.4,2.2-9.4c1.5-2,3.8-3,7-3c2.9,0,5.1,0.9,6.5,2.6
		c1.4,1.8,2.1,4.5,2.1,8.3v1.5h-16.1c0,2.4,0.2,4.3,0.7,5.7c0.5,1.4,1.3,2.4,2.5,3.1c1.2,0.7,2.8,1,4.9,1c0.8,0,1.7,0,2.8-0.1
		c1.1-0.1,2.1-0.1,3.1-0.2l1.4-0.1l0.1,1.5c-3.7,0.2-6.3,0.4-7.8,0.4C245.9,158.7,243.6,157.8,242.2,156z M256.2,146.1
		c0-3.4-0.5-5.8-1.6-7.3c-1.1-1.5-2.8-2.2-5.2-2.2c-2.5,0-4.4,0.8-5.7,2.3c-1.3,1.6-1.9,4-2,7.2H256.2z"/>
	<path class="st10" d="M266.6,157.5c-1.3-0.8-2.2-2.1-2.7-3.8c-0.5-1.7-0.8-4-0.8-7c0-2.1,0.1-4,0.4-5.6c0.3-1.6,1-3,2.3-4.3
		c1.2-1.2,3.1-1.9,5.6-1.9c1,0,1.9,0,2.8,0.1c0.9,0.1,2.1,0.2,3.7,0.5l-0.1,1.4c-2.3-0.3-4.2-0.5-5.6-0.5c-1.9,0-3.4,0.3-4.5,1
		c-1.1,0.6-1.8,1.7-2.3,3.2c-0.5,1.5-0.7,3.6-0.7,6.4c0,2.6,0.2,4.6,0.6,6c0.4,1.4,1.2,2.5,2.3,3.2c1.1,0.7,2.7,1,4.8,1l5.4-0.5
		l0.1,1.5c-2.8,0.3-4.8,0.5-5.9,0.5C269.7,158.7,267.9,158.3,266.6,157.5z"/>
	<path class="st10" d="M283.5,126.4h1.6v2.5h-1.6V126.4z M283.5,135.5h1.6v22.8h-1.6V135.5z"/>
	<path class="st10" d="M292.5,125h1.6v33.3h-1.6V125z"/>
	<path class="st10" d="M301.5,126.4h1.6v2.5h-1.6V126.4z M301.6,135.5h1.6v22.8h-1.6V135.5z"/>
	<path class="st10" d="M308.6,156.8l14.9-19.9h-14.9v-1.5h16.9v1.5l-14.9,19.9h14.9v1.5h-16.9V156.8z"/>
	<path class="st10" d="M331.2,157c-1-1.2-1.6-2.8-1.6-4.8c0-2,0.5-3.6,1.5-4.7c1-1.1,2.6-1.8,4.8-2.1l8.7-0.9v-2.3
		c0-1.9-0.4-3.3-1.2-4.2c-0.8-0.9-1.9-1.4-3.2-1.4c-1.3,0-2.5,0-3.5,0.1c-1,0.1-2.9,0.3-5.7,0.6l-0.1-1.5c3.2-0.5,6-0.8,8.6-0.8
		c2.3,0,4.1,0.6,5.2,1.8c1.1,1.2,1.7,3,1.7,5.4v13.1c0,0.5,0.3,0.9,1,1.2c0.6,0.3,1.4,0.6,2.4,0.7l-0.1,1.4c-1,0-1.9-0.2-2.8-0.5
		c-0.9-0.4-1.5-0.9-1.9-1.5c-3,1.3-6.1,2-9.2,2C333.7,158.7,332.2,158.1,331.2,157z M343.3,155.8l1.3-0.5v-9.3l-8.5,0.8
		c-1.7,0.1-2.9,0.6-3.6,1.4c-0.7,0.8-1.1,2-1.1,3.6c0,3.5,1.4,5.3,4.3,5.3C338.3,157.2,340.9,156.7,343.3,155.8z"/>
	<path class="st10" d="M357.2,158c-0.8-0.5-1.4-1.3-1.7-2.4c-0.3-1.2-0.5-2.8-0.5-5V137h-3.6v-1.5h3.6v-7.4h1.6v7.4h8.3v1.5h-8.3
		v11.9c0,2.3,0.1,4,0.3,5.1c0.2,1.1,0.5,1.9,1.1,2.5c0.6,0.5,1.5,0.8,2.8,0.8l4.4-0.4l0.2,1.5c-2.5,0.2-4.1,0.4-4.9,0.4
		C359.1,158.7,358,158.5,357.2,158z"/>
	<path class="st10" d="M369.1,126.4h1.6v2.5h-1.6V126.4z M369.2,135.5h1.6v22.8h-1.6V135.5z"/>
	<path class="st10" d="M380.2,157.6c-1.3-0.7-2.2-1.9-2.7-3.5c-0.5-1.6-0.8-3.9-0.8-7c0-3.2,0.3-5.6,0.8-7.3
		c0.5-1.7,1.5-2.9,2.8-3.7c1.3-0.7,3.2-1.1,5.7-1.1c2.5,0,4.4,0.4,5.7,1.1c1.3,0.7,2.2,2,2.8,3.7c0.5,1.7,0.8,4.1,0.8,7.3
		c0,3-0.2,5.3-0.7,6.9c-0.5,1.6-1.4,2.8-2.7,3.5c-1.3,0.7-3.3,1.1-5.8,1.1S381.5,158.3,380.2,157.6z M390.8,156.3
		c1-0.6,1.8-1.6,2.1-3c0.4-1.4,0.5-3.4,0.5-6.1c0-2.9-0.2-5.1-0.6-6.5c-0.4-1.5-1.1-2.5-2.2-3.1c-1-0.6-2.6-0.9-4.7-0.9
		c-2.1,0-3.7,0.3-4.8,0.9c-1.1,0.6-1.8,1.7-2.2,3.1c-0.4,1.5-0.6,3.7-0.6,6.5c0,2.6,0.2,4.7,0.6,6.1c0.4,1.4,1.1,2.4,2.2,3
		c1.1,0.6,2.7,0.9,4.9,0.9C388.2,157.2,389.8,156.9,390.8,156.3z"/>
	<path class="st10" d="M401.5,135.5h1.6v1.8c1.6-0.8,3-1.4,4.3-1.7c1.3-0.3,2.6-0.5,4-0.5c2,0,3.5,0.3,4.5,1c1,0.7,1.7,1.8,2.1,3.4
		c0.4,1.6,0.6,3.9,0.6,7v11.8H417v-11.8c0-2.6-0.1-4.6-0.4-6c-0.3-1.4-0.8-2.4-1.6-3c-0.8-0.6-1.9-0.9-3.4-0.9
		c-1.4,0-2.8,0.2-4.2,0.5c-1.4,0.4-2.5,0.7-3.2,1.1l-1.1,0.6v19.5h-1.6V135.5z"/>
</g>
<g class="st11">
	<path class="st12" d="M304,217.3c64,0,115.9,51.9,115.9,115.9c0,64-51.9,115.9-115.9,115.9c-64,0-115.9-51.9-115.9-115.9
		C188.1,269.2,240,217.3,304,217.3z"/>
	<g>
		<path class="st13" d="M233.4,258.3v-57.6c0-1.8-1.7-3.2-3.9-3.2H187c-2.1,0-3.9,1.5-3.9,3.2v57.6c0,1.8,1.7,3.2,3.9,3.2h42.5
			C231.6,261.5,233.4,260,233.4,258.3z"/>
		<g>
			<g>
				<polygon class="st14" points="208.3,206.6 235.9,206.6 243,213.7 243,251.8 208.3,251.8 				"/>
				<polygon class="st15" points="235.9,213.7 243,220.8 243,213.7 239.5,210.2 				"/>
				<polygon class="st16" points="235.9,206.6 243,213.7 235.9,213.7 				"/>
			</g>
			<rect x="213.3" y="217.5" class="st17" width="24.5" height="13.8"/>
		</g>
		<g>
			<path class="st16" d="M232,258.3v-57.6c0-1.8-1.7-3.2-3.8-3.2H187c-2.1,0-3.9,1.5-3.9,3.2v57.6c0,1.8,1.7,3.2,3.9,3.2h41.1
				C230.2,261.5,232,260,232,258.3z"/>
			<path class="st18" d="M232,258.2v-57.4c0-1.8-1.7-3.3-3.8-3.3h-8.4c-6.1,6.1-10.3,18-10.3,31.8c0,14.1,4.4,26.4,10.8,32.3h7.9
				C230.2,261.5,232,260,232,258.2z"/>
		</g>
		<g>
			<polygon class="st19" points="190.4,230 191.9,233.8 197.5,232.4 195.7,227.9 190.3,222 190.3,222 			"/>
			<polygon class="st20" points="190.4,230 190.3,224.6 190.3,222 191.7,229.4 192.5,231.4 191.1,231.8 			"/>
			<polygon class="st21" points="195.7,227.9 192,223.9 190.3,222 194.3,228.4 195.1,230.3 196.4,229.7 			"/>
			<path class="st22" d="M190.4,230c0.4,0.7,1.5,0.3,1.3-0.5l20.5,51.7l-1.3,0.5L190.4,230z"/>
			<path class="st23" d="M191.7,229.4L191.7,229.4c0.6,0.8,2.7,0.2,2.7-1l20.5,51.7l-1.3,0.5l-1.3,0.5L191.7,229.4z"/>
			<path class="st22" d="M194.4,228.4c0.4,0.7,1.5,0.3,1.3-0.5l20.4,51.7l-1.3,0.5L194.4,228.4z"/>
			<polygon class="st22" points="192,223.9 190.3,222 190.3,222 190.3,224.6 			"/>
			
				<rect x="209.6" y="277.5" transform="matrix(0.9299 -0.3679 0.3679 0.9299 -87.5911 97.1646)" class="st20" width="2.8" height="1.6"/>
			<rect x="210.9" y="277" transform="matrix(0.93 -0.3677 0.3677 0.93 -87.2594 97.5382)" class="st24" width="2.8" height="1.6"/>
			
				<rect x="213.6" y="276.2" transform="matrix(0.9299 -0.3678 0.3678 0.9299 -86.8543 98.2512)" class="st21" width="1.4" height="1.6"/>
		</g>
	</g>
	<g>
		<g>
			<path class="st25" d="M238.9,260.2c0.5,0.2,0.1,1.1-0.5,1c0,0-0.1,0-0.1,0l-0.1-0.1l-0.2-0.1l-0.2-0.1l-0.2-0.1l-0.2-0.1
				l-0.2-0.1l-0.2-0.1l-0.2-0.1l-0.2-0.1l-0.2-0.1l-0.2-0.1l-0.2-0.1l-0.2-0.1l-0.2-0.1l-0.2-0.1l-0.2-0.1l-0.2-0.1l-0.2-0.1
				l-0.2-0.1l-0.2-0.1l-0.1-0.1c-0.5-0.2-0.2-1,0.4-1c0.1,0,0.1,0,0.2,0l0.1,0.1l0.2,0.1l0.2,0.1l0.2,0.1l0.2,0.1l0.2,0.1l0.2,0.1
				l0.2,0.1l0.2,0.1l0.2,0.1l0.2,0.1l0.2,0.1l0.2,0.1l0.2,0.1l0.2,0.1l0.2,0.1l0.2,0.1l0.2,0.1l0.2,0.1l0.2,0.1L238.9,260.2z"/>
			<path class="st25" d="M245.5,264c0.5,0.3-0.1,1.1-0.6,0.9c0,0-0.1,0-0.1,0l0,0l-0.2-0.1l-0.2-0.1l-0.2-0.1l-0.2-0.1l-0.2-0.1
				l-0.2-0.1l-0.2-0.1l-0.2-0.1l-0.2-0.1l-0.2-0.1l-0.2-0.1l-0.2-0.1l-0.2-0.1l-0.2-0.1l-0.2-0.1l-0.2-0.1l-0.2-0.1l-0.2-0.1
				l-0.2-0.1l-0.2-0.1l0,0c-0.5-0.2-0.1-1,0.5-1c0.1,0,0.1,0,0.1,0l0,0l0.2,0.1l0.2,0.1l0.2,0.1l0.2,0.1l0.2,0.1l0.2,0.1l0.2,0.1
				l0.2,0.1l0.2,0.1l0.2,0.1l0.2,0.1l0.2,0.1l0.2,0.1l0.2,0.1l0.2,0.1l0.2,0.1l0.2,0.1l0.2,0.1l0.2,0.1L245.5,264L245.5,264z"/>
			<path class="st25" d="M251.3,268.7c0.4,0.4-0.4,1.2-0.8,0.8l-0.1-0.1l-0.2-0.2l-0.2-0.1l-0.2-0.2l-0.2-0.1l-0.2-0.1l-0.2-0.1
				l-0.2-0.1l-0.2-0.1l-0.2-0.1l-0.2-0.1l-0.2-0.1l-0.2-0.1l-0.2-0.1l-0.2-0.1l-0.2-0.1l-0.2-0.1l-0.2-0.1l-0.2-0.1l-0.2-0.1
				l-0.2-0.1l-0.1,0c-0.1-0.1-0.2-0.3-0.1-0.5c0.1-0.4,0.6-0.6,0.9-0.4l0.1,0l0.2,0.1l0.2,0.1l0.2,0.1l0.2,0.1l0.2,0.1l0.2,0.1
				l0.2,0.1l0.2,0.1l0.2,0.1l0.2,0.1l0.2,0.1l0.2,0.1l0.2,0.1l0.2,0.1l0.2,0.1l0.2,0.2l0.2,0.2l0.2,0.2l0.2,0.2L251.3,268.7
				L251.3,268.7z"/>
			<path class="st25" d="M256.2,274.4c0.3,0.5-0.4,1.1-0.8,0.8c0,0,0,0-0.1-0.1l-0.1-0.2l-0.1-0.2l-0.1-0.2l-0.1-0.2l-0.1-0.2
				l-0.1-0.2l-0.1-0.2l-0.1-0.2l-0.1-0.2l-0.1-0.2l-0.1-0.2l-0.1-0.2l-0.1-0.2l-0.1-0.2l-0.1-0.2l-0.1-0.2l-0.1-0.2l-0.1-0.2
				l-0.1-0.2l-0.1-0.2l-0.1-0.2l-0.1-0.1c-0.4-0.4,0.3-1.1,0.8-0.8c0,0,0,0,0,0l0.1,0.1l0.1,0.2l0.1,0.2l0.1,0.2l0.1,0.2l0.1,0.2
				l0.1,0.2l0.1,0.2l0.1,0.2l0.1,0.2l0.1,0.2l0.1,0.2l0.1,0.2l0.1,0.2l0.1,0.2l0.1,0.2l0.1,0.2l0.1,0.2l0.1,0.2l0.1,0.2l0.1,0.2
				L256.2,274.4z"/>
			<path class="st25" d="M259.8,281c0.2,0.5-0.6,1.1-1,0.6l0,0l0-0.1l-0.1-0.2l-0.1-0.2l-0.1-0.2l-0.1-0.2l-0.1-0.2l-0.1-0.2
				l-0.1-0.2l-0.1-0.2l-0.1-0.2l-0.1-0.2l-0.1-0.2l-0.1-0.2l-0.1-0.2l-0.1-0.2l-0.1-0.2l-0.1-0.2l-0.1-0.2l-0.1-0.2l-0.1-0.2
				l-0.1-0.2l-0.1-0.2l-0.1-0.2c-0.1-0.1-0.1-0.2,0-0.3c0.1-0.5,0.8-0.7,1-0.3l0.1,0.2l0.1,0.2l0.1,0.2l0.1,0.2l0.1,0.2l0.1,0.2
				l0.1,0.2l0.1,0.2l0.1,0.2l0.1,0.2l0.1,0.2l0.1,0.2l0.1,0.2l0.1,0.2l0.1,0.2l0.1,0.2l0.1,0.2l0.1,0.2l0.1,0.2l0.1,0.2l0.1,0.2
				l0.1,0.2L259.8,281z"/>
			<path class="st25" d="M261.8,288.5c0,0.2-0.1,0.4-0.3,0.5c-0.3,0.2-0.7,0.1-0.8-0.2l0-0.1l0-0.2l0-0.2l0-0.2l0-0.2l0-0.2l0-0.2
				l0-0.2l0-0.2l0-0.2l0-0.2l0-0.2l0-0.2l0-0.2l0-0.2l0-0.2l0-0.2l-0.1-0.2l-0.1-0.2l-0.1-0.2l-0.1-0.2l-0.1-0.2l-0.1-0.2l0-0.1
				c-0.1-0.2,0-0.4,0.2-0.6c0.3-0.2,0.7-0.2,0.8,0.1l0,0.2l0.1,0.2l0.1,0.2l0.1,0.2l0.1,0.2l0.1,0.2l0.1,0.2l0.1,0.2l0,0.2l0,0.2
				l0,0.2l0,0.2l0,0.2l0,0.2l0,0.2l0,0.2l0,0.2l0,0.2l0,0.2l0,0.2l0,0.2l0,0.2L261.8,288.5L261.8,288.5z"/>
			<path class="st25" d="M261.9,295.1c-0.1,0.6-0.9,0.8-1,0.2c0,0,0-0.1,0-0.1l0-0.2l0-0.2l0-0.2l0-0.2l0-0.2l0-0.2l0-0.2l0-0.2
				l0-0.2l0-0.2l0-0.2l0-0.2l0-0.2l0-0.2l0-0.2l0-0.2l0-0.1c0-0.1,0-0.2,0.1-0.4c0.3-0.4,0.9-0.3,0.9,0.1l0,0.1l0,0.2l0,0.2l0,0.2
				l0,0.2l0,0.2l0,0.2l0,0.2l0,0.2l0,0.2l0,0.2l0,0.2l0,0.2l0,0.2l0,0.2l0,0.2L261.9,295.1z"/>
			<path class="st25" d="M226.6,257c-0.6-0.1-0.3-1,0.3-1c0,0,0.1,0,0.1,0l0.2,0.1l0.2,0.1l0.2,0.1l0.2,0.1l0.2,0.1l0.2,0.1l0.2,0.1
				l0.2,0.1l0.2,0.1l0.2,0.1l0.2,0.1l0.2,0.1l0.2,0.1l0.2,0.1l0.2,0.1l0.2,0.1l0.2,0.1l0.2,0.1l0.2,0.1l0.2,0.1l0.1,0
				c0.2,0.1,0.3,0.3,0.3,0.5c-0.1,0.3-0.4,0.6-0.8,0.5l-0.1,0l-0.2-0.1l-0.2-0.1l-0.2-0.1l-0.2-0.1l-0.2-0.1l-0.2-0.1l-0.2-0.1
				l-0.2-0.1l-0.2-0.1l-0.2-0.1l-0.2-0.1l-0.2-0.1l-0.2-0.1l-0.2-0.1l-0.2-0.1l-0.2-0.1l-0.2-0.1l-0.2-0.1l-0.2-0.1L226.6,257z"/>
		</g>
		<path class="st25" d="M224,256.4c-0.1-1.1,0.8-2.2,1.9-2.3c1.2-0.1,2.2,0.7,2.2,1.8c0.1,1.1-0.8,2.2-1.9,2.3
			C225.1,258.4,224.1,257.5,224,256.4z"/>
	</g>
	<path class="st12" d="M314.8,428.7c10.3,7.3,12.7,21.6,5.4,31.9c-7.3,10.3-21.6,12.7-31.9,5.4c-10.3-7.3-12.7-21.6-5.4-31.9
		C290.2,423.8,304.5,421.4,314.8,428.7z"/>
	<g>
		<path class="st26" d="M279.2,446.2c-5.5-9.4-2.2-21.6,7.2-27c9.4-5.5,21.6-2.2,27,7.2c5.5,9.4,2.2,21.6-7.2,27
			C296.8,458.9,284.6,455.6,279.2,446.2L279.2,446.2z M281.5,444.8c4.7,8.2,15.1,10.9,23.3,6.2c8.2-4.7,10.9-15.1,6.2-23.3
			c-4.7-8.2-15.1-10.9-23.3-6.2C279.6,426.2,276.8,436.7,281.5,444.8z"/>
		<path class="st26" d="M284.5,436.4c-0.9-1-0.8-2.5,0.2-3.4c1-0.9,2.5-0.8,3.4,0.2l7.2,5.2l10.2-8.7c0.9-1,2.4-1.1,3.4-0.2
			c1,0.9,1.1,2.4,0.2,3.4c-4,4.5-8,9-12,13.4c-0.5,0.5-1.1,0.8-1.7,0.8h0l-0.1,0h0h-0.1h0l-0.1,0h0c-0.6,0-1.2-0.3-1.7-0.8
			L284.5,436.4z"/>
	</g>
	<path class="st12" d="M367.8,212.4c6.1,4.4,7.5,12.9,3.2,19c-4.4,6.1-12.9,7.5-19,3.2c-6.1-4.4-7.5-12.9-3.2-19
		C353.2,209.5,361.7,208,367.8,212.4z"/>
	<g>
		<g>
			<path class="st27" d="M239.8,277.7h106.7c2.2,0,4.1,1.8,4.1,4.1v75.3c0,2.2-1.8,4.1-4.1,4.1H239.8c-2.2,0-4.1-1.8-4.1-4.1v-75.3
				C235.7,279.5,237.5,277.7,239.8,277.7z"/>
			<path class="st28" d="M239.8,279.2h106.7c1.4,0,2.6,1.2,2.6,2.6v70.5H237.2v-70.5C237.2,280.4,238.4,279.2,239.8,279.2z"/>
			<rect x="241.5" y="284.4" class="st16" width="103.1" height="63"/>
			<rect x="241.5" y="284.4" class="st18" width="103.1" height="11.1"/>
			<rect x="245.6" y="299.1" class="st28" width="95.1" height="42.5"/>
			<path class="st27" d="M237.2,352.3H349v4.8c0,1.4-1.2,2.6-2.6,2.6H239.8c-1.4,0-2.6-1.2-2.6-2.6V352.3z"/>
			<rect x="270.7" y="302.8" class="st29" width="20.9" height="14.6"/>
			<rect x="270.7" y="319.1" class="st29" width="20.9" height="2.9"/>
			<rect x="317.7" y="302.8" class="st23" width="19.9" height="14.6"/>
			<rect x="317.7" y="319.1" class="st23" width="19.9" height="2.9"/>
			<g>
				<rect x="248.5" y="302.8" class="st30" width="19.9" height="14.6"/>
				<rect x="248.5" y="319.1" class="st30" width="19.9" height="2.9"/>
				<polygon class="st28" points="263.3,304.4 263.3,307.2 256,310.2 263.3,313.3 263.3,316 252.6,311.4 252.6,309 				"/>
			</g>
			<polygon class="st28" points="326.4,309 322.1,309 322.1,311.3 326.4,311.3 326.4,315.6 328.7,315.6 328.7,311.3 333,311.3 
				333,309 328.7,309 328.7,304.7 326.4,304.7 			"/>
			<rect x="294.3" y="302.8" class="st29" width="21.1" height="14.6"/>
			<rect x="294.3" y="319.1" class="st29" width="21.1" height="2.9"/>
			<g>
				<rect x="248.5" y="324.5" class="st16" width="19.7" height="2.1"/>
				<rect x="248.5" y="328.2" class="st16" width="6.5" height="2.1"/>
				<rect x="248.5" y="331.9" class="st16" width="19.7" height="2.1"/>
				<rect x="248.5" y="335.7" class="st16" width="19.7" height="2.1"/>
				<rect x="261.5" y="328.2" class="st16" width="6.6" height="2.1"/>
				<rect x="255.6" y="328.2" class="st31" width="5.2" height="2.1"/>
			</g>
			<g>
				<rect x="270.7" y="324.5" class="st16" width="20.9" height="2.1"/>
				<rect x="270.7" y="328.2" class="st16" width="20.9" height="2.1"/>
				<rect x="270.7" y="335.7" class="st16" width="20.9" height="2.1"/>
				<rect x="270.7" y="331.9" class="st16" width="5.7" height="2.1"/>
				<rect x="282.1" y="331.9" class="st16" width="9.5" height="2.1"/>
				<rect x="276.9" y="331.9" class="st31" width="4.5" height="2.1"/>
			</g>
			<g>
				<rect x="294.3" y="324.5" class="st16" width="20.9" height="2.1"/>
				<rect x="294.3" y="328.2" class="st16" width="20.9" height="2.1"/>
				<rect x="294.3" y="335.7" class="st16" width="20.9" height="2.1"/>
				<rect x="294.3" y="331.9" class="st16" width="5.7" height="2.1"/>
				<rect x="305.6" y="331.9" class="st16" width="9.5" height="2.1"/>
				<rect x="300.5" y="331.9" class="st31" width="4.5" height="2.1"/>
			</g>
			<g>
				<rect x="317.7" y="324.5" class="st16" width="19.7" height="2.1"/>
				<rect x="317.7" y="328.2" class="st16" width="6.5" height="2.1"/>
				<rect x="317.7" y="331.9" class="st16" width="19.7" height="2.1"/>
				<rect x="317.7" y="335.7" class="st16" width="19.7" height="2.1"/>
				<rect x="330.8" y="328.2" class="st16" width="6.6" height="2.1"/>
				<rect x="324.9" y="328.2" class="st31" width="5.2" height="2.1"/>
			</g>
		</g>
		<g>
			<path class="st29" d="M313.3,343.1c18.2,7.9,29.9,13.9,32,37c-8.3,14.8-28,26.9-52.1,26.8c-24.1,0-43.9-12.1-52.1-26.8
				c2.1-23.1,13.8-29.1,32-37l0.6-0.2l2.2-1c4.8-2.1,10.8-4.6,17.4-5.4c6.6,0.9,12.6,3.3,17.4,5.4l2.2,1L313.3,343.1z"/>
			<path class="st32" d="M314.8,308.6L314.8,308.6C314.8,308.6,314.8,308.6,314.8,308.6l-1.7,13c3,1.2,5.2-6.3,5.3-8.9
				c0.1-3.5-2.5-4.1-3.3-4.1H314.8z"/>
			<path class="st32" d="M271.6,307.5L271.6,307.5C271.6,307.5,271.6,307.5,271.6,307.5l1.7,13c-3,1.2-5.2-6.3-5.3-8.9
				c-0.1-3.5,2.5-4.1,3.3-4.1L271.6,307.5z"/>
			<path class="st33" d="M279.1,324.8h28v16.9c-9.3,7.4-18.7,7.7-28,0V324.8z"/>
			<path class="st34" d="M271.2,308.5L271.2,308.5L271.2,308.5l2.3,12.9c4.3,11.5,10.1,18,19.6,20.3c9.7-2.2,15.6-8.7,19.9-20.3
				l3.1-12.2c0-0.2,0.1-0.3,0.1-0.5c1.5-7,2.5-13,0.8-19.4c-5.3-12.3-30.3-18.2-42.3-16c-6.3,10.7-5.1,21.8-3.7,34.2l0,0
				L271.2,308.5z"/>
			<path class="st35" d="M274.6,342.3l4.5-3.2c10.2,6.7,18.8,5.9,28-0.3l4.5,3.5C302.3,354.7,282,352.9,274.6,342.3z"/>
			<path class="st36" d="M257.4,396.9c0.7,0.5,1.6,0.9,2.3,1.4l-0.1-9.5L257.4,396.9z"/>
			<path class="st36" d="M328.8,396.9c-0.7,0.5-1.6,0.9-2.3,1.4l0.1-9.5L328.8,396.9z"/>
		</g>
	</g>
	<g>
		<path class="st25" d="M173.7,436.4c7.1,0,12.8-5.7,12.8-12.8c0-7.1-5.7-12.8-12.8-12.8c-7.1,0-12.8,5.7-12.8,12.8
			C160.8,430.6,166.6,436.4,173.7,436.4z"/>
		<path class="st25" d="M216.6,436.4c7.1,0,12.8-5.7,12.8-12.8c0-7.1-5.7-12.8-12.8-12.8c-7.1,0-12.8,5.7-12.8,12.8
			C203.8,430.6,209.5,436.4,216.6,436.4z"/>
		<path class="st23" d="M221.7,390.6c-0.3,1.4-0.6,2.8-1.1,4.2c-2.2-1-5-0.2-6.2,2c-1.3,2.2-0.6,4.9,1.4,6.4c-0.9,1.1-2,2.1-3,3
			c-1.4-2-4.2-2.7-6.4-1.4c-2.2,1.3-3,4-2,6.2c-1.3,0.5-2.7,0.9-4.2,1.1c-0.2-2.5-2.3-4.4-4.8-4.4c-2.5,0-4.6,1.9-4.8,4.4
			c-1.4-0.3-2.8-0.6-4.2-1.1c1-2.2,0.2-5-2-6.2c-2.2-1.3-4.9-0.6-6.4,1.4c-1.1-0.9-2.1-1.9-3-3c2-1.4,2.7-4.2,1.4-6.4
			c-1.3-2.2-4-3-6.2-2c-0.5-1.3-0.9-2.7-1.1-4.2c2.5-0.2,4.4-2.3,4.4-4.8c0-2.5-1.9-4.6-4.4-4.8c0.3-1.4,0.6-2.8,1.1-4.2
			c2.2,1,5,0.2,6.2-2c1.3-2.2,0.6-4.9-1.4-6.4c0.9-1.1,1.9-2.1,3-3c1.4,2,4.2,2.7,6.4,1.4c2.2-1.3,3-4,2-6.2
			c1.3-0.5,2.7-0.9,4.2-1.1c0.2,2.5,2.3,4.4,4.8,4.4c2.5,0,4.6-1.9,4.8-4.4c1.4,0.3,2.8,0.6,4.2,1.1c-1,2.2-0.2,5,2,6.2
			c2.2,1.3,4.9,0.6,6.4-1.4c1.1,0.9,2.1,1.9,3,3c-2,1.4-2.7,4.2-1.4,6.4c1.3,2.2,4,3,6.2,2c0.5,1.3,0.9,2.7,1.1,4.2
			c-2.5,0.2-4.4,2.3-4.4,4.8C217.3,388.3,219.2,390.4,221.7,390.6L221.7,390.6z M176.6,385.8c0,10.4,8.5,18.9,18.9,18.9
			c10.4,0,18.9-8.5,18.9-18.9c0-10.4-8.5-18.9-18.9-18.9C185,366.9,176.6,375.4,176.6,385.8z"/>
		<path class="st22" d="M232.9,422.8c0,0.9,0,1.8-0.1,2.6c-1.5-0.3-3,0.5-3.4,2c-0.5,1.5,0.3,3,1.7,3.6c-0.4,0.8-0.9,1.5-1.4,2.2
			c-1.1-1-2.9-1-4,0c-1.1,1.1-1.3,2.8-0.3,4c-0.7,0.5-1.5,0.9-2.3,1.2c-0.5-1.4-2-2.3-3.5-2c-1.5,0.3-2.5,1.8-2.3,3.3
			c-0.9,0-1.8,0-2.6-0.1c0.3-1.5-0.5-3-2-3.4c-1.5-0.5-3,0.3-3.6,1.7c-0.8-0.4-1.5-0.9-2.2-1.4c1-1.1,1-2.9,0-4
			c-1.1-1.1-2.8-1.3-4-0.3c-0.5-0.7-0.9-1.5-1.2-2.3c1.4-0.5,2.3-2,2-3.5c-0.3-1.5-1.8-2.5-3.3-2.3c0-0.9,0-1.8,0.1-2.6
			c1.5,0.3,3-0.5,3.4-2c0.5-1.5-0.3-3-1.7-3.6c0.4-0.8,0.9-1.5,1.4-2.2c1.1,1,2.9,1,4,0c1.1-1.1,1.3-2.8,0.3-4
			c0.7-0.5,1.5-0.9,2.3-1.2c0.5,1.4,2,2.3,3.5,2c1.5-0.3,2.5-1.8,2.3-3.3c0.9,0,1.8,0,2.6,0.1c-0.3,1.5,0.5,3,2,3.4
			c1.5,0.5,3-0.3,3.6-1.7c0.8,0.4,1.5,0.9,2.2,1.4c-1,1.1-1,2.9,0,4c1,1.1,2.8,1.3,4,0.3c0.5,0.7,0.9,1.5,1.2,2.3
			c-1.4,0.5-2.3,2-2,3.5C230,422,231.4,423,232.9,422.8L232.9,422.8z M205.3,426.1c1.4,6.2,7.6,10.1,13.8,8.7
			c6.2-1.4,10.1-7.6,8.7-13.8c-1.4-6.2-7.6-10.1-13.8-8.7C207.8,413.7,203.9,419.9,205.3,426.1z"/>
		<path class="st22" d="M190,422.8c0,0.9,0,1.8-0.1,2.6c-1.5-0.3-3,0.5-3.4,2c-0.5,1.5,0.3,3,1.7,3.6c-0.4,0.8-0.9,1.5-1.4,2.2
			c-1.1-1-2.9-1-4,0c-1.1,1.1-1.3,2.8-0.3,4c-0.7,0.5-1.5,0.9-2.3,1.2c-0.5-1.4-2-2.3-3.5-2c-1.5,0.3-2.5,1.8-2.3,3.3
			c-0.9,0-1.8,0-2.6-0.1c0.3-1.5-0.5-3-2-3.4c-1.5-0.5-3,0.3-3.6,1.7c-0.8-0.4-1.5-0.9-2.2-1.4c1-1.1,1-2.9,0-4
			c-1.1-1.1-2.8-1.3-4-0.3c-0.5-0.7-0.9-1.5-1.2-2.3c1.4-0.5,2.3-2,2-3.5c-0.3-1.5-1.8-2.5-3.3-2.3c0-0.9,0-1.8,0.1-2.6
			c1.5,0.3,3-0.5,3.4-2c0.5-1.5-0.3-3-1.7-3.6c0.4-0.8,0.9-1.5,1.4-2.2c1.1,1,2.9,1,4,0c1.1-1.1,1.3-2.8,0.3-4
			c0.7-0.5,1.5-0.9,2.3-1.2c0.5,1.4,2,2.3,3.5,2c1.5-0.3,2.5-1.8,2.3-3.3c0.9,0,1.8,0,2.6,0.1c-0.3,1.5,0.5,3,2,3.4
			c1.5,0.5,3-0.3,3.6-1.7c0.8,0.4,1.5,0.9,2.2,1.4c-1,1.1-1,2.9,0,4c1.1,1.1,2.8,1.3,4,0.3c0.5,0.7,0.9,1.5,1.2,2.3
			c-1.4,0.5-2.3,2-2,3.5C187.1,422,188.5,423,190,422.8L190,422.8z M162.4,426.1c1.4,6.2,7.6,10.1,13.8,8.7
			c6.2-1.4,10.1-7.6,8.7-13.8c-1.4-6.2-7.6-10.1-13.8-8.7C164.9,413.7,161,419.9,162.4,426.1z"/>
		<path class="st37" d="M169.1,419.7c0.6,0,1,0.2,1.3,0.5c0.3,0.3,0.5,0.8,0.5,1.3v1.1c0,0.5-0.2,0.9-0.5,1.3
			c-0.4,0.4-0.8,0.5-1.3,0.5h-0.7v2.9h-1.1v-7.6H169.1L169.1,419.7z M169.7,421.6c0-0.2-0.1-0.4-0.2-0.5c-0.1-0.1-0.3-0.2-0.5-0.2
			h-0.7v2.4h0.7c0.2,0,0.3-0.1,0.5-0.2c0.1-0.1,0.2-0.3,0.2-0.5V421.6L169.7,421.6z M172.9,424.1v3.2h-1.1v-7.6h1.1v3.2h1.4v-3.2
			h1.1v7.6h-1.1v-3.2H172.9L172.9,424.1z M178.3,419.7c0.6,0,1,0.2,1.3,0.5c0.3,0.3,0.5,0.8,0.5,1.3v1.1c0,0.5-0.2,0.9-0.5,1.3
			c-0.4,0.4-0.8,0.5-1.3,0.5h-0.7v2.9h-1.1v-7.6H178.3L178.3,419.7z M179,421.6c0-0.2-0.1-0.4-0.2-0.5c-0.1-0.1-0.3-0.2-0.5-0.2
			h-0.7v2.4h0.7c0.2,0,0.3-0.1,0.5-0.2c0.1-0.1,0.2-0.3,0.2-0.5V421.6z"/>
		<path class="st37" d="M211.9,427.4c-0.5,0-0.9-0.2-1.3-0.5c-0.4-0.4-0.5-0.8-0.5-1.3v-4.1c0-0.5,0.2-0.9,0.5-1.3
			c0.4-0.4,0.8-0.5,1.3-0.5c0.5,0,0.9,0.2,1.3,0.5c0.4,0.4,0.5,0.8,0.5,1.3v0.9h-1.2v-0.9c0-0.2-0.1-0.3-0.2-0.5
			c-0.1-0.1-0.3-0.2-0.5-0.2c-0.2,0-0.3,0.1-0.5,0.2c-0.1,0.1-0.2,0.3-0.2,0.5v4.2c0,0.2,0.1,0.3,0.2,0.5c0.1,0.1,0.3,0.2,0.5,0.2
			c0.2,0,0.3-0.1,0.5-0.2c0.1-0.1,0.2-0.3,0.2-0.5v-1h1.2v1.1c0,0.5-0.2,0.9-0.5,1.3C212.8,427.2,212.4,427.4,211.9,427.4
			L211.9,427.4z M216.9,423.2h1.5v0.8h-1.5v1.5H216V424h-1.5v-0.8h1.5v-1.5h0.8V423.2L216.9,423.2z M221.6,423.2h1.5v0.8h-1.5v1.5
			h-0.8V424h-1.5v-0.8h1.5v-1.5h0.8V423.2z"/>
		<path class="st25" d="M195.4,404.7c10.4,0,18.9-8.5,18.9-18.9c0-10.4-8.5-18.9-18.9-18.9c-10.4,0-18.9,8.5-18.9,18.9
			C176.6,396.2,185,404.7,195.4,404.7z"/>
		<path class="st37" d="M186.1,391.2c-0.7,0-1.3-0.2-1.8-0.7c-0.5-0.5-0.7-1.1-0.7-1.8V383c0-0.7,0.2-1.3,0.7-1.8
			c0.5-0.5,1.1-0.7,1.8-0.7c0.7,0,1.3,0.2,1.8,0.7c0.5,0.5,0.7,1.1,0.7,1.8v1.2h-1.6V383c0-0.2-0.1-0.5-0.3-0.6
			c-0.2-0.2-0.4-0.3-0.6-0.3c-0.3,0-0.5,0.1-0.6,0.3c-0.2,0.2-0.3,0.4-0.3,0.6v5.7c0,0.3,0.1,0.5,0.3,0.6c0.2,0.2,0.4,0.3,0.6,0.3
			c0.3,0,0.5-0.1,0.6-0.3c0.2-0.2,0.3-0.4,0.3-0.6v-1.4h1.6v1.5c0,0.7-0.2,1.3-0.7,1.8C187.3,390.9,186.7,391.2,186.1,391.2
			L186.1,391.2z M194.8,388.5c0,0.7-0.2,1.3-0.6,1.9c-0.3,0.4-0.6,0.6-1.1,0.7c-0.3,0.1-0.5,0.1-0.9,0.1c-0.6,0-1.1-0.2-1.5-0.5
			c-0.3-0.3-0.6-0.6-0.8-1c-0.2-0.4-0.3-0.9-0.3-1.5l1.5-0.1c0.1,0.6,0.2,1,0.5,1.3c0.2,0.2,0.4,0.3,0.7,0.3c0.3,0,0.6-0.2,0.8-0.5
			c0.1-0.2,0.2-0.4,0.2-0.7c0-0.4-0.2-0.9-0.6-1.3c-0.3-0.3-0.8-0.7-1.4-1.3c-0.5-0.5-0.9-1-1.1-1.4c-0.2-0.5-0.4-0.9-0.4-1.5
			c0-1,0.3-1.7,1-2.2c0.4-0.3,0.9-0.4,1.5-0.4c0.6,0,1,0.1,1.4,0.4c0.3,0.2,0.6,0.5,0.8,0.8c0.2,0.3,0.3,0.8,0.3,1.2l-1.5,0.3
			c0-0.4-0.2-0.8-0.4-1c-0.1-0.2-0.4-0.3-0.6-0.3c-0.3,0-0.5,0.1-0.7,0.4c-0.1,0.2-0.2,0.5-0.2,0.8c0,0.5,0.2,1,0.6,1.5
			c0.2,0.2,0.4,0.4,0.7,0.7c0.4,0.3,0.6,0.5,0.7,0.6c0.4,0.4,0.7,0.8,0.9,1.2c0.1,0.2,0.2,0.3,0.2,0.5
			C194.8,387.8,194.8,388.2,194.8,388.5L194.8,388.5z M201.1,388.5c0,0.7-0.2,1.3-0.6,1.9c-0.3,0.4-0.6,0.6-1.1,0.7
			c-0.3,0.1-0.5,0.1-0.9,0.1c-0.6,0-1.1-0.2-1.5-0.5c-0.3-0.3-0.6-0.6-0.8-1c-0.2-0.4-0.3-0.9-0.3-1.5l1.5-0.1
			c0.1,0.6,0.2,1,0.5,1.3c0.2,0.2,0.4,0.3,0.7,0.3c0.3,0,0.6-0.2,0.8-0.5c0.1-0.2,0.2-0.4,0.2-0.7c0-0.4-0.2-0.9-0.6-1.3
			c-0.3-0.3-0.8-0.7-1.4-1.3c-0.5-0.5-0.9-1-1.1-1.4c-0.2-0.5-0.4-0.9-0.4-1.5c0-1,0.3-1.7,1-2.2c0.4-0.3,0.9-0.4,1.5-0.4
			c0.6,0,1,0.1,1.4,0.4c0.3,0.2,0.6,0.5,0.8,0.8c0.2,0.3,0.3,0.8,0.3,1.2l-1.5,0.3c0-0.4-0.2-0.8-0.4-1c-0.1-0.2-0.4-0.3-0.6-0.3
			c-0.3,0-0.5,0.1-0.7,0.4c-0.1,0.2-0.2,0.5-0.2,0.8c0,0.5,0.2,1,0.6,1.5c0.2,0.2,0.4,0.4,0.7,0.7c0.4,0.3,0.6,0.5,0.7,0.6
			c0.4,0.4,0.7,0.8,0.9,1.2c0.1,0.2,0.2,0.3,0.2,0.5C201.1,387.8,201.1,388.2,201.1,388.5L201.1,388.5z M204.7,389.5
			c0.7,0,1.1-0.3,1.1-1v-0.6c0-1.1-0.6-1.6-1.7-1.6V385c0.6,0,1.1-0.2,1.3-0.5c0.3-0.3,0.4-0.7,0.4-1.3v-0.2c0-0.7-0.3-1-0.9-1
			c-0.3,0-0.6,0.1-0.7,0.4c-0.1,0.2-0.2,0.4-0.2,0.8v0.3h-1.5v-0.2c0-0.7,0.2-1.4,0.6-1.8c0.4-0.5,1-0.8,1.8-0.8
			c0.7,0,1.3,0.2,1.8,0.7c0.4,0.4,0.6,1,0.6,1.7v0.4c0,0.6-0.2,1.2-0.6,1.7c-0.2,0.2-0.4,0.4-0.6,0.5c0.5,0.3,0.8,0.7,1.1,1.2
			c0.1,0.3,0.2,0.6,0.2,1v0.8c0,0.8-0.3,1.4-0.8,1.9c-0.5,0.5-1.1,0.7-1.8,0.7c-0.7,0-1.3-0.2-1.8-0.7c-0.5-0.5-0.7-1.1-0.7-1.8
			v-0.3l1.5-0.1l0,0.4c0,0.3,0.1,0.5,0.3,0.6C204.2,389.5,204.4,389.5,204.7,389.5z"/>
	</g>
	<g>
		<g>
			<path class="st25" d="M236.2,367.6c-0.3,0.4-1.1-0.1-0.8-0.7c0,0,0-0.1,0-0.1l0.1-0.1l0.1-0.2l0.1-0.2l0.1-0.2l0.1-0.2l0.1-0.2
				l0.1-0.2l0.1-0.2l0.1-0.2l0.1-0.2l0.1-0.2l0.1-0.2l0.1-0.2l0.1-0.2l0.1-0.2l0.1-0.2l0.1-0.2l0.1-0.2l0.1-0.2l0.1-0.2l0.1-0.1
				c0.3-0.4,1,0,0.9,0.6c0,0.1,0,0.1-0.1,0.2l-0.1,0.1l-0.1,0.2l-0.1,0.2l-0.1,0.2l-0.1,0.2l-0.1,0.2l-0.1,0.2l-0.1,0.2l-0.1,0.2
				l-0.1,0.2l-0.1,0.2l-0.1,0.2l-0.1,0.2l-0.1,0.2l-0.1,0.2l-0.1,0.2l-0.1,0.2l-0.1,0.2l-0.1,0.2l-0.1,0.2L236.2,367.6z"/>
			<path class="st25" d="M231.2,373.3c-0.4,0.4-1.1-0.3-0.8-0.8c0,0,0,0,0.1-0.1l0,0l0.2-0.2l0.2-0.2l0.2-0.2l0.2-0.2l0.2-0.2
				l0.2-0.2l0.2-0.2l0.2-0.2l0.2-0.2l0.2-0.2l0.2-0.2l0.2-0.2l0.2-0.2l0.2-0.2l0.2-0.2l0.2-0.2l0.2-0.2l0.2-0.2l0.1-0.2l0.2-0.2l0,0
				c0.3-0.4,1,0.1,0.8,0.7c0,0.1,0,0.1-0.1,0.1l0,0l-0.2,0.2l-0.2,0.2l-0.2,0.2l-0.2,0.2l-0.2,0.2l-0.2,0.2l-0.2,0.2l-0.2,0.2
				l-0.2,0.2l-0.2,0.2l-0.2,0.2l-0.2,0.2l-0.2,0.2l-0.2,0.2l-0.2,0.2l-0.2,0.2l-0.2,0.2l-0.2,0.2l-0.2,0.2L231.2,373.3L231.2,373.3z
				"/>
			<path class="st25" d="M225.5,378.1c-0.5,0.3-1.1-0.6-0.6-0.9l0.1-0.1l0.2-0.1l0.2-0.1l0.2-0.1l0.2-0.1l0.2-0.1l0.2-0.1l0.2-0.1
				l0.2-0.1l0.2-0.1l0.2-0.1l0.2-0.1l0.2-0.1l0.2-0.1l0.2-0.1l0.2-0.1l0.2-0.1l0.2-0.1l0.2-0.1l0.2-0.1l0.2-0.1l0.1,0
				c0.1-0.1,0.3-0.1,0.5,0c0.4,0.2,0.5,0.7,0.2,0.9l-0.1,0.1l-0.2,0.1l-0.2,0.1l-0.2,0.1l-0.2,0.1l-0.2,0.1l-0.2,0.1l-0.2,0.1
				l-0.2,0.1l-0.2,0.1l-0.2,0.1l-0.2,0.1L227,377l-0.2,0.1l-0.2,0.1l-0.2,0.1l-0.2,0.1l-0.2,0.1l-0.2,0.1l-0.2,0.1l-0.2,0.1
				L225.5,378.1z"/>
			<path class="st25" d="M219,381.8c-0.5,0.2-1-0.6-0.6-1c0,0,0.1,0,0.1-0.1l0.2-0.1l0.2-0.1l0.2-0.1l0.2-0.1l0.2-0.1l0.2-0.1
				l0.2-0.1l0.2-0.1l0.2-0.1l0.2-0.1l0.2-0.1l0.2-0.1l0.2-0.1l0.2-0.1l0.2-0.1l0.2-0.1l0.2-0.1l0.2-0.1l0.2-0.1l0.2-0.1l0.2-0.1
				l0.1-0.1c0.5-0.3,1.1,0.5,0.6,0.9c0,0,0,0-0.1,0l-0.1,0.1l-0.2,0.1l-0.2,0.1l-0.2,0.1l-0.2,0.1l-0.2,0.1l-0.2,0.1l-0.2,0.1
				l-0.2,0.1l-0.2,0.1l-0.2,0.1l-0.2,0.1l-0.2,0.1l-0.2,0.1l-0.2,0.1l-0.2,0.1l-0.2,0.1l-0.2,0.1l-0.2,0.1l-0.2,0.1l-0.2,0.1
				L219,381.8z"/>
			<path class="st25" d="M211.8,384.2c-0.6,0.1-0.9-0.8-0.4-1.1l0,0l0.1,0l0.2,0l0.2,0l0.2,0l0.2,0l0.2,0l0.2,0l0.2,0l0.2-0.1
				l0.2-0.1l0.2-0.1l0.2-0.1l0.2-0.1l0.2-0.1l0.2-0.1l0.2-0.1l0.2-0.1l0.2-0.1l0.2-0.1l0.2-0.1l0.2-0.1l0.2-0.1l0.2-0.1
				c0.1,0,0.2,0,0.3,0c0.4,0.2,0.5,0.9,0.1,1l-0.2,0.1L216,383l-0.2,0.1l-0.2,0.1l-0.2,0.1l-0.2,0.1l-0.2,0.1l-0.2,0.1l-0.2,0.1
				l-0.2,0.1l-0.2,0.1l-0.2,0.1l-0.2,0.1l-0.2,0.1l-0.2,0.1l-0.2,0.1l-0.2,0l-0.2,0l-0.2,0l-0.2,0l-0.2,0l-0.2,0L211.8,384.2z"/>
			<path class="st25" d="M241.8,356.2c0.2-0.5,1-0.1,0.9,0.5c0,0,0,0.1,0,0.1l-0.1,0.2l-0.1,0.2l-0.1,0.2l-0.1,0.2l-0.1,0.2
				l-0.1,0.2l-0.1,0.2l-0.1,0.2l-0.1,0.2l-0.1,0.2l-0.1,0.2l-0.1,0.2l-0.1,0.2l-0.1,0.2l-0.1,0.2l-0.1,0.2l-0.1,0.2l-0.1,0.2
				l-0.1,0.2l-0.1,0.2l0,0c-0.1,0.2-0.3,0.3-0.5,0.2c-0.3-0.1-0.5-0.5-0.3-0.8l0,0l0.1-0.2l0.1-0.2l0.1-0.2l0.1-0.2l0.1-0.2l0.1-0.2
				l0.1-0.2l0.1-0.2l0.1-0.2l0.1-0.2l0.1-0.2l0.1-0.2l0.1-0.2l0.1-0.2l0.1-0.2l0.1-0.2l0.1-0.2l0.1-0.2l0.1-0.2L241.8,356.2z"/>
		</g>
		<path class="st25" d="M242.8,353.7c1.1,0.1,2,1.2,1.9,2.3c-0.1,1.2-1.1,2-2.2,1.8c-1.1-0.1-2-1.2-1.9-2.3
			C240.7,354.4,241.7,353.6,242.8,353.7z"/>
	</g>
	<g>
		<rect x="350" y="402.3" class="st28" width="60.5" height="39.3"/>
		<path class="st23" d="M349.4,400.7h61.1c0.8,0,1.4,0.6,1.4,1.4v38.1c0,0.8-0.6,1.4-1.4,1.4h-61.1c-0.8,0-1.4-0.6-1.4-1.4v-38.1
			C348,401.4,348.7,400.7,349.4,400.7L349.4,400.7z M351.2,403.9v34.6h57.6v-34.6H351.2z"/>
		<polygon class="st38" points="358,431.6 364.5,422.6 364.7,422.3 364.9,422.5 374,427 385.7,422.6 385.9,422.5 386.1,422.7 
			394.2,429.7 399.9,418.9 400.5,419.3 394.6,430.4 394.4,430.8 394.1,430.5 385.8,423.3 374.1,427.7 373.9,427.8 373.8,427.7 
			364.9,423.2 358.6,432 		"/>
		<path class="st39" d="M358.3,429.4c1.3,0,2.4,1.1,2.4,2.4c0,1.3-1.1,2.4-2.4,2.4c-1.3,0-2.4-1.1-2.4-2.4
			C355.9,430.5,357,429.4,358.3,429.4z"/>
		<path class="st25" d="M358.3,430.8c0.6,0,1,0.5,1,1c0,0.6-0.5,1-1,1c-0.6,0-1-0.5-1-1C357.3,431.2,357.8,430.8,358.3,430.8z"/>
		<path class="st39" d="M364.8,420.4c1.3,0,2.4,1.1,2.4,2.4c0,1.3-1.1,2.4-2.4,2.4c-1.3,0-2.4-1.1-2.4-2.4
			C362.4,421.5,363.5,420.4,364.8,420.4z"/>
		<path class="st25" d="M364.8,421.8c0.6,0,1,0.5,1,1c0,0.6-0.5,1-1,1c-0.6,0-1-0.5-1-1C363.8,422.2,364.2,421.8,364.8,421.8z"/>
		<path class="st39" d="M374,425c1.3,0,2.4,1.1,2.4,2.4c0,1.3-1.1,2.4-2.4,2.4c-1.3,0-2.4-1.1-2.4-2.4C371.6,426,372.6,425,374,425z
			"/>
		<path class="st25" d="M374,426.4c0.6,0,1,0.5,1,1c0,0.6-0.5,1-1,1c-0.6,0-1-0.5-1-1C372.9,426.8,373.4,426.4,374,426.4z"/>
		<path class="st39" d="M385.8,420.5c1.3,0,2.4,1.1,2.4,2.4c0,1.3-1.1,2.4-2.4,2.4c-1.3,0-2.4-1.1-2.4-2.4
			C383.4,421.6,384.5,420.5,385.8,420.5z"/>
		<path class="st25" d="M385.8,421.9c0.6,0,1,0.5,1,1c0,0.6-0.5,1-1,1c-0.6,0-1-0.5-1-1C384.8,422.4,385.3,421.9,385.8,421.9z"/>
		<path class="st39" d="M394.3,427.8c1.3,0,2.4,1.1,2.4,2.4c0,1.3-1.1,2.4-2.4,2.4c-1.3,0-2.4-1.1-2.4-2.4
			C391.9,428.9,393,427.8,394.3,427.8z"/>
		<path class="st25" d="M394.3,429.2c0.6,0,1,0.5,1,1c0,0.6-0.5,1-1,1c-0.6,0-1-0.5-1-1C393.3,429.7,393.7,429.2,394.3,429.2z"/>
		<path class="st39" d="M400.3,417.3c1.3,0,2.4,1.1,2.4,2.4c0,1.3-1.1,2.4-2.4,2.4c-1.3,0-2.4-1.1-2.4-2.4
			C397.9,418.4,399,417.3,400.3,417.3z"/>
		<path class="st25" d="M400.3,418.7c0.6,0,1,0.5,1,1c0,0.6-0.5,1-1,1c-0.6,0-1-0.5-1-1C399.3,419.1,399.7,418.7,400.3,418.7z"/>
		<rect x="354.7" y="406.9" class="st16" width="13.7" height="1.3"/>
		<rect x="354.7" y="409.2" class="st16" width="4.5" height="1.3"/>
		<rect x="354.7" y="411.5" class="st16" width="13.7" height="1.3"/>
		<rect x="354.7" y="413.8" class="st16" width="13.7" height="1.3"/>
		<rect x="369.8" y="406.9" class="st16" width="16.7" height="1.3"/>
		<rect x="369.8" y="409.2" class="st16" width="16.7" height="1.3"/>
		<rect x="369.8" y="413.8" class="st16" width="16.7" height="1.3"/>
		<rect x="388.4" y="406.9" class="st16" width="16.7" height="1.3"/>
		<rect x="388.4" y="409.2" class="st16" width="16.7" height="1.3"/>
		<rect x="388.4" y="411.5" class="st16" width="16.7" height="1.3"/>
		<rect x="388.4" y="413.8" class="st16" width="16.7" height="1.3"/>
		<path class="st16" d="M398.1,398.3c-4.4,3.9-4.8,10.6-0.9,15.1c3.9,4.4,10.6,4.8,15.1,0.9c4.4-3.9,4.8-10.6,0.9-15.1
			C409.3,394.8,402.5,394.4,398.1,398.3z"/>
		<path class="st37" d="M418.6,403.6c1.5,7.4-3.3,14.7-10.7,16.2c-7.4,1.5-14.7-3.3-16.2-10.7c-1.5-7.4,3.3-14.7,10.7-16.2
			C409.9,391.4,417.1,396.2,418.6,403.6L418.6,403.6z M415.2,404.3c-1.1-5.5-6.5-9.1-12-8c-5.5,1.1-9.1,6.5-8,12
			c1.1,5.5,6.5,9.1,12,8C412.7,415.2,416.3,409.8,415.2,404.3z"/>
		
			<rect x="413.3" y="413.8" transform="matrix(0.7487 -0.6629 0.6629 0.7487 -172.4005 379.9171)" class="st37" width="3.4" height="7.1"/>
		<path class="st13" d="M415.9,418.5L415.9,418.5c-1.6,1.4-1.8,3.9-0.3,5.5l14.4,16.3c1.4,1.6,3.9,1.8,5.5,0.3l0,0
			c1.6-1.4,1.8-3.9,0.3-5.5l-14.4-16.3C420,417.2,417.5,417,415.9,418.5z"/>
		<path class="st37" d="M415.9,418.5L415.9,418.5c-1.6,1.4-1.8,3.9-0.3,5.5l5.8-5.2C420,417.2,417.5,417,415.9,418.5L415.9,418.5z
			 M416.7,425.2l5.8-5.2l12.2,13.8l-5.8,5.2L416.7,425.2L416.7,425.2z M430,440.2c1.4,1.6,3.9,1.8,5.5,0.3l0,0
			c1.6-1.4,1.8-3.9,0.3-5.5L430,440.2z"/>
		<path class="st25" d="M409.8,402.7c0.4,0.5,1.1,0.6,1.6,0.2c0.5-0.4,0.6-1.1,0.2-1.6c-0.2-0.3-0.5-0.6-0.8-1
			c-1.4-1.5-3.3-2.3-5.1-2.5c-1.9-0.2-3.8,0.3-5.4,1.5c-0.3,0.2-0.6,0.4-0.8,0.7c-0.5,0.4-0.5,1.2,0,1.6c0.5,0.5,1.2,0.5,1.6,0
			c0.2-0.2,0.4-0.3,0.6-0.5c1.1-0.8,2.5-1.2,3.8-1c1.3,0.1,2.7,0.7,3.7,1.8C409.4,402.2,409.6,402.5,409.8,402.7z"/>
		<rect x="363.8" y="409.2" class="st16" width="4.6" height="1.3"/>
		<rect x="359.7" y="409.2" class="st31" width="3.6" height="1.3"/>
		<rect x="369.8" y="411.5" class="st16" width="4.5" height="1.3"/>
		<rect x="378.9" y="411.5" class="st16" width="7.7" height="1.3"/>
		<rect x="374.8" y="411.5" class="st31" width="3.6" height="1.3"/>
	</g>
	<g>
		<polygon class="st40" points="384.6,264.1 410.1,264.1 416.7,270.6 416.7,305.9 384.6,305.9 		"/>
		<polygon class="st31" points="410.1,270.6 416.7,277.2 416.7,270.6 413.4,267.4 		"/>
		<polygon class="st16" points="410.1,264.1 416.7,270.6 410.1,270.6 		"/>
		<path class="st37" d="M394.1,287.6l-0.4,2.2h-1.5l1.7-9.7h2l1.6,9.7H396l-0.3-2.2H394.1L394.1,287.6z M394.9,282.4l-0.5,3.8h1.1
			L394.9,282.4L394.9,282.4z M403.2,287.4c0,0.7-0.2,1.3-0.5,1.7c-0.2,0.3-0.6,0.6-1,0.7c-0.2,0.1-0.5,0.1-0.8,0.1
			c-0.6,0-1.1-0.1-1.4-0.4c-0.3-0.2-0.6-0.5-0.8-1c-0.2-0.4-0.3-0.9-0.3-1.4l1.4-0.1c0.1,0.6,0.2,1,0.4,1.2c0.2,0.2,0.4,0.3,0.6,0.3
			c0.3,0,0.6-0.2,0.8-0.5c0.1-0.2,0.1-0.4,0.1-0.6c0-0.4-0.2-0.8-0.6-1.2c-0.3-0.3-0.7-0.7-1.3-1.2c-0.5-0.5-0.8-0.9-1-1.3
			c-0.2-0.4-0.3-0.9-0.3-1.4c0-0.9,0.3-1.6,0.9-2c0.4-0.3,0.8-0.4,1.4-0.4c0.5,0,1,0.1,1.3,0.4c0.3,0.2,0.5,0.4,0.7,0.8
			c0.2,0.3,0.3,0.7,0.3,1.1l-1.4,0.3c0-0.4-0.2-0.7-0.3-0.9c-0.1-0.2-0.3-0.2-0.6-0.2c-0.3,0-0.5,0.1-0.6,0.4
			c-0.1,0.2-0.2,0.4-0.2,0.7c0,0.4,0.2,0.9,0.6,1.4c0.1,0.2,0.4,0.4,0.7,0.6c0.3,0.3,0.6,0.5,0.7,0.6c0.4,0.4,0.6,0.7,0.8,1.1
			c0.1,0.2,0.2,0.3,0.2,0.5C403.1,286.9,403.2,287.2,403.2,287.4L403.2,287.4z M406.7,280.1c0.7,0,1.3,0.2,1.7,0.7
			c0.4,0.4,0.6,1,0.6,1.6v1.4c0,0.6-0.2,1.2-0.7,1.6c-0.4,0.5-1,0.7-1.6,0.7h-0.8v3.7h-1.5v-9.7H406.7L406.7,280.1z M407.6,282.5
			c0-0.3-0.1-0.5-0.2-0.6c-0.2-0.2-0.4-0.2-0.6-0.2h-0.9v3.1h0.9c0.2,0,0.4-0.1,0.6-0.2c0.2-0.2,0.2-0.4,0.2-0.6V282.5z"/>
		<polygon class="st40" points="420.1,264.1 445.6,264.1 452.2,270.6 452.2,305.9 420.1,305.9 		"/>
		<polygon class="st31" points="445.6,270.6 452.2,277.2 452.2,270.6 448.9,267.4 		"/>
		<polygon class="st16" points="445.6,264.1 452.2,270.6 445.6,270.6 		"/>
		<path class="st37" d="M429.4,287.7c0,0.6-0.2,1.2-0.7,1.6c-0.5,0.4-1,0.7-1.6,0.7c-0.4,0-0.7,0-0.9-0.1l0.2-1.4c0.2,0,0.3,0,0.4,0
			c0.1,0,0.2,0,0.3,0c0.2,0,0.4-0.1,0.6-0.3c0.2-0.2,0.2-0.4,0.2-0.6v-7.6h1.4V287.7L429.4,287.7z M432.3,287.6l-0.4,2.2h-1.5
			l1.7-9.7h2l1.6,9.7h-1.5l-0.3-2.2H432.3L432.3,287.6z M433.1,282.4l-0.5,3.8h1.1L433.1,282.4L433.1,282.4z M437.2,289.9h2l1.8-9.7
			h-1.5l-1.2,7.6l-1.2-7.6h-1.5L437.2,289.9L437.2,289.9z M442.6,287.6l-0.4,2.2h-1.5l1.7-9.7h2l1.6,9.7h-1.5l-0.3-2.2H442.6
			L442.6,287.6z M443.3,282.4l-0.5,3.8h1.1L443.3,282.4z"/>
		<g>
			<polygon class="st14" points="403.1,297.1 428.6,297.1 435.2,303.7 435.2,338.9 403.1,338.9 			"/>
			<polygon class="st31" points="428.6,303.7 435.2,310.2 435.2,303.7 431.9,300.4 			"/>
			<polygon class="st16" points="428.6,297.1 435.2,303.7 428.6,303.7 			"/>
			<path class="st37" d="M409.3,321.4h1.5v1.5h-1.5V321.4L409.3,321.4z M414.1,323c-0.6,0-1.2-0.2-1.6-0.7c-0.5-0.5-0.7-1-0.7-1.6
				v-5.3c0-0.6,0.2-1.2,0.7-1.7c0.5-0.5,1-0.7,1.6-0.7c0.6,0,1.2,0.2,1.6,0.7c0.5,0.5,0.7,1,0.7,1.6v1.1h-1.5v-1.1
				c0-0.2-0.1-0.4-0.2-0.6c-0.2-0.2-0.4-0.2-0.6-0.2c-0.2,0-0.4,0.1-0.6,0.2c-0.2,0.2-0.2,0.4-0.2,0.6v5.3c0,0.2,0.1,0.4,0.2,0.6
				c0.2,0.2,0.4,0.2,0.6,0.2c0.2,0,0.4-0.1,0.6-0.2c0.2-0.2,0.2-0.4,0.2-0.6v-1.3h1.5v1.4c0,0.6-0.2,1.2-0.7,1.6
				C415.3,322.8,414.7,323,414.1,323L414.1,323z M419.9,313c0.6,0,1.2,0.2,1.7,0.7c0.5,0.5,0.7,1,0.7,1.6v5.3c0,0.6-0.2,1.2-0.7,1.7
				c-0.5,0.5-1,0.7-1.6,0.7c-0.6,0-1.2-0.2-1.6-0.7c-0.4-0.5-0.7-1-0.7-1.6v-5.3c0-0.6,0.2-1.2,0.7-1.7
				C418.7,313.3,419.3,313,419.9,313L419.9,313z M420.7,315.3c0-0.2-0.1-0.4-0.2-0.6c-0.2-0.2-0.4-0.2-0.6-0.2
				c-0.2,0-0.4,0.1-0.6,0.2c-0.2,0.2-0.2,0.4-0.2,0.6v5.3c0,0.2,0.1,0.4,0.2,0.6c0.2,0.2,0.4,0.2,0.6,0.2c0.2,0,0.4-0.1,0.6-0.2
				c0.2-0.2,0.2-0.4,0.2-0.6V315.3L420.7,315.3z M425,322.9h-1.5v-9.8h2.1l1.4,7l1.3-7h2v9.8h-1.5v-6.1l-1.3,6.1h-1.2l-1.4-6.1
				V322.9z"/>
		</g>
	</g>
	<g>
		<g>
			<polygon class="st25" points="355.8,320.2 355.7,320.2 355.5,320.1 355.2,320.1 355,320 354.8,320 354.5,319.9 354.3,319.9 
				354,319.8 353.8,319.7 353.6,319.7 353.3,319.6 353.1,319.5 352.8,319.5 352.6,319.4 352.4,319.4 352.1,319.3 351.9,319.2 
				351.7,319.2 351.6,319.1 351.3,319.9 351.4,320 351.7,320 351.9,320.1 352.1,320.2 352.4,320.2 352.6,320.3 352.8,320.4 
				353.1,320.4 353.3,320.5 353.6,320.5 353.8,320.6 354.1,320.7 354.3,320.7 354.5,320.8 354.8,320.8 355,320.9 355.3,320.9 
				355.5,321 355.6,321 			"/>
			<polygon class="st25" points="362.8,321.4 362.7,321.3 362.4,321.3 362.1,321.3 361.9,321.2 361.6,321.2 361.4,321.2 
				361.1,321.1 360.8,321.1 360.6,321.1 360.3,321 360.1,321 359.8,321 359.5,320.9 359.3,320.9 359,320.8 358.8,320.8 358.5,320.7 
				358.4,320.7 358.3,321.5 358.3,321.6 358.6,321.6 358.9,321.6 359.1,321.7 359.4,321.7 359.7,321.8 359.9,321.8 360.2,321.9 
				360.4,321.9 360.7,321.9 361,322 361.2,322 361.5,322 361.8,322.1 362,322.1 362.3,322.1 362.6,322.2 362.7,322.2 			"/>
			<polygon class="st25" points="369.8,321.8 369.6,321.8 369.4,321.8 369.1,321.8 368.8,321.8 368.6,321.8 368.3,321.8 368,321.7 
				367.7,321.7 367.5,321.7 367.2,321.7 366.9,321.7 366.7,321.7 366.4,321.7 366.1,321.6 365.9,321.6 365.6,321.6 365.4,321.6 
				365.3,322.4 365.5,322.4 365.8,322.5 366.1,322.5 366.4,322.5 366.6,322.5 366.9,322.5 367.2,322.5 367.4,322.6 367.7,322.6 
				368,322.6 368.3,322.6 368.5,322.6 368.8,322.6 369.1,322.6 369.4,322.6 369.6,322.6 369.8,322.6 			"/>
			<polygon class="st25" points="376.8,321.4 376.7,321.4 376.5,321.4 376.2,321.4 376,321.5 375.7,321.5 375.5,321.5 375.2,321.5 
				374.9,321.6 374.7,321.6 374.4,321.6 374.1,321.6 373.9,321.7 373.6,321.7 373.4,321.7 373.1,321.7 372.8,321.7 372.6,321.7 
				372.4,321.7 372.4,322.6 372.6,322.6 372.9,322.5 373.1,322.5 373.4,322.5 373.7,322.5 373.9,322.5 374.2,322.5 374.5,322.4 
				374.8,322.4 375,322.4 375.3,322.4 375.5,322.4 375.8,322.3 376.1,322.3 376.3,322.3 376.6,322.2 376.9,322.2 376.9,322.2 			"/>
			<polygon class="st25" points="383.6,319.9 383.4,320 383.2,320 382.9,320.1 382.7,320.2 382.5,320.2 382.2,320.3 382,320.4 
				381.7,320.4 381.5,320.5 381.3,320.6 381,320.6 380.8,320.7 380.5,320.7 380.3,320.8 380,320.8 379.8,320.9 379.5,320.9 
				379.4,321 379.5,321.8 379.7,321.7 380,321.7 380.2,321.6 380.5,321.6 380.7,321.5 381,321.5 381.2,321.4 381.5,321.4 
				381.7,321.3 382,321.2 382.2,321.2 382.5,321.1 382.7,321 383,321 383.2,320.9 383.4,320.8 383.7,320.8 383.8,320.7 			"/>
			<polygon class="st25" points="389.8,317 389.8,317 389.6,317.2 389.4,317.3 389.2,317.4 389,317.5 388.8,317.6 388.6,317.7 
				388.4,317.9 388.2,318 388,318.1 387.8,318.2 387.6,318.3 387.4,318.4 387.2,318.5 386.9,318.6 386.7,318.7 386.5,318.8 
				386.3,318.9 386.1,319 386,319 386.4,319.8 386.5,319.7 386.7,319.6 386.9,319.5 387.1,319.4 387.3,319.3 387.6,319.2 
				387.8,319.1 388,319 388.2,318.9 388.4,318.8 388.6,318.7 388.8,318.6 389.1,318.5 389.3,318.3 389.5,318.2 389.7,318.1 
				389.9,318 390.1,317.9 390.3,317.7 390.3,317.7 			"/>
			<polygon class="st25" points="394.6,312.4 394.6,312.4 394.5,312.5 394.5,312.6 394.4,312.7 394.4,312.7 394.3,312.8 
				394.3,312.9 394.2,313 394.2,313 394,313.2 393.9,313.4 393.8,313.5 393.6,313.7 393.5,313.9 393.3,314 393.2,314.2 393,314.4 
				392.9,314.5 392.7,314.7 392.5,314.8 392.4,315 392.2,315.1 392.1,315.3 391.9,315.4 391.8,315.5 392.4,316.1 392.5,316 
				392.7,315.9 392.8,315.7 393,315.6 393.2,315.4 393.3,315.3 393.5,315.1 393.7,314.9 393.8,314.8 394,314.6 394.1,314.4 
				394.3,314.2 394.4,314.1 394.6,313.9 394.7,313.7 394.9,313.5 394.9,313.4 395,313.4 395.1,313.3 395.1,313.2 395.2,313.1 
				395.2,313.1 395.3,313 395.3,312.9 395.3,312.9 			"/>
			<polygon class="st25" points="397.1,299.8 397.1,299.8 397.1,299.9 397.1,300 397.1,300.1 397.1,300.2 397.1,300.3 397.1,300.4 
				397.2,300.6 397.2,300.7 397.2,300.8 397.2,300.9 397.2,301 397.2,301.1 397.2,301.2 397.2,301.3 397.2,301.4 397.2,301.5 
				397.2,301.6 397.2,301.7 397.2,301.8 397.2,302 397.2,302.1 397.2,302.2 397.2,302.3 397.2,302.4 397.2,302.5 397.2,302.6 
				397.2,302.7 397.2,302.8 397.2,303 397.2,303.1 397.2,303.2 397.2,303.3 397.2,303.4 397.2,303.5 397.2,303.6 397.2,303.8 
				397.2,303.9 398.1,303.9 398.1,303.8 398.1,303.7 398.1,303.6 398.1,303.5 398.1,303.3 398.1,303.2 398.1,303.1 398.1,303 
				398.1,302.9 398.1,302.8 398.1,302.6 398.1,302.5 398.1,302.4 398.1,302.3 398.1,302.2 398.1,302.1 398.1,302 398.1,301.8 
				398.1,301.7 398.1,301.6 398.1,301.5 398.1,301.4 398.1,301.3 398.1,301.2 398.1,301 398.1,300.9 398.1,300.8 398.1,300.7 
				398,300.6 398,300.5 398,300.4 398,300.3 398,300.2 398,300 398,299.9 398,299.8 397.9,299.7 397.9,299.7 			"/>
			<path class="st25" d="M394.1,294.4c1.2,0.6,2,1.8,2.4,3l0.8-0.3c-0.5-1.4-1.4-2.8-2.9-3.5L394.1,294.4z"/>
			<polygon class="st25" points="388.1,295.9 388.2,295.8 388.2,295.8 388.3,295.7 388.4,295.6 388.5,295.6 388.5,295.5 
				388.6,295.4 388.7,295.4 388.8,295.3 388.9,295.3 389,295.2 389.1,295.1 389.2,295.1 389.3,295 389.4,295 389.5,294.9 
				389.6,294.9 389.7,294.8 389.8,294.8 389.9,294.7 390.1,294.7 390.2,294.6 390.3,294.6 390.4,294.5 390.5,294.5 390.6,294.5 
				390.7,294.4 390.8,294.4 390.9,294.4 391,294.3 391.1,294.3 391.2,294.3 391.3,294.2 391.4,294.2 391.4,294.2 391.5,294.2 
				391.6,294.2 391.7,294.2 391.7,294.2 391.6,293.3 391.6,293.3 391.5,293.3 391.4,293.4 391.3,293.4 391.1,293.4 391,293.4 
				390.9,293.5 390.8,293.5 390.7,293.5 390.6,293.6 390.5,293.6 390.4,293.6 390.3,293.7 390.1,293.7 390,293.8 389.9,293.8 
				389.8,293.8 389.7,293.9 389.6,293.9 389.5,294 389.3,294.1 389.2,294.1 389.1,294.2 389,294.2 388.8,294.3 388.7,294.4 
				388.6,294.4 388.5,294.5 388.4,294.6 388.3,294.6 388.2,294.7 388.1,294.8 388,294.9 387.9,294.9 387.8,295 387.7,295.1 
				387.6,295.2 387.5,295.2 387.5,295.3 			"/>
			<polygon class="st25" points="387.8,301.6 387.7,301.6 387.7,301.5 387.6,301.4 387.6,301.3 387.6,301.2 387.5,301.1 387.5,301 
				387.4,300.9 387.4,300.8 387.3,300.7 387.3,300.6 387.3,300.5 387.2,300.4 387.2,300.3 387.2,300.2 387.1,300.1 387.1,300 
				387.1,300 387.1,299.9 387,299.8 387,299.7 387,299.6 387,299.5 387,299.4 387,299.3 386.9,299.2 386.9,299.1 386.9,299 
				386.9,298.9 386.9,298.9 386.9,298.8 386.9,298.7 386.9,298.6 386.9,298.5 386.9,298.4 386.9,298.3 386.9,298.3 386.9,298.2 
				386.9,298.1 387,298 387,297.9 387,297.8 386.1,297.7 386.1,297.8 386.1,297.9 386.1,298 386.1,298.1 386,298.2 386,298.3 
				386,298.4 386,298.5 386,298.6 386,298.7 386,298.8 386,298.9 386,299 386,299.1 386.1,299.2 386.1,299.3 386.1,299.4 
				386.1,299.5 386.1,299.6 386.1,299.7 386.2,299.8 386.2,299.9 386.2,300 386.2,300.2 386.3,300.3 386.3,300.4 386.3,300.5 
				386.4,300.6 386.4,300.7 386.4,300.8 386.5,300.9 386.5,301 386.6,301.1 386.6,301.2 386.6,301.3 386.7,301.4 386.7,301.5 
				386.8,301.6 386.8,301.7 386.9,301.8 387,301.9 387,302 			"/>
			<polygon class="st25" points="392.3,306.4 392.2,306.4 392.1,306.3 392,306.2 391.9,306.1 391.8,306 391.7,306 391.6,305.9 
				391.5,305.8 391.4,305.7 391.2,305.6 391.1,305.5 391,305.4 390.9,305.4 390.8,305.3 390.7,305.2 390.6,305.1 390.5,305 
				390.4,304.9 390.3,304.8 390.2,304.7 390.1,304.6 390,304.5 389.9,304.4 389.9,304.4 389.8,304.3 389.7,304.2 389.6,304.1 
				389.5,304 389.4,303.9 389.3,303.8 389.2,303.7 389.2,303.6 388.5,304.2 388.6,304.2 388.6,304.3 388.7,304.4 388.8,304.5 
				388.9,304.6 389,304.7 389.1,304.8 389.2,304.9 389.3,305 389.4,305.1 389.5,305.2 389.6,305.3 389.7,305.4 389.8,305.5 
				389.9,305.6 390,305.7 390.1,305.8 390.2,305.9 390.3,306 390.4,306.1 390.6,306.2 390.7,306.2 390.8,306.3 390.9,306.4 
				391,306.5 391.1,306.6 391.2,306.7 391.4,306.8 391.5,306.9 391.6,307 391.7,307 391.8,307.1 			"/>
			<polygon class="st25" points="398.5,309.3 398.5,309.3 398.3,309.3 398.2,309.2 398,309.2 397.9,309.1 397.7,309.1 397.6,309 
				397.5,309 397.3,309 397.2,308.9 397.1,308.9 397.1,308.9 397.2,308.8 397.2,308.7 397.2,308.6 397.3,308.4 397.3,308.3 
				397.3,308.2 397.4,308.1 397.4,308 397.4,307.9 397.5,307.8 397.5,307.7 397.5,307.5 397.5,307.4 397.6,307.3 397.6,307.2 
				397.6,307.1 397.6,307 397.7,306.9 397.7,306.7 397.7,306.6 397.7,306.5 397.7,306.5 396.9,306.3 396.9,306.4 396.8,306.5 
				396.8,306.6 396.8,306.7 396.8,306.8 396.7,306.9 396.7,307 396.7,307.1 396.7,307.2 396.6,307.4 396.6,307.5 396.6,307.6 
				396.6,307.7 396.5,307.8 396.5,307.9 396.5,308 396.5,308.1 396.4,308.2 396.4,308.3 396.4,308.4 396.3,308.5 396.3,308.6 
				396.2,308.5 396.1,308.5 395.9,308.4 395.8,308.4 395.7,308.3 395.5,308.2 395.4,308.2 395.3,308.1 395.1,308.1 395,308 
				394.9,307.9 394.7,307.9 394.6,307.8 394.5,307.8 394.1,308.5 394.2,308.5 394.3,308.6 394.4,308.7 394.6,308.7 394.7,308.8 
				394.9,308.9 395,308.9 395.1,309 395.3,309.1 395.4,309.1 395.6,309.2 395.7,309.3 395.9,309.3 396,309.4 396.1,309.4 396,309.5 
				396,309.6 396,309.7 395.9,309.8 395.9,309.9 395.8,310 395.8,310.1 395.8,310.2 395.7,310.3 396.5,310.6 396.6,310.5 
				396.6,310.4 396.7,310.3 396.7,310.2 396.8,310.1 396.8,310 396.8,309.8 396.9,309.7 396.9,309.7 397,309.7 397.2,309.8 
				397.3,309.8 397.5,309.9 397.6,309.9 397.8,310 397.9,310 398.1,310.1 398.2,310.1 398.3,310.1 			"/>
			<polygon class="st25" points="405.3,309.6 405.2,309.6 405.1,309.6 404.9,309.6 404.8,309.6 404.7,309.7 404.5,309.7 
				404.4,309.7 404.2,309.7 404.1,309.8 403.9,309.8 403.8,309.8 403.6,309.8 403.5,309.8 403.3,309.8 403.2,309.8 403,309.8 
				402.9,309.8 402.7,309.8 402.6,309.8 402.4,309.8 402.3,309.8 402.1,309.8 402,309.8 401.8,309.8 401.7,309.8 401.5,309.8 
				401.4,309.8 401.2,309.8 401.1,309.8 401,309.8 401,310.6 401,310.6 401.2,310.6 401.3,310.6 401.5,310.6 401.6,310.7 
				401.8,310.7 402,310.7 402.1,310.7 402.3,310.7 402.4,310.7 402.6,310.7 402.8,310.7 402.9,310.7 403.1,310.7 403.2,310.7 
				403.4,310.7 403.5,310.6 403.7,310.6 403.9,310.6 404,310.6 404.2,310.6 404.3,310.6 404.5,310.5 404.6,310.5 404.8,310.5 
				405,310.5 405.1,310.4 405.3,310.4 405.4,310.4 405.5,310.4 			"/>
			<polygon class="st25" points="408.8,308.2 408.7,308.3 408.5,308.4 408.4,308.4 408.3,308.5 408.1,308.6 408,308.7 407.8,308.7 
				407.7,308.8 408.1,309.5 408.2,309.5 408.4,309.4 408.5,309.3 408.7,309.3 408.8,309.2 409,309.1 409.1,309 409.3,308.9 			"/>
		</g>
		<path class="st25" d="M409.6,305.8c1.4,0.4,2.2,1.8,1.8,3.1c-0.4,1.3-1.9,2.1-3.3,1.7c-1.4-0.4-2.2-1.8-1.8-3.1
			C406.7,306.2,408.2,305.4,409.6,305.8z"/>
	</g>
	<path class="st29" d="M319.5,232.4c3.3-1.8,5.3-6,3.5-13.2c-5.7-7.5-10.3-18.1-6.5-26.1c6-14.3,28.2-16.8,39.5-4.1
		c4.2,6.7,2.4,9.4,3.6,14c2.6,3.5,7.7,4.6,8.4,7.8c0.2,3-3.4,2.7-5.7,5c0.2,1.3,0.6,2.5,1.5,3.7c0,0.7-0.5,1.2-1.6,1.6
		c1.1,0.1,2,0.7,2,1.3c0.1,0.8-1.7,1.4-1.6,2.7c0.1,1.5,0.4,1.6,1,3.1c0.7,1.6-0.1,3-1.9,3.4c-4.9,1.1-9,1.3-12.9,1.2
		c-3.8,1.9-6.9,8.3-7.1,11.9l-4.5,0C329.5,242.5,323.4,237.5,319.5,232.4z"/>
	<path class="st18" d="M315,232.4c3.3-1.8,5.3-6,3.5-13.2c-5.7-7.5-10.3-18.1-6.5-26.1c6-14.3,28.2-16.8,39.5-4.1
		c4.2,6.7,2.4,9.4,3.6,14c2.6,3.5,7.7,4.6,8.4,7.8c0.2,3-3.4,2.7-5.7,5c0.2,1.3,0.6,2.5,1.5,3.7c0,0.7-0.5,1.2-1.6,1.6
		c1.1,0.1,2,0.7,2,1.3c0.1,0.8-1.7,1.4-1.6,2.7c0.1,1.5,0.4,1.6,1,3.1c0.7,1.6-0.1,3-1.9,3.4c-4.9,1.1-9,1.3-12.9,1.2
		c-3.8,1.9-6.9,8.3-7.1,11.9C327,242.8,319.8,238.5,315,232.4z"/>
	<g>
		<path class="st14" d="M326,175.6c7.7,0,13.9,6.2,13.9,13.9c0,3.5-1.3,6.7-3.4,9.1l0,0l0,0c-0.1,0.1-0.2,0.3-0.4,0.4
			c-2.3,2.6-3.7,5.8-3.7,9.4c0,0.7-0.6,1.2-1.2,1.2h-10.2c-0.7,0-1.2-0.6-1.2-1.2c0-3.5-1.3-6.7-3.7-9.4c-0.1-0.1-0.2-0.3-0.4-0.4
			l0,0h0c-2.1-2.4-3.4-5.6-3.4-9.1C312.1,181.8,318.3,175.6,326,175.6z"/>
		<path class="st25" d="M317.9,198.4L317.9,198.4L317.9,198.4c0.1,0.2,0.2,0.3,0.3,0.4l0,0l0,0c2.4,3.1,4,6.7,4.4,10.7h6.5
			c0.4-4,2-7.7,4.4-10.7l0,0l0,0c0.1-0.1,0.2-0.2,0.3-0.4l0,0c1.7-2.2,2.6-5,2.6-7.9c0-6.6-4.8-12-10.7-12c-5.9,0-10.7,5.4-10.7,12
			C315.3,193.4,316.2,196.2,317.9,198.4z"/>
		<rect x="320.9" y="209.6" class="st41" width="10.3" height="5.5"/>
		<path class="st30" d="M324.8,209.6c0.1-3.5,0.3-7.7,0-11.6c-0.1-2-0.4-3.9-0.8-5.6c-0.6,0.2-1.2,0.4-1.8,0.4
			c-3,0.2-4.6-2.9-3.5-5.5c1.1-2.3,3-1,4,0.7c0.7,1,1.2,2.3,1.5,3.8c0.5-0.2,0.9-0.4,1.3-0.7c0.1,0,0.1-0.1,0.2-0.1l0.3,0.2
			c-0.1,0.1-0.3,0.2-0.3,0.3c-0.5,0.3-1,0.6-1.5,0.8c0.4,1.7,0.7,3.7,0.8,5.7c0.3,3.9,0.2,8.2,0,11.7L324.8,209.6L324.8,209.6z
			 M323.9,192.1c-0.4-1.5-0.9-2.8-1.5-3.8c-0.9-1.4-2.4-2.8-3.3-0.7c-1,2.3,0.4,5.1,3.1,4.9C322.7,192.4,323.3,192.3,323.9,192.1z"
			/>
		<path class="st30" d="M326.8,209.6c-0.1-3.5-0.3-7.7,0-11.6c0.1-2,0.4-3.9,0.8-5.6c0.6,0.2,1.2,0.4,1.8,0.4c3,0.2,4.6-2.9,3.5-5.5
			c-1.1-2.3-3-1-4,0.7c-0.7,1-1.2,2.3-1.5,3.8c-0.5-0.2-0.9-0.4-1.3-0.7c-0.1,0-0.1-0.1-0.2-0.1l-0.2,0.3c0.1,0.1,0.1,0.1,0.2,0.1
			c0.5,0.3,1,0.6,1.5,0.8c-0.4,1.7-0.7,3.7-0.8,5.7c-0.3,3.9-0.2,8.2,0,11.7L326.8,209.6L326.8,209.6z M327.7,192.1
			c0.4-1.5,0.9-2.8,1.5-3.8c0.9-1.4,2.4-2.8,3.3-0.7c1,2.3-0.3,5.1-3.1,4.9C328.9,192.4,328.3,192.3,327.7,192.1z"/>
		<path class="st37" d="M331.2,215.1c0,2.7-2.2,4.8-4.8,4.8h-0.7c-2.7,0-4.8-2.2-4.8-4.8H331.2z"/>
		<rect x="320.6" y="209.6" class="st41" width="11" height="1.1"/>
		<rect x="320.6" y="211.8" class="st41" width="11" height="1.1"/>
		<rect x="320.6" y="214.1" class="st41" width="11" height="1.1"/>
		<polygon class="st37" points="320.9,210.7 331.2,210.7 331.2,211.8 322,211.8 		"/>
		<polygon class="st37" points="320.9,212.9 331.2,212.9 331.2,214.1 322,214.1 		"/>
	</g>
	<g>
		<g>
			<polygon class="st25" points="308.6,281.1 308.7,281.2 308.7,281.4 308.7,281.7 308.8,281.9 308.8,282.2 308.9,282.4 
				308.9,282.7 309,282.9 309,283.1 309.1,283.4 309.1,283.6 309.2,283.9 309.2,284.1 309.3,284.3 309.3,284.6 309.4,284.8 
				309.4,285.1 309.5,285.3 309.5,285.4 308.7,285.6 308.7,285.5 308.6,285.3 308.6,285 308.5,284.8 308.4,284.5 308.4,284.3 
				308.3,284.1 308.3,283.8 308.2,283.6 308.2,283.3 308.1,283.1 308.1,282.8 308,282.6 308,282.3 308,282.1 307.9,281.8 
				307.9,281.6 307.8,281.3 307.8,281.2 			"/>
			<polygon class="st25" points="307.8,274.1 307.8,274.2 307.9,274.5 307.9,274.7 307.9,275 307.9,275.3 307.9,275.5 308,275.8 
				308,276 308,276.3 308,276.6 308.1,276.8 308.1,277.1 308.1,277.4 308.1,277.6 308.2,277.9 308.2,278.1 308.2,278.4 308.3,278.5 
				307.4,278.6 307.4,278.5 307.4,278.2 307.3,278 307.3,277.7 307.3,277.5 307.3,277.2 307.2,276.9 307.2,276.7 307.2,276.4 
				307.1,276.1 307.1,275.9 307.1,275.6 307.1,275.3 307.1,275.1 307,274.8 307,274.5 307,274.3 307,274.2 			"/>
			<polygon class="st25" points="307.7,267.1 307.7,267.2 307.7,267.5 307.7,267.8 307.7,268 307.7,268.3 307.7,268.6 307.7,268.8 
				307.7,269.1 307.7,269.4 307.7,269.6 307.7,269.9 307.7,270.2 307.7,270.5 307.7,270.7 307.7,271 307.7,271.3 307.7,271.5 
				306.9,271.5 306.9,271.3 306.9,271 306.9,270.7 306.9,270.5 306.9,270.2 306.9,269.9 306.9,269.6 306.9,269.4 306.9,269.1 
				306.9,268.8 306.9,268.6 306.9,268.3 306.9,268 306.9,267.7 306.9,267.5 306.9,267.2 306.9,267.1 			"/>
			<polygon class="st25" points="308.5,260.1 308.5,260.1 308.4,260.4 308.4,260.7 308.4,260.9 308.3,261.2 308.3,261.4 
				308.2,261.7 308.2,261.9 308.2,262.2 308.1,262.5 308.1,262.7 308.1,263 308,263.3 308,263.5 308,263.8 308,264 307.9,264.3 
				307.9,264.5 307.1,264.4 307.1,264.2 307.1,264 307.2,263.7 307.2,263.4 307.2,263.1 307.2,262.9 307.3,262.6 307.3,262.3 
				307.3,262.1 307.4,261.8 307.4,261.6 307.5,261.3 307.5,261 307.5,260.8 307.6,260.5 307.6,260.2 307.7,260 307.7,260 			"/>
			<polygon class="st25" points="310.3,253.4 310.2,253.6 310.1,253.8 310.1,254 310,254.3 309.9,254.5 309.8,254.7 309.7,255 
				309.7,255.2 309.6,255.4 309.5,255.7 309.5,255.9 309.4,256.2 309.3,256.4 309.3,256.6 309.2,256.9 309.1,257.1 309.1,257.4 
				309,257.6 308.2,257.3 308.3,257.2 308.3,256.9 308.4,256.7 308.5,256.4 308.5,256.2 308.6,255.9 308.7,255.7 308.7,255.4 
				308.8,255.2 308.9,254.9 309,254.7 309,254.4 309.1,254.2 309.2,254 309.3,253.7 309.4,253.5 309.4,253.3 309.5,253.1 			"/>
			<polygon class="st25" points="313.5,247.3 313.5,247.4 313.3,247.5 313.2,247.7 313.1,247.9 312.9,248.1 312.8,248.3 
				312.7,248.5 312.6,248.7 312.5,248.9 312.3,249.1 312.2,249.3 312.1,249.5 312,249.7 311.9,249.9 311.8,250.1 311.7,250.3 
				311.6,250.5 311.4,250.7 311.3,250.9 311.3,251 310.6,250.6 310.6,250.5 310.7,250.3 310.8,250.1 310.9,249.9 311,249.7 
				311.2,249.4 311.3,249.2 311.4,249 311.5,248.8 311.6,248.6 311.7,248.4 311.9,248.2 312,248 312.1,247.8 312.3,247.6 
				312.4,247.4 312.5,247.2 312.7,247 312.8,246.8 312.8,246.8 			"/>
			<polygon class="st25" points="318.3,242.7 318.3,242.8 318.2,242.8 318.1,242.8 318,242.9 318,242.9 317.9,243 317.8,243 
				317.7,243.1 317.7,243.1 317.5,243.3 317.3,243.4 317.1,243.5 317,243.7 316.8,243.8 316.6,243.9 316.5,244.1 316.3,244.2 
				316.1,244.4 316,244.5 315.8,244.7 315.6,244.8 315.5,245 315.3,245.1 315.2,245.3 315.1,245.4 314.5,244.8 314.6,244.7 
				314.7,244.5 314.9,244.3 315.1,244.2 315.2,244 315.4,243.9 315.6,243.7 315.8,243.6 315.9,243.4 316.1,243.3 316.3,243.1 
				316.5,243 316.7,242.8 316.8,242.7 317,242.5 317.2,242.4 317.3,242.4 317.4,242.3 317.5,242.2 317.5,242.2 317.6,242.1 
				317.7,242.1 317.8,242 317.9,242 317.9,242 			"/>
			<polygon class="st25" points="331.1,240.9 331,240.9 330.9,240.9 330.8,240.9 330.7,240.8 330.6,240.8 330.5,240.8 330.4,240.8 
				330.3,240.8 330.2,240.8 330.1,240.7 330,240.7 329.9,240.7 329.8,240.7 329.6,240.7 329.5,240.7 329.4,240.7 329.3,240.7 
				329.2,240.6 329.1,240.6 329,240.6 328.9,240.6 328.8,240.6 328.7,240.6 328.5,240.6 328.4,240.6 328.3,240.6 328.2,240.6 
				328.1,240.6 328,240.6 327.9,240.6 327.8,240.6 327.7,240.6 327.5,240.6 327.4,240.6 327.3,240.6 327.2,240.6 327.1,240.6 
				327,240.6 327,239.7 327.1,239.7 327.2,239.7 327.3,239.7 327.4,239.7 327.5,239.7 327.7,239.7 327.8,239.7 327.9,239.7 
				328,239.7 328.1,239.7 328.2,239.7 328.4,239.7 328.5,239.7 328.6,239.7 328.7,239.7 328.8,239.7 328.9,239.7 329,239.7 
				329.2,239.8 329.3,239.8 329.4,239.8 329.5,239.8 329.6,239.8 329.7,239.8 329.8,239.8 330,239.8 330.1,239.8 330.2,239.9 
				330.3,239.9 330.4,239.9 330.5,239.9 330.6,239.9 330.7,239.9 330.8,240 330.9,240 331,240 331.2,240 331.2,240 			"/>
			<path class="st25" d="M336.3,244.2c-0.5-1.3-1.7-2.1-2.9-2.6l0.3-0.8c1.4,0.6,2.7,1.5,3.3,3L336.3,244.2z"/>
			<polygon class="st25" points="334.5,250 334.6,250 334.6,249.9 334.7,249.8 334.8,249.8 334.8,249.7 334.9,249.6 335,249.5 
				335,249.5 335.1,249.4 335.2,249.3 335.2,249.2 335.3,249.1 335.4,249 335.4,248.9 335.5,248.8 335.5,248.7 335.6,248.6 
				335.7,248.5 335.7,248.4 335.8,248.3 335.8,248.2 335.9,248 335.9,247.9 336,247.8 336,247.7 336.1,247.6 336.1,247.5 
				336.1,247.4 336.2,247.3 336.2,247.2 336.2,247.2 336.3,247.1 336.3,247 336.3,246.9 336.3,246.8 336.4,246.7 336.4,246.6 
				336.4,246.5 336.4,246.5 337.2,246.7 337.2,246.7 337.2,246.8 337.2,246.9 337.1,247 337.1,247.1 337.1,247.2 337.1,247.3 
				337,247.4 337,247.6 336.9,247.7 336.9,247.8 336.9,247.9 336.8,248 336.8,248.1 336.7,248.2 336.7,248.3 336.6,248.4 
				336.6,248.6 336.5,248.7 336.5,248.8 336.4,248.9 336.3,249 336.3,249.2 336.2,249.3 336.1,249.4 336,249.5 336,249.6 
				335.9,249.7 335.8,249.8 335.8,249.9 335.7,250 335.6,250.1 335.5,250.2 335.5,250.3 335.4,250.4 335.3,250.5 335.2,250.6 
				335.1,250.6 335.1,250.7 			"/>
			<polygon class="st25" points="328.8,250.1 328.8,250.1 328.9,250.2 329,250.2 329.1,250.3 329.2,250.3 329.3,250.4 329.4,250.4 
				329.5,250.5 329.6,250.5 329.7,250.6 329.7,250.6 329.8,250.6 329.9,250.7 330,250.7 330.1,250.8 330.2,250.8 330.3,250.8 
				330.4,250.9 330.5,250.9 330.6,250.9 330.7,250.9 330.8,251 330.8,251 330.9,251 331,251 331.1,251 331.2,251 331.3,251.1 
				331.4,251.1 331.5,251.1 331.6,251.1 331.6,251.1 331.7,251.1 331.8,251.1 331.9,251.1 332,251.1 332.1,251.1 332.2,251.1 
				332.2,251.1 332.3,251.1 332.4,251.1 332.5,251.1 332.6,251.9 332.5,251.9 332.4,252 332.3,252 332.2,252 332.1,252 332,252 
				331.9,252 331.8,252 331.7,252 331.6,252 331.5,252 331.4,252 331.3,252 331.2,251.9 331.1,251.9 331,251.9 330.9,251.9 
				330.8,251.9 330.7,251.8 330.6,251.8 330.5,251.8 330.4,251.8 330.3,251.7 330.2,251.7 330,251.7 329.9,251.6 329.8,251.6 
				329.7,251.6 329.6,251.5 329.5,251.5 329.4,251.4 329.3,251.4 329.2,251.3 329.1,251.3 329,251.2 328.9,251.2 328.8,251.1 
				328.7,251.1 328.6,251 328.5,250.9 328.4,250.9 328.4,250.9 			"/>
			<polygon class="st25" points="324.2,245.3 324.2,245.4 324.3,245.5 324.4,245.6 324.5,245.7 324.5,245.9 324.6,246 324.7,246.1 
				324.8,246.2 324.9,246.3 324.9,246.4 325,246.5 325.1,246.6 325.2,246.8 325.3,246.9 325.4,247 325.4,247.1 325.5,247.2 
				325.6,247.3 325.7,247.4 325.8,247.5 325.9,247.6 326,247.7 326,247.8 326.1,247.9 326.2,248 326.3,248.1 326.4,248.2 
				326.5,248.3 326.6,248.3 326.7,248.4 326.8,248.5 326.8,248.6 326.3,249.2 326.2,249.2 326.1,249.1 326,249 325.9,248.9 
				325.8,248.8 325.7,248.7 325.6,248.6 325.5,248.5 325.4,248.4 325.3,248.3 325.3,248.2 325.2,248.1 325.1,248 325,247.9 
				324.9,247.8 324.8,247.7 324.7,247.5 324.6,247.4 324.5,247.3 324.4,247.2 324.4,247.1 324.3,247 324.2,246.9 324.1,246.7 
				324,246.6 323.9,246.5 323.9,246.4 323.8,246.3 323.7,246.1 323.6,246 323.5,245.9 323.5,245.8 			"/>
			<polygon class="st25" points="321.6,239 321.6,239 321.6,239.2 321.7,239.3 321.7,239.5 321.7,239.6 321.8,239.8 321.8,239.9 
				321.9,240.1 321.9,240.2 321.9,240.3 321.9,240.4 322,240.4 322.1,240.3 322.2,240.3 322.3,240.3 322.4,240.3 322.5,240.2 
				322.6,240.2 322.7,240.2 322.9,240.2 323,240.1 323.1,240.1 323.2,240.1 323.3,240.1 323.4,240.1 323.5,240 323.7,240 323.8,240 
				323.9,240 324,240 324.1,239.9 324.2,239.9 324.4,239.9 324.4,239.9 324.5,240.8 324.5,240.8 324.4,240.8 324.2,240.8 
				324.1,240.8 324,240.9 323.9,240.9 323.8,240.9 323.7,240.9 323.6,240.9 323.5,240.9 323.4,241 323.2,241 323.1,241 323,241 
				322.9,241.1 322.8,241.1 322.7,241.1 322.6,241.1 322.5,241.2 322.4,241.2 322.3,241.2 322.2,241.2 322.3,241.3 322.3,241.5 
				322.4,241.6 322.4,241.7 322.5,241.9 322.5,242 322.6,242.2 322.6,242.3 322.7,242.4 322.7,242.6 322.8,242.7 322.9,242.8 
				322.9,243 323,243.1 322.2,243.4 322.2,243.4 322.1,243.2 322,243.1 322,242.9 321.9,242.8 321.9,242.7 321.8,242.5 321.7,242.4 
				321.7,242.2 321.6,242.1 321.6,241.9 321.5,241.8 321.5,241.6 321.4,241.5 321.4,241.4 321.3,241.5 321.2,241.5 321.1,241.5 
				321,241.6 320.9,241.6 320.8,241.6 320.7,241.7 320.6,241.7 320.5,241.7 320.2,240.9 320.3,240.9 320.5,240.8 320.6,240.8 
				320.7,240.7 320.8,240.7 320.9,240.7 321,240.6 321.1,240.6 321.1,240.6 321.1,240.4 321.1,240.3 321,240.1 321,240 320.9,239.8 
				320.9,239.7 320.9,239.5 320.8,239.4 320.8,239.2 320.8,239.2 			"/>
			<polygon class="st25" points="321.7,232.2 321.7,232.3 321.6,232.4 321.6,232.5 321.6,232.7 321.5,232.8 321.5,233 321.5,233.1 
				321.5,233.3 321.4,233.4 321.4,233.6 321.4,233.7 321.4,233.9 321.3,234 321.3,234.2 321.3,234.3 321.3,234.5 321.3,234.6 
				321.3,234.7 321.3,234.9 321.3,235 321.3,235.2 321.3,235.3 321.2,235.5 321.2,235.6 321.2,235.8 321.3,235.9 321.3,236.1 
				321.3,236.2 321.3,236.4 321.3,236.4 320.4,236.5 320.4,236.4 320.4,236.3 320.4,236.1 320.4,236 320.4,235.8 320.4,235.6 
				320.4,235.5 320.4,235.3 320.4,235.2 320.4,235 320.4,234.8 320.4,234.7 320.5,234.5 320.5,234.4 320.5,234.2 320.5,234.1 
				320.5,233.9 320.5,233.7 320.6,233.6 320.6,233.4 320.6,233.3 320.6,233.1 320.7,233 320.7,232.8 320.7,232.6 320.8,232.5 
				320.8,232.3 320.8,232.2 320.9,232 320.9,232 			"/>
			<polygon class="st25" points="323.2,228.8 323.1,228.9 323,229 322.9,229.2 322.9,229.3 322.8,229.4 322.7,229.6 322.6,229.7 
				322.6,229.8 321.8,229.4 321.9,229.3 322,229.1 322.1,229 322.2,228.8 322.2,228.7 322.3,228.6 322.4,228.4 322.5,228.3 			"/>
		</g>
		<path class="st25" d="M325.6,228.1c-0.3-1.4-1.7-2.3-3.1-1.9c-1.4,0.4-2.2,1.8-1.8,3.2c0.3,1.4,1.7,2.3,3.1,1.9
			C325.2,231,326,229.5,325.6,228.1z"/>
	</g>
	<g>
		<path class="st25" d="M350.9,352.6c1.7-0.6,2.5-2.4,1.8-4c-0.7-1.7-2.6-2.6-4.2-2c-1.7,0.6-2.5,2.4-1.8,4
			C347.3,352.3,349.2,353.2,350.9,352.6z"/>
		<g>
			<path class="st25" d="M375.3,384.5c0-1-1.6-1.2-1.7-0.2l0,0.1v0l0,0.2l0,0.2l0,0.2l0,0.2l0,0.2l0,0.2l0,0.2l0,0.2l0,0.2l0,0.2
				l0,0.2l0,0.2l0,0.2l0,0.2l0,0.2l0,0.2l0,0.2l0,0.2l0,0.2l0,0.2l0,0.2l0,0.2l0,0.2l0,0.2l0,0.2l0,0.2l0,0.2l0,0.2l-0.1,0.2
				l-0.1,0.2l-0.1,0.2l-0.1,0.2l-0.1,0.2l-0.1,0.2l-0.1,0.2c-0.3,1,1.2,1.6,1.6,0.6c0,0,0-0.1,0-0.1l0.1-0.2l0.1-0.2l0.1-0.2
				l0.1-0.2l0.1-0.2l0.1-0.2l0.1-0.2l0-0.2l0-0.2l0-0.2l0-0.2l0-0.2l0-0.2l0-0.2l0-0.2l0-0.2l0-0.2l0-0.2l0-0.2l0-0.2l0-0.2l0-0.2
				l0-0.2l0-0.2l0-0.2l0-0.2l0-0.2l0-0.2l0-0.2l0-0.2l0-0.2l0-0.2l0-0.2l0-0.2L375.3,384.5L375.3,384.5z"/>
			<path class="st25" d="M372.4,370.9c-0.2-0.4-0.6-0.6-1-0.5c-0.5,0.1-0.8,0.6-0.6,1.1l0.1,0.2l0.1,0.2l0.1,0.2l0.1,0.2l0.1,0.2
				l0.1,0.2l0.1,0.2l0.1,0.2l0.1,0.2l0.1,0.2l0.1,0.2l0.1,0.2l0.1,0.2l0.1,0.2l0.1,0.2l0.1,0.2l0.1,0.2l0.1,0.2l0.1,0.2l0.1,0.2
				l0.1,0.2l0.1,0.2l0.1,0.2l0.1,0.2l0.1,0.2l0.1,0.2l0.1,0.2l0,0.2l0,0.2l0,0.2l0,0.2l0,0.2l0,0.2l0,0.2l0,0.2l0,0.1
				c0.1,0.3,0.3,0.6,0.6,0.7c0.6,0.2,1.2-0.3,1.1-0.9l0-0.1l0-0.2l0-0.2l0-0.2l0-0.2l0-0.2l0-0.2l-0.1-0.2l-0.1-0.2l-0.1-0.2
				l-0.1-0.2l-0.1-0.2l-0.1-0.2l-0.1-0.2l-0.1-0.2l-0.1-0.2l-0.1-0.2l-0.1-0.2l-0.1-0.2l-0.1-0.2l-0.1-0.2l-0.1-0.2l-0.1-0.2
				l-0.1-0.2l-0.1-0.2l-0.1-0.2l-0.1-0.2l-0.1-0.2l-0.1-0.2l-0.1-0.2l-0.1-0.2l-0.1-0.2l-0.1-0.2l-0.1-0.2l-0.1-0.2L372.4,370.9z"/>
			<path class="st25" d="M364.3,359.4c-0.2-0.2-0.5-0.3-0.8-0.2c-0.7,0.1-0.9,0.9-0.4,1.4l0.1,0.1l0.2,0.2l0.2,0.2l0.2,0.2l0.2,0.2
				l0.2,0.2l0.2,0.2l0.2,0.2l0.2,0.2l0.2,0.2l0.2,0.2l0.2,0.2l0.2,0.2l0.2,0.2l0.2,0.2l0.2,0.2l0.2,0.2l0.2,0.2l0.2,0.2l0.2,0.2
				l0.2,0.2l0.2,0.2l0.2,0.2l0.1,0.2l0.1,0.2l0.1,0.2l0.1,0.2l0.1,0.2l0.1,0.2l0.1,0.2l0.1,0.2l0.1,0.2l0.1,0.2l0.1,0.1
				c0.2,0.4,0.7,0.5,1.1,0.4c0.5-0.2,0.6-0.8,0.3-1.2l-0.1-0.1l-0.1-0.2l-0.1-0.2l-0.1-0.2l-0.1-0.2l-0.2-0.2l-0.1-0.2l-0.2-0.2
				l-0.2-0.2l-0.2-0.2l-0.2-0.2l-0.2-0.2l-0.2-0.2l-0.2-0.2l-0.2-0.2l-0.2-0.2l-0.2-0.2l-0.2-0.2l-0.2-0.2l-0.2-0.2l-0.2-0.2
				l-0.2-0.2l-0.2-0.2l-0.2-0.2l-0.2-0.2l-0.2-0.2l-0.2-0.2l-0.2-0.2l-0.2-0.2l-0.2-0.2l-0.2-0.2l-0.2-0.2l-0.2-0.2L364.3,359.4z"/>
			<path class="st25" d="M352.6,351.2c-0.8-0.4-1.7,0.6-1,1.3c0.1,0.1,0.1,0.1,0.2,0.2l0.2,0.1l0.3,0.1l0.3,0.1l0.3,0.1l0.3,0.1
				l0.3,0.1l0.3,0.1l0.3,0.1l0.3,0.1l0.3,0.1l0.3,0.2l0.3,0.1l0.3,0.2l0.3,0.2l0.2,0.2l0.2,0.2l0.2,0.2l0.2,0.2l0.2,0.2l0.2,0.2
				l0.2,0.2l0.2,0.2l0.2,0.2l0.2,0.2l0.2,0.2l0.2,0.2l0.2,0.2l0.2,0.2l0.2,0.2l0.1,0.1c0.8,0.6,1.8-0.3,1.2-1.1
				c-0.1-0.1-0.1-0.1-0.2-0.2l-0.1-0.1l-0.2-0.2l-0.2-0.2l-0.2-0.2l-0.2-0.2l-0.2-0.2l-0.2-0.2l-0.2-0.2l-0.2-0.2l-0.2-0.2l-0.3-0.2
				l-0.3-0.2l-0.3-0.2l-0.3-0.2l-0.3-0.2l-0.3-0.2l-0.3-0.2l-0.3-0.2l-0.3-0.2l-0.3-0.2l-0.3-0.2l-0.3-0.2l-0.3-0.2l-0.3-0.1
				l-0.3-0.1l-0.3-0.1l-0.3-0.1l-0.3-0.1l-0.3-0.1L352.6,351.2z"/>
			<path class="st25" d="M366.7,403.9c-0.6,0.8,0.5,1.8,1.3,1.1c0,0,0.1-0.1,0.1-0.1l0.2-0.2l0.2-0.2l0.2-0.2l0.2-0.2l0.2-0.2
				l0.2-0.2l0.2-0.2l0.1-0.2l0.1-0.2l0.1-0.2l0.1-0.2l0.1-0.2l0.1-0.2l0.1-0.2l0.1-0.2l0.1-0.2l0.1-0.2l0.1-0.2l0.1-0.2l0.1-0.2
				l0.1-0.2l0.1-0.2l0.1-0.2l0.1-0.2l0.1-0.2l0.1-0.2l0.1-0.2l0.1-0.2l0.1-0.2l0.1-0.2l0.1-0.2l0.1-0.2l0.1-0.2c0.4-1-1-1.7-1.6-0.8
				l0,0l-0.1,0.2l-0.1,0.2l-0.1,0.2l-0.1,0.2l-0.1,0.2l-0.1,0.2l-0.1,0.2l-0.1,0.2l-0.1,0.2l-0.1,0.2l-0.1,0.2l-0.1,0.2l-0.1,0.2
				l-0.1,0.2l-0.1,0.2l-0.1,0.2l-0.1,0.2l-0.1,0.2l-0.1,0.2l-0.1,0.2l-0.1,0.2l-0.1,0.2l-0.1,0.2l-0.1,0.2l-0.1,0.2l-0.1,0.2
				l-0.1,0.2l-0.1,0.2l-0.1,0.2l-0.1,0.2l-0.2,0.2l-0.2,0.2L366.7,403.9z"/>
		</g>
	</g>
</g>
</svg>
