<?xml version="1.0" encoding="utf-8"?>
<!-- Generator: Adobe Illustrator 22.0.1, SVG Export Plug-In . SVG Version: 6.00 Build 0)  -->
<svg version="1.1" id="Layer_1" xmlns="http://www.w3.org/2000/svg" xmlns:xlink="http://www.w3.org/1999/xlink" x="0px" y="0px"
	 viewBox="0 0 609.4 609.4" style="enable-background:new 0 0 609.4 609.4;" xml:space="preserve">
<style type="text/css">
	.st0{display:none;}
	.st1{display:inline;fill:#131313;}
	.st2{font-family:'Cairo-SemiBold';}
	.st3{font-size:92.8375px;}
	.st4{font-family:'Cairo-ExtraLight';}
	.st5{font-size:44.761px;}
	.st6{fill:#131313;}
	.st7{fill:#898B8B;}
	.st8{fill:#88898A;}
	.st9{fill:#114F92;}
	.st10{fill:#145093;}
	.st11{opacity:0.58;}
	.st12{fill:none;stroke:#131313;stroke-width:4;stroke-miterlimit:10;}
</style>
<text transform="matrix(1 0 0 1 82.2887 169.6055)" class="st0"><tspan x="0" y="0" class="st1 st2 st3">Blockchain </tspan><tspan x="108.1" y="53.7" class="st1 st4 st5">Specilization</tspan></text>
<g>
	<g>
		<path class="st6" d="M90.8,67.6h23.8c6.6,0,11.4,1.3,14.5,4c3.1,2.7,4.7,6.9,4.7,12.7c0,3.7-0.6,6.6-1.9,8.8
			c-1.2,2.2-3.2,4-5.9,5.4c3.2,1.2,5.6,3.1,7.2,5.5c1.6,2.4,2.4,5.6,2.4,9.7c0,11.9-6.7,17.8-20.1,17.8H90.8V67.6z M114.5,95.3
			c3.5,0,6-0.8,7.7-2.5c1.7-1.7,2.5-4.2,2.5-7.6c0-3.4-0.9-5.9-2.6-7.5c-1.7-1.6-4.4-2.4-8.1-2.4H99.7v20H114.5z M115.1,123.7
			c3.8,0,6.6-0.8,8.5-2.3c1.9-1.5,2.9-4.1,2.9-7.8c0-7.1-3.9-10.6-11.8-10.6h-15v20.7H115.1z"/>
		<path class="st6" d="M147.1,65.4h8.6v66.1h-8.6V65.4z"/>
		<path class="st6" d="M171.2,126.7c-3.2-3.9-4.7-9.9-4.7-18.2c0-8.5,1.6-14.7,4.8-18.6c3.2-3.9,8.4-5.8,15.5-5.8
			c7.2,0,12.4,2,15.6,5.9c3.2,3.9,4.8,10.1,4.8,18.5c0,8.2-1.6,14.3-4.7,18.2c-3.2,3.9-8.4,5.8-15.6,5.8S174.3,130.6,171.2,126.7z
			 M193.7,123.4c1.6-1.1,2.8-2.8,3.5-5.1c0.7-2.4,1-5.6,1-9.8c0-4.4-0.4-7.8-1.1-10.2c-0.7-2.4-1.9-4.1-3.5-5.2
			c-1.6-1-3.9-1.5-6.8-1.5c-2.9,0-5.2,0.5-6.9,1.5c-1.7,1-2.9,2.8-3.6,5.2c-0.7,2.4-1.1,5.8-1.1,10.2c0,4.1,0.3,7.4,1,9.8
			c0.7,2.4,1.9,4.1,3.5,5.2c1.7,1.1,4,1.6,7,1.6S192,124.4,193.7,123.4z"/>
		<path class="st6" d="M223.4,130c-2.8-1.7-4.7-4.3-5.9-7.8c-1.2-3.5-1.8-8.2-1.8-13.9c0-7.7,1.3-13.6,4-17.9
			c2.7-4.2,7.6-6.4,14.6-6.4c1.8,0,3.7,0.1,5.8,0.3c2,0.2,4.8,0.7,8.3,1.3l-0.3,6.9c-5.3-0.5-9-0.7-11.1-0.7c-3.3,0-5.8,0.5-7.6,1.5
			c-1.8,1-3,2.7-3.8,5c-0.7,2.4-1.1,5.7-1.1,10c0,4.2,0.4,7.5,1.1,9.7c0.7,2.3,2,4,3.8,5c1.8,1.1,4.4,1.6,7.9,1.6l11-0.8l0.3,7.1
			c-6.2,1.1-10.9,1.6-14,1.6C229.8,132.5,226.1,131.7,223.4,130z"/>
		<path class="st6" d="M258.4,65.4h8.6V104l6.5-0.6l12-18.4h9.7l-14.1,21.5l14.8,24.9h-9.7L273.7,111l-6.7,0.5v20.1h-8.6V65.4z"/>
		<path class="st6" d="M308.5,130c-2.8-1.7-4.7-4.3-5.9-7.8c-1.2-3.5-1.8-8.2-1.8-13.9c0-7.7,1.3-13.6,4-17.9
			c2.7-4.2,7.6-6.4,14.6-6.4c1.8,0,3.7,0.1,5.8,0.3c2,0.2,4.8,0.7,8.3,1.3l-0.3,6.9c-5.3-0.5-9-0.7-11.1-0.7c-3.3,0-5.8,0.5-7.6,1.5
			c-1.8,1-3,2.7-3.8,5c-0.7,2.4-1.1,5.7-1.1,10c0,4.2,0.4,7.5,1.1,9.7c0.7,2.3,2,4,3.8,5c1.8,1.1,4.4,1.6,7.9,1.6l11-0.8l0.3,7.1
			c-6.2,1.1-10.9,1.6-14,1.6C314.9,132.5,311.3,131.7,308.5,130z"/>
		<path class="st6" d="M343.6,65.4h8.6v22.2c2.7-1.2,5.1-2.1,7.2-2.7c2.2-0.6,4.4-0.8,6.7-0.8c4,0,7.1,0.8,9.3,2.3s3.8,3.9,4.7,7.2
			c0.9,3.3,1.4,7.7,1.4,13.3v24.7h-8.6V107c0-4-0.2-7.1-0.7-9.2c-0.5-2.1-1.4-3.6-2.7-4.5c-1.3-0.9-3.3-1.4-5.8-1.4
			c-3.2,0-6.4,0.6-9.8,1.8l-1.6,0.6v37.3h-8.6V65.4z"/>
		<path class="st6" d="M394.3,128.8c-2.3-2.5-3.4-6-3.4-10.7c0-4.6,1.2-7.9,3.5-10.1c2.4-2.1,6.1-3.4,11.2-3.9l13.2-1.2v-3.6
			c0-2.7-0.6-4.7-1.8-5.9c-1.2-1.2-2.9-1.8-5.2-1.8c-5.2,0-11.2,0.4-18,1.1l-0.3-6.3c6.6-1.5,12.7-2.3,18.3-2.3
			c5.4,0,9.4,1.2,11.9,3.7c2.5,2.4,3.7,6.3,3.7,11.6v22.4c0.1,1.2,0.5,2.2,1.3,2.8c0.7,0.6,1.8,1.1,3.4,1.3l-0.3,6.7
			c-2.7,0-4.9-0.3-6.8-0.9c-1.9-0.6-3.5-1.5-4.9-2.7c-5.3,2.4-10.5,3.6-15.8,3.6C400,132.5,396.6,131.3,394.3,128.8z M416.9,123.5
			l1.9-0.6v-13.6l-12.1,1.1c-2.4,0.2-4.2,1-5.3,2.2c-1.1,1.2-1.7,3-1.7,5.3c0,5,2.1,7.4,6.2,7.4
			C409.7,125.2,413.4,124.7,416.9,123.5z"/>
		<path class="st6" d="M440.7,66.6h8.5V76h-8.5V66.6z M440.7,85h8.6v46.4h-8.6V85z"/>
		<path class="st6" d="M462,85h8.5v3.1c2.7-1.5,5.1-2.5,7.2-3.2c2.2-0.6,4.5-0.9,6.9-0.9c3.9,0,7,0.8,9.2,2.3
			c2.2,1.5,3.8,3.9,4.7,7.2c0.9,3.2,1.4,7.7,1.4,13.2v24.7h-8.6V107c0-3.9-0.2-6.9-0.7-9.1c-0.5-2.1-1.3-3.7-2.6-4.6
			c-1.3-1-3.1-1.4-5.5-1.4c-3.3,0-6.7,0.7-10.3,2.1l-1.6,0.7v36.8H462V85z"/>
		<path class="st6" d="M194.9,185l-1.6-0.2l0.2-1.6c4.1,0.5,7.2,0.8,9.3,0.8c5.3,0,7.9-2.6,7.9-7.7c0-1.4-0.2-2.5-0.6-3.3
			c-0.4-0.8-1.1-1.4-2.2-1.9c-1.1-0.5-2.8-0.9-5-1.3c-2.5-0.4-4.5-0.9-5.8-1.5c-1.3-0.6-2.3-1.4-3-2.5c-0.6-1.1-1-2.6-1-4.6
			c0-2.6,0.8-4.6,2.4-5.9c1.6-1.3,4-1.9,7.4-1.9c2.6,0,5.6,0.2,8.9,0.7l-0.2,1.6c-4.5-0.5-7.4-0.8-8.8-0.8c-5.3,0-7.9,2.1-7.9,6.3
			c0,1.7,0.2,2.9,0.5,3.7c0.3,0.8,1.1,1.4,2.2,1.9c1.1,0.5,3,0.9,5.7,1.5c2.3,0.4,4,0.9,5.3,1.4c1.3,0.6,2.2,1.3,2.8,2.4
			c0.6,1,0.9,2.4,0.9,4.1c0,3.2-0.7,5.6-2.2,7.1c-1.5,1.5-3.9,2.3-7.2,2.3C201.2,185.5,198.5,185.3,194.9,185z"/>
		<path class="st6" d="M218.3,162.8h1.5v1.9c2.5-1.5,5.1-2.3,7.8-2.3c2.7,0,4.7,0.9,5.9,2.7c1.2,1.8,1.8,4.6,1.8,8.5
			c0,2.8-0.3,5.1-0.9,6.8c-0.6,1.7-1.7,3-3.1,3.8c-1.4,0.8-3.4,1.3-5.8,1.3c-1.9,0-3.7-0.2-5.6-0.6v10.5h-1.6V162.8z M231.9,181.8
			c1.2-1.6,1.8-4.3,1.8-7.9c0-3.6-0.5-6.1-1.5-7.7c-1-1.6-2.5-2.3-4.4-2.3c-1.1,0-2.4,0.2-3.7,0.6c-1.3,0.4-2.4,0.8-3.1,1.2
			l-1.1,0.6v17.3c1.2,0.2,2.4,0.3,3.4,0.5c1,0.1,1.9,0.2,2.7,0.2C228.7,184.2,230.7,183.4,231.9,181.8z"/>
		<path class="st6" d="M242.5,182.9c-1.3-1.8-2-4.5-2-8.3c0-4.2,0.7-7.3,2.2-9.2c1.4-2,3.7-3,6.9-3c2.9,0,5,0.9,6.4,2.6
			c1.4,1.7,2.1,4.4,2.1,8.1v1.5h-15.8c0,2.4,0.2,4.2,0.7,5.6c0.5,1.4,1.3,2.4,2.4,3c1.1,0.6,2.7,1,4.8,1c0.8,0,1.7,0,2.8-0.1
			c1.1-0.1,2.1-0.1,3-0.2l1.3-0.1l0.1,1.5c-3.6,0.2-6.2,0.4-7.7,0.4C246.2,185.6,243.9,184.7,242.5,182.9z M256.3,173.2
			c0-3.3-0.5-5.7-1.6-7.2s-2.8-2.2-5.1-2.2c-2.5,0-4.3,0.8-5.6,2.3c-1.3,1.5-1.9,3.9-1.9,7.1H256.3z"/>
		<path class="st6" d="M266.5,184.4c-1.3-0.8-2.2-2-2.7-3.7c-0.5-1.7-0.8-4-0.8-6.8c0-2.1,0.1-3.9,0.4-5.5c0.3-1.6,1-3,2.2-4.2
			c1.2-1.2,3.1-1.8,5.5-1.8c1,0,1.9,0,2.8,0.1c0.9,0.1,2.1,0.2,3.6,0.4l-0.1,1.4c-2.3-0.3-4.1-0.4-5.5-0.4c-1.9,0-3.3,0.3-4.4,0.9
			c-1,0.6-1.8,1.7-2.2,3.2c-0.4,1.5-0.7,3.6-0.7,6.2c0,2.5,0.2,4.5,0.6,5.9c0.4,1.4,1.2,2.5,2.3,3.1c1.1,0.7,2.6,1,4.7,1l5.3-0.4
			l0.1,1.4c-2.8,0.3-4.7,0.4-5.8,0.4C269.6,185.6,267.8,185.2,266.5,184.4z"/>
		<path class="st6" d="M283,153.8h1.5v2.5H283V153.8z M283.1,162.8h1.5v22.4h-1.5V162.8z"/>
		<path class="st6" d="M291.9,152.5h1.6v32.7h-1.6V152.5z"/>
		<path class="st6" d="M300.8,153.8h1.5v2.5h-1.5V153.8z M300.8,162.8h1.5v22.4h-1.5V162.8z"/>
		<path class="st6" d="M307.7,183.7l14.6-19.5h-14.6v-1.4h16.6v1.4l-14.6,19.5h14.6v1.4h-16.6V183.7z"/>
		<path class="st6" d="M329.9,183.9c-1-1.1-1.5-2.7-1.5-4.7c0-2,0.5-3.5,1.5-4.6c1-1.1,2.6-1.7,4.7-2l8.5-0.8v-2.3
			c0-1.8-0.4-3.2-1.2-4.1c-0.8-0.9-1.8-1.4-3.2-1.4c-1.3,0-2.5,0-3.5,0.1c-1,0.1-2.9,0.3-5.6,0.6l-0.1-1.5c3.1-0.5,5.9-0.8,8.5-0.8
			c2.3,0,4,0.6,5.1,1.7c1.1,1.1,1.6,2.9,1.6,5.3v12.9c0,0.4,0.3,0.8,0.9,1.2c0.6,0.3,1.4,0.6,2.4,0.7l-0.1,1.4c-1,0-1.9-0.2-2.8-0.5
			c-0.8-0.4-1.5-0.8-1.9-1.4c-3,1.3-6,2-9,2C332.4,185.6,330.9,185,329.9,183.9z M341.8,182.8l1.3-0.5v-9.1l-8.3,0.8
			c-1.6,0.1-2.8,0.6-3.6,1.4c-0.7,0.8-1.1,2-1.1,3.6c0,3.5,1.4,5.2,4.2,5.2C336.9,184.1,339.4,183.7,341.8,182.8z"/>
		<path class="st6" d="M355.4,184.9c-0.8-0.5-1.3-1.3-1.7-2.4s-0.5-2.8-0.5-4.9v-13.4h-3.5v-1.4h3.5v-7.3h1.5v7.3h8.2v1.4h-8.2V176
			c0,2.3,0.1,3.9,0.2,5c0.2,1.1,0.5,1.9,1.1,2.4c0.6,0.5,1.5,0.8,2.8,0.8l4.3-0.4l0.2,1.4c-2.4,0.2-4,0.4-4.8,0.4
			C357.3,185.6,356.2,185.4,355.4,184.9z"/>
		<path class="st6" d="M367.1,153.8h1.5v2.5h-1.5V153.8z M367.2,162.8h1.5v22.4h-1.5V162.8z"/>
		<path class="st6" d="M378,184.5c-1.3-0.7-2.2-1.8-2.7-3.4c-0.5-1.6-0.7-3.9-0.7-6.8c0-3.1,0.3-5.5,0.8-7.2s1.5-2.9,2.8-3.6
			s3.2-1.1,5.6-1.1s4.3,0.4,5.6,1.1s2.2,1.9,2.7,3.6c0.5,1.7,0.8,4.1,0.8,7.1c0,3-0.2,5.2-0.7,6.8c-0.5,1.6-1.4,2.7-2.7,3.4
			c-1.3,0.7-3.2,1.1-5.7,1.1C381.2,185.6,379.3,185.2,378,184.5z M388.4,183.2c1-0.6,1.7-1.6,2.1-3c0.4-1.4,0.5-3.3,0.5-6
			c0-2.8-0.2-5-0.6-6.4c-0.4-1.4-1.1-2.5-2.1-3.1c-1-0.6-2.6-0.9-4.6-0.9c-2.1,0-3.6,0.3-4.7,0.9c-1.1,0.6-1.8,1.6-2.2,3.1
			c-0.4,1.5-0.6,3.6-0.6,6.4c0,2.6,0.2,4.6,0.6,6c0.4,1.4,1.1,2.4,2.1,3c1.1,0.6,2.6,0.9,4.8,0.9S387.4,183.8,388.4,183.2z"/>
		<path class="st6" d="M398.9,162.8h1.5v1.8c1.5-0.8,2.9-1.4,4.2-1.7c1.3-0.3,2.6-0.5,3.9-0.5c1.9,0,3.4,0.3,4.4,1
			c1,0.7,1.7,1.8,2.1,3.4c0.4,1.6,0.6,3.9,0.6,6.8v11.6h-1.5v-11.6c0-2.6-0.1-4.5-0.4-5.9c-0.3-1.4-0.8-2.4-1.6-3
			c-0.8-0.6-1.9-0.9-3.3-0.9c-1.3,0-2.7,0.2-4.1,0.5c-1.4,0.4-2.4,0.7-3.2,1.1l-1.1,0.6v19.1h-1.6V162.8z"/>
	</g>
	<g>
		<g>
			<path class="st7" d="M253.4,514.7c-3-0.2-5.7-0.9-7.1-3.9c-0.3-0.6-0.8-1.3,0.2-1.7c0.8-0.4,1.4-0.2,1.7,0.7
				c0.8,2.8,6,4.1,8.9,1.9c2.2-1.7,1.9-4.9-0.7-5.9c-2.1-0.8-4.5-1.2-6.6-2c-2.6-0.9-3.7-3.1-3-5.7c0.2-0.7,0.5-1.3,1-1.8
				c2.8-3.2,9.6-2.5,11.7,1.1c0.3,0.5,0.7,1-0.1,1.4c-0.6,0.3-1,0.5-1.6-0.2c-1.7-2.2-4.2-2.8-6.9-2c-1.3,0.4-2.2,1.2-2.3,2.7
				c-0.1,1.4,0.8,2.2,2,2.7c2.2,0.9,4.6,1.1,6.8,2.1c1.9,0.8,3.1,2.2,3.2,4.3c0.2,2.2-0.7,3.9-2.5,5.1
				C256.6,514.3,255.1,514.8,253.4,514.7z"/>
			<path class="st8" d="M321.3,501.9c0,1.9,0.1,3.9,0,5.8c-0.2,4.2-2.5,6.7-6.2,6.9c-4.6,0.3-7.1-1.5-7.8-6
				c-0.7-4.4-0.1-8.9-0.3-13.3c0-0.8,0.4-1,1-1c0.7,0,1,0.4,1,1c0,2.1,0,4.1,0,6.2c0,2.3,0,4.5,0.2,6.8c0.2,2.7,1.9,4.1,4.8,4.3
				c2.7,0.1,4.6-1.2,5.1-4c0.7-3.9,0.2-7.9,0.3-11.8c0-0.5,0-1,0-1.5c0-0.7,0.3-1,1-1c0.8,0,1,0.4,1,1.1
				C321.3,497.7,321.3,499.8,321.3,501.9C321.3,501.9,321.3,501.9,321.3,501.9z"/>
			<path class="st7" d="M214.9,501.5c1.4-0.6,2.4-1.2,3.7-1.1c2.9,0.1,4.7,1.5,5.2,4.4c0.4,2.9,0.1,5.8,0.2,8.6c0,0.7-0.3,1-1,1
				c-0.8,0-1.1-0.4-1-1.2c0-2.4,0-4.8,0-7.2c0-2.6-1.1-3.7-3.4-3.7c-2.2,0-3.5,1.3-3.5,3.7c0,2.3,0,4.6,0,7c0,0.7,0,1.4-1,1.4
				c-1,0-1.1-0.6-1-1.4c0-5.8,0-11.5,0-17.3c0-0.7,0-1.4,1-1.4c1.1,0,1,0.7,1,1.4C214.9,497.7,214.9,499.5,214.9,501.5z"/>
			<path class="st7" d="M279,508.5c0.1,1.6,0.1,3.3,0.3,4.9c0.2,1.4-1.2,1.4-1.4,1.2c-0.9-1-1.6-0.3-2.4-0.1
				c-0.7,0.2-1.5,0.3-2.2,0.3c-2.6,0-4.6-1.9-4.6-4.2c0-2.3,1.9-4,4.5-4.1c0.7,0,1.4,0,2.1,0c0.8,0,1.8,0.1,1.9-1
				c0.2-1-0.1-2-1.1-2.6c-1.4-0.9-3.5-0.6-4.6,0.8c-0.6,0.8-1.2,0.8-1.9,0.3c-0.7-0.6,0-1.2,0.3-1.6c1.2-1.7,3.8-2.4,6.1-1.6
				c2.1,0.7,3,2,3,4.4C279.1,506.2,279.1,507.4,279,508.5C279,508.5,279,508.5,279,508.5z M277.1,509.6c-0.3-0.3,0.7-1.4-0.5-1.5
				c-1.3-0.1-2.6,0-3.9,0.2c-1.8,0.3-2.6,2.2-1.5,3.5c1.1,1.3,2.6,1.2,4.1,0.7C276.6,512.2,277.5,511.5,277.1,509.6z"/>
			<path class="st7" d="M360.8,508.3c-1.1,0-2.1,0.1-3.2,0c-1.4-0.1-1.4,0.6-1.1,1.6c0.7,2.8,3.8,3.8,6.5,2.2c0.6-0.4,1.2-1,1.8,0
				c0.7,1-0.3,1.3-0.8,1.7c-4,2.6-9.1,0.2-9.6-4.5c-0.2-1.9-0.2-3.7,0.6-5.5c1.2-2.8,4.2-4.1,7-3c2.3,0.8,4.2,4.4,3.6,6.8
				c-0.2,0.7-0.5,0.7-1.1,0.7C363.3,508.3,362.1,508.3,360.8,508.3z M359.9,506.4c0.7,0,1.5-0.1,2.2,0c1.6,0.2,1.6-0.7,1.2-1.8
				c-0.5-1.3-1.3-2.1-2.7-2.2c-1.5-0.1-2.7,0.3-3.5,1.6c-0.4,0.6-0.9,1.4-0.6,2.1c0.3,0.7,1.2,0.2,1.9,0.3
				C358.8,506.4,359.4,506.4,359.9,506.4z"/>
			<path class="st7" d="M294.5,508.3c-1,0-2,0.1-3,0c-1.9-0.2-1.8,0.8-1.4,2.1c0.8,2.4,3.9,3.3,6.4,1.8c0.7-0.4,1.2-0.9,1.8,0
				c0.7,1.1-0.4,1.3-0.9,1.7c-3.6,2.5-8.4,0.6-9.4-3.7c-0.4-1.8-0.4-3.6,0.1-5.4c1-3.3,3.8-4.9,7-4.1c2.6,0.7,4.5,4,3.9,6.9
				c-0.1,0.7-0.5,0.8-1,0.8C296.9,508.3,295.7,508.3,294.5,508.3z M293.6,506.4c0.8,0,1.5,0,2.3,0c1.2,0.1,1.3-0.4,1-1.5
				c-0.4-1.5-1.2-2.5-2.8-2.6c-1.5-0.1-2.8,0.4-3.7,1.8c-1,1.7-0.6,2.3,1.3,2.3C292.4,506.4,293,506.4,293.6,506.4z"/>
			<path class="st7" d="M232.7,508.3c-1,0-2,0.1-3,0c-1.8-0.2-1.8,0.8-1.4,2c0.8,2.5,3.8,3.3,6.4,1.8c0.7-0.4,1.2-1,1.8,0
				c0.7,1.1-0.4,1.3-0.9,1.7c-3.6,2.5-8.4,0.6-9.4-3.7c-0.5-2.3-0.4-4.6,0.7-6.8c1.3-2.5,4.4-3.6,7.1-2.5c2.2,0.9,3.9,4.6,3.2,6.8
				c-0.2,0.7-0.7,0.6-1.2,0.6C235,508.3,233.8,508.3,232.7,508.3z M231.6,506.4c0.4,0,0.9,0.1,1.3,0c0.8-0.2,2,0.6,2.3-0.5
				c0.2-1.1-0.4-2.2-1.3-2.9c-1.6-1.2-4.2-0.6-5.2,1.1c-0.3,0.6-0.7,1.3-0.4,1.9c0.3,0.7,1.1,0.3,1.7,0.4
				C230.5,506.4,231.1,506.4,231.6,506.4z"/>
			<path class="st7" d="M406.8,511.5c1.3-3.5,2.3-6.3,3.4-9.2c0.2-0.4,0.3-0.9,0.5-1.2c0.4-0.7,1.1-0.6,1.7-0.4
				c0.9,0.2,0.2,0.8,0.1,1.2c-1.9,5.3-3.9,10.6-5.9,15.9c-0.6,1.7-1.7,2.9-3.7,3c-0.5,0-1.1,0.1-1.1-0.7c0-0.5-0.1-1,0.7-1.3
				c2.2-0.7,3.5-3.5,2.6-5.7c-1.3-3.7-2.7-7.3-4-11c-0.1-0.4-1-1.2,0.1-1.5c0.7-0.2,1.4-0.1,1.8,0.9c0.9,2.6,1.9,5.2,2.8,7.8
				C406.2,509.9,406.4,510.4,406.8,511.5z"/>
			<path class="st7" d="M203,505.5c0-2.5-0.1-5,0-7.5c0-1.2-0.4-1.5-1.5-1.5c-1.2,0.1-2.4,0-3.6,0c-0.7,0-1.2-0.1-1.2-1
				c0-0.8,0.3-1.1,1.1-1.1c4.1,0,8.1,0,12.2,0c0.7,0,1.2,0.1,1.2,1c0,0.8-0.4,1.1-1.1,1.1c-1.1,0-2.3,0.1-3.4,0
				c-1.3-0.1-1.7,0.5-1.7,1.7c0.1,4.6,0.1,9.3,0,13.9c0,0.8,0.8,2.3-1,2.3c-2,0-1-1.6-1-2.4C202.9,509.9,203,507.7,203,505.5z"/>
			<path class="st7" d="M380.8,514.7c-1.5-0.1-3.2-0.7-4.3-2.7c-0.3-0.5-0.6-1,0.1-1.4c0.6-0.3,1.1-0.5,1.7,0.4
				c1.1,1.8,3.1,2.3,5.1,1.5c0.9-0.4,1.5-0.9,1.5-1.9c0-1-0.6-1.5-1.4-1.8c-1.3-0.5-2.6-0.8-3.9-1.2c-1.7-0.5-3.1-1.4-3-3.5
				c0.1-1.8,1.2-3,3.4-3.5c2.2-0.4,4.3-0.2,5.8,1.7c0.3,0.4,1,0.8,0.3,1.4c-0.5,0.4-1.1,0.7-1.8-0.1c-1.1-1.4-2.6-1.5-4.3-1.1
				c-0.8,0.2-1.4,0.6-1.5,1.5c-0.1,0.9,0.6,1.3,1.3,1.6c0.9,0.3,1.9,0.6,2.9,0.8c3.2,0.9,4.4,2.3,4.1,4.7
				C386.6,513.3,384.4,514.8,380.8,514.7z"/>
			<path class="st7" d="M323.6,507.5c0-1.9,0-3.9,0-5.8c0-1.3,1.2-1.5,1.6-1c0.9,1.1,1.5,0.3,2.2,0c3.5-1.3,6.9,0.8,7.1,4.5
				c0.1,2.6,0,5.3,0.1,7.9c0,0.7,0,1.2-1,1.2c-0.9,0-0.9-0.6-0.9-1.3c0-2.4,0-4.8,0-7.1c-0.1-2.5-1.2-3.7-3.5-3.7
				c-2,0-3.4,1.4-3.4,3.7c-0.1,2.3,0,4.6,0,7c0,0.8,0.1,1.5-1.1,1.5c-1.1,0-1-0.7-1-1.4C323.6,511.2,323.6,509.3,323.6,507.5z"/>
			<path class="st7" d="M347.6,511.3c1.3-3.4,2.4-6.3,3.5-9.2c0.1-0.4,0.2-0.7,0.4-1c0.4-0.6,1.1-0.6,1.7-0.4c0.8,0.3,0.2,0.9,0,1.2
				c-1.4,3.8-2.8,7.5-4.2,11.2c-0.3,0.7-0.5,1.4-1.5,1.3c-1,0-1.2-0.8-1.4-1.4c-1.4-3.6-2.7-7.2-4.1-10.9c-0.2-0.5-1-1.2,0.2-1.5
				c0.8-0.2,1.4,0,1.7,0.9c1,2.8,2,5.5,3.1,8.3C347.1,510.2,347.3,510.5,347.6,511.3z"/>
			<g>
				<path class="st7" d="M270,531.1c0,3.6,0,7.2,0,10.8c0,1.1,0,1.9-1.5,1.9c-1.5,0-1.7-0.6-1.7-1.9c0.1-5.4,0-10.8,0-16.2
					c0-0.7-0.5-1.7,0.7-1.9c1-0.1,2-0.4,2.8,0.9c2.3,3.8,4.7,7.6,7,11.4c0.1,0.2,0.3,0.4,0.5,0.6c0.6-0.3,0.3-0.9,0.3-1.3
					c0-3.4,0.1-6.8,0-10.2c0-1.2,0.4-1.5,1.5-1.5c0.9,0,1.7,0,1.7,1.3c-0.1,5.8,0,11.5,0,17.3c0,0.5,0.2,1.3-0.7,1.3
					c-1,0-2.1,0.4-2.8-0.9c-1.9-3.3-4-6.5-6-9.8c-0.4-0.7-0.9-1.4-1.3-2.1C270.4,531,270.2,531.1,270,531.1z"/>
				<path class="st8" d="M306,535c-1.1,2.9-2,5.2-2.8,7.5c-0.4,1-0.9,1.3-1.9,1.3c-1.1,0-1.4-0.5-1.7-1.4c-1.2-3.6-2.4-7.3-3.5-10.9
					c-0.2-0.6-1-1.6,0.3-1.7c0.9-0.1,2.1-0.6,2.6,1c0.7,2.3,1.5,4.6,2.3,7.2c1-0.9,1.1-2,1.4-2.9c0.6-1.4,1.1-2.8,1.6-4.2
					c0.3-1,1-1.1,1.8-1.1c0.9,0,1.3,0.4,1.6,1.2c0.8,2.4,1.8,4.8,2.8,7.6c0.9-2.8,1.7-5,2.4-7.2c0.5-1.4,1.7-2,3-1.5
					c0.7,0.2,0.4,0.6,0.3,1c-1.3,4-2.7,8.1-4,12.1c-0.3,0.9-0.9,0.9-1.6,0.9c-0.8,0-1.4-0.1-1.7-1C308,540.3,307.1,538,306,535z"/>
				<path class="st8" d="M290.8,538c-1,0-2,0-3,0c-1.4,0-1.7,0.5-0.9,1.8c0.8,1.3,3.2,1.9,4.7,0.9c1.2-0.8,1.9-0.3,2.7,0.3
					c0.6,0.4,0.7,0.8,0.1,1.3c-1.8,1.6-4,2.1-6.3,1.6c-2.3-0.5-3.8-1.8-4.4-4.1c-0.5-1.9-0.5-3.9,0-5.8c0.9-3.3,4.2-5,7.6-4.1
					c2.8,0.8,4.7,4.3,4,7.3c-0.2,0.8-0.6,0.8-1.2,0.8C292.9,538,291.8,538,290.8,538z M289.2,535.1c0.3,0,0.6,0.1,0.9,0
					c0.6-0.2,1.7,0.6,1.8-0.6c0.1-1-0.7-1.5-1.6-1.8c-0.8-0.3-1.6-0.2-2.4,0.2c-0.7,0.3-1.4,0.9-1.3,1.7c0.2,1,1.1,0.4,1.7,0.5
					C288.7,535.1,288.9,535.1,289.2,535.1z"/>
				<path class="st8" d="M362.7,535.2c0.6-1.1,1.4-2.2,1.9-3.4c0.8-1.9,2-2.5,4.1-2c-0.4,1.6-1.3,2.9-2.2,4.2c-1,1.5-0.9,2.6,0.2,4
					c1.4,1.7,2.7,3.6,4.1,5.5c-2.1,0.5-3.6,0.4-4.7-1.6c-1-1.8-2.3-3.4-3.7-5.4c-0.4,2.1-0.2,3.9-0.2,5.7c0,1.2-0.5,1.4-1.6,1.5
					c-1.2,0-1.5-0.4-1.5-1.5c0.1-5.7,0-11.3,0-17c0-1.1,0.2-1.5,1.4-1.6c1.3,0,1.6,0.4,1.6,1.6c-0.1,3.2,0,6.5,0,9.7
					C362.5,535.1,362.6,535.2,362.7,535.2z"/>
				<path class="st8" d="M330,533.3c1.5-2.9,2.8-5.4,4-8c0.6-1.2,1.3-1.6,2.6-1.6c1.3,0,1.6,0.3,1,1.5c-1.3,2.4-2.3,4.9-3.7,7.2
					c-1.7,3-2.8,6.1-2.3,9.6c0.2,1.3-0.2,1.7-1.6,1.7c-1.4,0-1.6-0.7-1.4-1.7c0.5-3.5-0.6-6.6-2.3-9.6c-1.2-2.1-2.3-4.3-3.3-6.5
					c-0.3-0.6-1.5-1.5-0.3-2c0.9-0.4,2.4-0.7,3.1,0.8c1,2.1,2.1,4.3,3.2,6.4C329.2,531.8,329.5,532.4,330,533.3z"/>
				<path class="st8" d="M335.3,537.3c0-6.1,4-9.2,8.8-7.2c1.5,0.6,2.5,1.7,3,3.2c0.7,2.3,0.8,4.6,0.1,6.8c-0.8,2.6-3.4,4.1-6.4,3.8
					c-3-0.3-4.9-2.1-5.3-5.1C335.3,538.2,335.3,537.5,335.3,537.3z M338.3,536.7c0,0.3,0,0.6,0,0.9c0.1,2.4,0.8,3.4,2.8,3.5
					c2.2,0.1,3-0.6,3.5-3.2c0.2-1,0-2-0.1-3c-0.2-1.5-1.1-2.2-2.5-2.4C339.5,532.1,338.3,533.5,338.3,536.7z"/>
				<path class="st7" d="M238.6,537c0.1-1.3,0.2-2.5,0.6-3.6c0.9-2.5,2.5-3.6,5.5-3.6c2.8,0,4.4,1.2,5.2,3.7c0.6,2,0.7,4.1,0.2,6.1
					c-0.6,2.9-2.7,4.5-5.6,4.5c-3,0-5-1.7-5.6-4.8C238.7,538.5,238.7,537.7,238.6,537z M248.3,536.8c0-0.3,0-0.6,0-0.9
					c-0.1-2.9-1.4-4.2-3.9-4.2c-2.4,0-3.6,1.3-3.7,4.2c0,1,0,2,0.1,3c0.3,2.5,2.2,3.8,4.7,3.2C247.6,541.5,248.3,540.2,248.3,536.8z
					"/>
				<path class="st7" d="M349.3,536.9c0-1.9,0.1-3.8,0-5.6c0-1.1,0.3-1.6,1.5-1.5c1.8,0.1,3.7,0,5.5,0.1c0.6,0,1.8,0,1.4,1.2
					c-0.3,0.8-0.3,2-1.9,1.7c-2.6-0.5-3.5,0.4-3.5,3.1c0,2.3,0,4.5,0,6.8c0,1.1-0.5,1.2-1.4,1.2c-0.8,0-1.7,0.1-1.6-1.2
					C349.4,540.7,349.3,538.8,349.3,536.9z"/>
				<path class="st8" d="M253.2,537.8c0-1.4,0-2.9,0-4.3c0-0.6,0.2-1.3-0.7-1.7c-0.7-0.3-0.7-1.4-0.2-1.7c1.1-0.4,0.8-1.2,0.9-2
					c0.3-2.2,1.5-3.6,3.6-4.1c0.6-0.1,1.4-0.7,1.6,0.5c0.2,0.9-0.2,1.3-1.1,1.4c-0.9,0.1-1.5,0.6-1.8,1.4c-0.7,1.7-0.4,2.4,1.5,2.6
					c0.6,0.1,1.1,0.2,1.1,1c0,0.9-0.5,1.1-1.2,1c-1.7-0.3-1.8,0.8-1.7,2c0.1,2.8,0,5.6,0,8.5c0,0.7,0.1,1.4-1,1.4
					c-1.1,0-0.9-0.8-0.9-1.4C253.2,540.8,253.2,539.3,253.2,537.8z"/>
			</g>
			<path class="st7" d="M395.2,507.5c0-1.1,0-2.3,0-3.4c0-0.8,0.1-1.7-1.2-1.6c-0.6,0-0.7-0.4-0.7-0.9c0-0.4-0.1-1.1,0.5-1.1
				c1.9,0,1.3-1.4,1.4-2.4c0.1-0.6-0.3-1.4,0.5-1.6c1-0.3,1.5,0.1,1.5,1.2c0,1.2-0.6,2.8,1.6,2.8c0.5,0,0.4,0.7,0.4,1.1
				c0,0.5-0.2,0.9-0.8,0.8c-1.3-0.1-1.4,0.7-1.3,1.7c0,2.1,0,4.1,0,6.2c0,0.9-0.2,1.9,1.2,2.1c0.8,0.1,0.5,0.9,0.5,1.4
				c-0.1,0.7-0.6,0.5-1,0.4c-1.8-0.1-2.5-1.3-2.6-2.9C395.1,510.2,395.2,508.9,395.2,507.5C395.2,507.5,395.2,507.5,395.2,507.5z"/>
			<path class="st7" d="M263.2,507.5c0-1.1,0-2.1,0-3.2c0-0.9,0.2-1.8-1.2-1.8c-0.6,0-0.6-0.5-0.6-0.9c0-0.4,0-1,0.6-1
				c1.5,0,1.2-1,1.3-1.9c0.1-0.8-0.7-2.1,1-2.1c1.5,0,0.8,1.3,0.9,2c0.1,1-0.2,2.1,1.4,1.9c0.5-0.1,0.7,0.4,0.7,0.9
				c0,0.5-0.1,1.1-0.7,1.1c-1.5-0.1-1.4,0.8-1.4,1.8c0,2.2,0,4.4,0,6.6c0,0.8,0,1.5,1.1,1.6c0.8,0.1,0.7,0.7,0.7,1.3
				c-0.1,0.7-0.7,0.6-1.2,0.6c-1.6-0.1-2.3-1.1-2.4-2.6C263.2,510.4,263.2,508.9,263.2,507.5C263.2,507.5,263.2,507.5,263.2,507.5z"
				/>
			<path class="st7" d="M282.5,507.6c0-1,0-2,0-3c0-0.9,0.4-2.1-1.3-2c-0.6,0-0.6-0.6-0.6-1c0-0.4,0-0.9,0.4-0.9
				c1.9,0,1.4-1.3,1.4-2.3c0-0.5-0.2-1.2,0.3-1.6c0.3-0.2,0.8-0.2,1.1-0.1c0.7,0.2,0.4,0.8,0.4,1.3c0.1,1.2-0.6,2.8,1.7,2.7
				c0.6,0,0.5,0.6,0.5,1c0,0.6-0.2,1-0.9,0.9c-1.3-0.2-1.4,0.6-1.4,1.6c0,2.1,0,4.3,0,6.4c0,0.9,0,1.8,1.2,1.9
				c0.8,0.1,0.6,0.8,0.6,1.3c0,0.6-0.6,0.5-1,0.5c-1.5,0-2.5-1.1-2.6-2.9C282.5,510.2,282.5,508.9,282.5,507.6
				C282.5,507.6,282.5,507.6,282.5,507.6z"/>
			<path class="st7" d="M367.8,507.6c0-1.9,0-3.9,0-5.8c0-0.7,0.4-1.5,1-1.1c1.3,0.7,2.2-0.1,3.3-0.2c0.9-0.1,1.9-0.2,2.8,0.2
				c0.5,0.2,0.8,0.5,0.6,1.1c-0.2,0.5-0.4,0.8-1.1,0.7c-3.9-0.3-4.6,0.4-4.6,4.3c0,2.1,0,4.3,0,6.4c0,0.7-0.1,1.2-1,1.2
				c-0.9,0-1-0.5-1-1.2C367.8,511.3,367.8,509.4,367.8,507.6z"/>
			<path class="st7" d="M389.2,507.6c0-1.9,0-3.9,0-5.8c0-0.7,0.1-1.2,1-1.2c0.8,0,1.1,0.3,1.1,1.1c0,3.9,0,7.7,0,11.6
				c0,0.7-0.2,1.2-1,1.2c-1,0-1.1-0.5-1.1-1.3C389.2,511.3,389.2,509.4,389.2,507.6z"/>
			<path class="st8" d="M339.4,507.7c0,1.8,0,3.6,0,5.4c0,0.7-0.1,1.2-1,1.2c-0.9,0-1-0.6-1-1.2c0-3.8,0-7.5,0-11.3
				c0-0.7,0.1-1.2,1-1.2c0.9,0,1,0.6,1,1.2C339.4,503.9,339.4,505.8,339.4,507.7z"/>
			<path class="st7" d="M338.4,494.3c0.9,0.1,1.4,0.5,1.3,1.3c0,0.8-0.5,1.2-1.2,1.2c-0.8,0.1-1.3-0.5-1.4-1.2
				C337.2,494.9,337.7,494.4,338.4,494.3z"/>
			<path class="st7" d="M390.3,496.9c-0.8-0.2-1.4-0.6-1.3-1.4c0-0.8,0.6-1.2,1.4-1.2c0.7,0,1.2,0.5,1.2,1.2
				C391.5,496.3,391,496.8,390.3,496.9z"/>
		</g>
		<g>
			<path class="st9" d="M313,255.9c2.2,0.8,4.6,0.7,6.9,1c46.7,6.6,84.1,41.6,93.6,87.5c11.9,57.5-22.8,114.1-79.5,129.8
				c-61.1,16.9-124.7-21.7-137.9-83.6c-11.4-53.6,16.7-106.3,67.6-126.9c10.1-4.1,20.5-6.4,31.4-7.4c0.5,0,1,0.2,1.3-0.4
				C301.9,255.9,307.5,255.9,313,255.9z M304.8,265.7c-55.9,0-101.2,45.2-101.4,101.1c-0.2,55.8,45.1,101.3,101.1,101.4
				c55.7,0.2,101.2-45.2,101.4-101.1C406.1,311.3,360.7,265.7,304.8,265.7z"/>
			<path class="st10" d="M343.8,345c0,3.9,0,7.8,0,11.7c0,12.1,0,24.1,0,36.2c0,1.6-0.5,1.8-2,2c-3.9,0.6-6-1.1-7.9-4.4
				c-5.7-9.9-11.8-19.5-17.8-29.2c-0.3-0.5-0.4-1-1.2-1.4c0,0.7,0,1.3,0,1.9c0,10.4,0,20.8,0,31.3c0,1.4-0.3,1.9-1.7,1.8
				c-2-0.2-4.6,0.8-5.8-0.4c-1.1-1.2-0.3-3.7-0.3-5.6c0-14.4,0-28.8-0.1-43.1c0-1.7,0.5-1.9,2.1-2.1c3.8-0.5,6,1,7.9,4.3
				c5.6,9.7,11.7,19.2,17.6,28.7c0.3,0.6,0.7,1.1,1.4,2c0-1,0.1-1.6,0.1-2.2c0-10.4,0-20.7,0-31.1c0-1.4,0.3-1.8,1.7-1.8
				c4.3,0.1,8.5,0.1,12.8,0c1.3,0,1.9,0.4,2.4,1.5c3.4,6.9,6.8,13.8,10.2,20.7c0.3,0.7,0.7,1.3,1.1,2.2c0.4-0.8,0.8-1.3,1.1-1.9
				c3.5-7,7.1-14,10.5-21c0.5-1.1,1.1-1.6,2.4-1.5c2.2,0.1,4.4,0,6.6,0c0.2,0.8-0.3,1.4-0.6,1.9c-5.1,10.2-10.2,20.5-15.3,30.7
				c-0.5,0.9-0.7,1.8-0.7,2.9c0,4.6,0,9.3,0,13.9c0,1.2-0.2,1.9-1.6,1.7c-2-0.2-4.8,0.9-5.9-0.4c-1-1.1-0.5-3.8-0.3-5.8
				c0.8-7.6-1.1-14.4-4.9-21.1c-3.9-6.8-7.1-13.9-10.6-20.9c-0.3-0.5-0.6-1.1-0.9-1.6C344,345,343.9,345,343.8,345z"/>
			<path class="st10" d="M242.6,396.2c-3.5,0-7.2-0.5-10.6-2c-4.4-2-7-5.5-8.2-10.1c-0.1-0.5-0.6-1.6,0.6-1.5c1,0.1,2.4-1.4,3,0.5
				c1.9,6.8,7.2,8.9,13.4,9.5c3.6,0.4,7.1,0,10.5-1.5c5.1-2.3,7.6-7.2,6.4-12.4c-0.8-3.2-3-5.1-5.9-6.4c-3.7-1.7-7.6-2.4-11.5-3.4
				c-3.2-0.8-6.3-1.7-9.3-3.3c-7.7-4.1-6.6-15.3-0.8-19.2c4.1-2.8,8.6-3.6,13.4-3.3c6.6,0.4,12.1,2.8,15.5,8.9
				c0.4,0.6,0.9,1.4-0.2,1.8c-0.9,0.2-1.9,1.9-2.9,0c-2.5-4.6-6.6-6.5-11.5-7c-3.2-0.3-6.4-0.1-9.4,1.1c-3.7,1.4-5.7,4.1-5.8,7.8
				c-0.1,3.7,1.9,6.1,5.2,7.6c4.1,1.9,8.6,2.5,12.9,3.8c2.2,0.6,4.4,1.3,6.5,2.3c4.3,2,7.1,5.1,7.7,10.1c0.6,5.6-1.2,10.1-5.8,13.4
				C251.7,395.4,247.4,396.2,242.6,396.2z"/>
			<path class="st10" d="M268.2,361c0,5.2-0.1,10.4,0,15.6c0,2.4,0.5,4.8,1.4,7.2c2.4,6.4,7.9,9.6,15.3,8.7
				c7.6-0.9,11.7-5.2,12.7-13.2c0.5-3.6,0.4-7.1,0.4-10.7c0-7.8,0.1-15.7,0-23.5c0-1.9,1-1.6,2.1-1.7c1.3-0.1,1.7,0.3,1.7,1.6
				c-0.1,9.5,0,19-0.1,28.4c0,4.4-0.4,8.9-2.2,13.1c-2.6,5.9-7.2,8.9-13.5,9.5c-4.9,0.5-9.7,0-13.8-2.8c-4.8-3.3-6.7-8.3-7.3-13.9
				c-0.9-8.7-0.2-17.4-0.4-26.1c-0.1-2.8,0.1-5.5-0.1-8.3c-0.1-1.5,0.7-1.5,1.8-1.5c1.2,0,1.8,0.1,1.8,1.6c-0.1,5.3,0,10.7,0,16
				C268,361,268.1,361,268.2,361z"/>
		</g>
	</g>
	<g>
		<g class="st11">
			<polyline class="st12" points="50.9,167.7 50.9,219.9 558.5,219.9 558.5,167.7 			"/>
			<g>
				<polygon class="st6" points="36.1,178.9 50.9,172.6 65.7,178.9 50.9,143.8 				"/>
			</g>
			<g>
				<polygon class="st6" points="573.3,178.9 558.5,172.6 543.7,178.9 558.5,143.8 				"/>
			</g>
		</g>
	</g>
</g>
</svg>
