<?xml version="1.0" encoding="utf-8"?>
<!-- Generator: Adobe Illustrator 22.0.1, SVG Export Plug-In . SVG Version: 6.00 Build 0)  -->
<svg version="1.1" id="Layer_1" xmlns="http://www.w3.org/2000/svg" xmlns:xlink="http://www.w3.org/1999/xlink" x="0px" y="0px"
	 viewBox="0 0 609.4 260.7" style="enable-background:new 0 0 609.4 260.7;" xml:space="preserve">
<style type="text/css">
	.st0{opacity:0.83;}
	.st1{fill:none;stroke:#000000;stroke-width:3;stroke-miterlimit:10;}
	.st2{fill:#0A6AB1;}
	.st3{fill:#0C6AB1;}
	.st4{display:none;}
	.st5{display:inline;}
	.st6{font-family:'Cairo-ExtraLight';}
	.st7{font-size:27px;}
</style>
<g>
	<g class="st0">
		<line class="st1" x1="57.8" y1="25.1" x2="551.6" y2="25.1"/>
		<g>
			<path d="M58.2,33.5c-4.7,0-8.5-3.8-8.5-8.5c0-4.7,3.8-8.5,8.5-8.5c4.7,0,8.5,3.8,8.5,8.5C66.7,29.7,62.9,33.5,58.2,33.5z"/>
		</g>
		<g>
			<path d="M551.2,33.5c4.7,0,8.5-3.8,8.5-8.5c0-4.7-3.8-8.5-8.5-8.5c-4.7,0-8.5,3.8-8.5,8.5C542.8,29.7,546.5,33.5,551.2,33.5z"/>
		</g>
	</g>
</g>
<g>
	<g>
		<path class="st2" d="M185.1,120.2c1,1,1.9,1.9,2.9,2.7c4.6,3.8,9.7,5,15.3,2.7c4.7-2,7.4-6.4,6.9-11c-0.5-4.5-4.1-8.3-8.9-9.5
			c-5.6-1.3-11.1,0.9-14.2,5.8c-3,4.8-5.4,9.9-8.2,14.9c-1.4,2.4-2.6,4.9-4.6,7c-4.3,4.4-9.6,6.7-15.6,7.4c-6.4,0.7-12.7,0-18.3-3.4
			c-8.4-5.1-12.9-12.5-12.1-22.5c0.8-9.9,6-17.1,15.1-20.9c9-3.8,18-3.1,26.6,1.8c0.8,0.4,0.9,0.8,0.4,1.6
			c-2.2,3.8-4.3,7.7-6.5,11.6c-1.8-1.7-3.9-2.8-6.3-3.2c-4.8-0.8-9.1,0-12.4,3.9c-4.6,5.4-2.4,14,4.4,16.6c5.3,2,10.3,1.4,14.5-2.7
			c2-1.9,3-4.5,4.2-6.9c2.1-4,3.8-8.2,6.2-12.1c5-8.1,12.4-12.3,21.9-12.9c7-0.5,13.5,1.1,19.1,5.6c13.6,10.7,13.2,32.2-5.1,41
			c-9.4,4.5-18.9,3.8-27.8-1.9c-1.3-0.8-2.4-2-3.5-3c-0.3-0.2-0.4-0.5-0.2-0.8C180.9,128,183,124.1,185.1,120.2z"/>
		<path class="st2" d="M465.2,97.6c0-1.3,0-2.3,0-3.3c0-0.6,0.2-0.8,0.8-0.8c4.8,0,9.6,0,14.5,0c0.9,0,0.8,0.5,0.8,1.1
			c0,10.1,0,20.2,0,30.2c0,3.9,0,7.9,0,11.8c0,0.7-0.1,1-1,1c-4.7,0-9.5,0-14.2,0c-0.8,0-0.9-0.3-0.9-0.9c0-1.2,0-2.4,0-3.6
			c-0.4-0.2-0.4,0.1-0.6,0.3c-2.9,3.6-6.8,5.2-11.2,5.6c-12.7,1.2-23.1-7.7-24.7-20.3c-1.4-11.2,4.6-21.7,14.8-25.2
			c6.7-2.3,13.2-1.8,19.3,2.3C463.6,96.2,464.3,96.8,465.2,97.6z M455.8,105.7c-3.6,0-6.4,1-8.4,3.6c-2.5,3.2-2.8,6.8-1.3,10.5
			c1.5,3.8,4.7,5.4,8.6,5.6c3.5,0.2,6.8-0.6,9-3.6c2.5-3.3,2.8-7,1-10.7C462.9,107.2,459.6,105.8,455.8,105.7z"/>
		<path class="st2" d="M347,116.2c0.1-7.2,1.9-12.9,6.6-17.5c3.1-3.1,6.9-4.9,11.2-5.8c5.6-1.2,11.1-1.2,16.6,0.5
			c8.4,2.6,13.2,8.4,14.9,16.9c0.5,2.2,0.5,4.5,0.6,6.8c0,0.9-0.3,1.1-1.1,1.1c-10.4,0-20.9,0-31.3,0c-1.1,0-1.4,0.3-1.3,1.3
			c0.3,4.9,3.6,8.1,8.7,8.3c1.1,0.1,2.3,0.1,3.4-0.1c2.1-0.4,3.8-1.3,5-3.1c0.4-0.6,0.8-0.7,1.4-0.7c4.5,0,9,0,13.5,0
			c1,0,1.1,0.2,0.8,1.1c-1.7,5.4-5.3,9.2-10.4,11.5c-8.9,3.8-17.9,3.6-26.6-0.6C350.6,131.8,347.1,124.6,347,116.2z M372.6,109.1
			c2.6,0,5.2,0,7.8,0c1.6,0,1.6-0.1,1-1.6c-1.6-3.6-5.8-5.8-10-5.2c-3.6,0.5-6.4,2.2-7.7,5.8c-0.3,0.7-0.2,1,0.7,1
			C367.1,109.1,369.8,109.1,372.6,109.1z"/>
		<path class="st3" d="M227.4,108.6c0-5.3,0-9.7,0-14.1c0-0.8,0.2-1.1,1-1.1c4.5,0,9,0,13.5,0c0.8,0,1,0.2,1,1.1
			c0,7.9,0,15.9,0,23.8c0,2.6,0.7,4.9,3.1,6.4c3.6,2.2,8.8,0.8,10.2-2.8c0.5-1.2,0.6-2.6,0.6-3.9c0-7.8,0-15.6,0-23.4
			c0-1,0.3-1.3,1.3-1.3c4.4,0,8.8,0,13.2,0c0.8,0,1.1,0.2,1.1,1.1c0,7.9,0,15.9,0,23.8c0,3-0.4,6-1.5,8.9c-2.1,5.5-6,9-11.6,10.5
			c-6.3,1.7-12.6,1.8-18.8,0c-7.2-2-11.9-7.7-12.7-15.1C227.1,117.7,227.6,112.7,227.4,108.6z"/>
		<path class="st2" d="M323.6,139c-6.2-0.1-12-1.6-17.4-4.6c-0.7-0.4-0.9-0.6-0.4-1.4c1.7-3.1,3.4-6.2,5-9.3
			c0.4-0.7,0.6-0.7,1.2-0.3c3.5,2.1,7.3,3.7,11.4,4c1.3,0.1,2.6-0.1,3.8-0.8c2.2-1.2,2.2-3.7,0.1-5c-1.7-1-3.7-1.3-5.7-1.7
			c-1.9-0.4-3.9-0.8-5.7-1.6c-5.3-2.1-7.3-5.9-7.1-11.2c0.3-6.8,4.2-11.5,11.1-13.7c7.8-2.5,15.5-1.7,23.1,1.1
			c0.6,0.2,0.6,0.4,0.3,0.9c-1.6,2.9-3.2,5.8-4.7,8.7c-0.3,0.5-0.5,0.6-1,0.4c-2.3-1.1-4.8-1.7-7.4-1.9c-1.5-0.1-2.9,0.1-4.1,0.9
			c-1.9,1.1-1.9,3.1-0.1,4.2c1.4,0.9,3,1.2,4.6,1.4c2.7,0.5,5.3,1.1,7.8,2.3c5.5,2.8,7.3,7.3,6.5,13.2c-0.9,6.9-5.5,10.6-11.6,12.7
			C330,138.6,326.8,139,323.6,139z"/>
		<path class="st2" d="M291.9,100.5c1.1-1.3,2.1-2.6,3.3-3.7c2.8-2.4,6.2-3.5,9.8-3.8c1.4-0.1,2.7,0,4.1-0.1c0.5,0,0.7,0.2,0.7,0.7
			c0,1.6,0,3-1.1,4.4c-1.8,2.2-2.6,4.8-2.8,7.6c-0.1,0.8-0.3,1.1-1.1,1c-1.5-0.2-3-0.2-4.5,0.1c-4.7,0.8-7.4,3.8-8.1,8.9
			c-0.2,1.4-0.3,2.7-0.3,4.1c0,5.6,0,11.3,0,16.9c0,0.8-0.2,1-1,1c-4.7,0-9.5,0-14.2,0c-0.7,0-0.9-0.2-0.9-0.9c0-14.1,0-28.2,0-42.2
			c0-0.7,0.2-0.9,0.9-0.9c4.7,0,9.5,0,14.2,0c0.8,0,1,0.3,1,1C291.8,96.5,291.9,98.5,291.9,100.5z"/>
		<path class="st3" d="M415.4,100.4c0.9-0.9,1.6-1.9,2.4-2.8c3.2-3.2,7.1-4.5,11.6-4.6c1,0,2,0,3,0c0.8-0.1,0.9,0.3,0.9,1
			c0.1,1.6-0.2,2.9-1.4,4.1c-2.1,2.2-3.5,4.9-4.6,7.7c-0.2,0.5-0.4,0.9-1.1,0.8c-7.8,0-10.4,4.7-10.7,10.7c-0.3,6.3-0.1,12.6-0.1,19
			c0,1-0.2,1.3-1.2,1.3c-4.6-0.1-9.2,0-13.8,0c-0.8,0-1.1-0.1-1.1-1c0-14,0-28,0-42c0-0.8,0.2-1.1,1-1c4.7,0,9.3,0,14,0
			c0.9,0,1.1,0.3,1,1.1C415.4,96.5,415.4,98.5,415.4,100.4z"/>
	</g>
	<text transform="matrix(1 0 0 1 192.9063 177.584)" class="st4"><tspan x="0" y="0" class="st5 st6 st7">Currently Enrolled in</tspan><tspan x="-42.4" y="32.4" class="st5 st6 st7">Two Specilization Programs</tspan></text>
	<g>
		<path d="M198.4,176.7c-1-0.7-1.7-1.8-2.1-3.2s-0.6-3.2-0.6-5.5c0-2.1,0.2-3.8,0.5-5.2c0.3-1.4,1-2.4,2-3.2c1-0.8,2.5-1.2,4.4-1.2
			c1.3,0,2.9,0.2,4.8,0.5l-0.1,0.9c-1.9-0.4-3.5-0.5-4.9-0.5c-1.6,0-2.8,0.3-3.6,0.9c-0.8,0.6-1.4,1.5-1.6,2.8
			c-0.3,1.3-0.4,3.2-0.4,5.7c0,1.9,0.1,3.4,0.4,4.5c0.3,1.1,0.9,2,1.8,2.6c0.9,0.6,2.2,0.9,3.9,0.9c1.2,0,2.7-0.2,4.5-0.6l0.1,0.9
			c-1.9,0.4-3.5,0.5-4.8,0.5C200.9,177.8,199.4,177.5,198.4,176.7z"/>
		<path d="M211.9,177.2c-0.6-0.4-1-1.1-1.2-2c-0.2-0.9-0.4-2.3-0.4-4.1v-7h0.9v6.9c0,1.6,0.1,2.8,0.3,3.6c0.2,0.8,0.5,1.4,1,1.8
			c0.5,0.4,1.2,0.5,2.1,0.5c0.9,0,1.7-0.1,2.5-0.4c0.8-0.2,1.5-0.6,2.1-1v-11.5h1v13.5h-1v-1.1c-0.7,0.5-1.4,0.8-2.1,1
			c-0.7,0.2-1.5,0.3-2.5,0.3C213.4,177.8,212.5,177.6,211.9,177.2z"/>
		<path d="M224.4,164.1h0.9v2.1c1.6-1.2,3.4-2,5.4-2.4v1c-0.8,0.1-1.6,0.4-2.6,0.8s-1.6,0.7-2,1.1l-0.8,0.5v10.5h-0.9V164.1z"/>
		<path d="M233.3,164.1h0.9v2.1c1.6-1.2,3.4-2,5.4-2.4v1c-0.8,0.1-1.6,0.4-2.6,0.8s-1.6,0.7-2,1.1l-0.8,0.5v10.5h-0.9V164.1z"/>
		<path d="M242.4,176.2c-0.8-1.1-1.2-2.7-1.2-5c0-2.5,0.4-4.4,1.3-5.6s2.3-1.8,4.1-1.8c1.7,0,3,0.5,3.8,1.6c0.8,1,1.2,2.7,1.2,4.9
			v0.9h-9.6c0,1.4,0.1,2.5,0.4,3.4c0.3,0.8,0.8,1.4,1.5,1.8c0.7,0.4,1.6,0.6,2.9,0.6c0.5,0,1,0,1.7-0.1c0.6,0,1.2-0.1,1.8-0.1
			l0.8-0.1l0.1,0.9c-2.2,0.1-3.7,0.2-4.6,0.2C244.6,177.8,243.2,177.3,242.4,176.2z M250.7,170.3c0-2-0.3-3.4-1-4.3
			c-0.6-0.9-1.7-1.3-3.1-1.3c-1.5,0-2.6,0.5-3.4,1.4c-0.8,0.9-1.1,2.3-1.2,4.3H250.7z"/>
		<path d="M255.2,164.1h0.9v1.1c0.9-0.5,1.8-0.8,2.5-1c0.8-0.2,1.6-0.3,2.4-0.3c1.2,0,2.1,0.2,2.7,0.6c0.6,0.4,1,1.1,1.3,2
			c0.2,1,0.4,2.3,0.4,4.1v7h-0.9v-7c0-1.5-0.1-2.7-0.3-3.6c-0.2-0.8-0.5-1.4-0.9-1.8c-0.5-0.4-1.1-0.5-2-0.5c-0.8,0-1.6,0.1-2.5,0.3
			c-0.8,0.2-1.5,0.4-1.9,0.7l-0.6,0.4v11.5h-0.9V164.1z"/>
		<path d="M271.4,177.4c-0.5-0.3-0.8-0.8-1-1.4s-0.3-1.7-0.3-2.9v-8.1H268v-0.9h2.1v-4.4h0.9v4.4h4.9v0.9H271v7.1c0,1.4,0,2.4,0.1,3
			c0.1,0.7,0.3,1.1,0.7,1.5c0.3,0.3,0.9,0.5,1.7,0.5l2.6-0.2l0.1,0.9c-1.5,0.1-2.4,0.2-2.9,0.2C272.6,177.9,271.9,177.7,271.4,177.4
			z"/>
		<path d="M278.7,157.9h0.9v19.7h-0.9V157.9z"/>
		<path d="M288.1,177.6h-1.6l-4.2-13.5h1l4,12.6h1.1l4.1-12.6h1l-6.2,19.7h-1L288.1,177.6z"/>
		<path d="M303.6,167.5h8.4v0.9h-8.4v8.3h10v0.9h-11v-18.9h11v0.9h-10V167.5z"/>
		<path d="M317.1,164.1h0.9v1.1c0.9-0.5,1.8-0.8,2.5-1c0.8-0.2,1.6-0.3,2.4-0.3c1.2,0,2.1,0.2,2.7,0.6c0.6,0.4,1,1.1,1.3,2
			c0.2,1,0.4,2.3,0.4,4.1v7h-0.9v-7c0-1.5-0.1-2.7-0.3-3.6c-0.2-0.8-0.5-1.4-0.9-1.8c-0.5-0.4-1.1-0.5-2-0.5c-0.8,0-1.6,0.1-2.5,0.3
			c-0.8,0.2-1.5,0.4-1.9,0.7l-0.6,0.4v11.5h-0.9V164.1z"/>
		<path d="M331.3,164.1h0.9v2.1c1.6-1.2,3.4-2,5.4-2.4v1c-0.8,0.1-1.6,0.4-2.6,0.8c-0.9,0.4-1.6,0.7-2,1.1l-0.8,0.5v10.5h-0.9V164.1
			z"/>
		<path d="M341.3,177.2c-0.8-0.4-1.3-1.1-1.6-2.1c-0.3-1-0.4-2.3-0.4-4.1c0-1.9,0.2-3.3,0.5-4.3c0.3-1,0.9-1.7,1.7-2.2
			c0.8-0.4,1.9-0.6,3.4-0.6s2.6,0.2,3.4,0.7c0.8,0.4,1.3,1.2,1.6,2.2c0.3,1,0.5,2.5,0.5,4.3c0,1.8-0.1,3.1-0.4,4.1s-0.8,1.6-1.6,2.1
			c-0.8,0.4-1.9,0.6-3.4,0.6S342.1,177.6,341.3,177.2z M347.6,176.4c0.6-0.4,1-1,1.3-1.8c0.2-0.8,0.3-2,0.3-3.6c0-1.7-0.1-3-0.4-3.9
			c-0.2-0.9-0.7-1.5-1.3-1.8c-0.6-0.4-1.6-0.5-2.8-0.5s-2.2,0.2-2.8,0.5c-0.6,0.4-1.1,1-1.3,1.9c-0.2,0.9-0.4,2.2-0.4,3.9
			c0,1.6,0.1,2.8,0.3,3.6c0.2,0.8,0.7,1.4,1.3,1.8c0.6,0.4,1.6,0.6,2.9,0.6C346,176.9,347,176.8,347.6,176.4z"/>
		<path d="M354.1,157.9h0.9v19.7h-0.9V157.9z"/>
		<path d="M359.6,157.9h0.9v19.7h-0.9V157.9z"/>
		<path d="M365.5,176.2c-0.8-1.1-1.2-2.7-1.2-5c0-2.5,0.4-4.4,1.3-5.6s2.3-1.8,4.1-1.8c1.7,0,3,0.5,3.8,1.6c0.8,1,1.2,2.7,1.2,4.9
			v0.9h-9.6c0,1.4,0.1,2.5,0.4,3.4c0.3,0.8,0.8,1.4,1.5,1.8c0.7,0.4,1.6,0.6,2.9,0.6c0.5,0,1,0,1.7-0.1c0.6,0,1.2-0.1,1.8-0.1
			l0.8-0.1l0.1,0.9c-2.2,0.1-3.7,0.2-4.6,0.2C367.7,177.8,366.3,177.3,365.5,176.2z M373.8,170.3c0-2-0.3-3.4-1-4.3
			c-0.6-0.9-1.7-1.3-3.1-1.3c-1.5,0-2.6,0.5-3.4,1.4c-0.8,0.9-1.1,2.3-1.2,4.3H373.8z"/>
		<path d="M378.9,176.2c-0.7-1.1-1.1-2.8-1.1-5.1c0-1.7,0.2-3.1,0.6-4.2c0.4-1.1,1-1.8,1.9-2.3c0.9-0.5,2-0.7,3.5-0.7
			c0.5,0,1.1,0,1.7,0.1c0.6,0.1,1.1,0.1,1.6,0.3v-6.3h0.9v19.7h-0.9v-1.2c-1.4,0.9-3,1.4-4.7,1.4
			C380.7,177.8,379.6,177.3,378.9,176.2z M384.7,176.6c0.8-0.2,1.4-0.5,1.7-0.7l0.6-0.4v-10.5c-1.3-0.3-2.5-0.4-3.5-0.4
			c-1.2,0-2.2,0.2-2.8,0.7c-0.7,0.4-1.2,1.1-1.5,2s-0.4,2.1-0.4,3.6c0,2,0.3,3.5,0.8,4.5c0.5,1,1.5,1.5,2.8,1.5
			C383.1,177,383.9,176.8,384.7,176.6z"/>
		<path d="M398.2,158.7h0.9v1.5h-0.9V158.7z M398.2,164.1h0.9v13.5h-0.9V164.1z"/>
		<path d="M403.4,164.1h0.9v1.1c0.9-0.5,1.8-0.8,2.5-1c0.8-0.2,1.6-0.3,2.4-0.3c1.2,0,2.1,0.2,2.7,0.6c0.6,0.4,1,1.1,1.3,2
			c0.2,1,0.4,2.3,0.4,4.1v7h-0.9v-7c0-1.5-0.1-2.7-0.3-3.6c-0.2-0.8-0.5-1.4-0.9-1.8c-0.5-0.4-1.1-0.5-2-0.5c-0.8,0-1.6,0.1-2.5,0.3
			c-0.8,0.2-1.5,0.4-1.9,0.7l-0.6,0.4v11.5h-0.9V164.1z"/>
		<path d="M158.7,192h-6.3v-0.9h13.5v0.9h-6.3v18h-0.9V192z"/>
		<path d="M165,196.5h1l3.4,12.6h0.3l4-12.4h1l4,12.4h0.4l3.4-12.6h1l-3.6,13.5H178l-3.7-12.1l-3.8,12.1h-1.8L165,196.5z"/>
		<path d="M187.9,209.6c-0.8-0.4-1.3-1.1-1.6-2.1s-0.4-2.3-0.4-4.1c0-1.9,0.2-3.3,0.5-4.3c0.3-1,0.9-1.7,1.7-2.2
			c0.8-0.4,1.9-0.6,3.4-0.6s2.6,0.2,3.4,0.7c0.8,0.4,1.3,1.2,1.6,2.2c0.3,1,0.5,2.5,0.5,4.3c0,1.8-0.1,3.2-0.4,4.1
			c-0.3,1-0.8,1.6-1.6,2.1c-0.8,0.4-1.9,0.6-3.4,0.6C189.8,210.2,188.7,210,187.9,209.6z M194.2,208.8c0.6-0.4,1-1,1.3-1.8
			c0.2-0.8,0.3-2,0.3-3.6c0-1.7-0.1-3-0.4-3.9c-0.2-0.9-0.7-1.5-1.3-1.8s-1.6-0.5-2.8-0.5c-1.2,0-2.2,0.2-2.8,0.5
			c-0.6,0.4-1.1,1-1.3,1.9c-0.2,0.9-0.4,2.2-0.4,3.9c0,1.6,0.1,2.8,0.3,3.6c0.2,0.8,0.7,1.4,1.3,1.8c0.6,0.4,1.6,0.6,2.9,0.6
			C192.6,209.3,193.6,209.2,194.2,208.8z"/>
		<path d="M206.9,209.8l-1-0.1l0.1-0.9c2.5,0.3,4.4,0.5,5.6,0.5c3.2,0,4.8-1.6,4.8-4.7c0-0.9-0.1-1.5-0.4-2
			c-0.2-0.5-0.7-0.8-1.3-1.1c-0.7-0.3-1.7-0.5-3-0.8c-1.5-0.3-2.7-0.5-3.5-0.9s-1.4-0.8-1.8-1.5c-0.4-0.7-0.6-1.6-0.6-2.8
			c0-1.6,0.5-2.8,1.4-3.6c0.9-0.8,2.4-1.2,4.4-1.2c1.6,0,3.4,0.1,5.4,0.4l-0.1,1c-2.7-0.3-4.5-0.5-5.3-0.5c-3.2,0-4.8,1.3-4.8,3.8
			c0,1,0.1,1.8,0.3,2.2c0.2,0.5,0.7,0.8,1.3,1.1c0.7,0.3,1.8,0.6,3.5,0.9c1.4,0.2,2.4,0.5,3.2,0.8c0.8,0.3,1.3,0.8,1.7,1.4
			c0.4,0.6,0.5,1.5,0.5,2.5c0,1.9-0.5,3.4-1.4,4.3c-0.9,0.9-2.3,1.4-4.3,1.4C210.7,210.2,209.1,210.1,206.9,209.8z"/>
		<path d="M221.1,196.5h0.9v1.1c1.5-0.9,3.1-1.4,4.7-1.4c1.6,0,2.8,0.5,3.5,1.6c0.7,1.1,1.1,2.8,1.1,5.2c0,1.7-0.2,3.1-0.6,4.1
			s-1,1.8-1.9,2.3c-0.9,0.5-2,0.8-3.5,0.8c-1.1,0-2.2-0.1-3.4-0.4v6.3h-0.9V196.5z M229.3,207.9c0.7-1,1.1-2.6,1.1-4.8
			c0-2.2-0.3-3.7-0.9-4.6s-1.5-1.4-2.7-1.4c-0.7,0-1.4,0.1-2.2,0.4c-0.8,0.2-1.4,0.5-1.9,0.7l-0.6,0.4V209c0.7,0.1,1.4,0.2,2.1,0.3
			c0.6,0.1,1.2,0.1,1.6,0.1C227.4,209.4,228.5,208.9,229.3,207.9z"/>
		<path d="M235.7,208.6c-0.8-1.1-1.2-2.7-1.2-5c0-2.5,0.4-4.4,1.3-5.6s2.3-1.8,4.1-1.8c1.7,0,3,0.5,3.8,1.6c0.8,1,1.2,2.7,1.2,4.9
			v0.9h-9.6c0,1.4,0.1,2.5,0.4,3.4c0.3,0.8,0.8,1.4,1.5,1.8c0.7,0.4,1.6,0.6,2.9,0.6c0.5,0,1,0,1.7-0.1c0.6,0,1.2-0.1,1.8-0.1
			l0.8-0.1l0.1,0.9c-2.2,0.1-3.7,0.2-4.6,0.2C237.9,210.2,236.5,209.7,235.7,208.6z M244,202.7c0-2-0.3-3.4-1-4.3s-1.7-1.3-3.1-1.3
			c-1.5,0-2.6,0.5-3.4,1.4c-0.8,0.9-1.1,2.3-1.2,4.3H244z"/>
		<path d="M250.1,209.5c-0.8-0.5-1.3-1.2-1.6-2.2c-0.3-1-0.5-2.4-0.5-4.1c0-1.3,0.1-2.4,0.3-3.3c0.2-0.9,0.6-1.8,1.4-2.5
			c0.7-0.7,1.8-1.1,3.3-1.1c0.6,0,1.1,0,1.7,0.1c0.5,0,1.2,0.1,2.2,0.3l-0.1,0.8c-1.4-0.2-2.5-0.3-3.3-0.3c-1.1,0-2,0.2-2.6,0.6
			c-0.6,0.4-1.1,1-1.4,1.9s-0.4,2.1-0.4,3.8c0,1.5,0.1,2.7,0.4,3.5c0.3,0.9,0.7,1.5,1.4,1.9s1.6,0.6,2.8,0.6l3.2-0.3l0.1,0.9
			c-1.7,0.2-2.8,0.3-3.5,0.3C252,210.2,250.9,210,250.1,209.5z"/>
		<path d="M260.1,191.1h0.9v1.5h-0.9V191.1z M260.1,196.5h0.9V210h-0.9V196.5z"/>
		<path d="M265.5,190.3h0.9V210h-0.9V190.3z"/>
		<path d="M270.8,191.1h0.9v1.5h-0.9V191.1z M270.8,196.5h0.9V210h-0.9V196.5z"/>
		<path d="M275,209.1l8.8-11.8H275v-0.9h10v0.9l-8.8,11.8h8.8v0.9h-10V209.1z"/>
		<path d="M288.4,209.2c-0.6-0.7-0.9-1.6-0.9-2.8c0-1.2,0.3-2.1,0.9-2.8c0.6-0.6,1.6-1,2.8-1.2l5.1-0.5v-1.4c0-1.1-0.2-1.9-0.7-2.5
			c-0.5-0.5-1.1-0.8-1.9-0.8c-0.8,0-1.5,0-2.1,0.1c-0.6,0.1-1.7,0.2-3.4,0.4l-0.1-0.9c1.9-0.3,3.6-0.5,5.1-0.5c1.4,0,2.4,0.3,3.1,1
			c0.7,0.7,1,1.8,1,3.2v7.8c0,0.3,0.2,0.5,0.6,0.7c0.4,0.2,0.8,0.3,1.4,0.4l-0.1,0.8c-0.6,0-1.1-0.1-1.7-0.3
			c-0.5-0.2-0.9-0.5-1.1-0.9c-1.8,0.8-3.6,1.2-5.5,1.2C289.9,210.2,289,209.9,288.4,209.2z M295.6,208.5l0.8-0.3v-5.5l-5,0.5
			c-1,0.1-1.7,0.3-2.1,0.8c-0.4,0.5-0.7,1.2-0.7,2.1c0,2.1,0.8,3.1,2.5,3.1C292.6,209.3,294.1,209.1,295.6,208.5z"/>
		<path d="M303.8,209.8c-0.5-0.3-0.8-0.8-1-1.4c-0.2-0.7-0.3-1.7-0.3-2.9v-8.1h-2.1v-0.9h2.1v-4.4h0.9v4.4h4.9v0.9h-4.9v7.1
			c0,1.4,0,2.4,0.1,3s0.3,1.1,0.7,1.5s0.9,0.5,1.7,0.5l2.6-0.2l0.1,0.9c-1.5,0.1-2.4,0.2-2.9,0.2
			C304.9,210.3,304.2,210.1,303.8,209.8z"/>
		<path d="M310.8,191.1h0.9v1.5h-0.9V191.1z M310.9,196.5h0.9V210h-0.9V196.5z"/>
		<path d="M317.4,209.6c-0.8-0.4-1.3-1.1-1.6-2.1s-0.4-2.3-0.4-4.1c0-1.9,0.2-3.3,0.5-4.3s0.9-1.7,1.7-2.2c0.8-0.4,1.9-0.6,3.4-0.6
			s2.6,0.2,3.4,0.7s1.3,1.2,1.6,2.2c0.3,1,0.5,2.5,0.5,4.3c0,1.8-0.1,3.2-0.4,4.1c-0.3,1-0.8,1.6-1.6,2.1c-0.8,0.4-1.9,0.6-3.4,0.6
			C319.3,210.2,318.1,210,317.4,209.6z M323.7,208.8c0.6-0.4,1-1,1.3-1.8s0.3-2,0.3-3.6c0-1.7-0.1-3-0.4-3.9
			c-0.2-0.9-0.7-1.5-1.3-1.8s-1.6-0.5-2.8-0.5c-1.2,0-2.2,0.2-2.8,0.5s-1.1,1-1.3,1.9c-0.2,0.9-0.4,2.2-0.4,3.9
			c0,1.6,0.1,2.8,0.3,3.6c0.2,0.8,0.7,1.4,1.3,1.8c0.6,0.4,1.6,0.6,2.9,0.6S323.1,209.2,323.7,208.8z"/>
		<path d="M330,196.5h0.9v1.1c0.9-0.5,1.8-0.8,2.5-1c0.8-0.2,1.6-0.3,2.4-0.3c1.2,0,2.1,0.2,2.7,0.6c0.6,0.4,1,1.1,1.3,2
			c0.2,1,0.4,2.3,0.4,4.1v7h-0.9v-7c0-1.5-0.1-2.7-0.3-3.6s-0.5-1.4-0.9-1.8c-0.5-0.4-1.1-0.5-2-0.5c-0.8,0-1.6,0.1-2.5,0.3
			s-1.5,0.4-1.9,0.7l-0.6,0.4V210H330V196.5z"/>
		<path d="M350.5,191.1h6.9c1.9,0,3.4,0.5,4.3,1.4c0.9,0.9,1.3,2.4,1.3,4.4c0,2.1-0.5,3.7-1.4,4.7c-0.9,1-2.3,1.5-4.2,1.5h-5.9v6.9
			h-1V191.1z M357.4,202.1c3.1,0,4.6-1.8,4.6-5.3c0-1.7-0.4-2.9-1.1-3.7c-0.7-0.8-1.9-1.2-3.5-1.2h-5.9v10.1H357.4z"/>
		<path d="M366.2,196.5h0.9v2.1c1.6-1.2,3.4-2,5.4-2.4v1c-0.8,0.1-1.6,0.4-2.6,0.8c-0.9,0.4-1.6,0.7-2,1.1l-0.8,0.5V210h-0.9V196.5z
			"/>
		<path d="M376.2,209.6c-0.8-0.4-1.3-1.1-1.6-2.1s-0.4-2.3-0.4-4.1c0-1.9,0.2-3.3,0.5-4.3s0.9-1.7,1.7-2.2c0.8-0.4,1.9-0.6,3.4-0.6
			s2.6,0.2,3.4,0.7s1.3,1.2,1.6,2.2c0.3,1,0.5,2.5,0.5,4.3c0,1.8-0.1,3.2-0.4,4.1c-0.3,1-0.8,1.6-1.6,2.1c-0.8,0.4-1.9,0.6-3.4,0.6
			C378.1,210.2,377,210,376.2,209.6z M382.5,208.8c0.6-0.4,1-1,1.3-1.8s0.3-2,0.3-3.6c0-1.7-0.1-3-0.4-3.9c-0.2-0.9-0.7-1.5-1.3-1.8
			s-1.6-0.5-2.8-0.5c-1.2,0-2.2,0.2-2.8,0.5s-1.1,1-1.3,1.9c-0.2,0.9-0.4,2.2-0.4,3.9c0,1.6,0.1,2.8,0.3,3.6
			c0.2,0.8,0.7,1.4,1.3,1.8c0.6,0.4,1.6,0.6,2.9,0.6S381.9,209.2,382.5,208.8z"/>
		<path d="M390.2,216c-0.7-0.3-1.2-0.7-1.5-1.3c-0.3-0.6-0.4-1.4-0.4-2.4c0-0.6,0.1-1.2,0.2-1.5c0.1-0.4,0.3-0.7,0.6-0.9
			c0.3-0.2,0.7-0.6,1.4-1.2c-0.2-0.1-0.3-0.3-0.4-0.7c-0.1-0.3-0.1-0.6-0.1-1c0-0.2,0-0.5,0.1-0.7c0.1-0.3,0.3-0.8,0.7-1.5
			c-1.5-0.4-2.3-1.8-2.3-4.1c0-1.5,0.4-2.7,1.1-3.4c0.7-0.7,1.9-1.1,3.6-1.1c0.9,0,1.8,0.1,2.8,0.4l3.8-0.1v0.9l-2.9,0
			c0.4,0.3,0.6,0.7,0.8,1.2c0.2,0.6,0.3,1.3,0.3,2.1c0,1.6-0.4,2.7-1.2,3.4c-0.8,0.7-2,1-3.7,1c-0.6,0-1.1,0-1.5-0.1l-0.2,0.5
			c-0.1,0.3-0.2,0.6-0.3,0.8s-0.1,0.5-0.1,0.7c0,0.5,0.2,0.9,0.6,1.1s1,0.3,1.7,0.3l1.9,0c1,0,1.8,0.1,2.4,0.3
			c0.6,0.2,1.1,0.6,1.4,1.1c0.3,0.5,0.5,1.3,0.5,2.3c0,1-0.2,1.8-0.5,2.4c-0.4,0.6-1,1.1-1.8,1.4c-0.9,0.3-2,0.5-3.5,0.5
			C392,216.4,391,216.3,390.2,216z M396.5,215.2c0.7-0.2,1.2-0.6,1.5-1.1s0.4-1.2,0.4-2.1c0-0.8-0.1-1.3-0.3-1.7
			c-0.2-0.4-0.6-0.6-1.1-0.8c-0.5-0.2-1.4-0.2-2.5-0.2l-3.2-0.1c-0.6,0.4-1,0.7-1.3,1c-0.3,0.3-0.5,0.5-0.6,0.9
			c-0.1,0.3-0.2,0.7-0.2,1.2c0,0.9,0.1,1.5,0.4,2s0.7,0.8,1.3,1c0.6,0.2,1.5,0.3,2.6,0.3C394.8,215.6,395.8,215.5,396.5,215.2z
			 M396.1,203.5c0.6-0.5,0.8-1.5,0.8-2.8c0-1.3-0.3-2.3-0.8-2.8c-0.5-0.5-1.5-0.8-2.8-0.8c-1.4,0-2.4,0.3-2.9,0.8
			c-0.6,0.5-0.9,1.5-0.9,2.8c0,1.3,0.3,2.3,0.9,2.8c0.6,0.5,1.5,0.8,2.9,0.8C394.5,204.3,395.5,204,396.1,203.5z"/>
		<path d="M402.4,196.5h0.9v2.1c1.6-1.2,3.4-2,5.4-2.4v1c-0.8,0.1-1.6,0.4-2.6,0.8c-0.9,0.4-1.6,0.7-2,1.1l-0.8,0.5V210h-0.9V196.5z
			"/>
		<path d="M411.3,209.2c-0.6-0.7-0.9-1.6-0.9-2.8c0-1.2,0.3-2.1,0.9-2.8c0.6-0.6,1.6-1,2.8-1.2l5.1-0.5v-1.4c0-1.1-0.2-1.9-0.7-2.5
			c-0.5-0.5-1.1-0.8-1.9-0.8c-0.8,0-1.5,0-2.1,0.1c-0.6,0.1-1.7,0.2-3.4,0.4l-0.1-0.9c1.9-0.3,3.6-0.5,5.1-0.5c1.4,0,2.4,0.3,3.1,1
			c0.7,0.7,1,1.8,1,3.2v7.8c0,0.3,0.2,0.5,0.6,0.7c0.4,0.2,0.8,0.3,1.4,0.4l-0.1,0.8c-0.6,0-1.1-0.1-1.7-0.3
			c-0.5-0.2-0.9-0.5-1.1-0.9c-1.8,0.8-3.6,1.2-5.5,1.2C412.8,210.2,411.9,209.9,411.3,209.2z M418.5,208.5l0.8-0.3v-5.5l-5,0.5
			c-1,0.1-1.7,0.3-2.1,0.8c-0.4,0.5-0.7,1.2-0.7,2.1c0,2.1,0.8,3.1,2.5,3.1C415.5,209.3,417.1,209.1,418.5,208.5z"/>
		<path d="M424.6,196.5h0.9v1.1c1.4-0.9,3-1.3,4.6-1.3c1.7,0,2.9,0.5,3.5,1.5c0.5-0.4,1.3-0.7,2.3-1c1-0.3,2-0.5,3.1-0.5
			c1.1,0,1.9,0.2,2.5,0.6c0.6,0.4,1,1.1,1.2,2.1c0.2,1,0.3,2.3,0.3,4v7H442v-7c0-1.6-0.1-2.8-0.3-3.6s-0.5-1.4-0.9-1.7
			c-0.5-0.3-1.1-0.5-2.1-0.5c-0.9,0-1.7,0.1-2.5,0.3s-1.4,0.4-1.8,0.7l-0.6,0.3c0.3,0.1,0.5,1.6,0.5,4.5v7h-0.9v-7
			c0-1.5-0.1-2.7-0.3-3.6s-0.5-1.4-0.9-1.8c-0.5-0.4-1.1-0.5-2-0.5c-0.8,0-1.6,0.1-2.4,0.3s-1.4,0.4-1.8,0.7l-0.6,0.4V210h-0.9
			V196.5z"/>
		<path d="M447.3,209.9l-0.8-0.1l0.1-0.9c2.1,0.3,3.7,0.5,4.6,0.5c1.3,0,2.3-0.2,3-0.7c0.6-0.5,0.9-1.2,0.9-2.3
			c0-0.7-0.1-1.3-0.4-1.7c-0.3-0.4-0.7-0.7-1.1-0.8s-1.1-0.3-2-0.4c-0.3,0-0.6-0.1-0.7-0.1c-1.2-0.2-2.2-0.4-2.8-0.7
			c-0.6-0.3-1.1-0.6-1.3-1s-0.4-1-0.4-1.7c0-1.4,0.4-2.4,1.3-2.9c0.8-0.5,2.1-0.8,3.7-0.8c1.4,0,2.6,0.1,3.7,0.2l0.7,0.1l-0.1,0.9
			c-0.9-0.1-1.7-0.3-2.5-0.3c-0.8-0.1-1.4-0.1-1.9-0.1c-1.4,0-2.4,0.2-3,0.7c-0.6,0.5-0.9,1.1-0.9,2c0,0.7,0.2,1.2,0.5,1.5
			s0.7,0.6,1.2,0.7c0.5,0.1,1.3,0.3,2.5,0.5c1.2,0.2,2.2,0.4,2.8,0.7c0.6,0.2,1.1,0.6,1.4,1.1c0.3,0.5,0.5,1.1,0.5,2
			c0,1.4-0.4,2.4-1.3,3.1c-0.8,0.6-2.1,0.9-3.8,0.9C450.1,210.2,448.9,210.1,447.3,209.9z"/>
	</g>
</g>
</svg>
