<?xml version="1.0" encoding="utf-8"?>
<!-- Generator: Adobe Illustrator 22.0.1, SVG Export Plug-In . SVG Version: 6.00 Build 0)  -->
<svg version="1.1" id="Layer_1" xmlns="http://www.w3.org/2000/svg" xmlns:xlink="http://www.w3.org/1999/xlink" x="0px" y="0px"
	 viewBox="0 0 609.4 609.4" style="enable-background:new 0 0 609.4 609.4;" xml:space="preserve">
<style type="text/css">
	.st0{fill:#0A6AB1;}
	.st1{fill:#0C6AB1;}
	.st2{opacity:0.57;}
	.st3{fill:#131313;}
</style>
<g>
	<g>
		<path class="st0" d="M115.2,181.4c1.6,1.5,3,3,4.5,4.3c7.2,6.1,15.3,8,24.2,4.2c7.4-3.1,11.7-10.2,11-17.4
			c-0.7-7.1-6.4-13.2-14.1-15c-8.9-2.1-17.6,1.3-22.5,9.1c-4.8,7.6-8.6,15.7-13,23.5c-2.2,3.9-4.1,7.8-7.3,11
			c-6.8,6.9-15.2,10.7-24.7,11.7c-10.2,1.1-20.1,0-29-5.5C31,199.3,23.8,187.5,25,171.8c1.2-15.7,9.4-27.1,23.9-33.2
			c14.3-6,28.5-4.9,42.1,2.8c1.2,0.7,1.4,1.3,0.7,2.5c-3.5,6.1-6.8,12.2-10.3,18.4c-2.9-2.7-6.2-4.5-10-5.1
			c-7.6-1.3-14.5,0-19.7,6.2c-7.3,8.6-3.8,22.2,7,26.3c8.4,3.2,16.3,2.3,23-4.2c3.1-3,4.7-7.2,6.7-11c3.3-6.4,6-13,9.8-19.1
			c8-12.8,19.7-19.4,34.7-20.5c11.2-0.8,21.4,1.8,30.3,8.8c21.5,17,20.9,51-8.1,64.9c-15,7.2-29.9,6-44.1-2.9
			c-2.1-1.3-3.7-3.1-5.6-4.7c-0.4-0.4-0.6-0.7-0.3-1.3C108.6,193.6,111.9,187.6,115.2,181.4z"/>
		<path class="st0" d="M559.1,145.5c0-2,0-3.6,0-5.2c0-1,0.3-1.3,1.3-1.3c7.6,0,15.3,0.1,22.9,0c1.4,0,1.3,0.8,1.3,1.7
			c0,16,0,31.9,0,47.9c0,6.2,0,12.5,0,18.7c0,1.2-0.2,1.6-1.5,1.6c-7.5-0.1-15-0.1-22.5,0c-1.2,0-1.5-0.4-1.4-1.5
			c0.1-1.9,0-3.8,0-5.7c-0.6-0.2-0.7,0.2-0.9,0.4c-4.5,5.7-10.7,8.2-17.8,8.8c-20,1.8-36.6-12.2-39.1-32.2
			c-2.2-17.7,7.3-34.4,23.5-39.9c10.7-3.6,21-2.9,30.5,3.6C556.5,143.2,557.6,144.3,559.1,145.5z M544.2,158.3
			c-5.6,0.1-10.1,1.5-13.3,5.6c-4,5.1-4.5,10.8-2.1,16.6c2.5,6,7.5,8.6,13.7,8.9c5.6,0.3,10.8-1,14.3-5.7c3.9-5.2,4.4-11.1,1.6-17
			C555.4,160.8,550.1,158.5,544.2,158.3z"/>
		<path class="st0" d="M371.8,175c0.1-11.4,3-20.5,10.4-27.7c5-4.8,11-7.8,17.7-9.3c8.8-1.9,17.6-1.8,26.2,0.8
			c13.3,4.1,20.9,13.4,23.6,26.8c0.7,3.5,0.9,7.2,1,10.8c0,1.4-0.4,1.7-1.8,1.7c-16.6,0-33.1,0-49.7-0.1c-1.7,0-2.1,0.4-2,2.1
			c0.5,7.8,5.7,12.8,13.8,13.2c1.8,0.1,3.6,0.1,5.4-0.2c3.3-0.6,6-2.1,7.9-4.9c0.6-0.9,1.2-1.2,2.3-1.2c7.1,0,14.2,0.1,21.3,0
			c1.5,0,1.7,0.4,1.3,1.8c-2.8,8.6-8.4,14.7-16.5,18.1c-14.1,6.1-28.4,5.7-42.1-0.9C377.4,199.7,371.9,188.2,371.8,175z
			 M412.3,163.8c4.1,0,8.3,0,12.4,0c2.5,0,2.6-0.1,1.6-2.5c-2.5-5.8-9.2-9.3-15.9-8.3c-5.8,0.9-10.2,3.5-12.3,9.3
			c-0.4,1.1-0.4,1.6,1.1,1.6C403.5,163.7,407.9,163.8,412.3,163.8z"/>
		<path class="st1" d="M182.2,163c0-8.4,0-15.3,0-22.3c0-1.3,0.3-1.7,1.6-1.7c7.1,0.1,14.2,0.1,21.3,0c1.3,0,1.6,0.4,1.6,1.7
			c-0.1,12.6-0.1,25.2,0,37.8c0,4.1,1.1,7.8,4.9,10.2c5.7,3.4,14,1.2,16.2-4.4c0.8-2,1-4.1,1-6.2c0-12.4,0-24.7,0-37.1
			c0-1.7,0.5-2,2-2c7,0.1,14,0.1,21,0c1.3,0,1.7,0.3,1.7,1.7c0,12.6,0,25.2-0.1,37.8c0,4.8-0.6,9.5-2.4,14
			c-3.3,8.7-9.6,14.2-18.4,16.7c-9.9,2.8-19.9,2.8-29.8,0c-11.4-3.2-18.9-12.2-20.2-24C181.7,177.3,182.5,169.4,182.2,163z"/>
		<path class="st0" d="M334.6,211.1c-9.8-0.1-19-2.5-27.6-7.2c-1-0.6-1.4-1-0.7-2.2c2.7-4.9,5.3-9.8,7.9-14.8c0.6-1.1,1-1,1.9-0.5
			c5.6,3.4,11.5,5.8,18.1,6.3c2.1,0.2,4.2-0.2,6.1-1.3c3.5-2,3.6-5.9,0.1-7.9c-2.8-1.6-5.9-2-9-2.7c-3.1-0.7-6.1-1.3-9.1-2.5
			c-8.4-3.3-11.6-9.3-11.2-17.8c0.5-10.7,6.6-18.2,17.5-21.6c12.4-3.9,24.6-2.7,36.6,1.8c0.9,0.3,1,0.6,0.6,1.5
			c-2.5,4.6-5,9.2-7.5,13.8c-0.4,0.8-0.7,1-1.6,0.6c-3.7-1.8-7.7-2.7-11.8-3c-2.3-0.2-4.5,0.2-6.6,1.4c-3,1.7-3.1,4.8-0.2,6.7
			c2.2,1.5,4.7,1.9,7.3,2.3c4.3,0.7,8.4,1.7,12.3,3.7c8.7,4.4,11.6,11.6,10.3,20.9c-1.5,10.9-8.6,16.8-18.5,20.2
			C344.8,210.5,339.7,211.1,334.6,211.1z"/>
		<path class="st0" d="M284.3,150.1c1.7-2.1,3.3-4.2,5.2-5.9c4.5-3.8,9.7-5.6,15.5-6c2.1-0.1,4.3,0,6.5-0.1c0.8,0,1.1,0.3,1.1,1.1
			c0.1,2.5,0,4.8-1.8,7c-2.8,3.5-4.1,7.7-4.5,12.1c-0.1,1.3-0.4,1.7-1.8,1.5c-2.4-0.3-4.8-0.3-7.1,0.2c-7.5,1.3-11.7,6-12.8,14.1
			c-0.3,2.1-0.4,4.3-0.4,6.4c0,8.9,0,17.8,0,26.7c0,1.2-0.3,1.6-1.5,1.6c-7.5-0.1-15-0.1-22.5,0c-1.1,0-1.5-0.3-1.5-1.4
			c0-22.3,0-44.6,0-66.9c0-1.1,0.3-1.5,1.4-1.5c7.5,0,15,0.1,22.5,0c1.3,0,1.6,0.4,1.5,1.6C284.3,143.8,284.3,146.9,284.3,150.1z"/>
		<path class="st1" d="M480.1,149.9c1.5-1.5,2.5-3.1,3.9-4.4c5.1-5.1,11.3-7.2,18.3-7.4c1.6,0,3.2,0.1,4.7,0
			c1.2-0.1,1.4,0.5,1.5,1.5c0.2,2.6-0.4,4.6-2.3,6.6c-3.3,3.5-5.6,7.7-7.3,12.2c-0.3,0.8-0.6,1.3-1.7,1.3c-12.4,0-16.4,7.5-17,17
			c-0.5,10-0.2,20-0.2,30.1c0,1.5-0.3,2.1-2,2c-7.3-0.1-14.6-0.1-21.9,0c-1.2,0-1.7-0.2-1.7-1.6c0-22.2,0-44.4,0-66.6
			c0-1.3,0.3-1.7,1.7-1.7c7.4,0.1,14.8,0.1,22.2,0c1.3,0,1.7,0.4,1.6,1.7C480,143.8,480.1,146.9,480.1,149.9z"/>
	</g>
	<g>
		<path d="M136.3,270.9c-1.6-1.2-2.7-2.9-3.3-5c-0.6-2.2-0.9-5.1-0.9-8.6c0-3.3,0.3-6.1,0.8-8.3c0.5-2.2,1.6-3.9,3.2-5.1
			c1.6-1.3,3.9-1.9,7-1.9c2.1,0,4.6,0.3,7.5,0.8l-0.1,1.5c-3-0.6-5.6-0.9-7.8-0.9c-2.5,0-4.4,0.5-5.7,1.4c-1.3,0.9-2.1,2.4-2.6,4.5
			c-0.5,2.1-0.7,5.1-0.7,9.1c0,3,0.2,5.4,0.7,7.2c0.5,1.8,1.4,3.2,2.8,4.2c1.4,1,3.5,1.5,6.2,1.5c1.9,0,4.3-0.3,7.1-0.9l0.1,1.5
			c-3,0.6-5.5,0.9-7.5,0.9C140.2,272.6,137.9,272.1,136.3,270.9z"/>
		<path d="M157.7,271.7c-0.9-0.6-1.6-1.7-2-3.2c-0.4-1.5-0.6-3.7-0.6-6.6v-11.1h1.5v11c0,2.5,0.1,4.5,0.4,5.8
			c0.3,1.3,0.8,2.2,1.5,2.8c0.7,0.6,1.8,0.8,3.3,0.8c1.4,0,2.7-0.2,3.9-0.6c1.2-0.4,2.4-0.9,3.4-1.6v-18.3h1.5v21.4h-1.6v-1.7
			c-1.1,0.7-2.2,1.2-3.4,1.6c-1.1,0.3-2.4,0.5-3.9,0.5C160,272.6,158.6,272.3,157.7,271.7z"/>
		<path d="M177.4,250.9h1.5v3.3c2.5-1.9,5.3-3.1,8.5-3.8v1.5c-1.2,0.2-2.5,0.7-4,1.3c-1.5,0.6-2.6,1.2-3.2,1.7l-1.2,0.7v16.6h-1.5
			V250.9z"/>
		<path d="M191.5,250.9h1.5v3.3c2.5-1.9,5.3-3.1,8.5-3.8v1.5c-1.2,0.2-2.5,0.7-4,1.3c-1.5,0.6-2.6,1.2-3.2,1.7l-1.2,0.7v16.6h-1.5
			V250.9z"/>
		<path d="M205.9,270.1c-1.3-1.7-1.9-4.3-1.9-7.9c0-4,0.7-6.9,2.1-8.8c1.4-1.9,3.6-2.8,6.6-2.8c2.7,0,4.8,0.8,6.1,2.5
			c1.3,1.7,2,4.3,2,7.8v1.4h-15.1c0,2.3,0.2,4,0.6,5.3c0.5,1.3,1.2,2.3,2.3,2.9c1.1,0.6,2.6,0.9,4.6,0.9c0.7,0,1.6,0,2.6-0.1
			c1-0.1,2-0.1,2.9-0.2l1.3-0.1l0.1,1.4c-3.5,0.2-5.9,0.3-7.4,0.3C209.4,272.6,207.2,271.8,205.9,270.1z M219.1,260.8
			c0-3.2-0.5-5.4-1.5-6.8s-2.7-2.1-4.9-2.1c-2.4,0-4.2,0.7-5.3,2.2s-1.8,3.7-1.8,6.8H219.1z"/>
		<path d="M226.3,250.9h1.5v1.7c1.5-0.8,2.8-1.3,4-1.6c1.2-0.3,2.5-0.5,3.7-0.5c1.9,0,3.3,0.3,4.2,0.9c1,0.6,1.6,1.7,2,3.2
			c0.4,1.5,0.6,3.7,0.6,6.5v11.1h-1.5v-11.1c0-2.5-0.1-4.3-0.4-5.6c-0.3-1.3-0.8-2.3-1.5-2.8c-0.7-0.6-1.8-0.9-3.2-0.9
			c-1.3,0-2.6,0.2-3.9,0.5s-2.3,0.7-3,1.1l-1,0.6v18.3h-1.5V250.9z"/>
		<path d="M252,272c-0.7-0.4-1.3-1.2-1.6-2.3c-0.3-1.1-0.5-2.6-0.5-4.7v-12.8h-3.4v-1.4h3.4v-6.9h1.5v6.9h7.8v1.4h-7.8v11.2
			c0,2.2,0.1,3.8,0.2,4.8c0.2,1,0.5,1.8,1,2.3c0.5,0.5,1.4,0.8,2.7,0.8l4.1-0.4l0.2,1.4c-2.3,0.2-3.9,0.3-4.6,0.3
			C253.8,272.7,252.7,272.5,252,272z"/>
		<path d="M263.5,241h1.5v31.2h-1.5V241z"/>
		<path d="M278.3,272.3h-2.6l-6.6-21.4h1.6l6.3,20h1.7l6.4-20h1.6l-9.8,31.2h-1.6L278.3,272.3z"/>
		<path d="M302.9,256.3h13.3v1.4h-13.3v13.2h15.9v1.4h-17.5v-29.9h17.5v1.4h-15.9V256.3z"/>
		<path d="M324.4,250.9h1.5v1.7c1.5-0.8,2.8-1.3,4-1.6c1.2-0.3,2.5-0.5,3.7-0.5c1.9,0,3.3,0.3,4.2,0.9c1,0.6,1.6,1.7,2,3.2
			c0.4,1.5,0.6,3.7,0.6,6.5v11.1h-1.5v-11.1c0-2.5-0.1-4.3-0.4-5.6c-0.3-1.3-0.8-2.3-1.5-2.8c-0.7-0.6-1.8-0.9-3.2-0.9
			c-1.3,0-2.6,0.2-3.9,0.5c-1.3,0.3-2.3,0.7-3,1.1l-1,0.6v18.3h-1.5V250.9z"/>
		<path d="M346.9,250.9h1.5v3.3c2.5-1.9,5.3-3.1,8.5-3.8v1.5c-1.2,0.2-2.5,0.7-4,1.3c-1.5,0.6-2.6,1.2-3.2,1.7l-1.2,0.7v16.6h-1.5
			V250.9z"/>
		<path d="M362.7,271.6c-1.2-0.7-2.1-1.8-2.6-3.3c-0.5-1.5-0.7-3.7-0.7-6.5c0-3,0.3-5.3,0.8-6.9c0.5-1.6,1.4-2.8,2.6-3.4
			c1.2-0.7,3-1,5.3-1s4.1,0.3,5.3,1c1.2,0.7,2.1,1.9,2.6,3.5c0.5,1.6,0.7,3.9,0.7,6.8c0,2.8-0.2,5-0.7,6.5c-0.5,1.5-1.3,2.6-2.5,3.3
			c-1.2,0.7-3.1,1-5.5,1S363.9,272.3,362.7,271.6z M372.7,270.3c1-0.6,1.6-1.5,2-2.8c0.3-1.3,0.5-3.2,0.5-5.7c0-2.7-0.2-4.8-0.6-6.1
			c-0.4-1.4-1-2.4-2-2.9c-1-0.6-2.5-0.9-4.4-0.9s-3.5,0.3-4.5,0.9c-1,0.6-1.7,1.6-2.1,3c-0.4,1.4-0.6,3.4-0.6,6.1
			c0,2.5,0.2,4.4,0.5,5.7c0.4,1.3,1,2.3,2.1,2.8c1,0.6,2.5,0.9,4.6,0.9C370.2,271.2,371.7,270.9,372.7,270.3z"/>
		<path d="M383,241h1.5v31.2H383V241z"/>
		<path d="M391.7,241h1.5v31.2h-1.5V241z"/>
		<path d="M401,270.1c-1.3-1.7-1.9-4.3-1.9-7.9c0-4,0.7-6.9,2.1-8.8c1.4-1.9,3.6-2.8,6.6-2.8c2.7,0,4.8,0.8,6.1,2.5
			c1.3,1.7,2,4.3,2,7.8v1.4h-15.1c0,2.3,0.2,4,0.6,5.3c0.5,1.3,1.2,2.3,2.3,2.9c1.1,0.6,2.6,0.9,4.6,0.9c0.7,0,1.6,0,2.6-0.1
			c1-0.1,2-0.1,2.9-0.2l1.3-0.1l0.1,1.4c-3.5,0.2-5.9,0.3-7.4,0.3C404.5,272.6,402.3,271.8,401,270.1z M414.2,260.8
			c0-3.2-0.5-5.4-1.5-6.8c-1-1.4-2.7-2.1-4.9-2.1c-2.4,0-4.1,0.7-5.3,2.2s-1.8,3.7-1.8,6.8H414.2z"/>
		<path d="M422.2,270.1c-1.1-1.7-1.7-4.4-1.7-8.1c0-2.8,0.3-5,0.9-6.7s1.6-2.9,3-3.7c1.4-0.8,3.2-1.2,5.5-1.2c0.9,0,1.8,0.1,2.7,0.1
			c1,0.1,1.8,0.2,2.5,0.4v-10h1.5v31.2h-1.5v-1.8c-2.3,1.5-4.7,2.2-7.4,2.2C425.2,272.6,423.3,271.8,422.2,270.1z M431.4,270.7
			c1.2-0.4,2.2-0.7,2.8-1.1l1-0.6v-16.6c-2.1-0.4-3.9-0.6-5.5-0.6c-1.9,0-3.4,0.3-4.5,1c-1.1,0.7-1.9,1.8-2.3,3.2
			c-0.5,1.4-0.7,3.3-0.7,5.6c0,3.2,0.4,5.6,1.3,7.2c0.9,1.6,2.3,2.4,4.4,2.4C429,271.3,430.2,271.1,431.4,270.7z"/>
		<path d="M452.9,242.3h1.5v2.4h-1.5V242.3z M452.9,250.9h1.5v21.4h-1.5V250.9z"/>
		<path d="M461.1,250.9h1.5v1.7c1.5-0.8,2.8-1.3,4-1.6c1.2-0.3,2.5-0.5,3.7-0.5c1.9,0,3.3,0.3,4.2,0.9c1,0.6,1.6,1.7,2,3.2
			c0.4,1.5,0.6,3.7,0.6,6.5v11.1h-1.5v-11.1c0-2.5-0.1-4.3-0.4-5.6c-0.3-1.3-0.8-2.3-1.5-2.8c-0.7-0.6-1.8-0.9-3.2-0.9
			c-1.3,0-2.6,0.2-3.9,0.5c-1.3,0.3-2.3,0.7-3,1.1l-1,0.6v18.3h-1.5V250.9z"/>
		<path d="M73.4,295.1h-10v-1.5h21.4v1.5h-9.9v28.5h-1.5V295.1z"/>
		<path d="M83.3,302.2h1.6l5.4,20h0.5l6.3-19.6h1.6l6.3,19.6h0.6l5.4-20h1.6l-5.8,21.4h-3L98,304.4L92,323.6h-2.9L83.3,302.2z"/>
		<path d="M119.6,323c-1.2-0.7-2.1-1.8-2.6-3.3c-0.5-1.5-0.7-3.7-0.7-6.5c0-3,0.3-5.3,0.8-6.9c0.5-1.6,1.4-2.8,2.6-3.4s3-1,5.3-1
			c2.3,0,4.1,0.3,5.3,1c1.2,0.7,2.1,1.9,2.6,3.5c0.5,1.6,0.7,3.9,0.7,6.8c0,2.8-0.2,5-0.7,6.5c-0.5,1.5-1.3,2.6-2.5,3.3
			s-3.1,1-5.5,1S120.8,323.6,119.6,323z M129.6,321.7c1-0.6,1.6-1.5,2-2.8s0.5-3.2,0.5-5.7c0-2.7-0.2-4.8-0.6-6.1
			c-0.4-1.4-1-2.4-2-2.9c-1-0.6-2.5-0.9-4.4-0.9c-2,0-3.5,0.3-4.5,0.9c-1,0.6-1.7,1.6-2.1,3c-0.4,1.4-0.6,3.4-0.6,6.1
			c0,2.5,0.2,4.4,0.5,5.7c0.4,1.3,1,2.3,2.1,2.8c1,0.6,2.5,0.9,4.6,0.9C127.1,322.6,128.6,322.3,129.6,321.7z"/>
		<path d="M149.7,323.4l-1.5-0.2l0.2-1.5c3.9,0.5,6.9,0.8,8.9,0.8c5,0,7.5-2.5,7.5-7.4c0-1.4-0.2-2.4-0.6-3.2
			c-0.4-0.7-1.1-1.3-2.1-1.8c-1-0.5-2.6-0.9-4.8-1.2c-2.4-0.4-4.3-0.9-5.6-1.4c-1.3-0.5-2.2-1.3-2.8-2.4c-0.6-1-0.9-2.5-0.9-4.4
			c0-2.5,0.7-4.4,2.2-5.6s3.8-1.9,7-1.9c2.5,0,5.3,0.2,8.5,0.6l-0.2,1.5c-4.3-0.5-7.1-0.8-8.4-0.8c-5,0-7.6,2-7.6,6
			c0,1.6,0.2,2.8,0.5,3.6c0.3,0.7,1,1.3,2.1,1.8c1.1,0.4,2.9,0.9,5.5,1.4c2.2,0.4,3.9,0.8,5.1,1.3c1.2,0.5,2.1,1.3,2.7,2.3
			c0.6,1,0.9,2.3,0.9,4c0,3.1-0.7,5.3-2.1,6.8c-1.4,1.5-3.7,2.2-6.9,2.2C155.8,323.9,153.3,323.7,149.7,323.4z"/>
		<path d="M172.2,302.2h1.5v1.8c2.4-1.5,4.9-2.2,7.4-2.2c2.6,0,4.5,0.9,5.6,2.6c1.1,1.7,1.7,4.4,1.7,8.2c0,2.7-0.3,4.9-0.9,6.5
			s-1.6,2.9-3,3.7s-3.2,1.2-5.5,1.2c-1.8,0-3.6-0.2-5.3-0.6v10h-1.5V302.2z M185.1,320.3c1.1-1.6,1.7-4.1,1.7-7.6
			c0-3.4-0.5-5.9-1.4-7.4c-1-1.5-2.4-2.2-4.2-2.2c-1.1,0-2.3,0.2-3.5,0.6c-1.3,0.4-2.3,0.8-3,1.2l-1,0.6V322
			c1.2,0.2,2.3,0.3,3.3,0.4c1,0.1,1.9,0.2,2.6,0.2C182.1,322.7,184,321.9,185.1,320.3z"/>
		<path d="M195.3,321.4c-1.3-1.7-1.9-4.3-1.9-7.9c0-4,0.7-6.9,2.1-8.8c1.4-1.9,3.6-2.8,6.6-2.8c2.7,0,4.8,0.8,6.1,2.5
			c1.3,1.7,2,4.3,2,7.8v1.4h-15.1c0,2.3,0.2,4,0.6,5.3c0.5,1.3,1.2,2.3,2.3,2.9c1.1,0.6,2.6,0.9,4.6,0.9c0.7,0,1.6,0,2.6-0.1
			c1-0.1,2-0.1,2.9-0.2l1.3-0.1l0.1,1.4c-3.5,0.2-5.9,0.3-7.4,0.3C198.8,324,196.6,323.1,195.3,321.4z M208.5,312.1
			c0-3.2-0.5-5.4-1.5-6.8c-1-1.4-2.7-2.1-4.9-2.1c-2.4,0-4.2,0.7-5.3,2.2c-1.2,1.5-1.8,3.7-1.8,6.8H208.5z"/>
		<path d="M218.2,322.8c-1.2-0.8-2.1-1.9-2.6-3.5c-0.5-1.6-0.7-3.8-0.7-6.5c0-2,0.1-3.7,0.4-5.2c0.3-1.5,1-2.8,2.1-4
			c1.2-1.2,2.9-1.8,5.3-1.8c0.9,0,1.8,0,2.6,0.1c0.8,0.1,2,0.2,3.5,0.4l-0.1,1.3c-2.2-0.3-3.9-0.4-5.3-0.4c-1.8,0-3.2,0.3-4.2,0.9
			c-1,0.6-1.7,1.6-2.1,3c-0.4,1.4-0.6,3.4-0.6,6c0,2.4,0.2,4.3,0.6,5.6c0.4,1.4,1.1,2.3,2.2,3c1,0.6,2.5,0.9,4.5,0.9l5.1-0.4
			l0.1,1.4c-2.7,0.3-4.5,0.4-5.5,0.4C221.1,324,219.4,323.6,218.2,322.8z"/>
		<path d="M234,293.6h1.5v2.4H234V293.6z M234.1,302.2h1.5v21.4h-1.5V302.2z"/>
		<path d="M242.5,292.4h1.5v31.2h-1.5V292.4z"/>
		<path d="M251,293.6h1.5v2.4H251V293.6z M251,302.2h1.5v21.4H251V302.2z"/>
		<path d="M257.6,322.2l13.9-18.7h-13.9v-1.4h15.9v1.4l-14,18.7h14v1.4h-15.9V322.2z"/>
		<path d="M278.8,322.4c-1-1.1-1.5-2.6-1.5-4.5c0-1.9,0.5-3.4,1.4-4.4c1-1,2.5-1.7,4.5-1.9l8.1-0.8v-2.2c0-1.8-0.4-3.1-1.1-4
			c-0.7-0.9-1.8-1.3-3-1.3c-1.3,0-2.4,0-3.3,0.1s-2.7,0.3-5.4,0.6l-0.1-1.4c3-0.5,5.7-0.8,8.1-0.8c2.2,0,3.8,0.5,4.9,1.6
			c1,1.1,1.6,2.8,1.6,5.1v12.3c0,0.4,0.3,0.8,0.9,1.1c0.6,0.3,1.3,0.5,2.3,0.7L296,324c-0.9,0-1.8-0.2-2.6-0.5
			c-0.8-0.3-1.4-0.8-1.8-1.4c-2.9,1.3-5.7,1.9-8.6,1.9C281.2,324,279.8,323.4,278.8,322.4z M290.2,321.3l1.2-0.5v-8.7l-8,0.8
			c-1.6,0.1-2.7,0.5-3.4,1.3c-0.7,0.8-1,1.9-1,3.4c0,3.3,1.3,5,4,5C285.5,322.6,287.9,322.1,290.2,321.3z"/>
		<path d="M303.2,323.4c-0.7-0.4-1.3-1.2-1.6-2.3c-0.3-1.1-0.5-2.6-0.5-4.7v-12.8h-3.4v-1.4h3.4v-6.9h1.5v6.9h7.8v1.4h-7.8v11.2
			c0,2.2,0.1,3.8,0.2,4.8c0.2,1,0.5,1.8,1,2.3c0.5,0.5,1.4,0.8,2.7,0.8l4.2-0.4l0.2,1.4c-2.3,0.2-3.9,0.3-4.6,0.3
			C305,324,303.9,323.8,303.2,323.4z"/>
		<path d="M314.4,293.6h1.5v2.4h-1.5V293.6z M314.5,302.2h1.5v21.4h-1.5V302.2z"/>
		<path d="M324.7,323c-1.2-0.7-2.1-1.8-2.6-3.3c-0.5-1.5-0.7-3.7-0.7-6.5c0-3,0.3-5.3,0.8-6.9c0.5-1.6,1.4-2.8,2.6-3.4
			c1.2-0.7,3-1,5.3-1s4.1,0.3,5.3,1c1.2,0.7,2.1,1.9,2.6,3.5c0.5,1.6,0.7,3.9,0.7,6.8c0,2.8-0.2,5-0.7,6.5c-0.5,1.5-1.3,2.6-2.5,3.3
			c-1.2,0.7-3.1,1-5.5,1S326,323.6,324.7,323z M334.8,321.7c1-0.6,1.6-1.5,2-2.8s0.5-3.2,0.5-5.7c0-2.7-0.2-4.8-0.6-6.1
			c-0.4-1.4-1-2.4-2-2.9c-1-0.6-2.5-0.9-4.4-0.9s-3.5,0.3-4.5,0.9c-1,0.6-1.7,1.6-2.1,3c-0.4,1.4-0.6,3.4-0.6,6.1
			c0,2.5,0.2,4.4,0.5,5.7c0.4,1.3,1,2.3,2.1,2.8c1,0.6,2.5,0.9,4.6,0.9C332.3,322.6,333.8,322.3,334.8,321.7z"/>
		<path d="M344.8,302.2h1.5v1.7c1.5-0.8,2.8-1.3,4-1.6c1.2-0.3,2.5-0.5,3.7-0.5c1.9,0,3.3,0.3,4.2,0.9c1,0.6,1.6,1.7,2,3.2
			c0.4,1.5,0.6,3.7,0.6,6.5v11.1h-1.5v-11.1c0-2.5-0.1-4.3-0.4-5.6c-0.3-1.3-0.8-2.3-1.5-2.8c-0.7-0.6-1.8-0.9-3.2-0.9
			c-1.3,0-2.6,0.2-3.9,0.5c-1.3,0.3-2.3,0.7-3,1.1l-1,0.6v18.3h-1.5V302.2z"/>
		<path d="M377.3,293.6h10.9c3.1,0,5.3,0.7,6.7,2.2c1.4,1.5,2.1,3.8,2.1,7c0,3.3-0.7,5.8-2.2,7.4c-1.5,1.6-3.7,2.4-6.7,2.4h-9.3v11
			h-1.6V293.6z M388.1,311.1c4.8,0,7.3-2.8,7.3-8.3c0-2.6-0.6-4.6-1.7-5.8s-3-1.9-5.5-1.9h-9.3v16H388.1z"/>
		<path d="M402.2,302.2h1.5v3.3c2.5-1.9,5.3-3.1,8.5-3.8v1.5c-1.2,0.2-2.5,0.7-4,1.3c-1.5,0.6-2.6,1.2-3.2,1.7l-1.2,0.7v16.6h-1.5
			V302.2z"/>
		<path d="M418,323c-1.2-0.7-2.1-1.8-2.6-3.3c-0.5-1.5-0.7-3.7-0.7-6.5c0-3,0.3-5.3,0.8-6.9c0.5-1.6,1.4-2.8,2.6-3.4
			c1.2-0.7,3-1,5.3-1s4.1,0.3,5.3,1c1.2,0.7,2.1,1.9,2.6,3.5c0.5,1.6,0.7,3.9,0.7,6.8c0,2.8-0.2,5-0.7,6.5c-0.5,1.5-1.3,2.6-2.5,3.3
			c-1.2,0.7-3.1,1-5.5,1S419.2,323.6,418,323z M428,321.7c1-0.6,1.6-1.5,2-2.8s0.5-3.2,0.5-5.7c0-2.7-0.2-4.8-0.6-6.1
			c-0.4-1.4-1-2.4-2-2.9c-1-0.6-2.5-0.9-4.4-0.9s-3.5,0.3-4.5,0.9c-1,0.6-1.7,1.6-2.1,3c-0.4,1.4-0.6,3.4-0.6,6.1
			c0,2.5,0.2,4.4,0.5,5.7c0.4,1.3,1,2.3,2.1,2.8c1,0.6,2.5,0.9,4.6,0.9C425.5,322.6,427,322.3,428,321.7z"/>
		<path d="M440.2,333.1c-1.2-0.5-2-1.1-2.4-2.1c-0.4-0.9-0.6-2.2-0.6-3.8c0-1,0.1-1.8,0.3-2.4s0.5-1.1,0.9-1.5
			c0.4-0.4,1.2-1,2.3-1.9c-0.3-0.2-0.5-0.5-0.7-1c-0.2-0.5-0.2-1-0.2-1.6c0-0.3,0.1-0.7,0.2-1.2c0.2-0.4,0.5-1.2,1.1-2.4
			c-2.5-0.7-3.7-2.9-3.7-6.5c0-2.4,0.6-4.2,1.8-5.4c1.2-1.2,3.1-1.8,5.7-1.8c1.4,0,2.9,0.2,4.4,0.6l6-0.1v1.5l-4.7,0
			c0.6,0.4,1,1,1.3,1.9c0.3,0.9,0.4,2,0.4,3.3c0,2.5-0.6,4.3-1.8,5.4c-1.2,1.1-3.2,1.6-5.9,1.6c-0.9,0-1.7-0.1-2.4-0.2l-0.3,0.9
			c-0.2,0.5-0.4,0.9-0.5,1.3c-0.1,0.4-0.2,0.7-0.2,1.1c0,0.9,0.3,1.4,0.9,1.7s1.5,0.4,2.7,0.4l3,0c1.5,0,2.8,0.2,3.8,0.5
			c1,0.3,1.7,0.9,2.2,1.7c0.5,0.8,0.8,2.1,0.8,3.7s-0.3,2.9-0.9,3.9c-0.6,1-1.5,1.7-2.9,2.2c-1.4,0.5-3.2,0.7-5.6,0.7
			C443.1,333.8,441.4,333.5,440.2,333.1z M450.1,331.9c1.1-0.4,1.9-0.9,2.3-1.8c0.5-0.8,0.7-1.9,0.7-3.4c0-1.2-0.1-2.1-0.4-2.7
			c-0.3-0.6-0.9-1-1.7-1.3c-0.9-0.3-2.2-0.4-3.9-0.3l-5.1-0.2c-0.9,0.6-1.6,1.1-2.1,1.6s-0.7,0.9-0.9,1.3c-0.2,0.5-0.3,1.1-0.3,2
			c0,1.4,0.2,2.4,0.6,3.2c0.4,0.8,1.1,1.3,2.1,1.6c1,0.3,2.4,0.5,4.2,0.5C447.5,332.5,449,332.3,450.1,331.9z M449.4,313.3
			c0.9-0.8,1.3-2.3,1.3-4.5c0-2.1-0.4-3.6-1.3-4.4c-0.9-0.8-2.4-1.3-4.5-1.3c-2.2,0-3.8,0.4-4.7,1.3c-0.9,0.9-1.4,2.4-1.4,4.5
			c0,2.1,0.4,3.6,1.3,4.4s2.4,1.2,4.6,1.2C447,314.6,448.6,314.1,449.4,313.3z"/>
		<path d="M459.4,302.2h1.5v3.3c2.5-1.9,5.3-3.1,8.5-3.8v1.5c-1.2,0.2-2.5,0.7-4,1.3c-1.5,0.6-2.6,1.2-3.2,1.7l-1.2,0.7v16.6h-1.5
			V302.2z"/>
		<path d="M473.6,322.4c-1-1.1-1.5-2.6-1.5-4.5c0-1.9,0.5-3.4,1.4-4.4c1-1,2.5-1.7,4.5-1.9l8.1-0.8v-2.2c0-1.8-0.4-3.1-1.1-4
			c-0.7-0.9-1.8-1.3-3-1.3c-1.3,0-2.4,0-3.3,0.1c-1,0.1-2.7,0.3-5.4,0.6l-0.1-1.4c3-0.5,5.7-0.8,8.1-0.8c2.2,0,3.8,0.5,4.9,1.6
			c1,1.1,1.6,2.8,1.6,5.1v12.3c0,0.4,0.3,0.8,0.9,1.1c0.6,0.3,1.3,0.5,2.3,0.7l-0.1,1.3c-0.9,0-1.8-0.2-2.6-0.5
			c-0.8-0.3-1.4-0.8-1.8-1.4c-2.9,1.3-5.7,1.9-8.6,1.9C476,324,474.6,323.4,473.6,322.4z M485,321.3l1.2-0.5v-8.7l-8,0.8
			c-1.6,0.1-2.7,0.5-3.4,1.3c-0.7,0.8-1,1.9-1,3.4c0,3.3,1.3,5,4,5C480.3,322.6,482.7,322.1,485,321.3z"/>
		<path d="M494.7,302.2h1.5v1.7c2.3-1.4,4.7-2.1,7.2-2.1c2.7,0,4.6,0.8,5.5,2.3c0.8-0.6,2-1.1,3.6-1.6c1.6-0.5,3.2-0.7,4.9-0.7
			c1.7,0,3,0.3,3.9,1c0.9,0.7,1.5,1.8,1.9,3.3c0.4,1.5,0.5,3.6,0.5,6.4v11.1h-1.5v-11.1c0-2.5-0.1-4.5-0.4-5.8
			c-0.3-1.3-0.8-2.2-1.5-2.8c-0.7-0.5-1.8-0.8-3.3-0.8c-1.4,0-2.7,0.2-4,0.5c-1.3,0.3-2.2,0.7-2.8,1.1l-0.9,0.5
			c0.5,0.1,0.8,2.5,0.8,7.1v11.2h-1.5v-11.1c0-2.5-0.1-4.3-0.4-5.6c-0.3-1.3-0.8-2.3-1.5-2.8c-0.7-0.6-1.8-0.9-3.2-0.9
			c-1.3,0-2.5,0.2-3.8,0.5c-1.3,0.3-2.2,0.7-2.8,1.1l-0.9,0.6v18.3h-1.5V302.2z"/>
		<path d="M530.6,323.5l-1.2-0.2l0.2-1.5c3.4,0.5,5.8,0.8,7.3,0.8c2.1,0,3.7-0.4,4.7-1.1c1-0.8,1.5-2,1.5-3.6c0-1.2-0.2-2.1-0.7-2.7
			c-0.5-0.6-1.1-1-1.8-1.3c-0.7-0.2-1.8-0.5-3.1-0.7c-0.5-0.1-0.9-0.1-1.2-0.2c-1.9-0.3-3.4-0.7-4.4-1.1c-1-0.4-1.7-0.9-2.1-1.6
			c-0.4-0.7-0.6-1.5-0.6-2.7c0-2.2,0.7-3.8,2-4.6s3.3-1.3,5.8-1.3c2.3,0,4.2,0.1,5.8,0.4l1.1,0.2l-0.1,1.4c-1.4-0.2-2.7-0.4-4-0.5
			c-1.3-0.1-2.3-0.2-3-0.2c-2.2,0-3.7,0.4-4.7,1.1c-1,0.7-1.4,1.8-1.4,3.2c0,1.1,0.3,1.8,0.7,2.4c0.5,0.5,1.1,0.9,1.9,1.1
			c0.7,0.2,2,0.5,3.9,0.8c2,0.3,3.4,0.7,4.4,1.1c1,0.4,1.7,0.9,2.2,1.7c0.5,0.7,0.7,1.8,0.7,3.2c0,2.2-0.7,3.8-2,4.8
			c-1.3,1-3.3,1.5-6.1,1.5C535.1,324,533.1,323.8,530.6,323.5z"/>
	</g>
</g>
<g class="st2">
	<g>
		<path class="st3" d="M306.9,531.1l22.8-22.8c0.3-0.3,0.5-0.7,0.5-1.1c0-0.4-0.2-0.8-0.5-1.1l-2.4-2.4c-0.3-0.3-0.7-0.5-1.1-0.5
			s-0.8,0.2-1.1,0.5l-19.2,19.2l-19.2-19.2c-0.3-0.3-0.7-0.5-1.1-0.5c-0.4,0-0.8,0.2-1.1,0.5l-2.4,2.4c-0.3,0.3-0.5,0.7-0.5,1.1
			c0,0.4,0.2,0.8,0.5,1.1l22.8,22.8c0.3,0.3,0.7,0.5,1.1,0.5C306.2,531.6,306.5,531.4,306.9,531.1z"/>
		<path class="st3" d="M305.7,512.8c0.4,0,0.8-0.2,1.1-0.5l22.8-22.8c0.3-0.3,0.5-0.7,0.5-1.1c0-0.4-0.2-0.8-0.5-1.1l-2.4-2.4
			c-0.3-0.3-0.7-0.5-1.1-0.5c-0.4,0-0.8,0.2-1.1,0.5L305.7,504l-19.2-19.2c-0.3-0.3-0.7-0.5-1.1-0.5c-0.4,0-0.8,0.2-1.1,0.5
			l-2.4,2.4c-0.3,0.3-0.5,0.7-0.5,1.1c0,0.4,0.2,0.8,0.5,1.1l22.8,22.8C304.9,512.6,305.3,512.8,305.7,512.8z"/>
	</g>
</g>
<g>
	<path class="st0" d="M231.9,471.6l-1.1-0.1l0.2-1.4c2.8,0.4,5,0.6,6.4,0.6c3.4,0,5.1-1.6,5.1-4.9c0-0.9-0.1-1.6-0.4-2.1
		c-0.3-0.5-0.8-0.9-1.5-1.2c-0.7-0.3-1.8-0.6-3.2-0.8c-1.7-0.3-3-0.7-4-1.1c-0.9-0.4-1.6-1-2-1.8c-0.4-0.8-0.6-1.8-0.6-3.1
		c0-1.8,0.5-3.2,1.6-4.1c1.1-0.9,2.8-1.4,5.1-1.4c1.7,0,3.7,0.2,6.2,0.5l-0.2,1.4c-2.9-0.3-4.9-0.5-6-0.5c-3.4,0-5.2,1.3-5.2,4
		c0,1.1,0.1,1.9,0.4,2.4c0.3,0.5,0.8,0.9,1.5,1.2c0.8,0.3,2,0.6,3.7,1c1.6,0.3,2.8,0.6,3.6,1c0.9,0.4,1.5,0.9,1.9,1.6
		c0.4,0.7,0.6,1.6,0.6,2.8c0,2.2-0.5,3.9-1.6,4.9c-1.1,1.1-2.7,1.6-5,1.6C236,472,234.2,471.9,231.9,471.6z"/>
	<path class="st0" d="M249.8,471.3c-0.9-0.5-1.5-1.4-1.9-2.5c-0.4-1.1-0.6-2.7-0.6-4.6c0-1.5,0.1-2.8,0.3-3.9
		c0.2-1.1,0.8-2.1,1.6-2.9c0.8-0.8,2.1-1.2,3.8-1.2c0.6,0,1.3,0,1.9,0.1c0.6,0.1,1.5,0.2,2.6,0.4l-0.1,1.3c-1.6-0.2-2.9-0.3-3.8-0.3
		c-1.2,0-2.2,0.2-2.9,0.6c-0.7,0.4-1.2,1.1-1.5,2c-0.3,1-0.4,2.3-0.4,4.1c0,1.7,0.1,3,0.4,3.9c0.3,0.9,0.8,1.6,1.5,2
		c0.7,0.4,1.7,0.6,3.1,0.6l3.7-0.3l0.1,1.3c-1.9,0.2-3.2,0.3-4.1,0.3C251.9,472.1,250.7,471.8,249.8,471.3z"/>
	<path class="st0" d="M261.3,456.4h1.5v2.3c1.7-1.3,3.7-2.1,5.9-2.6v1.6c-0.8,0.2-1.8,0.5-2.8,0.9c-1,0.4-1.8,0.8-2.3,1.1l-0.8,0.5
		v11.7h-1.5V456.4z"/>
	<path class="st0" d="M273,471.3c-0.9-0.5-1.6-1.3-1.9-2.4s-0.6-2.7-0.6-4.6c0-2.1,0.2-3.7,0.6-4.8c0.4-1.2,1-2,2-2.5
		c0.9-0.5,2.2-0.8,3.8-0.8c1.7,0,2.9,0.3,3.9,0.8c0.9,0.5,1.6,1.4,1.9,2.5c0.4,1.2,0.6,2.8,0.6,4.8c0,2-0.2,3.5-0.5,4.6
		c-0.4,1.1-1,1.9-1.9,2.4c-0.9,0.5-2.2,0.8-3.9,0.8C275.2,472.1,273.9,471.8,273,471.3z M279.9,470.1c0.7-0.4,1.1-1.1,1.4-2
		c0.2-0.9,0.4-2.2,0.4-3.9c0-1.8-0.1-3.2-0.4-4.1c-0.3-1-0.7-1.6-1.4-2c-0.7-0.4-1.6-0.6-2.9-0.6c-1.3,0-2.3,0.2-3,0.6
		c-0.7,0.4-1.2,1.1-1.4,2c-0.3,1-0.4,2.3-0.4,4.1c0,1.7,0.1,3,0.4,3.9c0.2,0.9,0.7,1.6,1.4,2c0.7,0.4,1.7,0.6,3.1,0.6
		C278.3,470.7,279.3,470.5,279.9,470.1z"/>
	<path class="st0" d="M287.5,449.5h1.5v22.3h-1.5V449.5z"/>
	<path class="st0" d="M294.1,449.5h1.5v22.3h-1.5V449.5z"/>
	<path class="st0" d="M321.4,453.4c1,2,1.5,4.4,1.5,7.1c0,3.9-0.7,6.7-2,8.6c-1.3,1.8-3.1,2.8-5.5,2.8h-7.8v-21.4h7.8
		C318.4,450.4,320.4,451.4,321.4,453.4z M318.5,469.3c0.9-0.7,1.6-1.8,2.1-3.2c0.5-1.4,0.7-3.2,0.7-5.2c0-3.1-0.5-5.4-1.6-6.9
		c-1-1.5-2.5-2.2-4.3-2.2h-6.3v18.7h6.3C316.6,470.4,317.6,470.1,318.5,469.3z"/>
	<path class="st0" d="M329,471.3c-0.9-0.5-1.6-1.3-1.9-2.4c-0.4-1.1-0.6-2.7-0.6-4.6c0-2.1,0.2-3.7,0.6-4.8c0.4-1.2,1-2,2-2.5
		c0.9-0.5,2.2-0.8,3.8-0.8c1.7,0,2.9,0.3,3.9,0.8c0.9,0.5,1.6,1.4,1.9,2.5c0.4,1.2,0.6,2.8,0.6,4.8c0,2-0.2,3.5-0.5,4.6
		c-0.4,1.1-1,1.9-1.9,2.4c-0.9,0.5-2.2,0.8-3.9,0.8C331.2,472.1,329.9,471.8,329,471.3z M335.9,470.1c0.7-0.4,1.1-1.1,1.4-2
		c0.2-0.9,0.4-2.2,0.4-3.9c0-1.8-0.1-3.2-0.4-4.1c-0.3-1-0.7-1.6-1.4-2c-0.7-0.4-1.6-0.6-2.9-0.6c-1.3,0-2.3,0.2-3,0.6
		c-0.7,0.4-1.2,1.1-1.4,2c-0.3,1-0.4,2.3-0.4,4.1c0,1.7,0.1,3,0.4,3.9c0.2,0.9,0.7,1.6,1.4,2c0.7,0.4,1.7,0.6,3.1,0.6
		C334.3,470.7,335.3,470.5,335.9,470.1z"/>
	<path class="st0" d="M341.8,456.4h1.5l3.7,14h0.4l4.2-13.7h1.6l4.2,13.7h0.4l3.6-14h1.6l-4,15.4h-2.7l-3.9-13.2l-3.9,13.2h-2.7
		L341.8,456.4z"/>
	<path class="st0" d="M366.4,456.4h1.5v1.2c1-0.5,1.9-0.9,2.7-1.1c0.8-0.2,1.7-0.3,2.6-0.3c1.3,0,2.3,0.2,3,0.7
		c0.7,0.5,1.2,1.2,1.5,2.3c0.3,1.1,0.4,2.6,0.4,4.6v8h-1.5v-8c0-1.7-0.1-2.9-0.3-3.8c-0.2-0.9-0.5-1.5-1-1.9
		c-0.5-0.4-1.2-0.6-2.2-0.6c-0.8,0-1.7,0.1-2.6,0.3c-0.9,0.2-1.5,0.5-2,0.7l-0.7,0.3v12.9h-1.5V456.4z"/>
</g>
</svg>
